<svg width="48" height="10" viewBox="0 0 48 10" fill="none" xmlns="http://www.w3.org/2000/svg">
<path d="M47.2095 2.14486C46.4096 2.36815 45.5874 2.50184 44.758 2.54348L38.0745 3.26763C36.5625 3.44035 35.0713 3.76305 33.6232 4.23097C32.834 4.49663 32.0748 4.84398 31.3577 5.26738C30.5815 5.79043 29.7739 6.26524 28.9394 6.68913C28.4366 6.92451 27.8868 7.04264 27.3317 7.0346C26.7204 6.99904 26.1425 6.74429 25.704 6.31708C24.8602 5.44676 24.6277 4.39042 24.0763 3.71277C23.8482 3.38 23.505 3.14337 23.1129 3.0484C22.6926 2.95523 22.2543 2.98521 21.8506 3.13476C20.9442 3.46447 20.1839 4.10472 19.7047 4.94184C19.1267 5.79887 18.675 6.77549 18.0172 7.69232C17.3771 8.67747 16.4285 9.42275 15.3199 9.81165C14.738 9.97781 14.1213 9.97781 13.5394 9.81165C12.9881 9.64813 12.4799 9.36452 12.0512 8.98119C11.2848 8.27784 10.6875 7.41022 10.3039 6.44331C9.91861 5.55305 9.63957 4.68938 9.25423 3.932C8.81236 2.89671 8.01001 2.05683 6.99598 1.56814C5.98195 1.07945 4.82509 0.97513 3.74 1.27453C3.16364 1.41982 2.62491 1.68638 2.15977 2.05643C1.69463 2.42648 1.3138 2.8915 1.04267 3.42044C0.609026 4.23676 0.40251 5.15453 0.444721 6.07791C0.461366 6.66954 0.587529 7.25296 0.816785 7.79862C0.969589 8.18395 1.07589 8.37662 1.04267 8.4032C1.00945 8.42977 0.849998 8.26367 0.624113 7.89827C0.297997 7.35328 0.0960956 6.74307 0.0328167 6.11112C-0.094422 5.10017 0.0716196 4.07394 0.511162 3.15469C0.798973 2.52933 1.21785 1.97314 1.73939 1.52381C2.26094 1.07448 2.87299 0.742502 3.53404 0.550374C4.3414 0.314723 5.19125 0.262819 6.02128 0.398475C6.85131 0.534131 7.64045 0.853909 8.33077 1.33433C9.08192 1.89564 9.6841 2.63241 10.0847 3.48024C10.5165 4.31069 10.8221 5.18765 11.2008 6.01811C11.535 6.84554 12.053 7.58616 12.7156 8.18395C13.0179 8.47458 13.3907 8.68135 13.7973 8.78388C14.204 8.8864 14.6303 8.88113 15.0342 8.76859C15.9058 8.44192 16.6489 7.84322 17.1536 7.06117C17.7316 6.25729 18.1833 5.28066 18.8145 4.33726C19.1355 3.84812 19.5172 3.40165 19.9505 3.00853C20.4071 2.61167 20.9377 2.30911 21.5118 2.11828C22.1043 1.91566 22.7412 1.88117 23.3521 2.01863C23.9719 2.1718 24.5177 2.53883 24.8934 3.05504C25.5977 3.99844 25.8368 5.04814 26.4082 5.57299C26.6675 5.83312 27.0118 5.99114 27.3782 6.01811C27.7818 6.0212 28.1811 5.93499 28.5475 5.76566C29.3497 5.36811 30.1284 4.92445 30.8794 4.43692C31.657 3.9912 32.4814 3.63249 33.3375 3.36729C34.8527 2.91413 36.4116 2.62241 37.9881 2.49697C40.8449 2.2578 43.1369 2.18471 44.7314 2.10499C45.5564 2.02663 46.3875 2.04 47.2095 2.14486Z" fill="#2437AC"/>
</svg>
