<svg width="25" height="26" viewBox="0 0 25 26" fill="none" xmlns="http://www.w3.org/2000/svg">
<path d="M0 12.625C0 5.74023 5.56641 0.125 12.5 0.125C19.3848 0.125 25 5.74023 25 12.625C25 19.5586 19.3848 25.125 12.5 25.125C5.56641 25.125 0 19.5586 0 12.625ZM18.1152 10.4766C18.6523 9.93945 18.6523 9.10938 18.1152 8.57227C17.5781 8.03516 16.748 8.03516 16.2109 8.57227L10.9375 13.8457L8.74023 11.6973C8.20312 11.1602 7.37305 11.1602 6.83594 11.6973C6.29883 12.2344 6.29883 13.0645 6.83594 13.6016L9.96094 16.7266C10.498 17.2637 11.3281 17.2637 11.8652 16.7266L18.1152 10.4766Z" fill="#2437AC"/>
</svg>
