<svg width="19" height="20" viewBox="0 0 19 20" fill="none" xmlns="http://www.w3.org/2000/svg">
<path d="M14.8436 5.77953V12.8506C14.8436 13.1158 14.7331 13.3588 14.5563 13.5356C14.3575 13.7345 14.1144 13.845 13.8492 13.845C13.2968 13.8671 12.8328 13.403 12.8549 12.8506L12.8328 8.18811L6.07107 14.9498C5.67332 15.3476 5.0546 15.3476 4.65685 14.9498C4.2812 14.5742 4.25911 13.9334 4.65685 13.5356L11.4186 6.7739H6.77817C6.22575 6.796 5.76171 6.33196 5.78381 5.77953C5.76171 5.2271 6.22575 4.76307 6.77817 4.78516H13.8492C14.4017 4.76307 14.8657 5.2271 14.8436 5.77953Z" fill="#00B8FF"/>
</svg>
