<svg width="175" height="14" viewBox="0 0 175 14" fill="none" xmlns="http://www.w3.org/2000/svg">
<path d="M1.078 13V2.57H4.872C5.572 2.57 6.188 2.70067 6.72 2.962C7.252 3.214 7.66733 3.58733 7.966 4.082C8.274 4.56733 8.428 5.15067 8.428 5.832C8.428 6.55067 8.246 7.16667 7.882 7.68C7.52733 8.19333 7.04667 8.56667 6.44 8.8L8.848 13H6.972L4.41 8.45L5.488 9.08H2.73V13H1.078ZM2.73 7.61H4.9C5.28267 7.61 5.614 7.53533 5.894 7.386C6.174 7.23667 6.38867 7.03133 6.538 6.77C6.69667 6.49933 6.776 6.182 6.776 5.818C6.776 5.454 6.69667 5.14133 6.538 4.88C6.38867 4.60933 6.174 4.404 5.894 4.264C5.614 4.11467 5.28267 4.04 4.9 4.04H2.73V7.61ZM11.6382 13V2.57H18.5122V4.04H13.2902V7.036H18.2322V8.506H13.2902V11.53H18.5122V13H11.6382ZM21.4464 13V2.57H23.0984V11.53H27.6064V13H21.4464ZM29.4692 13L33.1372 2.57H35.1812L38.8492 13H37.0852L36.2872 10.662H32.0452L31.2332 13H29.4692ZM32.5212 9.192H35.7832L33.9352 3.732H34.3972L32.5212 9.192ZM40.5626 13L43.9646 7.722L40.6186 2.57H42.4946L45.2946 6.882H44.4966L47.2686 2.57H49.1446L45.8126 7.722L49.2146 13H47.3386L44.4966 8.576L45.2946 8.59L42.4246 13H40.5626ZM57.5369 13V4.04H54.7649V2.57H61.9049V4.04H59.1749V13H57.5369ZM64.5401 13V2.57H68.3341C69.0341 2.57 69.6501 2.70067 70.1821 2.962C70.7141 3.214 71.1294 3.58733 71.4281 4.082C71.7361 4.56733 71.8901 5.15067 71.8901 5.832C71.8901 6.55067 71.7081 7.16667 71.3441 7.68C70.9894 8.19333 70.5088 8.56667 69.9021 8.8L72.3101 13H70.4341L67.8721 8.45L68.9501 9.08H66.1921V13H64.5401ZM66.1921 7.61H68.3621C68.7448 7.61 69.0761 7.53533 69.3561 7.386C69.6361 7.23667 69.8508 7.03133 70.0001 6.77C70.1588 6.49933 70.2381 6.182 70.2381 5.818C70.2381 5.454 70.1588 5.14133 70.0001 4.88C69.8508 4.60933 69.6361 4.404 69.3561 4.264C69.0761 4.11467 68.7448 4.04 68.3621 4.04H66.1921V7.61ZM74.1763 13L77.8443 2.57H79.8883L83.5563 13H81.7923L80.9943 10.662H76.7523L75.9403 13H74.1763ZM77.2283 9.192H80.4903L78.6423 3.732H79.1043L77.2283 9.192ZM88.2684 13L84.5724 2.57H86.3504L89.3744 11.474H89.0244L92.0344 2.57H93.8124L90.1164 13H88.2684ZM96.4393 13V2.57H103.313V4.04H98.0913V7.036H103.033V8.506H98.0913V11.53H103.313V13H96.4393ZM106.248 13V2.57H107.9V11.53H112.408V13H106.248Z" fill="#2437AC"/>
<g clip-path="url(#clip0_7_4833)">
<path d="M170.21 4.14535C169.411 4.36864 168.588 4.50232 167.759 4.54396L161.075 5.26812C159.563 5.44083 158.072 5.76354 156.624 6.23146C155.835 6.49711 155.076 6.84447 154.359 7.26787C153.583 7.79092 152.775 8.26573 151.94 8.68962C151.438 8.925 150.888 9.04312 150.333 9.03509C149.721 8.99953 149.144 8.74478 148.705 8.31757C147.861 7.44725 147.629 6.39091 147.077 5.71326C146.849 5.38049 146.506 5.14385 146.114 5.04889C145.694 4.95572 145.255 4.9857 144.852 5.13525C143.945 5.46496 143.185 6.10521 142.706 6.94233C142.128 7.79936 141.676 8.77598 141.018 9.69281C140.378 10.678 139.43 11.4232 138.321 11.8121C137.739 11.9783 137.122 11.9783 136.54 11.8121C135.989 11.6486 135.481 11.365 135.052 10.9817C134.286 10.2783 133.688 9.41071 133.305 8.44379C132.92 7.55354 132.641 6.68987 132.255 5.93249C131.813 4.8972 131.011 4.05732 129.997 3.56863C128.983 3.07994 127.826 2.97562 126.741 3.27502C126.165 3.42031 125.626 3.68687 125.161 4.05692C124.696 4.42697 124.315 4.89199 124.044 5.42093C123.61 6.23725 123.403 7.15502 123.446 8.0784C123.462 8.67003 123.589 9.25345 123.818 9.79911C123.971 10.1844 124.077 10.3771 124.044 10.4037C124.01 10.4303 123.851 10.2642 123.625 9.89876C123.299 9.35377 123.097 8.74356 123.034 8.11161C122.907 7.10065 123.073 6.07443 123.512 5.15518C123.8 4.52982 124.219 3.97363 124.74 3.5243C125.262 3.07497 125.874 2.74299 126.535 2.55086C127.342 2.31521 128.192 2.26331 129.022 2.39896C129.852 2.53462 130.641 2.8544 131.332 3.33482C132.083 3.89613 132.685 4.6329 133.086 5.48072C133.518 6.31118 133.823 7.18814 134.202 8.0186C134.536 8.84603 135.054 9.58665 135.717 10.1844C136.019 10.4751 136.392 10.6818 136.798 10.7844C137.205 10.8869 137.631 10.8816 138.035 10.7691C138.907 10.4424 139.65 9.84371 140.155 9.06166C140.733 8.25778 141.184 7.28115 141.815 6.33775C142.136 5.84861 142.518 5.40214 142.952 5.00902C143.408 4.61216 143.939 4.3096 144.513 4.11877C145.105 3.91615 145.742 3.88166 146.353 4.01912C146.973 4.17229 147.519 4.53932 147.894 5.05553C148.599 5.99893 148.838 7.04862 149.409 7.57348C149.668 7.83361 150.013 7.99163 150.379 8.0186C150.783 8.02169 151.182 7.93548 151.548 7.76615C152.351 7.36859 153.129 6.92494 153.88 6.43741C154.658 5.99169 155.482 5.63298 156.339 5.36778C157.854 4.91462 159.413 4.6229 160.989 4.49746C163.846 4.25829 166.138 4.1852 167.732 4.10548C168.557 4.02711 169.388 4.04049 170.21 4.14535Z" fill="#2437AC"/>
<path d="M168.476 8.27067C168.423 8.13116 169.141 7.73918 170.223 7.0881C170.768 6.76256 171.413 6.36394 172.104 5.89224C172.449 5.65971 172.768 5.40061 173.167 5.13486C173.337 5.01878 173.495 4.88519 173.638 4.73625C173.758 4.61893 173.853 4.47887 173.917 4.32433C173.951 4.1981 173.917 4.20475 173.917 4.15824C173.821 4.07014 173.701 4.01237 173.572 3.99215L172.283 3.64668C171.459 3.4208 170.722 3.20156 170.104 2.98232C168.868 2.5837 168.111 2.2648 168.157 2.12528C168.204 1.98576 169.001 2.03891 170.283 2.25151C170.948 2.35781 171.678 2.50397 172.516 2.6767L173.844 2.96903C174.184 3.03085 174.495 3.19824 174.735 3.44737C174.883 3.61528 174.977 3.8234 175.007 4.0453C175.034 4.24923 175.011 4.45672 174.94 4.64988C174.829 4.95083 174.652 5.22318 174.422 5.44711C174.235 5.63977 174.025 5.80928 173.798 5.95203C173.412 6.23106 173.02 6.47688 172.648 6.70277C171.984 7.09981 171.292 7.44626 170.576 7.73918C169.34 8.25738 168.529 8.40355 168.476 8.27067Z" fill="#2437AC"/>
</g>
<defs>
<clipPath id="clip0_7_4833">
<rect width="52" height="9.86585" fill="white" transform="translate(123 2.06738)"/>
</clipPath>
</defs>
</svg>
