<svg width="154" height="40" viewBox="0 0 154 40" fill="none" xmlns="http://www.w3.org/2000/svg">
<g clip-path="url(#clip0_7_4795)">
<path d="M18.0945 36.3315C14.8636 36.3315 11.7052 35.3734 9.01885 33.5784C6.33247 31.7834 4.23868 29.2322 3.00227 26.2472C1.76587 23.2623 1.44237 19.9777 2.07268 16.8089C2.703 13.6401 4.25882 10.7294 6.5434 8.44477C8.82798 6.16019 11.7387 4.60436 14.9075 3.97405C18.0763 3.34373 21.3609 3.66723 24.3458 4.90364C27.3308 6.14005 29.8821 8.23383 31.6771 10.9202C33.472 13.6066 34.4301 16.7649 34.4301 19.9958C34.4253 24.3268 32.7027 28.4791 29.6402 31.5416C26.5777 34.6041 22.4255 36.3267 18.0945 36.3315Z" fill="#2437AC"/>
<path d="M18.094 35.3364C21.1279 35.3364 24.0938 34.4367 26.6164 32.7511C29.1391 31.0655 31.1053 28.6697 32.2663 25.8667C33.4274 23.0637 33.7312 19.9793 33.1393 17.0036C32.5474 14.0279 31.0864 11.2946 28.941 9.14926C26.7957 7.00391 24.0623 5.54291 21.0867 4.95101C18.111 4.35911 15.0266 4.6629 12.2236 5.82395C9.42055 6.985 7.02476 8.95118 5.33917 11.4738C3.65358 13.9965 2.75391 16.9623 2.75391 19.9963C2.7587 24.0633 4.37642 27.9623 7.2522 30.8381C10.128 33.7139 14.027 35.3316 18.094 35.3364Z" fill="white"/>
<path d="M38.2725 14.2033C38.0139 14.1076 37.326 13.2956 34.2358 13.5542C33.2014 13.6421 30.2042 14.5886 26.4157 15.7704L17.5458 12.1914L14.8719 12.4759L22.0015 17.1487C19.5318 17.909 16.9329 18.6822 14.4271 19.3546L9.21119 15.7342L7.76562 16.1273L12.1825 21.7699L10.9076 24.4128L12.7566 24.193L13.9823 22.4216C17.4592 22.3106 20.9201 21.8996 24.3263 21.1932L22.5937 28.1754L24.784 27.2341L28.1768 20.3579C38.8647 17.803 39.7853 15.848 39.987 15.3023C40.2042 14.6817 38.5337 14.3016 38.2725 14.2033Z" fill="#2437AC"/>
<path d="M4.25098 30.9883L22.0063 27.7558L22.3425 25.8086L4.25098 30.9883Z" fill="#2437AC"/>
<path d="M2.22656 28.2575L22.692 24.1794L23.1058 22.1055L2.22656 28.2575Z" fill="#2437AC"/>
<path d="M10.548 23.5893L1.02637 25.5495L11.1453 22.4023L10.548 23.5893Z" fill="#2437AC"/>
<path d="M10.6082 20.7755L0.4375 23.0589L9.8841 19.9531L10.6082 20.7755Z" fill="#2437AC"/>
<path d="M9.04577 18.4812L0 20.5707L8.3217 17.6562L9.04577 18.4812Z" fill="#2437AC"/>
</g>
<path d="M56.528 33V13H50.352V9.16H66.992V13H60.912V33H56.528ZM65.9495 33V15.592H69.8855V19.464L69.5655 18.888C69.9708 17.5867 70.6002 16.68 71.4535 16.168C72.3282 15.656 73.3735 15.4 74.5895 15.4H75.6135V19.112H74.1095C72.9148 19.112 71.9548 19.4853 71.2295 20.232C70.5042 20.9573 70.1415 21.9813 70.1415 23.304V33H65.9495ZM81.7582 33.384C80.5422 33.384 79.4862 33.1813 78.5902 32.776C77.6942 32.3707 77.0009 31.7947 76.5102 31.048C76.0196 30.28 75.7742 29.3947 75.7742 28.392C75.7742 27.432 75.9876 26.5787 76.4142 25.832C76.8409 25.064 77.5022 24.424 78.3982 23.912C79.2942 23.4 80.4249 23.0373 81.7902 22.824L87.4862 21.896V25.096L82.5902 25.928C81.7582 26.0773 81.1396 26.344 80.7342 26.728C80.3289 27.112 80.1262 27.6133 80.1262 28.232C80.1262 28.8293 80.3502 29.3093 80.7982 29.672C81.2676 30.0133 81.8436 30.184 82.5262 30.184C83.4009 30.184 84.1689 30.0027 84.8302 29.64C85.5129 29.256 86.0356 28.7333 86.3982 28.072C86.7822 27.4107 86.9742 26.6853 86.9742 25.896V21.416C86.9742 20.6693 86.6756 20.0507 86.0782 19.56C85.5022 19.048 84.7342 18.792 83.7742 18.792C82.8782 18.792 82.0782 19.0373 81.3742 19.528C80.6916 19.9973 80.1902 20.6267 79.8702 21.416L76.4462 19.752C76.7876 18.8347 77.3209 18.0453 78.0462 17.384C78.7929 16.7013 79.6676 16.168 80.6702 15.784C81.6729 15.4 82.7609 15.208 83.9342 15.208C85.3636 15.208 86.6222 15.4747 87.7102 16.008C88.7982 16.52 89.6409 17.2453 90.2382 18.184C90.8569 19.1013 91.1663 20.1787 91.1663 21.416V33H87.1982V30.024L88.0942 29.96C87.6462 30.7067 87.1129 31.336 86.4942 31.848C85.8756 32.3387 85.1716 32.7227 84.3822 33C83.5929 33.256 82.7182 33.384 81.7582 33.384ZM98.5363 33L91.6883 15.592H96.2643L101.224 29.288H99.5283L104.52 15.592H109.096L102.248 33H98.5363ZM117.917 33.384C116.125 33.384 114.557 32.9787 113.213 32.168C111.869 31.3573 110.823 30.2587 110.077 28.872C109.33 27.4853 108.957 25.9493 108.957 24.264C108.957 22.5147 109.33 20.968 110.077 19.624C110.845 18.2587 111.879 17.1813 113.181 16.392C114.503 15.6027 115.975 15.208 117.597 15.208C118.962 15.208 120.157 15.432 121.181 15.88C122.226 16.328 123.111 16.9467 123.837 17.736C124.562 18.5253 125.117 19.432 125.501 20.456C125.885 21.4587 126.077 22.5467 126.077 23.72C126.077 24.0187 126.055 24.328 126.013 24.648C125.991 24.968 125.938 25.2453 125.853 25.48H112.413V22.28H123.485L121.501 23.784C121.693 22.8027 121.639 21.928 121.341 21.16C121.063 20.392 120.594 19.784 119.933 19.336C119.293 18.888 118.514 18.664 117.597 18.664C116.722 18.664 115.943 18.888 115.261 19.336C114.578 19.7627 114.055 20.4027 113.693 21.256C113.351 22.088 113.223 23.1013 113.309 24.296C113.223 25.3627 113.362 26.312 113.725 27.144C114.109 27.9547 114.663 28.584 115.389 29.032C116.135 29.48 116.989 29.704 117.949 29.704C118.909 29.704 119.719 29.5013 120.381 29.096C121.063 28.6907 121.597 28.1467 121.981 27.464L125.373 29.128C125.031 29.96 124.498 30.696 123.773 31.336C123.047 31.976 122.183 32.4773 121.181 32.84C120.199 33.2027 119.111 33.384 117.917 33.384ZM127.815 33V8.776H132.007V33H127.815ZM132.837 33L140.645 21L132.901 9.16H137.893L144.229 18.856H141.925L148.229 9.16H153.221L145.509 21L153.285 33H148.293L141.925 23.176H144.229L137.829 33H132.837Z" fill="#2437AC"/>
<defs>
<clipPath id="clip0_7_4795">
<rect width="40" height="32.6713" fill="white" transform="translate(0 3.66406)"/>
</clipPath>
</defs>
</svg>
