<svg width="112" height="110" viewBox="0 0 112 110" fill="none" xmlns="http://www.w3.org/2000/svg" xmlns:xlink="http://www.w3.org/1999/xlink">
<path d="M74.723,48.434C73.298,48.434 72.143,49.588 72.143,51.013C72.143,52.437 73.298,53.592 74.723,53.592L74.723,48.434ZM90.204,50.794L89.027,48.499L89.002,48.512L90.204,50.794ZM99.741,45.902L98.858,43.479C98.757,43.516 98.659,43.559 98.564,43.608L99.741,45.902ZM100.478,46.371L103.053,46.511L103.054,46.492L100.478,46.371ZM99.924,56.549L102.472,56.944C102.485,56.859 102.494,56.774 102.499,56.689L99.924,56.549ZM99.948,56.689L98.233,58.615C98.248,58.628 98.262,58.641 98.277,58.654L99.948,56.689ZM67.281,53.592C68.705,53.592 69.86,52.437 69.86,51.013C69.86,49.588 68.705,48.434 67.281,48.434L67.281,53.592ZM74.723,53.592L84.54,53.592L84.54,48.434L74.723,48.434L74.723,53.592ZM84.54,53.592L89.302,53.592L89.302,48.434L84.54,48.434L84.54,53.592ZM89.302,53.592C89.376,53.592 89.544,53.593 89.664,53.59C89.817,53.586 90.07,53.573 90.369,53.502C90.671,53.43 90.907,53.326 91.058,53.254C91.182,53.195 91.327,53.117 91.406,53.075L89.002,48.512C88.937,48.546 88.9,48.565 88.864,48.584C88.83,48.602 88.824,48.605 88.83,48.602C88.849,48.593 88.982,48.529 89.178,48.483C89.371,48.437 89.515,48.434 89.522,48.434C89.524,48.434 89.513,48.434 89.47,48.434C89.449,48.434 89.427,48.434 89.398,48.434C89.37,48.434 89.338,48.434 89.302,48.434L89.302,53.592ZM91.381,53.088L100.918,48.197L98.564,43.608L89.027,48.499L91.381,53.088ZM100.624,48.326C100.618,48.328 100.468,48.385 100.222,48.398C99.966,48.413 99.472,48.386 98.953,48.063C98.402,47.722 98.12,47.234 97.998,46.865C97.89,46.539 97.899,46.299 97.901,46.25L103.054,46.492C103.075,46.04 103.065,44.545 101.672,43.681C100.447,42.921 99.199,43.355 98.858,43.479L100.624,48.326ZM97.902,46.231L97.348,56.409L102.499,56.689L103.053,46.511L97.902,46.231ZM97.375,56.154C97.383,56.103 97.398,56.027 97.385,56.096C97.381,56.115 97.366,56.189 97.354,56.283C97.341,56.38 97.326,56.538 97.333,56.732C97.352,57.194 97.491,57.641 97.736,58.031C97.934,58.345 98.154,58.545 98.233,58.615L101.663,54.762C101.714,54.808 101.916,54.988 102.102,55.284C102.336,55.655 102.47,56.085 102.488,56.528C102.495,56.713 102.48,56.861 102.469,56.947C102.458,57.03 102.446,57.092 102.444,57.099C102.436,57.141 102.458,57.034 102.472,56.944L97.375,56.154ZM98.277,58.654C102.885,62.571 105.81,68.382 105.81,74.83L110.968,74.83C110.968,66.787 107.315,59.567 101.618,54.724L98.277,58.654ZM105.81,74.83L105.81,75.864L110.968,75.864L110.968,74.83L105.81,74.83ZM105.81,75.864C105.81,87.541 96.236,97.108 84.54,97.108L84.54,102.267C99.08,102.267 110.968,90.395 110.968,75.864L105.81,75.864ZM84.54,97.108L64.388,97.108L64.388,102.267L84.54,102.267L84.54,97.108ZM64.388,97.108C52.692,97.108 43.118,87.541 43.118,75.864L37.96,75.864C37.96,90.395 49.848,102.267 64.388,102.267L64.388,97.108ZM43.118,75.864L43.118,74.83L37.96,74.83L37.96,75.864L43.118,75.864ZM43.118,74.83C43.118,63.159 52.691,53.592 64.388,53.592L64.388,48.434C49.849,48.434 37.96,60.304 37.96,74.83L43.118,74.83ZM64.388,53.592L67.281,53.592L67.281,48.434L64.388,48.434L64.388,53.592Z" fill="#2437AC"/>
<path d="M36.792,61.601C35.367,61.601 34.213,62.755 34.213,64.18C34.213,65.604 35.367,66.759 36.792,66.759L36.792,61.601ZM69.222,27.508C68.581,26.236 67.03,25.725 65.758,26.367C64.486,27.008 63.975,28.559 64.617,29.831L69.222,27.508ZM43.077,18.084C44.501,18.084 45.656,16.929 45.656,15.505C45.656,14.081 44.501,12.926 43.077,12.926L43.077,18.084ZM19.788,15.292L18.61,17.586L18.611,17.587L19.788,15.292ZM10.251,10.395L11.429,8.1C11.337,8.053 11.241,8.011 11.144,7.975L10.251,10.395ZM9.52,10.869L12.096,10.73L12.095,10.72L9.52,10.869ZM10.069,21.041L7.493,21.18C7.497,21.254 7.505,21.328 7.515,21.402L10.069,21.041ZM10.044,21.181L8.462,19.144C8.432,19.167 8.403,19.191 8.374,19.216L10.044,21.181ZM29.35,66.759C30.774,66.759 31.929,65.604 31.929,64.18C31.929,62.755 30.774,61.601 29.35,61.601L29.35,66.759ZM36.792,66.759L45.604,66.759L45.604,61.601L36.792,61.601L36.792,66.759ZM45.604,66.759C60.144,66.759 72.032,54.887 72.032,40.356L66.874,40.356C66.874,52.033 57.3,61.601 45.604,61.601L45.604,66.759ZM72.032,40.356L72.032,39.328L66.874,39.328L66.874,40.356L72.032,40.356ZM72.032,39.328C72.032,35.087 71.019,31.07 69.222,27.508L64.617,29.831C66.06,32.693 66.874,35.917 66.874,39.328L72.032,39.328ZM43.077,12.926L25.458,12.926L25.458,18.084L43.077,18.084L43.077,12.926ZM25.458,12.926L20.696,12.926L20.696,18.084L25.458,18.084L25.458,12.926ZM20.696,12.926C20.66,12.926 20.627,12.926 20.599,12.926C20.569,12.926 20.547,12.926 20.526,12.926C20.505,12.926 20.491,12.926 20.48,12.926C20.47,12.926 20.466,12.926 20.468,12.926C20.469,12.926 20.607,12.928 20.793,12.971C20.984,13.014 21.115,13.075 21.135,13.084C21.142,13.087 21.136,13.085 21.102,13.067C21.066,13.049 21.03,13.03 20.965,12.997L18.611,17.587C18.691,17.628 18.836,17.703 18.961,17.761C19.113,17.832 19.347,17.932 19.645,18C19.938,18.066 20.186,18.079 20.335,18.082C20.453,18.085 20.619,18.084 20.696,18.084L20.696,12.926ZM20.966,12.998L11.429,8.1L9.073,12.689L18.61,17.586L20.966,12.998ZM11.144,7.975C10.796,7.847 9.541,7.41 8.313,8.18C6.919,9.054 6.919,10.555 6.946,11.018L12.095,10.72C12.098,10.771 12.11,11.014 12.003,11.343C11.883,11.715 11.603,12.205 11.052,12.55C10.532,12.876 10.036,12.905 9.775,12.891C9.524,12.877 9.37,12.819 9.359,12.814L11.144,7.975ZM6.945,11.008L7.493,21.18L12.644,20.902L12.096,10.73L6.945,11.008ZM7.515,21.402C7.528,21.494 7.547,21.591 7.542,21.562C7.541,21.56 7.53,21.503 7.521,21.428C7.511,21.35 7.497,21.205 7.505,21.021C7.523,20.572 7.663,20.106 7.946,19.694C8.167,19.372 8.409,19.186 8.462,19.144L11.626,23.218C11.707,23.155 11.967,22.951 12.199,22.612C12.494,22.183 12.639,21.701 12.658,21.232C12.666,21.039 12.651,20.884 12.64,20.795C12.63,20.709 12.617,20.64 12.614,20.624C12.603,20.567 12.615,20.631 12.622,20.68L7.515,21.402ZM8.374,19.216C2.675,24.06 -0.97,31.281 -0.97,39.328L4.188,39.328C4.188,32.872 7.108,27.062 11.715,23.146L8.374,19.216ZM-0.97,39.328L-0.97,40.356L4.188,40.356L4.188,39.328L-0.97,39.328ZM-0.97,40.356C-0.97,54.887 10.918,66.759 25.458,66.759L25.458,61.601C13.762,61.601 4.188,52.033 4.188,40.356L-0.97,40.356ZM25.458,66.759L29.35,66.759L29.35,61.601L25.458,61.601L25.458,66.759Z" fill="#2437AC"/>
</svg>
