<svg width="228" height="96" viewBox="0 0 228 96" fill="none" xmlns="http://www.w3.org/2000/svg" xmlns:xlink="http://www.w3.org/1999/xlink">
<path d="M24.617,26.212L24.617,44.388L7.925,44.388L7.925,26.212L0,26.212L0,69.599L7.925,69.599L7.925,52.014L24.617,52.014L24.617,69.599L32.542,69.599L32.542,26.212L24.617,26.212Z" fill="#33475B"/>
<path d="M57.904,55.573C57.904,57.312 57.214,58.98 55.984,60.209C54.755,61.439 53.087,62.129 51.348,62.129C49.609,62.129 47.942,61.439 46.712,60.209C45.483,58.98 44.792,57.312 44.792,55.573L44.792,36.99L37.275,36.99L37.275,55.573C37.275,59.302 38.756,62.878 41.393,65.515C44.03,68.152 47.606,69.633 51.335,69.633C55.064,69.633 58.64,68.152 61.276,65.515C63.913,62.878 65.394,59.302 65.394,55.573L65.394,36.99L57.904,36.99L57.904,55.573Z" fill="#33475B"/>
<path d="M113.601,38.905C113.601,35.096 116.121,33.889 118.882,33.889C121.107,33.889 124.046,35.582 125.968,37.636L130.892,31.835C128.434,28.511 123.448,26.212 119.367,26.212C111.213,26.212 105.315,30.988 105.315,38.905C105.315,53.594 123.27,48.935 123.27,57.155C123.27,59.69 120.808,61.93 117.989,61.93C113.543,61.93 112.103,59.756 110.06,57.457L104.597,63.138C108.092,67.429 112.402,69.607 117.566,69.607C125.312,69.607 131.544,64.773 131.544,57.217C131.544,40.909 113.59,45.976 113.59,38.905Z" fill="#33475B"/>
<path d="M224.674,62.668C220.232,62.668 218.97,60.746 218.97,57.803L218.97,44.776L225.874,44.776L225.874,38.175L218.97,38.175L218.97,29.466L211.348,32.886L211.348,59.422C211.348,66.209 216.03,69.63 222.452,69.63C223.46,69.648 224.466,69.567 225.458,69.389L227.318,62.543C226.478,62.602 225.516,62.66 224.674,62.66Z" fill="#33475B"/>
<path d="M86.519,37.209C82.795,37.209 80.198,38.289 77.685,40.754L77.685,26.473L70.157,26.473L70.157,52.942C70.157,62.851 77.32,69.639 85.369,69.639C94.3,69.639 102.155,62.731 102.155,53.428C102.155,44.241 94.925,37.213 86.519,37.213L86.519,37.209ZM86.472,62.063C84.783,62.063 83.131,61.562 81.726,60.624C80.322,59.685 79.227,58.351 78.58,56.79C77.934,55.229 77.764,53.512 78.094,51.854C78.424,50.197 79.237,48.675 80.432,47.481C81.627,46.286 83.149,45.473 84.806,45.143C86.463,44.813 88.18,44.982 89.741,45.629C91.302,46.276 92.636,47.37 93.575,48.775C94.513,50.18 95.014,51.831 95.014,53.521C95.014,55.787 94.114,57.959 92.512,59.561C90.91,61.163 88.738,62.063 86.472,62.063Z" fill="#33475B"/>
<path d="M168.267,53.03C168.267,43.711 160.428,36.819 151.482,36.819C143.433,36.819 136.269,43.606 136.269,53.515L136.269,80L143.798,80L143.798,65.7C146.306,68.161 148.908,69.245 152.627,69.245C161.034,69.245 168.263,62.221 168.263,53.03L168.267,53.03ZM161.138,52.937C161.138,54.626 160.637,56.278 159.699,57.683C158.76,59.087 157.426,60.182 155.865,60.829C154.304,61.475 152.587,61.645 150.93,61.315C149.273,60.985 147.751,60.172 146.556,58.977C145.361,57.782 144.548,56.26 144.218,54.603C143.889,52.946 144.058,51.229 144.704,49.668C145.351,48.107 146.446,46.773 147.85,45.834C149.255,44.896 150.907,44.395 152.596,44.395C154.862,44.395 157.034,45.295 158.636,46.897C160.238,48.499 161.138,50.671 161.138,52.937Z" fill="#33475B"/>
<path d="M192.514,36.699L192.514,29.213C193.503,28.751 194.341,28.018 194.929,27.098C195.517,26.178 195.832,25.11 195.837,24.018L195.837,23.843C195.833,22.317 195.225,20.855 194.146,19.776C193.067,18.697 191.605,18.089 190.079,18.085L189.904,18.085C188.378,18.089 186.916,18.697 185.837,19.776C184.758,20.855 184.15,22.317 184.146,23.843L184.146,24.018C184.151,25.11 184.466,26.178 185.054,27.098C185.643,28.018 186.48,28.751 187.47,29.213L187.47,36.699C184.625,37.134 181.946,38.313 179.704,40.116L159.149,24.123C159.295,23.595 159.373,23.051 159.382,22.504C159.383,21.219 159.004,19.963 158.291,18.893C157.579,17.824 156.565,16.991 155.379,16.497C154.192,16.004 152.886,15.874 151.626,16.123C150.366,16.372 149.207,16.99 148.298,17.897C147.388,18.805 146.768,19.961 146.516,21.221C146.264,22.481 146.391,23.787 146.881,24.975C147.371,26.162 148.203,27.178 149.27,27.893C150.338,28.608 151.593,28.99 152.878,28.992C154.006,28.988 155.114,28.686 156.089,28.118L176.299,43.851C174.479,46.598 173.529,49.829 173.574,53.124C173.619,56.418 174.657,59.623 176.551,62.318L170.401,68.469C169.907,68.311 169.393,68.228 168.875,68.22C167.819,68.22 166.787,68.533 165.909,69.12C165.031,69.706 164.347,70.54 163.943,71.516C163.538,72.491 163.433,73.565 163.639,74.6C163.845,75.636 164.353,76.587 165.1,77.334C165.847,78.081 166.798,78.589 167.833,78.795C168.869,79.001 169.943,78.895 170.918,78.491C171.894,78.087 172.727,77.403 173.314,76.525C173.901,75.647 174.214,74.615 174.214,73.559C174.207,73.041 174.123,72.527 173.965,72.033L180.05,65.949C182.036,67.466 184.342,68.509 186.793,68.999C189.244,69.488 191.774,69.412 194.191,68.774C196.607,68.137 198.846,66.956 200.737,65.321C202.628,63.687 204.12,61.642 205.099,59.343C206.079,57.043 206.521,54.551 206.39,52.055C206.26,49.559 205.561,47.126 204.346,44.942C203.132,42.757 201.435,40.879 199.384,39.451C197.333,38.022 194.983,37.081 192.514,36.699L192.514,36.699ZM189.994,61.324C188.329,61.324 186.701,60.83 185.317,59.905C183.933,58.98 182.854,57.666 182.216,56.128C181.579,54.589 181.413,52.897 181.737,51.264C182.062,49.631 182.864,48.131 184.041,46.954C185.219,45.777 186.718,44.975 188.351,44.65C189.984,44.325 191.677,44.492 193.215,45.129C194.753,45.766 196.068,46.845 196.993,48.229C197.918,49.614 198.412,51.241 198.412,52.906C198.412,55.139 197.525,57.28 195.946,58.859C194.367,60.437 192.226,61.324 189.994,61.324Z" fill="#FF7A59"/>
</svg>
