<svg width="228" height="96" viewBox="0 0 228 96" fill="none" xmlns="http://www.w3.org/2000/svg" xmlns:xlink="http://www.w3.org/1999/xlink">
<path d="M24.617,26.174L24.617,44.349L7.925,44.349L7.925,26.174L0,26.174L0,69.56L7.925,69.56L7.925,51.975L24.617,51.975L24.617,69.56L32.542,69.56L32.542,26.174L24.617,26.174Z" fill="#33475B"/>
<path d="M57.904,55.535C57.904,57.274 57.214,58.941 55.984,60.171C54.755,61.4 53.087,62.091 51.348,62.091C49.609,62.091 47.942,61.4 46.712,60.171C45.483,58.941 44.792,57.274 44.792,55.535L44.792,36.952L37.275,36.952L37.275,55.535C37.275,59.264 38.756,62.84 41.393,65.476C44.03,68.113 47.606,69.594 51.335,69.594C55.064,69.594 58.64,68.113 61.276,65.476C63.913,62.84 65.394,59.264 65.394,55.535L65.394,36.952L57.904,36.952L57.904,55.535Z" fill="#33475B"/>
<path d="M113.601,38.867C113.601,35.058 116.121,33.85 118.882,33.85C121.107,33.85 124.046,35.543 125.968,37.597L130.892,31.796C128.434,28.472 123.448,26.174 119.367,26.174C111.213,26.174 105.315,30.95 105.315,38.867C105.315,53.555 123.27,48.896 123.27,57.116C123.27,59.651 120.808,61.892 117.989,61.892C113.543,61.892 112.103,59.717 110.06,57.419L104.597,63.099C108.092,67.39 112.402,69.568 117.566,69.568C125.312,69.568 131.544,64.734 131.544,57.178C131.544,40.87 113.59,45.937 113.59,38.867Z" fill="#33475B"/>
<path d="M224.674,62.629C220.232,62.629 218.97,60.707 218.97,57.764L218.97,44.737L225.874,44.737L225.874,38.136L218.97,38.136L218.97,29.427L211.348,32.848L211.348,59.383C211.348,66.17 216.03,69.591 222.452,69.591C223.46,69.609 224.466,69.529 225.458,69.35L227.318,62.505C226.478,62.563 225.516,62.621 224.674,62.621Z" fill="#33475B"/>
<path d="M86.519,37.171C82.795,37.171 80.198,38.25 77.685,40.716L77.685,26.435L70.157,26.435L70.157,52.904C70.157,62.813 77.32,69.6 85.369,69.6C94.3,69.6 102.155,62.692 102.155,53.389C102.155,44.202 94.925,37.175 86.519,37.175L86.519,37.171ZM86.472,62.025C84.783,62.025 83.131,61.524 81.726,60.585C80.322,59.646 79.227,58.312 78.58,56.751C77.934,55.19 77.764,53.473 78.094,51.816C78.424,50.159 79.237,48.637 80.432,47.442C81.627,46.247 83.149,45.434 84.806,45.104C86.463,44.775 88.18,44.944 89.741,45.59C91.302,46.237 92.636,47.332 93.575,48.737C94.513,50.141 95.014,51.793 95.014,53.482C95.014,55.748 94.114,57.921 92.512,59.523C90.91,61.125 88.738,62.025 86.472,62.025Z" fill="#33475B"/>
<path d="M168.267,52.991C168.267,43.673 160.428,36.781 151.482,36.781C143.433,36.781 136.269,43.568 136.269,53.477L136.269,79.962L143.798,79.962L143.798,65.661C146.306,68.123 148.908,69.206 152.627,69.206C161.034,69.206 168.263,62.182 168.263,52.991L168.267,52.991ZM161.138,52.898C161.138,54.588 160.637,56.239 159.699,57.644C158.76,59.049 157.426,60.144 155.865,60.79C154.304,61.437 152.587,61.606 150.93,61.276C149.273,60.947 147.751,60.133 146.556,58.939C145.361,57.744 144.548,56.222 144.218,54.565C143.889,52.908 144.058,51.19 144.704,49.629C145.351,48.068 146.446,46.734 147.85,45.796C149.255,44.857 150.907,44.356 152.596,44.356C154.862,44.356 157.034,45.256 158.636,46.858C160.238,48.46 161.138,50.633 161.138,52.898Z" fill="#33475B"/>
<path d="M192.514,36.66L192.514,29.174C193.503,28.712 194.341,27.978 194.929,27.059C195.517,26.139 195.832,25.071 195.837,23.979L195.837,23.804C195.833,22.278 195.225,20.816 194.146,19.737C193.067,18.658 191.605,18.05 190.079,18.046L189.904,18.046C188.378,18.05 186.916,18.658 185.837,19.737C184.758,20.816 184.15,22.278 184.146,23.804L184.146,23.979C184.151,25.071 184.466,26.139 185.054,27.059C185.643,27.978 186.48,28.712 187.47,29.174L187.47,36.66C184.625,37.095 181.946,38.274 179.704,40.077L159.149,24.084C159.295,23.556 159.373,23.012 159.382,22.465C159.383,21.18 159.004,19.923 158.291,18.854C157.579,17.785 156.565,16.951 155.379,16.458C154.192,15.965 152.886,15.835 151.626,16.084C150.365,16.333 149.207,16.951 148.298,17.858C147.388,18.765 146.768,19.922 146.516,21.182C146.264,22.442 146.391,23.748 146.881,24.936C147.371,26.123 148.203,27.139 149.27,27.854C150.338,28.569 151.593,28.951 152.878,28.953C154.006,28.949 155.114,28.647 156.089,28.079L176.299,43.812C174.479,46.559 173.529,49.79 173.574,53.085C173.619,56.379 174.657,59.584 176.551,62.279L170.401,68.43C169.907,68.272 169.393,68.189 168.875,68.181C167.819,68.181 166.787,68.494 165.909,69.081C165.031,69.667 164.347,70.501 163.943,71.477C163.538,72.452 163.433,73.526 163.639,74.561C163.845,75.597 164.353,76.548 165.1,77.295C165.846,78.042 166.798,78.55 167.833,78.756C168.869,78.962 169.943,78.856 170.918,78.452C171.894,78.048 172.727,77.364 173.314,76.486C173.901,75.608 174.214,74.576 174.214,73.52C174.207,73.002 174.123,72.488 173.965,71.994L180.05,65.91C182.036,67.427 184.342,68.47 186.793,68.96C189.244,69.449 191.774,69.373 194.191,68.735C196.607,68.098 198.846,66.917 200.737,65.282C202.628,63.648 204.12,61.603 205.099,59.304C206.079,57.004 206.521,54.512 206.39,52.016C206.26,49.52 205.561,47.087 204.346,44.903C203.132,42.718 201.435,40.84 199.384,39.412C197.333,37.983 194.983,37.042 192.514,36.66L192.514,36.66ZM189.994,61.285C188.329,61.285 186.701,60.791 185.317,59.866C183.933,58.941 182.854,57.627 182.216,56.089C181.579,54.55 181.413,52.858 181.737,51.225C182.062,49.592 182.864,48.092 184.041,46.915C185.219,45.738 186.718,44.936 188.351,44.611C189.984,44.286 191.677,44.453 193.215,45.09C194.753,45.727 196.068,46.806 196.993,48.19C197.918,49.575 198.412,51.202 198.412,52.867C198.412,55.1 197.525,57.241 195.946,58.82C194.367,60.398 192.226,61.285 189.994,61.285Z" fill="#FF7A59"/>
</svg>
