<svg width="342" height="96" viewBox="0 0 342 96" fill="none" xmlns="http://www.w3.org/2000/svg" xmlns:xlink="http://www.w3.org/1999/xlink">
<path d="M127.064,43.659L120.854,42.311C117.747,41.638 116.037,39.721 116.037,36.913C116.037,33.344 119.206,30.652 123.408,30.652C129.224,30.652 130.941,34.93 131.33,36.243C131.453,36.68 131.757,37.05 132.165,37.254C132.563,37.458 133.009,37.488 133.436,37.339L136.709,36.185C137.102,36.045 137.427,35.761 137.618,35.39C137.808,35.019 137.85,34.589 137.734,34.188C136.89,31.219 133.787,24.312 123.266,24.312C115.477,24.312 108.902,30.27 108.902,37.324C108.902,43.386 112.88,47.864 119.547,49.316L125.467,50.606C129.03,51.355 131.159,53.528 131.159,56.412C131.159,60.093 128.133,62.38 123.257,62.38C117.526,62.38 114.766,58.623 114.092,55.103C114.049,54.876 113.959,54.661 113.827,54.471C113.695,54.282 113.524,54.123 113.326,54.004C113.128,53.886 112.906,53.811 112.677,53.784C112.448,53.758 112.215,53.78 111.995,53.851L108.4,54.998C108.022,55.114 107.7,55.364 107.495,55.702C107.29,56.04 107.217,56.441 107.29,56.83C108.409,62.664 113.203,68.888 123.323,68.888C131.875,68.888 138.324,63.319 138.324,55.938C138.324,49.705 134.21,45.227 127.034,43.642L127.064,43.659ZM163.799,49.335C163.818,49.458 163.761,49.553 163.723,49.591C163.692,49.63 163.652,49.661 163.607,49.682C163.562,49.704 163.512,49.715 163.462,49.714L150.275,49.714C150.223,49.714 150.171,49.702 150.124,49.679C150.076,49.656 150.035,49.623 150.003,49.581C149.973,49.547 149.951,49.505 149.94,49.461C149.928,49.417 149.927,49.37 149.936,49.325C150.539,46.576 152.896,43.804 156.805,43.804C160.645,43.804 163.256,45.862 163.792,49.319L163.799,49.335ZM156.754,37.646C149.809,37.646 142.627,43.453 142.627,53.177C142.627,57.864 144.164,61.867 147.077,64.742C149.775,67.408 153.462,68.878 157.456,68.878C163.404,68.878 168.224,65.77 170.349,60.567C170.52,60.141 170.51,59.666 170.326,59.249C170.236,59.046 170.104,58.865 169.94,58.715C169.776,58.565 169.583,58.451 169.373,58.38L166.47,57.374C166.081,57.241 165.657,57.259 165.281,57.424C164.905,57.59 164.606,57.892 164.442,58.269C163.19,61.219 160.837,62.709 157.45,62.709C153.352,62.709 150.231,59.948 149.69,55.837C149.683,55.791 149.687,55.744 149.701,55.7C149.715,55.655 149.738,55.615 149.77,55.581C149.808,55.534 149.894,55.458 150.027,55.458L169.27,55.458C170.134,55.458 170.855,54.784 170.902,53.925C170.921,53.649 170.931,53.346 170.931,53.046C170.931,43.54 165.494,37.636 156.747,37.636L156.754,37.646ZM189.523,60.719C184.902,60.719 182.028,57.513 182.028,52.352C182.028,47.266 184.969,43.98 189.523,43.98C193.934,43.98 196.898,47.339 196.898,52.348C196.898,57.351 193.932,60.715 189.522,60.715L189.523,60.719ZM201.837,38.519L198.355,38.519C197.454,38.519 196.719,39.253 196.719,40.199C196.718,40.265 196.698,40.331 196.661,40.386C196.624,40.442 196.572,40.486 196.51,40.512C196.444,40.54 196.311,40.578 196.191,40.464C194.398,38.825 191.874,37.993 188.696,37.993C180.819,37.993 175.101,44.036 175.101,52.356C175.101,60.641 180.819,66.653 188.696,66.653C191.609,66.653 194.246,65.697 196.125,63.961C196.248,63.847 196.381,63.876 196.447,63.904C196.495,63.923 196.656,64.008 196.656,64.217L196.656,65.413C196.656,71.2 194.123,73.899 188.696,73.899C185.252,73.899 182.549,71.764 181.818,68.465C181.723,68.038 181.467,67.677 181.097,67.447C180.727,67.216 180.281,67.143 179.854,67.238L176.435,68.025C176.015,68.125 175.651,68.386 175.422,68.752C175.192,69.117 175.115,69.558 175.207,69.98C176.431,75.976 181.854,80.008 188.689,80.008C193.783,80.008 197.664,78.456 200.225,75.397C202.341,72.868 203.46,69.356 203.46,65.243L203.46,40.181C203.46,39.279 202.73,38.549 201.828,38.549L201.837,38.519ZM243.23,37.7C239.378,37.7 236.244,39.153 234.165,41.912C234.13,41.963 234.083,42.004 234.027,42.031C233.971,42.059 233.91,42.071 233.848,42.068C233.802,42.068 233.757,42.057 233.717,42.034C233.677,42.012 233.643,41.979 233.62,41.939C231.877,39.245 228.869,37.699 225.366,37.699C222.58,37.699 219.902,38.678 218.015,40.388C217.97,40.436 217.911,40.468 217.846,40.48C217.781,40.492 217.714,40.483 217.655,40.455C217.597,40.431 217.547,40.39 217.513,40.337C217.479,40.284 217.463,40.222 217.465,40.159C217.465,39.257 216.731,38.527 215.83,38.527L212.522,38.527C211.621,38.527 210.891,39.257 210.891,40.159L210.891,66.372C210.891,67.273 211.625,68.005 212.526,68.005L216.008,68.005C216.909,68.005 217.64,67.269 217.64,66.368L217.64,50.389C217.64,46.506 220.012,43.896 223.55,43.896C228.18,43.896 228.873,47.526 228.873,49.689L228.873,66.396C228.873,67.298 229.603,68.028 230.504,68.028L234.046,68.028C234.947,68.028 235.678,67.294 235.678,66.393L235.678,50.332C235.678,46.541 238.087,43.894 241.531,43.894C246.164,43.894 246.854,47.527 246.854,49.69L246.854,66.397C246.854,67.299 247.584,68.029 248.485,68.029L251.967,68.029C252.869,68.029 253.599,67.295 253.599,66.394L253.599,49.098C253.599,41.243 248.391,37.73 243.23,37.73L243.23,37.7ZM266.767,49.737C266.715,49.737 266.663,49.725 266.616,49.702C266.569,49.68 266.528,49.647 266.495,49.606C266.466,49.571 266.446,49.531 266.435,49.487C266.424,49.443 266.423,49.398 266.432,49.354C267.036,46.602 269.392,43.832 273.305,43.832C277.143,43.832 279.756,45.891 280.291,49.344C280.31,49.467 280.25,49.562 280.215,49.6C280.182,49.636 280.141,49.664 280.096,49.683C280.051,49.703 280.003,49.713 279.954,49.714L266.767,49.714L266.767,49.737ZM273.247,37.669C266.302,37.669 259.121,43.479 259.121,53.2C259.121,57.892 260.657,61.893 263.566,64.77C266.261,67.436 269.942,68.897 273.945,68.897C279.884,68.897 284.704,65.785 286.838,60.577C287.009,60.15 287,59.676 286.81,59.258C286.62,58.841 286.279,58.537 285.852,58.385L282.949,57.382C282.142,57.104 281.25,57.496 280.92,58.275C279.668,61.218 277.315,62.715 273.928,62.715C269.83,62.715 266.708,59.949 266.168,55.837C266.16,55.791 266.163,55.743 266.177,55.698C266.19,55.653 266.213,55.611 266.244,55.575C266.281,55.528 266.367,55.457 266.5,55.457L285.749,55.457C286.613,55.457 287.331,54.783 287.381,53.923C287.397,53.648 287.409,53.344 287.409,53.04C287.409,43.534 281.973,37.624 273.226,37.624L273.247,37.669ZM308.132,37.729C305.186,37.729 302.603,38.733 300.665,40.632C300.62,40.677 300.564,40.707 300.502,40.719C300.44,40.731 300.376,40.724 300.318,40.699C300.258,40.672 300.207,40.629 300.172,40.575C300.136,40.52 300.118,40.456 300.118,40.391L300.118,40.182C300.118,39.281 299.384,38.551 298.483,38.551L295.067,38.551C294.166,38.551 293.432,39.281 293.432,40.182L293.432,66.391C293.432,67.292 294.162,68.025 295.064,68.025L298.602,68.025C299.504,68.025 300.239,67.29 300.239,66.389L300.239,51.089C300.239,47.666 301.79,44.008 306.149,44.008C310.068,44.008 312.056,46.174 312.056,50.445L312.056,66.383C312.056,67.284 312.786,68.015 313.688,68.015L317.226,68.015C318.128,68.015 318.86,67.275 318.86,66.374L318.86,49.506C318.86,42.239 314.744,37.723 308.13,37.723L308.132,37.729ZM335.348,44.827L339.476,44.827C340.378,44.827 341.108,44.092 341.108,43.192L341.108,40.181C341.108,39.279 340.378,38.549 339.476,38.549L335.348,38.549C335.306,38.549 335.262,38.54 335.222,38.523C335.182,38.507 335.144,38.482 335.114,38.451C335.084,38.421 335.058,38.384 335.042,38.344C335.026,38.303 335.016,38.26 335.016,38.217L335.016,31.278C335.016,30.376 334.28,29.644 333.38,29.644L330.306,29.644C329.406,29.644 328.674,30.376 328.674,31.278L328.674,34.864C328.674,36.543 328.032,38.548 324.986,38.548L324.462,38.548C323.56,38.548 322.83,39.278 322.83,40.18L322.83,43.187C322.83,44.088 323.562,44.819 324.462,44.819L327.886,44.819C328.072,44.819 328.218,44.961 328.218,45.151L328.218,59.638C328.218,64.988 331.478,68.309 336.718,68.309C338.18,68.309 339.316,68.1 339.864,67.977C340.604,67.806 341.124,67.152 341.124,66.383L341.124,63.595C341.124,63.365 341.074,63.139 340.982,62.929C340.888,62.72 340.752,62.532 340.58,62.379C340.41,62.226 340.208,62.11 339.99,62.04C339.772,61.969 339.542,61.945 339.314,61.97C338.944,62.008 338.584,62.029 338.304,62.029C335.922,62.029 335.032,61.157 335.032,58.813L335.032,45.152C335.032,44.97 335.182,44.822 335.364,44.822Z" clip-rule="evenodd" fill-rule="evenodd" fill="#43AF79"/>
<path d="M39.514,82C35.81,82 32.152,81.45 28.642,80.362C27.68,80.064 26.877,79.396 26.408,78.506C25.939,77.616 25.842,76.576 26.14,75.614C26.76,73.603 28.891,72.483 30.888,73.11C33.67,73.973 36.571,74.409 39.514,74.409C52.391,74.409 63.572,66.146 67.337,53.841C67.483,53.365 67.721,52.922 68.038,52.537C68.355,52.153 68.745,51.835 69.185,51.602C69.625,51.368 70.107,51.224 70.603,51.176C71.099,51.129 71.6,51.181 72.076,51.327C74.08,51.934 75.207,54.059 74.594,56.061C69.846,71.574 55.748,82 39.514,82Z" clip-rule="evenodd" fill-rule="evenodd" fill="#43AF79"/>
<path d="M8.064,39.475C7.47,39.475 6.885,39.336 6.355,39.068C5.825,38.801 5.365,38.414 5.012,37.936C4.659,37.459 4.423,36.906 4.323,36.321C4.223,35.736 4.261,35.135 4.435,34.568C9.183,19.057 23.281,8.638 39.514,8.638C43.221,8.638 46.879,9.188 50.386,10.277C50.862,10.425 51.305,10.664 51.688,10.983C52.071,11.301 52.388,11.692 52.621,12.133C52.853,12.574 52.996,13.056 53.042,13.553C53.088,14.049 53.036,14.549 52.888,15.025C52.741,15.502 52.501,15.944 52.183,16.328C51.865,16.712 51.474,17.029 51.033,17.261C50.592,17.493 50.109,17.636 49.613,17.682C49.116,17.727 48.616,17.674 48.14,17.526C45.36,16.672 42.457,16.236 39.514,16.236C26.64,16.236 15.457,24.499 11.692,36.804C11.454,37.581 10.973,38.26 10.32,38.744C9.668,39.227 8.877,39.488 8.065,39.489Z" clip-rule="evenodd" fill-rule="evenodd" fill="#43AF79"/>
<path d="M49.263,58.753L3.795,58.753C1.698,58.753 0,57.055 0,54.959C0,52.862 1.698,51.164 3.795,51.164L49.263,51.164C51.36,51.164 53.058,52.862 53.058,54.959C53.058,57.055 51.36,58.753 49.263,58.753Z" clip-rule="evenodd" fill-rule="evenodd" fill="#93C8A2"/>
<path d="M75.233,39.473L29.767,39.473C27.67,39.473 25.972,37.775 25.972,35.679C25.972,33.582 27.67,31.884 29.767,31.884L75.233,31.884C77.33,31.884 79.028,33.582 79.028,35.679C79.028,37.775 77.33,39.473 75.233,39.473Z" clip-rule="evenodd" fill-rule="evenodd" fill="#93C8A2"/>
<path d="M65.833,21.217C65.833,22.224 65.434,23.189 64.722,23.901C64.01,24.612 63.045,25.012 62.039,25.012C61.032,25.012 60.067,24.612 59.355,23.901C58.644,23.189 58.244,22.224 58.244,21.217C58.244,20.211 58.644,19.246 59.355,18.534C60.067,17.822 61.032,17.422 62.039,17.422C63.045,17.422 64.01,17.822 64.722,18.534C65.434,19.246 65.833,20.211 65.833,21.217ZM20.784,69.425C20.784,70.432 20.384,71.397 19.672,72.109C18.96,72.82 17.995,73.22 16.989,73.22C15.982,73.22 15.017,72.82 14.305,72.109C13.594,71.397 13.194,70.432 13.194,69.425C13.194,68.419 13.594,67.454 14.305,66.742C15.017,66.03 15.982,65.631 16.989,65.631C17.995,65.631 18.96,66.03 19.672,66.742C20.384,67.454 20.784,68.419 20.784,69.425Z" clip-rule="evenodd" fill-rule="evenodd" fill="#93C8A2"/>
</svg>
