<svg width="342" height="96" viewBox="0 0 342 96" fill="none" xmlns="http://www.w3.org/2000/svg" xmlns:xlink="http://www.w3.org/1999/xlink">
<path d="M127.064,43.62L120.854,42.273C117.747,41.599 116.037,39.683 116.037,36.874C116.037,33.305 119.205,30.613 123.408,30.613C129.224,30.613 130.941,34.891 131.33,36.205C131.453,36.641 131.757,37.011 132.165,37.215C132.563,37.419 133.009,37.449 133.436,37.3L136.709,36.146C137.102,36.006 137.427,35.722 137.617,35.351C137.808,34.98 137.849,34.55 137.734,34.15C136.889,31.18 133.787,24.273 123.266,24.273C115.477,24.273 108.902,30.231 108.902,37.285C108.902,43.347 112.88,47.825 119.547,49.277L125.467,50.567C129.03,51.317 131.159,53.489 131.159,56.373C131.159,60.054 128.133,62.341 123.256,62.341C117.526,62.341 114.765,58.584 114.092,55.064C114.049,54.837 113.959,54.622 113.827,54.432C113.695,54.243 113.524,54.084 113.326,53.965C113.127,53.847 112.906,53.772 112.677,53.746C112.448,53.719 112.215,53.742 111.995,53.812L108.4,54.96C108.022,55.075 107.699,55.325 107.495,55.663C107.29,56.001 107.217,56.402 107.29,56.791C108.409,62.625 113.203,68.849 123.323,68.849C131.875,68.849 138.324,63.28 138.324,55.899C138.324,49.666 134.21,45.188 127.034,43.604L127.064,43.62ZM163.799,49.296C163.818,49.419 163.761,49.514 163.723,49.552C163.692,49.591 163.652,49.622 163.607,49.643C163.561,49.665 163.512,49.676 163.462,49.675L150.275,49.675C150.222,49.675 150.171,49.663 150.123,49.64C150.076,49.617 150.035,49.584 150.003,49.543C149.973,49.508 149.951,49.467 149.939,49.422C149.928,49.378 149.927,49.331 149.936,49.286C150.539,46.537 152.896,43.765 156.805,43.765C160.644,43.765 163.256,45.824 163.792,49.28L163.799,49.296ZM156.754,37.608C149.809,37.608 142.627,43.414 142.627,53.138C142.627,57.825 144.164,61.828 147.077,64.703C149.775,67.369 153.462,68.839 157.456,68.839C163.404,68.839 168.224,65.731 170.349,60.529C170.52,60.102 170.51,59.627 170.326,59.21C170.235,59.007 170.104,58.826 169.94,58.676C169.776,58.527 169.583,58.413 169.373,58.341L166.47,57.335C166.081,57.202 165.656,57.22 165.281,57.386C164.905,57.552 164.605,57.853 164.442,58.23C163.19,61.18 160.837,62.67 157.45,62.67C153.352,62.67 150.23,59.909 149.69,55.798C149.683,55.752 149.686,55.705 149.7,55.661C149.714,55.617 149.738,55.576 149.77,55.542C149.808,55.495 149.894,55.419 150.026,55.419L169.27,55.419C170.133,55.419 170.854,54.745 170.902,53.886C170.921,53.611 170.93,53.307 170.93,53.007C170.93,43.501 165.494,37.597 156.747,37.597L156.754,37.608ZM189.522,60.68C184.902,60.68 182.028,57.474 182.028,52.313C182.028,47.228 184.969,43.941 189.522,43.941C193.934,43.941 196.898,47.3 196.898,52.309C196.898,57.313 193.932,60.677 189.521,60.677L189.522,60.68ZM201.837,38.48L198.355,38.48C197.454,38.48 196.718,39.214 196.718,40.16C196.718,40.227 196.698,40.292 196.661,40.348C196.624,40.403 196.571,40.447 196.51,40.473C196.443,40.501 196.311,40.539 196.191,40.425C194.398,38.786 191.874,37.954 188.696,37.954C180.819,37.954 175.101,43.997 175.101,52.318C175.101,60.602 180.819,66.615 188.696,66.615C191.609,66.615 194.246,65.658 196.125,63.922C196.248,63.808 196.381,63.837 196.447,63.865C196.495,63.884 196.656,63.97 196.656,64.178L196.656,65.374C196.656,71.161 194.123,73.86 188.696,73.86C185.252,73.86 182.548,71.725 181.818,68.426C181.723,67.999 181.467,67.638 181.097,67.408C180.727,67.177 180.281,67.104 179.854,67.199L176.435,67.987C176.015,68.086 175.651,68.347 175.421,68.713C175.192,69.078 175.115,69.519 175.207,69.941C176.431,75.937 181.854,79.969 188.688,79.969C193.783,79.969 197.663,78.418 200.225,75.358C202.341,72.829 203.46,69.318 203.46,65.204L203.46,40.142C203.46,39.24 202.73,38.51 201.828,38.51L201.837,38.48ZM243.229,37.661C239.378,37.661 236.244,39.114 234.165,41.873C234.13,41.924 234.082,41.965 234.027,41.993C233.971,42.02 233.909,42.032 233.847,42.029C233.802,42.029 233.756,42.018 233.716,41.995C233.676,41.973 233.643,41.94 233.62,41.901C231.877,39.206 228.869,37.66 225.366,37.66C222.58,37.66 219.901,38.639 218.015,40.349C217.97,40.397 217.91,40.429 217.846,40.441C217.781,40.453 217.714,40.444 217.655,40.416C217.597,40.392 217.547,40.351 217.513,40.298C217.479,40.245 217.462,40.183 217.465,40.12C217.465,39.219 216.731,38.488 215.829,38.488L212.522,38.488C211.621,38.488 210.89,39.219 210.89,40.12L210.89,66.333C210.89,67.234 211.625,67.967 212.526,67.967L216.008,67.967C216.909,67.967 217.64,67.23 217.64,66.329L217.64,50.35C217.64,46.467 220.011,43.857 223.55,43.857C228.18,43.857 228.872,47.488 228.872,49.651L228.872,66.358C228.872,67.259 229.603,67.989 230.504,67.989L234.046,67.989C234.947,67.989 235.678,67.255 235.678,66.354L235.678,50.293C235.678,46.502 238.087,43.855 241.531,43.855C246.164,43.855 246.853,47.489 246.853,49.652L246.853,66.359C246.853,67.26 247.584,67.99 248.485,67.99L251.967,67.99C252.868,67.99 253.599,67.256 253.599,66.355L253.599,49.06C253.599,41.204 248.39,37.691 243.229,37.691L243.229,37.661ZM266.767,49.698C266.715,49.698 266.663,49.686 266.616,49.663C266.569,49.641 266.528,49.608 266.495,49.567C266.466,49.533 266.445,49.492 266.434,49.448C266.424,49.404 266.423,49.359 266.432,49.315C267.036,46.564 269.392,43.793 273.305,43.793C277.143,43.793 279.756,45.852 280.291,49.305C280.31,49.429 280.25,49.524 280.215,49.561C280.181,49.597 280.141,49.625 280.096,49.645C280.051,49.664 280.003,49.675 279.954,49.675L266.767,49.675L266.767,49.698ZM273.247,37.63C266.302,37.63 259.12,43.44 259.12,53.161C259.12,57.853 260.657,61.854 263.566,64.731C266.26,67.397 269.941,68.858 273.945,68.858C279.884,68.858 284.703,65.747 286.838,60.538C287.009,60.111 286.999,59.637 286.81,59.219C286.62,58.802 286.278,58.498 285.851,58.347L282.948,57.343C282.142,57.065 281.25,57.457 280.92,58.237C279.668,61.179 277.315,62.677 273.928,62.677C269.829,62.677 266.708,59.91 266.167,55.798C266.16,55.752 266.163,55.704 266.176,55.659C266.189,55.614 266.212,55.572 266.243,55.537C266.281,55.489 266.367,55.418 266.499,55.418L285.749,55.418C286.612,55.418 287.33,54.744 287.381,53.884C287.397,53.609 287.409,53.305 287.409,53.002C287.409,43.495 281.973,37.585 273.226,37.585L273.247,37.63ZM308.132,37.69C305.185,37.69 302.603,38.694 300.665,40.593C300.62,40.638 300.563,40.668 300.501,40.68C300.439,40.692 300.375,40.685 300.317,40.66C300.258,40.634 300.207,40.591 300.172,40.536C300.136,40.481 300.118,40.417 300.118,40.352L300.118,40.144C300.118,39.242 299.384,38.512 298.483,38.512L295.067,38.512C294.166,38.512 293.432,39.242 293.432,40.144L293.432,66.352C293.432,67.253 294.162,67.987 295.063,67.987L298.602,67.987C299.504,67.987 300.239,67.251 300.239,66.35L300.239,51.05C300.239,47.627 301.79,43.969 306.149,43.969C310.068,43.969 312.056,46.135 312.056,50.406L312.056,66.344C312.056,67.246 312.786,67.976 313.688,67.976L317.226,67.976C318.128,67.976 318.86,67.236 318.86,66.335L318.86,49.468C318.86,42.2 314.744,37.685 308.13,37.685L308.132,37.69ZM335.348,44.788L339.476,44.788C340.378,44.788 341.108,44.053 341.108,43.153L341.108,40.142C341.108,39.24 340.378,38.51 339.476,38.51L335.348,38.51C335.306,38.51 335.262,38.501 335.222,38.485C335.182,38.468 335.144,38.443 335.114,38.413C335.084,38.382 335.058,38.345 335.042,38.305C335.026,38.265 335.016,38.221 335.016,38.178L335.016,31.239C335.016,30.338 334.28,29.605 333.38,29.605L330.306,29.605C329.406,29.605 328.674,30.338 328.674,31.239L328.674,34.825C328.674,36.504 328.032,38.509 324.986,38.509L324.462,38.509C323.56,38.509 322.83,39.239 322.83,40.141L322.83,43.148C322.83,44.049 323.562,44.78 324.462,44.78L327.886,44.78C328.072,44.78 328.218,44.922 328.218,45.112L328.218,59.599C328.218,64.95 331.478,68.27 336.718,68.27C338.18,68.27 339.316,68.061 339.864,67.938C340.604,67.767 341.124,67.113 341.124,66.344L341.124,63.556C341.124,63.327 341.074,63.1 340.982,62.89C340.888,62.681 340.752,62.494 340.58,62.34C340.41,62.187 340.208,62.072 339.99,62.001C339.772,61.93 339.542,61.907 339.314,61.931C338.944,61.969 338.584,61.991 338.304,61.991C335.922,61.991 335.032,61.118 335.032,58.774L335.032,45.113C335.032,44.931 335.182,44.783 335.364,44.783Z" clip-rule="evenodd" fill-rule="evenodd" fill="#43AF79"/>
<path d="M39.514,81.961C35.81,81.961 32.152,81.411 28.642,80.323C27.68,80.025 26.877,79.357 26.408,78.467C25.939,77.577 25.842,76.537 26.14,75.575C26.76,73.564 28.891,72.444 30.888,73.071C33.67,73.934 36.571,74.37 39.514,74.37C52.391,74.37 63.572,66.107 67.337,53.802C67.483,53.326 67.721,52.883 68.038,52.498C68.355,52.114 68.745,51.796 69.185,51.563C69.625,51.329 70.107,51.185 70.603,51.137C71.099,51.09 71.6,51.142 72.076,51.288C74.08,51.895 75.207,54.02 74.594,56.022C69.846,71.535 55.748,81.961 39.514,81.961Z" clip-rule="evenodd" fill-rule="evenodd" fill="#43AF79"/>
<path d="M8.064,39.436C7.47,39.436 6.885,39.297 6.355,39.029C5.825,38.762 5.365,38.375 5.012,37.897C4.659,37.42 4.423,36.867 4.323,36.282C4.223,35.697 4.261,35.096 4.435,34.529C9.183,19.017 23.281,8.599 39.514,8.599C43.221,8.599 46.879,9.149 50.386,10.238C50.862,10.386 51.305,10.625 51.688,10.944C52.071,11.262 52.388,11.653 52.621,12.094C52.853,12.535 52.996,13.017 53.042,13.514C53.088,14.01 53.036,14.51 52.888,14.986C52.741,15.463 52.501,15.905 52.183,16.289C51.865,16.673 51.474,16.99 51.033,17.222C50.592,17.454 50.109,17.597 49.613,17.643C49.116,17.688 48.616,17.635 48.14,17.487C45.36,16.633 42.457,16.197 39.514,16.197C26.64,16.197 15.457,24.46 11.692,36.765C11.454,37.542 10.973,38.221 10.32,38.705C9.668,39.188 8.877,39.449 8.065,39.45Z" clip-rule="evenodd" fill-rule="evenodd" fill="#43AF79"/>
<path d="M49.263,58.714L3.795,58.714C1.698,58.714 0,57.016 0,54.919C0,52.822 1.698,51.124 3.795,51.124L49.263,51.124C51.36,51.124 53.058,52.822 53.058,54.919C53.058,57.016 51.36,58.714 49.263,58.714Z" clip-rule="evenodd" fill-rule="evenodd" fill="#93C8A2"/>
<path d="M75.233,39.434L29.767,39.434C27.67,39.434 25.972,37.736 25.972,35.639C25.972,33.542 27.67,31.844 29.767,31.844L75.233,31.844C77.33,31.844 79.028,33.542 79.028,35.639C79.028,37.736 77.33,39.434 75.233,39.434Z" clip-rule="evenodd" fill-rule="evenodd" fill="#93C8A2"/>
<path d="M65.833,21.178C65.833,22.184 65.434,23.149 64.722,23.861C64.01,24.573 63.045,24.973 62.039,24.973C61.032,24.973 60.067,24.573 59.355,23.861C58.644,23.149 58.244,22.184 58.244,21.178C58.244,20.171 58.644,19.206 59.355,18.494C60.067,17.783 61.032,17.383 62.039,17.383C63.045,17.383 64.01,17.783 64.722,18.494C65.434,19.206 65.833,20.171 65.833,21.178ZM20.784,69.386C20.784,70.392 20.384,71.358 19.672,72.069C18.96,72.781 17.995,73.181 16.989,73.181C15.982,73.181 15.017,72.781 14.305,72.069C13.594,71.358 13.194,70.392 13.194,69.386C13.194,68.379 13.594,67.414 14.305,66.702C15.017,65.991 15.982,65.591 16.989,65.591C17.995,65.591 18.96,65.991 19.672,66.702C20.384,67.414 20.784,68.379 20.784,69.386Z" clip-rule="evenodd" fill-rule="evenodd" fill="#93C8A2"/>
</svg>
