<svg width="3652" height="2274" viewBox="0 0 3652 2274" fill="none" xmlns="http://www.w3.org/2000/svg" xmlns:xlink="http://www.w3.org/1999/xlink">
<path d="M466.289,1651.118C466.065,1649.471 464.548,1648.318 462.901,1648.542C461.254,1648.766 460.101,1650.283 460.325,1651.93L466.289,1651.118ZM450.08,1627.207C451.085,1628.53 452.973,1628.788 454.296,1627.783C455.62,1626.778 455.878,1624.89 454.872,1623.567L450.08,1627.207ZM443.551,1612.245C442.228,1611.24 440.34,1611.498 439.334,1612.821C438.329,1614.144 438.587,1616.032 439.91,1617.038L443.551,1612.245ZM415.188,1606.792C416.835,1607.016 418.351,1605.863 418.576,1604.216C418.8,1602.57 417.647,1601.053 416,1600.829L415.188,1606.792ZM399.985,1600.829C398.338,1601.053 397.185,1602.57 397.409,1604.216C397.633,1605.863 399.15,1607.016 400.797,1606.792L399.985,1600.829ZM376.074,1617.038C377.398,1616.032 377.656,1614.144 376.65,1612.821C375.645,1611.498 373.757,1611.24 372.434,1612.245L376.074,1617.038ZM361.113,1623.567C360.107,1624.89 360.365,1626.778 361.689,1627.783C363.012,1628.788 364.9,1628.53 365.905,1627.207L361.113,1623.567ZM355.66,1651.93C355.884,1650.283 354.731,1648.766 353.084,1648.542C351.437,1648.318 349.921,1649.471 349.696,1651.118L355.66,1651.93ZM349.696,1667.132C349.921,1668.779 351.437,1669.932 353.084,1669.708C354.731,1669.484 355.884,1667.967 355.66,1666.321L349.696,1667.132ZM365.905,1691.043C364.9,1689.72 363.012,1689.462 361.689,1690.467C360.365,1691.472 360.107,1693.36 361.113,1694.684L365.905,1691.043ZM372.434,1706.005C373.757,1707.01 375.645,1706.752 376.65,1705.429C377.656,1704.106 377.398,1702.218 376.074,1701.212L372.434,1706.005ZM400.797,1711.458C399.15,1711.234 397.633,1712.387 397.409,1714.034C397.185,1715.68 398.338,1717.197 399.985,1717.421L400.797,1711.458ZM416,1717.421C417.647,1717.197 418.8,1715.68 418.576,1714.034C418.351,1712.387 416.835,1711.234 415.188,1711.458L416,1717.421ZM439.911,1701.212C438.587,1702.218 438.329,1704.106 439.334,1705.429C440.34,1706.752 442.228,1707.01 443.551,1706.005L439.911,1701.212ZM454.872,1694.684C455.878,1693.36 455.62,1691.472 454.296,1690.467C452.973,1689.462 451.085,1689.72 450.08,1691.043L454.872,1694.684ZM460.325,1666.321C460.101,1667.967 461.254,1669.484 462.901,1669.708C464.548,1669.932 466.065,1668.779 466.289,1667.132L460.325,1666.321ZM466.829,1659.125C466.829,1656.411 466.645,1653.737 466.289,1651.118L460.325,1651.93C460.645,1654.281 460.811,1656.683 460.811,1659.125L466.829,1659.125ZM454.872,1623.567C451.63,1619.298 447.819,1615.487 443.551,1612.245L439.91,1617.038C443.744,1619.95 447.168,1623.374 450.08,1627.207L454.872,1623.567ZM416,1600.829C413.38,1600.472 410.707,1600.288 407.992,1600.288L407.992,1606.307C410.435,1606.307 412.837,1606.472 415.188,1606.792L416,1600.829ZM407.992,1600.288C405.278,1600.288 402.605,1600.472 399.985,1600.829L400.797,1606.792C403.148,1606.472 405.55,1606.307 407.992,1606.307L407.992,1600.288ZM372.434,1612.245C368.166,1615.487 364.355,1619.298 361.113,1623.567L365.905,1627.207C368.817,1623.374 372.241,1619.95 376.074,1617.038L372.434,1612.245ZM349.696,1651.118C349.34,1653.737 349.156,1656.411 349.156,1659.125L355.174,1659.125C355.174,1656.683 355.34,1654.281 355.66,1651.93L349.696,1651.118ZM349.156,1659.125C349.156,1661.84 349.34,1664.513 349.696,1667.132L355.66,1666.321C355.34,1663.969 355.174,1661.567 355.174,1659.125L349.156,1659.125ZM361.113,1694.684C364.355,1698.952 368.166,1702.763 372.434,1706.005L376.074,1701.212C372.241,1698.3 368.817,1694.877 365.905,1691.043L361.113,1694.684ZM399.985,1717.421C402.605,1717.778 405.278,1717.962 407.992,1717.962L407.992,1711.944C405.55,1711.944 403.148,1711.778 400.797,1711.458L399.985,1717.421ZM407.992,1717.962C410.707,1717.962 413.38,1717.778 416,1717.421L415.188,1711.458C412.837,1711.778 410.435,1711.944 407.992,1711.944L407.992,1717.962ZM443.551,1706.005C447.819,1702.763 451.63,1698.952 454.872,1694.684L450.08,1691.043C447.168,1694.877 443.744,1698.3 439.911,1701.212L443.551,1706.005ZM466.289,1667.132C466.645,1664.513 466.829,1661.84 466.829,1659.125L460.811,1659.125C460.811,1661.567 460.645,1663.969 460.325,1666.321L466.289,1667.132Z" transform="rotate(-270 407.993 1659.125)" fill="#2437AC"/>
<path d="M1.159,2269.435C0.611,2271.015 1.439,2272.715 3.008,2273.275C4.576,2273.815 6.293,2272.995 6.841,2271.415L1.159,2269.435ZM513.834,1894.481L514.276,1897.457L513.834,1894.481ZM1169.07,1977.927L1169.934,1975.045L1169.07,1977.927ZM1814.708,2135.515L1814.946,2132.515L1814.708,2135.515ZM2431.84,1946.505L2433.96,1948.639L2433.96,1948.637L2431.84,1946.505ZM2746.58,1618.887L2745.3,1616.163L2745.28,1616.165L2746.58,1618.887ZM3154.06,1615.675L3153.54,1618.639L3154.06,1615.675ZM3551.02,1560.289L3552.96,1562.585L3552.96,1562.583L3551.02,1560.289ZM3614.44,1173.409L3617.2,1172.189L3614.44,1173.409ZM3329.04,872.303L3327.36,874.799L3329.04,872.303ZM2985.9,630.309L2987.98,628.119L2985.9,630.309ZM2816.06,260.855L2813.06,260.629L2813.06,260.629L2816.06,260.855ZM3090.12,6.38C3091.78,6.572 3093.28,5.39 3093.46,3.739C3093.66,2.088 3092.48,0.594 3090.82,0.402L3090.12,6.38ZM8.99,2265.415C9.56,2263.855 8.757,2262.115 7.196,2261.555C5.635,2260.975 3.907,2261.775 3.337,2263.335L8.99,2265.415ZM12.244,2240.795C11.593,2242.315 12.306,2244.095 13.835,2244.735C15.364,2245.395 17.131,2244.675 17.782,2243.155L12.244,2240.795ZM22.932,2231.495C23.624,2229.975 22.96,2228.195 21.45,2227.495C19.939,2226.815 18.153,2227.475 17.46,2228.975L22.932,2231.495ZM28.123,2207.215C27.354,2208.675 27.925,2210.495 29.399,2211.275C30.872,2212.035 32.69,2211.475 33.459,2209.995L28.123,2207.215ZM39.509,2198.775C40.317,2197.315 39.795,2195.475 38.342,2194.675C36.89,2193.875 35.058,2194.395 34.25,2195.835L39.509,2198.775ZM46.558,2174.955C45.679,2176.375 46.11,2178.235 47.52,2179.115C48.93,2179.995 50.786,2179.555 51.666,2178.155L46.558,2174.955ZM58.555,2167.415C59.471,2166.015 59.089,2164.155 57.702,2163.235C56.315,2162.315 54.448,2162.695 53.533,2164.095L58.555,2167.415ZM67.364,2144.195C66.383,2145.535 66.676,2147.415 68.017,2148.395C69.359,2149.375 71.242,2149.095 72.223,2147.755L67.364,2144.195ZM79.881,2137.535C80.896,2136.235 80.65,2134.335 79.334,2133.315C78.017,2132.315 76.127,2132.555 75.113,2133.875L79.881,2137.535ZM90.334,2115.015C89.261,2116.295 89.419,2118.195 90.688,2119.255C91.957,2120.335 93.856,2120.175 94.929,2118.915L90.334,2115.015ZM103.289,2109.275C104.392,2108.015 104.279,2106.115 103.036,2105.015C101.793,2103.915 99.891,2104.035 98.788,2105.275L103.289,2109.275ZM115.262,2087.515C114.106,2088.715 114.135,2090.615 115.329,2091.775C116.522,2092.935 118.427,2092.895 119.584,2091.715L115.262,2087.515ZM128.576,2082.635C129.76,2081.475 129.774,2079.575 128.607,2078.375C127.44,2077.195 125.535,2077.175 124.351,2078.355L128.576,2082.635ZM141.948,2061.715C140.716,2062.835 140.623,2064.735 141.739,2065.975C142.856,2067.195 144.759,2067.295 145.99,2066.175L141.948,2061.715ZM155.546,2057.695C156.802,2056.615 156.936,2054.715 155.847,2053.455C154.757,2052.195 152.857,2052.075 151.602,2053.155L155.546,2057.695ZM170.199,2037.655C168.902,2038.695 168.692,2040.595 169.73,2041.895C170.769,2043.195 172.663,2043.395 173.96,2042.355L170.199,2037.655ZM184.012,2034.475C185.331,2033.475 185.58,2031.575 184.568,2030.255C183.557,2028.935 181.668,2028.695 180.349,2029.715L184.012,2034.475ZM199.835,2015.335C198.479,2016.295 198.158,2018.175 199.118,2019.535C200.079,2020.895 201.957,2021.215 203.313,2020.255L199.835,2015.335ZM213.81,2012.975C215.184,2012.035 215.542,2010.175 214.608,2008.795C213.676,2007.415 211.804,2007.055 210.428,2007.995L213.81,2012.975ZM230.696,1994.771C229.288,1995.655 228.862,1997.511 229.744,1998.919C230.628,2000.327 232.484,2000.753 233.892,1999.871L230.696,1994.771ZM244.784,1993.185C246.21,1992.329 246.67,1990.481 245.814,1989.055C244.958,1987.631 243.11,1987.171 241.686,1988.027L244.784,1993.185ZM262.64,1975.933C261.186,1976.739 260.662,1978.569 261.466,1980.023C262.272,1981.477 264.104,1982.003 265.558,1981.197L262.64,1975.933ZM276.798,1975.105C278.266,1974.327 278.824,1972.505 278.046,1971.037C277.268,1969.569 275.446,1969.009 273.978,1969.787L276.798,1975.105ZM295.54,1958.821C294.046,1959.549 293.424,1961.351 294.154,1962.845C294.882,1964.339 296.682,1964.959 298.176,1964.231L295.54,1958.821ZM309.716,1958.733C311.222,1958.031 311.874,1956.241 311.172,1954.735C310.472,1953.227 308.682,1952.575 307.174,1953.277L309.716,1958.733ZM329.272,1943.431C327.742,1944.081 327.03,1945.849 327.682,1947.377C328.334,1948.907 330.1,1949.619 331.63,1948.967L329.272,1943.431ZM343.434,1944.061C344.974,1943.435 345.716,1941.681 345.092,1940.141C344.466,1938.601 342.712,1937.859 341.172,1938.483L343.434,1944.061ZM363.732,1929.759C362.172,1930.333 361.374,1932.063 361.948,1933.623C362.522,1935.183 364.252,1935.981 365.812,1935.407L363.732,1929.759ZM377.846,1931.093C379.416,1930.545 380.244,1928.829 379.696,1927.259C379.15,1925.691 377.434,1924.863 375.864,1925.409L377.846,1931.093ZM398.826,1917.811C397.24,1918.307 396.358,1919.995 396.854,1921.581C397.352,1923.167 399.04,1924.051 400.626,1923.553L398.826,1917.811ZM412.856,1919.837C414.45,1919.367 415.362,1917.693 414.892,1916.099C414.422,1914.505 412.75,1913.593 411.156,1914.063L412.856,1919.837ZM434.464,1907.597C432.854,1908.017 431.89,1909.659 432.308,1911.267C432.728,1912.877 434.37,1913.841 435.978,1913.421L434.464,1907.597ZM448.378,1910.307C449.994,1909.915 450.986,1908.289 450.596,1906.675C450.204,1905.059 448.578,1904.067 446.962,1904.457L448.378,1910.307ZM470.556,1899.143C468.928,1899.481 467.884,1901.075 468.224,1902.703C468.564,1904.329 470.158,1905.373 471.784,1905.035L470.556,1899.143ZM484.326,1902.531C485.958,1902.221 487.03,1900.645 486.718,1899.011C486.408,1897.379 484.832,1896.309 483.2,1896.619L484.326,1902.531ZM507.03,1892.475C505.388,1892.733 504.266,1894.273 504.524,1895.915C504.782,1897.557 506.322,1898.679 507.964,1898.421L507.03,1892.475ZM520.624,1896.539C522.268,1896.307 523.416,1894.785 523.184,1893.141C522.952,1891.495 521.43,1890.349 519.784,1890.579L520.624,1896.539ZM543.81,1887.529C542.158,1887.717 540.972,1889.207 541.158,1890.857C541.346,1892.509 542.836,1893.697 544.488,1893.509L543.81,1887.529ZM557.232,1892.155C558.886,1891.993 560.094,1890.519 559.93,1888.865C559.766,1887.211 558.292,1886.003 556.638,1886.167L557.232,1892.155ZM580.766,1884.093C579.11,1884.215 577.864,1885.657 577.984,1887.313C578.106,1888.971 579.548,1890.217 581.204,1890.097L580.766,1884.093ZM593.996,1889.249C595.656,1889.151 596.92,1887.727 596.822,1886.067C596.724,1884.409 595.298,1883.143 593.64,1883.243L593.996,1889.249ZM617.826,1882.107C616.164,1882.163 614.864,1883.557 614.922,1885.217C614.98,1886.879 616.372,1888.179 618.034,1888.121L617.826,1882.107ZM630.852,1887.759C632.514,1887.723 633.83,1886.347 633.794,1884.685C633.758,1883.023 632.382,1881.705 630.72,1881.743L630.852,1887.759ZM654.928,1881.497C653.266,1881.495 651.916,1882.841 651.914,1884.503C651.91,1886.165 653.256,1887.513 654.918,1887.515L654.928,1881.497ZM667.742,1887.613C669.404,1887.635 670.77,1886.307 670.792,1884.645C670.814,1882.983 669.486,1881.617 667.824,1881.595L667.742,1887.613ZM692.02,1882.191C690.36,1882.131 688.966,1883.431 688.906,1885.091C688.848,1886.751 690.146,1888.147 691.806,1888.205L692.02,1882.191ZM704.624,1888.733C706.284,1888.811 707.692,1887.529 707.77,1885.869C707.848,1884.209 706.566,1882.799 704.906,1882.721L704.624,1888.733ZM729.066,1884.105C727.406,1883.993 725.972,1885.247 725.86,1886.905C725.748,1888.563 727.002,1889.999 728.66,1890.111L729.066,1884.105ZM741.458,1891.043C743.114,1891.173 744.562,1889.933 744.692,1888.277C744.822,1886.621 743.582,1885.171 741.926,1885.043L741.458,1891.043ZM766.028,1887.159C764.374,1886.999 762.902,1888.209 762.742,1889.863C762.58,1891.517 763.79,1892.989 765.444,1893.149L766.028,1887.159ZM778.21,1894.457C779.862,1894.635 781.346,1893.439 781.522,1891.787C781.7,1890.133 780.504,1888.651 778.852,1888.473L778.21,1894.457ZM802.882,1891.271C801.234,1891.063 799.73,1892.233 799.522,1893.881C799.316,1895.531 800.486,1897.035 802.134,1897.241L802.882,1891.271ZM814.86,1898.895C816.506,1899.117 818.022,1897.961 818.242,1896.315C818.464,1894.667 817.308,1893.153 815.662,1892.931L814.86,1898.895ZM839.606,1896.353C837.964,1896.105 836.43,1897.235 836.182,1898.879C835.932,1900.521 837.064,1902.055 838.706,1902.303L839.606,1896.353ZM851.39,1904.275C853.032,1904.537 854.574,1903.419 854.836,1901.779C855.098,1900.137 853.98,1898.595 852.34,1898.333L851.39,1904.275ZM876.19,1902.327C874.554,1902.041 872.994,1903.135 872.708,1904.771C872.422,1906.409 873.516,1907.969 875.152,1908.255L876.19,1902.327ZM887.792,1910.519C889.426,1910.817 890.994,1909.735 891.294,1908.099C891.592,1906.465 890.51,1904.897 888.874,1904.597L887.792,1910.519ZM912.628,1909.113C910.998,1908.791 909.416,1909.853 909.094,1911.483C908.772,1913.115 909.834,1914.697 911.464,1915.019L912.628,1909.113ZM924.056,1917.545C925.684,1917.877 927.274,1916.827 927.606,1915.199C927.938,1913.571 926.888,1911.981 925.26,1911.649L924.056,1917.545ZM948.916,1916.635C947.292,1916.283 945.69,1917.313 945.336,1918.937C944.984,1920.561 946.014,1922.163 947.638,1922.517L948.916,1916.635ZM960.18,1925.281C961.802,1925.643 963.41,1924.623 963.774,1923.001C964.136,1921.379 963.116,1919.771 961.494,1919.407L960.18,1925.281ZM985.052,1924.817C983.436,1924.437 981.816,1925.439 981.434,1927.057C981.054,1928.675 982.056,1930.295 983.674,1930.675L985.052,1924.817ZM996.168,1933.653C997.784,1934.043 999.41,1933.049 999.8,1931.433C1000.19,1929.817 999.196,1928.193 997.58,1927.803L996.168,1933.653ZM1021.046,1933.587C1019.434,1933.183 1017.8,1934.159 1017.394,1935.771C1016.988,1937.383 1017.966,1939.019 1019.578,1939.425L1021.046,1933.587ZM1032.028,1942.591C1033.638,1943.005 1035.278,1942.035 1035.692,1940.425C1036.104,1938.815 1035.136,1937.175 1033.526,1936.763L1032.028,1942.591ZM1056.904,1942.879C1055.298,1942.451 1053.65,1943.407 1053.222,1945.013C1052.794,1946.619 1053.75,1948.267 1055.356,1948.695L1056.904,1942.879ZM1067.764,1952.027C1069.368,1952.461 1071.02,1951.513 1071.454,1949.909C1071.89,1948.305 1070.94,1946.651 1069.336,1946.217L1067.764,1952.027ZM1092.634,1952.621C1091.034,1952.175 1089.374,1953.111 1088.928,1954.711C1088.482,1956.313 1089.418,1957.971 1091.018,1958.419L1092.634,1952.621ZM1103.39,1961.893C1104.99,1962.345 1106.652,1961.415 1107.106,1959.815C1107.558,1958.217 1106.628,1956.553 1105.028,1956.101L1103.39,1961.893ZM1128.252,1962.749C1126.656,1962.287 1124.988,1963.207 1124.524,1964.803C1124.062,1966.399 1124.982,1968.069 1126.578,1968.531L1128.252,1962.749ZM1138.92,1972.125C1140.516,1972.593 1142.186,1971.679 1142.654,1970.083C1143.122,1968.489 1142.206,1966.817 1140.612,1966.349L1138.92,1972.125ZM1163.774,1973.201C1162.182,1972.725 1160.506,1973.631 1160.03,1975.223C1159.554,1976.817 1160.46,1978.493 1162.052,1978.967L1163.774,1973.201ZM1174.36,1982.659C1175.952,1983.137 1177.63,1982.235 1178.11,1980.645C1178.588,1979.053 1177.686,1977.375 1176.096,1976.895L1174.36,1982.659ZM1199.208,1983.897C1197.618,1983.411 1195.936,1984.309 1195.452,1985.897C1194.968,1987.487 1195.864,1989.169 1197.454,1989.653L1199.208,1983.897ZM1209.752,1993.411C1211.34,1993.897 1213.024,1993.003 1213.51,1991.415C1213.996,1989.825 1213.104,1988.143 1211.514,1987.655L1209.752,1993.411ZM1234.594,1994.751C1233.006,1994.261 1231.32,1995.151 1230.83,1996.739C1230.34,1998.327 1231.232,2000.013 1232.82,2000.503L1234.594,1994.751ZM1245.106,2004.295C1246.694,2004.795 1248.38,2003.895 1248.87,2002.315C1249.362,2000.725 1248.472,1999.039 1246.884,1998.549L1245.106,2004.295ZM1269.946,2005.695C1268.358,2005.195 1266.672,2006.095 1266.18,2007.675C1265.688,2009.255 1266.576,2010.955 1268.162,2011.435L1269.946,2005.695ZM1280.446,2015.255C1282.034,2015.735 1283.72,2014.855 1284.212,2013.275C1284.704,2011.675 1283.818,2009.995 1282.23,2009.495L1280.446,2015.255ZM1305.286,2016.655C1303.698,2016.155 1302.012,2017.055 1301.52,2018.635C1301.03,2020.215 1301.918,2021.915 1303.506,2022.395L1305.286,2016.655ZM1315.794,2026.195C1317.382,2026.695 1319.068,2025.795 1319.558,2024.215C1320.048,2022.635 1319.16,2020.935 1317.572,2020.455L1315.794,2026.195ZM1340.636,2027.555C1339.048,2027.075 1337.364,2027.955 1336.876,2029.555C1336.388,2031.135 1337.282,2032.815 1338.87,2033.315L1340.636,2027.555ZM1351.172,2037.075C1352.76,2037.575 1354.442,2036.675 1354.928,2035.075C1355.414,2033.495 1354.52,2031.815 1352.93,2031.315L1351.172,2037.075ZM1376.018,2038.335C1374.426,2037.855 1372.748,2038.755 1372.266,2040.355C1371.786,2041.935 1372.686,2043.615 1374.276,2044.095L1376.018,2038.335ZM1386.598,2047.815C1388.19,2048.295 1389.866,2047.395 1390.344,2045.795C1390.822,2044.215 1389.918,2042.535 1388.328,2042.055L1386.598,2047.815ZM1411.45,2048.935C1409.856,2048.475 1408.182,2049.375 1407.712,2050.975C1407.242,2052.555 1408.152,2054.235 1409.746,2054.715L1411.45,2048.935ZM1422.094,2058.335C1423.688,2058.795 1425.36,2057.895 1425.826,2056.295C1426.294,2054.695 1425.378,2053.035 1423.782,2052.555L1422.094,2058.335ZM1446.954,2059.275C1445.356,2058.815 1443.69,2059.735 1443.232,2061.335C1442.776,2062.935 1443.7,2064.595 1445.298,2065.055L1446.954,2059.275ZM1457.678,2068.575C1459.278,2069.035 1460.942,2068.095 1461.394,2066.495C1461.846,2064.895 1460.916,2063.235 1459.316,2062.795L1457.678,2068.575ZM1482.548,2069.275C1480.946,2068.835 1479.288,2069.775 1478.848,2071.375C1478.406,2072.975 1479.348,2074.635 1480.95,2075.075L1482.548,2069.275ZM1493.37,2078.455C1494.974,2078.895 1496.626,2077.955 1497.062,2076.335C1497.496,2074.735 1496.548,2073.095 1494.944,2072.655L1493.37,2078.455ZM1518.246,2078.855C1516.638,2078.435 1514.994,2079.395 1514.572,2081.015C1514.15,2082.615 1515.112,2084.255 1516.72,2084.675L1518.246,2078.855ZM1529.182,2087.915C1530.792,2088.335 1532.432,2087.355 1532.846,2085.755C1533.26,2084.135 1532.29,2082.495 1530.68,2082.095L1529.182,2087.915ZM1554.062,2087.975C1552.448,2087.575 1550.818,2088.555 1550.42,2090.175C1550.022,2091.795 1551.006,2093.415 1552.62,2093.815L1554.062,2087.975ZM1565.132,2096.875C1566.748,2097.255 1568.374,2096.255 1568.762,2094.655C1569.152,2093.035 1568.158,2091.415 1566.542,2091.015L1565.132,2096.875ZM1590.008,2096.535C1588.388,2096.155 1586.774,2097.175 1586.402,2098.795C1586.03,2100.415 1587.042,2102.035 1588.662,2102.395L1590.008,2096.535ZM1601.226,2105.235C1602.848,2105.595 1604.456,2104.575 1604.818,2102.955C1605.18,2101.335 1604.158,2099.735 1602.536,2099.375L1601.226,2105.235ZM1626.092,2104.475C1624.466,2104.135 1622.87,2105.175 1622.528,2106.795C1622.188,2108.415 1623.23,2110.015 1624.856,2110.355L1626.092,2104.475ZM1637.472,2112.955C1639.102,2113.295 1640.69,2112.235 1641.02,2110.615C1641.35,2108.975 1640.298,2107.395 1638.668,2107.055L1637.472,2112.955ZM1662.318,2111.695C1660.684,2111.375 1659.112,2112.455 1658.804,2114.095C1658.496,2115.715 1659.57,2117.295 1661.202,2117.615L1662.318,2111.695ZM1673.872,2119.955C1675.508,2120.235 1677.074,2119.155 1677.37,2117.515C1677.664,2115.875 1676.578,2114.315 1674.944,2114.015L1673.872,2119.955ZM1698.684,2118.135C1697.044,2117.855 1695.496,2118.975 1695.224,2120.615C1694.954,2122.255 1696.064,2123.795 1697.704,2124.075L1698.684,2118.135ZM1710.426,2126.115C1712.068,2126.375 1713.608,2125.255 1713.866,2123.615C1714.122,2121.975 1713,2120.435 1711.358,2120.175L1710.426,2126.115ZM1735.188,2123.715C1733.542,2123.475 1732.02,2124.635 1731.79,2126.275C1731.558,2127.915 1732.706,2129.435 1734.352,2129.675L1735.188,2123.715ZM1747.124,2131.415C1748.772,2131.615 1750.282,2130.455 1750.498,2128.815C1750.714,2127.155 1749.552,2125.655 1747.906,2125.435L1747.124,2131.415ZM1771.814,2128.355C1770.164,2128.175 1768.672,2129.355 1768.486,2131.015C1768.3,2132.655 1769.486,2134.155 1771.138,2134.335L1771.814,2128.355ZM1783.952,2135.735C1785.606,2135.895 1787.084,2134.695 1787.254,2133.035C1787.426,2131.395 1786.224,2129.915 1784.572,2129.735L1783.952,2135.735ZM1808.548,2131.995C1806.892,2131.855 1805.436,2133.075 1805.296,2134.735C1805.156,2136.395 1806.386,2137.855 1808.042,2137.995L1808.548,2131.995ZM1820.888,2138.995C1822.546,2139.135 1823.988,2137.875 1824.11,2136.215C1824.23,2134.555 1822.986,2133.115 1821.328,2132.995L1820.888,2138.995ZM1845.334,2134.495C1843.674,2134.395 1842.262,2135.675 1842.178,2137.335C1842.092,2138.995 1843.37,2140.415 1845.03,2140.495L1845.334,2134.495ZM1857.91,2141.075C1859.572,2141.135 1860.97,2139.835 1861.034,2138.175C1861.098,2136.515 1859.804,2135.115 1858.142,2135.055L1857.91,2141.075ZM1882.184,2135.715C1880.522,2135.695 1879.154,2137.015 1879.128,2138.675C1879.102,2140.335 1880.428,2141.715 1882.09,2141.735L1882.184,2135.715ZM1894.978,2141.855C1896.64,2141.855 1897.992,2140.515 1897.998,2138.855C1898.004,2137.195 1896.66,2135.835 1894.998,2135.835L1894.978,2141.855ZM1919.05,2135.635C1917.388,2135.675 1916.068,2137.055 1916.102,2138.715C1916.134,2140.375 1917.508,2141.695 1919.17,2141.655L1919.05,2135.635ZM1932.054,2141.315C1933.714,2141.275 1935.018,2139.875 1934.964,2138.215C1934.91,2136.555 1933.52,2135.255 1931.858,2135.315L1932.054,2141.315ZM1955.884,2134.235C1954.224,2134.335 1952.956,2135.755 1953.05,2137.415C1953.142,2139.075 1954.564,2140.335 1956.224,2140.255L1955.884,2134.235ZM1969.09,2139.435C1970.748,2139.315 1971.998,2137.895 1971.882,2136.235C1971.768,2134.575 1970.33,2133.315 1968.672,2133.435L1969.09,2139.435ZM1992.64,2131.475C1990.984,2131.635 1989.77,2133.095 1989.926,2134.755C1990.082,2136.415 1991.55,2137.615 1993.204,2137.475L1992.64,2131.475ZM2006.04,2136.175C2007.68,2135.995 2008.88,2134.515 2008.7,2132.855C2008.52,2131.195 2007.04,2130.015 2005.38,2130.195L2006.04,2136.175ZM2029.26,2127.295C2027.6,2127.515 2026.46,2129.035 2026.68,2130.675C2026.9,2132.335 2028.4,2133.495 2030.06,2133.275L2029.26,2127.295ZM2042.82,2131.475C2044.46,2131.215 2045.6,2129.695 2045.36,2128.055C2045.12,2126.395 2043.58,2125.275 2041.94,2125.515L2042.82,2131.475ZM2065.66,2121.675C2064.04,2121.955 2062.94,2123.515 2063.22,2125.155C2063.52,2126.795 2065.08,2127.895 2066.72,2127.595L2065.66,2121.675ZM2079.4,2125.275C2081.04,2124.975 2082.1,2123.395 2081.8,2121.755C2081.48,2120.135 2079.9,2119.055 2078.28,2119.375L2079.4,2125.275ZM2101.82,2114.535C2100.2,2114.895 2099.16,2116.495 2099.52,2118.115C2099.88,2119.735 2101.48,2120.775 2103.1,2120.415L2101.82,2114.535ZM2115.68,2117.555C2117.3,2117.175 2118.3,2115.555 2117.92,2113.935C2117.54,2112.315 2115.92,2111.315 2114.3,2111.695L2115.68,2117.555ZM2137.62,2105.835C2136,2106.255 2135.06,2107.915 2135.48,2109.515C2135.92,2111.135 2137.56,2112.075 2139.16,2111.655L2137.62,2105.835ZM2151.6,2108.215C2153.2,2107.775 2154.12,2106.115 2153.68,2104.515C2153.22,2102.915 2151.56,2101.975 2149.96,2102.435L2151.6,2108.215ZM2172.96,2095.515C2171.38,2096.015 2170.5,2097.715 2171,2099.295C2171.52,2100.875 2173.2,2101.755 2174.78,2101.255L2172.96,2095.515ZM2187.04,2097.235C2188.62,2096.715 2189.48,2094.995 2188.94,2093.435C2188.42,2091.855 2186.7,2090.995 2185.12,2091.535L2187.04,2097.235ZM2207.78,2083.515C2206.22,2084.095 2205.42,2085.815 2206,2087.375C2206.58,2088.935 2208.32,2089.735 2209.88,2089.155L2207.78,2083.515ZM2221.92,2084.535C2223.48,2083.915 2224.24,2082.175 2223.62,2080.635C2223.02,2079.075 2221.28,2078.315 2219.72,2078.935L2221.92,2084.535ZM2241.92,2069.755C2240.4,2070.435 2239.7,2072.195 2240.36,2073.715C2241.02,2075.255 2242.8,2075.955 2244.32,2075.295L2241.92,2069.755ZM2256.12,2070.055C2257.62,2069.355 2258.3,2067.575 2257.6,2066.055C2256.92,2064.555 2255.14,2063.875 2253.62,2064.575L2256.12,2070.055ZM2275.3,2054.235C2273.8,2054.975 2273.2,2056.775 2273.94,2058.275C2274.68,2059.755 2276.5,2060.355 2277.98,2059.615L2275.3,2054.235ZM2289.48,2053.735C2290.94,2052.955 2291.52,2051.155 2290.74,2049.675C2289.98,2048.195 2288.16,2047.635 2286.68,2048.395L2289.48,2053.735ZM2307.74,2036.875C2306.3,2037.695 2305.8,2039.535 2306.62,2040.975C2307.44,2042.415 2309.28,2042.915 2310.72,2042.095L2307.74,2036.875ZM2321.86,2035.555C2323.28,2034.695 2323.74,2032.855 2322.9,2031.435C2322.04,2029.995 2320.18,2029.535 2318.76,2030.395L2321.86,2035.555ZM2339.1,2017.635C2337.7,2018.555 2337.32,2020.415 2338.22,2021.815C2339.14,2023.195 2341,2023.595 2342.4,2022.675L2339.1,2017.635ZM2353.12,2015.495C2354.5,2014.555 2354.84,2012.675 2353.9,2011.295C2352.96,2009.935 2351.1,2009.575 2349.72,2010.515L2353.12,2015.495ZM2369.24,1996.555C2367.9,1997.549 2367.62,1999.435 2368.62,2000.767C2369.62,2002.095 2371.5,2002.375 2372.84,2001.375L2369.24,1996.555ZM2383.1,1993.529C2384.4,1992.505 2384.64,1990.615 2383.6,1989.305C2382.58,1987.997 2380.7,1987.765 2379.38,1988.789L2383.1,1993.529ZM2397.98,1973.611C2396.7,1974.689 2396.56,1976.589 2397.64,1977.855C2398.72,1979.119 2400.62,1979.271 2401.88,1978.193L2397.98,1973.611ZM2411.6,1969.705C2412.84,1968.599 2412.96,1966.695 2411.84,1965.455C2410.74,1964.215 2408.84,1964.107 2407.6,1965.213L2411.6,1969.705ZM2425.16,1948.863C2423.96,1950.021 2423.94,1951.925 2425.1,1953.117C2426.26,1954.309 2428.16,1954.335 2429.36,1953.177L2425.16,1948.863ZM2438.3,1944.273C2439.46,1943.087 2439.44,1941.181 2438.26,1940.017C2437.08,1938.851 2435.18,1938.867 2434,1940.053L2438.3,1944.273ZM2449.76,1923.441C2448.64,1924.667 2448.72,1926.569 2449.94,1927.691C2451.16,1928.813 2453.08,1928.729 2454.2,1927.503L2449.76,1923.441ZM2462.42,1918.361C2463.52,1917.117 2463.4,1915.215 2462.16,1914.113C2460.92,1913.013 2459.02,1913.127 2457.92,1914.373L2462.42,1918.361ZM2472.86,1897.011C2471.8,1898.285 2471.96,1900.183 2473.24,1901.251C2474.5,1902.319 2476.4,1902.153 2477.48,1900.881L2472.86,1897.011ZM2485.32,1891.421C2486.36,1890.135 2486.18,1888.239 2484.9,1887.185C2483.6,1886.133 2481.72,1886.321 2480.66,1887.607L2485.32,1891.421ZM2495.02,1869.725C2494,1871.029 2494.22,1872.921 2495.52,1873.951C2496.84,1874.981 2498.72,1874.759 2499.76,1873.455L2495.02,1869.725ZM2507.32,1863.797C2508.34,1862.485 2508.1,1860.593 2506.8,1859.573C2505.48,1858.553 2503.6,1858.789 2502.58,1860.099L2507.32,1863.797ZM2516.58,1841.903C2515.58,1843.225 2515.82,1845.113 2517.14,1846.121C2518.48,1847.129 2520.36,1846.875 2521.36,1845.555L2516.58,1841.903ZM2528.8,1835.797C2529.8,1834.473 2529.54,1832.585 2528.22,1831.581C2526.88,1830.575 2525,1830.835 2524,1832.159L2528.8,1835.797ZM2537.88,1813.829C2536.86,1815.155 2537.12,1817.041 2538.46,1818.045C2539.78,1819.047 2541.66,1818.785 2542.68,1817.461L2537.88,1813.829ZM2550.06,1807.699C2551.08,1806.375 2550.82,1804.487 2549.48,1803.483C2548.16,1802.477 2546.28,1802.735 2545.28,1804.059L2550.06,1807.699ZM2559.24,1785.771C2558.22,1787.087 2558.48,1788.977 2559.8,1789.991C2561.1,1791.005 2563,1790.759 2564.02,1789.443L2559.24,1785.771ZM2571.5,1779.773C2572.52,1778.463 2572.28,1776.573 2570.98,1775.551C2569.66,1774.529 2567.78,1774.763 2566.76,1776.073L2571.5,1779.773ZM2581.06,1758.003C2580.02,1759.297 2580.22,1761.191 2581.52,1762.233C2582.8,1763.275 2584.7,1763.071 2585.74,1761.777L2581.06,1758.003ZM2593.46,1752.297C2594.5,1751.013 2594.32,1749.117 2593.04,1748.061C2591.76,1747.005 2589.86,1747.189 2588.8,1748.473L2593.46,1752.297ZM2603.66,1730.835C2602.58,1732.093 2602.72,1733.993 2603.98,1735.081C2605.22,1736.167 2607.12,1736.029 2608.22,1734.771L2603.66,1730.835ZM2616.26,1725.599C2617.38,1724.359 2617.26,1722.457 2616.02,1721.351C2614.78,1720.245 2612.88,1720.353 2611.78,1721.593L2616.26,1725.599ZM2627.44,1704.613C2626.28,1705.815 2626.34,1707.719 2627.54,1708.867C2628.74,1710.015 2630.64,1709.971 2631.78,1708.769L2627.44,1704.613ZM2640.3,1700.045C2641.46,1698.867 2641.46,1696.963 2640.28,1695.789C2639.12,1694.617 2637.2,1694.621 2636.04,1695.797L2640.3,1700.045ZM2652.7,1679.775C2651.48,1680.899 2651.4,1682.803 2652.52,1684.027C2653.64,1685.251 2655.54,1685.331 2656.78,1684.207L2652.7,1679.775ZM2665.84,1676.091C2667.1,1675.001 2667.22,1673.099 2666.14,1671.847C2665.04,1670.593 2663.14,1670.461 2661.88,1671.553L2665.84,1676.091ZM2679.76,1656.819C2678.44,1657.841 2678.2,1659.731 2679.22,1661.043C2680.24,1662.353 2682.14,1662.589 2683.44,1661.567L2679.76,1656.819ZM2693.16,1654.249C2694.5,1653.269 2694.8,1651.387 2693.82,1650.045C2692.84,1648.701 2690.94,1648.407 2689.6,1649.387L2693.16,1654.249ZM2708.76,1636.323C2707.36,1637.213 2706.94,1639.073 2707.84,1640.477C2708.72,1641.879 2710.58,1642.293 2711.98,1641.401L2708.76,1636.323ZM2722.34,1635.071C2723.78,1634.231 2724.26,1632.387 2723.42,1630.953C2722.58,1629.519 2720.74,1629.039 2719.3,1629.879L2722.34,1635.071ZM2739.7,1618.861C2738.22,1619.597 2737.6,1621.403 2738.34,1622.893C2739.08,1624.381 2740.88,1624.991 2742.38,1624.255L2739.7,1618.861ZM2753.76,1618.903C2755.28,1618.227 2755.96,1616.449 2755.28,1614.929C2754.62,1613.411 2752.84,1612.729 2751.32,1613.405L2753.76,1618.903ZM2774.34,1604.191C2772.78,1604.751 2771.96,1606.471 2772.52,1608.037C2773.08,1609.603 2774.8,1610.419 2776.36,1609.861L2774.34,1604.191ZM2788.66,1605.743C2790.26,1605.247 2791.14,1603.559 2790.64,1601.973C2790.14,1600.387 2788.46,1599.503 2786.86,1599.999L2788.66,1605.743ZM2810.78,1593.447C2809.16,1593.831 2808.16,1595.453 2808.54,1597.069C2808.92,1598.687 2810.54,1599.687 2812.16,1599.303L2810.78,1593.447ZM2824.84,1596.535C2826.48,1596.209 2827.54,1594.625 2827.22,1592.995C2826.88,1591.365 2825.3,1590.307 2823.68,1590.633L2824.84,1596.535ZM2848.1,1586.551C2846.44,1586.775 2845.3,1588.291 2845.52,1589.939C2845.74,1591.585 2847.26,1592.739 2848.9,1592.515L2848.1,1586.551ZM2861.82,1590.965C2863.46,1590.791 2864.66,1589.311 2864.5,1587.659C2864.32,1586.005 2862.84,1584.805 2861.18,1584.979L2861.82,1590.965ZM2885.84,1583.063C2884.2,1583.149 2882.92,1584.563 2883,1586.223C2883.08,1587.883 2884.5,1589.159 2886.16,1589.073L2885.84,1583.063ZM2899.18,1588.567C2900.84,1588.525 2902.14,1587.141 2902.1,1585.481C2902.06,1583.819 2900.68,1582.507 2899.02,1582.551L2899.18,1588.567ZM2923.72,1582.449C2922.06,1582.421 2920.7,1583.745 2920.66,1585.407C2920.64,1587.069 2921.96,1588.439 2923.62,1588.467L2923.72,1582.449ZM2936.66,1588.825C2938.32,1588.887 2939.7,1587.591 2939.78,1585.931C2939.84,1584.269 2938.54,1582.873 2936.88,1582.811L2936.66,1588.825ZM2961.52,1584.173C2959.86,1584.053 2958.42,1585.301 2958.3,1586.959C2958.18,1588.617 2959.44,1590.057 2961.1,1590.177L2961.52,1584.173ZM2974.1,1591.221C2975.76,1591.367 2977.22,1590.143 2977.36,1588.489C2977.5,1586.833 2976.28,1585.373 2974.62,1585.225L2974.1,1591.221ZM2999.16,1587.729C2997.5,1587.539 2996.02,1588.723 2995.82,1590.375C2995.64,1592.025 2996.82,1593.517 2998.48,1593.707L2999.16,1587.729ZM3011.44,1595.277C3013.08,1595.487 3014.6,1594.321 3014.8,1592.671C3015.02,1591.023 3013.84,1589.517 3012.2,1589.307L3011.44,1595.277ZM3036.6,1592.655C3034.96,1592.413 3033.44,1593.551 3033.2,1595.195C3032.96,1596.841 3034.1,1598.369 3035.74,1598.609L3036.6,1592.655ZM3048.66,1600.557C3050.3,1600.811 3051.84,1599.685 3052.1,1598.043C3052.36,1596.401 3051.22,1594.863 3049.58,1594.609L3048.66,1600.557ZM3073.88,1598.531C3072.24,1598.257 3070.7,1599.363 3070.42,1601.003C3070.14,1602.641 3071.26,1604.193 3072.9,1604.467L3073.88,1598.531ZM3085.8,1606.655C3087.44,1606.937 3088.98,1605.837 3089.26,1604.199C3089.56,1602.561 3088.46,1601.005 3086.82,1600.723L3085.8,1606.655ZM3111.04,1604.967C3109.4,1604.675 3107.84,1605.767 3107.56,1607.403C3107.26,1609.039 3108.36,1610.601 3110,1610.891L3111.04,1604.967ZM3122.88,1613.189C3124.52,1613.481 3126.08,1612.391 3126.38,1610.755C3126.66,1609.119 3125.58,1607.555 3123.94,1607.263L3122.88,1613.189ZM3148.14,1611.575C3146.5,1611.285 3144.94,1612.377 3144.66,1614.013C3144.36,1615.649 3145.46,1617.211 3147.08,1617.501L3148.14,1611.575ZM3159.98,1619.759C3161.62,1620.039 3163.18,1618.939 3163.46,1617.301C3163.74,1615.663 3162.64,1614.107 3161,1613.827L3159.98,1619.759ZM3185.2,1617.775C3183.56,1617.521 3182.02,1618.649 3181.76,1620.291C3181.5,1621.933 3182.64,1623.469 3184.28,1623.723L3185.2,1617.775ZM3197.26,1625.657C3198.9,1625.893 3200.42,1624.753 3200.66,1623.107C3200.9,1621.461 3199.76,1619.937 3198.1,1619.701L3197.26,1625.657ZM3222.4,1622.929C3220.74,1622.727 3219.24,1623.903 3219.04,1625.553C3218.84,1627.201 3220.02,1628.701 3221.66,1628.903L3222.4,1622.929ZM3234.7,1630.403C3236.36,1630.583 3237.84,1629.389 3238.02,1627.737C3238.2,1626.085 3237,1624.599 3235.36,1624.421L3234.7,1630.403ZM3259.72,1626.739C3258.06,1626.605 3256.62,1627.839 3256.48,1629.495C3256.34,1631.151 3257.58,1632.603 3259.24,1632.739L3259.72,1626.739ZM3272.34,1633.699C3274,1633.807 3275.42,1632.551 3275.54,1630.893C3275.64,1629.233 3274.38,1627.801 3272.72,1627.693L3272.34,1633.699ZM3297.16,1628.893C3295.5,1628.839 3294.1,1630.143 3294.06,1631.803C3294,1633.465 3295.3,1634.855 3296.96,1634.909L3297.16,1628.893ZM3310.1,1635.205C3311.76,1635.227 3313.14,1633.897 3313.16,1632.235C3313.18,1630.573 3311.84,1629.209 3310.18,1629.187L3310.1,1635.205ZM3334.62,1629.025C3332.96,1629.069 3331.66,1630.453 3331.7,1632.113C3331.74,1633.775 3333.12,1635.085 3334.78,1635.041L3334.62,1629.025ZM3347.94,1634.531C3349.6,1634.447 3350.88,1633.035 3350.8,1631.375C3350.7,1629.715 3349.3,1628.437 3347.64,1628.521L3347.94,1634.531ZM3371.98,1626.713C3370.32,1626.877 3369.12,1628.351 3369.28,1630.005C3369.44,1631.657 3370.92,1632.865 3372.58,1632.703L3371.98,1626.713ZM3385.66,1631.221C3387.32,1631.011 3388.48,1629.505 3388.26,1627.855C3388.06,1626.207 3386.54,1625.041 3384.9,1625.251L3385.66,1631.221ZM3409,1621.481C3407.36,1621.787 3406.28,1623.359 3406.58,1624.993C3406.9,1626.625 3408.46,1627.703 3410.1,1627.397L3409,1621.481ZM3423.02,1624.761C3424.64,1624.401 3425.66,1622.795 3425.3,1621.171C3424.94,1619.549 3423.34,1618.525 3421.72,1618.885L3423.02,1624.761ZM3445.3,1612.817C3443.7,1613.287 3442.8,1614.961 3443.26,1616.555C3443.72,1618.149 3445.4,1619.059 3447,1618.589L3445.3,1612.817ZM3459.58,1614.611C3461.16,1614.077 3462,1612.371 3461.48,1610.795C3460.94,1609.221 3459.24,1608.377 3457.66,1608.909L3459.58,1614.611ZM3480.38,1600.231C3478.84,1600.885 3478.14,1602.655 3478.8,1604.181C3479.44,1605.709 3481.22,1606.417 3482.74,1605.761L3480.38,1600.231ZM3494.78,1600.285C3496.28,1599.561 3496.9,1597.763 3496.18,1596.265C3495.46,1594.769 3493.66,1594.141 3492.16,1594.865L3494.78,1600.285ZM3513.54,1583.365C3512.12,1584.215 3511.66,1586.063 3512.5,1587.489C3513.36,1588.917 3515.2,1589.385 3516.62,1588.533L3513.54,1583.365ZM3527.82,1581.487C3529.2,1580.567 3529.58,1578.699 3528.66,1577.315C3527.74,1575.931 3525.88,1575.553 3524.5,1576.473L3527.82,1581.487ZM3544.08,1562.129C3542.78,1563.173 3542.58,1565.067 3543.62,1566.361C3544.66,1567.655 3546.56,1567.857 3547.84,1566.813L3544.08,1562.129ZM3557.6,1558.541C3558.84,1557.435 3558.96,1555.533 3557.84,1554.293C3556.74,1553.053 3554.84,1552.945 3553.6,1554.051L3557.6,1558.541ZM3569.68,1538.325C3568.54,1539.541 3568.6,1541.445 3569.82,1542.577C3571.04,1543.711 3572.94,1543.645 3574.08,1542.429L3569.68,1538.325ZM3582.22,1533.247C3583.3,1531.979 3583.14,1530.079 3581.88,1529.007C3580.6,1527.933 3578.7,1528.091 3577.62,1529.361L3582.22,1533.247ZM3591.38,1511.549C3590.42,1512.907 3590.74,1514.785 3592.1,1515.741C3593.46,1516.697 3595.34,1516.371 3596.3,1515.011L3591.38,1511.549ZM3603.12,1504.811C3604.02,1503.409 3603.6,1501.549 3602.2,1500.657C3600.8,1499.765 3598.94,1500.177 3598.06,1501.579L3603.12,1504.811ZM3609.32,1482.091C3608.56,1483.563 3609.12,1485.381 3610.6,1486.153C3612.06,1486.925 3613.88,1486.359 3614.66,1484.887L3609.32,1482.091ZM3620.12,1473.905C3620.82,1472.401 3620.18,1470.609 3618.68,1469.901C3617.18,1469.193 3615.38,1469.839 3614.68,1471.341L3620.12,1473.905ZM3623.46,1450.591C3622.88,1452.145 3623.66,1453.883 3625.22,1454.471C3626.76,1455.061 3628.5,1454.279 3629.1,1452.723L3623.46,1450.591ZM3633.2,1441.179C3633.74,1439.603 3632.88,1437.899 3631.3,1437.373C3629.72,1436.845 3628.02,1437.697 3627.5,1439.273L3633.2,1441.179ZM3633.86,1417.631C3633.46,1419.241 3634.42,1420.881 3636.04,1421.293C3637.64,1421.705 3639.28,1420.733 3639.7,1419.123L3633.86,1417.631ZM3642.52,1407.205C3642.86,1405.581 3641.84,1403.977 3640.22,1403.625C3638.58,1403.273 3636.98,1404.303 3636.64,1405.927L3642.52,1407.205ZM3640.68,1383.725C3640.44,1385.369 3641.56,1386.899 3643.22,1387.143C3644.86,1387.385 3646.38,1386.251 3646.64,1384.607L3640.68,1383.725ZM3648.22,1372.471C3648.4,1370.821 3647.22,1369.329 3645.56,1369.143C3643.92,1368.955 3642.42,1370.143 3642.24,1371.795L3648.22,1372.471ZM3644.08,1349.283C3643.98,1350.943 3645.26,1352.357 3646.92,1352.439C3648.58,1352.523 3650,1351.245 3650.08,1349.585L3644.08,1349.283ZM3650.5,1337.359C3650.52,1335.697 3649.2,1334.325 3647.54,1334.297C3645.88,1334.267 3644.5,1335.591 3644.48,1337.251L3650.5,1337.359ZM3644.2,1314.657C3644.28,1316.317 3645.68,1317.607 3647.34,1317.537C3649,1317.467 3650.28,1316.065 3650.22,1314.405L3644.2,1314.657ZM3649.52,1302.195C3649.4,1300.537 3647.96,1299.293 3646.3,1299.415C3644.64,1299.535 3643.4,1300.977 3643.52,1302.635L3649.52,1302.195ZM3641.2,1280.155C3641.42,1281.803 3642.94,1282.961 3644.58,1282.745C3646.22,1282.527 3647.38,1281.015 3647.18,1279.367L3641.2,1280.155ZM3645.38,1267.269C3645.12,1265.629 3643.58,1264.517 3641.94,1264.785C3640.3,1265.053 3639.18,1266.599 3639.44,1268.241L3645.38,1267.269ZM3635.16,1246.049C3635.52,1247.671 3637.14,1248.693 3638.76,1248.331C3640.38,1247.969 3641.4,1246.359 3641.04,1244.737L3635.16,1246.049ZM3638.18,1232.845C3637.78,1231.235 3636.14,1230.263 3634.52,1230.675C3632.92,1231.087 3631.94,1232.727 3632.36,1234.337L3638.18,1232.845ZM3626.12,1212.617C3626.62,1214.201 3628.32,1215.075 3629.9,1214.569C3631.48,1214.063 3632.36,1212.371 3631.86,1210.787L3626.12,1212.617ZM3627.96,1199.195C3627.4,1197.629 3625.68,1196.809 3624.1,1197.363C3622.54,1197.919 3621.72,1199.639 3622.28,1201.205L3627.96,1199.195ZM3614.1,1180.147C3614.74,1181.677 3616.5,1182.391 3618.04,1181.741C3619.56,1181.093 3620.28,1179.325 3619.64,1177.795L3614.1,1180.147ZM3614.68,1166.599C3613.98,1165.089 3612.2,1164.427 3610.68,1165.121C3609.18,1165.815 3608.52,1167.603 3609.2,1169.113L3614.68,1166.599ZM3599.22,1148.719C3599.98,1150.193 3601.8,1150.767 3603.28,1150.001C3604.76,1149.233 3605.32,1147.417 3604.56,1145.943L3599.22,1148.719ZM3598.76,1135.143C3597.96,1133.689 3596.14,1133.161 3594.68,1133.965C3593.22,1134.769 3592.7,1136.599 3593.5,1138.053L3598.76,1135.143ZM3582.06,1118.429C3582.92,1119.845 3584.78,1120.287 3586.2,1119.419C3587.62,1118.549 3588.06,1116.695 3587.18,1115.279L3582.06,1118.429ZM3580.66,1104.917C3579.76,1103.521 3577.88,1103.121 3576.5,1104.025C3575.1,1104.927 3574.7,1106.791 3575.6,1108.185L3580.66,1104.917ZM3562.84,1089.371C3563.82,1090.727 3565.68,1091.047 3567.04,1090.087C3568.4,1089.125 3568.72,1087.247 3567.76,1085.891L3562.84,1089.371ZM3560.58,1075.981C3559.58,1074.645 3557.7,1074.367 3556.36,1075.357C3555.02,1076.347 3554.74,1078.231 3555.74,1079.567L3560.58,1075.981ZM3541.84,1061.575C3542.88,1062.869 3544.76,1063.075 3546.06,1062.035C3547.36,1060.993 3547.56,1059.099 3546.52,1057.803L3541.84,1061.575ZM3538.76,1048.343C3537.7,1047.067 3535.8,1046.899 3534.52,1047.967C3533.24,1049.033 3533.08,1050.931 3534.14,1052.205L3538.76,1048.343ZM3519.22,1035.021C3520.34,1036.257 3522.24,1036.359 3523.48,1035.249C3524.72,1034.137 3524.82,1032.235 3523.7,1030.999L3519.22,1035.021ZM3515.44,1021.975C3514.32,1020.759 3512.42,1020.691 3511.2,1021.823C3509.98,1022.957 3509.92,1024.861 3511.04,1026.077L3515.44,1021.975ZM3495.26,1009.671C3496.44,1010.851 3498.34,1010.859 3499.52,1009.689C3500.7,1008.517 3500.7,1006.613 3499.54,1005.433L3495.26,1009.671ZM3490.86,996.823C3489.66,995.661 3487.76,995.683 3486.6,996.873C3485.44,998.061 3485.46,999.967 3486.66,1001.129L3490.86,996.823ZM3470.14,985.451C3471.36,986.579 3473.26,986.503 3474.38,985.281C3475.52,984.059 3475.44,982.157 3474.22,981.029L3470.14,985.451ZM3465.18,972.803C3463.94,971.693 3462.04,971.797 3460.92,973.033C3459.82,974.269 3459.92,976.173 3461.16,977.283L3465.18,972.803ZM3444.02,962.281C3445.28,963.359 3447.18,963.209 3448.26,961.945C3449.34,960.681 3449.18,958.781 3447.92,957.703L3444.02,962.281ZM3438.58,949.829C3437.3,948.767 3435.4,948.941 3434.34,950.217C3433.28,951.495 3433.46,953.393 3434.72,954.455L3438.58,949.829ZM3417.06,940.069C3418.36,941.103 3420.24,940.889 3421.28,939.589C3422.32,938.289 3422.1,936.395 3420.8,935.359L3417.06,940.069ZM3411.2,927.805C3409.9,926.785 3408,927.019 3406.98,928.331C3405.96,929.641 3406.2,931.533 3407.5,932.553L3411.2,927.805ZM3389.38,918.717C3390.72,919.713 3392.6,919.443 3393.6,918.113C3394.6,916.781 3394.32,914.895 3393,913.899L3389.38,918.717ZM3383.18,906.629C3381.84,905.645 3379.96,905.933 3378.98,907.273C3378,908.611 3378.28,910.495 3379.62,911.479L3383.18,906.629ZM3361.12,898.129C3362.48,899.091 3364.36,898.771 3365.32,897.417C3366.28,896.061 3365.96,894.183 3364.62,893.221L3361.12,898.129ZM3354.64,886.197C3353.28,885.245 3351.4,885.579 3350.44,886.941C3349.5,888.305 3349.82,890.181 3351.18,891.131L3354.64,886.197ZM3332.38,878.199C3333.76,879.133 3335.64,878.773 3336.56,877.397C3337.5,876.023 3337.14,874.151 3335.76,873.219L3332.38,878.199ZM3325.66,866.407C3324.28,865.483 3322.4,865.853 3321.48,867.235C3320.56,868.615 3320.92,870.485 3322.3,871.409L3325.66,866.407ZM3303.26,858.799C3304.66,859.711 3306.52,859.323 3307.44,857.935C3308.34,856.545 3307.96,854.679 3306.56,853.767L3303.26,858.799ZM3296.36,847.099C3294.96,846.193 3293.1,846.587 3292.2,847.979C3291.3,849.373 3291.68,851.237 3293.08,852.143L3296.36,847.099ZM3273.9,839.745C3275.3,840.643 3277.16,840.237 3278.06,838.839C3278.96,837.441 3278.54,835.579 3277.14,834.681L3273.9,839.745ZM3266.88,828.105C3265.48,827.211 3263.62,827.621 3262.72,829.021C3261.84,830.421 3262.24,832.281 3263.64,833.177L3266.88,828.105ZM3244.38,820.895C3245.78,821.787 3247.64,821.373 3248.52,819.969C3249.42,818.567 3249,816.707 3247.6,815.815L3244.38,820.895ZM3237.32,809.283C3235.92,808.391 3234.06,808.807 3233.16,810.209C3232.28,811.613 3232.68,813.473 3234.1,814.363L3237.32,809.283ZM3214.8,802.103C3216.2,802.995 3218.06,802.581 3218.94,801.179C3219.84,799.777 3219.42,797.917 3218.02,797.025L3214.8,802.103ZM3207.76,790.483C3206.36,789.591 3204.5,790.001 3203.6,791.403C3202.7,792.805 3203.12,794.665 3204.52,795.559L3207.76,790.483ZM3185.26,783.225C3186.66,784.123 3188.52,783.719 3189.42,782.321C3190.32,780.923 3189.9,779.061 3188.52,778.163L3185.26,783.225ZM3178.28,771.563C3176.88,770.659 3175.02,771.057 3174.12,772.453C3173.22,773.847 3173.62,775.711 3175.02,776.615L3178.28,771.563ZM3155.84,764.111C3157.24,765.025 3159.1,764.639 3160.02,763.251C3160.92,761.863 3160.54,759.997 3159.16,759.083L3155.84,764.111ZM3149,752.373C3147.62,751.455 3145.76,751.831 3144.84,753.215C3143.92,754.599 3144.3,756.467 3145.68,757.387L3149,752.373ZM3126.68,744.621C3128.04,745.555 3129.92,745.197 3130.86,743.823C3131.78,742.449 3131.44,740.577 3130.06,739.643L3126.68,744.621ZM3120.02,732.775C3118.66,731.831 3116.78,732.177 3115.84,733.545C3114.9,734.913 3115.24,736.787 3116.6,737.731L3120.02,732.775ZM3097.84,724.607C3099.2,725.569 3101.06,725.251 3102.04,723.895C3103,722.539 3102.68,720.661 3101.32,719.699L3097.84,724.607ZM3091.44,712.623C3090.08,711.651 3088.2,711.953 3087.24,713.301C3086.26,714.649 3086.56,716.529 3087.92,717.503L3091.44,712.623ZM3069.44,703.933C3070.78,704.929 3072.66,704.657 3073.66,703.327C3074.66,701.997 3074.38,700.111 3073.06,699.115L3069.44,703.933ZM3063.36,691.785C3062.04,690.777 3060.16,691.029 3059.14,692.349C3058.14,693.669 3058.38,695.557 3059.72,696.567L3063.36,691.785ZM3041.64,682.465C3042.94,683.501 3044.84,683.287 3045.86,681.989C3046.9,680.689 3046.7,678.795 3045.4,677.759L3041.64,682.465ZM3035.94,670.133C3034.66,669.081 3032.76,669.273 3031.7,670.561C3030.66,671.847 3030.84,673.743 3032.14,674.795L3035.94,670.133ZM3014.54,660.083C3015.8,661.163 3017.7,661.017 3018.78,659.755C3019.86,658.493 3019.72,656.595 3018.46,655.513L3014.54,660.083ZM3009.3,647.551C3008.04,646.453 3006.14,646.573 3005.04,647.819C3003.94,649.067 3004.06,650.969 3005.32,652.067L3009.3,647.551ZM2988.3,636.677C2989.52,637.809 2991.42,637.739 2992.56,636.523C2993.68,635.305 2993.62,633.401 2992.4,632.269L2988.3,636.677ZM2983.6,623.947C2982.4,622.795 2980.48,622.833 2979.34,624.031C2978.18,625.229 2978.22,627.135 2979.42,628.285L2983.6,623.947ZM2963.14,612.113C2964.3,613.303 2966.22,613.331 2967.4,612.171C2968.6,611.013 2968.62,609.107 2967.46,607.917L2963.14,612.113ZM2959.1,599.155C2957.96,597.943 2956.06,597.881 2954.84,599.019C2953.62,600.155 2953.56,602.059 2954.7,603.271L2959.1,599.155ZM2939.3,586.267C2940.4,587.517 2942.3,587.645 2943.54,586.551C2944.8,585.457 2944.92,583.557 2943.84,582.305L2939.3,586.267ZM2935.94,573.111C2934.88,571.841 2932.98,571.677 2931.7,572.747C2930.44,573.817 2930.28,575.715 2931.34,576.987L2935.94,573.111ZM2916.88,559.163C2917.9,560.473 2919.8,560.705 2921.12,559.683C2922.42,558.659 2922.66,556.769 2921.62,555.459L2916.88,559.163ZM2914.26,545.841C2913.28,544.511 2911.38,544.241 2910.06,545.239C2908.72,546.235 2908.46,548.121 2909.46,549.451L2914.26,545.841ZM2896.04,530.823C2896.98,532.191 2898.86,532.533 2900.22,531.589C2901.6,530.643 2901.94,528.769 2901,527.403L2896.04,530.823ZM2894.22,517.371C2893.3,515.985 2891.44,515.603 2890.04,516.519C2888.66,517.433 2888.28,519.301 2889.2,520.687L2894.22,517.371ZM2876.94,501.267C2877.8,502.691 2879.64,503.149 2881.06,502.291C2882.5,501.435 2882.96,499.585 2882.1,498.161L2876.94,501.267ZM2875.96,487.725C2875.14,486.283 2873.3,485.783 2871.86,486.607C2870.42,487.431 2869.92,489.271 2870.74,490.713L2875.96,487.725ZM2859.78,470.523C2860.54,472.001 2862.36,472.585 2863.84,471.825C2865.32,471.065 2865.9,469.249 2865.14,467.771L2859.78,470.523ZM2859.74,456.949C2859.02,455.453 2857.22,454.825 2855.72,455.549C2854.22,456.273 2853.6,458.071 2854.32,459.567L2859.74,456.949ZM2844.82,438.645C2845.46,440.175 2847.24,440.887 2848.76,440.237C2850.3,439.587 2851,437.819 2850.36,436.291L2844.82,438.645ZM2845.78,425.103C2845.16,423.557 2843.42,422.797 2841.86,423.407C2840.32,424.015 2839.56,425.763 2840.18,427.309L2845.78,425.103ZM2832.3,405.701C2832.84,407.277 2834.54,408.127 2836.12,407.599C2837.68,407.073 2838.54,405.367 2838.02,403.791L2832.3,405.701ZM2834.34,392.279C2833.86,390.689 2832.18,389.789 2830.6,390.271C2829,390.751 2828.1,392.431 2828.58,394.021L2834.34,392.279ZM2822.54,371.821C2822.94,373.437 2824.56,374.431 2826.18,374.041C2827.8,373.651 2828.78,372.025 2828.4,370.409L2822.54,371.821ZM2825.74,358.629C2825.4,357.003 2823.82,355.959 2822.18,356.297C2820.56,356.637 2819.52,358.231 2819.86,359.857L2825.74,358.629ZM2815.84,337.191C2816.08,338.835 2817.6,339.975 2819.26,339.735C2820.9,339.497 2822.04,337.969 2821.8,336.325L2815.84,337.191ZM2820.26,324.355C2820.08,322.703 2818.58,321.513 2816.94,321.697C2815.28,321.881 2814.1,323.369 2814.28,325.021L2820.26,324.355ZM2812.48,302.061C2812.54,303.721 2813.96,305.005 2815.62,304.929C2817.28,304.853 2818.56,303.445 2818.48,301.785L2812.48,302.061ZM2818.14,289.729C2818.12,288.067 2816.76,286.735 2815.1,286.751C2813.44,286.769 2812.1,288.131 2812.12,289.793L2818.14,289.729ZM2812.66,266.765C2812.56,268.423 2813.82,269.845 2815.48,269.941C2817.14,270.035 2818.56,268.767 2818.66,267.107L2812.66,266.765ZM2819.58,255.139C2819.74,253.485 2818.54,252.013 2816.88,251.849C2815.22,251.687 2813.76,252.895 2813.6,254.549L2819.58,255.139ZM2816.82,231.867C2816.5,233.501 2817.58,235.071 2819.22,235.373C2820.86,235.677 2822.42,234.597 2822.72,232.963L2816.82,231.867ZM2825.16,221.271C2825.54,219.651 2824.52,218.035 2822.9,217.661C2821.28,217.287 2819.68,218.297 2819.3,219.917L2825.16,221.271ZM2825.32,197.833C2824.82,199.418 2825.7,201.108 2827.3,201.609C2828.88,202.111 2830.56,201.231 2831.06,199.646L2825.32,197.833ZM2834.9,188.329C2835.46,186.766 2834.66,185.041 2833.1,184.476C2831.54,183.91 2829.8,184.719 2829.24,186.282L2834.9,188.329ZM2837.84,165.074C2837.16,166.59 2837.84,168.371 2839.34,169.053C2840.86,169.734 2842.64,169.058 2843.32,167.542L2837.84,165.074ZM2848.44,156.738C2849.18,155.251 2848.58,153.444 2847.1,152.703C2845.6,151.962 2843.8,152.567 2843.06,154.055L2848.44,156.738ZM2854,133.967C2853.16,135.396 2853.62,137.242 2855.06,138.09C2856.48,138.938 2858.32,138.467 2859.18,137.038L2854,133.967ZM2865.48,126.877C2866.38,125.482 2865.98,123.619 2864.58,122.716C2863.2,121.813 2861.32,122.211 2860.42,123.606L2865.48,126.877ZM2873.56,104.87C2872.56,106.195 2872.82,108.083 2874.14,109.086C2875.46,110.089 2877.36,109.828 2878.36,108.504L2873.56,104.87ZM2885.76,99.117C2886.82,97.833 2886.62,95.937 2885.34,94.882C2884.06,93.827 2882.16,94.013 2881.1,95.297L2885.76,99.117ZM2896.28,78.174C2895.14,79.375 2895.18,81.28 2896.38,82.429C2897.58,83.578 2899.48,83.536 2900.64,82.335L2896.28,78.174ZM2909.08,73.874C2910.28,72.722 2910.3,70.817 2909.16,69.619C2908,68.422 2906.1,68.385 2904.9,69.537L2909.08,73.874ZM2922.02,54.332C2920.72,55.385 2920.54,57.281 2921.6,58.567C2922.64,59.853 2924.54,60.042 2925.82,58.989L2922.02,54.332ZM2935.24,51.628C2936.56,50.633 2936.84,48.747 2935.84,47.416C2934.84,46.085 2932.96,45.812 2931.62,46.808L2935.24,51.628ZM2950.56,33.884C2949.14,34.761 2948.7,36.616 2949.58,38.028C2950.46,39.44 2952.32,39.874 2953.72,38.998L2950.56,33.884ZM2964,32.952C2965.46,32.144 2965.98,30.312 2965.18,28.86C2964.38,27.407 2962.54,26.884 2961.08,27.691L2964,32.952ZM2981.64,17.499C2980.1,18.166 2979.42,19.94 2980.08,21.463C2980.74,22.985 2982.52,23.679 2984.04,23.012L2981.64,17.499ZM2995.08,18.522C2996.64,17.936 2997.42,16.201 2996.84,14.645C2996.26,13.09 2994.52,12.304 2992.96,12.889L2995.08,18.522ZM3014.84,5.913C3013.22,6.335 3012.26,7.98 3012.68,9.588C3013.1,11.195 3014.76,12.156 3016.36,11.735L3014.84,5.913ZM3027.96,9.045C3029.58,8.716 3030.64,7.128 3030.3,5.499C3029.98,3.87 3028.4,2.816 3026.76,3.145L3027.96,9.045ZM3049.5,-0.157C3047.84,-0.01 3046.62,1.451 3046.78,3.106C3046.92,4.762 3048.38,5.984 3050.04,5.837L3049.5,-0.157ZM3061.9,5.143C3063.56,5.096 3064.88,3.711 3064.82,2.049C3064.78,0.388 3063.4,-0.921 3061.74,-0.873L3061.9,5.143ZM3084.7,-0.216C3083.04,-0.358 3081.6,0.869 3081.44,2.525C3081.3,4.181 3082.54,5.638 3084.18,5.78L3084.7,-0.216ZM6.841,2271.415C7.544,2269.415 8.261,2267.415 8.99,2265.415L3.337,2263.335C2.598,2265.375 1.872,2267.395 1.159,2269.435L6.841,2271.415ZM17.782,2243.155C19.447,2239.235 21.164,2235.355 22.932,2231.495L17.46,2228.975C15.67,2232.895 13.931,2236.835 12.244,2240.795L17.782,2243.155ZM33.459,2209.995C35.426,2206.215 37.443,2202.475 39.509,2198.775L34.25,2195.835C32.158,2199.595 30.116,2203.395 28.123,2207.215L33.459,2209.995ZM51.666,2178.155C53.916,2174.535 56.213,2170.955 58.555,2167.415L53.533,2164.095C51.161,2167.675 48.836,2171.315 46.558,2174.955L51.666,2178.155ZM72.223,2147.755C74.732,2144.315 77.286,2140.915 79.881,2137.535L75.113,2133.875C72.487,2137.275 69.904,2140.715 67.364,2144.195L72.223,2147.755ZM94.929,2118.915C97.676,2115.655 100.462,2112.455 103.289,2109.275L98.788,2105.275C95.93,2108.495 93.112,2111.735 90.334,2115.015L94.929,2118.915ZM119.584,2091.715C122.545,2088.655 125.542,2085.635 128.576,2082.635L124.351,2078.355C121.285,2081.375 118.255,2084.435 115.262,2087.515L119.584,2091.715ZM145.99,2066.175C149.142,2063.315 152.328,2060.495 155.546,2057.695L151.602,2053.155C148.35,2055.975 145.132,2058.835 141.948,2061.715L145.99,2066.175ZM173.96,2042.355C177.281,2039.695 180.632,2037.075 184.012,2034.475L180.349,2029.715C176.936,2032.315 173.552,2034.975 170.199,2037.655L173.96,2042.355ZM203.313,2020.255C206.784,2017.795 210.284,2015.375 213.81,2012.975L210.428,2007.995C206.87,2010.415 203.339,2012.855 199.835,2015.335L203.313,2020.255ZM233.892,1999.871C237.5,1997.609 241.13,1995.381 244.784,1993.185L241.686,1988.027C237.998,1990.241 234.334,1992.489 230.696,1994.771L233.892,1999.871ZM265.558,1981.197C269.284,1979.133 273.03,1977.103 276.798,1975.105L273.978,1969.787C270.178,1971.803 266.398,1973.851 262.64,1975.933L265.558,1981.197ZM298.176,1964.231C302.004,1962.365 305.852,1960.531 309.716,1958.733L307.174,1953.277C303.278,1955.091 299.4,1956.939 295.54,1958.821L298.176,1964.231ZM331.63,1948.967C335.55,1947.297 339.484,1945.663 343.434,1944.061L341.172,1938.483C337.19,1940.097 333.222,1941.747 329.272,1943.431L331.63,1948.967ZM365.812,1935.407C369.81,1933.933 373.822,1932.495 377.846,1931.093L375.864,1925.409C371.808,1926.825 367.764,1928.275 363.732,1929.759L365.812,1935.407ZM400.626,1923.553C404.694,1922.279 408.77,1921.041 412.856,1919.837L411.156,1914.063C407.036,1915.277 402.926,1916.525 398.826,1917.811L400.626,1923.553ZM435.978,1913.421C440.106,1912.347 444.24,1911.309 448.378,1910.307L446.962,1904.457C442.79,1905.469 438.622,1906.515 434.464,1907.597L435.978,1913.421ZM471.784,1905.035C475.96,1904.163 480.142,1903.329 484.326,1902.531L483.2,1896.619C478.982,1897.423 474.766,1898.265 470.556,1899.143L471.784,1905.035ZM507.964,1898.421C510.068,1898.091 512.172,1897.769 514.276,1897.457L513.392,1891.503C511.27,1891.819 509.15,1892.143 507.03,1892.475L507.964,1898.421ZM514.276,1897.457C516.39,1897.143 518.506,1896.837 520.624,1896.539L519.784,1890.579C517.654,1890.879 515.522,1891.187 513.392,1891.503L514.276,1897.457ZM544.488,1893.509C548.734,1893.027 552.982,1892.577 557.232,1892.155L556.638,1886.167C552.362,1886.591 548.086,1887.045 543.81,1887.529L544.488,1893.509ZM581.204,1890.097C585.468,1889.785 589.732,1889.503 593.996,1889.249L593.64,1883.243C589.348,1883.497 585.058,1883.781 580.766,1884.093L581.204,1890.097ZM618.034,1888.121C622.306,1887.973 626.578,1887.853 630.852,1887.759L630.72,1881.743C626.422,1881.837 622.124,1881.957 617.826,1882.107L618.034,1888.121ZM654.918,1887.515C659.192,1887.523 663.468,1887.555 667.742,1887.613L667.824,1881.595C663.524,1881.537 659.226,1881.503 654.928,1881.497L654.918,1887.515ZM691.806,1888.205C696.078,1888.357 700.352,1888.533 704.624,1888.733L704.906,1882.721C700.61,1882.521 696.316,1882.343 692.02,1882.191L691.806,1888.205ZM728.66,1890.111C732.926,1890.399 737.192,1890.709 741.458,1891.043L741.926,1885.043C737.64,1884.707 733.352,1884.395 729.066,1884.105L728.66,1890.111ZM765.444,1893.149C769.7,1893.565 773.956,1894.001 778.21,1894.457L778.852,1888.473C774.578,1888.015 770.304,1887.577 766.028,1887.159L765.444,1893.149ZM802.134,1897.241C806.378,1897.773 810.618,1898.325 814.86,1898.895L815.662,1892.931C811.404,1892.357 807.144,1891.805 802.882,1891.271L802.134,1897.241ZM838.706,1902.303C842.936,1902.943 847.164,1903.601 851.39,1904.275L852.34,1898.333C848.096,1897.655 843.852,1896.995 839.606,1896.353L838.706,1902.303ZM875.152,1908.255C879.368,1908.993 883.58,1909.747 887.792,1910.519L888.874,1904.597C884.648,1903.825 880.42,1903.067 876.19,1902.327L875.152,1908.255ZM911.464,1915.019C915.664,1915.845 919.86,1916.689 924.056,1917.545L925.26,1911.649C921.052,1910.789 916.842,1909.943 912.628,1909.113L911.464,1915.019ZM947.638,1922.517C951.822,1923.425 956.002,1924.347 960.18,1925.281L961.494,1919.407C957.304,1918.471 953.11,1917.545 948.916,1916.635L947.638,1922.517ZM983.674,1930.675C987.842,1931.657 992.006,1932.649 996.168,1933.653L997.58,1927.803C993.408,1926.795 989.232,1925.801 985.052,1924.817L983.674,1930.675ZM1019.578,1939.425C1023.73,1940.469 1027.88,1941.525 1032.028,1942.591L1033.526,1936.763C1029.368,1935.693 1025.208,1934.635 1021.046,1933.587L1019.578,1939.425ZM1055.356,1948.695C1059.494,1949.797 1063.63,1950.907 1067.764,1952.027L1069.336,1946.217C1065.196,1945.095 1061.052,1943.983 1056.904,1942.879L1055.356,1948.695ZM1091.018,1958.419C1095.146,1959.569 1099.27,1960.727 1103.39,1961.893L1105.028,1956.101C1100.9,1954.935 1096.77,1953.773 1092.634,1952.621L1091.018,1958.419ZM1126.578,1968.531C1130.696,1969.723 1134.81,1970.921 1138.92,1972.125L1140.612,1966.349C1136.496,1965.145 1132.376,1963.943 1128.252,1962.749L1126.578,1968.531ZM1162.052,1978.967C1164.104,1979.581 1166.156,1980.195 1168.206,1980.809L1169.934,1975.045C1167.882,1974.429 1165.828,1973.815 1163.774,1973.201L1162.052,1978.967ZM1168.206,1980.809C1170.258,1981.425 1172.31,1982.041 1174.36,1982.659L1176.096,1976.895C1174.042,1976.277 1171.988,1975.661 1169.934,1975.045L1168.206,1980.809ZM1197.454,1989.653C1201.554,1990.903 1205.652,1992.155 1209.752,1993.411L1211.514,1987.655C1207.412,1986.399 1203.31,1985.147 1199.208,1983.897L1197.454,1989.653ZM1232.82,2000.503C1236.914,2001.765 1241.01,2003.035 1245.106,2004.295L1246.884,1998.549C1242.788,1997.281 1238.69,1996.015 1234.594,1994.751L1232.82,2000.503ZM1268.162,2011.435C1272.258,2012.715 1276.352,2013.975 1280.446,2015.255L1282.23,2009.495C1278.136,2008.235 1274.04,2006.955 1269.946,2005.695L1268.162,2011.435ZM1303.506,2022.395C1307.602,2023.675 1311.698,2024.935 1315.794,2026.195L1317.572,2020.455C1313.476,2019.195 1309.38,2017.915 1305.286,2016.655L1303.506,2022.395ZM1338.87,2033.315C1342.97,2034.575 1347.07,2035.835 1351.172,2037.075L1352.93,2031.315C1348.832,2030.075 1344.734,2028.815 1340.636,2027.555L1338.87,2033.315ZM1374.276,2044.095C1378.382,2045.355 1382.49,2046.575 1386.598,2047.815L1388.328,2042.055C1384.224,2040.815 1380.12,2039.575 1376.018,2038.335L1374.276,2044.095ZM1409.746,2054.715C1413.86,2055.915 1417.976,2057.135 1422.094,2058.335L1423.782,2052.555C1419.672,2051.355 1415.56,2050.155 1411.45,2048.935L1409.746,2054.715ZM1445.298,2065.055C1449.424,2066.235 1453.55,2067.415 1457.678,2068.575L1459.316,2062.795C1455.194,2061.615 1451.074,2060.455 1446.954,2059.275L1445.298,2065.055ZM1480.95,2075.075C1485.088,2076.215 1489.228,2077.335 1493.37,2078.455L1494.944,2072.655C1490.81,2071.535 1486.678,2070.395 1482.548,2069.275L1480.95,2075.075ZM1516.72,2084.675C1520.872,2085.775 1525.026,2086.855 1529.182,2087.915L1530.68,2082.095C1526.534,2081.015 1522.388,2079.955 1518.246,2078.855L1516.72,2084.675ZM1552.62,2093.815C1556.788,2094.855 1560.96,2095.855 1565.132,2096.875L1566.542,2091.015C1562.38,2090.015 1558.22,2088.995 1554.062,2087.975L1552.62,2093.815ZM1588.662,2102.395C1592.848,2103.355 1597.036,2104.315 1601.226,2105.235L1602.536,2099.375C1598.358,2098.435 1594.182,2097.495 1590.008,2096.535L1588.662,2102.395ZM1624.856,2110.355C1629.058,2111.235 1633.264,2112.115 1637.472,2112.955L1638.668,2107.055C1634.474,2106.215 1630.282,2105.355 1626.092,2104.475L1624.856,2110.355ZM1661.202,2117.615C1665.424,2118.395 1669.646,2119.175 1673.872,2119.955L1674.944,2114.015C1670.732,2113.255 1666.524,2112.475 1662.318,2111.695L1661.202,2117.615ZM1697.704,2124.075C1701.94,2124.775 1706.182,2125.455 1710.426,2126.115L1711.358,2120.175C1707.13,2119.515 1702.906,2118.835 1698.684,2118.135L1697.704,2124.075ZM1734.352,2129.675C1738.606,2130.275 1742.864,2130.855 1747.124,2131.415L1747.906,2125.435C1743.662,2124.875 1739.424,2124.315 1735.188,2123.715L1734.352,2129.675ZM1771.138,2134.335C1775.406,2134.815 1779.678,2135.275 1783.952,2135.735L1784.572,2129.735C1780.316,2129.295 1776.064,2128.835 1771.814,2128.355L1771.138,2134.335ZM1808.042,2137.995C1810.184,2138.175 1812.326,2138.335 1814.47,2138.515L1814.946,2132.515C1812.812,2132.355 1810.68,2132.175 1808.548,2131.995L1808.042,2137.995ZM1814.47,2138.515C1816.608,2138.675 1818.748,2138.855 1820.888,2138.995L1821.328,2132.995C1819.198,2132.855 1817.072,2132.675 1814.946,2132.515L1814.47,2138.515ZM1845.03,2140.495C1849.32,2140.715 1853.612,2140.915 1857.91,2141.075L1858.142,2135.055C1853.87,2134.895 1849.6,2134.715 1845.334,2134.495L1845.03,2140.495ZM1882.09,2141.735C1886.382,2141.795 1890.68,2141.835 1894.978,2141.855L1894.998,2135.835C1890.726,2135.815 1886.454,2135.775 1882.184,2135.715L1882.09,2141.735ZM1919.17,2141.655C1923.464,2141.575 1927.758,2141.455 1932.054,2141.315L1931.858,2135.315C1927.588,2135.435 1923.32,2135.555 1919.05,2135.635L1919.17,2141.655ZM1956.224,2140.255C1960.514,2140.015 1964.802,2139.735 1969.09,2139.435L1968.672,2133.435C1964.412,2133.735 1960.148,2133.995 1955.884,2134.235L1956.224,2140.255ZM1993.204,2137.475C1997.484,2137.055 2001.76,2136.635 2006.04,2136.175L2005.38,2130.195C2001.14,2130.635 1996.892,2131.075 1992.64,2131.475L1993.204,2137.475ZM2030.06,2133.275C2034.32,2132.695 2038.58,2132.095 2042.82,2131.475L2041.94,2125.515C2037.72,2126.135 2033.48,2126.735 2029.26,2127.295L2030.06,2133.275ZM2066.72,2127.595C2070.94,2126.855 2075.18,2126.075 2079.4,2125.275L2078.28,2119.375C2074.08,2120.175 2069.88,2120.935 2065.66,2121.675L2066.72,2127.595ZM2103.1,2120.415C2107.32,2119.495 2111.5,2118.535 2115.68,2117.555L2114.3,2111.695C2110.16,2112.675 2105.98,2113.615 2101.82,2114.535L2103.1,2120.415ZM2139.16,2111.655C2143.32,2110.535 2147.46,2109.395 2151.6,2108.215L2149.96,2102.435C2145.86,2103.595 2141.74,2104.735 2137.62,2105.835L2139.16,2111.655ZM2174.78,2101.255C2178.88,2099.955 2182.98,2098.615 2187.04,2097.235L2185.12,2091.535C2181.08,2092.895 2177.04,2094.215 2172.96,2095.515L2174.78,2101.255ZM2209.88,2089.155C2213.9,2087.635 2217.92,2086.095 2221.92,2084.535L2219.72,2078.935C2215.76,2080.495 2211.78,2082.015 2207.78,2083.515L2209.88,2089.155ZM2244.32,2075.295C2248.26,2073.575 2252.2,2071.835 2256.12,2070.055L2253.62,2064.575C2249.74,2066.335 2245.84,2068.075 2241.92,2069.755L2244.32,2075.295ZM2277.98,2059.615C2281.84,2057.695 2285.66,2055.735 2289.48,2053.735L2286.68,2048.395C2282.9,2050.375 2279.1,2052.315 2275.3,2054.235L2277.98,2059.615ZM2310.72,2042.095C2314.46,2039.955 2318.18,2037.775 2321.86,2035.555L2318.76,2030.395C2315.1,2032.595 2311.44,2034.755 2307.74,2036.875L2310.72,2042.095ZM2342.4,2022.675C2346,2020.315 2349.58,2017.915 2353.12,2015.495L2349.72,2010.515C2346.2,2012.935 2342.66,2015.315 2339.1,2017.635L2342.4,2022.675ZM2372.84,2001.375C2376.28,1998.799 2379.7,1996.185 2383.1,1993.529L2379.38,1988.789C2376.02,1991.417 2372.64,1994.005 2369.24,1996.555L2372.84,2001.375ZM2401.88,1978.193C2405.14,1975.403 2408.4,1972.573 2411.6,1969.705L2407.6,1965.213C2404.42,1968.053 2401.2,1970.851 2397.98,1973.611L2401.88,1978.193ZM2429.36,1953.177C2430.9,1951.673 2432.44,1950.161 2433.96,1948.639L2429.72,1944.373C2428.2,1945.879 2426.68,1947.375 2425.16,1948.863L2429.36,1953.177ZM2433.96,1948.637C2435.42,1947.191 2436.86,1945.735 2438.3,1944.273L2434,1940.053C2432.58,1941.501 2431.16,1942.941 2429.72,1944.373L2433.96,1948.637ZM2454.2,1927.503C2456.96,1924.483 2459.7,1921.433 2462.42,1918.361L2457.92,1914.373C2455.22,1917.421 2452.5,1920.445 2449.76,1923.441L2454.2,1927.503ZM2477.48,1900.881C2480.1,1897.745 2482.72,1894.591 2485.32,1891.421L2480.66,1887.607C2478.08,1890.759 2475.48,1893.895 2472.86,1897.011L2477.48,1900.881ZM2499.76,1873.455C2502.28,1870.245 2504.82,1867.025 2507.32,1863.797L2502.58,1860.099C2500.06,1863.319 2497.56,1866.529 2495.02,1869.725L2499.76,1873.455ZM2521.36,1845.555C2523.84,1842.305 2526.32,1839.051 2528.8,1835.797L2524,1832.159C2521.52,1835.411 2519.06,1838.659 2516.58,1841.903L2521.36,1845.555ZM2542.68,1817.461C2545.14,1814.203 2547.6,1810.947 2550.06,1807.699L2545.28,1804.059C2542.8,1807.313 2540.34,1810.571 2537.88,1813.829L2542.68,1817.461ZM2564.02,1789.443C2566.5,1786.209 2569,1782.985 2571.5,1779.773L2566.76,1776.073C2564.24,1779.295 2561.74,1782.529 2559.24,1785.771L2564.02,1789.443ZM2585.74,1761.777C2588.3,1758.597 2590.88,1755.437 2593.46,1752.297L2588.8,1748.473C2586.2,1751.631 2583.62,1754.809 2581.06,1758.003L2585.74,1761.777ZM2608.22,1734.771C2610.88,1731.687 2613.56,1728.629 2616.26,1725.599L2611.78,1721.593C2609.06,1724.649 2606.34,1727.729 2603.66,1730.835L2608.22,1734.771ZM2631.78,1708.769C2634.6,1705.827 2637.44,1702.919 2640.3,1700.045L2636.04,1695.797C2633.14,1698.701 2630.28,1701.641 2627.44,1704.613L2631.78,1708.769ZM2656.78,1684.207C2659.76,1681.459 2662.78,1678.753 2665.84,1676.091L2661.88,1671.553C2658.8,1674.251 2655.72,1676.993 2652.7,1679.775L2656.78,1684.207ZM2683.44,1661.567C2686.64,1659.077 2689.88,1656.637 2693.16,1654.249L2689.6,1649.387C2686.28,1651.813 2683,1654.291 2679.76,1656.819L2683.44,1661.567ZM2711.98,1641.401C2715.4,1639.233 2718.84,1637.123 2722.34,1635.071L2719.3,1629.879C2715.74,1631.967 2712.22,1634.117 2708.76,1636.323L2711.98,1641.401ZM2742.38,1624.255C2744.2,1623.357 2746.02,1622.475 2747.86,1621.609L2745.28,1616.165C2743.42,1617.047 2741.56,1617.945 2739.7,1618.861L2742.38,1624.255ZM2747.86,1621.609C2749.82,1620.685 2751.78,1619.783 2753.76,1618.903L2751.32,1613.405C2749.3,1614.303 2747.3,1615.221 2745.3,1616.163L2747.86,1621.609ZM2776.36,1609.861C2780.44,1608.405 2784.54,1607.033 2788.66,1605.743L2786.86,1599.999C2782.68,1601.313 2778.5,1602.709 2774.34,1604.191L2776.36,1609.861ZM2812.16,1599.303C2816.38,1598.305 2820.6,1597.383 2824.84,1596.535L2823.68,1590.633C2819.36,1591.495 2815.06,1592.433 2810.78,1593.447L2812.16,1599.303ZM2848.9,1592.515C2853.2,1591.933 2857.5,1591.417 2861.82,1590.965L2861.18,1584.979C2856.82,1585.437 2852.44,1585.961 2848.1,1586.551L2848.9,1592.515ZM2886.16,1589.073C2890.48,1588.849 2894.82,1588.681 2899.18,1588.567L2899.02,1582.551C2894.62,1582.667 2890.22,1582.835 2885.84,1583.063L2886.16,1589.073ZM2923.62,1588.467C2927.96,1588.541 2932.3,1588.661 2936.66,1588.825L2936.88,1582.811C2932.48,1582.645 2928.1,1582.523 2923.72,1582.449L2923.62,1588.467ZM2961.1,1590.177C2965.42,1590.489 2969.76,1590.837 2974.1,1591.221L2974.62,1585.225C2970.26,1584.839 2965.88,1584.489 2961.52,1584.173L2961.1,1590.177ZM2998.48,1593.707C3002.8,1594.205 3007.12,1594.729 3011.44,1595.277L3012.2,1589.307C3007.86,1588.755 3003.5,1588.227 2999.16,1587.729L2998.48,1593.707ZM3035.74,1598.609C3040.04,1599.239 3044.36,1599.891 3048.66,1600.557L3049.58,1594.609C3045.26,1593.941 3040.94,1593.287 3036.6,1592.655L3035.74,1598.609ZM3072.9,1604.467C3077.2,1605.187 3081.5,1605.917 3085.8,1606.655L3086.82,1600.723C3082.5,1599.983 3078.2,1599.253 3073.88,1598.531L3072.9,1604.467ZM3110,1610.891C3114.3,1611.655 3118.6,1612.421 3122.88,1613.189L3123.94,1607.263C3119.66,1606.497 3115.36,1605.731 3111.04,1604.967L3110,1610.891ZM3147.08,1617.501C3149.24,1617.881 3151.38,1618.261 3153.54,1618.639L3154.58,1612.711C3152.44,1612.333 3150.28,1611.955 3148.14,1611.575L3147.08,1617.501ZM3153.54,1618.639C3155.68,1619.015 3157.82,1619.389 3159.98,1619.759L3161,1613.827C3158.86,1613.459 3156.72,1613.087 3154.58,1612.711L3153.54,1618.639ZM3184.28,1623.723C3188.58,1624.389 3192.92,1625.035 3197.26,1625.657L3198.1,1619.701C3193.8,1619.079 3189.48,1618.437 3185.2,1617.775L3184.28,1623.723ZM3221.66,1628.903C3226,1629.431 3230.36,1629.931 3234.7,1630.403L3235.36,1624.421C3231.02,1623.951 3226.7,1623.453 3222.4,1622.929L3221.66,1628.903ZM3259.24,1632.739C3263.6,1633.093 3267.96,1633.413 3272.34,1633.699L3272.72,1627.693C3268.4,1627.411 3264.06,1627.091 3259.72,1626.739L3259.24,1632.739ZM3296.96,1634.909C3301.36,1635.049 3305.74,1635.149 3310.1,1635.205L3310.18,1629.187C3305.84,1629.131 3301.5,1629.033 3297.16,1628.893L3296.96,1634.909ZM3334.78,1635.041C3339.18,1634.921 3343.56,1634.753 3347.94,1634.531L3347.64,1628.521C3343.32,1628.739 3338.98,1628.907 3334.62,1629.025L3334.78,1635.041ZM3372.58,1632.703C3376.96,1632.269 3381.32,1631.775 3385.66,1631.221L3384.9,1625.251C3380.62,1625.799 3376.3,1626.285 3371.98,1626.713L3372.58,1632.703ZM3410.1,1627.397C3414.42,1626.589 3418.74,1625.711 3423.02,1624.761L3421.72,1618.885C3417.5,1619.821 3413.26,1620.685 3409,1621.481L3410.1,1627.397ZM3447,1618.589C3451.22,1617.343 3455.42,1616.017 3459.58,1614.611L3457.66,1608.909C3453.58,1610.291 3449.44,1611.593 3445.3,1612.817L3447,1618.589ZM3482.74,1605.761C3486.8,1604.025 3490.8,1602.201 3494.78,1600.285L3492.16,1594.865C3488.26,1596.741 3484.34,1598.529 3480.38,1600.231L3482.74,1605.761ZM3516.62,1588.533C3520.4,1586.281 3524.14,1583.933 3527.82,1581.487L3524.5,1576.473C3520.9,1578.865 3517.24,1581.161 3513.54,1583.365L3516.62,1588.533ZM3547.84,1566.813C3549.56,1565.429 3551.28,1564.019 3552.96,1562.585L3549.06,1557.995C3547.42,1559.397 3545.74,1560.775 3544.08,1562.129L3547.84,1566.813ZM3552.96,1562.583C3554.54,1561.253 3556.08,1559.905 3557.6,1558.541L3553.6,1554.051C3552.1,1555.381 3550.6,1556.697 3549.06,1557.995L3552.96,1562.583ZM3574.08,1542.429C3576.88,1539.427 3579.58,1536.367 3582.22,1533.247L3577.62,1529.361C3575.06,1532.407 3572.4,1535.395 3569.68,1538.325L3574.08,1542.429ZM3596.3,1515.011C3598.66,1511.663 3600.94,1508.261 3603.12,1504.811L3598.06,1501.579C3595.9,1504.951 3593.68,1508.275 3591.38,1511.549L3596.3,1515.011ZM3614.66,1484.887C3616.56,1481.269 3618.38,1477.607 3620.12,1473.905L3614.68,1471.341C3612.96,1474.967 3611.18,1478.549 3609.32,1482.091L3614.66,1484.887ZM3629.1,1452.723C3630.54,1448.909 3631.92,1445.059 3633.2,1441.179L3627.5,1439.273C3626.22,1443.077 3624.88,1446.851 3623.46,1450.591L3629.1,1452.723ZM3639.7,1419.123C3640.7,1415.175 3641.64,1411.201 3642.52,1407.205L3636.64,1405.927C3635.78,1409.851 3634.86,1413.753 3633.86,1417.631L3639.7,1419.123ZM3646.64,1384.607C3647.22,1380.577 3647.76,1376.531 3648.22,1372.471L3642.24,1371.795C3641.78,1375.785 3641.26,1379.763 3640.68,1383.725L3646.64,1384.607ZM3650.08,1349.585C3650.28,1345.517 3650.42,1341.441 3650.5,1337.359L3644.48,1337.251C3644.4,1341.269 3644.28,1345.281 3644.08,1349.283L3650.08,1349.585ZM3650.22,1314.405C3650.04,1310.333 3649.82,1306.263 3649.52,1302.195L3643.52,1302.635C3643.8,1306.641 3644.04,1310.649 3644.2,1314.657L3650.22,1314.405ZM3647.18,1279.367C3646.64,1275.327 3646.04,1271.293 3645.38,1267.269L3639.44,1268.241C3640.1,1272.203 3640.68,1276.175 3641.2,1280.155L3647.18,1279.367ZM3641.04,1244.737C3640.14,1240.757 3639.2,1236.793 3638.18,1232.845L3632.36,1234.337C3633.36,1238.223 3634.28,1242.129 3635.16,1246.049L3641.04,1244.737ZM3631.86,1210.787C3630.62,1206.899 3629.32,1203.033 3627.96,1199.195L3622.28,1201.205C3623.62,1204.983 3624.9,1208.789 3626.12,1212.617L3631.86,1210.787ZM3619.64,1177.795C3618.84,1175.919 3618.02,1174.049 3617.2,1172.189L3611.7,1174.631C3612.52,1176.461 3613.3,1178.299 3614.1,1180.147L3619.64,1177.795ZM3617.2,1172.189C3616.36,1170.319 3615.52,1168.455 3614.68,1166.599L3609.2,1169.113C3610.04,1170.945 3610.88,1172.785 3611.7,1174.631L3617.2,1172.189ZM3604.56,1145.943C3602.68,1142.315 3600.74,1138.715 3598.76,1135.143L3593.5,1138.053C3595.44,1141.583 3597.36,1145.137 3599.22,1148.719L3604.56,1145.943ZM3587.18,1115.279C3585.04,1111.799 3582.88,1108.345 3580.66,1104.917L3575.6,1108.185C3577.8,1111.575 3579.94,1114.989 3582.06,1118.429L3587.18,1115.279ZM3567.76,1085.891C3565.4,1082.561 3563,1079.259 3560.58,1075.981L3555.74,1079.567C3558.14,1082.811 3560.52,1086.079 3562.84,1089.371L3567.76,1085.891ZM3546.52,1057.803C3543.96,1054.625 3541.38,1051.473 3538.76,1048.343L3534.14,1052.205C3536.74,1055.305 3539.3,1058.429 3541.84,1061.575L3546.52,1057.803ZM3523.7,1030.999C3520.98,1027.969 3518.22,1024.961 3515.44,1021.975L3511.04,1026.077C3513.8,1029.037 3516.54,1032.019 3519.22,1035.021L3523.7,1030.999ZM3499.54,1005.433C3496.68,1002.541 3493.78,999.671 3490.86,996.823L3486.66,1001.129C3489.56,1003.955 3492.42,1006.803 3495.26,1009.671L3499.54,1005.433ZM3474.22,981.029C3471.22,978.267 3468.22,975.525 3465.18,972.803L3461.16,977.283C3464.18,979.987 3467.16,982.709 3470.14,985.451L3474.22,981.029ZM3447.92,957.703C3444.82,955.059 3441.7,952.435 3438.58,949.829L3434.72,954.455C3437.84,957.045 3440.94,959.653 3444.02,962.281L3447.92,957.703ZM3420.8,935.359C3417.62,932.825 3414.42,930.307 3411.2,927.805L3407.5,932.553C3410.7,935.041 3413.88,937.547 3417.06,940.069L3420.8,935.359ZM3393,913.899C3389.74,911.459 3386.46,909.037 3383.18,906.629L3379.62,911.479C3382.88,913.877 3386.14,916.289 3389.38,918.717L3393,913.899ZM3364.62,893.221C3361.3,890.865 3357.96,888.523 3354.64,886.197L3351.18,891.131C3354.5,893.449 3357.82,895.781 3361.12,898.129L3364.62,893.221ZM3335.76,873.219C3334.08,872.077 3332.4,870.939 3330.72,869.805L3327.36,874.799C3329.04,875.929 3330.72,877.063 3332.38,878.199L3335.76,873.219ZM3330.72,869.805C3329.02,868.671 3327.34,867.537 3325.66,866.407L3322.3,871.409C3323.98,872.537 3325.68,873.667 3327.36,874.799L3330.72,869.805ZM3306.56,853.767C3303.18,851.537 3299.76,849.315 3296.36,847.099L3293.08,852.143C3296.48,854.355 3299.88,856.575 3303.26,858.799L3306.56,853.767ZM3277.14,834.681C3273.72,832.485 3270.3,830.293 3266.88,828.105L3263.64,833.177C3267.06,835.363 3270.48,837.551 3273.9,839.745L3277.14,834.681ZM3247.6,815.815C3244.18,813.637 3240.74,811.459 3237.32,809.283L3234.1,814.363C3237.52,816.541 3240.94,818.717 3244.38,820.895L3247.6,815.815ZM3218.02,797.025C3214.6,794.847 3211.18,792.667 3207.76,790.483L3204.52,795.559C3207.94,797.743 3211.36,799.923 3214.8,802.103L3218.02,797.025ZM3188.52,778.163C3185.1,775.967 3181.68,773.767 3178.28,771.563L3175.02,776.615C3178.42,778.823 3181.84,781.025 3185.26,783.225L3188.52,778.163ZM3159.16,759.083C3155.76,756.853 3152.38,754.617 3149,752.373L3145.68,757.387C3149.06,759.635 3152.46,761.877 3155.84,764.111L3159.16,759.083ZM3130.06,739.643C3126.7,737.363 3123.36,735.075 3120.02,732.775L3116.6,737.731C3119.96,740.037 3123.3,742.333 3126.68,744.621L3130.06,739.643ZM3101.32,719.699C3098.02,717.353 3094.72,714.995 3091.44,712.623L3087.92,717.503C3091.2,719.885 3094.52,722.253 3097.84,724.607L3101.32,719.699ZM3073.06,699.115C3069.82,696.687 3066.58,694.245 3063.36,691.785L3059.72,696.567C3062.94,699.039 3066.2,701.493 3069.44,703.933L3073.06,699.115ZM3045.4,677.759C3042.22,675.235 3039.08,672.693 3035.94,670.133L3032.14,674.795C3035.28,677.371 3038.46,679.927 3041.64,682.465L3045.4,677.759ZM3018.46,655.513C3015.38,652.879 3012.34,650.227 3009.3,647.551L3005.32,652.067C3008.38,654.761 3011.44,657.433 3014.54,660.083L3018.46,655.513ZM2992.4,632.269C2990.92,630.893 2989.44,629.509 2987.98,628.119L2983.84,632.497C2985.32,633.897 2986.82,635.289 2988.3,636.677L2992.4,632.269ZM2987.98,628.119C2986.5,626.737 2985.04,625.345 2983.6,623.947L2979.42,628.285C2980.88,629.697 2982.36,631.101 2983.84,632.497L2987.98,628.119ZM2967.46,607.917C2964.64,605.025 2961.86,602.103 2959.1,599.155L2954.7,603.271C2957.5,606.247 2960.3,609.195 2963.14,612.113L2967.46,607.917ZM2943.84,582.305C2941.18,579.267 2938.54,576.203 2935.94,573.111L2931.34,576.987C2933.96,580.107 2936.62,583.199 2939.3,586.267L2943.84,582.305ZM2921.62,555.459C2919.14,552.277 2916.7,549.071 2914.26,545.841L2909.46,549.451C2911.9,552.713 2914.38,555.951 2916.88,559.163L2921.62,555.459ZM2901,527.403C2898.7,524.081 2896.44,520.737 2894.22,517.371L2889.2,520.687C2891.44,524.089 2893.72,527.467 2896.04,530.823L2901,527.403ZM2882.1,498.161C2880,494.703 2877.96,491.225 2875.96,487.725L2870.74,490.713C2872.76,494.251 2874.84,497.769 2876.94,501.267L2882.1,498.161ZM2865.14,467.771C2863.28,464.183 2861.48,460.575 2859.74,456.949L2854.32,459.567C2856.1,463.239 2857.92,466.891 2859.78,470.523L2865.14,467.771ZM2850.36,436.291C2848.78,432.577 2847.24,428.849 2845.78,425.103L2840.18,427.309C2841.66,431.105 2843.22,434.883 2844.82,438.645L2850.36,436.291ZM2838.02,403.791C2836.74,399.967 2835.5,396.131 2834.34,392.279L2828.58,394.021C2829.76,397.929 2831,401.823 2832.3,405.701L2838.02,403.791ZM2828.4,370.409C2827.46,366.495 2826.56,362.567 2825.74,358.629L2819.86,359.857C2820.68,363.859 2821.58,367.847 2822.54,371.821L2828.4,370.409ZM2821.8,336.325C2821.22,332.345 2820.7,328.355 2820.26,324.355L2814.28,325.021C2814.74,329.087 2815.26,333.145 2815.84,337.191L2821.8,336.325ZM2818.48,301.785C2818.3,297.773 2818.18,293.755 2818.14,289.729L2812.12,289.793C2812.16,293.891 2812.28,297.981 2812.48,302.061L2818.48,301.785ZM2818.66,267.107C2818.78,265.099 2818.92,263.091 2819.06,261.081L2813.06,260.629C2812.9,262.677 2812.78,264.721 2812.66,266.765L2818.66,267.107ZM2819.06,261.081C2819.22,259.099 2819.38,257.119 2819.58,255.139L2813.6,254.549C2813.4,256.573 2813.22,258.601 2813.06,260.629L2819.06,261.081ZM2822.72,232.963C2823.46,229.051 2824.26,225.153 2825.16,221.271L2819.3,219.917C2818.38,223.885 2817.56,227.869 2816.82,231.867L2822.72,232.963ZM2831.06,199.646C2832.26,195.851 2833.54,192.078 2834.9,188.329L2829.24,186.282C2827.86,190.107 2826.56,193.959 2825.32,197.833L2831.06,199.646ZM2843.32,167.542C2844.96,163.909 2846.66,160.306 2848.44,156.738L2843.06,154.055C2841.24,157.693 2839.5,161.368 2837.84,165.074L2843.32,167.542ZM2859.18,137.038C2861.22,133.609 2863.32,130.221 2865.48,126.877L2860.42,123.606C2858.22,127.016 2856.08,130.47 2854,133.967L2859.18,137.038ZM2878.36,108.504C2880.76,105.323 2883.24,102.193 2885.76,99.117L2881.1,95.297C2878.54,98.434 2876.02,101.626 2873.56,104.87L2878.36,108.504ZM2900.64,82.335C2903.4,79.452 2906.2,76.631 2909.08,73.874L2904.9,69.537C2901.98,72.352 2899.1,75.232 2896.28,78.174L2900.64,82.335ZM2925.82,58.989C2928.92,56.461 2932.06,54.006 2935.24,51.628L2931.62,46.808C2928.38,49.239 2925.16,51.749 2922.02,54.332L2925.82,58.989ZM2953.72,38.998C2957.12,36.896 2960.54,34.88 2964,32.952L2961.08,27.691C2957.54,29.667 2954.02,31.732 2950.56,33.884L2953.72,38.998ZM2984.04,23.012C2987.68,21.417 2991.36,19.919 2995.08,18.522L2992.96,12.889C2989.14,14.324 2985.38,15.862 2981.64,17.499L2984.04,23.012ZM3016.36,11.735C3020.2,10.728 3024.06,9.83 3027.96,9.045L3026.76,3.145C3022.76,3.954 3018.78,4.878 3014.84,5.913L3016.36,11.735ZM3050.04,5.837C3053.98,5.488 3057.92,5.255 3061.9,5.143L3061.74,-0.873C3057.64,-0.757 3053.56,-0.518 3049.5,-0.157L3050.04,5.837ZM3084.18,5.78C3086.16,5.949 3088.14,6.149 3090.12,6.38L3090.82,0.402C3088.78,0.164 3086.74,-0.042 3084.7,-0.216L3084.18,5.78Z" transform="rotate(360 1825.774 1136.243)" fill="#2437AC"/>
</svg>
