<svg width="4166" height="2128" viewBox="0 0 4166 2128" fill="none" xmlns="http://www.w3.org/2000/svg" xmlns:xlink="http://www.w3.org/1999/xlink">
<g opacity="0.4">
<g style="mix-blend-mode:multiply">
<path d="M3565.169,1466.854L3610.55,1549.923L3657.387,1635.641L3756.813,1471.016L3565.169,1466.854Z" transform="rotate(-138.579 3660.991 1551.247)" fill="url(#pf_0_7_4049)" style="mix-blend-mode:multiply"/>
</g>
<g style="mix-blend-mode:multiply">
<path d="M2913.86,1508.656L2868.46,1425.574L2821.629,1339.869L2722.216,1504.494L2913.86,1508.656Z" transform="rotate(-138.579 2818.038 1424.263)" fill="url(#pf_0_7_4050)" style="mix-blend-mode:multiply"/>
</g>
<g opacity="0.5">
<path d="M3762.291,1579.429L3762.596,1578.477L3760.773,1577.893L3761.335,1579.722L3762.291,1579.429ZM3863.688,1909.969L3862.732,1910.263L3863.26,1911.985L3864.443,1910.627L3863.688,1909.969ZM4066.459,1676.884L4067.213,1677.54L4068.209,1676.395L4066.765,1675.931L4066.459,1676.884ZM3761.335,1579.722L3862.732,1910.263L3864.644,1909.677L3763.247,1579.136L3761.335,1579.722ZM3864.443,1910.627L4067.213,1677.54L4065.705,1676.227L3862.934,1909.313L3864.443,1910.627ZM4066.765,1675.931L3762.596,1578.477L3761.986,1580.381L4066.153,1677.836L4066.765,1675.931Z" transform="rotate(-138.579 3914.375 1744.699)" fill="#FFFFFF"/>
</g>
<g opacity="0.5">
<path d="M3286.987,1693.248L3287.065,1692.251L3285.41,1692.121L3286.069,1693.645L3286.987,1693.248ZM3473.259,2124.006L3472.341,2124.402L3473.379,2126.802L3474.208,2124.322L3473.259,2124.006ZM3608.737,1718.594L3609.685,1718.911L3610.091,1717.697L3608.815,1717.597L3608.737,1718.594ZM3286.069,1693.645L3472.341,2124.402L3474.177,2123.61L3287.905,1692.851L3286.069,1693.645ZM3474.208,2124.322L3609.685,1718.911L3607.789,1718.277L3472.311,2123.69L3474.208,2124.322ZM3608.815,1717.597L3287.065,1692.251L3286.908,1694.245L3608.659,1719.591L3608.815,1717.597Z" transform="rotate(-138.579 3447.862 1908.627)" fill="#FFFFFF"/>
</g>
<g opacity="0.5">
<path d="M3490.79,1505.877L3491.101,1504.926L3488.889,1504.203L3489.887,1506.306L3490.79,1505.877ZM3587.603,1709.827L3586.7,1710.257L3587.146,1711.197L3588.068,1710.713L3587.603,1709.827ZM3789.684,1603.611L3790.148,1604.496L3792.242,1603.395L3789.994,1602.66L3789.684,1603.611ZM3489.887,1506.306L3586.7,1710.257L3588.506,1709.399L3491.694,1505.448L3489.887,1506.306ZM3588.068,1710.713L3790.148,1604.496L3789.218,1602.726L3587.138,1708.943L3588.068,1710.713ZM3789.994,1602.66L3491.101,1504.926L3490.48,1506.827L3789.372,1604.561L3789.994,1602.66Z" transform="rotate(-138.579 3640.237 1607.852)" fill="#FFFFFF"/>
</g>
<g opacity="0.5">
<path d="M3400.43,1216.686L3400.95,1215.832L3398.904,1214.587L3399.457,1216.917L3400.43,1216.686ZM3446.767,1411.846L3445.794,1412.077L3446.076,1413.267L3447.187,1412.753L3446.767,1411.846ZM3602.622,1339.716L3603.042,1340.624L3604.744,1339.837L3603.142,1338.862L3602.622,1339.716ZM3399.457,1216.917L3445.794,1412.077L3447.74,1411.615L3401.403,1216.455L3399.457,1216.917ZM3447.187,1412.753L3603.042,1340.624L3602.202,1338.809L3446.347,1410.938L3447.187,1412.753ZM3603.142,1338.862L3400.95,1215.832L3399.911,1217.54L3602.102,1340.571L3603.142,1338.862Z" transform="rotate(-138.579 3501.527 1314.266)" fill="#FFFFFF"/>
</g>
<g opacity="0.5">
<path d="M669.93,1381.491L670.45,1380.636L668.404,1379.392L668.957,1381.722L669.93,1381.491ZM716.267,1576.651L715.294,1576.882L715.576,1578.072L716.687,1577.558L716.267,1576.651ZM872.122,1504.521L872.542,1505.429L874.244,1504.641L872.642,1503.667L872.122,1504.521ZM668.957,1381.722L715.294,1576.882L717.24,1576.42L670.903,1381.26L668.957,1381.722ZM716.687,1577.558L872.542,1505.429L871.702,1503.614L715.847,1575.743L716.687,1577.558ZM872.642,1503.667L670.45,1380.636L669.411,1382.345L871.602,1505.376L872.642,1503.667Z" transform="rotate(-138.579 771.027 1479.071)" fill="#FFFFFF"/>
</g>
<g opacity="0.5">
<path d="M3612.48,1301.727L3611.579,1301.292L3610.718,1303.077L3612.665,1302.709L3612.48,1301.727ZM3654.044,1215.575L3655.042,1215.522L3654.834,1211.635L3653.143,1215.141L3654.044,1215.575ZM3658.193,1293.101L3658.378,1294.084L3659.238,1293.922L3659.191,1293.048L3658.193,1293.101ZM3613.38,1302.161L3654.945,1216.01L3653.143,1215.141L3611.579,1301.292L3613.38,1302.161ZM3653.045,1215.629L3657.194,1293.155L3659.191,1293.048L3655.042,1215.522L3653.045,1215.629ZM3658.007,1292.119L3612.294,1300.744L3612.665,1302.709L3658.378,1294.084L3658.007,1292.119Z" transform="rotate(-138.579 3635.336 1258.651)" fill="#FFFFFF"/>
</g>
<g opacity="0.5">
<path d="M3914.405,176.091L3913.445,175.809L3913.176,176.728L3914.082,177.037L3914.405,176.091ZM3933.497,110.94L3934.394,110.498L3933.259,108.195L3932.537,110.659L3933.497,110.94ZM3975.942,197.092L3975.619,198.038L3977.908,198.819L3976.839,196.65L3975.942,197.092ZM3915.365,176.372L3934.456,111.221L3932.537,110.659L3913.445,175.809L3915.365,176.372ZM3932.599,111.382L3975.045,197.534L3976.839,196.65L3934.394,110.498L3932.599,111.382ZM3976.265,196.145L3914.728,175.144L3914.082,177.037L3975.619,198.038L3976.265,196.145Z" transform="rotate(-138.579 3945.173 154.016)" fill="#FFFFFF"/>
</g>
<g opacity="0.5">
<path d="M3725.785,1526.078L3724.905,1525.602L3724.413,1526.512L3725.339,1526.973L3725.785,1526.078ZM3794.354,1560.23L3793.908,1561.125L3796.351,1562.341L3795.273,1559.835L3794.354,1560.23ZM3755.79,1470.562L3756.709,1470.166L3755.893,1468.269L3754.911,1470.086L3755.79,1470.562ZM3725.339,1526.973L3793.908,1561.125L3794.8,1559.334L3726.23,1525.182L3725.339,1526.973ZM3795.273,1559.835L3756.709,1470.166L3754.872,1470.957L3793.436,1560.625L3795.273,1559.835ZM3754.911,1470.086L3724.905,1525.602L3726.664,1526.553L3756.67,1471.037L3754.911,1470.086Z" transform="rotate(-138.579 3760.069 1515.396)" fill="#FFFFFF"/>
</g>
<g opacity="0.5">
<path d="M527.777,1358.609L526.897,1358.133L526.405,1359.043L527.331,1359.504L527.777,1358.609ZM596.346,1392.761L595.9,1393.656L598.343,1394.872L597.265,1392.366L596.346,1392.761ZM557.782,1303.093L558.701,1302.698L557.885,1300.8L556.903,1302.617L557.782,1303.093ZM527.331,1359.504L595.9,1393.656L596.792,1391.866L528.223,1357.714L527.331,1359.504ZM597.265,1392.366L558.701,1302.698L556.864,1303.488L595.428,1393.156L597.265,1392.366ZM556.903,1302.617L526.897,1358.133L528.656,1359.084L558.662,1303.568L556.903,1302.617Z" transform="rotate(-138.579 562.062 1347.927)" fill="#FFFFFF"/>
</g>
<g opacity="0.5">
<path d="M3606.052,1337.718L3605.539,1336.859L3603.268,1338.215L3605.868,1338.701L3606.052,1337.718ZM3897.912,1163.554L3898.854,1163.888L3899.784,1161.273L3897.4,1162.695L3897.912,1163.554ZM3821.78,1378.054L3821.596,1379.036L3822.438,1379.194L3822.722,1378.388L3821.78,1378.054ZM3606.564,1338.577L3898.424,1164.412L3897.4,1162.695L3605.539,1336.859L3606.564,1338.577ZM3896.97,1163.219L3820.838,1377.72L3822.722,1378.388L3898.854,1163.888L3896.97,1163.219ZM3821.964,1377.07L3606.235,1336.735L3605.868,1338.701L3821.596,1379.036L3821.964,1377.07Z" transform="rotate(-138.579 3751.982 1270.804)" fill="#FFFFFF"/>
</g>
<g opacity="0.5">
<path d="M3813.644,1405.358L3813.076,1404.534L3811.498,1405.622L3813.293,1406.294L3813.644,1405.358ZM3974.198,1294.714L3975.083,1294.248L3974.558,1293.251L3973.631,1293.891L3974.198,1294.714ZM4086.164,1507.456L4085.814,1508.392L4088.272,1509.314L4087.05,1506.99L4086.164,1507.456ZM3814.211,1406.181L3974.765,1295.537L3973.631,1293.891L3813.076,1404.534L3814.211,1406.181ZM3973.313,1295.18L4085.28,1507.922L4087.05,1506.99L3975.083,1294.248L3973.313,1295.18ZM4086.516,1506.52L3813.995,1404.421L3813.293,1406.294L4085.814,1508.392L4086.516,1506.52Z" transform="rotate(-138.579 3949.904 1401.085)" fill="#FFFFFF"/>
</g>
<g opacity="0.5">
<path d="M3842.468,881.218L3841.875,880.413L3841.173,880.929L3841.589,881.695L3842.468,881.218ZM3918.242,1020.873L3917.363,1021.349L3918.516,1023.475L3919.201,1021.155L3918.242,1020.873ZM3991.914,771.209L3992.873,771.492L3993.714,768.642L3991.321,770.404L3991.914,771.209ZM3841.589,881.695L3917.363,1021.349L3919.121,1020.395L3843.346,880.741L3841.589,881.695ZM3919.201,1021.155L3992.873,771.492L3990.955,770.926L3917.282,1020.589L3919.201,1021.155ZM3991.321,770.404L3841.875,880.413L3843.06,882.024L3992.507,772.014L3991.321,770.404Z" transform="rotate(-138.579 3917.191 896.041)" fill="#FFFFFF"/>
</g>
<g opacity="0.5">
<path d="M328.468,1741.218L327.875,1740.413L327.173,1740.929L327.589,1741.695L328.468,1741.218ZM404.242,1880.873L403.363,1881.349L404.516,1883.475L405.201,1881.155L404.242,1880.873ZM477.914,1631.209L478.873,1631.492L479.714,1628.642L477.321,1630.404L477.914,1631.209ZM327.589,1741.695L403.363,1881.349L405.121,1880.395L329.346,1740.741L327.589,1741.695ZM405.201,1881.155L478.873,1631.492L476.955,1630.926L403.282,1880.589L405.201,1881.155ZM477.321,1630.404L327.875,1740.413L329.06,1742.024L478.507,1632.014L477.321,1630.404Z" transform="rotate(-138.579 403.191 1756.041)" fill="#FFFFFF"/>
</g>
<g opacity="0.5">
<path d="M3916.61,1208.587L3915.656,1208.285L3915.323,1209.341L3916.406,1209.566L3916.61,1208.587ZM3931.464,1161.596L3932.252,1160.981L3931.083,1159.484L3930.511,1161.295L3931.464,1161.596ZM3978.146,1221.375L3977.943,1222.354L3980.613,1222.909L3978.935,1220.759L3978.146,1221.375ZM3917.563,1208.888L3932.418,1161.898L3930.511,1161.295L3915.656,1208.285L3917.563,1208.888ZM3930.676,1162.212L3977.358,1221.99L3978.935,1220.759L3932.252,1160.981L3930.676,1162.212ZM3978.35,1220.396L3916.813,1207.608L3916.406,1209.566L3977.943,1222.354L3978.35,1220.396Z" transform="rotate(-138.579 3947.378 1191.485)" fill="#FFFFFF"/>
</g>
<g opacity="0.5">
<path d="M3588.146,174.705L3588.074,173.707L3586.274,173.837L3587.339,175.295L3588.146,174.705ZM3659.502,272.366L3658.695,272.955L3659.325,273.818L3660.144,273.132L3659.502,272.366ZM3793.854,159.841L3794.496,160.608L3796.87,158.621L3793.782,158.844L3793.854,159.841ZM3587.339,175.295L3658.695,272.955L3660.309,271.776L3588.954,174.115L3587.339,175.295ZM3660.144,273.132L3794.496,160.608L3793.212,159.074L3658.86,271.599L3660.144,273.132ZM3793.782,158.844L3588.074,173.707L3588.218,175.702L3793.926,160.838L3793.782,158.844Z" transform="rotate(-138.579 3691.001 216.103)" fill="#FFFFFF"/>
</g>
<g opacity="0.5">
<path d="M3439.416,1701.406L3439.027,1700.485L3438.324,1700.782L3438.425,1701.538L3439.416,1701.406ZM3445.613,1748.094L3444.621,1748.226L3445.069,1751.598L3446.518,1748.52L3445.613,1748.094ZM3474.58,1686.558L3475.485,1686.984L3476.597,1684.62L3474.191,1685.636L3474.58,1686.558ZM3438.425,1701.538L3444.621,1748.226L3446.604,1747.963L3440.407,1701.275L3438.425,1701.538ZM3446.518,1748.52L3475.485,1686.984L3473.675,1686.132L3444.708,1747.669L3446.518,1748.52ZM3474.191,1685.636L3439.027,1700.485L3439.805,1702.327L3474.969,1687.479L3474.191,1685.636Z" transform="rotate(-138.579 3456.998 1717.326)" fill="#FFFFFF"/>
</g>
<g opacity="0.5">
<path d="M3416.604,1590.989L3415.626,1590.783L3414.79,1594.746L3417.374,1591.627L3416.604,1590.989ZM3441.406,1473.388L3441.335,1472.391L3440.583,1472.444L3440.427,1473.182L3441.406,1473.388ZM3518.58,1467.916L3519.35,1468.554L3520.842,1466.753L3518.509,1466.918L3518.58,1467.916ZM3417.583,1591.196L3442.384,1473.595L3440.427,1473.182L3415.626,1590.783L3417.583,1591.196ZM3441.476,1474.386L3518.65,1468.913L3518.509,1466.918L3441.335,1472.391L3441.476,1474.386ZM3517.81,1467.278L3415.834,1590.351L3417.374,1591.627L3519.35,1468.554L3517.81,1467.278Z" transform="rotate(-138.579 3467.592 1529.452)" fill="#FFFFFF"/>
</g>
<g opacity="0.5">
<path d="M192.604,1116.989L191.626,1116.783L190.79,1120.746L193.374,1117.627L192.604,1116.989ZM217.406,999.388L217.335,998.391L216.583,998.444L216.427,999.182L217.406,999.388ZM294.58,993.916L295.35,994.554L296.842,992.753L294.509,992.918L294.58,993.916ZM193.583,1117.196L218.384,999.595L216.427,999.182L191.626,1116.783L193.583,1117.196ZM217.476,1000.386L294.65,994.913L294.509,992.918L217.335,998.391L217.476,1000.386ZM293.81,993.278L191.834,1116.351L193.374,1117.627L295.35,994.554L293.81,993.278Z" transform="rotate(-138.579 243.592 1055.452)" fill="#FFFFFF"/>
</g>
<g opacity="0.5">
<path d="M2800.092,1645.318L2799.094,1645.254L2798.972,1647.174L2800.614,1646.172L2800.092,1645.318ZM2817.04,1378.072L2817.786,1377.406L2816.193,1375.621L2816.042,1378.008L2817.04,1378.072ZM2965.363,1544.306L2965.884,1545.16L2966.907,1544.535L2966.109,1543.641L2965.363,1544.306ZM2801.09,1645.382L2818.038,1378.135L2816.042,1378.008L2799.094,1645.254L2801.09,1645.382ZM2816.294,1378.738L2964.616,1544.972L2966.109,1543.641L2817.786,1377.406L2816.294,1378.738ZM2964.841,1543.453L2799.571,1644.464L2800.614,1646.172L2965.884,1545.16L2964.841,1543.453Z" transform="rotate(-138.579 2882.727 1511.695)" fill="#FFFFFF"/>
</g>
<g opacity="0.5">
<path d="M3033.28,1336.918L3033.706,1336.013L3031.819,1335.125L3032.308,1337.153L3033.28,1336.918ZM3360.304,1490.745L3360.794,1491.617L3362.488,1490.666L3360.73,1489.84L3360.304,1490.745ZM3105.019,1634.054L3104.047,1634.288L3104.357,1635.572L3105.509,1634.926L3105.019,1634.054ZM3032.855,1337.823L3359.878,1491.65L3360.73,1489.84L3033.706,1336.013L3032.855,1337.823ZM3359.814,1489.873L3104.53,1633.182L3105.509,1634.926L3360.794,1491.617L3359.814,1489.873ZM3105.991,1633.818L3034.253,1336.683L3032.308,1337.153L3104.047,1634.288L3105.991,1633.818Z" transform="rotate(-138.579 3196.793 1485.485)" fill="#FFFFFF"/>
</g>
<g opacity="0.5">
<path d="M3712.888,460.79L3712.69,459.81L3710.988,460.154L3712.14,461.453L3712.888,460.79ZM3995.772,779.939L3995.024,780.603L3996.362,782.111L3996.752,780.133L3995.772,779.939ZM4073.318,387.861L4074.3,388.055L4074.59,386.584L4073.12,386.881L4073.318,387.861ZM3712.14,461.453L3995.024,780.603L3996.52,779.275L3713.637,460.127L3712.14,461.453ZM3996.752,780.133L4074.3,388.055L4072.338,387.667L3994.79,779.745L3996.752,780.133ZM4073.12,386.881L3712.69,459.81L3713.086,461.77L4073.516,388.841L4073.12,386.881Z" transform="rotate(-138.579 3893.103 583.9)" fill="#FFFFFF"/>
</g>
<g opacity="0.5">
<path d="M3582.889,496.316L3582.01,495.839L3581.418,496.93L3582.609,497.276L3582.889,496.316ZM3691.897,528.028L3691.617,528.988L3693.224,529.456L3692.875,527.819L3691.897,528.028ZM3656.267,360.999L3657.245,360.791L3656.679,358.141L3655.387,360.523L3656.267,360.999ZM3582.609,497.276L3691.617,528.988L3692.176,527.068L3583.168,495.356L3582.609,497.276ZM3692.875,527.819L3657.245,360.791L3655.289,361.208L3690.919,528.237L3692.875,527.819ZM3655.387,360.523L3582.01,495.839L3583.768,496.793L3657.146,361.476L3655.387,360.523Z" transform="rotate(-138.579 3637.393 444.514)" fill="#FFFFFF"/>
</g>
<g opacity="0.5">
<path d="M2607.84,1933.185L2606.847,1933.071L2606.599,1935.247L2608.405,1934.009L2607.84,1933.185ZM2652.345,1542.865L2653.108,1542.219L2651.613,1540.453L2651.351,1542.751L2652.345,1542.865ZM2845.196,1770.723L2845.762,1771.547L2846.676,1770.923L2845.96,1770.077L2845.196,1770.723ZM2608.834,1933.297L2653.338,1542.978L2651.351,1542.751L2606.847,1933.071L2608.834,1933.297ZM2651.582,1543.511L2844.434,1771.369L2845.96,1770.077L2653.108,1542.219L2651.582,1543.511ZM2844.632,1769.897L2607.276,1932.359L2608.405,1934.009L2845.762,1771.547L2844.632,1769.897Z" transform="rotate(-138.579 2726.519 1738.024)" fill="#FFFFFF"/>
</g>
<g opacity="0.5">
<path d="M2412.534,1859.139L2411.977,1859.971L2413.387,1860.915L2413.53,1859.225L2412.534,1859.139ZM2304.698,1786.85L2303.935,1786.204L2303.211,1787.058L2304.141,1787.681L2304.698,1786.85ZM2431.288,1637.607L2432.284,1637.692L2432.548,1634.576L2430.525,1636.961L2431.288,1637.607ZM2413.091,1858.309L2305.254,1786.02L2304.141,1787.681L2411.977,1859.971L2413.091,1858.309ZM2305.46,1787.497L2432.05,1638.254L2430.525,1636.961L2303.935,1786.204L2305.46,1787.497ZM2430.291,1637.523L2411.537,1859.055L2413.53,1859.225L2432.284,1637.692L2430.291,1637.523Z" transform="rotate(-138.579 2367.993 1748.374)" fill="#FFFFFF"/>
</g>
<g opacity="0.5">
<path d="M205.702,225.534L205.146,226.366L206.556,227.31L206.699,225.62L205.702,225.534ZM97.866,153.245L97.104,152.599L96.379,153.453L97.309,154.076L97.866,153.245ZM224.456,4.002L225.453,4.087L225.717,0.971L223.694,3.356L224.456,4.002ZM206.259,224.704L98.423,152.415L97.309,154.076L205.146,226.366L206.259,224.704ZM98.629,153.892L225.219,4.649L223.694,3.356L97.104,152.599L98.629,153.892ZM223.46,3.918L204.706,225.45L206.699,225.62L225.453,4.087L223.46,3.918Z" transform="rotate(-111.277 161.161 114.769)" fill="#FFFFFF"/>
</g>
<g opacity="0.5">
<path d="M3025.075,1403.833L3025.634,1403.004L3024.826,1402.46L3024.26,1403.253L3025.075,1403.833ZM2987.484,1456.579L2986.67,1455.999L2985.382,1457.806L2987.589,1457.574L2987.484,1456.579ZM3087.701,1446.025L3087.806,1447.019L3090.54,1446.731L3088.26,1445.196L3087.701,1446.025ZM3024.26,1403.253L2986.67,1455.999L2988.298,1457.159L3025.889,1404.414L3024.26,1403.253ZM2987.589,1457.574L3087.806,1447.019L3087.596,1445.03L2987.379,1455.585L2987.589,1457.574ZM3088.26,1445.196L3025.634,1403.004L3024.516,1404.663L3087.142,1446.854L3088.26,1445.196Z" transform="rotate(-138.579 3037.593 1430.206)" fill="#FFFFFF"/>
</g>
<path d="M3637.011,1896.597L3636.037,1896.371L3635.851,1897.171L3636.599,1897.509L3637.011,1896.597ZM3651.778,1833.028L3652.727,1832.713L3651.608,1829.341L3650.804,1832.802L3651.778,1833.028ZM3679.207,1915.663L3678.796,1916.575L3680.875,1917.514L3680.156,1915.348L3679.207,1915.663ZM3637.985,1896.824L3652.752,1833.254L3650.804,1832.802L3636.037,1896.371L3637.985,1896.824ZM3650.829,1833.343L3678.258,1915.978L3680.156,1915.348L3652.727,1832.713L3650.829,1833.343ZM3679.619,1914.752L3637.422,1895.686L3636.599,1897.509L3678.796,1916.575L3679.619,1914.752Z" transform="rotate(-138.579 3658.109 1874.346)" fill="#D8D8D8"/>
<g opacity="0.5">
<path d="M3540.614,736.579L3539.755,736.067L3539.269,736.882L3540.058,737.41L3540.614,736.579ZM3575.005,759.589L3574.449,760.42L3575.918,761.403L3576.004,759.638L3575.005,759.589ZM3579.294,671.679L3580.293,671.728L3580.489,667.722L3578.435,671.167L3579.294,671.679ZM3540.058,737.41L3574.449,760.42L3575.561,758.758L3541.17,735.748L3540.058,737.41ZM3576.004,759.638L3580.293,671.728L3578.295,671.63L3574.006,759.54L3576.004,759.638ZM3578.435,671.167L3539.755,736.067L3541.473,737.091L3580.153,672.191L3578.435,671.167Z" transform="rotate(-138.579 3559.954 715.634)" fill="#FFFFFF"/>
</g>
<g opacity="0.5">
<path d="M3278.641,986.793L3277.65,986.657L3277.544,987.425L3278.261,987.719L3278.641,986.793ZM3500.173,1077.709L3499.795,1078.633L3502.455,1079.725L3501.045,1077.219L3500.173,1077.709ZM3312.395,743.651L3313.267,743.161L3311.813,740.574L3311.405,743.513L3312.395,743.651ZM3278.261,987.719L3499.795,1078.633L3500.553,1076.783L3279.021,985.869L3278.261,987.719ZM3501.045,1077.219L3313.267,743.161L3311.523,744.141L3499.301,1078.199L3501.045,1077.219ZM3311.405,743.513L3277.65,986.657L3279.631,986.931L3313.386,743.789L3311.405,743.513Z" transform="rotate(-138.579 3389.407 910.68)" fill="#FFFFFF"/>
</g>
<g opacity="0.5">
<path d="M62.641,788.793L61.65,788.657L61.544,789.425L62.261,789.719L62.641,788.793ZM284.173,879.709L283.795,880.633L286.455,881.725L285.045,879.219L284.173,879.709ZM96.395,545.651L97.267,545.161L95.813,542.574L95.405,545.513L96.395,545.651ZM62.261,789.719L283.795,880.633L284.553,878.783L63.021,787.869L62.261,789.719ZM285.045,879.219L97.267,545.161L95.523,546.141L283.301,880.199L285.045,879.219ZM95.405,545.513L61.65,788.657L63.631,788.931L97.386,545.789L95.405,545.513Z" transform="rotate(-138.579 173.407 712.68)" fill="#FFFFFF"/>
</g>
<g opacity="0.5">
<path d="M3359.914,1261.855L3358.952,1261.584L3358.512,1263.143L3360.103,1262.837L3359.914,1261.855ZM3437.275,1246.971L3437.464,1247.953L3438.95,1247.667L3438.104,1246.412L3437.275,1246.971ZM3385.684,1170.429L3386.513,1169.87L3385.307,1168.08L3384.721,1170.157L3385.684,1170.429ZM3360.103,1262.837L3437.464,1247.953L3437.086,1245.989L3359.725,1260.873L3360.103,1262.837ZM3438.104,1246.412L3386.513,1169.87L3384.855,1170.988L3436.446,1247.53L3438.104,1246.412ZM3384.721,1170.157L3358.952,1261.584L3360.877,1262.126L3386.646,1170.7L3384.721,1170.157Z" transform="rotate(-138.579 3398.595 1216.142)" fill="#FFFFFF"/>
</g>
<g opacity="0.2">
<path d="M3762.291,1661.429L3863.663,1991.969L4066.459,1758.909L3762.291,1661.429Z" transform="rotate(-138.579 3914.375 1826.699)" fill="#FFFFFF"/>
</g>
<g opacity="0.3">
<path d="M3546.222,1552.695L3643.604,1756.645L3846.874,1650.416L3546.222,1552.695Z" transform="rotate(-138.579 3696.548 1654.671)" fill="#00B8FF"/>
</g>
<path d="M3658.839,1372.285L3702.002,1287.891L3706.31,1363.835L3658.839,1372.285Z" transform="rotate(-138.579 3682.575 1330.088)" fill="#FFFFFF"/>
<path d="M3868.405,204.085L3887.497,138.94L3929.942,225.092L3868.405,204.085Z" transform="rotate(-138.579 3899.173 182.016)" fill="#FFFFFF"/>
<path d="M244.405,1820.085L263.497,1754.94L305.942,1841.092L244.405,1820.085Z" transform="rotate(-138.579 275.173 1798.016)" fill="#FFFFFF"/>
<path d="M3774.72,1597.796L3841.531,1631.974L3803.931,1542.306L3774.72,1597.796Z" transform="rotate(-138.579 3808.126 1587.14)" fill="#00B8FF"/>
<g opacity="0.2">
<path d="M3654.173,1408.583L3944.275,1235.866L3868.595,1448.608L3654.173,1408.583Z" transform="rotate(-138.579 3799.224 1342.237)" fill="#FFFFFF"/>
</g>
<path d="M3874.468,927.229L3950.242,1066.873L4023.914,817.209L3874.468,927.229Z" transform="rotate(-138.579 3949.191 942.041)" fill="#00B8FF"/>
<g opacity="0.2">
<path d="M3663.578,889.527L3735.544,987.192L3871.046,874.667L3663.578,889.527Z" transform="rotate(-138.579 3767.312 930.929)" fill="#FFFFFF"/>
</g>
<path d="M3331.172,1594.171L3355.552,1476.57L3431.39,1471.097L3331.172,1594.171Z" transform="rotate(-138.579 3381.281 1532.634)" fill="#00B8FF"/>
<path d="M255.282,1227.288L279.662,1109.687L355.499,1104.214L255.282,1227.288Z" transform="rotate(-213.582 305.391 1165.751)" fill="#00B8FF"/>
<g opacity="0.2">
<path d="M2864.145,1735.351L2880.912,1468.105L3027.657,1634.355L2864.145,1735.351Z" transform="rotate(-138.579 2945.901 1601.728)" fill="#FFFFFF"/>
</g>
<g opacity="0.1">
<path d="M3804.888,466.815L4087.746,785.939L4165.318,393.861L3804.888,466.815Z" transform="rotate(-138.579 3985.103 589.9)" fill="#FFFFFF"/>
</g>
<path d="M3620.32,517.142L3731.087,548.854L3694.882,381.826L3620.32,517.142Z" transform="rotate(-138.579 3675.704 465.34)" fill="#00B8FF"/>
<g opacity="0.1">
<path d="M3128.74,1752.891L3172.915,1362.571L3364.338,1590.443L3128.74,1752.891Z" transform="rotate(78.255 3246.539 1557.731)" fill="#FFFFFF"/>
</g>
<path d="M3607.011,1838.598L3621.787,1775.028L3649.207,1857.663L3607.011,1838.598Z" transform="rotate(-138.579 3628.109 1816.346)" fill="#FFFFFF"/>
<g opacity="0.2">
<path d="M3408.857,1333.599L3484.46,1318.715L3434.067,1242.173L3408.857,1333.599Z" transform="rotate(-138.579 3446.659 1287.886)" fill="#FFFFFF"/>
</g>
<g opacity="0.5">
<path d="M2.888,1384.79L2.69,1383.81L0.988,1384.154L2.14,1385.453L2.888,1384.79ZM285.772,1703.939L285.024,1704.603L286.362,1706.111L286.752,1704.133L285.772,1703.939ZM363.318,1311.861L364.3,1312.055L364.59,1310.584L363.12,1310.881L363.318,1311.861ZM2.14,1385.453L285.024,1704.603L286.52,1703.275L3.637,1384.127L2.14,1385.453ZM286.752,1704.133L364.3,1312.055L362.338,1311.667L284.79,1703.745L286.752,1704.133ZM363.12,1310.881L2.69,1383.81L3.086,1385.77L363.516,1312.841L363.12,1310.881Z" transform="rotate(-138.579 183.103 1507.9)" fill="#FFFFFF"/>
</g>
</g>
<defs>
<linearGradient id="pf_0_7_4049" x1="3300.171" y1="1404.513" x2="3932.506" y2="1666.992" gradientUnits="userSpaceOnUse">
<stop offset="0.18" stop-color="#747378" stop-opacity="0.7"/>
<stop offset="0.27" stop-color="#8E8D91" stop-opacity="0.57"/>
<stop offset="0.46" stop-color="#BFBEC1" stop-opacity="0.32"/>
<stop offset="0.65" stop-color="#E2E2E3" stop-opacity="0.14"/>
<stop offset="0.83" stop-color="#F7F7F8" stop-opacity="0.04"/>
<stop offset="1" stop-color="#FFFFFF" stop-opacity="0"/>
</linearGradient>
<linearGradient id="pf_0_7_4050" x1="3178.774" y1="1571.004" x2="2546.534" y2="1308.565" gradientUnits="userSpaceOnUse">
<stop offset="0.18" stop-color="#747378" stop-opacity="0.7"/>
<stop offset="0.27" stop-color="#8E8D91" stop-opacity="0.57"/>
<stop offset="0.46" stop-color="#BFBEC1" stop-opacity="0.32"/>
<stop offset="0.65" stop-color="#E2E2E3" stop-opacity="0.14"/>
<stop offset="0.83" stop-color="#F7F7F8" stop-opacity="0.04"/>
<stop offset="1" stop-color="#FFFFFF" stop-opacity="0"/>
</linearGradient>
</defs>
</svg>
