<svg width="1052" height="1076" viewBox="0 0 1052 1076" fill="none" xmlns="http://www.w3.org/2000/svg" xmlns:xlink="http://www.w3.org/1999/xlink">
<g opacity="0.4">
<path d="M828.499,211.377L830.389,212.494C830.697,211.973 830.775,211.349 830.609,210.768C830.441,210.188 830.041,209.702 829.505,209.425L828.499,211.377ZM691.271,984.208L690.265,986.162C691.055,986.566 692.011,986.458 692.689,985.884C693.367,985.31 693.631,984.386 693.361,983.54L691.271,984.208ZM574.123,923.962L572.225,922.86C571.923,923.38 571.847,924.002 572.017,924.578C572.185,925.156 572.585,925.64 573.119,925.914L574.123,923.962ZM367.378,822.246L366.372,824.198C366.921,824.48 367.564,824.518 368.142,824.304C368.721,824.088 369.183,823.64 369.414,823.068L367.378,822.246ZM256.925,765.346L256.472,763.198C255.563,763.388 254.873,764.132 254.749,765.052C254.625,765.974 255.094,766.872 255.92,767.298L256.925,765.346ZM798.475,195.914L799.481,193.961C798.949,193.687 798.329,193.642 797.763,193.837C797.197,194.031 796.735,194.448 796.483,194.991L798.475,195.914ZM828.499,211.377C826.609,210.26 826.607,210.262 826.605,210.266C826.603,210.269 826.599,210.275 826.595,210.281C826.587,210.295 826.575,210.315 826.561,210.341C826.529,210.394 826.483,210.472 826.423,210.576C826.301,210.783 826.123,211.091 825.887,211.498C825.415,212.313 824.719,213.525 823.815,215.12C822.011,218.308 819.381,223.025 816.075,229.151C809.463,241.401 800.149,259.285 789.323,281.841C767.675,326.948 739.977,390.751 715.785,465.54C667.423,615.05 632.959,808.792 689.179,984.876L693.361,983.54C637.557,808.756 671.705,616.08 719.965,466.892C744.083,392.333 771.697,328.716 793.283,283.741C804.075,261.255 813.357,243.432 819.939,231.236C823.231,225.138 825.847,220.447 827.637,217.283C828.533,215.701 829.223,214.501 829.687,213.698C829.919,213.296 830.097,212.994 830.213,212.792C830.273,212.692 830.317,212.616 830.347,212.567C830.361,212.542 830.371,212.523 830.379,212.511C830.383,212.505 830.385,212.501 830.387,212.497C830.389,212.495 830.389,212.494 828.499,211.377ZM692.275,982.256L575.129,922.008L573.119,925.914L690.265,986.162L692.275,982.256ZM574.123,923.962C576.023,925.064 576.023,925.062 576.025,925.06C576.025,925.06 576.027,925.058 576.027,925.056C576.031,925.052 576.033,925.046 576.037,925.038C576.045,925.024 576.057,925.004 576.071,924.98C576.099,924.93 576.141,924.858 576.193,924.764C576.297,924.576 576.445,924.302 576.635,923.948C577.011,923.236 577.543,922.196 578.179,920.858C579.447,918.182 581.129,914.31 582.797,909.492C586.129,899.864 589.425,886.4 589.235,871.114C589.045,855.808 585.357,838.678 574.725,821.79C564.095,804.904 546.605,788.384 518.999,774.17L516.989,778.076C544.023,791.994 560.869,808.02 571.009,824.128C581.147,840.234 584.661,856.548 584.843,871.168C585.025,885.808 581.865,898.756 578.647,908.056C577.039,912.702 575.421,916.424 574.211,918.976C573.605,920.252 573.103,921.234 572.753,921.892C572.579,922.22 572.443,922.468 572.353,922.63C572.309,922.712 572.275,922.772 572.253,922.81C572.241,922.83 572.233,922.844 572.229,922.852C572.227,922.856 572.225,922.858 572.225,922.86C572.225,922.86 572.225,922.86 572.225,922.86C572.225,922.86 572.225,922.86 574.123,923.962ZM518.999,774.17C491.383,759.952 467.895,755.676 448.166,757.406C428.434,759.136 412.632,766.856 400.362,776.348C388.108,785.828 379.367,797.084 373.695,805.942C370.855,810.378 368.776,814.226 367.403,816.974C366.716,818.348 366.205,819.45 365.864,820.212C365.694,820.594 365.565,820.89 365.478,821.094C365.435,821.198 365.402,821.276 365.379,821.332C365.368,821.358 365.359,821.38 365.353,821.396C365.35,821.404 365.347,821.41 365.345,821.414C365.344,821.416 365.343,821.418 365.343,821.42C365.342,821.422 365.341,821.424 367.378,822.246C369.414,823.068 369.413,823.068 369.413,823.068C369.414,823.068 369.414,823.068 369.414,823.068C369.415,823.066 369.416,823.062 369.418,823.058C369.422,823.048 369.428,823.032 369.437,823.012C369.455,822.968 369.483,822.902 369.521,822.812C369.597,822.632 369.714,822.36 369.873,822.006C370.19,821.296 370.675,820.252 371.332,818.938C372.646,816.306 374.65,812.596 377.393,808.31C382.886,799.73 391.309,788.904 403.049,779.822C414.774,770.752 429.796,763.424 448.549,761.78C467.305,760.136 489.965,764.162 516.989,778.076L518.999,774.17ZM368.383,820.294L257.931,763.394L255.92,767.298L366.372,824.198L368.383,820.294ZM256.925,765.346C257.379,767.494 257.382,767.494 257.385,767.492C257.388,767.492 257.393,767.49 257.399,767.49C257.41,767.488 257.426,767.484 257.447,767.48C257.488,767.47 257.548,767.458 257.627,767.44C257.784,767.404 258.014,767.352 258.317,767.282C258.923,767.14 259.819,766.922 260.991,766.618C263.337,766.01 266.793,765.056 271.265,763.664C280.211,760.88 293.224,756.344 309.556,749.326C342.223,735.286 388.166,711.314 441.406,671.552C547.897,592.018 683.511,449.368 800.469,196.836L796.483,194.991C679.817,446.894 544.655,588.958 438.778,668.032C385.833,707.574 340.193,731.378 307.822,745.29C291.637,752.246 278.767,756.73 269.96,759.47C265.557,760.842 262.169,761.776 259.89,762.366C258.75,762.662 257.888,762.872 257.314,763.006C257.027,763.074 256.813,763.122 256.672,763.154C256.602,763.168 256.55,763.18 256.516,763.188C256.499,763.192 256.487,763.194 256.48,763.196C256.476,763.196 256.474,763.196 256.472,763.196C256.472,763.198 256.472,763.198 256.925,765.346ZM797.471,197.866L827.493,213.329L829.505,209.425L799.481,193.961L797.471,197.866Z" transform="rotate(-82.986 542.712 590.061)" fill="#FFFFFF"/>
<path d="M580.277,419.196L580.277,417C579.064,417 578.081,417.983 578.081,419.196L580.277,419.196ZM596.543,419.196L598.739,419.196C598.739,417.983 597.756,417 596.543,417L596.543,419.196ZM596.543,567.972L596.543,570.167C597.756,570.167 598.739,569.184 598.739,567.972L596.543,567.972ZM580.277,567.972L578.081,567.972C578.081,569.184 579.064,570.167 580.277,570.167L580.277,567.972ZM580.277,421.392L596.543,421.392L596.543,417L580.277,417L580.277,421.392ZM594.348,419.196L594.348,567.972L598.739,567.972L598.739,419.196L594.348,419.196ZM596.543,565.776L580.277,565.776L580.277,570.167L596.543,570.167L596.543,565.776ZM582.473,567.972L582.473,419.196L578.081,419.196L578.081,567.972L582.473,567.972Z" transform="rotate(-208.506 588.41 493.584)" fill="#FFFFFF"/>
<path d="M610.928,526.719L610.928,524.523C609.715,524.523 608.732,525.506 608.732,526.719L610.928,526.719ZM650.122,526.719L652.318,526.719C652.318,525.506 651.334,524.523 650.122,524.523L650.122,526.719ZM650.122,788.625L650.122,790.821C651.334,790.821 652.318,789.837 652.318,788.625L650.122,788.625ZM610.928,788.625L608.732,788.625C608.732,789.837 609.715,790.821 610.928,790.821L610.928,788.625ZM610.928,528.914L650.122,528.914L650.122,524.523L610.928,524.523L610.928,528.914ZM647.926,526.719L647.926,788.625L652.318,788.625L652.318,526.719L647.926,526.719ZM650.122,786.429L610.928,786.429L610.928,790.821L650.122,790.821L650.122,786.429ZM613.124,788.625L613.124,526.719L608.732,526.719L608.732,788.625L613.124,788.625Z" transform="rotate(-208.506 630.525 657.671)" fill="#FFFFFF"/>
<path d="M623.846,542.273L624.852,540.321C623.956,539.859 622.861,540.067 622.196,540.825L623.846,542.273ZM556.002,619.59L554.352,618.141C553.906,618.65 553.719,619.335 553.845,619.999C553.971,620.664 554.396,621.233 554.997,621.542L556.002,619.59ZM638.808,662.197L637.803,664.15C638.409,664.461 639.125,664.474 639.741,664.185C640.358,663.895 640.805,663.336 640.952,662.671L638.808,662.197ZM661.065,561.451L663.21,561.925C663.425,560.952 662.957,559.956 662.071,559.5L661.065,561.451ZM622.196,540.825L554.352,618.141L557.653,621.038L625.497,543.721L622.196,540.825ZM554.997,621.542L637.803,664.15L639.812,660.245L557.007,617.637L554.997,621.542ZM640.952,662.671L663.21,561.925L658.921,560.978L636.664,661.724L640.952,662.671ZM662.071,559.5L624.852,540.321L622.841,544.225L660.06,563.403L662.071,559.5Z" transform="rotate(-82.986 608.534 602.235)" fill="#FFFFFF"/>
<path d="M456.836,110.673L457.84,108.72L457.84,108.72L456.836,110.673ZM444.92,104.547L442.968,103.542C442.701,104.06 442.651,104.663 442.829,105.218C443.007,105.773 443.398,106.234 443.916,106.5L444.92,104.547ZM464.3,66.927L465.305,64.975C464.788,64.708 464.185,64.658 463.63,64.835C463.076,65.013 462.614,65.404 462.348,65.921L464.3,66.927ZM522.906,97.117L524.859,98.122C525.414,97.044 524.99,95.72 523.912,95.165L522.906,97.117ZM503.561,134.704L502.556,136.657C503.634,137.212 504.958,136.787 505.513,135.709L503.561,134.704ZM457.84,108.72L445.924,102.595L443.916,106.5L455.832,112.625L457.84,108.72ZM446.872,105.553L466.252,67.932L462.348,65.921L442.968,103.542L446.872,105.553ZM463.294,68.879L521.901,99.069L523.912,95.165L465.305,64.975L463.294,68.879ZM520.954,96.112L501.608,133.699L505.513,135.709L524.859,98.122L520.954,96.112ZM504.565,132.752L457.84,108.72L455.831,112.625L502.556,136.657L504.565,132.752Z" transform="rotate(-82.986 483.913 100.816)" fill="#FFFFFF"/>
<path d="M493.931,8.68L496.054,9.243C496.315,8.257 495.863,7.22 494.962,6.741C494.061,6.262 492.949,6.467 492.278,7.235L493.931,8.68ZM438.337,72.307L436.683,70.862C436.239,71.371 436.053,72.056 436.18,72.719C436.307,73.382 436.732,73.95 437.332,74.26L438.337,72.307ZM472.41,89.846L471.405,91.798C471.996,92.102 472.694,92.122 473.301,91.852C473.909,91.582 474.362,91.051 474.532,90.408L472.41,89.846ZM492.278,7.235L436.683,70.862L439.991,73.752L495.585,10.125L492.278,7.235ZM437.332,74.26L471.405,91.798L473.415,87.893L439.342,70.355L437.332,74.26ZM474.532,90.408L496.054,9.243L491.809,8.117L470.287,89.283L474.532,90.408Z" transform="rotate(-82.986 466.134 49.263)" fill="#FFFFFF"/>
<path d="M681.437,594.914C682.515,595.469 683.839,595.045 684.394,593.967C684.949,592.889 684.525,591.565 683.447,591.01L681.437,594.914ZM603.787,552.463L604.792,550.511L604.792,550.51L603.787,552.463ZM563.857,531.912L564.861,529.96C564.046,529.54 563.057,529.671 562.379,530.288C561.701,530.905 561.477,531.878 561.818,532.729L563.857,531.912ZM582.031,577.264L581.709,579.436C582.487,579.552 583.267,579.242 583.754,578.625C584.242,578.008 584.362,577.177 584.069,576.448L582.031,577.264ZM527.14,569.131L527.461,566.959C526.775,566.857 526.081,567.086 525.589,567.576C525.098,568.066 524.867,568.76 524.967,569.446L527.14,569.131ZM535.942,629.779L534.937,631.731C535.668,632.108 536.548,632.045 537.217,631.567C537.887,631.09 538.233,630.278 538.115,629.464L535.942,629.779ZM487.678,604.911L487.429,602.729C486.469,602.839 485.692,603.564 485.518,604.515C485.344,605.467 485.812,606.42 486.672,606.863L487.678,604.911ZM565.564,596.041L565.812,598.223C566.495,598.145 567.103,597.752 567.453,597.16C567.804,596.568 567.856,595.846 567.596,595.209L565.564,596.041ZM546.653,549.852L546.753,547.659C546.004,547.624 545.29,547.974 544.858,548.587C544.426,549.2 544.337,549.99 544.621,550.684L546.653,549.852ZM603.686,554.656C604.898,554.712 605.925,553.774 605.98,552.563C606.036,551.352 605.098,550.325 603.887,550.269L603.686,554.656ZM683.447,591.01L604.792,550.511L602.782,554.415L681.437,594.914L683.447,591.01ZM604.792,550.51L564.861,529.96L562.852,533.864L602.782,554.415L604.792,550.51ZM561.818,532.729L579.993,578.081L584.069,576.448L565.895,531.095L561.818,532.729ZM582.353,575.092L527.461,566.959L526.818,571.303L581.709,579.436L582.353,575.092ZM524.967,569.446L533.769,630.095L538.115,629.464L529.313,568.816L524.967,569.446ZM536.948,627.827L488.684,602.959L486.672,606.863L534.937,631.731L536.948,627.827ZM487.926,607.093L565.812,598.223L565.315,593.86L487.429,602.729L487.926,607.093ZM567.596,595.209L548.685,549.02L544.621,550.684L563.531,596.873L567.596,595.209ZM546.553,552.046L603.686,554.656L603.887,550.269L546.753,547.659L546.553,552.046Z" transform="rotate(-82.986 585.06 580.846)" fill="#FFFFFF"/>
<path d="M653.94,535.781L654.946,533.83L654.944,533.829L653.94,535.781ZM689.284,580.765L689.788,582.903C690.517,582.731 691.109,582.199 691.357,581.491C691.604,580.783 691.474,579.998 691.011,579.409L689.284,580.765ZM640.685,592.212L640.182,590.075C639.512,590.233 638.955,590.695 638.677,591.324C638.399,591.953 638.432,592.676 638.765,593.278L640.685,592.212ZM678.741,660.793L677.736,662.745C678.596,663.188 679.644,663.016 680.318,662.321C680.991,661.627 681.13,660.574 680.661,659.728L678.741,660.793ZM630.443,635.925L629.438,633.972C628.707,634.349 628.248,635.102 628.248,635.924C628.247,636.747 628.707,637.5 629.438,637.877L630.443,635.925ZM684.933,607.876L685.938,609.829C686.555,609.511 686.986,608.92 687.099,608.235C687.213,607.551 686.996,606.852 686.514,606.353L684.933,607.876ZM646.409,567.913L645.89,565.779C645.126,565.965 644.519,566.545 644.3,567.301C644.081,568.056 644.282,568.871 644.828,569.437L646.409,567.913ZM693.87,556.366L694.389,558.499C695.279,558.283 695.942,557.536 696.05,556.626C696.159,555.715 695.69,554.834 694.876,554.414L693.87,556.366ZM575.284,495.316L575.6,493.143C574.538,492.988 573.52,493.624 573.193,494.646C572.866,495.668 573.325,496.777 574.28,497.268L575.284,495.316ZM702.457,516.031C703.657,516.206 704.771,515.374 704.946,514.174C705.12,512.974 704.289,511.86 703.089,511.685L702.457,516.031ZM652.213,537.138L687.558,582.122L691.011,579.409L655.666,534.425L652.213,537.138ZM688.781,578.628L640.182,590.075L641.189,594.35L689.788,582.903L688.781,578.628ZM638.765,593.278L676.821,661.859L680.661,659.728L642.605,591.147L638.765,593.278ZM679.746,658.841L631.449,633.972L629.438,637.877L677.736,662.745L679.746,658.841ZM631.448,637.877L685.938,609.829L683.928,605.924L629.438,633.972L631.448,637.877ZM686.514,606.353L647.99,566.389L644.828,569.437L683.352,609.4L686.514,606.353ZM646.928,570.046L694.389,558.499L693.351,554.232L645.89,565.779L646.928,570.046ZM694.876,554.414L654.946,533.83L652.933,537.733L692.864,558.317L694.876,554.414ZM654.944,533.829L576.289,493.363L574.28,497.268L652.935,537.734L654.944,533.829ZM574.968,497.489L702.457,516.031L703.089,511.685L575.6,493.143L574.968,497.489Z" transform="rotate(-82.986 639.028 578.054)" fill="#FFFFFF"/>
<path d="M564.317,388.892C565.396,389.447 566.72,389.023 567.275,387.945C567.829,386.866 567.405,385.542 566.327,384.987L564.317,388.892ZM511.803,359.394L511.762,357.198C510.757,357.217 509.892,357.917 509.664,358.897C509.436,359.876 509.904,360.886 510.798,361.346L511.803,359.394ZM575.263,358.222L575.303,360.418C576.166,360.402 576.94,359.882 577.28,359.089C577.621,358.296 577.465,357.377 576.883,356.74L575.263,358.222ZM538.914,318.493L538.682,316.31C537.858,316.397 537.154,316.941 536.86,317.716C536.567,318.49 536.735,319.364 537.294,319.975L538.914,318.493ZM592.632,314.987C593.838,314.858 594.711,313.777 594.583,312.571C594.455,311.365 593.373,310.491 592.167,310.62L592.632,314.987ZM566.327,384.987L512.808,357.441L510.798,361.346L564.317,388.892L566.327,384.987ZM511.843,361.589L575.303,360.418L575.222,356.027L511.762,357.198L511.843,361.589ZM576.883,356.74L540.534,317.011L537.294,319.975L573.643,359.705L576.883,356.74ZM539.146,320.677L592.632,314.987L592.167,310.62L538.682,316.31L539.146,320.677Z" transform="rotate(-82.986 552.101 349.872)" fill="#FFFFFF"/>
<path d="M498.267,290.574C497.189,290.019 495.865,290.442 495.309,291.521C494.754,292.599 495.178,293.923 496.256,294.478L498.267,290.574ZM535.083,312.006L534.078,313.958C534.95,314.407 536.016,314.223 536.686,313.506C537.357,312.789 537.47,311.714 536.964,310.873L535.083,312.006ZM510.75,271.607L510.752,269.411C509.96,269.411 509.229,269.837 508.839,270.526C508.449,271.215 508.46,272.061 508.869,272.74L510.75,271.607ZM551.718,271.641L551.716,273.836C552.506,273.837 553.236,273.413 553.626,272.726C554.017,272.039 554.009,271.196 553.604,270.517L551.718,271.641ZM532.15,234.503C531.529,233.461 530.181,233.119 529.139,233.74C528.098,234.361 527.756,235.708 528.377,236.75L532.15,234.503ZM496.256,294.478L534.078,313.958L536.088,310.054L498.267,290.574L496.256,294.478ZM536.964,310.873L512.631,270.474L508.869,272.74L533.202,313.139L536.964,310.873ZM510.748,273.803L551.716,273.836L551.72,269.445L510.752,269.411L510.748,273.803ZM553.604,270.517L532.15,234.503L528.377,236.75L549.831,272.764L553.604,270.517Z" transform="rotate(-82.986 524.49 273.816)" fill="#FFFFFF"/>
<path d="M526.567,639.209C525.488,638.654 524.164,639.078 523.609,640.156C523.054,641.235 523.479,642.559 524.557,643.114L526.567,639.209ZM761.026,764.812C762.104,765.367 763.428,764.943 763.982,763.864C764.538,762.786 764.114,761.462 763.036,760.907L761.026,764.812ZM524.557,643.114L761.026,764.812L763.036,760.907L526.567,639.209L524.557,643.114Z" transform="rotate(-82.986 643.796 702.01)" fill="#FFFFFF"/>
<path d="M576.886,369.754C576.134,368.803 574.753,368.642 573.802,369.395C572.851,370.148 572.69,371.529 573.443,372.48L576.886,369.754ZM619.513,427.146L619.327,429.334C620.2,429.408 621.033,428.957 621.447,428.185C621.862,427.414 621.778,426.47 621.235,425.783L619.513,427.146ZM539.485,420.352L539.671,418.164C538.626,418.075 537.665,418.737 537.375,419.745C537.085,420.753 537.548,421.825 538.481,422.304L539.485,420.352ZM611.38,457.336L611.249,459.528C612.285,459.59 613.223,458.918 613.497,457.917C613.772,456.915 613.307,455.859 612.384,455.384L611.38,457.336ZM517.094,451.713L517.224,449.522C516.253,449.464 515.36,450.052 515.029,450.967C514.698,451.882 515.009,452.906 515.792,453.482L517.094,451.713ZM591.77,509.378C592.747,510.096 594.121,509.887 594.84,508.91C595.559,507.933 595.349,506.559 594.373,505.84L591.77,509.378ZM573.443,372.48L617.791,428.509L621.235,425.783L576.886,369.754L573.443,372.48ZM619.699,424.958L539.671,418.164L539.3,422.54L619.327,429.334L619.699,424.958ZM538.481,422.304L610.375,459.289L612.384,455.384L540.49,418.399L538.481,422.304ZM611.51,455.145L517.224,449.522L516.963,453.905L611.249,459.528L611.51,455.145ZM515.792,453.482L591.77,509.378L594.373,505.84L518.395,449.945L515.792,453.482Z" transform="rotate(-82.986 568.303 439.363)" fill="#FFFFFF"/>
<path d="M519.614,243.426C520.693,243.98 522.016,243.555 522.571,242.476C523.125,241.397 522.7,240.074 521.621,239.519L519.614,243.426ZM490.193,225.842L489.865,223.671C488.923,223.813 488.18,224.546 488.026,225.487C487.872,226.427 488.342,227.36 489.189,227.795L490.193,225.842ZM529.454,219.918L529.781,222.089C530.56,221.971 531.216,221.446 531.501,220.711C531.786,219.977 531.655,219.146 531.159,218.534L529.454,219.918ZM507.731,193.141L507.58,190.951C506.762,191.007 506.044,191.514 505.718,192.266C505.391,193.017 505.51,193.888 506.026,194.525L507.731,193.141ZM544.667,192.788C545.877,192.705 546.79,191.656 546.706,190.446C546.622,189.236 545.574,188.323 544.364,188.407L544.667,192.788ZM521.621,239.519L491.196,223.889L489.189,227.795L519.614,243.426L521.621,239.519ZM490.52,228.013L529.781,222.089L529.126,217.746L489.865,223.671L490.52,228.013ZM531.159,218.534L509.437,191.758L506.026,194.525L527.748,221.301L531.159,218.534ZM507.883,195.332L544.667,192.788L544.364,188.407L507.58,190.951L507.883,195.332Z" transform="rotate(-82.986 517.354 216.035)" fill="#FFFFFF"/>
<path d="M517.785,664.811C516.707,664.256 515.383,664.68 514.828,665.758C514.273,666.836 514.697,668.16 515.775,668.715L517.785,664.811ZM788.492,809.09C789.57,809.645 790.894,809.221 791.448,808.143C792.004,807.064 791.58,805.74 790.502,805.185L788.492,809.09ZM515.775,668.715L788.492,809.09L790.502,805.185L517.785,664.811L515.775,668.715Z" transform="rotate(-82.986 653.138 736.95)" fill="#FFFFFF"/>
<path d="M427.821,848.84C426.609,848.859 425.641,849.857 425.66,851.07C425.678,852.282 426.676,853.25 427.889,853.231L427.821,848.84ZM602.303,848.358L602.336,850.554C603.341,850.538 604.207,849.843 604.439,848.865C604.671,847.888 604.21,846.877 603.32,846.412L602.303,848.358ZM527.731,809.399L528.748,807.453C528.03,807.078 527.164,807.128 526.495,807.584C525.826,808.04 525.461,808.827 525.547,809.632L527.731,809.399ZM536.057,908.068C536.186,909.274 537.268,910.147 538.474,910.019C539.679,909.89 540.553,908.808 540.424,907.602L536.057,908.068ZM427.889,853.231L602.336,850.554L602.269,846.163L427.821,848.84L427.889,853.231ZM603.32,846.412L528.748,807.453L526.714,811.345L601.286,850.305L603.32,846.412ZM525.547,809.632L536.057,908.068L540.424,907.602L529.914,809.166L525.547,809.632Z" transform="rotate(-82.986 515.079 858.617)" fill="#FFFFFF"/>
<path d="M880.225,845.166C880.96,846.13 882.338,846.316 883.302,845.581C884.267,844.846 884.453,843.469 883.718,842.504L880.225,845.166ZM771.954,699.444L772.949,697.486C772.036,697.022 770.924,697.251 770.268,698.038C769.612,698.824 769.587,699.96 770.208,700.774L771.954,699.444ZM859.547,743.959L860.392,745.986C861.182,745.656 861.709,744.897 861.741,744.042C861.773,743.186 861.305,742.39 860.541,742.002L859.547,743.959ZM763.913,781.461C762.794,781.928 762.265,783.214 762.732,784.333C763.198,785.452 764.484,785.981 765.603,785.514L763.913,781.461ZM883.718,842.504L773.701,698.113L770.208,700.774L880.225,845.166L883.718,842.504ZM770.96,701.401L858.552,745.917L860.541,742.002L772.949,697.486L770.96,701.401ZM858.701,741.933L763.913,781.461L765.603,785.514L860.392,745.986L858.701,741.933Z" transform="rotate(-82.986 823.365 771.639)" fill="#FFFFFF"/>
<path d="M499.644,117.568C498.99,116.547 497.632,116.249 496.611,116.903C495.589,117.557 495.292,118.915 495.945,119.936L499.644,117.568ZM518.412,150.951L518.525,153.144C519.306,153.104 520.007,152.651 520.365,151.955C520.723,151.259 520.684,150.425 520.262,149.767L518.412,150.951ZM481.227,152.859L481.114,150.666C480.392,150.703 479.733,151.094 479.355,151.711C478.977,152.328 478.927,153.092 479.221,153.753L481.227,152.859ZM498.029,190.546L497.025,192.499C497.853,192.925 498.861,192.782 499.538,192.141C500.215,191.501 500.414,190.503 500.035,189.652L498.029,190.546ZM470.985,174.168C469.907,173.613 468.583,174.038 468.028,175.116C467.474,176.195 467.898,177.518 468.977,178.073L470.985,174.168ZM495.945,119.936L516.563,152.135L520.262,149.767L499.644,117.568L495.945,119.936ZM518.3,148.758L481.114,150.666L481.339,155.051L518.525,153.144L518.3,148.758ZM479.221,153.753L496.023,191.44L500.035,189.652L483.232,151.964L479.221,153.753ZM499.033,188.593L470.985,174.168L468.977,178.073L497.025,192.499L499.033,188.593Z" transform="rotate(-82.986 494.197 154.649)" fill="#FFFFFF"/>
<path d="M508.016,363.843C506.937,363.288 505.613,363.712 505.058,364.79C504.503,365.869 504.928,367.193 506.006,367.748L508.016,363.843ZM560.53,393.341L559.525,395.294C560.419,395.754 561.512,395.548 562.177,394.793C562.842,394.039 562.91,392.928 562.341,392.099L560.53,393.341ZM524.616,340.994L524.881,338.814C524.025,338.71 523.186,339.117 522.739,339.855C522.291,340.593 522.317,341.524 522.805,342.236L524.616,340.994ZM575.491,347.186L575.226,349.365C576.033,349.464 576.827,349.108 577.292,348.442C577.757,347.775 577.816,346.906 577.445,346.183L575.491,347.186ZM553.581,299.66C553.027,298.581 551.704,298.155 550.625,298.708C549.546,299.262 549.12,300.585 549.673,301.664L553.581,299.66ZM506.006,367.748L559.525,395.294L561.535,391.389L508.016,363.843L506.006,367.748ZM562.341,392.099L526.427,339.751L522.805,342.236L558.719,394.583L562.341,392.099ZM524.351,343.173L575.226,349.365L575.756,345.006L524.881,338.814L524.351,343.173ZM577.445,346.183L553.581,299.66L549.673,301.664L573.537,348.188L577.445,346.183Z" transform="rotate(-82.986 541.251 347.002)" fill="#FFFFFF"/>
<path d="M537.924,308.473C539.002,309.028 540.326,308.604 540.882,307.526C541.437,306.448 541.013,305.124 539.934,304.569L537.924,308.473ZM502.781,287.911L502.609,285.722C501.631,285.799 500.822,286.516 500.629,287.478C500.435,288.441 500.904,289.414 501.776,289.864L502.781,287.911ZM547.899,284.364L548.071,286.553C548.845,286.492 549.53,286.027 549.871,285.33C550.213,284.632 550.161,283.807 549.735,283.158L547.899,284.364ZM524.503,248.751L524.341,246.561C523.565,246.619 522.877,247.083 522.534,247.781C522.19,248.479 522.241,249.306 522.668,249.957L524.503,248.751ZM564.697,247.962C565.906,247.872 566.814,246.819 566.724,245.609C566.634,244.4 565.581,243.492 564.371,243.582L564.697,247.962ZM539.934,304.569L503.786,285.959L501.776,289.864L537.924,308.473L539.934,304.569ZM502.953,290.1L548.071,286.553L547.727,282.174L502.609,285.722L502.953,290.1ZM549.735,283.158L526.339,247.545L522.668,249.957L546.064,285.569L549.735,283.158ZM524.666,250.941L564.697,247.962L564.371,243.582L524.341,246.561L524.666,250.941Z" transform="rotate(-82.986 533.658 276.147)" fill="#FFFFFF"/>
<path d="M631.932,399.851C633.143,399.911 634.174,398.978 634.234,397.767C634.295,396.556 633.362,395.525 632.151,395.464L631.932,399.851ZM562.825,394.21L562.934,392.017C562.067,391.974 561.256,392.445 560.865,393.22C560.473,393.995 560.575,394.928 561.125,395.6L562.825,394.21ZM612.729,455.26L611.725,457.213C612.65,457.689 613.782,457.45 614.436,456.641C615.09,455.833 615.087,454.676 614.429,453.87L612.729,455.26ZM543.01,419.413L544.014,417.461C543.087,416.984 541.953,417.225 541.3,418.037C540.646,418.849 540.653,420.008 541.317,420.812L543.01,419.413ZM603.692,492.881L603.009,494.968C603.937,495.272 604.956,494.925 605.506,494.118C606.057,493.31 606.007,492.236 605.385,491.482L603.692,492.881ZM511.261,460.303C510.108,459.925 508.868,460.553 508.491,461.706C508.113,462.858 508.742,464.099 509.894,464.476L511.261,460.303ZM632.151,395.464L562.934,392.017L562.715,396.403L631.932,399.851L632.151,395.464ZM561.125,395.6L611.029,456.65L614.429,453.87L564.525,392.82L561.125,395.6ZM613.733,453.307L544.014,417.461L542.006,421.366L611.725,457.213L613.733,453.307ZM541.317,420.812L601.999,494.279L605.385,491.482L544.703,418.015L541.317,420.812ZM604.375,490.794L511.261,460.303L509.894,464.476L603.009,494.968L604.375,490.794Z" transform="rotate(-82.986 571.309 443.545)" fill="#FFFFFF"/>
<path d="M490.301,229.096C489.223,228.541 487.899,228.966 487.344,230.044C486.79,231.123 487.214,232.447 488.293,233.001L490.301,229.096ZM516.508,245.039L515.504,246.992C516.361,247.432 517.404,247.263 518.077,246.576C518.751,245.888 518.898,244.842 518.44,243.995L516.508,245.039ZM497.163,209.259L497.315,207.069C496.516,207.013 495.75,207.397 495.317,208.07C494.883,208.743 494.85,209.599 495.231,210.304L497.163,209.259ZM531.905,211.669L531.753,213.86C532.573,213.917 533.356,213.511 533.782,212.808C534.208,212.106 534.207,211.224 533.778,210.523L531.905,211.669ZM514.231,178.592C513.598,177.558 512.246,177.232 511.212,177.866C510.177,178.499 509.852,179.851 510.485,180.885L514.231,178.592ZM488.293,233.001L515.504,246.992L517.512,243.086L490.301,229.096L488.293,233.001ZM518.44,243.995L499.094,208.215L495.231,210.304L514.577,246.083L518.44,243.995ZM497.011,211.45L531.753,213.86L532.057,209.479L497.315,207.069L497.011,211.45ZM533.778,210.523L514.231,178.592L510.485,180.885L530.032,212.816L533.778,210.523Z" transform="rotate(-82.986 510.601 212.389)" fill="#FFFFFF"/>
<path d="M532.106,131.347C533.309,131.196 534.162,130.098 534.011,128.894C533.859,127.691 532.761,126.838 531.558,126.99L532.106,131.347ZM493.776,133.955L493.502,131.776C492.741,131.872 492.085,132.358 491.771,133.059C491.458,133.759 491.534,134.573 491.97,135.204L493.776,133.955ZM513.691,162.739L514.14,164.889C514.86,164.738 515.458,164.237 515.731,163.553C516.003,162.87 515.916,162.095 515.497,161.49L513.691,162.739ZM473.928,171.04L473.48,168.89C472.569,169.08 471.877,169.823 471.752,170.745C471.628,171.667 472.097,172.567 472.924,172.993L473.928,171.04ZM500.972,187.418C502.051,187.973 503.375,187.548 503.929,186.47C504.484,185.391 504.059,184.068 502.981,183.513L500.972,187.418ZM531.558,126.99L493.502,131.776L494.05,136.133L532.106,131.347L531.558,126.99ZM491.97,135.204L511.885,163.989L515.497,161.49L495.582,132.705L491.97,135.204ZM513.243,160.59L473.48,168.89L474.377,173.189L514.14,164.889L513.243,160.59ZM472.924,172.993L500.972,187.418L502.981,183.513L474.933,169.087L472.924,172.993Z" transform="rotate(-82.986 502.88 157.317)" fill="#FFFFFF"/>
<path d="M558.336,472.156C557.496,471.282 556.106,471.253 555.231,472.093C554.356,472.933 554.328,474.323 555.168,475.198L558.336,472.156ZM644.534,568.279C645.373,569.154 646.763,569.182 647.638,568.342C648.513,567.502 648.541,566.112 647.701,565.238L644.534,568.279ZM555.168,475.198L644.534,568.279L647.701,565.238L558.336,472.156L555.168,475.198Z" transform="rotate(-82.986 601.434 520.218)" fill="#FFFFFF"/>
<path d="M454.866,110.969L454.866,108.773C453.653,108.773 452.67,109.757 452.67,110.969L454.866,110.969ZM520.802,110.969L522.998,110.969C522.998,109.757 522.015,108.773 520.802,108.773L520.802,110.969ZM520.802,121.613L520.802,123.809C522.015,123.809 522.998,122.826 522.998,121.613L520.802,121.613ZM454.866,121.613L452.67,121.613C452.67,122.826 453.653,123.809 454.866,123.809L454.866,121.613ZM454.866,113.165L520.802,113.165L520.802,108.773L454.866,108.773L454.866,113.165ZM518.607,110.969L518.607,121.613L522.998,121.613L522.998,110.969L518.607,110.969ZM520.802,119.417L454.866,119.417L454.866,123.809L520.802,123.809L520.802,119.417ZM457.062,121.613L457.062,110.969L452.67,110.969L452.67,121.613L457.062,121.613Z" transform="rotate(-28.506 487.834 116.291)" fill="#FFFFFF"/>
<path d="M447.043,80.305L447.043,78.109C445.831,78.109 444.848,79.092 444.848,80.305L447.043,80.305ZM512.98,80.305L515.176,80.305C515.176,79.092 514.193,78.109 512.98,78.109L512.98,80.305ZM512.98,90.949L512.98,93.145C514.193,93.145 515.176,92.161 515.176,90.949L512.98,90.949ZM447.043,90.949L444.848,90.949C444.848,92.161 445.831,93.145 447.043,93.145L447.043,90.949ZM447.043,82.501L512.98,82.501L512.98,78.109L447.043,78.109L447.043,82.501ZM510.784,80.305L510.784,90.949L515.176,90.949L515.176,80.305L510.784,80.305ZM512.98,88.753L447.043,88.753L447.043,93.145L512.98,93.145L512.98,88.753ZM449.239,90.949L449.239,80.305L444.848,80.305L444.848,90.949L449.239,90.949Z" transform="rotate(-28.506 480.012 85.627)" fill="#FFFFFF"/>
</g>
</svg>
