<svg width="90" height="78" viewBox="0 0 90 78" fill="none" xmlns="http://www.w3.org/2000/svg" xmlns:xlink="http://www.w3.org/1999/xlink">
<path d="M13.359,34.117C13.359,42.625 20.25,49.656 28.899,49.656C37.477,49.656 44.438,42.695 44.438,34.117C44.438,25.68 37.617,18.578 28.899,18.578C20.391,18.578 13.359,25.539 13.359,34.117ZM40.711,39.672L36.773,39.672C37.055,38.266 37.266,36.789 37.266,35.313L41.906,35.313C41.836,36.859 41.414,38.336 40.711,39.672ZM15.891,35.313L20.531,35.313C20.602,36.789 20.742,38.195 21.024,39.672L17.086,39.672C16.383,38.336 16.031,36.859 15.891,35.313ZM22.992,35.313L27.703,35.313L27.703,39.672L23.555,39.672C23.203,38.266 22.992,36.789 22.992,35.313ZM27.703,42.133L27.703,46.844C26.438,46.211 25.172,44.524 24.258,42.133L27.703,42.133ZM30.164,46.914L30.164,42.203L33.609,42.203C32.625,44.524 31.43,46.211 30.164,46.914ZM30.164,39.672L30.164,35.313L34.875,35.313C34.805,36.789 34.594,38.266 34.313,39.672L30.164,39.672ZM41.977,32.922L37.336,32.922C37.266,31.445 37.125,30.039 36.844,28.563L40.781,28.563C41.414,29.898 41.836,31.375 41.977,32.922ZM34.875,32.922L30.164,32.922L30.164,28.563L34.313,28.563C34.594,29.969 34.805,31.445 34.875,32.922ZM30.164,26.102L30.164,21.391C31.43,22.023 32.695,23.711 33.609,26.102L30.164,26.102ZM27.703,21.32L27.703,26.031L24.258,26.031C25.172,23.711 26.367,22.023 27.703,21.32ZM27.703,28.563L27.703,32.922L22.992,32.922C23.063,31.445 23.274,29.969 23.555,28.563L27.703,28.563ZM20.531,32.922L15.891,32.922C16.031,31.445 16.453,29.969 17.086,28.563L21.024,28.563C20.742,29.969 20.531,31.445 20.531,32.922ZM18.563,42.133L21.656,42.133C22.078,43.469 22.641,44.805 23.414,46C21.516,45.086 19.899,43.82 18.563,42.133ZM34.383,46C35.156,44.805 35.719,43.539 36.141,42.133L39.234,42.133C37.969,43.82 36.281,45.086 34.383,46ZM39.234,26.102L36.141,26.102C35.719,24.766 35.156,23.5 34.383,22.234C36.281,23.148 37.969,24.414 39.234,26.102ZM23.414,22.234C22.641,23.43 22.078,24.695 21.656,26.102L18.563,26.102C19.899,24.414 21.516,23.148 23.414,22.234Z" fill="#FFFFFF"/>
<path d="M51.75,53.242L6.117,53.242C5.414,53.242 4.922,53.805 4.922,54.438L4.922,59.219C4.922,59.922 5.484,60.414 6.117,60.414L51.75,60.414C52.453,60.414 52.945,59.852 52.945,59.219L52.945,54.438C52.945,53.805 52.383,53.242 51.75,53.242ZM50.484,58.023L7.313,58.023L7.313,55.703L50.484,55.703L50.484,58.023Z" fill="#FFFFFF"/>
<path d="M42.117,62.805L15.75,62.805C15.047,62.805 14.555,63.367 14.555,64L14.555,68.781C14.555,69.484 15.117,69.977 15.75,69.977L42.117,69.977C42.82,69.977 43.313,69.414 43.313,68.781L43.313,64C43.313,63.367 42.75,62.805 42.117,62.805ZM40.852,67.656L16.945,67.656L16.945,65.336L40.852,65.336L40.852,67.656Z" fill="#FFFFFF"/>
<path d="M60.961,22.586L65.25,20.898L65.25,23.008L62.578,26.242C62.367,26.453 62.297,26.734 62.297,27.016L62.297,30.039C62.297,30.953 63.281,31.586 64.125,31.094L68.836,28.492C70.734,27.437 71.93,25.398 71.93,23.219L71.93,7.75C71.93,7.047 71.367,6.555 70.734,6.555L68.836,6.555C66.867,6.555 65.18,8.172 65.18,10.211L65.18,14.008L61.172,16.469C59.977,17.172 59.274,18.508 59.274,19.914L59.274,21.461C59.274,22.305 60.188,22.938 60.961,22.586ZM62.508,18.578L67.149,15.695C67.5,15.484 67.711,15.063 67.711,14.641L67.711,10.141C67.711,9.508 68.203,8.945 68.906,8.945L69.539,8.945L69.539,23.148C69.539,24.414 68.836,25.609 67.711,26.242L64.828,27.859L64.828,27.367L67.43,24.203C67.641,23.992 67.711,23.711 67.711,23.43L67.711,19.07C67.711,18.227 66.867,17.594 66.024,17.945L61.805,19.633C61.805,19.211 62.086,18.789 62.508,18.578Z" fill="#FFFFFF"/>
<path d="M89.578,20.338C62.789,-6.451 72.07,2.83 70.031,0.791C69.539,0.299 68.766,0.299 68.274,0.791L56.32,12.814C54.844,10.705 52.453,9.51 49.922,9.51L48.797,9.51L48.797,1.705C48.797,0.932 48.094,0.369 47.32,0.51L1.055,9.51C0.492,9.65 0.07,10.143 0.07,10.705L0.07,76.447C0.07,77.15 0.633,77.643 1.266,77.643L56.461,77.643C57.164,77.643 57.656,77.08 57.656,76.447L57.656,53.947L89.508,22.096C90.07,21.603 90.07,20.83 89.578,20.338ZM57.445,15.135L69.188,3.393L83.531,17.736C82.195,19.072 60.609,40.658 57.727,43.541L57.727,17.314C57.727,16.541 57.656,15.838 57.445,15.135ZM46.336,3.182L46.336,9.439L14.063,9.439L46.336,3.182ZM2.531,75.182L2.531,11.9L49.922,11.9C52.875,11.9 55.266,14.291 55.266,17.244L55.266,75.111L2.531,75.111L2.531,75.182ZM57.727,50.432L57.727,47.057L85.289,19.494L86.977,21.182L57.727,50.432Z" fill="#FFFFFF"/>
</svg>
