<svg width="110" height="112" viewBox="0 0 110 112" fill="none" xmlns="http://www.w3.org/2000/svg" xmlns:xlink="http://www.w3.org/1999/xlink">
<rect  x="46" y="0.078" width="64" height="64" rx="40" fill="#F1F5EB"/>
<path d="M83.423,45.568C83.423,41.827 82.314,38.171 80.236,35.061C78.158,31.951 75.205,29.527 71.749,28.096C68.294,26.664 64.491,26.29 60.823,27.02C57.155,27.749 53.785,29.55 51.14,32.195C48.496,34.84 46.695,38.209 45.965,41.878C45.235,45.546 45.61,49.348 47.041,52.804C48.473,56.259 50.896,59.213 54.006,61.291C57.116,63.368 60.773,64.477 64.513,64.477C69.526,64.472 74.333,62.478 77.878,58.933C81.423,55.388 83.417,50.581 83.423,45.568ZM48.063,45.568C48.063,42.314 49.028,39.134 50.835,36.428C52.643,33.723 55.212,31.615 58.217,30.37C61.223,29.124 64.531,28.799 67.722,29.433C70.913,30.068 73.844,31.634 76.144,33.935C78.445,36.235 80.012,39.166 80.646,42.357C81.281,45.548 80.955,48.856 79.71,51.862C78.465,54.867 76.357,57.437 73.652,59.244C70.947,61.052 67.766,62.016 64.513,62.016C60.152,62.011 55.971,60.277 52.887,57.193C49.803,54.109 48.068,49.929 48.063,45.568Z" fill="#2437AC"/>
<path d="M73.83,83.451L31.378,83.451L31.378,79.283L64.513,79.283C64.683,79.283 64.85,79.247 65.005,79.178L65.01,79.178C66.032,78.727 90.001,67.851 90.001,45.566C90.001,38.807 87.316,32.323 82.536,27.543C77.756,22.763 71.273,20.078 64.513,20.078C57.753,20.078 51.27,22.763 46.49,27.543C41.71,32.323 39.025,38.807 39.025,45.566C39.025,57.149 45.501,65.643 51.863,71.197L30.851,71.197C28.847,71.2 26.926,71.997 25.509,73.414C24.092,74.831 23.295,76.752 23.292,78.756L23.292,83.976C23.295,85.98 24.092,87.901 25.509,89.318C26.926,90.735 28.847,91.532 30.851,91.535L73.302,91.535L73.302,95.179L20.919,95.179C19.98,92.839 18.256,90.899 16.042,89.692C13.828,88.485 11.263,88.087 8.787,88.565C6.312,89.043 4.08,90.368 2.475,92.313C0.87,94.258 -0.008,96.701 -0.008,99.222C-0.008,101.743 0.87,104.186 2.475,106.131C4.08,108.076 6.312,109.401 8.787,109.879C11.263,110.357 13.828,109.959 16.042,108.752C18.256,107.545 19.98,105.605 20.919,103.265L73.83,103.265C75.834,103.263 77.755,102.466 79.172,101.049C80.589,99.632 81.386,97.71 81.388,95.706L81.388,91.007C81.385,89.004 80.588,87.083 79.171,85.666C77.754,84.25 75.833,83.453 73.83,83.451ZM41.486,45.566C41.486,39.459 43.912,33.602 48.23,29.284C52.549,24.965 58.406,22.539 64.513,22.539C70.62,22.539 76.477,24.965 80.796,29.284C85.114,33.602 87.541,39.459 87.541,45.566C87.541,64.539 67.916,75.018 64.512,76.692C61.107,75.021 41.486,64.566 41.486,45.566ZM10.856,107.619C9.195,107.619 7.573,107.127 6.192,106.205C4.812,105.283 3.736,103.972 3.101,102.438C2.465,100.904 2.299,99.217 2.623,97.588C2.947,95.96 3.746,94.465 4.92,93.291C6.093,92.117 7.589,91.317 9.217,90.993C10.845,90.669 12.533,90.835 14.067,91.47C15.601,92.105 16.912,93.181 17.834,94.561C18.757,95.941 19.249,97.564 19.249,99.224C19.247,101.45 18.362,103.584 16.789,105.158C15.215,106.732 13.081,107.617 10.856,107.619ZM78.927,95.708C78.926,97.06 78.388,98.356 77.433,99.311C76.477,100.267 75.181,100.805 73.83,100.806L21.582,100.806C21.753,99.758 21.753,98.69 21.582,97.642L73.83,97.642C74.342,97.641 74.834,97.438 75.196,97.075C75.559,96.713 75.763,96.221 75.763,95.708L75.763,91.009C75.763,90.497 75.559,90.005 75.196,89.643C74.834,89.28 74.342,89.076 73.83,89.076L30.851,89.076C29.5,89.074 28.204,88.537 27.248,87.581C26.292,86.625 25.755,85.33 25.753,83.978L25.753,78.758C25.755,77.407 26.292,76.111 27.248,75.155C28.204,74.2 29.5,73.662 30.851,73.661L54.904,73.661C56.417,74.794 57.986,75.85 59.605,76.825L30.851,76.825C30.338,76.825 29.847,77.029 29.484,77.391C29.122,77.754 28.918,78.245 28.917,78.758L28.917,83.978C28.918,84.491 29.122,84.982 29.484,85.345C29.847,85.707 30.338,85.911 30.851,85.912L73.83,85.912C75.181,85.913 76.477,86.451 77.433,87.407C78.388,88.362 78.926,89.658 78.927,91.009L78.927,95.708Z" fill="#2437AC"/>
</svg>
