<svg width="116" height="130" viewBox="0 0 116 130" fill="none" xmlns="http://www.w3.org/2000/svg" xmlns:xlink="http://www.w3.org/1999/xlink">
<path d="M99.824,78.195C99.933,76.813 100.005,75.439 100.005,74.107L100.005,22.09C100.005,21.739 99.901,21.397 99.707,21.105C99.512,20.813 99.236,20.586 98.913,20.451L50.354,0.138C50.137,0.047 49.903,0 49.668,0C49.432,0 49.199,0.047 48.982,0.138L0.424,20.451C0.1,20.586 -0.176,20.813 -0.37,21.105C-0.565,21.397 -0.668,21.739 -0.668,22.09L-0.668,74.107C-0.685,84.475 2.373,94.615 8.118,103.245C13.863,111.876 22.038,118.609 31.609,122.594L48.984,129.862C49.201,129.953 49.434,130 49.67,130C49.905,130 50.139,129.953 50.356,129.862L67.731,122.594C67.999,122.482 68.26,122.36 68.525,122.243C71.359,124.946 74.741,127.008 78.442,128.289C82.144,129.57 86.077,130.04 89.976,129.666C93.874,129.292 97.647,128.084 101.037,126.124C104.428,124.163 107.357,121.496 109.625,118.304C111.894,115.111 113.449,111.468 114.185,107.621C114.921,103.774 114.821,99.814 113.892,96.01C112.962,92.205 111.225,88.645 108.798,85.571C106.371,82.498 103.311,79.982 99.826,78.195L99.824,78.195ZM49.668,126.296L32.98,119.316C24.056,115.6 16.434,109.321 11.078,101.275C5.721,93.228 2.871,83.774 2.887,74.107L2.887,23.273L49.668,3.704L96.45,23.273L96.45,74.107C96.45,74.958 96.422,75.834 96.373,76.707C94.258,75.965 92.059,75.487 89.826,75.285C89.838,74.885 89.848,74.49 89.848,74.105L89.848,28.851C89.848,28.5 89.745,28.158 89.55,27.866C89.356,27.574 89.08,27.346 88.757,27.211L50.354,11.148C50.137,11.057 49.903,11.01 49.668,11.01C49.432,11.01 49.199,11.057 48.982,11.148L10.579,27.211C10.256,27.346 9.98,27.574 9.786,27.866C9.592,28.158 9.488,28.501 9.488,28.851L9.488,74.107C9.475,82.471 11.941,90.652 16.576,97.615C21.21,104.577 27.805,110.01 35.527,113.225L48.982,118.853C49.199,118.944 49.432,118.991 49.668,118.991C49.903,118.991 50.137,118.944 50.354,118.853L62.493,113.774C63.42,115.808 64.594,117.721 65.987,119.469L49.668,126.296ZM60.04,102.485C60.038,105.185 60.439,107.869 61.228,110.451L49.668,115.287L36.899,109.946C29.824,107 23.782,102.023 19.536,95.644C15.29,89.265 13.03,81.77 13.043,74.107L13.043,30.034L49.668,14.714L86.294,30.034L86.294,74.112C86.294,74.467 86.285,74.832 86.273,75.203C79.226,75.489 72.562,78.487 67.673,83.571C62.785,88.655 60.05,95.432 60.04,102.485ZM73.516,121.782L73.516,119.6C73.519,117.109 74.509,114.721 76.271,112.96C78.032,111.199 80.42,110.208 82.911,110.206L91.797,110.206C94.288,110.208 96.676,111.199 98.437,112.96C100.199,114.721 101.189,117.109 101.192,119.6L101.192,121.781C97.162,124.683 92.321,126.244 87.354,126.244C82.387,126.244 77.547,124.684 73.516,121.782ZM104.701,118.697C104.47,115.431 103.012,112.374 100.619,110.139C98.227,107.905 95.076,106.659 91.802,106.652L82.916,106.652C79.642,106.658 76.492,107.904 74.099,110.139C71.706,112.374 70.248,115.431 70.017,118.697C66.852,115.315 64.744,111.082 63.953,106.517C63.163,101.953 63.723,97.257 65.567,93.007C67.41,88.758 70.455,85.139 74.328,82.598C78.201,80.056 82.732,78.702 87.364,78.702C91.997,78.702 96.528,80.056 100.401,82.598C104.273,85.139 107.319,88.758 109.162,93.007C111.005,97.257 111.566,101.953 110.775,106.517C109.984,111.082 107.877,115.315 104.711,118.697L104.701,118.697Z" fill="#FFFFFF"/>
<path d="M87.353,83.789C85.359,83.678 83.376,84.168 81.663,85.196C79.95,86.224 78.584,87.742 77.744,89.554C76.903,91.366 76.625,93.389 76.946,95.361C77.267,97.333 78.173,99.163 79.546,100.614C80.919,102.066 82.695,103.072 84.646,103.502C86.597,103.933 88.632,103.768 90.489,103.03C92.345,102.291 93.937,101.012 95.058,99.359C96.18,97.705 96.779,95.754 96.779,93.756C96.846,91.186 95.892,88.694 94.125,86.826C92.358,84.958 89.923,83.866 87.353,83.789ZM87.353,100.166C86.061,100.28 84.765,100.001 83.634,99.365C82.504,98.73 81.592,97.767 81.018,96.604C80.443,95.441 80.234,94.132 80.417,92.848C80.6,91.564 81.166,90.365 82.042,89.408C82.918,88.452 84.063,87.782 85.326,87.488C86.589,87.193 87.912,87.287 89.121,87.757C90.33,88.227 91.368,89.051 92.101,90.121C92.833,91.192 93.225,92.459 93.225,93.756C93.292,95.384 92.713,96.972 91.612,98.174C90.512,99.376 88.981,100.094 87.353,100.17L87.353,100.166Z" fill="#FFFFFF"/>
<path d="M49.668,28.735C45.216,28.735 40.865,30.055 37.163,32.528C33.462,35.001 30.577,38.517 28.873,42.63C27.17,46.742 26.724,51.268 27.592,55.634C28.461,60 30.605,64.011 33.752,67.159C36.9,70.307 40.911,72.45 45.277,73.319C49.643,74.187 54.169,73.742 58.282,72.038C62.395,70.334 65.91,67.449 68.383,63.748C70.856,60.047 72.177,55.695 72.177,51.243C72.17,45.276 69.796,39.554 65.577,35.335C61.357,31.115 55.636,28.742 49.668,28.735ZM66.791,59.315L61.082,59.315C61.497,57.239 61.745,55.134 61.825,53.018L68.528,53.018C68.322,55.203 67.733,57.334 66.791,59.315ZM32.546,43.167L38.254,43.167C37.84,45.243 37.591,47.348 37.51,49.464L30.807,49.464C31.014,47.279 31.603,45.148 32.546,43.167ZM51.446,39.612L51.446,32.777C53.298,33.744 55.092,36.154 56.384,39.614L51.446,39.612ZM57.438,43.167C57.901,45.237 58.178,47.344 58.266,49.464L51.446,49.464L51.446,43.167L57.438,43.167ZM47.891,32.775L47.891,39.612L42.953,39.612C44.245,36.159 46.038,33.744 47.891,32.777L47.891,32.775ZM47.891,43.167L47.891,49.464L41.071,49.464C41.158,47.344 41.435,45.237 41.899,43.167L47.891,43.167ZM30.805,53.018L37.508,53.018C37.589,55.134 37.838,57.239 38.252,59.315L32.544,59.315C31.601,57.334 31.012,55.203 30.805,53.018ZM41.071,53.018L47.891,53.018L47.891,59.315L41.899,59.315C41.435,57.245 41.158,55.138 41.071,53.018ZM47.891,62.87L47.891,69.707C46.038,68.741 44.245,66.33 42.952,62.87L47.891,62.87ZM51.446,69.707L51.446,62.87L56.384,62.87C55.092,66.331 53.298,68.741 51.446,69.707ZM51.446,59.315L51.446,53.018L58.266,53.018C58.178,55.138 57.901,57.245 57.438,59.315L51.446,59.315ZM61.825,49.464C61.745,47.348 61.496,45.243 61.082,43.167L66.791,43.167C67.734,45.148 68.324,47.279 68.531,49.464L61.825,49.464ZM64.602,39.612L60.163,39.612C59.555,37.663 58.702,35.798 57.624,34.064C60.356,35.335 62.748,37.236 64.602,39.612ZM41.708,34.066C40.631,35.8 39.78,37.663 39.174,39.612L34.734,39.612C36.587,37.238 38.977,35.337 41.708,34.066ZM34.733,62.87L39.174,62.87C39.78,64.819 40.631,66.684 41.708,68.418C38.977,67.147 36.586,65.245 34.733,62.87ZM57.628,68.419C58.706,66.685 59.559,64.82 60.167,62.87L64.607,62.87C62.753,65.246 60.361,67.148 57.628,68.419Z" fill="#FFFFFF"/>
</svg>
