<svg width="60" height="48" viewBox="0 0 60 48" fill="none" xmlns="http://www.w3.org/2000/svg" xmlns:xlink="http://www.w3.org/1999/xlink">
<path d="M56.367,0.406L3.633,0.406C2.67,0.407 1.746,0.79 1.065,1.472C0.384,2.153 0.001,3.076 0,4.039L0,46.927C0,47.144 0.087,47.353 0.24,47.507C0.394,47.661 0.603,47.747 0.82,47.747L59.18,47.747C59.397,47.747 59.606,47.661 59.76,47.507C59.913,47.353 60,47.144 60,46.927L60,4.039C59.999,3.076 59.616,2.153 58.935,1.472C58.254,0.79 57.33,0.407 56.367,0.406ZM1.641,4.039C1.641,3.511 1.851,3.005 2.225,2.631C2.598,2.258 3.105,2.047 3.633,2.047L56.367,2.047C56.895,2.047 57.402,2.258 57.775,2.631C58.149,3.005 58.359,3.511 58.359,4.039L58.359,11.486L1.641,11.486L1.641,4.039ZM58.359,46.107L1.641,46.107L1.641,13.127L58.359,13.127L58.359,46.107Z" fill="#FFFFFF"/>
<path d="M55.429,4.156L19.576,4.156C19.359,4.156 19.15,4.243 18.996,4.397C18.842,4.55 18.756,4.759 18.756,4.977L18.756,8.556C18.756,8.773 18.842,8.982 18.996,9.136C19.15,9.29 19.359,9.376 19.576,9.376L55.429,9.376C55.647,9.376 55.855,9.29 56.009,9.136C56.163,8.982 56.25,8.773 56.25,8.556L56.25,4.977C56.25,4.759 56.163,4.55 56.009,4.397C55.855,4.243 55.647,4.156 55.429,4.156ZM54.609,7.736L20.396,7.736L20.396,5.797L54.609,5.797L54.609,7.736Z" fill="#FFFFFF"/>
<path d="M8.32,4.156L4.57,4.156C4.353,4.156 4.144,4.243 3.99,4.397C3.837,4.55 3.75,4.759 3.75,4.977L3.75,8.556C3.75,8.773 3.837,8.982 3.99,9.136C4.144,9.29 4.353,9.376 4.57,9.376L8.32,9.376C8.538,9.376 8.746,9.29 8.9,9.136C9.054,8.982 9.14,8.773 9.141,8.556L9.141,4.977C9.14,4.759 9.054,4.55 8.9,4.397C8.746,4.243 8.538,4.156 8.32,4.156ZM7.5,7.736L5.391,7.736L5.391,5.797L7.5,5.797L7.5,7.736Z" fill="#FFFFFF"/>
<path d="M15.822,4.156L12.072,4.156C11.855,4.156 11.646,4.243 11.492,4.397C11.339,4.55 11.252,4.759 11.252,4.977L11.252,8.556C11.252,8.773 11.339,8.982 11.492,9.136C11.646,9.29 11.855,9.376 12.072,9.376L15.822,9.376C16.04,9.376 16.248,9.29 16.402,9.136C16.556,8.982 16.643,8.773 16.643,8.556L16.643,4.977C16.643,4.759 16.556,4.55 16.402,4.397C16.248,4.243 16.04,4.156 15.822,4.156ZM15.002,7.736L12.893,7.736L12.893,5.797L15.002,5.797L15.002,7.736Z" fill="#FFFFFF"/>
<path d="M30,42.321C32.512,42.322 34.967,41.577 37.056,40.181C39.144,38.786 40.772,36.803 41.734,34.482C42.695,32.161 42.946,29.608 42.457,27.144C41.967,24.681 40.757,22.418 38.981,20.642C37.205,18.866 34.942,17.656 32.478,17.166C30.015,16.676 27.461,16.927 25.141,17.889C22.82,18.85 20.837,20.478 19.441,22.566C18.046,24.655 17.301,27.11 17.301,29.622C17.305,32.989 18.644,36.217 21.024,38.598C23.405,40.978 26.633,42.318 30,42.321ZM30,18.563C32.188,18.563 34.326,19.211 36.145,20.427C37.963,21.642 39.381,23.369 40.218,25.39C41.055,27.411 41.274,29.634 40.847,31.78C40.421,33.925 39.367,35.896 37.821,37.442C36.274,38.989 34.303,40.042 32.158,40.469C30.013,40.896 27.789,40.677 25.768,39.839C23.747,39.002 22.02,37.585 20.805,35.766C19.59,33.947 18.941,31.809 18.941,29.622C18.945,26.69 20.111,23.879 22.184,21.806C24.257,19.733 27.068,18.566 30,18.563Z" fill="#FFFFFF"/>
<path d="M24.288,35.951L35.709,35.951C35.926,35.951 36.135,35.865 36.289,35.711C36.442,35.557 36.529,35.348 36.529,35.131L36.529,27.071C36.529,26.853 36.442,26.645 36.289,26.491C36.135,26.337 35.926,26.25 35.709,26.25L34.162,26.25L33.66,23.929C33.621,23.746 33.52,23.581 33.374,23.463C33.228,23.345 33.046,23.281 32.858,23.281L27.139,23.281C26.952,23.281 26.77,23.346 26.624,23.463C26.478,23.581 26.377,23.745 26.337,23.928L25.836,26.249L24.289,26.249C24.072,26.25 23.863,26.336 23.709,26.49C23.555,26.644 23.469,26.852 23.469,27.07L23.469,35.131C23.469,35.348 23.555,35.557 23.709,35.71C23.862,35.864 24.071,35.951 24.288,35.951ZM25.108,34.31L25.108,31.336L27.265,31.336L27.265,31.418C27.265,31.636 27.351,31.844 27.505,31.998C27.659,32.152 27.867,32.239 28.085,32.239C28.303,32.239 28.511,32.152 28.665,31.998C28.819,31.844 28.905,31.636 28.905,31.418L28.905,31.336L31.09,31.336L31.09,31.418C31.09,31.636 31.176,31.844 31.33,31.998C31.484,32.152 31.692,32.239 31.91,32.239C32.128,32.239 32.336,32.152 32.49,31.998C32.644,31.844 32.73,31.636 32.73,31.418L32.73,31.336L34.887,31.336L34.887,34.31L25.108,34.31ZM27.801,24.922L32.195,24.922L32.482,26.249L27.514,26.249L27.801,24.922ZM33.497,27.89L34.888,27.89L34.888,29.694L25.108,29.694L25.108,27.891L33.497,27.89Z" fill="#FFFFFF"/>
</svg>
