<svg width="84" height="90" viewBox="0 0 84 90" fill="none" xmlns="http://www.w3.org/2000/svg" xmlns:xlink="http://www.w3.org/1999/xlink">
<path d="M70.32,17.93C73.695,17.93 76.508,15.188 76.508,11.742C76.508,8.297 73.695,5.625 70.32,5.625C66.945,5.625 64.133,8.367 64.133,11.813C64.133,15.188 66.875,17.93 70.32,17.93ZM70.32,8.086C72.359,8.086 74.047,9.773 74.047,11.813C74.047,13.852 72.359,15.539 70.32,15.539C68.281,15.539 66.594,13.852 66.594,11.813C66.594,9.773 68.211,8.086 70.32,8.086Z" fill="#FFFFFF"/>
<path d="M77.703,32.203C76.578,29.813 75.242,27.492 73.695,25.383C77.07,23.133 82.063,18.703 82.063,11.812C82.063,5.273 76.789,0.07 70.32,0.07C63.852,0.07 58.508,5.273 58.508,11.812L58.508,12.586C57.594,12.164 56.68,11.742 55.766,11.32C29.328,0.703 0.078,19.898 -0.062,49.078C-0.133,71.578 18.008,89.859 40.508,89.93C63.008,90 81.289,71.859 81.359,49.359C81.359,49.219 81.359,49.149 81.359,49.008C81.359,43.242 80.094,37.477 77.703,32.203ZM70.32,2.461C75.453,2.461 79.602,6.609 79.672,11.812C79.672,19.195 72.359,23.555 70.32,24.539C68.352,23.484 60.969,19.195 60.969,11.812C60.969,6.609 65.117,2.461 70.32,2.461ZM69.758,27.07C70.109,27.211 70.461,27.211 70.742,27.07C70.813,27.07 71.094,26.93 71.516,26.649C72.641,28.195 73.625,29.813 74.539,31.5L67.227,31.5L62.305,26.578C62.024,26.297 61.602,26.156 61.18,26.227L46.695,29.461C46.133,29.602 45.711,30.094 45.711,30.656L45.711,33.609C45.711,34.242 46.133,34.734 46.766,34.805L56.75,36.352L59.211,41.133C59.352,41.414 59.633,41.695 59.984,41.766L66.313,43.524L66.313,47.109L62.516,51.047C62.305,51.258 62.164,51.609 62.164,51.891L62.164,57.867L55.203,70.031L51.336,70.031L51.336,66.164C51.336,65.813 51.195,65.461 50.914,65.25L45.57,60.399L45.57,54.774C45.57,54.281 45.219,53.789 44.797,53.649L33.828,49.641L33.828,40.5L41,32.766C41.492,32.274 41.422,31.5 40.93,31.008L40.859,30.938L34.32,25.875L39.664,18.281L50.633,18.281C50.984,18.281 51.266,18.141 51.477,17.93L55.555,13.852C56.68,14.344 57.875,14.906 59,15.539C61.25,23.133 69.406,26.859 69.758,27.07ZM15.969,19.898L19.063,26.297L16.602,27.563C16.461,27.633 16.391,27.703 16.25,27.774L10.414,33.75C10.063,34.102 9.992,34.594 10.133,35.016L10.977,37.406C10.063,37.969 9.149,38.742 8.445,39.516L3.453,40.359C5.281,32.344 9.711,25.172 15.969,19.898ZM17.164,60.047C15.195,58.992 7.813,54.703 7.813,47.32C7.883,42.188 12.102,38.039 17.235,38.109C22.297,38.18 26.445,42.258 26.445,47.32C26.445,54.703 19.133,59.063 17.164,60.047ZM2.469,47.039C2.539,45.633 2.68,44.297 2.891,42.891L6.477,42.258C5.774,43.734 5.352,45.352 5.352,46.969L2.469,46.969L2.469,47.039ZM16.602,73.125L16.602,78.891C7.742,71.719 2.539,60.961 2.399,49.5L5.563,49.5C6.899,58.149 16.25,62.367 16.672,62.578C17.024,62.719 17.375,62.719 17.656,62.578C18.641,62.086 19.555,61.594 20.469,60.961L21.734,62.227L21.734,65.602L20.188,67.922C19.836,68.414 19.977,69.117 20.399,69.539L20.75,69.891L17.094,72.07C16.813,72.281 16.602,72.633 16.602,73.125ZM40.649,87.399C32.914,87.399 25.391,85.078 19.063,80.719L19.063,73.828L23.633,71.086C24.195,70.734 24.406,69.961 24.055,69.399C23.984,69.258 23.914,69.188 23.774,69.117L22.93,68.414L24.055,66.727C24.195,66.516 24.266,66.305 24.266,66.024L24.266,61.805C24.266,61.453 24.125,61.172 23.914,60.961L22.578,59.625C25.672,57.164 29.047,53.086 29.047,47.461C29.047,40.992 23.844,35.719 17.305,35.719C15.899,35.719 14.563,35.93 13.227,36.422L12.735,35.016L17.867,29.742L21.242,28.055C21.875,27.774 22.086,27 21.805,26.438L17.938,18.492C28.063,11.039 41.211,9 53.094,13.078L50.141,15.891L39.031,15.891C38.609,15.891 38.258,16.102 38.047,16.383L31.649,25.453C31.297,26.016 31.367,26.719 31.93,27.141L38.328,32.063L31.719,39.164C31.508,39.375 31.367,39.656 31.367,40.008L31.367,50.484C31.367,50.977 31.719,51.469 32.141,51.609L43.109,55.617L43.109,60.961C43.109,61.313 43.25,61.664 43.531,61.875L48.875,66.727L48.875,71.297C48.875,72 49.438,72.492 50.07,72.492L55.906,72.492C56.328,72.492 56.75,72.281 56.961,71.859L64.484,58.781C64.625,58.57 64.625,58.359 64.625,58.149L64.625,52.313L68.422,48.516C68.633,48.305 68.774,47.953 68.774,47.672L68.774,42.68C68.774,42.117 68.422,41.625 67.859,41.484L61.109,39.586L58.649,34.734C58.438,34.383 58.156,34.172 57.734,34.102L48.172,32.625L48.172,31.641L61.039,28.758L65.891,33.609C66.102,33.82 66.453,33.961 66.734,33.961L75.734,33.961C77.844,38.742 78.899,43.875 78.899,49.149C78.899,70.242 61.742,87.328 40.649,87.399Z" fill="#FFFFFF"/>
<path d="M17.164,41.133C13.789,41.133 10.977,43.875 10.977,47.32C10.977,50.695 13.719,53.508 17.164,53.508C20.61,53.508 23.352,50.766 23.352,47.32C23.281,43.945 20.539,41.133 17.164,41.133ZM17.164,51.047C15.125,51.047 13.438,49.359 13.438,47.32C13.438,45.281 15.125,43.594 17.164,43.594C19.203,43.594 20.891,45.281 20.891,47.32C20.891,49.359 19.203,51.047 17.164,51.047Z" fill="#FFFFFF"/>
</svg>
