<svg width="110" height="112" viewBox="0 0 110 112" fill="none" xmlns="http://www.w3.org/2000/svg" xmlns:xlink="http://www.w3.org/1999/xlink">
<rect  x="26" y="0.078" width="84" height="84" rx="40" fill="#F1F5EB"/>
<path d="M74.648,74.213C74.723,73.256 74.773,72.305 74.773,71.383L74.773,35.371C74.773,35.128 74.701,34.891 74.567,34.689C74.432,34.487 74.241,34.33 74.017,34.236L40.399,20.174C40.249,20.111 40.087,20.078 39.924,20.078C39.761,20.078 39.6,20.111 39.449,20.174L5.832,34.236C5.608,34.33 5.417,34.487 5.282,34.689C5.148,34.891 5.076,35.128 5.076,35.371L5.076,71.383C5.065,78.561 7.181,85.581 11.159,91.556C15.136,97.53 20.796,102.192 27.422,104.951L39.451,109.982C39.601,110.045 39.762,110.078 39.926,110.078C40.089,110.078 40.25,110.045 40.401,109.982L52.43,104.951C52.615,104.873 52.796,104.788 52.979,104.708C54.941,106.579 57.283,108.007 59.845,108.894C62.407,109.78 65.131,110.105 67.83,109.847C70.529,109.588 73.14,108.752 75.488,107.394C77.835,106.037 79.863,104.191 81.433,101.98C83.004,99.77 84.081,97.248 84.59,94.585C85.1,91.922 85.031,89.18 84.387,86.546C83.743,83.912 82.541,81.448 80.861,79.32C79.18,77.192 77.062,75.45 74.649,74.213L74.648,74.213ZM39.925,107.514L28.371,102.681C22.193,100.108 16.916,95.762 13.208,90.191C9.5,84.62 7.526,78.075 7.537,71.383L7.537,36.19L39.925,22.642L72.312,36.19L72.312,71.383C72.312,71.972 72.292,72.578 72.258,73.183C70.794,72.669 69.272,72.338 67.726,72.199C67.735,71.922 67.742,71.648 67.742,71.381L67.742,40.052C67.742,39.809 67.67,39.572 67.535,39.37C67.401,39.168 67.21,39.01 66.986,38.916L40.399,27.795C40.249,27.732 40.087,27.7 39.924,27.7C39.761,27.7 39.6,27.732 39.449,27.795L12.863,38.916C12.639,39.01 12.448,39.168 12.314,39.37C12.179,39.572 12.108,39.809 12.107,40.052L12.107,71.383C12.098,77.173 13.806,82.837 17.014,87.657C20.223,92.478 24.789,96.238 30.134,98.464L39.449,102.36C39.6,102.424 39.761,102.456 39.924,102.456C40.087,102.456 40.249,102.424 40.399,102.36L48.803,98.845C49.445,100.253 50.258,101.577 51.222,102.787L39.925,107.514ZM47.105,91.029C47.104,92.898 47.381,94.757 47.928,96.544L39.925,99.892L31.084,96.194C26.186,94.155 22.003,90.709 19.064,86.293C16.124,81.877 14.56,76.688 14.568,71.383L14.568,40.871L39.925,30.264L65.281,40.871L65.281,71.386C65.281,71.632 65.274,71.885 65.267,72.142C60.388,72.34 55.774,74.415 52.39,77.935C49.005,81.455 47.112,86.146 47.105,91.029ZM56.435,104.388L56.435,102.878C56.436,101.154 57.122,99.5 58.342,98.281C59.561,97.062 61.214,96.376 62.939,96.374L69.091,96.374C70.815,96.376 72.468,97.062 73.688,98.281C74.907,99.5 75.593,101.154 75.595,102.878L75.595,104.388C72.804,106.397 69.453,107.478 66.015,107.478C62.576,107.478 59.225,106.397 56.435,104.388ZM78.024,102.253C77.865,99.992 76.855,97.875 75.198,96.328C73.542,94.781 71.361,93.919 69.094,93.914L62.942,93.914C60.675,93.918 58.494,94.781 56.838,96.328C55.181,97.875 54.172,99.992 54.012,102.253C51.821,99.911 50.362,96.981 49.814,93.821C49.267,90.661 49.655,87.41 50.931,84.468C52.207,81.525 54.315,79.02 56.997,77.261C59.678,75.501 62.815,74.564 66.022,74.564C69.229,74.564 72.366,75.501 75.047,77.261C77.728,79.02 79.836,81.525 81.112,84.468C82.388,87.41 82.777,90.661 82.229,93.821C81.682,96.981 80.223,99.911 78.031,102.253L78.024,102.253Z" fill="#2437AC"/>
<path d="M66.014,78.089C64.633,78.012 63.26,78.351 62.074,79.063C60.888,79.774 59.943,80.825 59.361,82.08C58.779,83.334 58.586,84.735 58.809,86.1C59.031,87.465 59.658,88.732 60.609,89.737C61.559,90.742 62.789,91.438 64.14,91.736C65.49,92.034 66.899,91.92 68.184,91.409C69.469,90.898 70.571,90.012 71.348,88.868C72.124,87.723 72.539,86.372 72.539,84.989C72.586,83.209 71.925,81.484 70.702,80.191C69.479,78.898 67.793,78.142 66.014,78.089ZM66.014,89.427C65.119,89.506 64.222,89.312 63.439,88.872C62.656,88.432 62.025,87.766 61.627,86.961C61.23,86.155 61.085,85.249 61.212,84.36C61.338,83.471 61.73,82.641 62.337,81.979C62.943,81.317 63.736,80.853 64.61,80.649C65.485,80.445 66.4,80.51 67.237,80.835C68.074,81.161 68.793,81.731 69.3,82.473C69.807,83.214 70.079,84.091 70.078,84.989C70.125,86.116 69.724,87.216 68.962,88.048C68.201,88.88 67.141,89.377 66.014,89.43L66.014,89.427Z" fill="#2437AC"/>
<path d="M39.924,39.969C36.842,39.969 33.83,40.883 31.267,42.595C28.705,44.307 26.707,46.741 25.528,49.588C24.349,52.436 24.04,55.569 24.641,58.591C25.242,61.614 26.727,64.391 28.906,66.57C31.085,68.749 33.862,70.233 36.884,70.835C39.907,71.436 43.04,71.127 45.888,69.948C48.735,68.769 51.169,66.771 52.881,64.209C54.593,61.646 55.507,58.633 55.507,55.551C55.502,51.42 53.859,47.459 50.938,44.538C48.017,41.617 44.056,39.973 39.924,39.969ZM51.778,61.14L47.826,61.14C48.113,59.703 48.285,58.245 48.341,56.78L52.981,56.78C52.838,58.293 52.431,59.768 51.778,61.14ZM28.07,49.96L32.022,49.96C31.736,51.397 31.564,52.855 31.507,54.32L26.867,54.32C27.01,52.807 27.418,51.332 28.07,49.96ZM41.155,47.499L41.155,42.767C42.437,43.437 43.679,45.105 44.574,47.501L41.155,47.499ZM45.303,49.96C45.624,51.393 45.816,52.852 45.876,54.32L41.155,54.32L41.155,49.96L45.303,49.96ZM38.694,42.766L38.694,47.499L35.275,47.499C36.17,45.109 37.411,43.437 38.694,42.767L38.694,42.766ZM38.694,49.96L38.694,54.32L33.972,54.32C34.033,52.852 34.225,51.393 34.546,49.96L38.694,49.96ZM26.865,56.78L31.506,56.78C31.562,58.245 31.734,59.703 32.021,61.14L28.069,61.14C27.416,59.768 27.009,58.293 26.865,56.78ZM33.972,56.78L38.694,56.78L38.694,61.14L34.546,61.14C34.225,59.707 34.033,58.248 33.972,56.78ZM38.694,63.601L38.694,68.334C37.411,67.666 36.17,65.996 35.275,63.601L38.694,63.601ZM41.155,68.334L41.155,63.601L44.574,63.601C43.679,65.997 42.437,67.666 41.155,68.334ZM41.155,61.14L41.155,56.78L45.876,56.78C45.816,58.248 45.624,59.707 45.303,61.14L41.155,61.14ZM48.341,54.32C48.285,52.855 48.113,51.397 47.826,49.96L51.778,49.96C52.432,51.332 52.84,52.807 52.984,54.32L48.341,54.32ZM50.263,47.499L47.19,47.499C46.769,46.149 46.179,44.859 45.432,43.658C47.324,44.538 48.98,45.854 50.263,47.499ZM34.413,43.659C33.668,44.86 33.079,46.15 32.659,47.499L29.586,47.499C30.868,45.855 32.523,44.539 34.413,43.659ZM29.585,63.601L32.659,63.601C33.079,64.95 33.668,66.241 34.413,67.442C32.523,66.562 30.868,65.245 29.585,63.601ZM45.435,67.443C46.181,66.242 46.772,64.951 47.193,63.601L50.267,63.601C48.983,65.246 47.327,66.562 45.435,67.443Z" fill="#2437AC"/>
</svg>
