<svg width="40" height="42" viewBox="0 0 40 42" fill="none" xmlns="http://www.w3.org/2000/svg" xmlns:xlink="http://www.w3.org/1999/xlink">
<path d="M38.6,5.34C38.524,5.18 38.387,5.057 38.221,4.998L24.392,0.116C24.045,-0.006 23.664,0.176 23.541,0.523L20.4,9.412L19.026,9.412L19.026,7.145C19.026,6.839 18.956,6.537 18.82,6.262C18.685,5.987 18.489,5.747 18.246,5.561C18.004,5.374 17.721,5.245 17.421,5.185C17.121,5.124 16.811,5.134 16.515,5.212L0.497,9.434L0.497,9.446C0.356,9.481 0.23,9.563 0.14,9.677C0.05,9.792 0.001,9.933 0,10.078L0,38.078C0,39.183 0.895,40.078 2,40.078L20.667,40.078C21.771,40.078 22.667,39.183 22.667,38.078L22.667,32.029L28.013,33.917C28.361,34.039 28.741,33.857 28.864,33.51L38.629,5.849C38.657,5.767 38.67,5.679 38.665,5.592C38.66,5.504 38.638,5.419 38.6,5.34L38.6,5.34ZM16.855,6.497C16.954,6.471 17.057,6.468 17.157,6.489C17.257,6.509 17.352,6.552 17.432,6.614C17.513,6.676 17.579,6.756 17.624,6.848C17.669,6.939 17.693,7.04 17.693,7.142L17.693,9.412L5.807,9.412L16.855,6.497ZM21.333,38.078C21.333,38.255 21.263,38.425 21.138,38.55C21.013,38.675 20.843,38.745 20.667,38.745L2,38.745C1.823,38.745 1.654,38.675 1.529,38.55C1.404,38.425 1.333,38.255 1.333,38.078L1.333,10.745L20.667,10.745C20.843,10.745 21.013,10.815 21.138,10.94C21.263,11.065 21.333,11.235 21.333,11.412L21.333,38.078ZM26.813,13.283L27.667,12.878L28.073,13.729L24.834,22.896C24.775,23.063 24.785,23.246 24.861,23.406L25.555,24.858L25.341,25.466L24.019,24.097C23.947,24.022 23.859,23.965 23.761,23.931C23.664,23.896 23.559,23.884 23.457,23.897L22.667,23.997L22.667,23.104L23.235,22.832C23.395,22.755 23.518,22.619 23.577,22.452L24.91,18.682L26.813,13.283ZM28.071,17.733L29.424,19.908L29.193,20.563L27.573,19.145L28.071,17.733ZM22.667,21.024L22.667,19.192L23.323,19.165L22.667,21.024ZM23.8,17.811L22.667,17.858L22.667,16.97L24.299,16.401L23.8,17.811ZM27.828,32.437L22.667,30.615L22.667,25.341L23.291,25.263L25.133,27.168C25.196,27.232 25.271,27.283 25.353,27.317C25.435,27.351 25.524,27.369 25.613,27.368C25.661,27.369 25.708,27.363 25.755,27.353C25.866,27.329 25.969,27.277 26.054,27.202C26.139,27.126 26.203,27.031 26.241,26.924L26.908,25.038C26.967,24.871 26.957,24.688 26.88,24.528L26.183,23.078L27.095,20.495L29.054,22.212C29.176,22.318 29.332,22.377 29.494,22.377C29.55,22.377 29.607,22.37 29.662,22.355C29.767,22.327 29.864,22.275 29.945,22.201C30.025,22.127 30.086,22.035 30.122,21.933L30.789,20.046C30.822,19.952 30.834,19.852 30.823,19.752C30.812,19.653 30.779,19.557 30.726,19.472L28.639,16.12L29.421,13.908C29.45,13.825 29.462,13.738 29.458,13.65C29.453,13.562 29.431,13.477 29.393,13.398L28.58,11.697C28.542,11.618 28.489,11.547 28.424,11.489C28.359,11.43 28.283,11.385 28.201,11.356C28.118,11.327 28.03,11.314 27.943,11.319C27.855,11.323 27.77,11.345 27.691,11.383L25.989,12.196C25.91,12.234 25.84,12.287 25.781,12.352C25.723,12.417 25.678,12.493 25.649,12.576L24.867,14.791L22.667,15.558L22.667,11.412C22.666,11.07 22.578,10.735 22.41,10.438C22.243,10.141 22.002,9.891 21.711,9.714L22.8,6.624L23.045,5.931L24.578,1.598L37.151,6.036L27.828,32.437Z" fill="#FFFFFF"/>
<path d="M33.088,10.259L33.532,9.001L34.675,9.405L34.231,10.662L33.088,10.259ZM23.944,7.031L24.388,5.773L25.531,6.177L25.087,7.434L23.944,7.031ZM30.802,9.452L31.246,8.194L32.389,8.598L31.945,9.855L30.802,9.452ZM26.23,7.838L26.674,6.581L27.817,6.984L27.373,8.242L26.23,7.838ZM28.516,8.644L28.96,7.387L30.103,7.791L29.659,9.048L28.516,8.644ZM11.026,13.414C7.344,13.414 4.359,16.399 4.359,20.081C4.359,23.763 7.344,26.747 11.026,26.747C14.708,26.747 17.693,23.763 17.693,20.081C17.689,16.401 14.706,13.418 11.026,13.414ZM15.84,17.801L14.931,17.601C14.531,17.513 14.13,17.443 13.726,17.383C13.666,16.979 13.593,16.578 13.507,16.179L13.307,15.269C14.417,15.798 15.311,16.692 15.84,17.801ZM5.693,20.081C5.694,19.808 5.716,19.536 5.759,19.267L7.408,18.9C7.661,18.844 7.915,18.797 8.171,18.753C8.106,19.637 8.106,20.524 8.171,21.408C7.915,21.364 7.661,21.317 7.408,21.261L5.759,20.895C5.716,20.626 5.694,20.353 5.693,20.081L5.693,20.081ZM9.523,18.579C10.523,18.49 11.528,18.49 12.527,18.579C12.617,19.578 12.617,20.583 12.527,21.583C11.528,21.672 10.523,21.672 9.523,21.583C9.434,20.583 9.434,19.578 9.523,18.579ZM13.879,18.753C14.134,18.797 14.389,18.844 14.641,18.9L16.29,19.267C16.382,19.806 16.382,20.356 16.29,20.895L14.641,21.261C14.389,21.317 14.134,21.364 13.879,21.409C13.943,20.525 13.943,19.637 13.879,18.753ZM11.839,14.814L12.206,16.463C12.262,16.716 12.309,16.971 12.354,17.226C11.469,17.161 10.582,17.161 9.698,17.226C9.742,16.971 9.789,16.716 9.845,16.463L10.212,14.814C10.751,14.723 11.301,14.723 11.839,14.814ZM8.746,15.265L8.546,16.174C8.458,16.574 8.388,16.974 8.327,17.378C7.924,17.439 7.522,17.511 7.123,17.597L6.214,17.797C6.743,16.688 7.637,15.795 8.746,15.267L8.746,15.265ZM6.212,22.358L7.122,22.558C7.522,22.646 7.922,22.716 8.326,22.777C8.386,23.18 8.459,23.582 8.544,23.981L8.745,24.89C7.635,24.362 6.74,23.469 6.211,22.36L6.212,22.358ZM10.212,25.343L9.846,23.694C9.789,23.442 9.743,23.187 9.698,22.932C10.14,22.964 10.583,22.986 11.027,22.986C11.47,22.986 11.912,22.964 12.354,22.932C12.31,23.187 12.263,23.442 12.207,23.694L11.84,25.343C11.301,25.435 10.751,25.435 10.212,25.343ZM13.306,24.893L13.506,23.983C13.595,23.583 13.664,23.183 13.725,22.779C14.129,22.719 14.53,22.646 14.929,22.561L15.838,22.361C15.31,23.471 14.416,24.366 13.305,24.895L13.306,24.893ZM5.693,32.081L16.359,32.081L16.359,33.414L5.693,33.414L5.693,32.081ZM7.026,34.747L15.026,34.747L15.026,36.081L7.026,36.081L7.026,34.747ZM10.359,29.414L11.693,29.414L11.693,30.747L10.359,30.747L10.359,29.414ZM7.693,29.414L9.026,29.414L9.026,30.747L7.693,30.747L7.693,29.414ZM13.026,29.414L14.359,29.414L14.359,30.747L13.026,30.747L13.026,29.414Z" fill="#FFFFFF"/>
</svg>
