<svg width="80" height="80" viewBox="0 0 80 80" fill="none" xmlns="http://www.w3.org/2000/svg" xmlns:xlink="http://www.w3.org/1999/xlink">
<path d="M70.615,47.915C73.246,40.16 73.176,31.742 70.417,24.032C67.657,16.321 62.37,9.771 55.415,5.447C48.461,1.122 40.248,-0.722 32.112,0.214C23.976,1.15 16.396,4.812 10.605,10.602C4.814,16.393 1.153,23.973 0.216,32.109C-0.72,40.245 1.124,48.458 5.448,55.413C9.772,62.368 16.322,67.655 24.033,70.415C31.743,73.174 40.161,73.244 47.916,70.613C49.112,73.017 50.863,75.101 53.024,76.695C55.185,78.288 57.694,79.345 60.344,79.778C62.994,80.21 65.709,80.006 68.264,79.183C70.82,78.359 73.143,76.939 75.042,75.041C76.94,73.142 78.36,70.819 79.184,68.264C80.007,65.708 80.211,62.993 79.779,60.343C79.346,57.693 78.29,55.184 76.696,53.023C75.103,50.862 73.018,49.111 70.615,47.915ZM68.594,47.065C64.434,45.622 59.876,45.863 55.891,47.735L57.494,44.937C57.589,44.771 57.638,44.584 57.638,44.393L57.638,39.221L61.037,35.725C61.236,35.521 61.347,35.247 61.346,34.962L61.346,30.513C61.346,30.274 61.268,30.042 61.124,29.852C60.979,29.661 60.777,29.524 60.546,29.46L54.546,27.787L52.328,23.446C52.249,23.292 52.135,23.16 51.996,23.058C51.856,22.957 51.694,22.89 51.524,22.863L43.018,21.525L43.018,20.69L54.5,18.149L58.791,22.437C58.996,22.642 59.274,22.757 59.565,22.757L67.552,22.757C70.882,30.454 71.253,39.109 68.594,47.062L68.594,47.065ZM66.506,20.572L60.017,20.572L55.625,16.178C55.495,16.049 55.335,15.953 55.158,15.902C54.982,15.85 54.795,15.844 54.616,15.883L41.688,18.744C41.445,18.798 41.227,18.933 41.071,19.127C40.915,19.321 40.83,19.563 40.83,19.812L40.83,22.46C40.83,22.721 40.923,22.973 41.093,23.171C41.262,23.369 41.497,23.5 41.754,23.54L50.633,24.937L52.816,29.209C52.885,29.344 52.981,29.463 53.098,29.558C53.215,29.654 53.351,29.724 53.496,29.765L59.159,31.343L59.159,34.518L55.76,38.014C55.562,38.218 55.451,38.492 55.451,38.777L55.451,44.101L51.84,50.407C50.378,51.703 49.15,53.241 48.21,54.953L45.772,54.953L45.772,51.491C45.772,51.339 45.74,51.189 45.679,51.051C45.618,50.912 45.529,50.787 45.418,50.685L40.688,46.348L40.688,41.319C40.688,41.095 40.619,40.876 40.49,40.692C40.361,40.508 40.179,40.368 39.968,40.292L30.198,36.739L30.198,28.614L36.581,21.721C36.685,21.609 36.764,21.477 36.813,21.333C36.863,21.189 36.882,21.037 36.869,20.885C36.856,20.733 36.812,20.586 36.739,20.453C36.665,20.319 36.565,20.202 36.445,20.11L30.606,15.631L35.391,8.881L45.155,8.881C45.445,8.881 45.723,8.765 45.928,8.56L49.59,4.9C56.869,8.014 62.846,13.552 66.506,20.572ZM14.267,10.27L17.013,15.927L14.802,17.033C14.693,17.087 14.594,17.159 14.509,17.246L9.318,22.543C9.175,22.689 9.075,22.873 9.031,23.073C8.987,23.273 9,23.482 9.068,23.675L9.813,25.767C8.959,26.293 8.186,26.94 7.518,27.687L3.108,28.429C4.793,21.34 8.703,14.976 14.267,10.27ZM2.196,36.586L5.779,36.586L14.819,39.987L19.444,47.817L19.444,50.95L18.089,53.008C17.941,53.233 17.881,53.505 17.921,53.771C17.96,54.038 18.097,54.28 18.305,54.452L18.649,54.736L15.368,56.697C15.206,56.794 15.072,56.931 14.978,57.096C14.885,57.26 14.836,57.446 14.836,57.635L14.836,62.737C10.93,59.581 7.771,55.599 5.585,51.078C3.4,46.557 2.242,41.608 2.196,36.586ZM36.269,70.349C29.394,70.355 22.68,68.27 17.019,64.37C17.019,64.357 17.023,64.343 17.023,64.33L17.023,58.257L21.099,55.819C21.249,55.729 21.376,55.605 21.468,55.456C21.561,55.307 21.616,55.138 21.629,54.964C21.642,54.789 21.614,54.614 21.545,54.452C21.477,54.291 21.37,54.149 21.235,54.037L20.455,53.392L21.451,51.88C21.569,51.702 21.632,51.493 21.631,51.278L21.631,47.517C21.632,47.322 21.579,47.13 21.48,46.962L16.507,38.543C16.38,38.328 16.184,38.163 15.95,38.075L6.363,34.468C6.239,34.422 6.109,34.399 5.978,34.398L2.241,34.398C2.309,33.168 2.444,31.941 2.645,30.725L8.27,29.778C8.53,29.735 8.765,29.599 8.933,29.395C9.675,28.497 10.598,27.766 11.642,27.249C11.881,27.13 12.068,26.927 12.168,26.679C12.268,26.432 12.273,26.156 12.184,25.904L11.359,23.584L15.944,18.906L18.958,17.398C19.216,17.27 19.412,17.045 19.505,16.772C19.597,16.499 19.579,16.201 19.453,15.942L16.021,8.874C20.457,5.584 25.629,3.425 31.088,2.583C36.547,1.742 42.128,2.244 47.35,4.046L44.702,6.693L34.825,6.693C34.65,6.694 34.478,6.735 34.323,6.816C34.168,6.896 34.034,7.012 33.933,7.155L28.212,15.225C28.049,15.456 27.981,15.741 28.023,16.021C28.065,16.301 28.214,16.553 28.439,16.725L34.161,21.114L28.302,27.437C28.114,27.639 28.01,27.905 28.01,28.18L28.01,37.505C28.01,37.73 28.079,37.949 28.208,38.133C28.337,38.317 28.519,38.456 28.73,38.533L38.5,42.085L38.5,46.829C38.5,46.981 38.532,47.131 38.593,47.269C38.654,47.408 38.743,47.533 38.855,47.635L43.585,51.972L43.585,56.047C43.585,56.337 43.7,56.615 43.906,56.82C44.111,57.025 44.389,57.14 44.679,57.14L47.208,57.14C45.828,60.825 45.778,64.876 47.066,68.593C43.586,69.758 39.939,70.351 36.269,70.349ZM63.068,77.812C60.151,77.812 57.3,76.947 54.875,75.327C52.45,73.707 50.56,71.404 49.444,68.709C48.328,66.015 48.036,63.05 48.605,60.189C49.174,57.329 50.578,54.702 52.64,52.639C54.703,50.577 57.33,49.173 60.19,48.604C63.051,48.035 66.016,48.327 68.71,49.443C71.405,50.559 73.708,52.449 75.328,54.874C76.948,57.299 77.813,60.15 77.813,63.067C77.808,66.976 76.253,70.724 73.489,73.488C70.725,76.252 66.977,77.807 63.068,77.812Z" fill="#FFFFFF"/>
<path d="M74.777,56.888L73.386,55.497C72.708,54.819 71.788,54.438 70.829,54.438C69.87,54.438 68.95,54.819 68.271,55.497L65.354,58.414L60.379,57.262C59.711,57.105 59.015,57.122 58.356,57.311C57.696,57.5 57.096,57.854 56.613,58.341L55.464,59.491C55.338,59.616 55.244,59.771 55.192,59.941C55.139,60.111 55.129,60.292 55.162,60.467C55.195,60.642 55.27,60.806 55.381,60.946C55.492,61.085 55.636,61.195 55.799,61.266L60.464,63.304L58.627,65.141L54.258,65.546C54.004,65.568 53.766,65.679 53.585,65.858L51.355,68.087C51.22,68.222 51.123,68.39 51.073,68.574C51.023,68.758 51.022,68.951 51.07,69.136C51.118,69.32 51.213,69.489 51.347,69.625C51.48,69.762 51.646,69.861 51.829,69.913L57.287,71.466C58.339,71.765 59.451,71.778 60.51,71.503C61.568,71.228 62.534,70.676 63.308,69.903L74.777,58.434C74.879,58.332 74.959,58.212 75.014,58.079C75.069,57.946 75.098,57.804 75.098,57.661C75.098,57.517 75.069,57.375 75.014,57.242C74.959,57.109 74.879,56.99 74.777,56.888ZM61.761,68.357C61.263,68.855 60.641,69.21 59.96,69.387C59.279,69.564 58.563,69.556 57.886,69.364L54.219,68.321L54.853,67.687L59.223,67.282C59.476,67.26 59.714,67.149 59.895,66.969L63.145,63.719C63.271,63.593 63.364,63.439 63.417,63.269C63.469,63.098 63.479,62.918 63.446,62.743C63.413,62.568 63.338,62.404 63.227,62.265C63.116,62.126 62.973,62.016 62.809,61.944L58.144,59.906L58.161,59.89C58.382,59.667 58.657,59.505 58.958,59.418C59.26,59.332 59.579,59.324 59.885,59.396L65.452,60.685C65.633,60.727 65.821,60.722 66,60.671C66.178,60.62 66.34,60.524 66.471,60.392L69.818,57.047C70.09,56.786 70.452,56.641 70.829,56.641C71.205,56.641 71.567,56.786 71.839,57.047L72.457,57.664L61.761,68.357Z" fill="#FFFFFF"/>
</svg>
