<svg width="120" height="130" viewBox="0 0 120 130" fill="none" xmlns="http://www.w3.org/2000/svg" xmlns:xlink="http://www.w3.org/1999/xlink">
<path d="M101.352,25.82C106.227,25.82 110.289,21.859 110.289,16.883C110.289,11.906 106.227,8.047 101.352,8.047C96.477,8.047 92.414,12.008 92.414,16.984C92.414,21.859 96.375,25.82 101.352,25.82ZM101.352,11.602C104.297,11.602 106.734,14.039 106.734,16.984C106.734,19.93 104.297,22.367 101.352,22.367C98.406,22.367 95.969,19.93 95.969,16.984C95.969,14.039 98.305,11.602 101.352,11.602Z" fill="#FFFFFF"/>
<path d="M112.016,46.437C110.391,42.984 108.461,39.633 106.227,36.586C111.102,33.336 118.312,26.937 118.312,16.984C118.312,7.539 110.695,0.023 101.352,0.023C92.008,0.023 84.289,7.539 84.289,16.984L84.289,18.102C82.969,17.492 81.648,16.883 80.328,16.273C42.141,0.937 -0.109,28.664 -0.313,70.812C-0.414,103.312 25.789,129.719 58.289,129.82C90.789,129.922 117.195,103.719 117.297,71.219C117.297,71.016 117.297,70.914 117.297,70.711C117.297,62.383 115.469,54.055 112.016,46.437ZM101.352,3.477C108.766,3.477 114.758,9.469 114.859,16.984C114.859,27.648 104.297,33.945 101.352,35.367C98.508,33.844 87.844,27.648 87.844,16.984C87.844,9.469 93.836,3.477 101.352,3.477ZM100.539,39.023C101.047,39.227 101.555,39.227 101.961,39.023C102.062,39.023 102.469,38.82 103.078,38.414C104.703,40.648 106.125,42.984 107.445,45.422L96.883,45.422L89.773,38.312C89.367,37.906 88.758,37.703 88.148,37.805L67.227,42.477C66.414,42.68 65.805,43.391 65.805,44.203L65.805,48.469C65.805,49.383 66.414,50.094 67.328,50.195L81.75,52.43L85.305,59.336C85.508,59.742 85.914,60.148 86.422,60.25L95.562,62.789L95.562,67.969L90.078,73.656C89.773,73.961 89.57,74.469 89.57,74.875L89.57,83.508L79.516,101.078L73.93,101.078L73.93,95.492C73.93,94.984 73.727,94.477 73.32,94.172L65.602,87.164L65.602,79.039C65.602,78.328 65.094,77.617 64.484,77.414L48.641,71.625L48.641,58.422L59,47.25C59.711,46.539 59.609,45.422 58.898,44.711L58.797,44.609L49.352,37.297L57.07,26.328L72.914,26.328C73.422,26.328 73.828,26.125 74.133,25.82L80.023,19.93C81.648,20.641 83.375,21.453 85,22.367C88.25,33.336 100.031,38.719 100.539,39.023ZM22.844,28.664L27.312,37.906L23.758,39.734C23.555,39.836 23.453,39.937 23.25,40.039L14.82,48.672C14.312,49.18 14.211,49.891 14.414,50.5L15.633,53.953C14.312,54.766 12.992,55.883 11.977,57L4.766,58.219C7.406,46.641 13.805,36.281 22.844,28.664ZM24.57,86.656C21.727,85.133 11.062,78.937 11.062,68.273C11.164,60.859 17.258,54.867 24.672,54.969C31.984,55.07 37.977,60.961 37.977,68.273C37.977,78.937 27.414,85.234 24.57,86.656ZM3.344,67.867C3.445,65.836 3.648,63.906 3.953,61.875L9.133,60.961C8.117,63.094 7.508,65.43 7.508,67.766L3.344,67.766L3.344,67.867ZM23.758,105.547L23.758,113.875C10.961,103.516 3.445,87.977 3.242,71.422L7.812,71.422C9.742,83.914 23.25,90.008 23.859,90.312C24.367,90.516 24.875,90.516 25.281,90.312C26.703,89.602 28.023,88.891 29.344,87.977L31.172,89.805L31.172,94.68L28.937,98.031C28.43,98.742 28.633,99.758 29.242,100.367L29.75,100.875L24.469,104.023C24.062,104.328 23.758,104.836 23.758,105.547ZM58.492,126.164C47.32,126.164 36.453,122.812 27.312,116.516L27.312,106.562L33.914,102.602C34.727,102.094 35.031,100.977 34.523,100.164C34.422,99.961 34.32,99.859 34.117,99.758L32.898,98.742L34.523,96.305C34.727,96 34.828,95.695 34.828,95.289L34.828,89.195C34.828,88.687 34.625,88.281 34.32,87.977L32.391,86.047C36.859,82.492 41.734,76.602 41.734,68.477C41.734,59.133 34.219,51.516 24.773,51.516C22.742,51.516 20.812,51.82 18.883,52.531L18.172,50.5L25.586,42.883L30.461,40.445C31.375,40.039 31.68,38.922 31.273,38.109L25.687,26.633C40.312,15.867 59.305,12.922 76.469,18.812L72.203,22.875L56.156,22.875C55.547,22.875 55.039,23.18 54.734,23.586L45.492,36.687C44.984,37.5 45.086,38.516 45.898,39.125L55.141,46.234L45.594,56.492C45.289,56.797 45.086,57.203 45.086,57.711L45.086,72.844C45.086,73.555 45.594,74.266 46.203,74.469L62.047,80.258L62.047,87.977C62.047,88.484 62.25,88.992 62.656,89.297L70.375,96.305L70.375,102.906C70.375,103.922 71.187,104.633 72.102,104.633L80.531,104.633C81.141,104.633 81.75,104.328 82.055,103.719L92.922,84.828C93.125,84.523 93.125,84.219 93.125,83.914L93.125,75.484L98.609,70C98.914,69.695 99.117,69.187 99.117,68.781L99.117,61.57C99.117,60.758 98.609,60.047 97.797,59.844L88.047,57.102L84.492,50.094C84.187,49.586 83.781,49.281 83.172,49.18L69.359,47.047L69.359,45.625L87.945,41.461L94.953,48.469C95.258,48.773 95.766,48.977 96.172,48.977L109.172,48.977C112.219,55.883 113.742,63.297 113.742,70.914C113.742,101.383 88.961,126.062 58.492,126.164Z" fill="#FFFFFF"/>
<path d="M24.57,59.336C19.695,59.336 15.633,63.297 15.633,68.273C15.633,73.148 19.594,77.211 24.57,77.211C29.547,77.211 33.508,73.25 33.508,68.273C33.406,63.398 29.445,59.336 24.57,59.336ZM24.57,73.656C21.625,73.656 19.187,71.219 19.187,68.273C19.187,65.328 21.625,62.891 24.57,62.891C27.516,62.891 29.953,65.328 29.953,68.273C29.953,71.219 27.516,73.656 24.57,73.656Z" fill="#FFFFFF"/>
</svg>
