<svg width="130" height="106" viewBox="0 0 130 106" fill="none" xmlns="http://www.w3.org/2000/svg" xmlns:xlink="http://www.w3.org/1999/xlink">
<path d="M20.662,93.973L11.68,93.973L11.68,86.199C11.68,85.728 11.492,85.276 11.159,84.942C10.826,84.609 10.374,84.422 9.902,84.422C9.431,84.422 8.979,84.609 8.646,84.942C8.312,85.276 8.125,85.728 8.125,86.199L8.125,95.746C8.125,96.217 8.312,96.67 8.646,97.003C8.979,97.336 9.431,97.523 9.902,97.523L20.662,97.523C21.133,97.523 21.585,97.336 21.919,97.003C22.252,96.67 22.439,96.217 22.439,95.746C22.439,95.275 22.252,94.823 21.919,94.489C21.585,94.156 21.133,93.969 20.662,93.969L20.662,93.973Z" fill="#2437AC"/>
<path d="M120.097,84.422C119.864,84.422 119.633,84.468 119.417,84.557C119.201,84.646 119.005,84.777 118.84,84.942C118.675,85.107 118.544,85.303 118.455,85.519C118.366,85.735 118.32,85.966 118.32,86.199L118.32,93.973L109.338,93.973C108.867,93.973 108.414,94.16 108.081,94.493C107.748,94.827 107.561,95.279 107.561,95.75C107.561,96.222 107.748,96.674 108.081,97.007C108.414,97.34 108.867,97.527 109.338,97.527L120.097,97.527C120.331,97.528 120.562,97.482 120.778,97.392C120.993,97.303 121.189,97.172 121.354,97.007C121.52,96.842 121.65,96.646 121.74,96.43C121.829,96.215 121.875,95.984 121.875,95.75L121.875,86.203C121.875,85.969 121.83,85.738 121.741,85.522C121.652,85.306 121.521,85.109 121.356,84.944C121.191,84.778 120.995,84.647 120.779,84.557C120.563,84.468 120.331,84.422 120.097,84.422Z" fill="#2437AC"/>
<path d="M128.223,26.651L109.23,26.651L102.208,1.649C102.104,1.275 101.88,0.947 101.571,0.713C101.262,0.478 100.885,0.352 100.497,0.352L29.5,0.352C29.112,0.352 28.735,0.478 28.426,0.713C28.117,0.947 27.893,1.275 27.789,1.649L20.765,26.651L1.777,26.651C1.306,26.651 0.855,26.838 0.522,27.171C0.188,27.503 0.001,27.955 0,28.426L0,96.766C0.003,99.122 0.94,101.381 2.606,103.047C4.272,104.713 6.531,105.65 8.887,105.653L121.113,105.653C123.469,105.65 125.728,104.713 127.394,103.047C129.06,101.381 129.997,99.122 130,96.766L130,28.426C129.999,27.955 129.812,27.503 129.479,27.17C129.145,26.838 128.694,26.651 128.223,26.651ZM30.847,3.906L99.153,3.906L105.541,26.651L98.685,26.651L94.514,11.805C94.409,11.432 94.186,11.103 93.877,10.869C93.568,10.635 93.191,10.508 92.804,10.508L37.196,10.508C36.809,10.508 36.432,10.635 36.123,10.869C35.814,11.103 35.59,11.432 35.485,11.805L31.315,26.651L24.457,26.651L30.847,3.906ZM94.993,26.651L35.008,26.651L38.543,14.063L91.457,14.063L94.993,26.651ZM3.555,30.206L126.445,30.206L126.445,51.683C126.444,53.097 125.881,54.452 124.882,55.452C123.882,56.451 122.527,57.014 121.113,57.015L8.887,57.015C7.473,57.014 6.118,56.451 5.118,55.452C4.119,54.452 3.556,53.097 3.555,51.683L3.555,30.206ZM89.477,60.566L89.477,71.027L82.875,71.027L82.875,60.566L89.477,60.566ZM47.125,60.566L47.125,71.027L40.523,71.027L40.523,60.566L47.125,60.566ZM126.445,96.769C126.444,98.183 125.881,99.538 124.882,100.537C123.882,101.537 122.527,102.099 121.113,102.101L8.887,102.101C7.473,102.099 6.118,101.537 5.118,100.537C4.119,99.538 3.556,98.183 3.555,96.769L3.555,58.785C5.095,59.935 6.964,60.559 8.887,60.566L36.969,60.566L36.969,72.808C36.969,73.28 37.156,73.732 37.489,74.065C37.823,74.398 38.275,74.586 38.746,74.586L48.902,74.586C49.374,74.585 49.826,74.398 50.159,74.065C50.492,73.732 50.679,73.28 50.68,72.808L50.68,60.565L79.32,60.565L79.32,72.808C79.32,73.28 79.508,73.732 79.841,74.065C80.174,74.398 80.626,74.586 81.098,74.586L91.254,74.586C91.725,74.585 92.177,74.398 92.51,74.065C92.844,73.732 93.031,73.28 93.031,72.808L93.031,60.565L121.113,60.565C123.036,60.558 124.905,59.933 126.445,58.784L126.445,96.769Z" fill="#2437AC"/>
</svg>
