<svg width="90" height="78" viewBox="0 0 90 78" fill="none" xmlns="http://www.w3.org/2000/svg" xmlns:xlink="http://www.w3.org/1999/xlink">
<path d="M13.359,34.195C13.359,42.703 20.25,49.734 28.898,49.734C37.477,49.734 44.438,42.773 44.438,34.195C44.438,25.758 37.617,18.656 28.898,18.656C20.391,18.656 13.359,25.617 13.359,34.195ZM40.711,39.75L36.773,39.75C37.055,38.344 37.266,36.867 37.266,35.391L41.906,35.391C41.836,36.937 41.414,38.414 40.711,39.75ZM15.891,35.391L20.531,35.391C20.602,36.867 20.742,38.273 21.023,39.75L17.086,39.75C16.383,38.414 16.031,36.937 15.891,35.391ZM22.992,35.391L27.703,35.391L27.703,39.75L23.555,39.75C23.203,38.344 22.992,36.867 22.992,35.391ZM27.703,42.211L27.703,46.922C26.437,46.289 25.172,44.602 24.258,42.211L27.703,42.211ZM30.164,46.992L30.164,42.281L33.609,42.281C32.625,44.602 31.43,46.289 30.164,46.992ZM30.164,39.75L30.164,35.391L34.875,35.391C34.805,36.867 34.594,38.344 34.313,39.75L30.164,39.75ZM41.977,33L37.336,33C37.266,31.523 37.125,30.117 36.844,28.641L40.781,28.641C41.414,29.977 41.836,31.453 41.977,33ZM34.875,33L30.164,33L30.164,28.641L34.313,28.641C34.594,30.047 34.805,31.523 34.875,33ZM30.164,26.18L30.164,21.469C31.43,22.102 32.695,23.789 33.609,26.18L30.164,26.18ZM27.703,21.398L27.703,26.109L24.258,26.109C25.172,23.789 26.367,22.102 27.703,21.398ZM27.703,28.641L27.703,33L22.992,33C23.062,31.523 23.273,30.047 23.555,28.641L27.703,28.641ZM20.531,33L15.891,33C16.031,31.523 16.453,30.047 17.086,28.641L21.023,28.641C20.742,30.047 20.531,31.523 20.531,33ZM18.562,42.211L21.656,42.211C22.078,43.547 22.641,44.883 23.414,46.078C21.516,45.164 19.898,43.898 18.562,42.211ZM34.383,46.078C35.156,44.883 35.719,43.617 36.141,42.211L39.234,42.211C37.969,43.898 36.281,45.164 34.383,46.078ZM39.234,26.18L36.141,26.18C35.719,24.844 35.156,23.578 34.383,22.312C36.281,23.227 37.969,24.492 39.234,26.18ZM23.414,22.312C22.641,23.508 22.078,24.773 21.656,26.18L18.562,26.18C19.898,24.492 21.516,23.227 23.414,22.312Z" fill="#FFFFFF"/>
<path d="M51.75,53.32L6.117,53.32C5.414,53.32 4.922,53.883 4.922,54.516L4.922,59.297C4.922,60 5.484,60.492 6.117,60.492L51.75,60.492C52.453,60.492 52.945,59.93 52.945,59.297L52.945,54.516C52.945,53.883 52.383,53.32 51.75,53.32ZM50.484,58.102L7.312,58.102L7.312,55.781L50.484,55.781L50.484,58.102Z" fill="#FFFFFF"/>
<path d="M42.117,62.883L15.75,62.883C15.047,62.883 14.555,63.445 14.555,64.078L14.555,68.859C14.555,69.562 15.117,70.055 15.75,70.055L42.117,70.055C42.82,70.055 43.312,69.492 43.312,68.859L43.312,64.078C43.312,63.445 42.75,62.883 42.117,62.883ZM40.851,67.734L16.945,67.734L16.945,65.414L40.851,65.414L40.851,67.734Z" fill="#FFFFFF"/>
<path d="M60.961,22.664L65.25,20.977L65.25,23.086L62.578,26.32C62.367,26.531 62.297,26.812 62.297,27.094L62.297,30.117C62.297,31.031 63.281,31.664 64.125,31.172L68.836,28.57C70.734,27.516 71.93,25.477 71.93,23.297L71.93,7.828C71.93,7.125 71.367,6.633 70.734,6.633L68.836,6.633C66.867,6.633 65.18,8.25 65.18,10.289L65.18,14.086L61.172,16.547C59.977,17.25 59.273,18.586 59.273,19.992L59.273,21.539C59.273,22.383 60.187,23.016 60.961,22.664ZM62.508,18.656L67.148,15.773C67.5,15.562 67.711,15.141 67.711,14.719L67.711,10.219C67.711,9.586 68.203,9.023 68.906,9.023L69.539,9.023L69.539,23.227C69.539,24.492 68.836,25.687 67.711,26.32L64.828,27.937L64.828,27.445L67.43,24.281C67.641,24.07 67.711,23.789 67.711,23.508L67.711,19.148C67.711,18.305 66.867,17.672 66.023,18.023L61.805,19.711C61.805,19.289 62.086,18.867 62.508,18.656Z" fill="#FFFFFF"/>
<path d="M89.578,20.416C62.789,-6.373 72.07,2.908 70.031,0.869C69.539,0.377 68.766,0.377 68.274,0.869L56.32,12.893C54.844,10.783 52.453,9.588 49.922,9.588L48.797,9.588L48.797,1.783C48.797,1.01 48.094,0.447 47.32,0.588L1.055,9.588C0.492,9.729 0.07,10.221 0.07,10.783L0.07,76.525C0.07,77.229 0.633,77.721 1.266,77.721L56.461,77.721C57.164,77.721 57.656,77.158 57.656,76.525L57.656,54.025L89.508,22.174C90.07,21.682 90.07,20.908 89.578,20.416ZM57.445,15.213L69.188,3.471L83.531,17.814C82.195,19.15 60.609,40.736 57.727,43.619L57.727,17.393C57.727,16.619 57.656,15.916 57.445,15.213ZM46.336,3.26L46.336,9.518L14.062,9.518L46.336,3.26ZM2.531,75.26L2.531,11.979L49.922,11.979C52.875,11.979 55.266,14.369 55.266,17.322L55.266,75.189L2.531,75.189L2.531,75.26ZM57.727,50.51L57.727,47.135L85.289,19.572L86.977,21.26L57.727,50.51Z" fill="#FFFFFF"/>
</svg>
