<svg width="130" height="130" viewBox="0 0 130 130" fill="none" xmlns="http://www.w3.org/2000/svg" xmlns:xlink="http://www.w3.org/1999/xlink">
<path d="M128.223,117.367L1.777,117.367C1.306,117.367 0.854,117.555 0.521,117.888C0.188,118.221 0,118.673 0,119.145L0,128.219C0,128.69 0.188,129.142 0.521,129.476C0.854,129.809 1.306,129.996 1.777,129.996L128.223,129.996C128.694,129.996 129.146,129.809 129.479,129.476C129.812,129.142 130,128.69 130,128.219L130,119.145C130,118.673 129.812,118.221 129.479,117.888C129.146,117.555 128.694,117.367 128.223,117.367ZM126.445,126.442L3.555,126.442L3.555,120.922L126.445,120.922L126.445,126.442Z" fill="#FFFFFF"/>
<path d="M10.918,111.654L29.647,111.654C29.881,111.654 30.112,111.608 30.327,111.519C30.543,111.43 30.739,111.299 30.904,111.134C31.069,110.969 31.2,110.773 31.289,110.557C31.379,110.341 31.425,110.11 31.424,109.877L31.424,72.512C31.424,72.04 31.237,71.588 30.904,71.255C30.571,70.922 30.118,70.734 29.647,70.734L10.918,70.734C10.447,70.735 9.995,70.922 9.661,71.255C9.328,71.589 9.141,72.04 9.141,72.512L9.141,109.887C9.143,110.356 9.332,110.806 9.665,111.137C9.998,111.468 10.448,111.654 10.918,111.654ZM12.695,74.284L27.87,74.284L27.87,108.104L12.695,108.104L12.695,74.284Z" fill="#FFFFFF"/>
<path d="M40.727,61.765C40.255,61.765 39.803,61.953 39.47,62.286C39.137,62.619 38.949,63.071 38.949,63.542L38.949,109.88C38.949,110.352 39.136,110.804 39.47,111.137C39.803,111.471 40.255,111.658 40.727,111.658L59.459,111.658C59.692,111.658 59.923,111.612 60.139,111.523C60.355,111.433 60.551,111.303 60.716,111.138C60.881,110.972 61.012,110.776 61.101,110.561C61.19,110.345 61.236,110.114 61.236,109.88L61.236,63.542C61.236,63.071 61.049,62.619 60.716,62.286C60.382,61.952 59.93,61.765 59.459,61.765L40.727,61.765ZM57.681,108.103L42.507,108.103L42.507,65.32L57.681,65.32L57.681,108.103Z" fill="#FFFFFF"/>
<path d="M70.541,79.828C70.308,79.828 70.077,79.874 69.861,79.963C69.645,80.052 69.449,80.183 69.284,80.348C69.119,80.513 68.988,80.709 68.899,80.925C68.81,81.141 68.764,81.372 68.764,81.605L68.764,109.881C68.764,110.114 68.81,110.345 68.899,110.561C68.988,110.777 69.119,110.973 69.284,111.138C69.449,111.303 69.645,111.434 69.861,111.523C70.077,111.612 70.308,111.658 70.541,111.658L89.274,111.658C89.745,111.658 90.197,111.471 90.53,111.137C90.864,110.804 91.051,110.352 91.051,109.881L91.051,81.605C91.051,81.134 90.864,80.682 90.53,80.349C90.197,80.015 89.745,79.828 89.274,79.828L70.541,79.828ZM87.493,108.103L72.319,108.103L72.319,83.383L87.493,83.383L87.493,108.103Z" fill="#FFFFFF"/>
<path d="M100.354,111.658L119.083,111.658C119.554,111.658 120.006,111.471 120.339,111.138C120.673,110.805 120.86,110.352 120.86,109.881L120.86,45.715C120.86,45.243 120.673,44.791 120.339,44.458C120.006,44.125 119.554,43.938 119.083,43.938L100.354,43.938C100.12,43.937 99.889,43.983 99.673,44.073C99.457,44.162 99.262,44.293 99.096,44.458C98.931,44.623 98.8,44.819 98.711,45.035C98.622,45.25 98.576,45.481 98.576,45.715L98.576,109.881C98.576,110.114 98.622,110.346 98.711,110.561C98.8,110.777 98.931,110.973 99.096,111.138C99.262,111.303 99.457,111.434 99.673,111.523C99.889,111.613 100.12,111.658 100.354,111.658ZM102.131,47.492L117.305,47.492L117.305,108.104L102.131,108.104L102.131,47.492Z" fill="#FFFFFF"/>
<path d="M65,54.628C70.402,54.628 75.683,53.026 80.175,50.025C84.667,47.024 88.168,42.758 90.235,37.767C92.302,32.776 92.843,27.284 91.789,21.985C90.735,16.687 88.134,11.82 84.314,8C80.494,4.18 75.627,1.579 70.329,0.525C65.03,-0.529 59.538,0.012 54.547,2.079C49.556,4.147 45.29,7.647 42.289,12.139C39.288,16.631 37.686,21.912 37.686,27.314C37.694,34.556 40.574,41.499 45.695,46.619C50.816,51.74 57.758,54.62 65,54.628ZM51.162,46.61L51.162,44.43C51.165,41.939 52.155,39.551 53.917,37.79C55.678,36.028 58.066,35.038 60.557,35.035L69.443,35.035C71.934,35.038 74.322,36.028 76.083,37.79C77.845,39.551 78.835,41.939 78.838,44.43L78.838,46.61C74.807,49.512 69.967,51.074 65,51.074C60.033,51.074 55.193,49.512 51.162,46.61ZM65,3.555C69.631,3.551 74.162,4.902 78.035,7.441C81.907,9.981 84.953,13.597 86.797,17.845C88.64,22.093 89.201,26.788 88.411,31.35C87.62,35.913 85.512,40.145 82.347,43.526C82.116,40.26 80.656,37.202 78.262,34.968C75.869,32.734 72.718,31.49 69.443,31.484L60.557,31.484C57.283,31.491 54.132,32.737 51.739,34.971C49.347,37.206 47.888,40.264 47.658,43.53C44.492,40.15 42.383,35.918 41.591,31.355C40.8,26.792 41.36,22.097 43.203,17.848C45.046,13.599 48.092,9.982 51.965,7.443C55.838,4.903 60.369,3.552 65,3.555Z" fill="#FFFFFF"/>
<path d="M65,28.557C67.57,28.481 70.006,27.389 71.773,25.52C73.539,23.651 74.494,21.159 74.426,18.588C74.509,17.299 74.326,16.007 73.89,14.792C73.453,13.577 72.772,12.464 71.889,11.522C71.006,10.581 69.938,9.83 68.754,9.317C67.569,8.804 66.291,8.539 65,8.539C63.709,8.539 62.431,8.804 61.246,9.317C60.062,9.83 58.994,10.581 58.111,11.522C57.228,12.464 56.547,13.577 56.11,14.792C55.674,16.007 55.491,17.299 55.574,18.588C55.506,21.159 56.461,23.651 58.227,25.52C59.994,27.389 62.43,28.481 65,28.557ZM65,12.18C66.626,12.256 68.157,12.973 69.257,14.173C70.357,15.374 70.937,16.961 70.871,18.588C70.937,19.399 70.834,20.215 70.569,20.984C70.304,21.753 69.882,22.459 69.33,23.058C68.779,23.656 68.109,24.133 67.364,24.46C66.619,24.786 65.814,24.955 65,24.955C64.186,24.955 63.381,24.786 62.636,24.46C61.891,24.133 61.221,23.656 60.67,23.058C60.118,22.459 59.696,21.753 59.431,20.984C59.166,20.215 59.063,19.399 59.129,18.588C59.063,16.961 59.643,15.374 60.743,14.173C61.843,12.973 63.374,12.256 65,12.18Z" fill="#FFFFFF"/>
</svg>
