<svg width="40" height="42" viewBox="0 0 40 42" fill="none" xmlns="http://www.w3.org/2000/svg" xmlns:xlink="http://www.w3.org/1999/xlink">
<path d="M39.6,5.34C39.524,5.18 39.387,5.057 39.221,4.998L25.392,0.116C25.045,-0.006 24.664,0.176 24.541,0.523L21.4,9.412L20.026,9.412L20.026,7.145C20.026,6.839 19.956,6.537 19.82,6.262C19.685,5.987 19.489,5.747 19.246,5.561C19.004,5.374 18.721,5.245 18.421,5.185C18.121,5.124 17.811,5.134 17.515,5.212L1.497,9.434L1.497,9.446C1.356,9.481 1.23,9.563 1.14,9.677C1.05,9.792 1.001,9.933 1,10.078L1,38.078C1,39.183 1.895,40.078 3,40.078L21.667,40.078C22.771,40.078 23.667,39.183 23.667,38.078L23.667,32.029L29.013,33.917C29.361,34.039 29.741,33.857 29.864,33.51L39.629,5.849C39.657,5.767 39.67,5.679 39.665,5.592C39.66,5.504 39.638,5.419 39.6,5.34L39.6,5.34ZM17.855,6.497C17.954,6.471 18.057,6.468 18.157,6.489C18.257,6.509 18.352,6.552 18.432,6.614C18.513,6.676 18.579,6.756 18.624,6.848C18.669,6.939 18.693,7.04 18.693,7.142L18.693,9.412L6.807,9.412L17.855,6.497ZM22.333,38.078C22.333,38.255 22.263,38.425 22.138,38.55C22.013,38.675 21.843,38.745 21.667,38.745L3,38.745C2.823,38.745 2.654,38.675 2.529,38.55C2.404,38.425 2.333,38.255 2.333,38.078L2.333,10.745L21.667,10.745C21.843,10.745 22.013,10.815 22.138,10.94C22.263,11.065 22.333,11.235 22.333,11.412L22.333,38.078ZM27.813,13.283L28.667,12.878L29.073,13.729L25.834,22.896C25.775,23.063 25.785,23.246 25.861,23.406L26.555,24.858L26.341,25.466L25.019,24.097C24.947,24.022 24.859,23.965 24.761,23.931C24.664,23.896 24.559,23.884 24.457,23.897L23.667,23.997L23.667,23.104L24.235,22.832C24.395,22.755 24.518,22.619 24.577,22.452L25.91,18.682L27.813,13.283ZM29.071,17.733L30.424,19.908L30.193,20.563L28.573,19.145L29.071,17.733ZM23.667,21.024L23.667,19.192L24.323,19.165L23.667,21.024ZM24.8,17.811L23.667,17.858L23.667,16.97L25.299,16.401L24.8,17.811ZM28.828,32.437L23.667,30.615L23.667,25.341L24.291,25.263L26.133,27.168C26.196,27.232 26.271,27.283 26.353,27.317C26.435,27.351 26.524,27.369 26.613,27.368C26.661,27.369 26.708,27.363 26.755,27.353C26.866,27.329 26.969,27.277 27.054,27.202C27.139,27.126 27.203,27.031 27.241,26.924L27.908,25.038C27.967,24.871 27.957,24.688 27.88,24.528L27.183,23.078L28.095,20.495L30.054,22.212C30.176,22.318 30.332,22.377 30.494,22.377C30.55,22.377 30.607,22.37 30.662,22.355C30.767,22.327 30.864,22.275 30.945,22.201C31.025,22.127 31.086,22.035 31.122,21.933L31.789,20.046C31.822,19.952 31.834,19.852 31.823,19.752C31.812,19.653 31.779,19.557 31.726,19.472L29.639,16.12L30.421,13.908C30.45,13.825 30.462,13.738 30.458,13.65C30.453,13.562 30.431,13.477 30.393,13.398L29.58,11.697C29.542,11.618 29.489,11.547 29.424,11.489C29.359,11.43 29.283,11.385 29.201,11.356C29.118,11.327 29.03,11.314 28.943,11.319C28.855,11.323 28.77,11.345 28.691,11.383L26.989,12.196C26.91,12.234 26.84,12.287 26.781,12.352C26.723,12.417 26.678,12.493 26.649,12.576L25.867,14.791L23.667,15.558L23.667,11.412C23.666,11.07 23.578,10.735 23.41,10.438C23.243,10.141 23.002,9.891 22.711,9.714L23.8,6.624L24.045,5.931L25.578,1.598L38.151,6.036L28.828,32.437Z" fill="#2437AC"/>
<path d="M34.088,10.259L34.532,9.001L35.675,9.405L35.231,10.662L34.088,10.259ZM24.944,7.031L25.388,5.773L26.531,6.177L26.087,7.434L24.944,7.031ZM31.802,9.452L32.246,8.194L33.389,8.598L32.945,9.855L31.802,9.452ZM27.23,7.838L27.674,6.581L28.817,6.984L28.373,8.242L27.23,7.838ZM29.516,8.644L29.96,7.387L31.103,7.791L30.659,9.048L29.516,8.644ZM12.026,13.414C8.344,13.414 5.359,16.399 5.359,20.081C5.359,23.763 8.344,26.747 12.026,26.747C15.708,26.747 18.693,23.763 18.693,20.081C18.689,16.401 15.706,13.418 12.026,13.414ZM16.84,17.801L15.931,17.601C15.531,17.513 15.13,17.443 14.726,17.383C14.666,16.979 14.593,16.578 14.507,16.179L14.307,15.269C15.417,15.798 16.311,16.692 16.84,17.801ZM6.693,20.081C6.694,19.808 6.716,19.536 6.759,19.267L8.408,18.9C8.661,18.844 8.915,18.797 9.171,18.753C9.106,19.637 9.106,20.524 9.171,21.408C8.915,21.364 8.661,21.317 8.408,21.261L6.759,20.895C6.716,20.626 6.694,20.353 6.693,20.081L6.693,20.081ZM10.523,18.579C11.523,18.49 12.528,18.49 13.527,18.579C13.617,19.578 13.617,20.583 13.527,21.583C12.528,21.672 11.523,21.672 10.523,21.583C10.434,20.583 10.434,19.578 10.523,18.579ZM14.879,18.753C15.134,18.797 15.389,18.844 15.641,18.9L17.29,19.267C17.382,19.806 17.382,20.356 17.29,20.895L15.641,21.261C15.389,21.317 15.134,21.364 14.879,21.409C14.943,20.525 14.943,19.637 14.879,18.753ZM12.839,14.814L13.206,16.463C13.262,16.716 13.309,16.971 13.354,17.226C12.469,17.161 11.582,17.161 10.698,17.226C10.742,16.971 10.789,16.716 10.845,16.463L11.212,14.814C11.751,14.723 12.301,14.723 12.839,14.814ZM9.746,15.265L9.546,16.174C9.458,16.574 9.388,16.974 9.327,17.378C8.924,17.439 8.522,17.511 8.123,17.597L7.214,17.797C7.743,16.688 8.637,15.795 9.746,15.267L9.746,15.265ZM7.212,22.358L8.122,22.558C8.522,22.646 8.922,22.716 9.326,22.777C9.386,23.18 9.459,23.582 9.544,23.981L9.745,24.89C8.635,24.362 7.74,23.469 7.211,22.36L7.212,22.358ZM11.212,25.343L10.846,23.694C10.789,23.442 10.743,23.187 10.698,22.932C11.14,22.964 11.583,22.986 12.027,22.986C12.47,22.986 12.912,22.964 13.354,22.932C13.31,23.187 13.263,23.442 13.207,23.694L12.84,25.343C12.301,25.435 11.751,25.435 11.212,25.343ZM14.306,24.893L14.506,23.983C14.595,23.583 14.664,23.183 14.725,22.779C15.129,22.719 15.53,22.646 15.929,22.561L16.838,22.361C16.31,23.471 15.416,24.366 14.305,24.895L14.306,24.893ZM6.693,32.081L17.359,32.081L17.359,33.414L6.693,33.414L6.693,32.081ZM8.026,34.747L16.026,34.747L16.026,36.081L8.026,36.081L8.026,34.747ZM11.359,29.414L12.693,29.414L12.693,30.747L11.359,30.747L11.359,29.414ZM8.693,29.414L10.026,29.414L10.026,30.747L8.693,30.747L8.693,29.414ZM14.026,29.414L15.359,29.414L15.359,30.747L14.026,30.747L14.026,29.414Z" fill="#2437AC"/>
</svg>
