<svg width="132" height="130" viewBox="0 0 132 130" fill="none" xmlns="http://www.w3.org/2000/svg" xmlns:xlink="http://www.w3.org/1999/xlink">
<path d="M120.498,36.738C120.498,31.336 118.896,26.054 115.895,21.562C112.893,17.07 108.627,13.569 103.636,11.501C98.645,9.434 93.152,8.893 87.854,9.947C82.555,11.001 77.688,13.602 73.868,17.422C70.047,21.242 67.446,26.11 66.392,31.408C65.338,36.707 65.879,42.199 67.947,47.191C70.014,52.182 73.515,56.448 78.008,59.449C82.5,62.451 87.781,64.052 93.183,64.052C100.425,64.044 107.368,61.164 112.489,56.043C117.609,50.923 120.49,43.98 120.498,36.738ZM69.423,36.738C69.423,32.039 70.816,27.445 73.427,23.537C76.038,19.63 79.748,16.584 84.09,14.786C88.432,12.987 93.209,12.516 97.818,13.433C102.427,14.35 106.661,16.613 109.984,19.936C113.307,23.258 115.571,27.492 116.487,32.101C117.404,36.71 116.934,41.488 115.135,45.83C113.337,50.171 110.292,53.882 106.384,56.493C102.477,59.104 97.883,60.498 93.183,60.498C86.884,60.49 80.845,57.985 76.391,53.531C71.936,49.076 69.43,43.037 69.423,36.738Z" fill="#FFFFFF"/>
<path d="M106.642,91.46L45.324,91.46L45.324,85.44L93.185,85.44C93.43,85.44 93.672,85.388 93.896,85.288L93.902,85.288C95.379,84.636 130.002,68.926 130.002,36.738C130.002,26.974 126.123,17.61 119.218,10.705C112.314,3.801 102.949,-0.078 93.185,-0.078C83.421,-0.078 74.056,3.801 67.152,10.705C60.248,17.61 56.369,26.974 56.369,36.738C56.369,53.469 65.723,65.737 74.913,73.761L44.562,73.761C41.667,73.764 38.892,74.915 36.845,76.962C34.799,79.009 33.647,81.784 33.644,84.679L33.644,92.219C33.647,95.113 34.799,97.889 36.845,99.935C38.892,101.982 41.667,103.134 44.562,103.137L105.88,103.137L105.88,108.401L30.216,108.401C28.86,105.021 26.369,102.218 23.171,100.475C19.973,98.732 16.269,98.156 12.693,98.847C9.117,99.538 5.893,101.452 3.575,104.261C1.256,107.07 -0.012,110.598 -0.012,114.241C-0.012,117.883 1.256,121.411 3.575,124.22C5.893,127.029 9.117,128.943 12.693,129.634C16.269,130.325 19.973,129.749 23.171,128.006C26.369,126.263 28.86,123.46 30.216,120.08L106.642,120.08C109.537,120.077 112.312,118.926 114.359,116.879C116.406,114.832 117.557,112.057 117.56,109.162L117.56,102.375C117.556,99.481 116.404,96.707 114.358,94.66C112.311,92.614 109.536,91.463 106.642,91.46ZM59.923,36.738C59.923,27.917 63.428,19.456 69.666,13.219C75.903,6.981 84.364,3.477 93.185,3.477C102.007,3.477 110.467,6.981 116.705,13.219C122.943,19.456 126.447,27.917 126.447,36.738C126.447,64.143 98.101,79.28 93.184,81.697C88.264,79.284 59.923,64.181 59.923,36.738ZM15.68,126.37C13.282,126.37 10.938,125.659 8.944,124.327C6.95,122.995 5.396,121.101 4.478,118.886C3.561,116.671 3.32,114.233 3.788,111.881C4.256,109.529 5.41,107.369 7.106,105.673C8.801,103.977 10.961,102.822 13.313,102.354C15.665,101.886 18.103,102.126 20.318,103.043C22.534,103.961 24.427,105.515 25.76,107.508C27.092,109.502 27.804,111.846 27.804,114.244C27.801,117.459 26.523,120.541 24.25,122.814C21.977,125.088 18.895,126.367 15.68,126.37ZM114.005,109.165C114.003,111.118 113.227,112.989 111.846,114.37C110.466,115.75 108.594,116.527 106.642,116.529L31.173,116.529C31.421,115.015 31.421,113.472 31.173,111.958L106.642,111.958C107.383,111.958 108.093,111.663 108.616,111.14C109.14,110.616 109.434,109.906 109.435,109.165L109.435,102.378C109.435,101.637 109.14,100.927 108.617,100.404C108.093,99.88 107.383,99.586 106.642,99.585L44.562,99.585C42.61,99.583 40.738,98.806 39.358,97.426C37.977,96.046 37.201,94.174 37.199,92.222L37.199,84.682C37.201,82.73 37.977,80.858 39.358,79.478C40.738,78.097 42.61,77.321 44.562,77.319L79.306,77.319C81.491,78.955 83.757,80.481 86.096,81.889L44.562,81.889C43.822,81.889 43.111,82.184 42.588,82.707C42.064,83.231 41.77,83.941 41.769,84.682L41.769,92.222C41.77,92.962 42.064,93.672 42.588,94.196C43.112,94.719 43.822,95.014 44.562,95.015L106.642,95.015C108.594,95.017 110.466,95.793 111.846,97.174C113.227,98.554 114.003,100.426 114.005,102.378L114.005,109.165Z" fill="#FFFFFF"/>
</svg>
