<svg width="110" height="112" viewBox="0 0 110 112" fill="none" xmlns="http://www.w3.org/2000/svg" xmlns:xlink="http://www.w3.org/1999/xlink">
<rect  x="46" y="0.078" width="64" height="64" rx="40" fill="#F1F5EB"/>
<path d="M79.442,73.985C82.403,65.26 82.324,55.791 79.22,47.116C76.115,38.442 70.167,31.073 62.343,26.209C54.519,21.344 45.279,19.269 36.126,20.322C26.974,21.375 18.446,25.494 11.931,32.009C5.417,38.523 1.298,47.05 0.244,56.203C-0.809,65.356 1.265,74.596 6.13,82.42C10.994,90.244 18.363,96.193 27.037,99.297C35.712,102.402 45.181,102.481 53.906,99.52C55.252,102.225 57.222,104.57 59.653,106.363C62.084,108.155 64.907,109.344 67.888,109.831C70.869,110.317 73.923,110.088 76.798,109.161C79.673,108.235 82.286,106.637 84.422,104.502C86.558,102.366 88.156,99.752 89.082,96.877C90.009,94.002 90.239,90.948 89.752,87.967C89.265,84.986 88.077,82.163 86.284,79.732C84.491,77.301 82.146,75.331 79.442,73.985ZM77.169,73.029C72.489,71.406 67.361,71.677 62.878,73.783L64.681,70.635C64.788,70.448 64.844,70.237 64.844,70.023L64.844,64.205L68.667,60.271C68.891,60.042 69.016,59.734 69.015,59.413L69.015,54.408C69.015,54.139 68.927,53.878 68.765,53.664C68.602,53.45 68.374,53.295 68.115,53.223L61.365,51.342L58.869,46.458C58.781,46.285 58.653,46.135 58.496,46.022C58.339,45.908 58.157,45.833 57.965,45.802L48.396,44.297L48.396,43.358L61.313,40.499L66.14,45.322C66.371,45.553 66.684,45.683 67.011,45.683L75.997,45.683C79.743,54.341 80.16,64.078 77.169,73.026L77.169,73.029ZM74.82,43.225L67.52,43.225L62.579,38.282C62.433,38.136 62.252,38.029 62.054,37.971C61.855,37.913 61.645,37.906 61.443,37.95L46.899,41.168C46.626,41.229 46.381,41.381 46.206,41.599C46.031,41.817 45.935,42.089 45.935,42.369L45.935,45.349C45.935,45.642 46.039,45.925 46.23,46.148C46.421,46.371 46.684,46.518 46.974,46.564L56.963,48.135L59.419,52.941C59.496,53.093 59.604,53.226 59.736,53.334C59.868,53.442 60.02,53.521 60.184,53.566L66.554,55.342L66.554,58.914L62.731,62.847C62.508,63.077 62.383,63.384 62.383,63.705L62.383,69.695L58.32,76.788C56.676,78.247 55.295,79.977 54.236,81.903L51.494,81.903L51.494,78.008C51.494,77.838 51.459,77.669 51.39,77.513C51.321,77.357 51.221,77.217 51.096,77.101L45.774,72.222L45.774,66.565C45.774,66.312 45.697,66.066 45.552,65.859C45.407,65.652 45.202,65.495 44.964,65.409L33.973,61.412L33.973,52.272L41.155,44.517C41.271,44.391 41.36,44.243 41.416,44.081C41.471,43.919 41.493,43.747 41.478,43.577C41.464,43.406 41.414,43.24 41.332,43.09C41.249,42.94 41.137,42.809 41.001,42.704L34.432,37.666L39.815,30.072L50.8,30.072C51.127,30.072 51.439,29.942 51.67,29.711L55.789,25.593C63.978,29.097 70.702,35.327 74.82,43.225ZM16.051,31.634L19.141,37.998L16.653,39.243C16.531,39.304 16.419,39.385 16.324,39.483L10.484,45.442C10.322,45.606 10.21,45.813 10.161,46.038C10.111,46.263 10.125,46.498 10.202,46.715L11.04,49.069C10.08,49.661 9.211,50.388 8.459,51.228L3.497,52.064C5.392,44.088 9.792,36.929 16.051,31.634ZM2.471,61.24L6.502,61.24L16.673,65.066L21.876,73.875L21.876,77.4L20.351,79.715C20.184,79.968 20.117,80.274 20.162,80.574C20.206,80.874 20.36,81.146 20.594,81.34L20.981,81.659L17.29,83.865C17.107,83.974 16.956,84.129 16.851,84.314C16.746,84.499 16.691,84.707 16.691,84.92L16.691,90.66C12.297,87.109 8.743,82.63 6.284,77.543C3.826,72.457 2.523,66.889 2.471,61.24ZM40.803,99.224C33.069,99.231 25.516,96.885 19.147,92.498C19.147,92.482 19.151,92.467 19.151,92.452L19.151,85.62L23.737,82.877C23.906,82.777 24.049,82.636 24.153,82.469C24.256,82.301 24.318,82.111 24.333,81.915C24.348,81.718 24.316,81.521 24.239,81.34C24.162,81.158 24.042,80.998 23.89,80.873L23.013,80.146L24.133,78.446C24.266,78.246 24.336,78.01 24.336,77.769L24.336,73.538C24.336,73.318 24.277,73.102 24.165,72.913L18.571,63.442C18.428,63.2 18.207,63.014 17.945,62.916L7.159,58.858C7.02,58.806 6.873,58.779 6.726,58.779L2.522,58.779C2.599,57.394 2.751,56.015 2.976,54.646L9.305,53.582C9.597,53.532 9.861,53.379 10.05,53.151C10.885,52.14 11.923,51.317 13.098,50.736C13.367,50.602 13.577,50.374 13.69,50.095C13.802,49.816 13.808,49.506 13.708,49.223L12.779,46.613L17.938,41.35L21.329,39.654C21.618,39.509 21.839,39.256 21.944,38.95C22.048,38.643 22.027,38.307 21.886,38.016L18.024,30.064C23.015,26.363 28.833,23.934 34.974,22.987C41.116,22.041 47.395,22.606 53.269,24.633L50.29,27.611L39.179,27.611C38.982,27.611 38.789,27.658 38.614,27.749C38.439,27.839 38.289,27.97 38.175,28.13L31.739,37.21C31.555,37.469 31.479,37.79 31.527,38.105C31.574,38.419 31.742,38.703 31.994,38.897L38.432,43.834L31.84,50.947C31.629,51.175 31.512,51.473 31.512,51.784L31.512,62.274C31.512,62.527 31.59,62.773 31.735,62.98C31.88,63.187 32.085,63.344 32.322,63.43L43.313,67.427L43.313,72.764C43.313,72.934 43.349,73.103 43.417,73.259C43.486,73.415 43.586,73.555 43.712,73.671L49.034,78.549L49.034,83.133C49.034,83.46 49.164,83.773 49.394,84.003C49.625,84.234 49.938,84.364 50.264,84.364L53.11,84.364C51.557,88.509 51.501,93.066 52.95,97.249C49.034,98.558 44.932,99.225 40.803,99.224ZM70.952,107.619C67.671,107.619 64.463,106.646 61.735,104.824C59.007,103.001 56.881,100.41 55.625,97.379C54.37,94.348 54.041,91.012 54.681,87.794C55.321,84.576 56.901,81.62 59.221,79.3C61.541,76.98 64.497,75.4 67.715,74.76C70.933,74.12 74.268,74.449 77.3,75.704C80.331,76.96 82.922,79.086 84.744,81.814C86.567,84.542 87.54,87.75 87.54,91.031C87.535,95.429 85.786,99.645 82.676,102.755C79.566,105.865 75.35,107.614 70.952,107.619Z" fill="#2437AC"/>
<path d="M84.125,84.077L82.561,82.512C81.798,81.749 80.763,81.32 79.684,81.32C78.605,81.32 77.57,81.749 76.807,82.512L73.524,85.794L67.928,84.498C67.177,84.321 66.393,84.34 65.651,84.553C64.91,84.765 64.235,85.164 63.691,85.711L62.398,87.005C62.256,87.147 62.151,87.321 62.092,87.512C62.033,87.704 62.021,87.907 62.058,88.103C62.096,88.3 62.18,88.485 62.305,88.642C62.43,88.799 62.591,88.922 62.775,89.003L68.024,91.295L65.957,93.361L61.041,93.817C60.756,93.842 60.488,93.967 60.285,94.168L57.776,96.677C57.624,96.828 57.515,97.017 57.459,97.224C57.403,97.431 57.402,97.649 57.456,97.856C57.509,98.063 57.617,98.253 57.766,98.407C57.916,98.56 58.103,98.672 58.31,98.73L64.449,100.477C65.632,100.813 66.884,100.828 68.075,100.519C69.266,100.21 70.352,99.589 71.222,98.719L84.125,85.816C84.24,85.702 84.331,85.566 84.392,85.417C84.454,85.268 84.486,85.108 84.486,84.946C84.486,84.785 84.454,84.625 84.392,84.475C84.331,84.326 84.24,84.191 84.125,84.077ZM69.482,96.98C68.922,97.539 68.223,97.94 67.457,98.139C66.69,98.338 65.885,98.329 65.123,98.112L60.998,96.939L61.711,96.227L66.627,95.77C66.912,95.745 67.18,95.621 67.383,95.419L71.04,91.762C71.181,91.621 71.286,91.447 71.345,91.255C71.404,91.064 71.416,90.861 71.379,90.664C71.341,90.467 71.257,90.283 71.132,90.126C71.007,89.969 70.846,89.846 70.662,89.766L65.414,87.473L65.432,87.454C65.681,87.203 65.99,87.021 66.33,86.923C66.669,86.826 67.028,86.818 67.372,86.899L73.635,88.349C73.838,88.396 74.05,88.39 74.251,88.333C74.452,88.275 74.634,88.167 74.782,88.02L78.547,84.256C78.853,83.963 79.26,83.799 79.684,83.799C80.108,83.799 80.515,83.963 80.821,84.256L81.515,84.951L69.482,96.98Z" fill="#2437AC"/>
</svg>
