<svg width="130" height="104" viewBox="0 0 130 104" fill="none" xmlns="http://www.w3.org/2000/svg" xmlns:xlink="http://www.w3.org/1999/xlink">
<path d="M122.129,14.633C124.216,14.63 126.216,13.8 127.692,12.325C129.168,10.849 129.998,8.849 130,6.762L130,1.176C130,0.704 129.812,0.253 129.479,-0.081C129.146,-0.414 128.694,-0.601 128.223,-0.602L1.777,-0.602C1.307,-0.601 0.855,-0.414 0.522,-0.082C0.189,0.251 0.001,0.702 0,1.173L0,6.759C0.002,8.845 0.832,10.846 2.308,12.322C3.784,13.797 5.784,14.627 7.871,14.63L13.711,14.63L13.711,31.91L1.809,31.91C1.337,31.91 0.885,32.097 0.552,32.43C0.219,32.763 0.031,33.216 0.031,33.687L0.031,100.83C0.032,101.301 0.219,101.753 0.552,102.086C0.886,102.42 1.338,102.607 1.809,102.607L128.223,102.607C128.694,102.607 129.146,102.42 129.479,102.086C129.812,101.753 130,101.301 130,100.83L130,33.691C130,33.22 129.813,32.768 129.479,32.434C129.146,32.101 128.694,31.914 128.223,31.914L116.289,31.914L116.289,14.633L122.129,14.633ZM3.555,6.762L3.555,2.95L126.445,2.95L126.445,6.762C126.444,7.906 125.989,9.003 125.18,9.812C124.37,10.622 123.273,11.077 122.129,11.078L7.871,11.078C6.727,11.077 5.63,10.622 4.82,9.812C4.011,9.003 3.556,7.906 3.555,6.762ZM28.881,31.91L28.881,14.633L101.118,14.633L101.118,31.91L28.881,31.91ZM17.266,14.633L25.327,14.633L25.327,31.91L17.266,31.91L17.266,14.633ZM3.586,35.464L73.402,35.464L73.402,99.053L3.586,99.053L3.586,35.464ZM126.445,99.057L76.957,99.057L76.957,35.464L126.445,35.464L126.445,99.057ZM112.734,31.91L104.672,31.91L104.672,14.633L112.734,14.633L112.734,31.91Z" fill="#2437AC"/>
<path d="M62.706,49.583C61.229,48.109 59.227,47.281 57.14,47.281C55.053,47.281 53.052,48.109 51.575,49.583L44.189,56.968L31.706,54.078C30.237,53.734 28.704,53.772 27.253,54.188C25.802,54.603 24.482,55.383 23.417,56.453L20.64,59.232C20.435,59.436 20.284,59.688 20.198,59.964C20.113,60.241 20.096,60.534 20.15,60.818C20.204,61.103 20.326,61.37 20.507,61.596C20.687,61.822 20.92,62.001 21.185,62.117L33.617,67.544L28.063,73.098L17.196,74.104C16.783,74.141 16.396,74.32 16.102,74.612L10.719,79.995C10.5,80.214 10.343,80.487 10.261,80.785C10.18,81.084 10.179,81.399 10.256,81.699C10.334,81.998 10.489,82.273 10.705,82.494C10.922,82.716 11.192,82.877 11.49,82.962L24.67,86.717C27.062,87.397 29.592,87.426 31.999,86.801C34.406,86.176 36.603,84.92 38.362,83.163L66.066,55.458C66.399,55.124 66.586,54.672 66.586,54.201C66.586,53.729 66.399,53.277 66.066,52.944L62.706,49.583ZM35.852,80.646C34.54,81.957 32.902,82.894 31.107,83.361C29.313,83.828 27.426,83.808 25.642,83.302L15.37,80.378L18.163,77.585L29.03,76.578C29.443,76.54 29.829,76.359 30.123,76.066L37.973,68.215C38.178,68.01 38.329,67.759 38.415,67.482C38.5,67.206 38.517,66.912 38.463,66.628C38.409,66.344 38.287,66.077 38.106,65.85C37.926,65.624 37.693,65.445 37.428,65.329L24.996,59.901L25.93,58.967C26.569,58.324 27.362,57.855 28.233,57.606C29.104,57.357 30.025,57.336 30.907,57.545L44.347,60.654C44.641,60.722 44.948,60.715 45.238,60.631C45.528,60.548 45.792,60.392 46.005,60.178L54.087,52.096C54.898,51.288 55.995,50.834 57.14,50.834C58.284,50.834 59.382,51.288 60.192,52.096L62.296,54.2L35.852,80.646Z" fill="#2437AC"/>
<path d="M81.527,41.816L81.527,49.128C81.527,49.6 81.715,50.052 82.048,50.385C82.381,50.719 82.833,50.906 83.305,50.906L120.098,50.906C120.569,50.906 121.021,50.719 121.355,50.385C121.688,50.052 121.875,49.6 121.875,49.128L121.875,41.816C121.875,41.345 121.688,40.892 121.355,40.559C121.021,40.226 120.569,40.039 120.098,40.039L83.305,40.039C82.833,40.039 82.381,40.226 82.048,40.559C81.715,40.892 81.527,41.345 81.527,41.816ZM85.082,43.593L118.32,43.593L118.32,47.351L85.082,47.351L85.082,43.593Z" fill="#2437AC"/>
<path d="M120.098,54.563L83.305,54.563C82.833,54.563 82.381,54.75 82.048,55.083C81.715,55.416 81.527,55.868 81.527,56.34L81.527,63.652C81.527,64.124 81.715,64.576 82.048,64.909C82.381,65.242 82.833,65.43 83.305,65.43L120.098,65.43C120.569,65.43 121.021,65.242 121.355,64.909C121.688,64.576 121.875,64.124 121.875,63.652L121.875,56.34C121.875,55.868 121.688,55.416 121.355,55.083C121.021,54.75 120.569,54.563 120.098,54.563ZM118.32,61.875L85.082,61.875L85.082,58.117L118.32,58.117L118.32,61.875Z" fill="#2437AC"/>
<path d="M120.098,69.094L83.305,69.094C82.833,69.094 82.381,69.281 82.048,69.615C81.715,69.948 81.528,70.4 81.527,70.871L81.527,78.184C81.527,78.655 81.715,79.107 82.048,79.44C82.381,79.774 82.833,79.961 83.305,79.961L120.098,79.961C120.569,79.961 121.021,79.774 121.355,79.44C121.688,79.107 121.875,78.655 121.875,78.184L121.875,70.871C121.875,70.4 121.688,69.948 121.354,69.615C121.021,69.281 120.569,69.094 120.098,69.094ZM118.32,76.406L85.082,76.406L85.082,72.648L118.32,72.648L118.32,76.406Z" fill="#2437AC"/>
<path d="M120.098,83.617L83.305,83.617C82.833,83.617 82.381,83.804 82.048,84.138C81.715,84.471 81.527,84.923 81.527,85.395L81.527,92.707C81.528,93.178 81.715,93.63 82.048,93.964C82.381,94.297 82.833,94.484 83.305,94.484L120.098,94.484C120.569,94.484 121.021,94.297 121.354,93.964C121.688,93.63 121.875,93.178 121.875,92.707L121.875,85.395C121.875,84.923 121.688,84.471 121.355,84.138C121.021,83.804 120.569,83.617 120.098,83.617ZM118.32,90.93L85.082,90.93L85.082,87.172L118.32,87.172L118.32,90.93Z" fill="#2437AC"/>
</svg>
