<svg width="130" height="130" viewBox="0 0 130 130" fill="none" xmlns="http://www.w3.org/2000/svg" xmlns:xlink="http://www.w3.org/1999/xlink">
<path d="M65,22.5C55.239,22.511 45.882,26.393 38.98,33.295C32.078,40.196 28.195,49.554 28.184,59.314C28.184,91.503 62.806,107.212 64.28,107.861C64.507,107.962 64.752,108.014 65,108.014C65.248,108.014 65.493,107.962 65.72,107.861C67.194,107.208 101.816,91.498 101.816,59.314C101.805,49.554 97.922,40.196 91.02,33.295C84.118,26.393 74.761,22.511 65,22.5ZM65,104.274C60.079,101.862 31.738,86.759 31.738,59.314C31.738,50.493 35.243,42.033 41.48,35.795C47.718,29.557 56.178,26.053 65,26.053C73.822,26.053 82.282,29.557 88.52,35.795C94.757,42.033 98.262,50.493 98.262,59.314C98.262,86.721 69.916,101.858 65,104.274Z" fill="#2437AC"/>
<path d="M65,32C59.598,32 54.316,33.602 49.825,36.604C45.333,39.605 41.832,43.871 39.765,48.862C37.697,53.854 37.156,59.346 38.211,64.644C39.265,69.943 41.866,74.81 45.686,78.629C49.507,82.449 54.374,85.051 59.672,86.104C64.971,87.158 70.463,86.617 75.454,84.549C80.445,82.481 84.711,78.98 87.712,74.488C90.713,69.996 92.314,64.715 92.314,59.313C92.305,52.071 89.425,45.129 84.304,40.009C79.183,34.889 72.241,32.009 65,32ZM51.162,78.609L51.162,76.43C51.164,73.938 52.154,71.549 53.915,69.787C55.676,68.025 58.065,67.034 60.556,67.031L69.443,67.031C71.934,67.034 74.322,68.025 76.083,69.786C77.844,71.547 78.835,73.935 78.838,76.426L78.838,78.609C74.807,81.512 69.966,83.073 65,83.073C60.033,83.073 55.192,81.512 51.162,78.609ZM82.347,75.526C82.117,72.26 80.658,69.202 78.265,66.968C75.873,64.733 72.722,63.487 69.448,63.481L60.562,63.481C57.287,63.487 54.137,64.733 51.744,66.968C49.351,69.202 47.893,72.26 47.663,75.526C44.498,72.144 42.39,67.91 41.599,63.346C40.808,58.782 41.369,54.086 43.212,49.836C45.056,45.586 48.101,41.968 51.974,39.427C55.846,36.885 60.378,35.531 65.01,35.531C69.642,35.531 74.174,36.885 78.046,39.427C81.919,41.968 84.964,45.586 86.808,49.836C88.651,54.086 89.212,58.782 88.421,63.346C87.63,67.91 85.522,72.144 82.357,75.526L82.347,75.526Z" fill="#2437AC"/>
<path d="M1.097,33.729C1.422,33.864 1.779,33.899 2.124,33.83C2.468,33.762 2.785,33.593 3.034,33.344L13.343,23.035L27.492,37.184C27.825,37.518 28.278,37.705 28.749,37.705C28.812,37.705 28.874,37.702 28.936,37.695C29.2,37.667 29.454,37.581 29.679,37.442C29.905,37.304 30.097,37.116 30.24,36.894C32.02,34.147 34.116,31.62 36.485,29.363C36.657,29.199 36.794,29.003 36.889,28.786C36.984,28.568 37.034,28.334 37.037,28.097C37.04,27.86 36.995,27.625 36.905,27.405C36.816,27.186 36.683,26.986 36.516,26.819L23.038,13.34L33.347,3.031C33.595,2.782 33.763,2.466 33.832,2.122C33.9,1.778 33.865,1.422 33.731,1.097C33.597,0.773 33.37,0.496 33.078,0.301C32.787,0.106 32.444,0.001 32.094,0L1.777,0C1.306,0 0.855,0.187 0.522,0.519C0.188,0.852 0.001,1.303 0,1.774L0,32.088C0,32.439 0.104,32.783 0.299,33.075C0.495,33.367 0.772,33.594 1.097,33.729ZM3.555,3.555L27.8,3.555L19.268,12.086C19.103,12.251 18.972,12.447 18.883,12.663C18.793,12.878 18.747,13.109 18.747,13.343C18.747,13.576 18.793,13.807 18.883,14.023C18.972,14.239 19.103,14.435 19.268,14.6L32.741,28.071C31.202,29.66 29.781,31.359 28.49,33.155L14.6,19.265C14.435,19.1 14.239,18.969 14.023,18.88C13.807,18.79 13.576,18.744 13.343,18.744C13.109,18.744 12.878,18.79 12.663,18.88C12.447,18.969 12.251,19.1 12.086,19.265L3.555,27.797L3.555,3.555Z" fill="#2437AC"/>
<path d="M33.931,89.245C33.778,89.04 33.584,88.871 33.36,88.749C33.136,88.627 32.889,88.554 32.635,88.536C32.381,88.518 32.126,88.554 31.887,88.643C31.648,88.732 31.431,88.871 31.251,89.052L13.343,106.96L3.034,96.651C2.785,96.402 2.468,96.233 2.124,96.164C1.779,96.096 1.422,96.131 1.097,96.266C0.773,96.4 0.495,96.628 0.3,96.92C0.105,97.212 0,97.555 0,97.907L0,128.22C0,128.454 0.045,128.685 0.134,128.901C0.224,129.117 0.354,129.314 0.519,129.479C0.685,129.644 0.881,129.775 1.096,129.865C1.312,129.954 1.544,130.001 1.777,130.001L32.094,130.001C32.445,130.001 32.789,129.897 33.082,129.702C33.374,129.506 33.602,129.229 33.736,128.904C33.871,128.579 33.906,128.222 33.837,127.877C33.769,127.532 33.599,127.215 33.35,126.967L23.041,116.657L40.47,99.227C40.635,99.061 40.767,98.864 40.856,98.648C40.945,98.431 40.991,98.199 40.99,97.964C40.989,97.73 40.942,97.498 40.851,97.282C40.76,97.066 40.627,96.87 40.46,96.705C38.1,94.385 35.918,91.891 33.931,89.245ZM19.268,115.398C19.103,115.563 18.972,115.759 18.883,115.974C18.793,116.19 18.747,116.421 18.747,116.654C18.747,116.888 18.793,117.119 18.883,117.334C18.972,117.55 19.103,117.746 19.268,117.911L27.8,126.442L3.555,126.442L3.555,102.199L12.086,110.73C12.251,110.895 12.447,111.026 12.663,111.116C12.878,111.205 13.109,111.251 13.343,111.251C13.576,111.251 13.807,111.205 14.023,111.116C14.239,111.026 14.435,110.895 14.6,110.73L32.336,92.993C33.689,94.688 35.151,96.35 36.704,97.96L19.268,115.398Z" fill="#2437AC"/>
<path d="M128.903,96.265C128.578,96.13 128.221,96.095 127.876,96.163C127.532,96.232 127.215,96.401 126.966,96.65L116.657,106.959L98.748,89.051C98.567,88.871 98.35,88.733 98.112,88.644C97.873,88.555 97.618,88.518 97.364,88.535C97.11,88.553 96.862,88.626 96.639,88.749C96.415,88.872 96.221,89.041 96.069,89.246C94.082,91.891 91.9,94.383 89.54,96.702C89.373,96.866 89.24,97.062 89.149,97.278C89.058,97.494 89.011,97.726 89.01,97.961C89.009,98.195 89.055,98.427 89.144,98.644C89.233,98.861 89.365,99.058 89.53,99.223L106.962,116.656L96.653,126.963C96.403,127.211 96.233,127.528 96.163,127.873C96.094,128.218 96.128,128.576 96.263,128.901C96.397,129.227 96.625,129.505 96.918,129.7C97.21,129.896 97.554,130 97.906,130L128.223,130C128.694,130 129.146,129.813 129.479,129.479C129.813,129.146 130,128.694 130,128.223L130,97.906C130,97.555 129.896,97.211 129.7,96.919C129.505,96.627 129.228,96.399 128.903,96.265ZM126.445,126.445L102.2,126.445L110.732,117.914C110.897,117.749 111.028,117.553 111.117,117.338C111.206,117.122 111.253,116.891 111.253,116.658C111.253,116.424 111.206,116.193 111.117,115.978C111.028,115.762 110.897,115.566 110.732,115.401L93.294,97.959C94.849,96.349 96.311,94.688 97.661,92.993L115.398,110.728C115.563,110.894 115.759,111.025 115.975,111.114C116.191,111.203 116.422,111.249 116.655,111.249C116.889,111.249 117.12,111.203 117.335,111.114C117.551,111.025 117.747,110.894 117.912,110.728L126.443,102.197L126.445,126.445Z" fill="#2437AC"/>
<path d="M128.223,0L97.906,0C97.555,0 97.211,0.104 96.919,0.299C96.626,0.494 96.398,0.772 96.264,1.097C96.129,1.422 96.094,1.779 96.163,2.124C96.232,2.469 96.401,2.785 96.65,3.034L106.959,13.343L93.484,26.819C93.317,26.986 93.184,27.186 93.095,27.405C93.005,27.625 92.961,27.86 92.964,28.097C92.966,28.334 93.017,28.568 93.111,28.786C93.206,29.003 93.343,29.199 93.515,29.363C95.884,31.62 97.98,34.148 99.76,36.894C99.904,37.116 100.095,37.304 100.321,37.442C100.547,37.581 100.801,37.667 101.064,37.695C101.126,37.702 101.188,37.705 101.251,37.705C101.722,37.705 102.175,37.518 102.508,37.184L116.657,23.035L126.967,33.344C127.215,33.592 127.532,33.761 127.876,33.83C128.221,33.899 128.578,33.863 128.903,33.729C129.228,33.594 129.505,33.367 129.7,33.075C129.896,32.783 130,32.439 130,32.088L130,1.774C129.999,1.303 129.812,0.852 129.479,0.519C129.145,0.187 128.694,0 128.223,0ZM126.446,27.797L117.914,19.265C117.749,19.1 117.553,18.969 117.338,18.88C117.122,18.79 116.891,18.744 116.657,18.744C116.424,18.744 116.193,18.79 115.977,18.88C115.761,18.969 115.566,19.1 115.401,19.265L101.51,33.155C100.219,31.359 98.798,29.66 97.259,28.071L110.732,14.598C110.897,14.433 111.028,14.237 111.117,14.021C111.207,13.805 111.253,13.574 111.253,13.341C111.253,13.107 111.207,12.876 111.117,12.66C111.028,12.445 110.897,12.249 110.732,12.084L102.2,3.553L126.446,3.553L126.446,27.797Z" fill="#2437AC"/>
<path d="M65,40.625C63.005,40.514 61.023,41.004 59.31,42.031C57.597,43.059 56.231,44.577 55.39,46.389C54.549,48.202 54.272,50.225 54.593,52.196C54.914,54.168 55.82,55.998 57.193,57.45C58.565,58.901 60.342,59.907 62.293,60.338C64.244,60.769 66.279,60.604 68.135,59.865C69.992,59.126 71.583,57.848 72.705,56.194C73.826,54.541 74.426,52.589 74.426,50.591C74.493,48.021 73.538,45.529 71.772,43.661C70.005,41.793 67.57,40.701 65,40.625ZM65,57.002C63.708,57.116 62.412,56.836 61.281,56.201C60.151,55.565 59.238,54.603 58.664,53.44C58.09,52.277 57.881,50.967 58.064,49.683C58.246,48.399 58.813,47.2 59.689,46.244C60.565,45.287 61.71,44.618 62.973,44.323C64.236,44.028 65.559,44.122 66.767,44.592C67.976,45.062 69.015,45.886 69.747,46.957C70.48,48.027 70.871,49.294 70.871,50.591C70.937,52.218 70.357,53.805 69.257,55.006C68.157,56.207 66.627,56.924 65,57L65,57.002Z" fill="#2437AC"/>
</svg>
