<svg width="90" height="70" viewBox="0 0 90 70" fill="none" xmlns="http://www.w3.org/2000/svg" xmlns:xlink="http://www.w3.org/1999/xlink">
<path d="M88.77,61.782L81.123,61.782L81.123,22.396C81.123,22.184 81.069,21.975 80.965,21.79C80.861,21.605 80.711,21.451 80.53,21.341L45.637,0.232C45.445,0.116 45.225,0.055 45,0.055C44.775,0.055 44.555,0.116 44.363,0.232L9.47,21.343C9.289,21.453 9.139,21.608 9.035,21.792C8.931,21.977 8.877,22.186 8.877,22.398L8.877,61.784L1.23,61.784C1.069,61.784 0.909,61.816 0.759,61.878C0.61,61.94 0.474,62.03 0.36,62.145C0.246,62.259 0.155,62.395 0.093,62.544C0.032,62.694 0,62.854 0,63.016L0,68.641C0,68.967 0.13,69.28 0.36,69.511C0.591,69.742 0.904,69.871 1.23,69.871L88.77,69.871C89.096,69.871 89.409,69.742 89.64,69.511C89.87,69.28 90,68.967 90,68.641L90,63.016C90,62.854 89.969,62.694 89.907,62.544C89.846,62.394 89.755,62.258 89.641,62.143C89.527,62.029 89.391,61.938 89.241,61.876C89.092,61.814 88.931,61.782 88.77,61.782ZM11.338,49.305L33.047,49.305L33.047,54.853L11.338,54.853L11.338,49.305ZM35.508,36.39C35.509,34.852 36.121,33.377 37.209,32.29C38.296,31.202 39.771,30.591 41.309,30.589L43.77,30.589L43.77,43.15C43.768,46.485 43.026,49.777 41.597,52.791C40.168,55.804 38.089,58.463 35.508,60.575L35.508,36.39ZM78.662,54.855L56.953,54.855L56.953,49.305L78.662,49.305L78.662,54.855ZM54.492,60.575C51.911,58.463 49.831,55.804 48.403,52.791C46.974,49.777 46.232,46.485 46.23,43.15L46.23,30.589L48.691,30.589C50.229,30.591 51.704,31.202 52.791,32.29C53.879,33.377 54.491,34.852 54.492,36.39L54.492,60.575ZM38.22,61.474C41.339,58.589 43.672,54.958 45,50.922C46.38,55.1 48.828,58.844 52.102,61.785L37.898,61.785C38.009,61.68 38.109,61.575 38.22,61.474ZM56.953,57.316L78.662,57.316L78.662,61.782L56.953,61.782L56.953,57.316ZM45,2.723L78.662,23.09L78.662,46.844L56.953,46.844L56.953,36.39C56.951,34.199 56.079,32.1 54.53,30.551C52.982,29.002 50.882,28.131 48.691,28.128L41.309,28.128C39.118,28.131 37.018,29.002 35.469,30.551C33.921,32.099 33.049,34.199 33.047,36.39L33.047,46.844L11.338,46.844L11.338,23.09L45,2.723ZM11.338,57.316L33.047,57.316L33.047,61.782L11.338,61.782L11.338,57.316ZM87.539,67.407L2.461,67.407L2.461,64.243L87.539,64.243L87.539,67.407Z" fill="#2437AC"/>
<path d="M22.192,42.526C23.359,42.527 24.5,42.181 25.47,41.532C26.44,40.884 27.197,39.963 27.643,38.885C28.09,37.807 28.207,36.62 27.979,35.476C27.752,34.331 27.19,33.28 26.365,32.455C25.54,31.63 24.488,31.068 23.344,30.84C22.2,30.612 21.013,30.729 19.935,31.176C18.857,31.622 17.936,32.378 17.287,33.349C16.639,34.319 16.293,35.46 16.293,36.626C16.294,38.191 16.917,39.69 18.022,40.796C19.128,41.902 20.628,42.525 22.192,42.526ZM22.192,33.188C22.872,33.187 23.537,33.389 24.103,33.767C24.668,34.145 25.109,34.682 25.37,35.31C25.63,35.938 25.698,36.63 25.566,37.297C25.433,37.964 25.106,38.577 24.625,39.058C24.144,39.539 23.531,39.867 22.864,39.999C22.197,40.132 21.505,40.064 20.877,39.804C20.248,39.543 19.711,39.103 19.333,38.537C18.955,37.972 18.754,37.307 18.754,36.626C18.755,35.715 19.118,34.841 19.763,34.197C20.407,33.552 21.281,33.189 22.192,33.188Z" fill="#2437AC"/>
<path d="M45,24.269C46.167,24.269 47.307,23.923 48.278,23.274C49.248,22.626 50.004,21.704 50.451,20.626C50.897,19.548 51.014,18.361 50.786,17.217C50.558,16.072 49.996,15.021 49.171,14.196C48.345,13.371 47.294,12.809 46.149,12.582C45.005,12.354 43.818,12.472 42.74,12.918C41.662,13.365 40.741,14.122 40.093,15.092C39.445,16.063 39.099,17.204 39.1,18.371C39.102,19.935 39.724,21.434 40.83,22.539C41.936,23.645 43.436,24.267 45,24.269ZM45,14.93C45.68,14.93 46.344,15.131 46.91,15.509C47.475,15.887 47.916,16.424 48.177,17.052C48.437,17.68 48.505,18.372 48.373,19.039C48.24,19.706 47.913,20.319 47.432,20.8C46.951,21.281 46.339,21.608 45.672,21.741C45.005,21.874 44.313,21.806 43.685,21.546C43.057,21.287 42.519,20.846 42.141,20.281C41.763,19.716 41.561,19.051 41.561,18.371C41.562,17.459 41.924,16.585 42.569,15.94C43.214,15.295 44.088,14.931 45,14.93Z" fill="#2437AC"/>
<path d="M67.807,42.526C68.974,42.527 70.115,42.181 71.085,41.532C72.056,40.884 72.812,39.963 73.259,38.885C73.705,37.807 73.822,36.62 73.595,35.476C73.367,34.331 72.805,33.28 71.98,32.455C71.155,31.63 70.104,31.068 68.959,30.84C67.815,30.612 66.628,30.729 65.55,31.176C64.472,31.622 63.551,32.378 62.902,33.349C62.254,34.319 61.908,35.46 61.908,36.626C61.91,38.191 62.532,39.69 63.638,40.796C64.744,41.902 66.243,42.525 67.807,42.526ZM67.807,33.188C68.487,33.187 69.152,33.389 69.718,33.767C70.284,34.145 70.725,34.682 70.985,35.31C71.245,35.938 71.314,36.63 71.181,37.297C71.048,37.964 70.721,38.577 70.24,39.058C69.759,39.539 69.146,39.867 68.479,39.999C67.812,40.132 67.121,40.064 66.492,39.804C65.864,39.543 65.327,39.103 64.949,38.537C64.571,37.972 64.369,37.307 64.369,36.626C64.371,35.715 64.733,34.841 65.378,34.197C66.022,33.552 66.896,33.189 67.807,33.188Z" fill="#2437AC"/>
</svg>
