<svg width="60" height="46" viewBox="0 0 60 46" fill="none" xmlns="http://www.w3.org/2000/svg" xmlns:xlink="http://www.w3.org/1999/xlink">
<path d="M22.852,20.242C23.821,20.242 24.609,21.031 24.609,22C24.609,22.969 23.821,23.758 22.852,23.758C21.882,23.758 21.094,22.969 21.094,22C21.094,21.031 21.882,20.242 22.852,20.242Z" fill="#FFFFFF"/>
<path d="M24.609,13.387L24.609,17.029C24.06,16.833 23.468,16.727 22.852,16.727C19.944,16.727 17.578,19.093 17.578,22C17.578,24.907 19.944,27.273 22.852,27.273C23.468,27.273 24.06,27.167 24.609,26.971L24.609,30.613C24.034,30.73 23.446,30.789 22.852,30.789C18.006,30.789 14.063,26.846 14.063,22C14.063,17.154 18.006,13.211 22.852,13.211C23.446,13.211 24.034,13.27 24.609,13.387Z" fill="#FFFFFF"/>
<path d="M10.547,22C10.547,28.785 16.066,34.305 22.852,34.305C23.443,34.305 24.03,34.264 24.609,34.179L24.609,44.852L19.336,44.852C18.366,44.852 17.578,44.064 17.578,43.094L17.578,40.605C16.14,40.196 14.754,39.617 13.433,38.875L11.665,40.644C10.978,41.331 9.866,41.331 9.179,40.644L4.207,35.672C3.52,34.985 3.523,33.871 4.207,33.187L5.977,31.417C5.234,30.098 4.656,28.711 4.247,27.273L1.758,27.273C0.787,27.273 0,26.486 0,25.516L0,18.484C0,17.514 0.787,16.727 1.758,16.727L4.247,16.727C4.656,15.289 5.234,13.902 5.977,12.582L4.207,10.813C3.523,10.129 3.52,9.015 4.207,8.328L9.179,3.355C9.866,2.669 10.978,2.669 11.665,3.355L13.434,5.125C14.754,4.382 16.14,3.804 17.578,3.395L17.578,0.906C17.578,-0.064 18.366,-0.852 19.336,-0.852L24.609,-0.852L24.609,9.821C24.03,9.736 23.443,9.695 22.852,9.695C16.066,9.695 10.547,15.215 10.547,22L10.547,22Z" fill="#FFFFFF"/>
<path d="M49.453,0.177L49.453,9.695L58.971,9.695L49.453,0.177ZM33.398,9.695L40.664,9.695C41.634,9.695 42.422,10.483 42.422,11.453C42.422,12.423 41.634,13.211 40.664,13.211L33.398,13.211C32.428,13.211 31.641,12.423 31.641,11.453C31.641,10.483 32.428,9.695 33.398,9.695ZM51.211,34.305L33.398,34.305C32.428,34.305 31.641,33.517 31.641,32.547C31.641,31.577 32.428,30.789 33.398,30.789L51.211,30.789C52.181,30.789 52.969,31.577 52.969,32.547C52.969,33.517 52.181,34.305 51.211,34.305ZM51.211,27.273L33.398,27.273C32.428,27.273 31.641,26.486 31.641,25.516C31.641,24.545 32.428,23.758 33.398,23.758L51.211,23.758C52.181,23.758 52.969,24.545 52.969,25.516C52.969,26.486 52.181,27.273 51.211,27.273ZM51.211,20.242L33.398,20.242C32.428,20.242 31.641,19.455 31.641,18.484C31.641,17.514 32.428,16.727 33.398,16.727L51.211,16.727C52.181,16.727 52.969,17.514 52.969,18.484C52.969,19.455 52.181,20.242 51.211,20.242ZM47.695,13.211C46.725,13.211 45.938,12.423 45.938,11.453L45.938,-0.852L28.125,-0.852L28.125,44.852L58.242,44.852C59.212,44.852 60,44.064 60,43.094L60,13.211L47.695,13.211Z" fill="#FFFFFF"/>
</svg>
