<svg width="90" height="74" viewBox="0 0 90 74" fill="none" xmlns="http://www.w3.org/2000/svg" xmlns:xlink="http://www.w3.org/1999/xlink">
<path d="M14.304,65.323L8.086,65.323L8.086,59.941C8.086,59.615 7.956,59.302 7.726,59.071C7.495,58.84 7.182,58.711 6.855,58.711C6.529,58.711 6.216,58.84 5.985,59.071C5.755,59.302 5.625,59.615 5.625,59.941L5.625,66.551C5.625,66.877 5.755,67.19 5.985,67.421C6.216,67.651 6.529,67.781 6.855,67.781L14.304,67.781C14.631,67.781 14.944,67.651 15.174,67.421C15.405,67.19 15.535,66.877 15.535,66.551C15.535,66.224 15.405,65.911 15.174,65.681C14.944,65.45 14.631,65.32 14.304,65.32L14.304,65.323Z" fill="#FFFFFF"/>
<path d="M83.144,58.711C82.983,58.711 82.823,58.742 82.673,58.804C82.524,58.866 82.388,58.957 82.274,59.071C82.16,59.185 82.069,59.321 82.007,59.47C81.946,59.62 81.914,59.78 81.914,59.941L81.914,65.323L75.696,65.323C75.369,65.323 75.056,65.453 74.825,65.683C74.595,65.914 74.465,66.227 74.465,66.553C74.465,66.88 74.595,67.193 74.825,67.424C75.056,67.654 75.369,67.784 75.696,67.784L83.144,67.784C83.306,67.784 83.466,67.752 83.615,67.69C83.765,67.629 83.9,67.538 84.015,67.424C84.129,67.309 84.22,67.174 84.281,67.024C84.343,66.875 84.375,66.715 84.375,66.553L84.375,59.944C84.375,59.782 84.344,59.622 84.282,59.472C84.221,59.323 84.13,59.187 84.016,59.072C83.901,58.957 83.766,58.867 83.616,58.805C83.467,58.743 83.306,58.711 83.144,58.711Z" fill="#FFFFFF"/>
<path d="M88.77,18.715L75.621,18.715L70.76,1.406C70.687,1.147 70.532,0.92 70.318,0.758C70.104,0.596 69.843,0.508 69.575,0.508L20.423,0.508C20.155,0.508 19.894,0.596 19.68,0.758C19.466,0.92 19.311,1.147 19.238,1.406L14.376,18.715L1.23,18.715C0.904,18.715 0.592,18.844 0.361,19.075C0.13,19.305 0.001,19.617 0,19.943L0,67.256C0.002,68.887 0.651,70.451 1.804,71.604C2.957,72.758 4.521,73.406 6.152,73.408L83.848,73.408C85.479,73.406 87.043,72.758 88.196,71.604C89.349,70.451 89.998,68.887 90,67.256L90,19.943C90,19.617 89.87,19.305 89.639,19.075C89.408,18.844 89.096,18.715 88.77,18.715ZM21.355,2.969L68.645,2.969L73.067,18.715L68.321,18.715L65.433,8.437C65.36,8.178 65.206,7.951 64.992,7.789C64.778,7.627 64.517,7.539 64.249,7.539L25.751,7.539C25.483,7.539 25.222,7.627 25.008,7.789C24.794,7.951 24.639,8.178 24.566,8.437L21.679,18.715L16.932,18.715L21.355,2.969ZM65.765,18.715L24.236,18.715L26.684,10L63.316,10L65.765,18.715ZM2.461,21.176L87.539,21.176L87.539,36.045C87.538,37.024 87.149,37.962 86.457,38.654C85.765,39.346 84.826,39.735 83.848,39.736L6.152,39.736C5.174,39.735 4.235,39.346 3.543,38.654C2.851,37.962 2.462,37.024 2.461,36.045L2.461,21.176ZM61.945,42.194L61.945,49.437L57.375,49.437L57.375,42.194L61.945,42.194ZM32.625,42.194L32.625,49.437L28.055,49.437L28.055,42.194L32.625,42.194ZM87.539,67.258C87.538,68.237 87.149,69.175 86.457,69.867C85.765,70.559 84.826,70.948 83.848,70.949L6.152,70.949C5.174,70.948 4.235,70.559 3.543,69.867C2.851,69.175 2.462,68.237 2.461,67.258L2.461,40.961C3.527,41.757 4.821,42.19 6.152,42.194L25.594,42.194L25.594,50.67C25.594,50.996 25.723,51.309 25.954,51.54C26.185,51.771 26.498,51.9 26.824,51.9L33.855,51.9C34.182,51.9 34.495,51.771 34.725,51.54C34.956,51.309 35.086,50.996 35.086,50.67L35.086,42.194L54.914,42.194L54.914,50.67C54.914,50.996 55.044,51.309 55.274,51.54C55.505,51.771 55.818,51.9 56.145,51.9L63.176,51.9C63.502,51.9 63.815,51.771 64.046,51.54C64.276,51.309 64.406,50.996 64.406,50.67L64.406,42.194L83.848,42.194C85.178,42.189 86.472,41.756 87.539,40.96L87.539,67.258Z" fill="#FFFFFF"/>
</svg>
