<svg width="60" height="46" viewBox="0 0 60 46" fill="none" xmlns="http://www.w3.org/2000/svg" xmlns:xlink="http://www.w3.org/1999/xlink">
<path d="M22.852,20.281C23.821,20.281 24.609,21.07 24.609,22.039C24.609,23.008 23.821,23.797 22.852,23.797C21.882,23.797 21.094,23.008 21.094,22.039C21.094,21.07 21.882,20.281 22.852,20.281Z" fill="#2437AC"/>
<path d="M24.609,13.426L24.609,17.068C24.06,16.872 23.468,16.766 22.852,16.766C19.944,16.766 17.578,19.132 17.578,22.039C17.578,24.946 19.944,27.313 22.852,27.313C23.468,27.313 24.06,27.206 24.609,27.01L24.609,30.652C24.034,30.77 23.446,30.828 22.852,30.828C18.006,30.828 14.063,26.885 14.063,22.039C14.063,17.193 18.006,13.25 22.852,13.25C23.446,13.25 24.034,13.309 24.609,13.426Z" fill="#2437AC"/>
<path d="M10.547,22.039C10.547,28.824 16.066,34.344 22.852,34.344C23.443,34.344 24.03,34.303 24.609,34.218L24.609,44.891L19.336,44.891C18.366,44.891 17.578,44.103 17.578,43.133L17.578,40.644C16.14,40.235 14.754,39.656 13.433,38.914L11.665,40.683C10.978,41.37 9.866,41.37 9.179,40.683L4.207,35.711C3.52,35.024 3.523,33.91 4.207,33.226L5.977,31.456C5.234,30.137 4.656,28.75 4.247,27.313L1.758,27.313C0.788,27.313 0,26.525 0,25.555L0,18.523C0,17.553 0.788,16.766 1.758,16.766L4.247,16.766C4.656,15.328 5.234,13.941 5.977,12.621L4.207,10.852C3.523,10.168 3.52,9.054 4.207,8.367L9.179,3.395C9.866,2.708 10.978,2.708 11.665,3.395L13.434,5.164C14.754,4.421 16.14,3.843 17.578,3.434L17.578,0.945C17.578,-0.025 18.366,-0.813 19.336,-0.813L24.609,-0.813L24.609,9.86C24.03,9.775 23.443,9.734 22.852,9.734C16.066,9.734 10.547,15.254 10.547,22.039L10.547,22.039Z" fill="#2437AC"/>
<path d="M49.453,0.216L49.453,9.734L58.971,9.734L49.453,0.216ZM33.398,9.734L40.664,9.734C41.634,9.734 42.422,10.522 42.422,11.492C42.422,12.462 41.634,13.25 40.664,13.25L33.398,13.25C32.428,13.25 31.641,12.462 31.641,11.492C31.641,10.522 32.428,9.734 33.398,9.734ZM51.211,34.344L33.398,34.344C32.428,34.344 31.641,33.556 31.641,32.586C31.641,31.616 32.428,30.828 33.398,30.828L51.211,30.828C52.181,30.828 52.969,31.616 52.969,32.586C52.969,33.556 52.181,34.344 51.211,34.344ZM51.211,27.313L33.398,27.313C32.428,27.313 31.641,26.525 31.641,25.555C31.641,24.584 32.428,23.797 33.398,23.797L51.211,23.797C52.181,23.797 52.969,24.584 52.969,25.555C52.969,26.525 52.181,27.313 51.211,27.313ZM51.211,20.281L33.398,20.281C32.428,20.281 31.641,19.494 31.641,18.523C31.641,17.553 32.428,16.766 33.398,16.766L51.211,16.766C52.181,16.766 52.969,17.553 52.969,18.523C52.969,19.494 52.181,20.281 51.211,20.281ZM47.695,13.25C46.725,13.25 45.938,12.462 45.938,11.492L45.938,-0.813L28.125,-0.813L28.125,44.891L58.242,44.891C59.212,44.891 60,44.103 60,43.133L60,13.25L47.695,13.25Z" fill="#2437AC"/>
</svg>
