<svg width="130" height="130" viewBox="0 0 130 130" fill="none" xmlns="http://www.w3.org/2000/svg" xmlns:xlink="http://www.w3.org/1999/xlink">
<path d="M118.589,59.922C119.009,59.922 119.415,59.773 119.735,59.503C120.056,59.232 120.271,58.857 120.341,58.444L122.866,43.672L128.223,43.672C128.694,43.672 129.146,43.484 129.479,43.151C129.812,42.818 130,42.366 130,41.895L130,33.387C130,32.915 129.813,32.463 129.479,32.13C129.146,31.797 128.694,31.609 128.223,31.609L123.145,31.609L123.145,31.484C123.14,27.782 121.667,24.233 119.049,21.615C116.431,18.997 112.882,17.524 109.18,17.52L106.256,17.52L104.406,1.569C104.355,1.137 104.147,0.738 103.822,0.448C103.496,0.159 103.076,0 102.64,0L95.915,0C95.479,0 95.058,0.159 94.733,0.448C94.407,0.738 94.199,1.137 94.148,1.569L92.299,17.524L89.375,17.524C85.673,17.528 82.124,19 79.507,21.617C76.889,24.234 75.416,27.783 75.41,31.484L75.41,31.605L70.332,31.605C69.861,31.605 69.409,31.792 69.075,32.126C68.742,32.459 68.555,32.911 68.555,33.383L68.555,41.888C68.554,42.122 68.599,42.354 68.689,42.57C68.778,42.787 68.908,42.983 69.073,43.149C69.239,43.315 69.435,43.446 69.651,43.536C69.867,43.625 70.098,43.672 70.332,43.672L75.688,43.672L78.213,58.444C78.284,58.857 78.499,59.232 78.819,59.503C79.14,59.773 79.546,59.922 79.965,59.922L85.186,59.922L85.186,80.742L1.777,80.742C1.307,80.742 0.856,80.929 0.523,81.261C0.19,81.593 0.002,82.044 0,82.514L0,92.671C-0.001,92.905 0.045,93.136 0.134,93.352C0.223,93.568 0.354,93.765 0.519,93.93C0.684,94.096 0.88,94.227 1.096,94.317C1.312,94.407 1.544,94.453 1.777,94.453L6.221,94.453L6.221,128.225C6.222,128.696 6.409,129.147 6.742,129.48C7.075,129.813 7.527,130 7.998,130L122.002,130C122.473,130 122.925,129.812 123.258,129.479C123.592,129.146 123.779,128.694 123.779,128.223L123.779,94.453L128.223,94.453C128.694,94.453 129.146,94.266 129.479,93.932C129.812,93.599 130,93.147 130,92.676L130,82.52C130,82.048 129.812,81.596 129.479,81.263C129.146,80.93 128.694,80.742 128.223,80.742L113.369,80.742L113.369,59.922L118.589,59.922ZM117.09,56.367L109.628,56.367L110.575,43.672L119.26,43.672L117.09,56.367ZM91.544,43.672L107.01,43.672L106.063,56.367L92.492,56.367L91.544,43.672ZM97.5,3.555L101.055,3.555L102.68,17.527L95.875,17.527L97.5,3.555ZM78.965,31.484C78.969,28.725 80.067,26.08 82.019,24.129C83.97,22.178 86.616,21.081 89.375,21.078L109.18,21.078C111.939,21.081 114.585,22.178 116.536,24.129C118.488,26.08 119.586,28.725 119.59,31.484L119.59,31.605L78.965,31.605L78.965,31.484ZM72.109,35.164L126.445,35.164L126.445,40.117L72.109,40.117L72.109,35.164ZM79.295,43.672L87.98,43.672L88.927,56.367L81.464,56.367L79.295,43.672ZM120.225,126.445L9.775,126.445L9.775,94.453L120.225,94.453L120.225,126.445ZM126.445,90.898L3.555,90.898L3.555,84.297L126.445,84.297L126.445,90.898ZM109.814,80.742L88.74,80.742L88.74,59.922L109.814,59.922L109.814,80.742Z" fill="#2437AC"/>
<path d="M38.022,121.875L50.59,121.875C51.062,121.875 51.514,121.688 51.847,121.354C52.18,121.021 52.368,120.569 52.368,120.098L52.368,100.801C52.368,100.329 52.18,99.877 51.847,99.544C51.514,99.211 51.062,99.023 50.59,99.023L38.022,99.023C37.551,99.024 37.099,99.211 36.765,99.544C36.432,99.878 36.245,100.329 36.245,100.801L36.245,120.098C36.245,120.569 36.432,121.021 36.765,121.354C37.099,121.687 37.551,121.875 38.022,121.875ZM39.799,102.578L48.813,102.578L48.813,118.32L39.799,118.32L39.799,102.578Z" fill="#2437AC"/>
<path d="M58.715,121.875L71.284,121.875C71.755,121.875 72.207,121.688 72.54,121.354C72.874,121.021 73.061,120.569 73.061,120.098L73.061,100.801C73.061,100.329 72.874,99.877 72.54,99.544C72.207,99.211 71.755,99.023 71.284,99.023L58.715,99.023C58.244,99.024 57.792,99.211 57.459,99.544C57.126,99.878 56.938,100.329 56.938,100.801L56.938,120.098C56.938,120.569 57.126,121.021 57.459,121.354C57.792,121.687 58.244,121.875 58.715,121.875ZM60.493,102.578L69.506,102.578L69.506,118.32L60.493,118.32L60.493,102.578Z" fill="#2437AC"/>
<path d="M100.102,121.875L113.877,121.875C114.348,121.875 114.8,121.687 115.133,121.354C115.467,121.021 115.654,120.569 115.654,120.098L115.654,100.801C115.654,100.329 115.467,99.878 115.133,99.544C114.8,99.211 114.348,99.024 113.877,99.023L100.102,99.023C99.631,99.024 99.179,99.211 98.846,99.544C98.512,99.878 98.325,100.329 98.325,100.801L98.325,120.098C98.325,120.569 98.512,121.021 98.846,121.354C99.179,121.687 99.631,121.875 100.102,121.875ZM101.879,102.578L112.1,102.578L112.1,118.32L101.879,118.32L101.879,102.578Z" fill="#2437AC"/>
<path d="M79.409,121.875L91.977,121.875C92.448,121.875 92.901,121.688 93.234,121.354C93.567,121.021 93.754,120.569 93.754,120.098L93.754,100.801C93.754,100.329 93.567,99.877 93.234,99.544C92.901,99.211 92.448,99.023 91.977,99.023L79.409,99.023C78.937,99.024 78.485,99.211 78.152,99.544C77.819,99.878 77.632,100.329 77.631,100.801L77.631,120.098C77.632,120.569 77.819,121.021 78.152,121.354C78.485,121.687 78.937,121.875 79.409,121.875ZM81.186,102.578L90.2,102.578L90.2,118.32L81.186,118.32L81.186,102.578Z" fill="#2437AC"/>
<path d="M16.123,121.875L29.897,121.875C30.368,121.875 30.82,121.688 31.154,121.354C31.487,121.021 31.674,120.569 31.674,120.098L31.674,100.801C31.674,100.329 31.487,99.877 31.154,99.544C30.82,99.211 30.368,99.023 29.897,99.023L16.123,99.023C15.652,99.024 15.2,99.211 14.867,99.544C14.533,99.878 14.346,100.329 14.346,100.801L14.346,120.098C14.346,120.569 14.533,121.021 14.867,121.354C15.2,121.687 15.652,121.875 16.123,121.875ZM17.9,102.578L28.12,102.578L28.12,118.32L17.9,118.32L17.9,102.578Z" fill="#2437AC"/>
<path d="M6.854,63.909C7.088,63.91 7.319,63.864 7.534,63.774C7.75,63.685 7.946,63.554 8.11,63.388L17.259,54.241L20.423,55.14L16.237,59.327C16.072,59.492 15.941,59.688 15.851,59.903C15.762,60.119 15.716,60.35 15.716,60.583C15.716,60.817 15.762,61.048 15.851,61.263C15.941,61.479 16.072,61.675 16.237,61.84C16.401,62.005 16.597,62.135 16.813,62.225C17.028,62.314 17.26,62.36 17.493,62.36C17.726,62.36 17.957,62.314 18.173,62.225C18.388,62.135 18.584,62.005 18.749,61.84L24.375,56.217C26.634,56.679 28.973,56.573 31.182,55.908C33.39,55.244 35.399,54.042 37.028,52.41L64.728,24.707C64.893,24.542 65.024,24.347 65.113,24.131C65.203,23.915 65.249,23.684 65.249,23.451C65.249,23.217 65.203,22.986 65.113,22.77C65.024,22.555 64.893,22.359 64.728,22.194L61.369,18.834C59.892,17.359 57.89,16.531 55.803,16.531C53.716,16.531 51.715,17.359 50.238,18.834L42.852,26.219L30.367,23.328C28.898,22.983 27.365,23.02 25.914,23.436C24.463,23.852 23.143,24.632 22.079,25.703L19.302,28.479C19.097,28.684 18.946,28.936 18.86,29.212C18.775,29.489 18.758,29.782 18.812,30.066C18.866,30.351 18.988,30.617 19.169,30.844C19.349,31.07 19.582,31.249 19.847,31.365L32.277,36.794L26.723,42.35L15.856,43.355C15.443,43.393 15.056,43.575 14.763,43.868L9.38,49.251C9.161,49.47 9.003,49.742 8.922,50.041C8.84,50.34 8.838,50.655 8.916,50.954C8.994,51.254 9.149,51.528 9.366,51.75C9.582,51.971 9.853,52.132 10.151,52.217L13.345,53.125L5.598,60.875C5.35,61.123 5.181,61.44 5.112,61.785C5.044,62.129 5.079,62.487 5.213,62.811C5.348,63.136 5.575,63.414 5.867,63.609C6.159,63.804 6.503,63.909 6.854,63.909ZM16.826,46.834L27.693,45.829C28.106,45.79 28.492,45.609 28.786,45.315L36.636,37.465C36.841,37.26 36.993,37.008 37.078,36.732C37.163,36.455 37.18,36.162 37.126,35.878C37.072,35.594 36.95,35.327 36.769,35.1C36.589,34.874 36.356,34.695 36.091,34.579L23.664,29.147L24.599,28.212C25.238,27.57 26.031,27.101 26.902,26.852C27.773,26.603 28.694,26.582 29.576,26.79L43.012,29.904C43.305,29.973 43.611,29.965 43.901,29.882C44.191,29.799 44.455,29.643 44.668,29.43L52.75,21.347C53.56,20.538 54.658,20.083 55.803,20.083C56.947,20.083 58.045,20.538 58.855,21.347L60.958,23.45L34.512,49.896C33.201,51.207 31.563,52.143 29.769,52.61C27.974,53.076 26.088,53.055 24.305,52.549L14.032,49.628L16.826,46.834Z" fill="#2437AC"/>
</svg>
