<svg width="80" height="82" viewBox="0 0 80 82" fill="none" xmlns="http://www.w3.org/2000/svg" xmlns:xlink="http://www.w3.org/1999/xlink">
<path d="M70.615,48.009C73.246,40.253 73.176,31.836 70.417,24.125C67.657,16.415 62.37,9.865 55.415,5.54C48.461,1.216 40.248,-0.628 32.112,0.308C23.976,1.244 16.396,4.905 10.605,10.696C4.814,16.487 1.153,24.067 0.216,32.203C-0.72,40.338 1.124,48.552 5.448,55.506C9.772,62.461 16.322,67.749 24.033,70.508C31.743,73.268 40.161,73.338 47.916,70.707C49.112,73.11 50.863,75.195 53.024,76.789C55.185,78.382 57.694,79.439 60.344,79.871C62.994,80.304 65.709,80.1 68.264,79.276C70.82,78.453 73.143,77.033 75.042,75.134C76.94,73.236 78.36,70.913 79.184,68.357C80.007,65.802 80.211,63.087 79.779,60.437C79.346,57.787 78.29,55.278 76.696,53.117C75.103,50.956 73.018,49.205 70.615,48.009ZM68.594,47.159C64.434,45.716 59.876,45.957 55.891,47.829L57.494,45.03C57.589,44.865 57.638,44.677 57.638,44.487L57.638,39.315L61.037,35.819C61.236,35.614 61.347,35.341 61.346,35.056L61.346,30.607C61.346,30.368 61.268,30.136 61.124,29.945C60.979,29.755 60.777,29.618 60.546,29.554L54.546,27.881L52.328,23.54C52.249,23.386 52.135,23.253 51.996,23.152C51.856,23.051 51.694,22.984 51.524,22.957L43.018,21.619L43.018,20.784L54.5,18.243L58.791,22.53C58.996,22.735 59.274,22.851 59.565,22.851L67.552,22.851C70.882,30.548 71.253,39.203 68.594,47.156L68.594,47.159ZM66.506,20.666L60.017,20.666L55.625,16.272C55.495,16.142 55.335,16.047 55.158,15.996C54.982,15.944 54.795,15.938 54.616,15.977L41.688,18.838C41.445,18.892 41.227,19.027 41.071,19.221C40.915,19.415 40.83,19.656 40.83,19.905L40.83,22.554C40.83,22.815 40.923,23.067 41.093,23.265C41.262,23.463 41.497,23.594 41.754,23.634L50.633,25.03L52.816,29.303C52.885,29.438 52.981,29.556 53.098,29.652C53.215,29.748 53.351,29.818 53.496,29.859L59.159,31.437L59.159,34.612L55.76,38.108C55.562,38.312 55.451,38.586 55.451,38.87L55.451,44.195L51.84,50.5C50.378,51.797 49.15,53.335 48.21,55.047L45.772,55.047L45.772,51.585C45.772,51.433 45.74,51.283 45.679,51.144C45.618,51.006 45.529,50.881 45.418,50.779L40.688,46.442L40.688,41.413C40.688,41.188 40.619,40.969 40.49,40.786C40.361,40.602 40.179,40.462 39.968,40.385L30.198,36.833L30.198,28.708L36.581,21.815C36.685,21.703 36.764,21.571 36.813,21.427C36.863,21.283 36.882,21.131 36.869,20.979C36.856,20.827 36.812,20.68 36.739,20.546C36.665,20.413 36.565,20.296 36.445,20.204L30.606,15.725L35.391,8.975L45.155,8.975C45.445,8.975 45.723,8.859 45.928,8.654L49.59,4.993C56.869,8.108 62.846,13.645 66.506,20.666ZM14.267,10.363L17.013,16.02L14.802,17.127C14.693,17.181 14.594,17.253 14.509,17.34L9.318,22.637C9.175,22.783 9.075,22.967 9.031,23.167C8.987,23.367 9,23.575 9.068,23.769L9.813,25.861C8.959,26.387 8.186,27.033 7.518,27.78L3.108,28.523C4.793,21.433 8.703,15.069 14.267,10.363ZM2.196,36.68L5.779,36.68L14.819,40.08L19.444,47.91L19.444,51.044L18.089,53.102C17.941,53.327 17.881,53.599 17.921,53.865C17.96,54.132 18.097,54.374 18.305,54.546L18.649,54.83L15.368,56.791C15.206,56.888 15.072,57.025 14.978,57.19C14.885,57.354 14.836,57.54 14.836,57.729L14.836,62.83C10.93,59.674 7.771,55.693 5.585,51.172C3.4,46.65 2.242,41.701 2.196,36.68ZM36.269,70.443C29.394,70.449 22.68,68.364 17.019,64.464C17.019,64.45 17.023,64.437 17.023,64.424L17.023,58.35L21.099,55.913C21.249,55.823 21.376,55.699 21.468,55.55C21.561,55.401 21.616,55.232 21.629,55.057C21.642,54.883 21.614,54.707 21.545,54.546C21.477,54.385 21.37,54.243 21.235,54.131L20.455,53.485L21.451,51.974C21.569,51.796 21.632,51.586 21.631,51.372L21.631,47.611C21.632,47.416 21.579,47.224 21.48,47.055L16.507,38.637C16.38,38.422 16.184,38.257 15.95,38.169L6.363,34.562C6.239,34.516 6.109,34.492 5.978,34.492L2.241,34.492C2.309,33.261 2.444,32.035 2.645,30.819L8.27,29.872C8.53,29.829 8.765,29.692 8.933,29.489C9.675,28.591 10.598,27.86 11.642,27.343C11.881,27.224 12.068,27.021 12.168,26.773C12.268,26.525 12.273,26.25 12.184,25.998L11.359,23.678L15.944,19L18.958,17.492C19.216,17.363 19.412,17.138 19.505,16.866C19.597,16.593 19.579,16.295 19.453,16.036L16.021,8.968C20.457,5.678 25.629,3.518 31.088,2.677C36.547,1.836 42.128,2.338 47.35,4.14L44.702,6.787L34.825,6.787C34.65,6.787 34.478,6.829 34.323,6.909C34.168,6.99 34.034,7.106 33.933,7.248L28.212,15.319C28.049,15.55 27.981,15.835 28.023,16.115C28.065,16.394 28.214,16.647 28.439,16.819L34.161,21.208L28.302,27.53C28.114,27.733 28.01,27.998 28.01,28.274L28.01,37.599C28.01,37.824 28.079,38.043 28.208,38.226C28.337,38.41 28.519,38.55 28.73,38.627L38.5,42.179L38.5,46.923C38.5,47.075 38.532,47.224 38.593,47.363C38.654,47.502 38.743,47.627 38.855,47.729L43.585,52.065L43.585,56.14C43.585,56.431 43.7,56.709 43.906,56.914C44.111,57.119 44.389,57.234 44.679,57.234L47.208,57.234C45.828,60.919 45.778,64.97 47.066,68.687C43.586,69.851 39.939,70.444 36.269,70.443ZM63.068,77.905C60.151,77.906 57.3,77.041 54.875,75.421C52.45,73.8 50.56,71.497 49.444,68.803C48.328,66.109 48.036,63.144 48.605,60.283C49.174,57.423 50.578,54.795 52.64,52.733C54.703,50.671 57.33,49.266 60.19,48.697C63.051,48.129 66.016,48.421 68.71,49.537C71.405,50.653 73.708,52.543 75.328,54.968C76.948,57.393 77.813,60.244 77.813,63.16C77.808,67.07 76.253,70.818 73.489,73.582C70.725,76.346 66.977,77.901 63.068,77.905Z" fill="#FFFFFF"/>
<path d="M74.777,56.982L73.386,55.591C72.708,54.912 71.788,54.531 70.829,54.531C69.87,54.531 68.95,54.912 68.271,55.591L65.354,58.507L60.379,57.356C59.711,57.199 59.015,57.216 58.356,57.405C57.696,57.593 57.096,57.948 56.613,58.434L55.464,59.584C55.338,59.71 55.244,59.865 55.192,60.035C55.139,60.205 55.129,60.386 55.162,60.561C55.195,60.736 55.27,60.9 55.381,61.039C55.492,61.179 55.636,61.289 55.799,61.36L60.464,63.397L58.627,65.234L54.258,65.639C54.004,65.662 53.766,65.772 53.585,65.952L51.355,68.181C51.22,68.316 51.123,68.484 51.073,68.668C51.023,68.851 51.022,69.045 51.07,69.23C51.118,69.414 51.213,69.583 51.347,69.719C51.48,69.855 51.646,69.955 51.829,70.007L57.287,71.559C58.339,71.858 59.451,71.871 60.51,71.597C61.568,71.322 62.534,70.77 63.308,69.997L74.777,58.527C74.879,58.426 74.959,58.305 75.014,58.173C75.069,58.04 75.098,57.898 75.098,57.754C75.098,57.611 75.069,57.469 75.014,57.336C74.959,57.203 74.879,57.083 74.777,56.982ZM61.761,68.451C61.263,68.948 60.641,69.304 59.96,69.481C59.279,69.658 58.563,69.65 57.886,69.457L54.219,68.415L54.853,67.781L59.223,67.376C59.476,67.353 59.714,67.243 59.895,67.063L63.145,63.813C63.271,63.687 63.364,63.532 63.417,63.362C63.469,63.192 63.479,63.012 63.446,62.837C63.413,62.662 63.338,62.498 63.227,62.359C63.116,62.219 62.973,62.109 62.809,62.038L58.144,60L58.161,59.984C58.382,59.761 58.657,59.598 58.958,59.512C59.26,59.425 59.579,59.418 59.885,59.49L65.452,60.779C65.633,60.821 65.821,60.816 66,60.765C66.178,60.713 66.34,60.618 66.471,60.486L69.818,57.141C70.09,56.88 70.452,56.735 70.829,56.735C71.205,56.735 71.567,56.88 71.839,57.141L72.457,57.758L61.761,68.451Z" fill="#FFFFFF"/>
</svg>
