<svg width="40" height="42" viewBox="0 0 40 42" fill="none" xmlns="http://www.w3.org/2000/svg" xmlns:xlink="http://www.w3.org/1999/xlink">
<path d="M38.6,5.355C38.524,5.196 38.387,5.073 38.221,5.014L24.392,0.132C24.045,0.009 23.664,0.191 23.541,0.538L20.4,9.427L19.026,9.427L19.026,7.16C19.026,6.854 18.956,6.552 18.82,6.278C18.685,6.003 18.489,5.763 18.246,5.576C18.004,5.389 17.721,5.261 17.421,5.2C17.121,5.14 16.811,5.149 16.515,5.227L0.497,9.449L0.497,9.461C0.356,9.497 0.23,9.578 0.14,9.693C0.05,9.807 0.001,9.948 0,10.094L0,38.094C0,39.198 0.895,40.094 2,40.094L20.667,40.094C21.771,40.094 22.667,39.198 22.667,38.094L22.667,32.045L28.013,33.932C28.361,34.054 28.741,33.872 28.864,33.525L38.629,5.865C38.657,5.782 38.67,5.694 38.665,5.607C38.66,5.52 38.638,5.434 38.6,5.355L38.6,5.355ZM16.855,6.513C16.954,6.487 17.057,6.484 17.157,6.504C17.257,6.524 17.352,6.567 17.432,6.629C17.513,6.691 17.579,6.772 17.624,6.863C17.669,6.955 17.693,7.056 17.693,7.158L17.693,9.427L5.807,9.427L16.855,6.513ZM21.333,38.094C21.333,38.271 21.263,38.44 21.138,38.565C21.013,38.69 20.843,38.76 20.667,38.76L2,38.76C1.823,38.76 1.654,38.69 1.529,38.565C1.404,38.44 1.333,38.271 1.333,38.094L1.333,10.76L20.667,10.76C20.843,10.76 21.013,10.831 21.138,10.956C21.263,11.081 21.333,11.25 21.333,11.427L21.333,38.094ZM26.813,13.298L27.667,12.894L28.073,13.744L24.834,22.912C24.775,23.078 24.785,23.262 24.861,23.421L25.555,24.873L25.341,25.482L24.019,24.113C23.947,24.038 23.859,23.981 23.761,23.946C23.664,23.911 23.559,23.9 23.457,23.912L22.667,24.012L22.667,23.119L23.235,22.847C23.395,22.771 23.518,22.634 23.577,22.468L24.91,18.697L26.813,13.298ZM28.071,17.748L29.424,19.923L29.193,20.578L27.573,19.16L28.071,17.748ZM22.667,21.04L22.667,19.208L23.323,19.18L22.667,21.04ZM23.8,17.826L22.667,17.873L22.667,16.986L24.299,16.416L23.8,17.826ZM27.828,32.452L22.667,30.63L22.667,25.356L23.291,25.278L25.133,27.184C25.196,27.248 25.271,27.298 25.353,27.332C25.435,27.367 25.524,27.384 25.613,27.384C25.661,27.384 25.708,27.379 25.755,27.368C25.866,27.344 25.969,27.292 26.054,27.217C26.139,27.142 26.203,27.046 26.241,26.939L26.908,25.053C26.967,24.886 26.957,24.703 26.88,24.544L26.183,23.094L27.095,20.51L29.054,22.227C29.176,22.334 29.332,22.393 29.494,22.393C29.55,22.393 29.607,22.385 29.662,22.37C29.767,22.343 29.864,22.29 29.945,22.216C30.025,22.143 30.086,22.051 30.122,21.948L30.789,20.062C30.822,19.968 30.834,19.867 30.823,19.768C30.812,19.668 30.779,19.573 30.726,19.488L28.639,16.136L29.421,13.923C29.45,13.841 29.462,13.753 29.458,13.665C29.453,13.578 29.431,13.492 29.393,13.413L28.58,11.713C28.542,11.634 28.489,11.563 28.424,11.504C28.359,11.446 28.283,11.4 28.201,11.371C28.118,11.342 28.03,11.329 27.943,11.334C27.855,11.339 27.77,11.361 27.691,11.398L25.989,12.212C25.91,12.25 25.84,12.303 25.781,12.368C25.723,12.433 25.678,12.509 25.649,12.591L24.867,14.806L22.667,15.574L22.667,11.427C22.666,11.086 22.578,10.751 22.41,10.453C22.243,10.156 22.002,9.907 21.711,9.729L22.8,6.64L23.045,5.947L24.578,1.613L37.151,6.051L27.828,32.452Z" fill="#2437AC"/>
<path d="M33.088,10.274L33.532,9.017L34.675,9.42L34.231,10.678L33.088,10.274ZM23.944,7.046L24.388,5.789L25.531,6.192L25.087,7.45L23.944,7.046ZM30.802,9.467L31.246,8.21L32.389,8.613L31.945,9.871L30.802,9.467ZM26.23,7.853L26.674,6.596L27.817,7L27.373,8.257L26.23,7.853ZM28.516,8.66L28.96,7.402L30.103,7.806L29.659,9.063L28.516,8.66ZM11.026,13.429C7.344,13.429 4.359,16.414 4.359,20.096C4.359,23.778 7.344,26.763 11.026,26.763C14.708,26.763 17.693,23.778 17.693,20.096C17.689,16.416 14.706,13.434 11.026,13.429ZM15.84,17.817L14.931,17.617C14.531,17.529 14.13,17.459 13.726,17.398C13.666,16.995 13.593,16.593 13.507,16.194L13.307,15.285C14.417,15.813 15.311,16.707 15.84,17.817ZM5.693,20.096C5.694,19.824 5.716,19.552 5.759,19.282L7.408,18.915C7.661,18.859 7.915,18.813 8.171,18.769C8.106,19.653 8.106,20.54 8.171,21.424C7.915,21.38 7.661,21.333 7.408,21.277L5.759,20.91C5.716,20.641 5.694,20.369 5.693,20.096L5.693,20.096ZM9.523,18.594C10.523,18.505 11.528,18.505 12.527,18.594C12.617,19.593 12.617,20.599 12.527,21.598C11.528,21.688 10.523,21.688 9.523,21.598C9.434,20.599 9.434,19.593 9.523,18.594ZM13.879,18.769C14.134,18.813 14.389,18.859 14.641,18.915L16.29,19.282C16.382,19.821 16.382,20.372 16.29,20.91L14.641,21.277C14.389,21.333 14.134,21.38 13.879,21.424C13.943,20.54 13.943,19.653 13.879,18.769ZM11.839,14.83L12.206,16.479C12.262,16.732 12.309,16.986 12.354,17.242C11.469,17.177 10.582,17.177 9.698,17.242C9.742,16.986 9.789,16.732 9.845,16.479L10.212,14.83C10.751,14.738 11.301,14.738 11.839,14.83ZM8.746,15.28L8.546,16.19C8.458,16.59 8.388,16.99 8.327,17.394C7.924,17.454 7.522,17.527 7.123,17.612L6.214,17.812C6.743,16.704 7.637,15.81 8.746,15.282L8.746,15.28ZM6.212,22.373L7.122,22.574C7.522,22.662 7.922,22.731 8.326,22.792C8.386,23.196 8.459,23.597 8.544,23.996L8.745,24.905C7.635,24.378 6.74,23.484 6.211,22.375L6.212,22.373ZM10.212,25.359L9.846,23.709C9.789,23.457 9.743,23.202 9.698,22.947C10.14,22.98 10.583,23.001 11.027,23.001C11.47,23.001 11.912,22.98 12.354,22.947C12.31,23.202 12.263,23.457 12.207,23.709L11.84,25.359C11.301,25.45 10.751,25.45 10.212,25.359ZM13.306,24.908L13.506,23.999C13.595,23.599 13.664,23.199 13.725,22.795C14.129,22.734 14.53,22.661 14.929,22.576L15.838,22.376C15.31,23.487 14.416,24.381 13.305,24.91L13.306,24.908ZM5.693,32.096L16.359,32.096L16.359,33.429L5.693,33.429L5.693,32.096ZM7.026,34.763L15.026,34.763L15.026,36.096L7.026,36.096L7.026,34.763ZM10.359,29.429L11.693,29.429L11.693,30.763L10.359,30.763L10.359,29.429ZM7.693,29.429L9.026,29.429L9.026,30.763L7.693,30.763L7.693,29.429ZM13.026,29.429L14.359,29.429L14.359,30.763L13.026,30.763L13.026,29.429Z" fill="#2437AC"/>
</svg>
