<svg width="90" height="90" viewBox="0 0 90 90" fill="none" xmlns="http://www.w3.org/2000/svg" xmlns:xlink="http://www.w3.org/1999/xlink">
<path d="M47.812,55.521L67.676,55.521C68.002,55.52 68.315,55.391 68.546,55.16C68.776,54.929 68.906,54.616 68.906,54.29L68.906,45.848C68.906,45.521 68.776,45.209 68.546,44.978C68.315,44.747 68.002,44.617 67.676,44.617L47.812,44.617C47.486,44.617 47.173,44.747 46.943,44.978C46.712,45.209 46.582,45.521 46.582,45.848L46.582,54.29C46.582,54.616 46.712,54.929 46.943,55.16C47.173,55.391 47.486,55.52 47.812,55.521ZM49.043,47.078L66.445,47.078L66.445,53.06L49.043,53.06L49.043,47.078Z" fill="#2437AC"/>
<path d="M22.324,55.521L42.188,55.521C42.514,55.52 42.827,55.391 43.057,55.16C43.288,54.929 43.418,54.616 43.418,54.29L43.418,45.848C43.418,45.521 43.288,45.209 43.057,44.978C42.827,44.747 42.514,44.617 42.188,44.617L22.324,44.617C21.998,44.617 21.685,44.747 21.454,44.978C21.224,45.209 21.094,45.521 21.094,45.848L21.094,54.29C21.094,54.616 21.224,54.929 21.454,55.16C21.685,55.391 21.998,55.52 22.324,55.521ZM23.555,47.078L40.957,47.078L40.957,53.06L23.555,53.06L23.555,47.078Z" fill="#2437AC"/>
<path d="M67.676,73.469L47.813,73.469C47.486,73.469 47.173,73.599 46.943,73.829C46.712,74.06 46.582,74.373 46.582,74.699L46.582,83.142C46.582,83.303 46.614,83.464 46.675,83.613C46.737,83.763 46.828,83.898 46.942,84.013C47.056,84.127 47.192,84.218 47.341,84.28C47.491,84.342 47.651,84.374 47.813,84.374L67.676,84.374C68.002,84.374 68.315,84.244 68.546,84.014C68.776,83.783 68.906,83.47 68.906,83.144L68.906,74.699C68.906,74.373 68.776,74.06 68.546,73.829C68.315,73.599 68.002,73.469 67.676,73.469ZM66.445,81.913L49.043,81.913L49.043,75.93L66.445,75.93L66.445,81.913Z" fill="#2437AC"/>
<path d="M35.068,58.688C34.742,58.688 34.429,58.817 34.198,59.048C33.968,59.279 33.838,59.592 33.838,59.918L33.838,69.075C33.838,69.401 33.968,69.714 34.198,69.945C34.429,70.176 34.742,70.305 35.068,70.305L54.932,70.305C55.258,70.305 55.571,70.176 55.802,69.945C56.032,69.714 56.162,69.401 56.162,69.075L56.162,59.918C56.162,59.592 56.032,59.279 55.801,59.048C55.571,58.817 55.258,58.688 54.932,58.688L35.068,58.688ZM53.701,67.844L36.299,67.844L36.299,61.148L53.701,61.148L53.701,67.844Z" fill="#2437AC"/>
<path d="M72.07,45.848L72.07,54.29C72.07,54.616 72.2,54.929 72.431,55.16C72.662,55.391 72.974,55.52 73.301,55.521L83.145,55.521C83.471,55.52 83.784,55.391 84.014,55.16C84.245,54.929 84.375,54.616 84.375,54.29L84.375,45.848C84.375,45.521 84.245,45.209 84.014,44.978C83.784,44.747 83.471,44.617 83.145,44.617L73.301,44.617C72.974,44.617 72.662,44.747 72.431,44.978C72.2,45.209 72.07,45.521 72.07,45.848ZM74.531,47.078L81.914,47.078L81.914,53.06L74.531,53.06L74.531,47.078Z" fill="#2437AC"/>
<path d="M16.699,73.469L6.855,73.469C6.529,73.469 6.216,73.599 5.986,73.829C5.755,74.06 5.625,74.373 5.625,74.699L5.625,83.142C5.625,83.303 5.657,83.464 5.718,83.613C5.78,83.763 5.871,83.898 5.985,84.013C6.099,84.127 6.235,84.218 6.384,84.28C6.534,84.342 6.694,84.374 6.855,84.374L16.699,84.374C17.025,84.374 17.338,84.244 17.569,84.014C17.8,83.783 17.929,83.47 17.93,83.144L17.93,74.699C17.929,74.373 17.8,74.06 17.569,73.829C17.338,73.599 17.025,73.469 16.699,73.469ZM15.469,81.913L8.086,81.913L8.086,75.93L15.469,75.93L15.469,81.913Z" fill="#2437AC"/>
<path d="M83.145,73.469L73.301,73.469C72.974,73.469 72.662,73.599 72.431,73.829C72.2,74.06 72.07,74.373 72.07,74.699L72.07,83.142C72.07,83.468 72.2,83.781 72.431,84.012C72.662,84.242 72.974,84.372 73.301,84.372L83.145,84.372C83.471,84.372 83.784,84.242 84.014,84.012C84.245,83.781 84.375,83.468 84.375,83.142L84.375,74.699C84.375,74.373 84.245,74.06 84.014,73.829C83.784,73.599 83.471,73.469 83.145,73.469ZM81.914,81.913L74.531,81.913L74.531,75.93L81.914,75.93L81.914,81.913Z" fill="#2437AC"/>
<path d="M6.855,55.521L16.699,55.521C17.025,55.52 17.338,55.391 17.569,55.16C17.8,54.929 17.929,54.616 17.93,54.29L17.93,45.848C17.929,45.521 17.8,45.209 17.569,44.978C17.338,44.747 17.025,44.617 16.699,44.617L6.855,44.617C6.529,44.617 6.216,44.747 5.986,44.978C5.755,45.209 5.625,45.521 5.625,45.848L5.625,54.29C5.625,54.616 5.755,54.929 5.986,55.16C6.216,55.391 6.529,55.52 6.855,55.521ZM8.086,47.078L15.469,47.078L15.469,53.06L8.086,53.06L8.086,47.078Z" fill="#2437AC"/>
<path d="M42.188,73.469L22.324,73.469C21.998,73.469 21.685,73.599 21.454,73.829C21.224,74.06 21.094,74.373 21.094,74.699L21.094,83.142C21.094,83.303 21.125,83.464 21.187,83.613C21.249,83.763 21.339,83.898 21.454,84.013C21.568,84.127 21.704,84.218 21.853,84.28C22.002,84.342 22.162,84.374 22.324,84.374L42.188,84.374C42.514,84.374 42.827,84.244 43.057,84.014C43.288,83.783 43.418,83.47 43.418,83.144L43.418,74.699C43.418,74.373 43.288,74.06 43.057,73.829C42.827,73.599 42.514,73.469 42.188,73.469ZM40.957,81.913L23.555,81.913L23.555,75.93L40.957,75.93L40.957,81.913Z" fill="#2437AC"/>
<path d="M83.145,58.688L60.557,58.688C60.23,58.688 59.917,58.817 59.687,59.048C59.456,59.279 59.326,59.592 59.326,59.918L59.326,69.075C59.326,69.401 59.456,69.714 59.687,69.945C59.917,70.176 60.23,70.305 60.557,70.305L83.145,70.305C83.471,70.305 83.784,70.176 84.015,69.945C84.245,69.714 84.375,69.401 84.375,69.075L84.375,59.918C84.375,59.592 84.245,59.279 84.014,59.048C83.784,58.817 83.471,58.688 83.145,58.688ZM81.914,67.844L61.787,67.844L61.787,61.148L81.914,61.148L81.914,67.844Z" fill="#2437AC"/>
<path d="M6.855,70.305L29.443,70.305C29.77,70.305 30.083,70.176 30.313,69.945C30.544,69.714 30.674,69.401 30.674,69.075L30.674,59.918C30.674,59.592 30.544,59.279 30.313,59.048C30.083,58.817 29.77,58.688 29.443,58.688L6.855,58.688C6.529,58.688 6.216,58.817 5.986,59.048C5.755,59.279 5.625,59.592 5.625,59.918L5.625,69.075C5.625,69.401 5.755,69.714 5.985,69.945C6.216,70.176 6.529,70.305 6.855,70.305ZM8.086,61.148L28.213,61.148L28.213,67.844L8.086,67.844L8.086,61.148Z" fill="#2437AC"/>
<path d="M88.77,0L80.068,0C79.742,0 79.429,0.13 79.198,0.361C78.968,0.591 78.838,0.904 78.838,1.23L78.838,8.656L66.002,8.656L68.534,6.028C68.76,5.793 68.884,5.478 68.878,5.151C68.872,4.825 68.737,4.515 68.502,4.288C68.267,4.061 67.952,3.937 67.626,3.943C67.3,3.949 66.989,4.084 66.762,4.319L63.106,8.116L59.45,4.319C59.223,4.084 58.913,3.949 58.586,3.943C58.26,3.937 57.945,4.061 57.71,4.288C57.475,4.514 57.339,4.825 57.333,5.151C57.328,5.478 57.451,5.793 57.678,6.028L60.213,8.656L47.896,8.656L50.431,6.028C50.658,5.793 50.781,5.478 50.776,5.151C50.77,4.825 50.634,4.514 50.399,4.288C50.164,4.061 49.849,3.937 49.523,3.943C49.196,3.949 48.886,4.084 48.659,4.319L45,8.114L41.344,4.317C41.117,4.082 40.807,3.947 40.48,3.941C40.154,3.935 39.838,4.059 39.604,4.286C39.369,4.512 39.233,4.823 39.227,5.149C39.221,5.475 39.345,5.791 39.572,6.026L42.103,8.654L29.79,8.654L32.321,6.026C32.548,5.791 32.672,5.475 32.666,5.149C32.66,4.823 32.525,4.512 32.29,4.286C32.055,4.059 31.739,3.935 31.413,3.941C31.087,3.947 30.776,4.082 30.549,4.317L26.893,8.114L23.237,4.317C23.125,4.201 22.991,4.108 22.843,4.043C22.694,3.979 22.535,3.944 22.373,3.941C22.212,3.938 22.051,3.967 21.901,4.026C21.751,4.086 21.613,4.174 21.497,4.286C21.381,4.398 21.288,4.532 21.223,4.68C21.159,4.828 21.124,4.988 21.121,5.149C21.118,5.311 21.147,5.471 21.206,5.622C21.265,5.772 21.354,5.909 21.466,6.026L23.997,8.654L11.162,8.654L11.162,1.228C11.161,0.902 11.031,0.59 10.801,0.36C10.57,0.13 10.258,0 9.932,0L1.23,0C0.905,0 0.592,0.13 0.361,0.36C0.131,0.59 0.001,0.902 0,1.228L0,88.767C0,88.929 0.032,89.089 0.093,89.239C0.155,89.388 0.246,89.524 0.36,89.639C0.474,89.753 0.61,89.844 0.759,89.906C0.909,89.968 1.069,90 1.23,90L88.77,90C89.096,90 89.409,89.87 89.639,89.639C89.87,89.409 90,89.096 90,88.77L90,1.228C89.999,0.902 89.869,0.59 89.639,0.36C89.408,0.13 89.095,0 88.77,0ZM81.299,2.461L87.539,2.461L87.539,38.995L81.299,38.995L81.299,2.461ZM11.162,38.995L11.162,28.643L23.998,28.643L21.466,31.271C21.24,31.506 21.116,31.822 21.122,32.148C21.128,32.474 21.263,32.785 21.498,33.011C21.733,33.238 22.048,33.362 22.374,33.356C22.7,33.35 23.011,33.215 23.238,32.98L26.894,29.183L30.55,32.98C30.777,33.215 31.087,33.35 31.414,33.356C31.74,33.362 32.055,33.238 32.29,33.012C32.525,32.785 32.661,32.475 32.667,32.148C32.672,31.822 32.549,31.506 32.322,31.271L29.791,28.643L42.104,28.643L39.573,31.271C39.346,31.506 39.222,31.822 39.228,32.148C39.234,32.475 39.369,32.785 39.604,33.012C39.839,33.238 40.155,33.362 40.481,33.356C40.807,33.35 41.118,33.215 41.344,32.98L45.001,29.183L48.657,32.98C48.884,33.215 49.194,33.35 49.521,33.356C49.847,33.362 50.162,33.238 50.397,33.012C50.632,32.785 50.767,32.475 50.773,32.148C50.779,31.822 50.655,31.506 50.429,31.271L47.894,28.643L60.21,28.643L57.675,31.271C57.449,31.506 57.325,31.822 57.331,32.148C57.337,32.475 57.472,32.785 57.707,33.012C57.942,33.238 58.257,33.362 58.584,33.356C58.91,33.35 59.221,33.215 59.447,32.98L63.103,29.183L66.76,32.98C66.872,33.096 67.006,33.189 67.154,33.254C67.302,33.318 67.462,33.353 67.623,33.356C67.785,33.359 67.945,33.33 68.096,33.271C68.246,33.212 68.383,33.124 68.499,33.011C68.616,32.899 68.709,32.765 68.773,32.617C68.838,32.469 68.873,32.309 68.875,32.148C68.878,31.986 68.849,31.826 68.79,31.675C68.731,31.525 68.643,31.388 68.531,31.271L66,28.643L78.835,28.643L78.835,38.995L11.162,38.995ZM23.998,11.117L21.466,13.745C21.24,13.98 21.116,14.296 21.122,14.622C21.128,14.948 21.263,15.259 21.498,15.485C21.733,15.712 22.048,15.836 22.374,15.83C22.7,15.824 23.011,15.689 23.238,15.454L26.894,11.657L30.55,15.454C30.662,15.57 30.796,15.663 30.944,15.728C31.093,15.793 31.252,15.827 31.414,15.83C31.575,15.833 31.736,15.804 31.886,15.745C32.037,15.686 32.174,15.598 32.29,15.486C32.407,15.373 32.5,15.239 32.564,15.091C32.629,14.943 32.664,14.784 32.667,14.622C32.669,14.46 32.641,14.3 32.581,14.149C32.522,13.999 32.434,13.862 32.322,13.745L29.791,11.117L42.104,11.117L39.573,13.745C39.346,13.98 39.222,14.296 39.228,14.622C39.234,14.948 39.369,15.259 39.604,15.486C39.839,15.712 40.155,15.836 40.481,15.83C40.807,15.824 41.118,15.689 41.344,15.454L45.001,11.657L48.657,15.454C48.884,15.689 49.194,15.824 49.521,15.83C49.847,15.836 50.162,15.712 50.397,15.486C50.632,15.259 50.767,14.948 50.773,14.622C50.779,14.296 50.655,13.98 50.429,13.745L47.894,11.117L60.21,11.117L57.675,13.745C57.449,13.98 57.325,14.296 57.331,14.622C57.337,14.948 57.472,15.259 57.707,15.486C57.942,15.712 58.257,15.836 58.584,15.83C58.91,15.824 59.221,15.689 59.447,15.454L63.103,11.657L66.76,15.454C66.986,15.689 67.297,15.824 67.623,15.83C67.949,15.836 68.265,15.712 68.499,15.485C68.734,15.259 68.87,14.948 68.875,14.622C68.881,14.296 68.757,13.98 68.531,13.745L66,11.117L78.835,11.117L78.835,26.182L66.002,26.182L68.534,23.553C68.649,23.438 68.741,23.3 68.803,23.149C68.865,22.998 68.896,22.835 68.895,22.672C68.894,22.508 68.86,22.346 68.795,22.196C68.73,22.046 68.636,21.91 68.519,21.796C68.401,21.683 68.262,21.594 68.109,21.535C67.957,21.476 67.794,21.448 67.63,21.452C67.467,21.457 67.306,21.494 67.157,21.561C67.008,21.629 66.874,21.725 66.762,21.845L63.106,25.642L59.45,21.845C59.223,21.61 58.913,21.475 58.587,21.469C58.26,21.463 57.945,21.587 57.71,21.813C57.475,22.04 57.34,22.35 57.334,22.677C57.328,23.003 57.452,23.318 57.678,23.553L60.213,26.182L47.896,26.182L50.431,23.555C50.657,23.32 50.781,23.004 50.775,22.678C50.769,22.352 50.634,22.041 50.399,21.815C50.164,21.588 49.849,21.464 49.522,21.47C49.196,21.476 48.886,21.612 48.659,21.847L45.003,25.644L41.347,21.847C41.234,21.73 41.1,21.637 40.952,21.573C40.804,21.508 40.645,21.473 40.483,21.47C40.322,21.467 40.161,21.496 40.011,21.555C39.86,21.615 39.723,21.703 39.607,21.815C39.49,21.927 39.397,22.061 39.333,22.209C39.268,22.357 39.233,22.517 39.23,22.678C39.227,22.84 39.256,23 39.315,23.151C39.374,23.301 39.463,23.438 39.575,23.555L42.106,26.184L29.79,26.184L32.321,23.555C32.548,23.32 32.672,23.004 32.666,22.678C32.66,22.352 32.524,22.041 32.289,21.815C32.054,21.588 31.739,21.464 31.413,21.47C31.086,21.476 30.776,21.612 30.549,21.847L26.893,25.644L23.237,21.847C23.01,21.612 22.7,21.476 22.373,21.47C22.047,21.464 21.731,21.588 21.496,21.814C21.261,22.041 21.126,22.351 21.119,22.678C21.113,23.004 21.237,23.32 21.464,23.555L23.995,26.184L11.162,26.184L11.162,11.117L23.998,11.117ZM2.461,2.461L8.701,2.461L8.701,38.995L2.461,38.995L2.461,2.461ZM87.539,87.539L2.461,87.539L2.461,41.456L87.539,41.456L87.539,87.539Z" fill="#2437AC"/>
</svg>
