<svg width="90" height="92" viewBox="0 0 90 92" fill="none" xmlns="http://www.w3.org/2000/svg" xmlns:xlink="http://www.w3.org/1999/xlink">
<path d="M44.998,15.656C38.241,15.664 31.762,18.351 26.984,23.13C22.206,27.908 19.518,34.386 19.51,41.143C19.51,63.427 43.479,74.303 44.5,74.752C44.657,74.822 44.826,74.858 44.998,74.858C45.17,74.858 45.34,74.822 45.497,74.752C46.517,74.3 70.486,63.424 70.486,41.143C70.478,34.386 67.79,27.908 63.012,23.13C58.234,18.351 51.755,15.664 44.998,15.656ZM44.998,72.269C41.591,70.599 21.971,60.143 21.971,41.143C21.971,35.036 24.397,29.179 28.715,24.86C33.034,20.542 38.891,18.116 44.998,18.116C51.105,18.116 56.962,20.542 61.281,24.86C65.599,29.179 68.025,35.036 68.025,41.143C68.025,60.117 48.401,70.596 44.998,72.269Z" fill="#2437AC"/>
<path d="M44.998,22.234C41.258,22.234 37.602,23.343 34.492,25.421C31.382,27.499 28.958,30.453 27.527,33.908C26.096,37.363 25.722,41.166 26.451,44.834C27.181,48.502 28.982,51.871 31.627,54.516C34.272,57.161 37.641,58.961 41.309,59.691C44.978,60.42 48.78,60.046 52.235,58.614C55.69,57.183 58.644,54.759 60.721,51.649C62.799,48.539 63.908,44.883 63.908,41.143C63.901,36.13 61.907,31.324 58.362,27.779C54.817,24.234 50.011,22.24 44.998,22.234ZM35.418,54.502L35.418,52.993C35.419,51.268 36.104,49.615 37.324,48.395C38.543,47.175 40.197,46.488 41.922,46.487L48.074,46.487C49.798,46.488 51.451,47.174 52.671,48.394C53.89,49.613 54.576,51.266 54.578,52.99L54.578,54.502C51.787,56.511 48.436,57.592 44.998,57.592C41.559,57.592 38.208,56.511 35.418,54.502ZM57.007,52.368C56.848,50.106 55.838,47.99 54.182,46.443C52.525,44.895 50.344,44.033 48.077,44.028L41.925,44.028C39.658,44.033 37.478,44.895 35.821,46.443C34.164,47.99 33.155,50.106 32.995,52.368C30.804,50.026 29.345,47.095 28.797,43.935C28.25,40.775 28.638,37.524 29.914,34.582C31.19,31.64 33.299,29.135 35.98,27.375C38.661,25.616 41.798,24.678 45.005,24.678C48.212,24.678 51.349,25.616 54.03,27.375C56.711,29.135 58.819,31.64 60.095,34.582C61.371,37.524 61.76,40.775 61.212,43.935C60.665,47.095 59.206,50.026 57.014,52.368L57.007,52.368Z" fill="#2437AC"/>
<path d="M0.757,23.429C0.982,23.522 1.23,23.547 1.468,23.499C1.707,23.452 1.926,23.335 2.098,23.162L9.236,16.026L19.031,25.821C19.262,26.052 19.575,26.182 19.901,26.182C19.945,26.182 19.988,26.179 20.031,26.175C20.213,26.156 20.389,26.096 20.545,26C20.701,25.904 20.834,25.774 20.934,25.62C22.166,23.719 23.617,21.969 25.257,20.406C25.376,20.293 25.471,20.157 25.536,20.007C25.602,19.856 25.637,19.694 25.639,19.53C25.641,19.366 25.61,19.203 25.548,19.051C25.486,18.899 25.394,18.761 25.278,18.645L15.948,9.314L23.084,2.176C23.256,2.004 23.373,1.785 23.42,1.547C23.467,1.309 23.443,1.062 23.35,0.838C23.257,0.614 23.1,0.422 22.898,0.286C22.697,0.151 22.46,0.079 22.217,0.078L1.229,0.078C0.903,0.078 0.59,0.207 0.359,0.438C0.128,0.668 -0.001,0.981 -0.002,1.306L-0.002,22.293C-0.002,22.536 0.07,22.774 0.205,22.976C0.341,23.178 0.533,23.336 0.757,23.429ZM2.459,2.539L19.244,2.539L13.338,8.445C13.223,8.56 13.133,8.695 13.071,8.844C13.009,8.994 12.977,9.154 12.977,9.315C12.977,9.477 13.009,9.637 13.071,9.786C13.133,9.936 13.223,10.071 13.338,10.186L22.665,19.512C21.599,20.612 20.616,21.788 19.722,23.032L10.105,13.416C9.991,13.301 9.856,13.211 9.706,13.149C9.557,13.087 9.397,13.055 9.235,13.055C9.074,13.055 8.914,13.087 8.764,13.149C8.615,13.211 8.479,13.301 8.365,13.416L2.459,19.322L2.459,2.539Z" fill="#2437AC"/>
<path d="M23.489,61.861C23.383,61.72 23.248,61.603 23.093,61.518C22.939,61.433 22.767,61.383 22.591,61.37C22.415,61.358 22.239,61.383 22.073,61.445C21.908,61.506 21.758,61.603 21.633,61.727L9.236,74.126L2.098,66.988C1.926,66.816 1.707,66.699 1.468,66.652C1.23,66.604 0.982,66.629 0.758,66.722C0.533,66.815 0.341,66.972 0.206,67.175C0.07,67.377 -0.002,67.615 -0.002,67.858L-0.002,88.844C-0.002,89.006 0.029,89.166 0.091,89.316C0.153,89.465 0.243,89.601 0.358,89.716C0.472,89.83 0.608,89.921 0.757,89.983C0.907,90.045 1.067,90.077 1.229,90.077L22.217,90.077C22.46,90.077 22.698,90.005 22.901,89.87C23.103,89.735 23.261,89.542 23.354,89.318C23.447,89.093 23.471,88.845 23.424,88.606C23.376,88.368 23.259,88.148 23.087,87.977L15.95,80.839L28.015,68.772C28.13,68.657 28.221,68.521 28.283,68.371C28.345,68.221 28.376,68.06 28.376,67.898C28.375,67.736 28.342,67.575 28.279,67.425C28.216,67.276 28.125,67.14 28.009,67.026C26.375,65.42 24.864,63.693 23.489,61.861ZM13.338,79.967C13.223,80.081 13.133,80.217 13.071,80.366C13.009,80.515 12.977,80.675 12.977,80.837C12.977,80.999 13.009,81.159 13.071,81.308C13.133,81.457 13.223,81.593 13.338,81.707L19.244,87.613L2.459,87.613L2.459,70.829L8.365,76.736C8.479,76.85 8.615,76.941 8.764,77.003C8.914,77.065 9.074,77.096 9.235,77.096C9.397,77.096 9.557,77.065 9.706,77.003C9.856,76.941 9.991,76.85 10.105,76.736L22.385,64.456C23.321,65.63 24.333,66.78 25.408,67.895L13.338,79.967Z" fill="#2437AC"/>
<path d="M89.237,66.722C89.013,66.628 88.765,66.604 88.526,66.651C88.288,66.699 88.069,66.816 87.896,66.988L80.759,74.125L68.361,61.727C68.236,61.603 68.085,61.507 67.92,61.445C67.755,61.384 67.578,61.358 67.402,61.37C67.226,61.383 67.055,61.433 66.9,61.518C66.746,61.603 66.611,61.721 66.506,61.862C65.13,63.693 63.619,65.419 61.986,67.024C61.87,67.138 61.778,67.274 61.715,67.423C61.652,67.573 61.62,67.733 61.619,67.896C61.619,68.058 61.65,68.219 61.712,68.369C61.774,68.519 61.865,68.655 61.979,68.77L74.047,80.838L66.91,87.974C66.737,88.146 66.619,88.365 66.571,88.604C66.523,88.843 66.547,89.091 66.64,89.316C66.733,89.541 66.891,89.734 67.093,89.869C67.296,90.005 67.534,90.077 67.778,90.077L88.766,90.077C89.093,90.077 89.406,89.947 89.636,89.716C89.867,89.485 89.997,89.172 89.997,88.846L89.997,67.858C89.997,67.615 89.924,67.377 89.789,67.175C89.654,66.972 89.462,66.815 89.237,66.722ZM87.536,87.616L70.751,87.616L76.657,81.709C76.771,81.595 76.862,81.46 76.924,81.31C76.986,81.161 77.018,81.001 77.018,80.84C77.018,80.678 76.986,80.518 76.924,80.369C76.862,80.22 76.771,80.084 76.657,79.97L64.585,67.894C65.662,66.78 66.673,65.63 67.608,64.456L79.888,76.735C80.002,76.849 80.138,76.94 80.287,77.002C80.436,77.064 80.596,77.095 80.758,77.095C80.92,77.095 81.08,77.064 81.229,77.002C81.378,76.94 81.514,76.849 81.628,76.735L87.534,70.829L87.536,87.616Z" fill="#2437AC"/>
<path d="M88.768,0.078L67.78,0.078C67.536,0.078 67.298,0.15 67.096,0.285C66.893,0.42 66.735,0.612 66.642,0.837C66.549,1.062 66.525,1.31 66.572,1.548C66.62,1.787 66.737,2.006 66.91,2.178L74.046,9.316L64.718,18.645C64.602,18.761 64.51,18.899 64.448,19.051C64.386,19.203 64.356,19.366 64.358,19.53C64.359,19.694 64.394,19.856 64.46,20.007C64.525,20.157 64.62,20.293 64.739,20.406C66.379,21.969 67.831,23.719 69.063,25.62C69.162,25.774 69.295,25.904 69.451,26C69.607,26.096 69.783,26.156 69.966,26.175C70.009,26.179 70.052,26.182 70.095,26.182C70.421,26.182 70.735,26.052 70.965,25.821L80.761,16.026L87.898,23.162C88.07,23.334 88.289,23.452 88.528,23.499C88.767,23.546 89.014,23.522 89.239,23.429C89.463,23.336 89.655,23.178 89.791,22.976C89.926,22.774 89.998,22.536 89.998,22.293L89.998,1.306C89.998,0.981 89.868,0.668 89.637,0.438C89.406,0.207 89.094,0.078 88.768,0.078ZM87.537,19.322L81.631,13.416C81.517,13.301 81.381,13.211 81.232,13.149C81.083,13.087 80.923,13.055 80.761,13.055C80.599,13.055 80.439,13.087 80.29,13.149C80.141,13.211 80.005,13.301 79.891,13.416L70.274,23.032C69.381,21.788 68.397,20.612 67.332,19.512L76.659,10.184C76.773,10.07 76.864,9.934 76.926,9.785C76.987,9.636 77.019,9.476 77.019,9.314C77.019,9.152 76.987,8.992 76.926,8.843C76.864,8.694 76.773,8.558 76.659,8.444L70.752,2.538L87.537,2.538L87.537,19.322Z" fill="#2437AC"/>
<path d="M44.998,28.206C43.617,28.129 42.245,28.468 41.059,29.18C39.873,29.891 38.927,30.942 38.345,32.197C37.763,33.451 37.571,34.852 37.793,36.217C38.016,37.582 38.643,38.849 39.593,39.854C40.543,40.859 41.773,41.555 43.124,41.854C44.475,42.152 45.884,42.038 47.169,41.526C48.454,41.015 49.556,40.129 50.332,38.985C51.109,37.84 51.524,36.489 51.524,35.106C51.57,33.326 50.909,31.601 49.686,30.308C48.463,29.015 46.777,28.259 44.998,28.206ZM44.998,39.544C44.104,39.623 43.206,39.429 42.423,38.989C41.641,38.549 41.009,37.883 40.612,37.078C40.214,36.273 40.069,35.366 40.196,34.477C40.323,33.588 40.715,32.758 41.321,32.096C41.928,31.434 42.72,30.97 43.595,30.766C44.469,30.562 45.385,30.627 46.222,30.953C47.059,31.278 47.778,31.849 48.285,32.59C48.792,33.331 49.063,34.208 49.063,35.106C49.109,36.232 48.707,37.331 47.945,38.162C47.184,38.994 46.124,39.49 44.998,39.543L44.998,39.544Z" fill="#2437AC"/>
</svg>
