<svg width="1050" height="1076" viewBox="0 0 1050 1076" fill="none" xmlns="http://www.w3.org/2000/svg" xmlns:xlink="http://www.w3.org/1999/xlink">
<g opacity="0.4">
<path d="M792.688,211.377L794.578,212.494C794.886,211.973 794.964,211.349 794.798,210.768C794.63,210.188 794.23,209.702 793.694,209.425L792.688,211.377ZM655.46,984.208L654.454,986.162C655.244,986.566 656.2,986.458 656.878,985.884C657.556,985.31 657.82,984.386 657.55,983.54L655.46,984.208ZM538.312,923.962L536.414,922.86C536.112,923.38 536.036,924.002 536.206,924.578C536.374,925.156 536.774,925.64 537.308,925.914L538.312,923.962ZM331.567,822.246L330.561,824.198C331.11,824.48 331.753,824.518 332.331,824.304C332.91,824.088 333.372,823.64 333.603,823.068L331.567,822.246ZM221.114,765.346L220.661,763.198C219.752,763.388 219.062,764.132 218.938,765.052C218.814,765.974 219.283,766.872 220.109,767.298L221.114,765.346ZM762.664,195.914L763.67,193.961C763.138,193.687 762.518,193.642 761.952,193.837C761.386,194.031 760.924,194.448 760.672,194.991L762.664,195.914ZM792.688,211.377C790.798,210.26 790.796,210.262 790.794,210.266C790.792,210.269 790.788,210.275 790.784,210.281C790.776,210.295 790.764,210.315 790.75,210.341C790.718,210.394 790.672,210.472 790.612,210.576C790.49,210.783 790.312,211.091 790.076,211.498C789.604,212.313 788.908,213.525 788.004,215.12C786.2,218.308 783.57,223.025 780.264,229.151C773.652,241.401 764.338,259.285 753.512,281.841C731.864,326.948 704.166,390.751 679.974,465.54C631.612,615.05 597.148,808.792 653.368,984.876L657.55,983.54C601.746,808.756 635.894,616.08 684.154,466.892C708.272,392.333 735.886,328.716 757.472,283.741C768.264,261.255 777.546,243.432 784.128,231.236C787.42,225.138 790.036,220.447 791.826,217.283C792.722,215.701 793.412,214.501 793.876,213.698C794.108,213.296 794.286,212.994 794.402,212.792C794.462,212.692 794.506,212.616 794.536,212.567C794.55,212.542 794.56,212.523 794.568,212.511C794.572,212.505 794.574,212.501 794.576,212.497C794.578,212.495 794.578,212.494 792.688,211.377ZM656.464,982.256L539.318,922.008L537.308,925.914L654.454,986.162L656.464,982.256ZM538.312,923.962C540.212,925.064 540.212,925.062 540.214,925.06C540.214,925.06 540.216,925.058 540.216,925.056C540.22,925.052 540.222,925.046 540.226,925.038C540.234,925.024 540.246,925.004 540.26,924.98C540.288,924.93 540.33,924.858 540.382,924.764C540.486,924.576 540.634,924.302 540.824,923.948C541.2,923.236 541.732,922.196 542.368,920.858C543.636,918.182 545.318,914.31 546.986,909.492C550.318,899.864 553.614,886.4 553.424,871.114C553.234,855.808 549.546,838.678 538.914,821.79C528.284,804.904 510.794,788.384 483.188,774.17L481.178,778.076C508.212,791.994 525.058,808.02 535.198,824.128C545.336,840.234 548.85,856.548 549.032,871.168C549.214,885.808 546.054,898.756 542.836,908.056C541.228,912.702 539.61,916.424 538.4,918.976C537.794,920.252 537.292,921.234 536.942,921.892C536.768,922.22 536.632,922.468 536.542,922.63C536.498,922.712 536.464,922.772 536.442,922.81C536.43,922.83 536.422,922.844 536.418,922.852C536.416,922.856 536.414,922.858 536.414,922.86C536.414,922.86 536.414,922.86 536.414,922.86C536.414,922.86 536.414,922.86 538.312,923.962ZM483.188,774.17C455.572,759.952 432.084,755.676 412.355,757.406C392.623,759.136 376.821,766.856 364.551,776.348C352.297,785.828 343.556,797.084 337.884,805.942C335.044,810.378 332.965,814.226 331.592,816.974C330.905,818.348 330.394,819.45 330.053,820.212C329.883,820.594 329.754,820.89 329.667,821.094C329.624,821.198 329.591,821.276 329.568,821.332C329.557,821.358 329.548,821.38 329.542,821.396C329.539,821.404 329.536,821.41 329.534,821.414C329.533,821.416 329.532,821.418 329.532,821.42C329.531,821.422 329.53,821.424 331.567,822.246C333.603,823.068 333.602,823.068 333.602,823.068C333.603,823.068 333.603,823.068 333.603,823.068C333.604,823.066 333.605,823.062 333.607,823.058C333.611,823.048 333.617,823.032 333.626,823.012C333.644,822.968 333.672,822.902 333.71,822.812C333.786,822.632 333.903,822.36 334.062,822.006C334.379,821.296 334.864,820.252 335.521,818.938C336.835,816.306 338.839,812.596 341.582,808.31C347.075,799.73 355.498,788.904 367.238,779.822C378.963,770.752 393.985,763.424 412.738,761.78C431.494,760.136 454.154,764.162 481.178,778.076L483.188,774.17ZM332.572,820.294L222.12,763.394L220.109,767.298L330.561,824.198L332.572,820.294ZM221.114,765.346C221.568,767.494 221.57,767.494 221.574,767.492C221.577,767.492 221.582,767.49 221.588,767.49C221.599,767.488 221.615,767.484 221.636,767.48C221.677,767.47 221.737,767.458 221.816,767.44C221.973,767.404 222.203,767.352 222.506,767.282C223.112,767.14 224.008,766.922 225.18,766.618C227.526,766.01 230.982,765.056 235.454,763.664C244.4,760.88 257.413,756.344 273.745,749.326C306.412,735.286 352.355,711.314 405.595,671.552C512.086,592.018 647.7,449.368 764.658,196.836L760.672,194.991C644.006,446.894 508.844,588.958 402.967,668.032C350.022,707.574 304.382,731.378 272.011,745.29C255.826,752.246 242.956,756.73 234.149,759.47C229.746,760.842 226.358,761.776 224.079,762.366C222.939,762.662 222.077,762.872 221.503,763.006C221.216,763.074 221.002,763.122 220.861,763.154C220.791,763.168 220.739,763.18 220.705,763.188C220.688,763.192 220.676,763.194 220.669,763.196C220.665,763.196 220.663,763.196 220.661,763.196C220.66,763.198 220.661,763.198 221.114,765.346ZM761.66,197.866L791.682,213.329L793.694,209.425L763.67,193.961L761.66,197.866Z" transform="rotate(-277.014 506.901 590.061)" fill="#FFFFFF"/>
<path d="M453.07,419.196L453.07,417C451.857,417 450.874,417.983 450.874,419.196L453.07,419.196ZM469.336,419.196L471.532,419.196C471.532,417.983 470.549,417 469.336,417L469.336,419.196ZM469.336,567.972L469.336,570.167C470.549,570.167 471.532,569.184 471.532,567.972L469.336,567.972ZM453.07,567.972L450.874,567.972C450.874,569.184 451.857,570.167 453.07,570.167L453.07,567.972ZM453.07,421.392L469.336,421.392L469.336,417L453.07,417L453.07,421.392ZM467.141,419.196L467.141,567.972L471.532,567.972L471.532,419.196L467.141,419.196ZM469.336,565.776L453.07,565.776L453.07,570.167L469.336,570.167L469.336,565.776ZM455.266,567.972L455.266,419.196L450.874,419.196L450.874,567.972L455.266,567.972Z" transform="rotate(-151.494 461.203 493.584)" fill="#FFFFFF"/>
<path d="M399.492,526.719L399.492,524.523C398.279,524.523 397.296,525.506 397.296,526.719L399.492,526.719ZM438.685,526.719L440.881,526.719C440.881,525.506 439.898,524.523 438.685,524.523L438.685,526.719ZM438.685,788.625L438.685,790.821C439.898,790.821 440.881,789.837 440.881,788.625L438.685,788.625ZM399.492,788.625L397.296,788.625C397.296,789.837 398.279,790.821 399.492,790.821L399.492,788.625ZM399.492,528.914L438.685,528.914L438.685,524.523L399.492,524.523L399.492,528.914ZM436.49,526.719L436.49,788.625L440.881,788.625L440.881,526.719L436.49,526.719ZM438.685,786.429L399.492,786.429L399.492,790.821L438.685,790.821L438.685,786.429ZM401.687,788.625L401.687,526.719L397.296,526.719L397.296,788.625L401.687,788.625Z" transform="rotate(-151.494 419.089 657.671)" fill="#FFFFFF"/>
<path d="M456.392,542.273L457.398,540.321C456.502,539.859 455.406,540.067 454.742,540.825L456.392,542.273ZM388.548,619.59L386.897,618.141C386.451,618.65 386.264,619.335 386.39,619.999C386.517,620.664 386.942,621.233 387.543,621.542L388.548,619.59ZM471.353,662.197L470.349,664.15C470.954,664.461 471.67,664.474 472.287,664.185C472.903,663.895 473.35,663.336 473.497,662.671L471.353,662.197ZM493.611,561.451L495.755,561.925C495.97,560.952 495.503,559.956 494.617,559.5L493.611,561.451ZM454.742,540.825L386.897,618.141L390.198,621.038L458.043,543.721L454.742,540.825ZM387.543,621.542L470.349,664.15L472.358,660.245L389.552,617.637L387.543,621.542ZM473.497,662.671L495.755,561.925L491.467,560.978L469.209,661.724L473.497,662.671ZM494.617,559.5L457.398,540.321L455.386,544.225L492.605,563.403L494.617,559.5Z" transform="rotate(-277.014 441.079 602.235)" fill="#FFFFFF"/>
<path d="M538.622,110.673L539.627,108.72L539.626,108.72L538.622,110.673ZM526.707,104.547L524.755,103.542C524.488,104.06 524.438,104.663 524.616,105.218C524.794,105.773 525.185,106.234 525.703,106.5L526.707,104.547ZM546.086,66.927L547.092,64.975C546.574,64.708 545.972,64.658 545.417,64.835C544.862,65.013 544.401,65.404 544.134,65.921L546.086,66.927ZM604.693,97.117L606.645,98.122C607.2,97.044 606.776,95.72 605.699,95.165L604.693,97.117ZM585.347,134.704L584.343,136.657C585.421,137.212 586.745,136.787 587.299,135.709L585.347,134.704ZM539.626,108.72L527.711,102.595L525.703,106.5L537.619,112.625L539.626,108.72ZM528.659,105.553L548.038,67.932L544.134,65.921L524.755,103.542L528.659,105.553ZM545.081,68.879L603.687,99.069L605.699,95.165L547.092,64.975L545.081,68.879ZM602.741,96.112L583.395,133.699L587.299,135.709L606.645,98.122L602.741,96.112ZM586.351,132.752L539.627,108.72L537.618,112.625L584.343,136.657L586.351,132.752Z" transform="rotate(-277.014 565.7 100.816)" fill="#FFFFFF"/>
<path d="M611.276,8.68L613.399,9.243C613.66,8.257 613.208,7.22 612.307,6.741C611.406,6.262 610.294,6.467 609.623,7.235L611.276,8.68ZM555.682,72.307L554.028,70.862C553.584,71.371 553.398,72.056 553.525,72.719C553.652,73.382 554.077,73.95 554.677,74.26L555.682,72.307ZM589.755,89.846L588.75,91.798C589.341,92.102 590.039,92.122 590.646,91.852C591.254,91.582 591.707,91.051 591.877,90.408L589.755,89.846ZM609.623,7.235L554.028,70.862L557.336,73.752L612.93,10.125L609.623,7.235ZM554.677,74.26L588.75,91.798L590.76,87.893L556.687,70.355L554.677,74.26ZM591.877,90.408L613.399,9.243L609.154,8.117L587.632,89.283L591.877,90.408Z" transform="rotate(-277.014 583.479 49.263)" fill="#FFFFFF"/>
<path d="M560.93,594.914C562.008,595.469 563.332,595.045 563.888,593.967C564.443,592.889 564.019,591.565 562.94,591.01L560.93,594.914ZM483.28,552.463L484.285,550.511L484.285,550.51L483.28,552.463ZM443.35,531.912L444.355,529.96C443.54,529.54 442.55,529.671 441.872,530.288C441.194,530.905 440.971,531.878 441.312,532.729L443.35,531.912ZM461.524,577.264L461.202,579.436C461.98,579.552 462.76,579.242 463.248,578.625C463.735,578.008 463.855,577.177 463.562,576.448L461.524,577.264ZM406.633,569.131L406.955,566.959C406.268,566.857 405.574,567.086 405.082,567.576C404.591,568.066 404.36,568.76 404.46,569.446L406.633,569.131ZM415.435,629.779L414.43,631.731C415.161,632.108 416.041,632.045 416.711,631.567C417.38,631.09 417.727,630.278 417.609,629.464L415.435,629.779ZM367.171,604.911L366.923,602.729C365.962,602.839 365.186,603.564 365.011,604.515C364.837,605.467 365.306,606.42 366.166,606.863L367.171,604.911ZM445.057,596.041L445.305,598.223C445.989,598.145 446.596,597.752 446.946,597.16C447.297,596.568 447.349,595.846 447.089,595.209L445.057,596.041ZM426.146,549.852L426.246,547.659C425.497,547.624 424.783,547.974 424.351,548.587C423.919,549.2 423.83,549.99 424.114,550.684L426.146,549.852ZM483.18,554.656C484.391,554.712 485.418,553.774 485.473,552.563C485.529,551.352 484.592,550.325 483.38,550.269L483.18,554.656ZM562.94,591.01L484.285,550.511L482.275,554.415L560.93,594.914L562.94,591.01ZM484.285,550.51L444.355,529.96L442.345,533.864L482.275,554.415L484.285,550.51ZM441.312,532.729L459.486,578.081L463.562,576.448L445.388,531.095L441.312,532.729ZM461.846,575.092L406.955,566.959L406.311,571.303L461.202,579.436L461.846,575.092ZM404.46,569.446L413.262,630.095L417.609,629.464L408.806,568.816L404.46,569.446ZM416.441,627.827L368.177,602.959L366.166,606.863L414.43,631.731L416.441,627.827ZM367.42,607.093L445.305,598.223L444.808,593.86L366.923,602.729L367.42,607.093ZM447.089,595.209L428.178,549.02L424.114,550.684L443.025,596.873L447.089,595.209ZM426.046,552.046L483.18,554.656L483.38,550.269L426.246,547.659L426.046,552.046Z" transform="rotate(-277.014 464.553 580.846)" fill="#FFFFFF"/>
<path d="M425.496,535.781L426.502,533.83L426.5,533.829L425.496,535.781ZM460.84,580.765L461.344,582.903C462.074,582.731 462.665,582.199 462.913,581.491C463.161,580.783 463.03,579.998 462.567,579.409L460.84,580.765ZM412.242,592.212L411.738,590.075C411.069,590.233 410.512,590.695 410.233,591.324C409.955,591.953 409.988,592.676 410.321,593.278L412.242,592.212ZM450.297,660.793L449.292,662.745C450.152,663.188 451.201,663.016 451.874,662.321C452.547,661.627 452.687,660.574 452.217,659.728L450.297,660.793ZM402,635.925L400.995,633.972C400.263,634.349 399.804,635.102 399.804,635.924C399.804,636.747 400.263,637.5 400.994,637.877L402,635.925ZM456.489,607.876L457.494,609.829C458.112,609.511 458.542,608.92 458.656,608.235C458.769,607.551 458.552,606.852 458.07,606.353L456.489,607.876ZM417.965,567.913L417.446,565.779C416.682,565.965 416.075,566.545 415.856,567.301C415.637,568.056 415.838,568.871 416.384,569.437L417.965,567.913ZM465.426,556.366L465.945,558.499C466.836,558.283 467.498,557.536 467.606,556.626C467.715,555.715 467.247,554.834 466.432,554.414L465.426,556.366ZM346.84,495.316L347.157,493.143C346.094,492.988 345.076,493.624 344.749,494.646C344.422,495.668 344.882,496.777 345.836,497.268L346.84,495.316ZM474.013,516.031C475.213,516.206 476.327,515.374 476.502,514.174C476.677,512.974 475.845,511.86 474.645,511.685L474.013,516.031ZM423.769,537.138L459.114,582.122L462.567,579.409L427.222,534.425L423.769,537.138ZM460.337,578.628L411.738,590.075L412.745,594.35L461.344,582.903L460.337,578.628ZM410.321,593.278L448.377,661.859L452.217,659.728L414.162,591.147L410.321,593.278ZM451.303,658.841L403.005,633.972L400.994,637.877L449.292,662.745L451.303,658.841ZM403.005,637.877L457.494,609.829L455.484,605.924L400.995,633.972L403.005,637.877ZM458.07,606.353L419.546,566.389L416.384,569.437L454.908,609.4L458.07,606.353ZM418.484,570.046L465.945,558.499L464.907,554.232L417.446,565.779L418.484,570.046ZM466.432,554.414L426.502,533.83L424.49,537.733L464.42,558.317L466.432,554.414ZM426.5,533.829L347.845,493.363L345.836,497.268L424.491,537.734L426.5,533.829ZM346.524,497.489L474.013,516.031L474.645,511.685L347.157,493.143L346.524,497.489Z" transform="rotate(-277.014 410.585 578.054)" fill="#FFFFFF"/>
<path d="M509.728,388.892C510.806,389.447 512.13,389.023 512.685,387.945C513.24,386.866 512.816,385.542 511.738,384.987L509.728,388.892ZM457.214,359.394L457.173,357.198C456.167,357.217 455.303,357.917 455.075,358.897C454.847,359.876 455.314,360.886 456.209,361.346L457.214,359.394ZM520.674,358.222L520.714,360.418C521.577,360.402 522.351,359.882 522.691,359.089C523.032,358.296 522.876,357.377 522.294,356.74L520.674,358.222ZM484.325,318.493L484.093,316.31C483.269,316.397 482.565,316.941 482.271,317.716C481.978,318.49 482.146,319.364 482.705,319.975L484.325,318.493ZM538.043,314.987C539.249,314.858 540.122,313.777 539.994,312.571C539.866,311.365 538.784,310.491 537.578,310.62L538.043,314.987ZM511.738,384.987L458.219,357.441L456.209,361.346L509.728,388.892L511.738,384.987ZM457.254,361.589L520.714,360.418L520.633,356.027L457.173,357.198L457.254,361.589ZM522.294,356.74L485.945,317.011L482.705,319.975L519.054,359.705L522.294,356.74ZM484.557,320.677L538.043,314.987L537.578,310.62L484.093,316.31L484.557,320.677Z" transform="rotate(-277.014 497.512 349.872)" fill="#FFFFFF"/>
<path d="M498.901,290.574C497.823,290.019 496.499,290.442 495.943,291.521C495.388,292.599 495.812,293.923 496.89,294.478L498.901,290.574ZM535.717,312.006L534.712,313.958C535.585,314.407 536.65,314.223 537.321,313.506C537.991,312.789 538.105,311.714 537.598,310.873L535.717,312.006ZM511.384,271.607L511.386,269.411C510.594,269.411 509.863,269.837 509.473,270.526C509.083,271.215 509.094,272.061 509.503,272.74L511.384,271.607ZM552.352,271.641L552.35,273.836C553.14,273.837 553.87,273.413 554.261,272.726C554.651,272.039 554.643,271.196 554.238,270.517L552.352,271.641ZM532.784,234.503C532.163,233.461 530.815,233.119 529.774,233.74C528.732,234.361 528.39,235.708 529.011,236.75L532.784,234.503ZM496.89,294.478L534.712,313.958L536.723,310.054L498.901,290.574L496.89,294.478ZM537.598,310.873L513.265,270.474L509.503,272.74L533.836,313.139L537.598,310.873ZM511.382,273.803L552.35,273.836L552.354,269.445L511.386,269.411L511.382,273.803ZM554.238,270.517L532.784,234.503L529.011,236.75L550.465,272.764L554.238,270.517Z" transform="rotate(-277.014 525.124 273.816)" fill="#FFFFFF"/>
<path d="M288.588,639.209C287.51,638.654 286.186,639.078 285.631,640.156C285.076,641.235 285.5,642.559 286.578,643.114L288.588,639.209ZM523.047,764.812C524.125,765.367 525.449,764.943 526.003,763.864C526.559,762.786 526.135,761.462 525.057,760.907L523.047,764.812ZM286.578,643.114L523.047,764.812L525.057,760.907L288.588,639.209L286.578,643.114Z" transform="rotate(-277.014 405.817 702.01)" fill="#FFFFFF"/>
<path d="M489.893,369.754C489.14,368.803 487.759,368.642 486.808,369.395C485.858,370.148 485.697,371.529 486.45,372.48L489.893,369.754ZM532.52,427.146L532.334,429.334C533.206,429.408 534.039,428.957 534.454,428.185C534.868,427.414 534.785,426.47 534.241,425.783L532.52,427.146ZM452.492,420.352L452.678,418.164C451.633,418.075 450.671,418.737 450.382,419.745C450.092,420.753 450.555,421.825 451.487,422.304L452.492,420.352ZM524.386,457.336L524.256,459.528C525.292,459.59 526.23,458.918 526.504,457.917C526.778,456.915 526.314,455.859 525.391,455.384L524.386,457.336ZM430.1,451.713L430.231,449.522C429.26,449.464 428.366,450.052 428.035,450.967C427.704,451.882 428.015,452.906 428.799,453.482L430.1,451.713ZM504.777,509.378C505.754,510.096 507.128,509.887 507.847,508.91C508.565,507.933 508.356,506.559 507.379,505.84L504.777,509.378ZM486.45,372.48L530.798,428.509L534.241,425.783L489.893,369.754L486.45,372.48ZM532.705,424.958L452.678,418.164L452.306,422.54L532.334,429.334L532.705,424.958ZM451.487,422.304L523.382,459.289L525.391,455.384L453.496,418.399L451.487,422.304ZM524.517,455.145L430.231,449.522L429.97,453.905L524.256,459.528L524.517,455.145ZM428.799,453.482L504.777,509.378L507.379,505.84L431.402,449.945L428.799,453.482Z" transform="rotate(-277.014 481.31 439.363)" fill="#FFFFFF"/>
<path d="M534.519,243.426C535.598,243.98 536.922,243.555 537.476,242.476C538.03,241.397 537.605,240.074 536.526,239.519L534.519,243.426ZM505.098,225.842L504.77,223.671C503.828,223.813 503.085,224.546 502.931,225.487C502.777,226.427 503.247,227.36 504.095,227.795L505.098,225.842ZM544.359,219.918L544.686,222.089C545.465,221.971 546.122,221.446 546.406,220.711C546.691,219.977 546.56,219.146 546.064,218.534L544.359,219.918ZM522.636,193.141L522.485,190.951C521.667,191.007 520.949,191.514 520.623,192.266C520.296,193.017 520.415,193.888 520.931,194.525L522.636,193.141ZM559.572,192.788C560.782,192.705 561.695,191.656 561.611,190.446C561.527,189.236 560.479,188.323 559.269,188.407L559.572,192.788ZM536.526,239.519L506.101,223.889L504.095,227.795L534.519,243.426L536.526,239.519ZM505.426,228.013L544.686,222.089L544.031,217.746L504.77,223.671L505.426,228.013ZM546.064,218.534L524.342,191.758L520.931,194.525L542.654,221.301L546.064,218.534ZM522.788,195.332L559.572,192.788L559.269,188.407L522.485,190.951L522.788,195.332Z" transform="rotate(-277.014 532.259 216.035)" fill="#FFFFFF"/>
<path d="M261.121,664.811C260.043,664.256 258.719,664.68 258.164,665.758C257.609,666.836 258.033,668.16 259.112,668.715L261.121,664.811ZM531.829,809.09C532.907,809.645 534.231,809.221 534.785,808.143C535.341,807.064 534.917,805.74 533.839,805.185L531.829,809.09ZM259.112,668.715L531.829,809.09L533.839,805.185L261.121,664.811L259.112,668.715Z" transform="rotate(-277.014 396.475 736.95)" fill="#FFFFFF"/>
<path d="M447.277,848.84C446.064,848.859 445.096,849.857 445.115,851.07C445.134,852.282 446.132,853.25 447.344,853.231L447.277,848.84ZM621.758,848.358L621.792,850.554C622.797,850.538 623.663,849.843 623.895,848.865C624.127,847.888 623.666,846.877 622.775,846.412L621.758,848.358ZM547.186,809.399L548.203,807.453C547.485,807.078 546.619,807.128 545.95,807.584C545.281,808.04 544.917,808.827 545.003,809.632L547.186,809.399ZM555.512,908.068C555.641,909.274 556.723,910.147 557.929,910.019C559.135,909.89 560.008,908.808 559.879,907.602L555.512,908.068ZM447.344,853.231L621.792,850.554L621.724,846.163L447.277,848.84L447.344,853.231ZM622.775,846.412L548.203,807.453L546.169,811.345L620.741,850.305L622.775,846.412ZM545.003,809.632L555.512,908.068L559.879,907.602L549.37,809.166L545.003,809.632Z" transform="rotate(-277.014 534.534 858.617)" fill="#FFFFFF"/>
<path d="M283.108,845.166C283.843,846.13 285.221,846.316 286.186,845.581C287.15,844.846 287.337,843.469 286.602,842.504L283.108,845.166ZM174.838,699.444L175.833,697.486C174.92,697.022 173.807,697.251 173.151,698.038C172.495,698.824 172.471,699.96 173.091,700.774L174.838,699.444ZM262.43,743.959L263.275,745.986C264.065,745.656 264.592,744.897 264.624,744.042C264.656,743.186 264.188,742.39 263.425,742.002L262.43,743.959ZM166.797,781.461C165.677,781.928 165.148,783.214 165.615,784.333C166.082,785.452 167.368,785.981 168.487,785.514L166.797,781.461ZM286.602,842.504L176.584,698.113L173.091,700.774L283.108,845.166L286.602,842.504ZM173.843,701.401L261.435,745.917L263.425,742.002L175.833,697.486L173.843,701.401ZM261.585,741.933L166.797,781.461L168.487,785.514L263.275,745.986L261.585,741.933Z" transform="rotate(-277.014 226.248 771.639)" fill="#FFFFFF"/>
<path d="M560.864,117.568C560.21,116.547 558.852,116.249 557.831,116.903C556.809,117.557 556.512,118.915 557.165,119.936L560.864,117.568ZM579.632,150.951L579.745,153.144C580.526,153.104 581.227,152.651 581.585,151.955C581.943,151.259 581.904,150.425 581.482,149.767L579.632,150.951ZM542.447,152.859L542.334,150.666C541.611,150.703 540.953,151.094 540.575,151.711C540.197,152.328 540.147,153.092 540.441,153.753L542.447,152.859ZM559.249,190.546L558.245,192.499C559.073,192.925 560.081,192.782 560.758,192.141C561.435,191.501 561.634,190.503 561.255,189.652L559.249,190.546ZM532.205,174.168C531.127,173.613 529.803,174.038 529.248,175.116C528.693,176.195 529.118,177.518 530.196,178.073L532.205,174.168ZM557.165,119.936L577.783,152.135L581.482,149.767L560.864,117.568L557.165,119.936ZM579.52,148.758L542.334,150.666L542.559,155.051L579.745,153.144L579.52,148.758ZM540.441,153.753L557.243,191.44L561.255,189.652L544.452,151.964L540.441,153.753ZM560.253,188.593L532.205,174.168L530.196,178.073L558.245,192.499L560.253,188.593Z" transform="rotate(-277.014 555.417 154.649)" fill="#FFFFFF"/>
<path d="M475.127,363.843C474.049,363.288 472.725,363.712 472.17,364.79C471.615,365.869 472.039,367.193 473.117,367.748L475.127,363.843ZM527.641,393.341L526.636,395.294C527.531,395.754 528.624,395.548 529.289,394.793C529.954,394.039 530.021,392.928 529.452,392.099L527.641,393.341ZM491.728,340.994L491.993,338.814C491.136,338.71 490.298,339.117 489.85,339.855C489.403,340.593 489.429,341.524 489.917,342.236L491.728,340.994ZM542.603,347.186L542.337,349.365C543.144,349.464 543.939,349.108 544.404,348.442C544.868,347.775 544.927,346.906 544.556,346.183L542.603,347.186ZM520.692,299.66C520.138,298.581 518.815,298.155 517.736,298.708C516.657,299.262 516.231,300.585 516.784,301.664L520.692,299.66ZM473.117,367.748L526.636,395.294L528.646,391.389L475.127,363.843L473.117,367.748ZM529.452,392.099L493.538,339.751L489.917,342.236L525.831,394.583L529.452,392.099ZM491.462,343.173L542.337,349.365L542.868,345.006L491.993,338.814L491.462,343.173ZM544.556,346.183L520.692,299.66L516.784,301.664L540.649,348.188L544.556,346.183Z" transform="rotate(-277.014 508.362 347.002)" fill="#FFFFFF"/>
<path d="M520.222,308.473C521.3,309.028 522.624,308.604 523.18,307.526C523.735,306.448 523.311,305.124 522.232,304.569L520.222,308.473ZM485.079,287.911L484.907,285.722C483.929,285.799 483.12,286.516 482.926,287.478C482.733,288.441 483.201,289.414 484.074,289.864L485.079,287.911ZM530.197,284.364L530.369,286.553C531.143,286.492 531.828,286.027 532.169,285.33C532.511,284.632 532.459,283.807 532.033,283.158L530.197,284.364ZM506.801,248.751L506.639,246.561C505.863,246.619 505.175,247.083 504.832,247.781C504.488,248.479 504.539,249.306 504.966,249.957L506.801,248.751ZM546.995,247.962C548.204,247.872 549.112,246.819 549.022,245.609C548.932,244.4 547.879,243.492 546.669,243.582L546.995,247.962ZM522.232,304.569L486.084,285.959L484.074,289.864L520.222,308.473L522.232,304.569ZM485.251,290.1L530.369,286.553L530.025,282.174L484.907,285.722L485.251,290.1ZM532.033,283.158L508.637,247.545L504.966,249.957L528.362,285.569L532.033,283.158ZM506.964,250.941L546.995,247.962L546.669,243.582L506.639,246.561L506.964,250.941Z" transform="rotate(-277.014 515.956 276.147)" fill="#FFFFFF"/>
<path d="M538.927,399.851C540.138,399.911 541.169,398.978 541.229,397.767C541.289,396.556 540.356,395.525 539.145,395.464L538.927,399.851ZM469.819,394.21L469.928,392.017C469.061,391.974 468.25,392.445 467.859,393.22C467.468,393.995 467.57,394.928 468.119,395.6L469.819,394.21ZM519.724,455.26L518.719,457.213C519.645,457.689 520.776,457.45 521.431,456.641C522.085,455.833 522.082,454.676 521.424,453.87L519.724,455.26ZM450.005,419.413L451.009,417.461C450.082,416.984 448.948,417.225 448.294,418.037C447.641,418.849 447.648,420.008 448.312,420.812L450.005,419.413ZM510.687,492.881L510.003,494.968C510.932,495.272 511.95,494.925 512.501,494.118C513.051,493.31 513.002,492.236 512.38,491.482L510.687,492.881ZM418.255,460.303C417.103,459.925 415.863,460.553 415.485,461.706C415.108,462.858 415.736,464.099 416.889,464.476L418.255,460.303ZM539.145,395.464L469.928,392.017L469.71,396.403L538.927,399.851L539.145,395.464ZM468.119,395.6L518.023,456.65L521.424,453.87L471.519,392.82L468.119,395.6ZM520.728,453.307L451.009,417.461L449.001,421.366L518.719,457.213L520.728,453.307ZM448.312,420.812L508.994,494.279L512.38,491.482L451.698,418.015L448.312,420.812ZM511.37,490.794L418.255,460.303L416.889,464.476L510.003,494.968L511.37,490.794Z" transform="rotate(-277.014 478.304 443.545)" fill="#FFFFFF"/>
<path d="M518.713,229.096C517.634,228.541 516.31,228.966 515.756,230.044C515.201,231.123 515.626,232.447 516.704,233.001L518.713,229.096ZM544.92,245.039L543.916,246.992C544.772,247.432 545.815,247.263 546.489,246.576C547.162,245.888 547.309,244.842 546.851,243.995L544.92,245.039ZM525.574,209.259L525.726,207.069C524.927,207.013 524.162,207.397 523.728,208.07C523.294,208.743 523.262,209.599 523.642,210.304L525.574,209.259ZM560.316,211.669L560.164,213.86C560.984,213.917 561.767,213.511 562.193,212.808C562.62,212.106 562.618,211.224 562.189,210.523L560.316,211.669ZM542.642,178.592C542.009,177.558 540.657,177.232 539.623,177.866C538.589,178.499 538.264,179.851 538.897,180.885L542.642,178.592ZM516.704,233.001L543.916,246.992L545.924,243.086L518.713,229.096L516.704,233.001ZM546.851,243.995L527.506,208.215L523.642,210.304L542.988,246.083L546.851,243.995ZM525.422,211.45L560.164,213.86L560.468,209.479L525.726,207.069L525.422,211.45ZM562.189,210.523L542.642,178.592L538.897,180.885L558.443,212.816L562.189,210.523Z" transform="rotate(-277.014 539.012 212.389)" fill="#FFFFFF"/>
<path d="M575.959,131.347C577.162,131.196 578.015,130.098 577.864,128.894C577.712,127.691 576.614,126.838 575.411,126.99L575.959,131.347ZM537.629,133.955L537.355,131.776C536.594,131.872 535.937,132.358 535.624,133.059C535.311,133.759 535.387,134.573 535.823,135.204L537.629,133.955ZM557.544,162.739L557.993,164.889C558.713,164.738 559.31,164.237 559.583,163.553C559.856,162.87 559.769,162.095 559.35,161.49L557.544,162.739ZM517.781,171.04L517.333,168.89C516.422,169.08 515.73,169.823 515.605,170.745C515.48,171.667 515.95,172.567 516.777,172.993L517.781,171.04ZM544.825,187.418C545.904,187.973 547.227,187.548 547.782,186.47C548.337,185.391 547.912,184.068 546.834,183.513L544.825,187.418ZM575.411,126.99L537.355,131.776L537.903,136.133L575.959,131.347L575.411,126.99ZM535.823,135.204L555.738,163.989L559.35,161.49L539.435,132.705L535.823,135.204ZM557.095,160.59L517.333,168.89L518.23,173.189L557.993,164.889L557.095,160.59ZM516.777,172.993L544.825,187.418L546.834,183.513L518.786,169.087L516.777,172.993Z" transform="rotate(-277.014 546.733 157.317)" fill="#FFFFFF"/>
<path d="M405.08,472.156C404.24,471.282 402.85,471.253 401.975,472.093C401.1,472.933 401.072,474.323 401.912,475.198L405.08,472.156ZM491.278,568.279C492.118,569.154 493.508,569.182 494.382,568.342C495.257,567.502 495.286,566.112 494.446,565.238L491.278,568.279ZM401.912,475.198L491.278,568.279L494.446,565.238L405.08,472.156L401.912,475.198Z" transform="rotate(-277.014 448.179 520.218)" fill="#FFFFFF"/>
<path d="M528.811,110.969L528.811,108.773C527.598,108.773 526.615,109.757 526.615,110.969L528.811,110.969ZM594.747,110.969L596.943,110.969C596.943,109.757 595.96,108.773 594.747,108.773L594.747,110.969ZM594.747,121.613L594.747,123.809C595.96,123.809 596.943,122.826 596.943,121.613L594.747,121.613ZM528.811,121.613L526.615,121.613C526.615,122.826 527.598,123.809 528.811,123.809L528.811,121.613ZM528.811,113.165L594.747,113.165L594.747,108.773L528.811,108.773L528.811,113.165ZM592.552,110.969L592.552,121.613L596.943,121.613L596.943,110.969L592.552,110.969ZM594.747,119.417L528.811,119.417L528.811,123.809L594.747,123.809L594.747,119.417ZM531.007,121.613L531.007,110.969L526.615,110.969L526.615,121.613L531.007,121.613Z" transform="rotate(-331.494 561.779 116.291)" fill="#FFFFFF"/>
<path d="M536.633,80.305L536.633,78.109C535.42,78.109 534.437,79.092 534.437,80.305L536.633,80.305ZM602.57,80.305L604.766,80.305C604.766,79.092 603.783,78.109 602.57,78.109L602.57,80.305ZM602.57,90.949L602.57,93.145C603.783,93.145 604.766,92.161 604.766,90.949L602.57,90.949ZM536.633,90.949L534.437,90.949C534.437,92.161 535.42,93.145 536.633,93.145L536.633,90.949ZM536.633,82.501L602.57,82.501L602.57,78.109L536.633,78.109L536.633,82.501ZM600.374,80.305L600.374,90.949L604.766,90.949L604.766,80.305L600.374,80.305ZM602.57,88.753L536.633,88.753L536.633,93.145L602.57,93.145L602.57,88.753ZM538.829,90.949L538.829,80.305L534.437,80.305L534.437,90.949L538.829,90.949Z" transform="rotate(-331.494 569.601 85.627)" fill="#FFFFFF"/>
</g>
</svg>
