<svg width="90" height="52" viewBox="0 0 90 52" fill="none" xmlns="http://www.w3.org/2000/svg" xmlns:xlink="http://www.w3.org/1999/xlink">
<path d="M88.77,-0.453L23.47,-0.453C23.288,-0.453 23.109,-0.413 22.944,-0.336C22.78,-0.258 22.635,-0.145 22.52,-0.005L19.778,3.325L17.035,-0.005C16.92,-0.145 16.775,-0.258 16.611,-0.336C16.446,-0.413 16.267,-0.453 16.085,-0.453L1.23,-0.453C1.069,-0.453 0.909,-0.421 0.759,-0.359C0.61,-0.298 0.474,-0.207 0.36,-0.092C0.246,0.022 0.155,0.158 0.093,0.307C0.032,0.456 0,0.616 0,0.778L0,49.294C0,49.62 0.13,49.933 0.36,50.164C0.591,50.394 0.904,50.524 1.23,50.524L16.081,50.524C16.263,50.524 16.442,50.484 16.606,50.407C16.771,50.329 16.916,50.216 17.031,50.076L19.773,46.746L22.515,50.076C22.631,50.216 22.776,50.329 22.94,50.407C23.104,50.484 23.284,50.524 23.465,50.524L88.77,50.524C88.931,50.524 89.091,50.492 89.241,50.431C89.39,50.369 89.526,50.278 89.64,50.164C89.754,50.05 89.845,49.914 89.907,49.765C89.968,49.615 90,49.455 90,49.294L90,0.778C90,0.616 89.968,0.456 89.907,0.307C89.845,0.157 89.754,0.022 89.64,-0.093C89.526,-0.207 89.39,-0.298 89.241,-0.36C89.091,-0.421 88.931,-0.453 88.77,-0.453ZM2.461,2.008L15.5,2.008L18.825,6.042C18.945,6.176 19.091,6.283 19.255,6.356C19.418,6.429 19.595,6.467 19.775,6.467C19.954,6.467 20.131,6.429 20.295,6.356C20.458,6.283 20.605,6.176 20.724,6.042L24.049,2.008L87.541,2.008L87.541,39.543L2.461,39.543L2.461,2.008ZM87.539,48.062L24.05,48.062L20.725,44.028C20.606,43.894 20.46,43.787 20.296,43.714C20.133,43.641 19.955,43.603 19.776,43.603C19.597,43.603 19.42,43.641 19.256,43.714C19.093,43.787 18.946,43.894 18.827,44.028L15.502,48.062L2.461,48.062L2.461,42.004L87.539,42.004L87.539,48.062Z" fill="#FFFFFF"/>
<path d="M40.922,5.173L26.122,5.173C25.941,5.172 25.762,5.213 25.598,5.29C25.433,5.367 25.289,5.48 25.173,5.62L19.775,12.169L14.378,5.62C14.262,5.48 14.117,5.367 13.953,5.289C13.789,5.212 13.61,5.172 13.428,5.172L6.855,5.172C6.694,5.172 6.534,5.204 6.384,5.266C6.235,5.328 6.099,5.418 5.985,5.533C5.871,5.647 5.78,5.783 5.718,5.932C5.657,6.082 5.625,6.242 5.625,6.404L5.625,35.149C5.625,35.475 5.755,35.788 5.985,36.019C6.216,36.25 6.529,36.379 6.855,36.379L40.922,36.379C41.248,36.379 41.561,36.25 41.792,36.019C42.023,35.788 42.152,35.475 42.152,35.149L42.152,6.404C42.152,6.242 42.121,6.082 42.059,5.933C41.997,5.783 41.906,5.648 41.792,5.533C41.678,5.419 41.542,5.328 41.393,5.266C41.244,5.204 41.084,5.173 40.922,5.173ZM39.691,33.918L8.086,33.918L8.086,7.634L12.847,7.634L18.824,14.888C18.943,15.021 19.09,15.128 19.253,15.202C19.417,15.275 19.594,15.313 19.773,15.313C19.952,15.313 20.13,15.275 20.293,15.202C20.457,15.128 20.603,15.021 20.722,14.888L26.699,7.634L39.693,7.634L39.691,33.918Z" fill="#FFFFFF"/>
<path d="M81.689,7.038C80.666,6.018 79.281,5.445 77.836,5.445C76.391,5.445 75.006,6.018 73.983,7.038L68.87,12.152L60.226,10.15C59.209,9.912 58.148,9.937 57.143,10.225C56.139,10.513 55.225,11.053 54.489,11.794L52.566,13.717C52.425,13.858 52.32,14.032 52.26,14.224C52.201,14.415 52.19,14.618 52.227,14.815C52.264,15.012 52.349,15.197 52.474,15.354C52.599,15.51 52.76,15.634 52.944,15.714L61.548,19.477L57.703,23.321L50.179,24.018C49.894,24.043 49.626,24.168 49.423,24.37L45.696,28.096C45.545,28.248 45.435,28.437 45.379,28.644C45.323,28.85 45.321,29.068 45.375,29.276C45.429,29.484 45.536,29.673 45.686,29.827C45.836,29.98 46.024,30.092 46.23,30.15L55.356,32.745C57.012,33.216 58.764,33.236 60.43,32.803C62.097,32.371 63.618,31.501 64.836,30.284L84.014,11.106C84.129,10.992 84.219,10.856 84.281,10.707C84.343,10.558 84.375,10.398 84.375,10.236C84.375,10.075 84.343,9.915 84.281,9.765C84.219,9.616 84.129,9.481 84.014,9.366L81.689,7.038ZM63.096,28.543C62.188,29.45 61.054,30.099 59.812,30.422C58.569,30.745 57.263,30.73 56.029,30.379L48.917,28.357L50.851,26.424L58.374,25.727C58.66,25.701 58.928,25.575 59.131,25.372L64.565,19.937C64.707,19.796 64.812,19.621 64.871,19.43C64.93,19.239 64.942,19.036 64.905,18.839C64.868,18.642 64.783,18.457 64.658,18.3C64.533,18.143 64.371,18.02 64.188,17.94L55.582,14.181L56.229,13.534C56.671,13.089 57.22,12.765 57.823,12.592C58.426,12.42 59.064,12.405 59.674,12.549L68.977,14.702C69.18,14.749 69.392,14.743 69.593,14.686C69.793,14.629 69.976,14.521 70.124,14.374L75.72,8.779C76.281,8.219 77.041,7.905 77.833,7.905C78.625,7.905 79.385,8.219 79.946,8.779L81.402,10.235L63.096,28.543Z" fill="#FFFFFF"/>
<path d="M35.297,28.297L12.48,28.297C12.154,28.297 11.841,28.427 11.61,28.657C11.38,28.888 11.25,29.201 11.25,29.527C11.25,29.854 11.38,30.167 11.61,30.397C11.841,30.628 12.154,30.758 12.48,30.758L35.297,30.758C35.623,30.758 35.936,30.628 36.167,30.397C36.398,30.167 36.527,29.854 36.527,29.527C36.527,29.201 36.398,28.888 36.167,28.657C35.936,28.427 35.623,28.297 35.297,28.297Z" fill="#FFFFFF"/>
<path d="M35.297,23.789L12.48,23.789C12.154,23.789 11.841,23.919 11.61,24.149C11.38,24.38 11.25,24.693 11.25,25.02C11.25,25.346 11.38,25.659 11.61,25.89C11.841,26.12 12.154,26.25 12.48,26.25L35.297,26.25C35.623,26.25 35.936,26.12 36.167,25.89C36.398,25.659 36.527,25.346 36.527,25.02C36.527,24.693 36.398,24.38 36.167,24.149C35.936,23.919 35.623,23.789 35.297,23.789Z" fill="#FFFFFF"/>
<path d="M35.297,19.281L12.48,19.281C12.154,19.281 11.841,19.411 11.61,19.642C11.38,19.872 11.25,20.185 11.25,20.512C11.25,20.838 11.38,21.151 11.61,21.382C11.841,21.613 12.154,21.742 12.48,21.742L35.297,21.742C35.623,21.742 35.936,21.613 36.167,21.382C36.398,21.151 36.527,20.838 36.527,20.512C36.527,20.185 36.398,19.872 36.167,19.642C35.936,19.411 35.623,19.281 35.297,19.281Z" fill="#FFFFFF"/>
<path d="M25.467,16.012C25.466,16.173 25.498,16.333 25.56,16.483C25.622,16.632 25.712,16.768 25.827,16.882C25.941,16.996 26.077,17.087 26.226,17.149C26.375,17.211 26.535,17.242 26.697,17.242L35.297,17.242C35.623,17.242 35.936,17.113 36.167,16.882C36.398,16.651 36.527,16.338 36.527,16.012C36.527,15.685 36.398,15.372 36.167,15.142C35.936,14.911 35.623,14.781 35.297,14.781L26.697,14.781C26.535,14.781 26.375,14.813 26.226,14.875C26.077,14.937 25.941,15.027 25.827,15.141C25.712,15.256 25.622,15.391 25.56,15.541C25.498,15.69 25.466,15.85 25.467,16.012Z" fill="#FFFFFF"/>
</svg>
