<svg width="90" height="92" viewBox="0 0 90 92" fill="none" xmlns="http://www.w3.org/2000/svg" xmlns:xlink="http://www.w3.org/1999/xlink">
<path d="M88.77,81.258L1.23,81.258C0.904,81.258 0.591,81.388 0.361,81.618C0.13,81.849 0,82.162 0,82.488L0,88.771C0,89.097 0.13,89.41 0.361,89.641C0.591,89.871 0.904,90.001 1.23,90.001L88.77,90.001C89.096,90.001 89.409,89.871 89.639,89.641C89.87,89.41 90,89.097 90,88.771L90,82.488C90,82.162 89.87,81.849 89.639,81.618C89.409,81.388 89.096,81.258 88.77,81.258ZM87.539,87.54L2.461,87.54L2.461,83.719L87.539,83.719L87.539,87.54Z" fill="#00B8FF"/>
<path d="M7.559,77.298L20.525,77.298C20.687,77.298 20.847,77.266 20.996,77.204C21.145,77.142 21.281,77.052 21.395,76.938C21.509,76.823 21.6,76.688 21.662,76.538C21.724,76.389 21.755,76.229 21.755,76.067L21.755,50.199C21.755,49.873 21.626,49.56 21.395,49.329C21.164,49.098 20.851,48.969 20.525,48.969L7.559,48.969C7.232,48.969 6.919,49.099 6.689,49.329C6.458,49.56 6.328,49.873 6.328,50.199L6.328,76.074C6.33,76.399 6.46,76.711 6.691,76.94C6.922,77.169 7.233,77.298 7.559,77.298ZM8.789,51.426L19.294,51.426L19.294,74.84L8.789,74.84L8.789,51.426Z" fill="#00B8FF"/>
<path d="M28.195,42.758C27.869,42.758 27.556,42.888 27.325,43.118C27.095,43.349 26.965,43.662 26.965,43.988L26.965,76.068C26.965,76.395 27.094,76.708 27.325,76.938C27.556,77.169 27.869,77.299 28.195,77.299L41.164,77.299C41.325,77.299 41.485,77.267 41.635,77.205C41.784,77.144 41.92,77.053 42.034,76.939C42.148,76.824 42.239,76.689 42.301,76.539C42.363,76.39 42.394,76.23 42.394,76.068L42.394,43.988C42.394,43.662 42.265,43.349 42.034,43.118C41.803,42.887 41.49,42.758 41.164,42.758L28.195,42.758ZM39.933,74.838L29.428,74.838L29.428,45.219L39.933,45.219L39.933,74.838Z" fill="#00B8FF"/>
<path d="M48.836,55.266C48.675,55.266 48.515,55.297 48.365,55.359C48.216,55.421 48.08,55.512 47.966,55.626C47.852,55.74 47.761,55.876 47.699,56.025C47.638,56.174 47.606,56.334 47.606,56.496L47.606,76.071C47.606,76.233 47.638,76.393 47.699,76.542C47.761,76.691 47.852,76.827 47.966,76.941C48.08,77.056 48.216,77.146 48.365,77.208C48.515,77.27 48.675,77.302 48.836,77.302L61.805,77.302C62.131,77.302 62.444,77.172 62.675,76.941C62.906,76.71 63.035,76.397 63.035,76.071L63.035,56.496C63.035,56.17 62.906,55.857 62.675,55.626C62.444,55.395 62.131,55.266 61.805,55.266L48.836,55.266ZM60.572,74.841L50.067,74.841L50.067,57.727L60.572,57.727L60.572,74.841Z" fill="#00B8FF"/>
<path d="M69.475,77.298L82.441,77.298C82.767,77.298 83.08,77.168 83.311,76.937C83.542,76.707 83.671,76.394 83.671,76.067L83.671,31.645C83.671,31.318 83.542,31.005 83.311,30.774C83.08,30.544 82.767,30.414 82.441,30.414L69.475,30.414C69.313,30.414 69.153,30.446 69.004,30.508C68.854,30.569 68.719,30.66 68.604,30.774C68.49,30.889 68.399,31.024 68.338,31.174C68.276,31.323 68.244,31.483 68.244,31.645L68.244,76.067C68.244,76.229 68.276,76.389 68.338,76.538C68.399,76.688 68.49,76.823 68.604,76.937C68.719,77.052 68.854,77.142 69.004,77.204C69.153,77.266 69.313,77.298 69.475,77.298ZM70.705,32.875L81.21,32.875L81.21,74.837L70.705,74.837L70.705,32.875Z" fill="#00B8FF"/>
<path d="M45,37.82C48.74,37.82 52.396,36.711 55.506,34.633C58.616,32.555 61.039,29.602 62.471,26.146C63.902,22.691 64.276,18.889 63.547,15.221C62.817,11.553 61.016,8.183 58.372,5.539C55.727,2.894 52.358,1.093 48.689,0.363C45.021,-0.366 41.219,0.008 37.764,1.439C34.308,2.871 31.355,5.294 29.277,8.404C27.199,11.514 26.09,15.17 26.09,18.91C26.096,23.923 28.09,28.73 31.635,32.275C35.18,35.82 39.987,37.814 45,37.82ZM35.42,32.269L35.42,30.759C35.422,29.035 36.108,27.381 37.327,26.162C38.546,24.943 40.2,24.257 41.924,24.255L48.076,24.255C49.801,24.257 51.454,24.943 52.673,26.162C53.893,27.381 54.578,29.035 54.58,30.759L54.58,32.269C51.79,34.278 48.439,35.359 45,35.359C41.562,35.359 38.21,34.278 35.42,32.269ZM45,2.461C48.206,2.459 51.343,3.394 54.024,5.152C56.705,6.91 58.814,9.413 60.09,12.354C61.367,15.295 61.755,18.545 61.208,21.704C60.66,24.863 59.201,27.793 57.01,30.133C56.85,27.872 55.839,25.755 54.182,24.209C52.525,22.662 50.343,21.8 48.076,21.797L41.924,21.797C39.657,21.801 37.476,22.664 35.82,24.211C34.163,25.758 33.154,27.875 32.994,30.136C30.802,27.796 29.342,24.866 28.794,21.707C28.246,18.548 28.634,15.298 29.91,12.356C31.186,9.415 33.295,6.911 35.976,5.153C38.657,3.394 41.794,2.459 45,2.461Z" fill="#00B8FF"/>
<path d="M45,19.773C46.78,19.72 48.466,18.964 49.689,17.67C50.912,16.376 51.572,14.651 51.526,12.871C51.583,11.979 51.456,11.085 51.154,10.243C50.852,9.402 50.381,8.631 49.769,7.979C49.158,7.327 48.419,6.808 47.599,6.453C46.778,6.097 45.894,5.914 45,5.914C44.106,5.914 43.222,6.097 42.401,6.453C41.581,6.808 40.842,7.327 40.231,7.979C39.619,8.631 39.148,9.402 38.846,10.243C38.544,11.085 38.417,11.979 38.474,12.871C38.428,14.651 39.088,16.376 40.311,17.67C41.534,18.964 43.22,19.72 45,19.773ZM45,8.435C46.126,8.488 47.185,8.984 47.947,9.815C48.709,10.646 49.11,11.745 49.065,12.871C49.11,13.432 49.039,13.997 48.855,14.53C48.672,15.062 48.38,15.551 47.998,15.965C47.616,16.379 47.153,16.71 46.637,16.936C46.121,17.162 45.563,17.279 45,17.279C44.437,17.279 43.879,17.162 43.363,16.936C42.847,16.71 42.384,16.379 42.002,15.965C41.62,15.551 41.328,15.062 41.145,14.53C40.961,13.997 40.89,13.432 40.935,12.871C40.89,11.745 41.291,10.646 42.053,9.815C42.815,8.984 43.874,8.488 45,8.435Z" fill="#00B8FF"/>
</svg>
