<svg width="90" height="52" viewBox="0 0 90 52" fill="none" xmlns="http://www.w3.org/2000/svg" xmlns:xlink="http://www.w3.org/1999/xlink">
<path d="M88.77,-0.375L23.47,-0.375C23.288,-0.375 23.109,-0.335 22.944,-0.258C22.78,-0.18 22.635,-0.067 22.52,0.073L19.778,3.403L17.035,0.073C16.92,-0.067 16.775,-0.18 16.611,-0.258C16.446,-0.335 16.267,-0.375 16.085,-0.375L1.23,-0.375C1.069,-0.375 0.909,-0.343 0.759,-0.281C0.61,-0.219 0.474,-0.129 0.36,-0.014C0.246,0.1 0.155,0.236 0.093,0.385C0.032,0.534 0,0.695 0,0.856L0,49.372C0,49.698 0.13,50.011 0.36,50.242C0.591,50.473 0.904,50.602 1.23,50.602L16.081,50.602C16.263,50.602 16.442,50.562 16.606,50.485C16.771,50.407 16.916,50.295 17.031,50.154L19.773,46.824L22.515,50.154C22.631,50.295 22.776,50.407 22.94,50.485C23.104,50.562 23.284,50.602 23.465,50.602L88.77,50.602C88.931,50.602 89.091,50.571 89.241,50.509C89.39,50.447 89.526,50.356 89.64,50.242C89.754,50.128 89.845,49.992 89.907,49.843C89.968,49.693 90,49.533 90,49.372L90,0.856C90,0.694 89.968,0.534 89.907,0.385C89.845,0.236 89.754,0.1 89.64,-0.015C89.526,-0.129 89.39,-0.22 89.241,-0.281C89.091,-0.343 88.931,-0.375 88.77,-0.375ZM2.461,2.086L15.5,2.086L18.825,6.12C18.945,6.254 19.091,6.361 19.255,6.434C19.418,6.508 19.595,6.545 19.775,6.545C19.954,6.545 20.131,6.508 20.295,6.434C20.458,6.361 20.605,6.254 20.724,6.12L24.049,2.086L87.541,2.086L87.541,39.621L2.461,39.621L2.461,2.086ZM87.539,48.141L24.05,48.141L20.725,44.106C20.606,43.972 20.46,43.865 20.296,43.792C20.133,43.719 19.955,43.681 19.776,43.681C19.597,43.681 19.42,43.719 19.256,43.792C19.093,43.865 18.946,43.972 18.827,44.106L15.502,48.141L2.461,48.141L2.461,42.082L87.539,42.082L87.539,48.141Z" fill="#FFFFFF"/>
<path d="M40.922,5.251L26.122,5.251C25.941,5.251 25.762,5.291 25.598,5.368C25.433,5.446 25.289,5.558 25.173,5.699L19.775,12.247L14.377,5.698C14.262,5.558 14.117,5.445 13.953,5.367C13.789,5.29 13.61,5.25 13.428,5.25L6.855,5.25C6.694,5.25 6.534,5.282 6.384,5.344C6.235,5.406 6.099,5.496 5.985,5.611C5.871,5.725 5.78,5.861 5.718,6.011C5.657,6.16 5.625,6.32 5.625,6.482L5.625,35.227C5.625,35.553 5.755,35.866 5.985,36.097C6.216,36.328 6.529,36.458 6.855,36.458L40.922,36.458C41.248,36.458 41.561,36.328 41.792,36.097C42.023,35.866 42.152,35.553 42.152,35.227L42.152,6.482C42.152,6.32 42.121,6.16 42.059,6.011C41.997,5.861 41.906,5.726 41.792,5.611C41.678,5.497 41.542,5.406 41.393,5.344C41.244,5.283 41.084,5.251 40.922,5.251ZM39.691,33.997L8.086,33.997L8.086,7.712L12.847,7.712L18.824,14.966C18.943,15.099 19.09,15.206 19.253,15.28C19.417,15.353 19.594,15.391 19.773,15.391C19.953,15.391 20.13,15.353 20.293,15.28C20.457,15.206 20.603,15.099 20.722,14.966L26.699,7.712L39.693,7.712L39.691,33.997Z" fill="#FFFFFF"/>
<path d="M81.689,7.117C80.667,6.096 79.281,5.523 77.836,5.523C76.392,5.523 75.006,6.096 73.983,7.117L68.87,12.23L60.227,10.229C59.209,9.99 58.148,10.016 57.144,10.303C56.139,10.591 55.225,11.131 54.489,11.872L52.567,13.795C52.425,13.936 52.32,14.111 52.261,14.302C52.201,14.493 52.19,14.697 52.227,14.893C52.264,15.09 52.349,15.275 52.474,15.432C52.599,15.589 52.761,15.712 52.944,15.792L61.548,19.555L57.703,23.399L50.18,24.096C49.894,24.121 49.626,24.246 49.423,24.448L45.696,28.174C45.545,28.326 45.435,28.515 45.379,28.722C45.323,28.928 45.322,29.146 45.375,29.354C45.429,29.562 45.537,29.751 45.687,29.905C45.836,30.058 46.024,30.17 46.23,30.228L55.356,32.823C57.012,33.294 58.764,33.314 60.431,32.881C62.097,32.449 63.618,31.579 64.836,30.362L84.015,11.184C84.129,11.07 84.22,10.934 84.282,10.785C84.344,10.636 84.375,10.476 84.375,10.314C84.375,10.153 84.344,9.993 84.282,9.844C84.22,9.694 84.129,9.559 84.015,9.445L81.689,7.117ZM63.096,28.621C62.188,29.528 61.054,30.177 59.812,30.5C58.57,30.823 57.264,30.808 56.029,30.457L48.917,28.435L50.851,26.502L58.375,25.805C58.66,25.779 58.928,25.653 59.131,25.45L64.566,20.015C64.707,19.874 64.812,19.7 64.872,19.508C64.931,19.317 64.942,19.114 64.905,18.917C64.868,18.72 64.783,18.535 64.658,18.378C64.533,18.222 64.372,18.098 64.188,18.018L55.582,14.259L56.229,13.612C56.671,13.167 57.22,12.843 57.824,12.67C58.427,12.498 59.064,12.483 59.675,12.628L68.977,14.781C69.18,14.827 69.392,14.821 69.593,14.764C69.794,14.707 69.976,14.599 70.124,14.452L75.72,8.857C76.281,8.297 77.041,7.983 77.833,7.983C78.625,7.983 79.385,8.297 79.946,8.857L81.402,10.313L63.096,28.621Z" fill="#FFFFFF"/>
<path d="M35.297,28.375L12.48,28.375C12.154,28.375 11.841,28.505 11.61,28.735C11.38,28.966 11.25,29.279 11.25,29.605C11.25,29.932 11.38,30.245 11.61,30.476C11.841,30.706 12.154,30.836 12.48,30.836L35.297,30.836C35.623,30.836 35.936,30.706 36.167,30.476C36.398,30.245 36.527,29.932 36.527,29.605C36.527,29.279 36.398,28.966 36.167,28.735C35.936,28.505 35.623,28.375 35.297,28.375Z" fill="#FFFFFF"/>
<path d="M35.297,23.867L12.48,23.867C12.154,23.867 11.841,23.997 11.61,24.228C11.38,24.458 11.25,24.771 11.25,25.098C11.25,25.424 11.38,25.737 11.61,25.968C11.841,26.198 12.154,26.328 12.48,26.328L35.297,26.328C35.623,26.328 35.936,26.198 36.167,25.968C36.398,25.737 36.527,25.424 36.527,25.098C36.527,24.771 36.398,24.458 36.167,24.228C35.936,23.997 35.623,23.867 35.297,23.867Z" fill="#FFFFFF"/>
<path d="M35.297,19.359L12.48,19.359C12.154,19.359 11.841,19.489 11.61,19.72C11.38,19.951 11.25,20.264 11.25,20.59C11.25,20.916 11.38,21.229 11.61,21.46C11.841,21.691 12.154,21.82 12.48,21.82L35.297,21.82C35.623,21.82 35.936,21.691 36.167,21.46C36.398,21.229 36.527,20.916 36.527,20.59C36.527,20.264 36.398,19.951 36.167,19.72C35.936,19.489 35.623,19.359 35.297,19.359Z" fill="#FFFFFF"/>
<path d="M25.467,16.09C25.467,16.251 25.498,16.412 25.56,16.561C25.622,16.71 25.713,16.846 25.827,16.96C25.941,17.074 26.077,17.165 26.226,17.227C26.376,17.289 26.536,17.32 26.697,17.32L35.297,17.32C35.624,17.32 35.936,17.191 36.167,16.96C36.398,16.729 36.528,16.416 36.528,16.09C36.528,15.764 36.398,15.451 36.167,15.22C35.936,14.989 35.624,14.859 35.297,14.859L26.697,14.859C26.536,14.859 26.376,14.891 26.226,14.953C26.077,15.015 25.941,15.105 25.827,15.22C25.713,15.334 25.622,15.47 25.56,15.619C25.498,15.768 25.467,15.928 25.467,16.09Z" fill="#FFFFFF"/>
</svg>
