<svg width="84" height="92" viewBox="0 0 84 92" fill="none" xmlns="http://www.w3.org/2000/svg" xmlns:xlink="http://www.w3.org/1999/xlink">
<path d="M70.32,18.008C73.695,18.008 76.508,15.266 76.508,11.82C76.508,8.375 73.695,5.703 70.32,5.703C66.945,5.703 64.133,8.445 64.133,11.891C64.133,15.266 66.875,18.008 70.32,18.008ZM70.32,8.164C72.359,8.164 74.047,9.852 74.047,11.891C74.047,13.93 72.359,15.617 70.32,15.617C68.281,15.617 66.594,13.93 66.594,11.891C66.594,9.852 68.211,8.164 70.32,8.164Z" fill="#FFFFFF"/>
<path d="M77.703,32.281C76.578,29.891 75.242,27.57 73.695,25.461C77.07,23.211 82.063,18.781 82.063,11.891C82.063,5.352 76.789,0.148 70.32,0.148C63.852,0.148 58.508,5.352 58.508,11.891L58.508,12.664C57.594,12.242 56.68,11.82 55.766,11.398C29.328,0.781 0.078,19.977 -0.062,49.156C-0.133,71.656 18.008,89.937 40.508,90.008C63.008,90.078 81.289,71.937 81.36,49.437C81.36,49.297 81.36,49.227 81.36,49.086C81.36,43.32 80.094,37.555 77.703,32.281ZM70.32,2.539C75.453,2.539 79.602,6.687 79.672,11.891C79.672,19.273 72.36,23.633 70.32,24.617C68.352,23.562 60.969,19.273 60.969,11.891C60.969,6.687 65.117,2.539 70.32,2.539ZM69.758,27.148C70.11,27.289 70.461,27.289 70.742,27.148C70.813,27.148 71.094,27.008 71.516,26.727C72.641,28.273 73.625,29.891 74.539,31.578L67.227,31.578L62.305,26.656C62.024,26.375 61.602,26.234 61.18,26.305L46.695,29.539C46.133,29.68 45.711,30.172 45.711,30.734L45.711,33.687C45.711,34.32 46.133,34.812 46.766,34.883L56.75,36.43L59.211,41.211C59.352,41.492 59.633,41.773 59.985,41.844L66.313,43.602L66.313,47.187L62.516,51.125C62.305,51.336 62.164,51.687 62.164,51.969L62.164,57.945L55.203,70.109L51.336,70.109L51.336,66.242C51.336,65.891 51.195,65.539 50.914,65.328L45.57,60.477L45.57,54.852C45.57,54.359 45.219,53.867 44.797,53.727L33.828,49.719L33.828,40.578L41,32.844C41.492,32.352 41.422,31.578 40.93,31.086L40.86,31.016L34.32,25.953L39.664,18.359L50.633,18.359C50.985,18.359 51.266,18.219 51.477,18.008L55.555,13.93C56.68,14.422 57.875,14.984 59,15.617C61.25,23.211 69.406,26.937 69.758,27.148ZM15.969,19.977L19.063,26.375L16.602,27.641C16.461,27.711 16.391,27.781 16.25,27.852L10.414,33.828C10.063,34.18 9.992,34.672 10.133,35.094L10.977,37.484C10.063,38.047 9.149,38.82 8.446,39.594L3.453,40.437C5.281,32.422 9.711,25.25 15.969,19.977ZM17.164,60.125C15.196,59.07 7.813,54.781 7.813,47.398C7.883,42.266 12.102,38.117 17.235,38.187C22.297,38.258 26.445,42.336 26.445,47.398C26.445,54.781 19.133,59.141 17.164,60.125ZM2.469,47.117C2.539,45.711 2.68,44.375 2.891,42.969L6.477,42.336C5.774,43.812 5.352,45.43 5.352,47.047L2.469,47.047L2.469,47.117ZM16.602,73.203L16.602,78.969C7.742,71.797 2.539,61.039 2.399,49.578L5.563,49.578C6.899,58.227 16.25,62.445 16.672,62.656C17.024,62.797 17.375,62.797 17.656,62.656C18.641,62.164 19.555,61.672 20.469,61.039L21.735,62.305L21.735,65.68L20.188,68C19.836,68.492 19.977,69.195 20.399,69.617L20.75,69.969L17.094,72.148C16.813,72.359 16.602,72.711 16.602,73.203ZM40.649,87.477C32.914,87.477 25.391,85.156 19.063,80.797L19.063,73.906L23.633,71.164C24.195,70.812 24.406,70.039 24.055,69.477C23.985,69.336 23.914,69.266 23.774,69.195L22.93,68.492L24.055,66.805C24.195,66.594 24.266,66.383 24.266,66.102L24.266,61.883C24.266,61.531 24.125,61.25 23.914,61.039L22.578,59.703C25.672,57.242 29.047,53.164 29.047,47.539C29.047,41.07 23.844,35.797 17.305,35.797C15.899,35.797 14.563,36.008 13.227,36.5L12.735,35.094L17.867,29.82L21.242,28.133C21.875,27.852 22.086,27.078 21.805,26.516L17.938,18.57C28.063,11.117 41.211,9.078 53.094,13.156L50.141,15.969L39.031,15.969C38.61,15.969 38.258,16.18 38.047,16.461L31.649,25.531C31.297,26.094 31.367,26.797 31.93,27.219L38.328,32.141L31.719,39.242C31.508,39.453 31.367,39.734 31.367,40.086L31.367,50.562C31.367,51.055 31.719,51.547 32.141,51.687L43.11,55.695L43.11,61.039C43.11,61.391 43.25,61.742 43.531,61.953L48.875,66.805L48.875,71.375C48.875,72.078 49.438,72.57 50.07,72.57L55.906,72.57C56.328,72.57 56.75,72.359 56.961,71.937L64.485,58.859C64.625,58.648 64.625,58.437 64.625,58.227L64.625,52.391L68.422,48.594C68.633,48.383 68.774,48.031 68.774,47.75L68.774,42.758C68.774,42.195 68.422,41.703 67.86,41.562L61.11,39.664L58.649,34.812C58.438,34.461 58.156,34.25 57.735,34.18L48.172,32.703L48.172,31.719L61.039,28.836L65.891,33.687C66.102,33.898 66.453,34.039 66.735,34.039L75.735,34.039C77.844,38.82 78.899,43.953 78.899,49.227C78.899,70.32 61.742,87.406 40.649,87.477Z" fill="#FFFFFF"/>
<path d="M17.164,41.211C13.789,41.211 10.977,43.953 10.977,47.398C10.977,50.773 13.719,53.586 17.164,53.586C20.609,53.586 23.352,50.844 23.352,47.398C23.281,44.023 20.539,41.211 17.164,41.211ZM17.164,51.125C15.125,51.125 13.438,49.437 13.438,47.398C13.438,45.359 15.125,43.672 17.164,43.672C19.203,43.672 20.891,45.359 20.891,47.398C20.891,49.437 19.203,51.125 17.164,51.125Z" fill="#FFFFFF"/>
</svg>
