<svg width="90" height="72" viewBox="0 0 90 72" fill="none" xmlns="http://www.w3.org/2000/svg" xmlns:xlink="http://www.w3.org/1999/xlink">
<path d="M84.551,-0.547L5.449,-0.547C4.005,-0.545 2.619,0.029 1.598,1.051C0.576,2.073 0.002,3.458 0,4.902L0,69.234C0,69.56 0.13,69.873 0.361,70.104C0.591,70.335 0.904,70.464 1.23,70.465L88.77,70.465C89.096,70.464 89.409,70.335 89.639,70.104C89.87,69.873 90,69.56 90,69.234L90,4.902C89.998,3.458 89.424,2.073 88.402,1.051C87.381,0.029 85.995,-0.545 84.551,-0.547ZM2.461,4.902C2.462,4.11 2.777,3.351 3.337,2.79C3.897,2.23 4.657,1.915 5.449,1.914L84.551,1.914C85.343,1.915 86.103,2.23 86.663,2.79C87.223,3.351 87.538,4.11 87.539,4.902L87.539,16.073L2.461,16.073L2.461,4.902ZM87.539,68.004L2.461,68.004L2.461,18.534L87.539,18.534L87.539,68.004Z" fill="#2437AC"/>
<path d="M83.145,5.078L29.365,5.078C29.039,5.078 28.726,5.208 28.495,5.439C28.264,5.669 28.135,5.982 28.135,6.309L28.135,11.678C28.135,12.004 28.264,12.317 28.495,12.548C28.726,12.778 29.039,12.908 29.365,12.908L83.145,12.908C83.471,12.908 83.784,12.778 84.015,12.548C84.246,12.317 84.375,12.004 84.376,11.678L84.376,6.309C84.375,5.982 84.246,5.669 84.015,5.439C83.784,5.208 83.471,5.078 83.145,5.078ZM81.915,10.447L30.596,10.447L30.596,7.539L81.915,7.539L81.915,10.447Z" fill="#2437AC"/>
<path d="M12.48,5.078L6.855,5.078C6.529,5.078 6.216,5.208 5.986,5.439C5.755,5.669 5.625,5.982 5.625,6.309L5.625,11.678C5.625,12.004 5.755,12.317 5.986,12.548C6.216,12.778 6.529,12.908 6.855,12.908L12.48,12.908C12.807,12.908 13.12,12.778 13.35,12.548C13.581,12.317 13.711,12.004 13.711,11.678L13.711,6.309C13.711,5.982 13.581,5.669 13.35,5.439C13.12,5.208 12.807,5.078 12.48,5.078ZM11.25,10.447L8.086,10.447L8.086,7.539L11.25,7.539L11.25,10.447Z" fill="#2437AC"/>
<path d="M23.735,5.078L18.11,5.078C17.783,5.078 17.471,5.208 17.24,5.439C17.009,5.669 16.879,5.982 16.879,6.309L16.879,11.678C16.879,12.004 17.009,12.317 17.24,12.548C17.471,12.778 17.783,12.908 18.11,12.908L23.735,12.908C24.061,12.908 24.374,12.778 24.605,12.548C24.836,12.317 24.965,12.004 24.965,11.678L24.965,6.309C24.965,5.982 24.836,5.669 24.605,5.439C24.374,5.208 24.061,5.078 23.735,5.078ZM22.504,10.447L19.34,10.447L19.34,7.539L22.504,7.539L22.504,10.447Z" fill="#2437AC"/>
<path d="M45,62.318C48.768,62.318 52.451,61.201 55.584,59.108C58.717,57.015 61.158,54.04 62.6,50.559C64.042,47.078 64.42,43.248 63.685,39.553C62.95,35.857 61.135,32.463 58.471,29.799C55.807,27.134 52.413,25.32 48.717,24.585C45.022,23.85 41.192,24.227 37.711,25.669C34.23,27.111 31.255,29.552 29.161,32.685C27.068,35.818 25.951,39.501 25.951,43.269C25.957,48.319 27.965,53.161 31.536,56.732C35.108,60.304 39.95,62.313 45,62.318ZM45,26.68C48.281,26.68 51.488,27.653 54.217,29.476C56.945,31.299 59.071,33.889 60.327,36.921C61.582,39.952 61.911,43.287 61.271,46.505C60.631,49.723 59.051,52.679 56.731,54.999C54.411,57.319 51.455,58.899 48.237,59.539C45.019,60.179 41.683,59.851 38.652,58.595C35.621,57.34 33.03,55.213 31.207,52.485C29.385,49.757 28.412,46.55 28.412,43.269C28.417,38.871 30.166,34.654 33.276,31.544C36.386,28.435 40.602,26.685 45,26.68Z" fill="#2437AC"/>
<path d="M36.435,52.77L53.565,52.77C53.892,52.77 54.205,52.641 54.435,52.41C54.666,52.179 54.796,51.866 54.796,51.54L54.796,39.45C54.796,39.123 54.666,38.811 54.435,38.58C54.205,38.349 53.892,38.219 53.565,38.219L51.245,38.219L50.493,34.737C50.434,34.462 50.282,34.215 50.063,34.039C49.844,33.862 49.571,33.765 49.289,33.766L40.711,33.766C40.43,33.766 40.157,33.862 39.938,34.039C39.72,34.215 39.568,34.461 39.509,34.736L38.756,38.218L36.436,38.218C36.11,38.218 35.797,38.348 35.566,38.578C35.335,38.809 35.206,39.122 35.205,39.448L35.205,51.54C35.206,51.866 35.335,52.179 35.566,52.409C35.796,52.64 36.108,52.77 36.435,52.77ZM37.665,50.309L37.665,45.847L40.899,45.847L40.899,45.971C40.899,46.298 41.029,46.61 41.26,46.841C41.491,47.072 41.803,47.202 42.13,47.202C42.456,47.202 42.769,47.072 43,46.841C43.231,46.61 43.36,46.298 43.36,45.971L43.36,45.847L46.637,45.847L46.637,45.971C46.637,46.298 46.766,46.61 46.997,46.841C47.228,47.072 47.541,47.202 47.867,47.202C48.194,47.202 48.507,47.072 48.737,46.841C48.968,46.61 49.098,46.298 49.098,45.971L49.098,45.847L52.332,45.847L52.332,50.309L37.665,50.309ZM41.704,36.227L48.295,36.227L48.726,38.218L41.273,38.218L41.704,36.227ZM50.247,40.679L52.335,40.679L52.335,43.385L37.665,43.385L37.665,40.68L50.247,40.679Z" fill="#2437AC"/>
</svg>
