<svg width="80" height="76" viewBox="0 0 80 76" fill="none" xmlns="http://www.w3.org/2000/svg" xmlns:xlink="http://www.w3.org/1999/xlink">
<path d="M76.406,28.692L72.112,28.692C73.711,25.801 74.527,22.544 74.481,19.242C74.434,15.939 73.526,12.706 71.847,9.862C70.168,7.018 67.775,4.662 64.906,3.026C62.037,1.391 58.79,0.532 55.487,0.536C52.455,0.546 49.468,1.278 46.775,2.672C44.081,4.066 41.759,6.082 40,8.553C37.198,4.591 32.986,1.853 28.228,0.901C23.47,-0.052 18.528,0.854 14.417,3.432C10.307,6.01 7.339,10.064 6.125,14.762C4.91,19.46 5.541,24.444 7.887,28.692L3.594,28.692C2.641,28.693 1.728,29.072 1.054,29.745C0.38,30.419 0.001,31.333 0,32.285L0,72.056C0.001,73.009 0.38,73.922 1.054,74.596C1.728,75.269 2.641,75.648 3.594,75.65L76.406,75.65C77.359,75.649 78.273,75.27 78.946,74.596C79.62,73.922 79.999,73.009 80,72.056L80,32.285C79.999,31.332 79.62,30.419 78.946,29.745C78.273,29.071 77.359,28.693 76.406,28.692ZM55.486,2.723C58.512,2.723 61.482,3.539 64.082,5.086C66.683,6.634 68.817,8.854 70.26,11.514C71.704,14.173 72.402,17.173 72.282,20.197C72.161,23.22 71.227,26.155 69.577,28.692L66.044,28.692C68.267,26.159 69.489,22.902 69.481,19.532C69.482,16.317 68.375,13.201 66.348,10.706C64.321,8.211 61.497,6.49 58.35,5.832C55.203,5.174 51.926,5.62 49.069,7.095C46.212,8.569 43.951,10.982 42.664,13.928C42.306,12.774 41.839,11.657 41.268,10.593C42.784,8.191 44.882,6.21 47.368,4.835C49.853,3.459 52.646,2.733 55.486,2.723ZM42.664,25.139C43.234,26.432 43.997,27.629 44.929,28.692L41.141,28.692C41.769,27.563 42.279,26.372 42.664,25.139ZM43.678,19.53C43.674,17.534 44.175,15.57 45.136,13.82C46.097,12.071 47.485,10.593 49.172,9.526C50.858,8.458 52.788,7.836 54.78,7.716C56.773,7.597 58.763,7.984 60.565,8.843C62.367,9.701 63.922,11.002 65.085,12.624C66.248,14.247 66.98,16.137 67.214,18.12C67.448,20.102 67.176,22.111 66.423,23.959C65.67,25.808 64.46,27.435 62.908,28.69L48.062,28.69C46.691,27.59 45.585,26.195 44.826,24.61C44.068,23.024 43.675,21.288 43.678,19.53ZM7.706,19.53C7.705,16.914 8.316,14.335 9.488,11.996C10.66,9.658 12.362,7.625 14.458,6.06C16.554,4.495 18.986,3.441 21.562,2.981C24.137,2.522 26.784,2.67 29.292,3.413C31.8,4.157 34.099,5.476 36.008,7.265C37.917,9.053 39.381,11.263 40.286,13.718C41.19,16.172 41.509,18.804 41.217,21.404C40.925,24.003 40.03,26.499 38.604,28.692L35.071,28.692C37.294,26.159 38.516,22.902 38.509,19.532C38.521,17.686 38.168,15.856 37.47,14.147C36.773,12.439 35.744,10.885 34.443,9.575C33.142,8.265 31.595,7.226 29.891,6.517C28.186,5.808 26.359,5.442 24.513,5.442C22.667,5.442 20.839,5.808 19.135,6.517C17.431,7.226 15.884,8.265 14.583,9.575C13.282,10.885 12.253,12.439 11.555,14.147C10.857,15.856 10.505,17.686 10.517,19.532C10.509,22.902 11.732,26.159 13.954,28.692L10.423,28.692C8.644,25.968 7.7,22.784 7.706,19.53ZM12.706,19.53C12.702,17.535 13.204,15.571 14.165,13.821C15.126,12.072 16.514,10.595 18.201,9.528C19.887,8.461 21.817,7.839 23.809,7.72C25.801,7.601 27.791,7.988 29.593,8.847C31.395,9.705 32.949,11.006 34.112,12.628C35.275,14.25 36.007,16.14 36.242,18.122C36.476,20.104 36.204,22.113 35.451,23.961C34.698,25.81 33.49,27.437 31.938,28.692L17.093,28.692C15.721,27.592 14.614,26.197 13.854,24.611C13.095,23.025 12.702,21.289 12.706,19.53ZM77.812,72.056C77.812,72.429 77.664,72.786 77.4,73.05C77.136,73.313 76.779,73.462 76.406,73.462L3.594,73.462C3.221,73.462 2.864,73.313 2.6,73.05C2.336,72.786 2.188,72.429 2.188,72.056L2.188,32.285C2.188,31.912 2.336,31.555 2.6,31.291C2.864,31.028 3.221,30.88 3.594,30.879L76.406,30.879C76.779,30.88 77.136,31.028 77.4,31.291C77.664,31.555 77.812,31.912 77.812,32.285L77.812,72.056Z" fill="#FFFFFF"/>
<path d="M73.906,39.361C72.694,39.36 71.532,38.878 70.675,38.02C69.818,37.163 69.336,36.001 69.334,34.789C69.334,34.499 69.219,34.221 69.014,34.016C68.809,33.811 68.531,33.695 68.241,33.695L11.759,33.695C11.469,33.695 11.191,33.811 10.986,34.016C10.781,34.221 10.666,34.499 10.666,34.789C10.664,36.001 10.182,37.163 9.325,38.02C8.468,38.878 7.306,39.36 6.094,39.361C5.804,39.361 5.526,39.476 5.321,39.681C5.115,39.887 5,40.165 5,40.455L5,63.892C5,64.182 5.115,64.461 5.32,64.666C5.525,64.871 5.804,64.986 6.094,64.986C7.306,64.988 8.468,65.47 9.325,66.327C10.182,67.184 10.664,68.346 10.666,69.559C10.666,69.849 10.781,70.127 10.986,70.332C11.191,70.537 11.469,70.652 11.759,70.652L68.241,70.652C68.531,70.652 68.809,70.537 69.014,70.332C69.219,70.127 69.334,69.849 69.334,69.559C69.336,68.346 69.818,67.184 70.675,66.327C71.532,65.47 72.694,64.988 73.906,64.986C74.05,64.986 74.192,64.958 74.325,64.903C74.458,64.848 74.578,64.767 74.68,64.666C74.781,64.564 74.862,64.444 74.917,64.311C74.972,64.178 75,64.036 75,63.892L75,40.455C75,40.165 74.885,39.886 74.68,39.681C74.475,39.476 74.196,39.361 73.906,39.361ZM12.764,68.466C12.533,67.071 11.871,65.782 10.871,64.782C9.871,63.782 8.583,63.12 7.188,62.889L7.188,41.46C8.583,41.229 9.871,40.567 10.871,39.566C11.871,38.566 12.533,37.278 12.764,35.883L31.289,35.883C28.338,37.459 25.871,39.807 24.15,42.677C22.43,45.546 21.522,48.829 21.522,52.174C21.522,55.52 22.43,58.803 24.15,61.672C25.871,64.541 28.338,66.89 31.289,68.466L12.764,68.466ZM40,35.883C43.222,35.883 46.372,36.838 49.052,38.628C51.731,40.418 53.819,42.963 55.052,45.94C56.285,48.917 56.608,52.193 55.979,55.353C55.351,58.513 53.799,61.416 51.521,63.695C49.242,65.973 46.339,67.525 43.179,68.154C40.018,68.782 36.743,68.46 33.766,67.226C30.789,65.993 28.244,63.905 26.454,61.226C24.664,58.546 23.709,55.396 23.709,52.174C23.714,47.855 25.433,43.715 28.487,40.661C31.541,37.607 35.681,35.888 40,35.883ZM72.812,62.889C71.417,63.119 70.129,63.782 69.128,64.782C68.128,65.782 67.466,67.07 67.235,68.466L48.711,68.466C51.662,66.89 54.129,64.541 55.85,61.672C57.57,58.803 58.478,55.52 58.478,52.174C58.478,48.829 57.57,45.546 55.85,42.677C54.129,39.807 51.662,37.459 48.711,35.883L67.235,35.883C67.466,37.278 68.128,38.567 69.128,39.567C70.129,40.567 71.417,41.229 72.812,41.46L72.812,62.889Z" fill="#FFFFFF"/>
<path d="M43.613,56.937L33.887,56.937C33.597,56.937 33.318,57.052 33.113,57.257C32.908,57.462 32.793,57.74 32.793,58.03C32.793,58.32 32.908,58.599 33.113,58.804C33.318,59.009 33.597,59.124 33.887,59.124L36.631,59.124L36.631,61.835C36.631,62.125 36.746,62.403 36.951,62.608C37.157,62.813 37.435,62.928 37.725,62.928C38.015,62.928 38.293,62.813 38.498,62.608C38.703,62.403 38.819,62.125 38.819,61.835L38.819,59.124L41.181,59.124L41.181,61.835C41.181,62.125 41.296,62.403 41.501,62.608C41.707,62.813 41.985,62.928 42.275,62.928C42.565,62.928 42.843,62.813 43.048,62.608C43.253,62.403 43.369,62.125 43.369,61.835L43.369,59.124L43.613,59.124C44.566,59.123 45.479,58.744 46.153,58.07C46.827,57.397 47.206,56.483 47.207,55.53L47.207,52.171C47.207,51.881 47.091,51.603 46.886,51.398C46.681,51.192 46.403,51.077 46.113,51.077L34.98,51.077L34.98,48.812C34.981,48.439 35.129,48.081 35.393,47.818C35.657,47.554 36.014,47.406 36.387,47.405L46.113,47.405C46.403,47.405 46.681,47.29 46.886,47.085C47.091,46.88 47.207,46.602 47.207,46.312C47.207,46.021 47.091,45.743 46.886,45.538C46.681,45.333 46.403,45.218 46.113,45.218L43.369,45.218L43.369,42.508C43.369,42.218 43.253,41.94 43.048,41.734C42.843,41.529 42.565,41.414 42.275,41.414C41.985,41.414 41.707,41.529 41.501,41.734C41.296,41.94 41.181,42.218 41.181,42.508L41.181,45.218L38.819,45.218L38.819,42.508C38.819,42.218 38.703,41.94 38.498,41.734C38.293,41.529 38.015,41.414 37.725,41.414C37.435,41.414 37.157,41.529 36.951,41.734C36.746,41.94 36.631,42.218 36.631,42.508L36.631,45.218L36.387,45.218C35.434,45.219 34.52,45.598 33.847,46.272C33.173,46.946 32.794,47.859 32.793,48.812L32.793,52.172C32.793,52.315 32.821,52.457 32.876,52.59C32.931,52.723 33.012,52.844 33.113,52.945C33.215,53.047 33.335,53.127 33.468,53.182C33.601,53.237 33.743,53.265 33.887,53.265L45.019,53.265L45.019,55.531C45.019,55.904 44.87,56.261 44.607,56.524C44.343,56.788 43.986,56.936 43.613,56.937Z" fill="#FFFFFF"/>
<path d="M28.028,12.845L24.514,16.513L21.001,12.845C20.901,12.741 20.782,12.658 20.651,12.6C20.519,12.542 20.378,12.511 20.234,12.508C20.091,12.505 19.948,12.53 19.814,12.582C19.68,12.635 19.558,12.713 19.454,12.812C19.35,12.911 19.267,13.03 19.21,13.162C19.152,13.293 19.12,13.435 19.117,13.578C19.114,13.722 19.14,13.865 19.192,13.999C19.244,14.133 19.322,14.255 19.421,14.359L21.952,17L20.53,17C20.24,17 19.962,17.115 19.757,17.32C19.552,17.525 19.436,17.803 19.436,18.094C19.436,18.384 19.552,18.662 19.757,18.867C19.962,19.072 20.24,19.187 20.53,19.187L23.421,19.187L23.421,20.595L20.53,20.595C20.24,20.595 19.962,20.71 19.757,20.915C19.552,21.12 19.436,21.398 19.436,21.689C19.436,21.979 19.552,22.257 19.757,22.462C19.962,22.667 20.24,22.782 20.53,22.782L23.421,22.782L23.421,24.735C23.421,25.026 23.536,25.304 23.741,25.509C23.946,25.714 24.224,25.829 24.514,25.829C24.805,25.829 25.083,25.714 25.288,25.509C25.493,25.304 25.608,25.026 25.608,24.735L25.608,22.782L28.501,22.782C28.791,22.782 29.069,22.667 29.274,22.462C29.479,22.257 29.594,21.979 29.594,21.689C29.594,21.398 29.479,21.12 29.274,20.915C29.069,20.71 28.791,20.595 28.501,20.595L25.608,20.595L25.608,19.189L28.501,19.189C28.791,19.189 29.069,19.073 29.274,18.868C29.479,18.663 29.594,18.385 29.594,18.095C29.594,17.805 29.479,17.527 29.274,17.321C29.069,17.116 28.791,17.001 28.501,17.001L27.077,17.001L29.608,14.36C29.809,14.15 29.919,13.87 29.912,13.579C29.906,13.289 29.785,13.013 29.576,12.812C29.366,12.611 29.085,12.502 28.795,12.508C28.505,12.514 28.229,12.635 28.028,12.845Z" fill="#FFFFFF"/>
<path d="M59.001,12.845L55.488,16.513L51.973,12.845C51.874,12.741 51.755,12.658 51.624,12.6C51.492,12.542 51.35,12.511 51.207,12.508C51.063,12.505 50.92,12.53 50.787,12.582C50.653,12.635 50.531,12.713 50.427,12.812C50.323,12.911 50.24,13.03 50.182,13.162C50.124,13.293 50.093,13.435 50.09,13.578C50.087,13.722 50.112,13.865 50.164,13.999C50.217,14.133 50.295,14.255 50.394,14.359L52.925,17L51.501,17C51.211,17 50.933,17.115 50.727,17.32C50.522,17.525 50.407,17.803 50.407,18.094C50.407,18.384 50.522,18.662 50.727,18.867C50.933,19.072 51.211,19.187 51.501,19.187L54.391,19.187L54.391,20.595L51.501,20.595C51.211,20.595 50.933,20.71 50.727,20.915C50.522,21.12 50.407,21.398 50.407,21.689C50.407,21.979 50.522,22.257 50.727,22.462C50.933,22.667 51.211,22.782 51.501,22.782L54.391,22.782L54.391,24.735C54.391,25.025 54.507,25.304 54.712,25.509C54.917,25.714 55.195,25.829 55.485,25.829C55.775,25.829 56.054,25.714 56.259,25.509C56.464,25.304 56.579,25.025 56.579,24.735L56.579,22.782L59.47,22.782C59.76,22.782 60.038,22.667 60.243,22.462C60.448,22.257 60.563,21.979 60.563,21.689C60.563,21.398 60.448,21.12 60.243,20.915C60.038,20.71 59.76,20.595 59.47,20.595L56.581,20.595L56.581,19.189L59.471,19.189C59.762,19.189 60.04,19.073 60.245,18.868C60.45,18.663 60.565,18.385 60.565,18.095C60.565,17.805 60.45,17.526 60.245,17.321C60.04,17.116 59.762,17.001 59.471,17.001L58.05,17.001L60.58,14.36C60.68,14.256 60.758,14.134 60.81,14C60.862,13.866 60.888,13.723 60.885,13.58C60.882,13.436 60.85,13.294 60.793,13.163C60.735,13.031 60.652,12.912 60.548,12.813C60.444,12.713 60.322,12.635 60.188,12.583C60.054,12.531 59.911,12.505 59.768,12.508C59.624,12.511 59.482,12.542 59.351,12.6C59.219,12.658 59.1,12.741 59.001,12.845Z" fill="#FFFFFF"/>
</svg>
