<svg width="130" height="80" viewBox="0 0 130 80" fill="none" xmlns="http://www.w3.org/2000/svg" xmlns:xlink="http://www.w3.org/1999/xlink">
<path d="M128.223,-0.859L1.777,-0.859C1.544,-0.86 1.313,-0.814 1.097,-0.724C0.881,-0.635 0.685,-0.504 0.52,-0.339C0.355,-0.174 0.224,0.022 0.135,0.238C0.046,0.453 0,0.685 0,0.918L0,77.084C0,77.317 0.046,77.548 0.135,77.764C0.224,77.98 0.355,78.176 0.52,78.341C0.685,78.506 0.881,78.637 1.097,78.726C1.313,78.815 1.544,78.861 1.777,78.861L128.223,78.861C128.456,78.861 128.687,78.815 128.903,78.726C129.119,78.637 129.315,78.506 129.48,78.341C129.645,78.176 129.776,77.98 129.865,77.764C129.954,77.548 130,77.317 130,77.084L130,0.918C130,0.685 129.954,0.453 129.865,0.238C129.776,0.022 129.645,-0.174 129.48,-0.339C129.315,-0.504 129.119,-0.635 128.903,-0.724C128.687,-0.814 128.456,-0.86 128.223,-0.859ZM3.555,2.695L126.445,2.695L126.445,64.205L3.555,64.205L3.555,2.695ZM126.445,75.306L3.555,75.306L3.555,67.759L126.445,67.759L126.445,75.306Z" fill="#FFFFFF"/>
<path d="M49.766,7.266L9.902,7.266C9.669,7.265 9.438,7.311 9.222,7.401C9.006,7.49 8.81,7.621 8.645,7.786C8.48,7.951 8.349,8.147 8.26,8.363C8.171,8.578 8.125,8.81 8.125,9.043L8.125,57.857C8.125,58.328 8.312,58.78 8.646,59.114C8.979,59.447 9.431,59.634 9.902,59.634L49.766,59.634C50.237,59.634 50.689,59.447 51.022,59.114C51.356,58.78 51.543,58.328 51.543,57.857L51.543,9.043C51.543,8.81 51.497,8.578 51.408,8.363C51.319,8.147 51.188,7.951 51.023,7.786C50.858,7.621 50.662,7.49 50.446,7.401C50.23,7.311 49.999,7.265 49.766,7.266ZM47.988,56.08L11.68,56.08L11.68,51.45C11.682,48.96 12.673,46.572 14.434,44.81C16.195,43.049 18.583,42.059 21.074,42.056L38.594,42.056C41.085,42.059 43.472,43.049 45.234,44.81C46.995,46.572 47.986,48.96 47.988,51.45L47.988,56.08ZM38.594,38.501L21.074,38.501C19.314,38.502 17.573,38.862 15.957,39.561C14.341,40.26 12.886,41.282 11.68,42.564L11.68,10.82L47.988,10.82L47.988,42.565C46.782,41.282 45.327,40.261 43.711,39.562C42.095,38.863 40.354,38.502 38.594,38.501Z" fill="#FFFFFF"/>
<path d="M120.098,9.93L57.898,9.93C57.665,9.93 57.434,9.975 57.218,10.065C57.002,10.154 56.806,10.285 56.641,10.45C56.476,10.615 56.345,10.811 56.256,11.027C56.167,11.242 56.121,11.474 56.121,11.707L56.121,20.456C56.121,20.689 56.167,20.92 56.256,21.136C56.345,21.352 56.476,21.548 56.641,21.713C56.806,21.878 57.002,22.009 57.218,22.098C57.434,22.187 57.665,22.233 57.898,22.233L120.098,22.233C120.332,22.233 120.563,22.187 120.779,22.098C120.994,22.009 121.19,21.878 121.355,21.713C121.52,21.548 121.651,21.352 121.741,21.136C121.83,20.92 121.876,20.689 121.876,20.456L121.876,11.707C121.876,11.474 121.83,11.242 121.741,11.027C121.651,10.811 121.52,10.615 121.355,10.45C121.19,10.285 120.994,10.154 120.779,10.065C120.563,9.975 120.332,9.93 120.098,9.93ZM118.321,18.678L59.676,18.678L59.676,13.484L118.321,13.484L118.321,18.678Z" fill="#FFFFFF"/>
<path d="M120.098,27.297L57.898,27.297C57.665,27.297 57.434,27.343 57.218,27.432C57.002,27.521 56.806,27.652 56.641,27.817C56.476,27.982 56.345,28.178 56.256,28.394C56.167,28.61 56.121,28.841 56.121,29.074L56.121,37.822C56.121,38.055 56.167,38.286 56.256,38.502C56.345,38.718 56.476,38.914 56.641,39.079C56.806,39.244 57.002,39.375 57.218,39.464C57.434,39.553 57.665,39.599 57.898,39.599L120.098,39.599C120.332,39.599 120.563,39.553 120.779,39.464C120.994,39.375 121.19,39.244 121.355,39.079C121.52,38.914 121.651,38.718 121.741,38.502C121.83,38.286 121.876,38.055 121.876,37.822L121.876,29.074C121.876,28.841 121.83,28.61 121.741,28.394C121.651,28.178 121.52,27.982 121.355,27.817C121.19,27.652 120.994,27.521 120.779,27.432C120.563,27.343 120.332,27.297 120.098,27.297ZM118.321,36.044L59.676,36.044L59.676,30.852L118.321,30.852L118.321,36.044Z" fill="#FFFFFF"/>
<path d="M105.942,44.664L57.903,44.664C57.669,44.664 57.438,44.71 57.223,44.799C57.007,44.888 56.811,45.019 56.646,45.184C56.481,45.349 56.35,45.545 56.261,45.761C56.171,45.977 56.125,46.208 56.125,46.441L56.125,55.191C56.125,55.662 56.313,56.114 56.646,56.448C56.979,56.781 57.431,56.968 57.903,56.968L105.947,56.968C106.418,56.968 106.87,56.781 107.204,56.448C107.537,56.114 107.724,55.662 107.724,55.191L107.724,46.441C107.724,46.208 107.678,45.976 107.589,45.76C107.499,45.544 107.368,45.348 107.202,45.183C107.037,45.017 106.84,44.887 106.624,44.798C106.407,44.709 106.176,44.663 105.942,44.664ZM104.164,53.414L59.68,53.414L59.68,48.219L104.17,48.219L104.164,53.414Z" fill="#FFFFFF"/>
<path d="M29.833,15.641C27.287,15.784 24.892,16.896 23.14,18.749C21.388,20.603 20.412,23.056 20.412,25.606C20.412,28.157 21.388,30.61 23.14,32.464C24.892,34.317 27.287,35.429 29.833,35.572C32.38,35.429 34.774,34.317 36.526,32.464C38.278,30.61 39.254,28.157 39.254,25.606C39.254,23.056 38.278,20.603 36.526,18.749C34.774,16.896 32.38,15.784 29.833,15.641ZM29.833,32.018C28.23,31.876 26.739,31.14 25.652,29.953C24.565,28.766 23.963,27.216 23.963,25.606C23.963,23.997 24.565,22.447 25.652,21.26C26.739,20.073 28.23,19.337 29.833,19.195C31.436,19.337 32.928,20.073 34.015,21.26C35.101,22.447 35.704,23.997 35.704,25.606C35.704,27.216 35.101,28.766 34.015,29.953C32.928,31.14 31.436,31.876 29.833,32.018Z" fill="#FFFFFF"/>
</svg>
