<svg width="90" height="90" viewBox="0 0 90 90" fill="none" xmlns="http://www.w3.org/2000/svg" xmlns:xlink="http://www.w3.org/1999/xlink">
<path d="M88.77,0L1.23,0C0.904,0 0.592,0.129 0.361,0.36C0.13,0.59 0.001,0.902 0,1.228L0,88.767C0,88.929 0.031,89.089 0.093,89.239C0.155,89.388 0.245,89.524 0.36,89.639C0.474,89.753 0.61,89.844 0.759,89.906C0.909,89.968 1.069,90 1.23,90L88.77,90C88.931,90 89.091,89.968 89.241,89.907C89.39,89.845 89.526,89.754 89.64,89.64C89.754,89.526 89.845,89.39 89.907,89.241C89.968,89.091 90,88.931 90,88.77L90,1.228C90,0.902 89.87,0.59 89.639,0.359C89.408,0.129 89.096,0 88.77,0ZM87.539,87.539L2.461,87.539L2.461,2.461L87.539,2.461L87.539,87.539Z" fill="#2437AC"/>
<path d="M6.855,84.375L83.145,84.375C83.306,84.375 83.466,84.343 83.616,84.282C83.765,84.22 83.901,84.129 84.015,84.015C84.129,83.901 84.22,83.765 84.282,83.616C84.343,83.466 84.375,83.306 84.375,83.145L84.375,6.853C84.375,6.527 84.245,6.215 84.014,5.984C83.783,5.754 83.471,5.625 83.145,5.625L6.855,5.625C6.529,5.625 6.217,5.754 5.986,5.985C5.755,6.215 5.626,6.527 5.625,6.853L5.625,83.142C5.625,83.304 5.656,83.464 5.718,83.614C5.78,83.763 5.87,83.899 5.985,84.014C6.099,84.128 6.235,84.219 6.384,84.281C6.534,84.343 6.694,84.375 6.855,84.375ZM8.086,8.086L81.914,8.086L81.914,81.914L8.086,81.914L8.086,8.086Z" fill="#2437AC"/>
<path d="M35.87,13.517C35.645,13.424 35.398,13.4 35.159,13.448C34.921,13.495 34.702,13.612 34.529,13.784L27.016,21.297L18.064,12.345C17.95,12.231 17.814,12.14 17.665,12.078C17.516,12.016 17.356,11.984 17.194,11.984C17.033,11.984 16.873,12.016 16.723,12.078C16.574,12.14 16.439,12.231 16.324,12.345L12.346,16.322C12.116,16.553 11.986,16.866 11.986,17.192C11.986,17.518 12.116,17.831 12.346,18.062L21.298,27.014L13.787,34.526C13.615,34.698 13.497,34.917 13.45,35.156C13.402,35.395 13.427,35.642 13.52,35.867C13.613,36.092 13.771,36.284 13.973,36.419C14.175,36.555 14.413,36.627 14.657,36.627L35.399,36.627C35.725,36.627 36.038,36.497 36.269,36.266C36.5,36.036 36.629,35.723 36.629,35.396L36.629,14.654C36.629,14.411 36.557,14.173 36.422,13.97C36.287,13.768 36.095,13.61 35.87,13.517ZM34.171,34.166L17.627,34.166L23.909,27.884C24.023,27.77 24.114,27.634 24.176,27.485C24.238,27.336 24.27,27.176 24.27,27.014C24.27,26.853 24.238,26.693 24.176,26.544C24.114,26.394 24.023,26.259 23.909,26.145L14.957,17.192L17.194,14.955L26.146,23.905C26.377,24.136 26.69,24.265 27.017,24.265C27.343,24.265 27.656,24.136 27.887,23.905L34.171,17.624L34.171,34.166Z" fill="#2437AC"/>
<path d="M73.675,12.345C73.561,12.231 73.425,12.14 73.276,12.078C73.127,12.016 72.967,11.984 72.805,11.984C72.644,11.984 72.484,12.016 72.334,12.078C72.185,12.14 72.049,12.231 71.935,12.345L62.982,21.297L55.471,13.784C55.299,13.61 55.079,13.492 54.84,13.444C54.601,13.396 54.353,13.42 54.127,13.514C53.902,13.607 53.709,13.765 53.574,13.968C53.438,14.171 53.366,14.41 53.367,14.654L53.367,35.396C53.367,35.558 53.399,35.718 53.461,35.867C53.522,36.017 53.613,36.152 53.727,36.267C53.842,36.381 53.977,36.472 54.127,36.533C54.276,36.595 54.436,36.627 54.598,36.627L75.34,36.627C75.583,36.627 75.821,36.555 76.024,36.42C76.226,36.284 76.384,36.092 76.477,35.867C76.571,35.642 76.595,35.395 76.547,35.156C76.5,34.917 76.383,34.698 76.21,34.526L68.7,27.014L77.652,18.062C77.767,17.948 77.858,17.812 77.919,17.663C77.981,17.514 78.013,17.354 78.013,17.192C78.013,17.03 77.981,16.87 77.919,16.721C77.858,16.572 77.767,16.436 77.652,16.322L73.675,12.345ZM66.094,26.145C65.979,26.259 65.889,26.394 65.827,26.544C65.765,26.693 65.733,26.853 65.733,27.014C65.733,27.176 65.765,27.336 65.827,27.485C65.889,27.634 65.979,27.77 66.094,27.884L72.375,34.166L55.828,34.166L55.828,17.625L62.113,23.905C62.227,24.019 62.362,24.11 62.512,24.172C62.661,24.234 62.821,24.266 62.982,24.266C63.144,24.266 63.304,24.234 63.453,24.172C63.602,24.11 63.738,24.019 63.852,23.905L72.805,14.954L75.042,17.19L66.094,26.145Z" fill="#2437AC"/>
<path d="M35.4,53.367L14.657,53.367C14.414,53.367 14.176,53.439 13.974,53.575C13.771,53.71 13.613,53.902 13.52,54.127C13.427,54.352 13.403,54.599 13.451,54.838C13.498,55.077 13.615,55.296 13.788,55.468L21.299,62.98L12.347,71.933C12.116,72.164 11.987,72.477 11.987,72.803C11.987,73.129 12.116,73.442 12.347,73.673L16.325,77.65C16.439,77.764 16.575,77.855 16.724,77.917C16.873,77.978 17.033,78.01 17.195,78.01C17.356,78.01 17.516,77.978 17.666,77.917C17.815,77.855 17.951,77.764 18.065,77.65L27.017,68.695L34.53,76.208C34.702,76.381 34.921,76.498 35.16,76.546C35.399,76.593 35.646,76.569 35.871,76.476C36.096,76.382 36.288,76.224 36.423,76.022C36.558,75.819 36.63,75.581 36.63,75.338L36.63,54.596C36.629,54.27 36.499,53.957 36.269,53.727C36.038,53.497 35.725,53.367 35.4,53.367ZM34.172,72.371L27.89,66.088C27.659,65.858 27.346,65.728 27.02,65.728C26.694,65.728 26.381,65.858 26.15,66.088L17.195,75.04L14.958,72.803L23.91,63.851C24.024,63.737 24.115,63.601 24.177,63.452C24.239,63.302 24.27,63.142 24.27,62.981C24.27,62.819 24.239,62.659 24.177,62.51C24.115,62.36 24.024,62.225 23.91,62.111L17.628,55.828L34.172,55.828L34.172,72.371Z" fill="#2437AC"/>
<path d="M68.701,62.98L76.214,55.468C76.386,55.296 76.504,55.077 76.551,54.838C76.599,54.599 76.574,54.352 76.481,54.127C76.388,53.902 76.23,53.71 76.028,53.574C75.825,53.439 75.587,53.367 75.344,53.367L54.602,53.367C54.275,53.367 53.962,53.497 53.731,53.728C53.501,53.958 53.371,54.271 53.371,54.598L53.371,75.34C53.371,75.583 53.443,75.821 53.578,76.024C53.713,76.226 53.906,76.384 54.131,76.477C54.356,76.571 54.603,76.595 54.842,76.547C55.081,76.5 55.3,76.383 55.472,76.21L62.984,68.695L71.936,77.646C72.051,77.76 72.186,77.851 72.335,77.913C72.485,77.975 72.645,78.007 72.806,78.007C72.968,78.007 73.128,77.975 73.277,77.913C73.426,77.851 73.562,77.76 73.676,77.646L77.653,73.669C77.768,73.555 77.858,73.42 77.92,73.27C77.982,73.121 78.014,72.961 78.014,72.799C78.014,72.638 77.982,72.478 77.92,72.329C77.858,72.179 77.768,72.044 77.653,71.93L68.701,62.98ZM72.806,75.04L63.853,66.087C63.739,65.973 63.604,65.882 63.454,65.82C63.305,65.759 63.145,65.727 62.984,65.727C62.822,65.727 62.662,65.759 62.513,65.82C62.363,65.882 62.228,65.973 62.114,66.087L55.829,72.369L55.829,55.827L72.37,55.827L66.095,62.11C65.98,62.224 65.89,62.36 65.828,62.509C65.766,62.658 65.734,62.818 65.734,62.98C65.734,63.142 65.766,63.302 65.828,63.451C65.89,63.6 65.98,63.736 66.095,63.85L75.047,72.802L72.806,75.04Z" fill="#2437AC"/>
<path d="M44.999,37.57C43.531,37.57 42.095,38.006 40.874,38.822C39.653,39.637 38.702,40.797 38.14,42.154C37.578,43.51 37.43,45.003 37.717,46.443C38.003,47.884 38.71,49.207 39.748,50.245C40.787,51.284 42.11,51.991 43.55,52.277C44.99,52.564 46.483,52.417 47.84,51.856C49.196,51.294 50.356,50.342 51.172,49.121C51.988,47.901 52.424,46.465 52.424,44.997C52.423,43.028 51.64,41.14 50.248,39.748C48.856,38.355 46.968,37.572 44.999,37.57ZM44.999,49.959C44.017,49.959 43.057,49.667 42.241,49.122C41.425,48.576 40.788,47.801 40.413,46.894C40.037,45.987 39.939,44.988 40.131,44.025C40.322,43.062 40.795,42.178 41.49,41.484C42.184,40.79 43.069,40.317 44.032,40.126C44.995,39.934 45.993,40.033 46.9,40.409C47.807,40.785 48.583,41.422 49.128,42.238C49.673,43.055 49.964,44.015 49.963,44.997C49.961,46.312 49.438,47.574 48.507,48.504C47.576,49.434 46.315,49.957 44.999,49.959Z" fill="#2437AC"/>
</svg>
