<svg width="70" height="90" viewBox="0 0 70 90" fill="none" xmlns="http://www.w3.org/2000/svg" xmlns:xlink="http://www.w3.org/1999/xlink">
<path d="M64.707,0L19.004,0C18.679,0.004 18.368,0.132 18.134,0.359L0.908,17.585C0.681,17.818 0.552,18.13 0.547,18.455L0.547,85.252C0.548,86.51 1.048,87.717 1.938,88.608C2.828,89.498 4.034,89.999 5.293,90L64.707,90C65.965,89.999 67.172,89.498 68.061,88.608C68.951,87.719 69.452,86.512 69.453,85.254L69.453,4.744C69.451,3.486 68.95,2.28 68.061,1.391C67.171,0.502 65.965,0.001 64.707,0ZM17.773,4.199L17.773,17.227L4.748,17.227L11.26,10.714L17.773,4.199ZM66.992,85.252C66.991,85.858 66.75,86.438 66.322,86.867C65.894,87.295 65.313,87.536 64.707,87.537L5.293,87.537C4.687,87.536 4.106,87.295 3.678,86.867C3.25,86.438 3.009,85.858 3.008,85.252L3.008,19.688L19.004,19.688C19.166,19.688 19.326,19.656 19.475,19.594C19.625,19.532 19.76,19.441 19.875,19.326C19.989,19.212 20.08,19.076 20.141,18.926C20.203,18.777 20.235,18.617 20.234,18.455L20.234,2.461L64.707,2.461C65.313,2.462 65.894,2.703 66.322,3.131C66.75,3.559 66.991,4.14 66.992,4.746L66.992,85.252Z" fill="#2437AC"/>
<path d="M11.664,26.649C12.713,27.37 13.906,27.853 15.161,28.064C16.416,28.274 17.701,28.208 18.928,27.868L15.362,34.842L14.255,34.842C14.093,34.842 13.933,34.873 13.784,34.935C13.634,34.997 13.499,35.088 13.385,35.202C13.27,35.316 13.18,35.452 13.118,35.601C13.056,35.751 13.024,35.911 13.024,36.072L13.024,38.587C13.026,39.714 13.474,40.796 14.272,41.593C15.069,42.391 16.15,42.839 17.278,42.841L25.313,42.841C26.441,42.839 27.522,42.391 28.319,41.593C29.116,40.796 29.565,39.714 29.566,38.587L29.566,36.071C29.566,35.909 29.534,35.749 29.473,35.6C29.411,35.451 29.32,35.315 29.206,35.201C29.092,35.086 28.956,34.996 28.807,34.934C28.657,34.872 28.497,34.84 28.336,34.84L27.229,34.84L22.966,26.504L23.843,26.203C25.837,25.512 27.999,25.467 30.021,26.072L31.503,26.512L31.503,46.011L21.572,46.011C20.744,46.012 19.951,46.341 19.366,46.926C18.781,47.51 18.452,48.304 18.452,49.131L18.452,50.796L16.874,50.796C16.147,50.797 15.45,51.087 14.936,51.601C14.422,52.115 14.133,52.812 14.132,53.539L14.132,56.562C14.132,56.888 14.262,57.201 14.492,57.432C14.723,57.663 15.036,57.792 15.362,57.793L54.641,57.793C54.967,57.792 55.28,57.663 55.511,57.432C55.741,57.201 55.871,56.888 55.871,56.562L55.871,53.539C55.87,52.812 55.581,52.115 55.067,51.601C54.553,51.087 53.856,50.797 53.129,50.796L51.549,50.796L51.549,49.131C51.548,48.304 51.22,47.511 50.635,46.926C50.051,46.341 49.258,46.012 48.431,46.011L38.499,46.011L38.499,26.512L39.981,26.072C42.004,25.466 44.165,25.512 46.16,26.203L47.037,26.504L42.774,34.841L41.666,34.841C41.34,34.841 41.027,34.971 40.796,35.202C40.565,35.432 40.436,35.745 40.436,36.072L40.436,38.586C40.437,39.714 40.886,40.795 41.683,41.592C42.481,42.39 43.562,42.839 44.69,42.84L52.724,42.84C53.852,42.839 54.933,42.39 55.731,41.592C56.528,40.795 56.977,39.714 56.978,38.586L56.978,36.071C56.978,35.909 56.946,35.749 56.885,35.6C56.823,35.451 56.732,35.315 56.618,35.201C56.504,35.086 56.368,34.996 56.219,34.934C56.069,34.872 55.909,34.84 55.748,34.84L54.64,34.84L51.075,27.868C52.301,28.207 53.587,28.274 54.841,28.063C56.096,27.853 57.29,27.37 58.338,26.649C58.471,26.557 58.585,26.44 58.672,26.304C58.76,26.168 58.82,26.017 58.849,25.858C58.879,25.699 58.876,25.535 58.842,25.377C58.808,25.219 58.743,25.069 58.651,24.936C58.56,24.803 58.442,24.69 58.307,24.602C58.171,24.514 58.019,24.454 57.86,24.425C57.701,24.396 57.538,24.398 57.38,24.432C57.222,24.466 57.072,24.531 56.939,24.623C56.13,25.176 55.204,25.533 54.233,25.665C53.262,25.797 52.274,25.701 51.347,25.383L46.961,23.875C44.481,23.016 41.794,22.96 39.28,23.712L38.499,23.944L38.499,22.501C39.212,21.805 39.701,20.913 39.905,19.938C40.108,18.963 40.016,17.949 39.641,17.027C39.265,16.104 38.623,15.315 37.797,14.759C36.97,14.203 35.997,13.906 35.001,13.906C34.005,13.906 33.032,14.203 32.205,14.759C31.379,15.315 30.737,16.104 30.362,17.027C29.986,17.949 29.894,18.963 30.098,19.938C30.301,20.913 30.79,21.805 31.503,22.501L31.503,23.943L30.723,23.711C28.209,22.959 25.522,23.016 23.042,23.874L18.655,25.383C17.728,25.7 16.74,25.797 15.769,25.664C14.799,25.532 13.872,25.176 13.064,24.623C12.795,24.437 12.464,24.366 12.142,24.425C11.821,24.484 11.536,24.668 11.351,24.936C11.165,25.205 11.094,25.536 11.153,25.858C11.212,26.179 11.396,26.464 11.664,26.649ZM54.517,38.586C54.517,39.061 54.327,39.517 53.991,39.853C53.655,40.189 53.2,40.378 52.724,40.379L44.69,40.379C44.214,40.378 43.758,40.189 43.422,39.853C43.086,39.517 42.897,39.061 42.897,38.586L42.897,37.302L54.517,37.302L54.517,38.586ZM45.538,34.841L48.706,28.645L51.876,34.841L45.538,34.841ZM53.413,53.539L53.413,55.332L16.592,55.332L16.592,53.539C16.592,53.464 16.622,53.392 16.674,53.34C16.727,53.287 16.799,53.257 16.873,53.257L53.128,53.257C53.165,53.257 53.202,53.264 53.236,53.279C53.271,53.293 53.302,53.313 53.328,53.339C53.354,53.366 53.375,53.397 53.389,53.431C53.403,53.465 53.41,53.502 53.41,53.539L53.413,53.539ZM49.091,49.131L49.091,50.796L20.914,50.796L20.914,49.131C20.914,48.956 20.984,48.789 21.107,48.665C21.231,48.542 21.398,48.472 21.573,48.472L48.431,48.472C48.605,48.472 48.772,48.542 48.896,48.666C49.019,48.789 49.088,48.956 49.088,49.131L49.091,49.131ZM35.001,16.374C35.505,16.374 35.998,16.524 36.418,16.804C36.837,17.084 37.164,17.482 37.357,17.947C37.55,18.413 37.6,18.926 37.502,19.42C37.403,19.915 37.161,20.369 36.804,20.725C36.448,21.082 35.993,21.325 35.499,21.423C35.004,21.521 34.492,21.471 34.026,21.278C33.56,21.085 33.162,20.758 32.882,20.339C32.602,19.919 32.453,19.427 32.453,18.922C32.454,18.247 32.723,17.599 33.2,17.121C33.678,16.644 34.326,16.375 35.001,16.374ZM35.001,23.932C35.35,23.932 35.697,23.895 36.038,23.822L36.038,46.011L33.964,46.011L33.964,23.822C34.305,23.895 34.653,23.932 35.001,23.932ZM27.105,38.586C27.105,39.061 26.916,39.517 26.58,39.853C26.244,40.189 25.788,40.378 25.313,40.379L17.278,40.379C16.803,40.378 16.347,40.189 16.011,39.853C15.675,39.517 15.486,39.061 15.485,38.586L15.485,37.302L27.105,37.302L27.105,38.586ZM18.126,34.841L21.295,28.645L24.463,34.841L18.126,34.841Z" fill="#2437AC"/>
<path d="M62.598,62.07L7.402,62.07C7.076,62.07 6.763,62.2 6.532,62.431C6.302,62.661 6.172,62.974 6.172,63.301C6.172,63.627 6.302,63.94 6.532,64.171C6.763,64.402 7.076,64.531 7.402,64.531L62.598,64.531C62.924,64.531 63.237,64.402 63.468,64.171C63.698,63.94 63.828,63.627 63.828,63.301C63.828,62.974 63.698,62.661 63.468,62.431C63.237,62.2 62.924,62.07 62.598,62.07Z" fill="#2437AC"/>
<path d="M62.598,68.422L7.402,68.422C7.076,68.422 6.763,68.552 6.532,68.782C6.302,69.013 6.172,69.326 6.172,69.652C6.172,69.979 6.302,70.292 6.532,70.522C6.763,70.753 7.076,70.883 7.402,70.883L62.598,70.883C62.924,70.883 63.237,70.753 63.468,70.522C63.698,70.292 63.828,69.979 63.828,69.652C63.828,69.326 63.698,69.013 63.468,68.782C63.237,68.552 62.924,68.422 62.598,68.422Z" fill="#2437AC"/>
<path d="M62.598,74.781L7.402,74.781C7.076,74.781 6.763,74.911 6.532,75.142C6.302,75.372 6.172,75.685 6.172,76.012C6.172,76.338 6.302,76.651 6.532,76.882C6.763,77.113 7.076,77.242 7.402,77.242L62.598,77.242C62.924,77.242 63.237,77.113 63.468,76.882C63.698,76.651 63.828,76.338 63.828,76.012C63.828,75.685 63.698,75.372 63.468,75.142C63.237,74.911 62.924,74.781 62.598,74.781Z" fill="#2437AC"/>
<path d="M55.746,81.133L7.402,81.133C7.076,81.133 6.763,81.262 6.532,81.493C6.302,81.724 6.172,82.037 6.172,82.363C6.172,82.69 6.302,83.003 6.532,83.233C6.763,83.464 7.076,83.594 7.402,83.594L55.746,83.594C56.073,83.594 56.386,83.464 56.616,83.233C56.847,83.003 56.977,82.69 56.977,82.363C56.977,82.037 56.847,81.724 56.616,81.493C56.386,81.262 56.073,81.133 55.746,81.133Z" fill="#2437AC"/>
</svg>
