<svg width="52" height="60" viewBox="0 0 52 60" fill="none" xmlns="http://www.w3.org/2000/svg" xmlns:xlink="http://www.w3.org/1999/xlink">
<path d="M51.4,50.98C51.4,50.98 44.741,39.535 43.546,37.482C44.905,37.067 46.353,36.701 46.955,35.663C47.957,33.932 46.173,31.093 46.641,29.238C47.124,27.328 49.974,25.676 49.974,23.736C49.974,21.845 47.028,19.636 46.545,17.738C46.073,15.883 47.852,13.041 46.846,11.312C45.84,9.583 42.49,9.725 41.111,8.398C39.692,7.033 39.697,3.692 37.985,2.777C36.267,1.858 33.474,3.714 31.566,3.275C29.68,2.84 27.995,0 26.025,0C24.025,0 20.845,3.221 20.346,3.337C18.439,3.781 15.643,1.929 13.926,2.851C12.216,3.77 12.227,7.111 10.811,8.479C9.434,9.808 6.084,9.672 5.081,11.403C4.078,13.134 5.863,15.972 5.395,17.828C4.925,19.689 1.976,21.574 1.976,23.726C1.976,25.667 4.833,27.314 5.318,29.222C5.79,31.077 4.011,33.919 5.017,35.648C5.564,36.59 6.807,36.976 8.048,37.347C8.192,37.391 8.466,37.553 8.281,37.823C7.432,39.288 0.6,51.079 0.6,51.079C0.056,52.017 0.498,52.821 1.58,52.866L6.88,53.087C7.962,53.133 9.321,53.92 9.898,54.836L12.726,59.324C13.304,60.24 14.221,60.223 14.764,59.285C14.764,59.285 22.677,45.625 22.68,45.621C22.839,45.436 22.998,45.474 23.074,45.539C23.94,46.276 25.147,47.011 26.154,47.011C27.142,47.011 28.057,46.319 28.961,45.547C29.035,45.484 29.214,45.356 29.345,45.623C29.347,45.627 37.251,59.212 37.251,59.212C37.796,60.149 38.713,60.165 39.289,59.247L42.109,54.754C42.685,53.837 44.042,53.047 45.124,53L50.423,52.769C51.505,52.722 51.945,51.917 51.4,50.98ZM34.782,38.693C28.923,42.102 21.89,41.736 16.518,38.348C8.647,33.306 6.057,22.876 10.789,14.709C15.575,6.448 26.095,3.533 34.431,8.073C34.475,8.097 34.518,8.121 34.561,8.146C34.623,8.18 34.685,8.214 34.746,8.249C37.318,9.732 39.548,11.884 41.145,14.629C46.025,23.017 43.171,33.813 34.782,38.693Z" fill="#2437AC"/>
<path d="M33.443,10.717C33.418,10.703 33.394,10.69 33.369,10.676C28.916,8.099 23.241,7.91 18.485,10.678C11.426,14.784 9.024,23.867 13.131,30.925C14.384,33.079 16.101,34.799 18.082,36.033C18.25,36.139 18.421,36.244 18.595,36.345C25.661,40.439 34.739,38.021 38.833,30.955C42.926,23.889 40.509,14.811 33.443,10.717ZM35.21,22.268L32.736,24.68C31.97,25.427 31.491,26.901 31.672,27.956L32.256,31.361C32.437,32.416 31.81,32.871 30.863,32.373L27.805,30.765C26.857,30.267 25.307,30.267 24.36,30.765L21.302,32.373C20.355,32.871 19.728,32.416 19.909,31.361L20.493,27.956C20.674,26.901 20.195,25.427 19.429,24.68L16.955,22.268C16.188,21.521 16.428,20.784 17.487,20.63L20.906,20.133C21.965,19.98 23.219,19.069 23.692,18.109L25.221,15.011C25.695,14.051 26.47,14.051 26.943,15.011L28.473,18.109C28.946,19.069 30.2,19.98 31.259,20.133L34.678,20.63C35.737,20.784 35.977,21.521 35.21,22.268Z" fill="#2437AC"/>
</svg>
