<svg width="90" height="90" viewBox="0 0 90 90" fill="none" xmlns="http://www.w3.org/2000/svg" xmlns:xlink="http://www.w3.org/1999/xlink">
<path d="M88.77,40.213L67.596,40.213L67.596,26.128C67.595,25.802 67.466,25.489 67.235,25.259C67.004,25.028 66.691,24.898 66.365,24.898L46.23,24.898L46.23,22.884L62.853,22.884C63.179,22.883 63.492,22.754 63.723,22.523C63.954,22.292 64.083,21.979 64.084,21.653L64.084,11.297C64.083,10.97 63.954,10.658 63.723,10.427C63.492,10.196 63.179,10.066 62.853,10.066L46.23,10.066L46.23,7.855C47.149,7.561 47.933,6.949 48.439,6.129C48.946,5.309 49.143,4.334 48.995,3.381C48.846,2.428 48.362,1.56 47.629,0.933C46.897,0.306 45.964,-0.039 45,-0.039C44.036,-0.039 43.103,0.306 42.371,0.933C41.638,1.56 41.154,2.428 41.005,3.381C40.857,4.334 41.054,5.309 41.561,6.129C42.067,6.949 42.851,7.561 43.77,7.855L43.77,24.898L23.635,24.898C23.309,24.898 22.996,25.028 22.765,25.258C22.534,25.489 22.404,25.802 22.404,26.128L22.404,40.213L1.23,40.213C1.069,40.213 0.909,40.245 0.759,40.307C0.61,40.369 0.474,40.46 0.36,40.575C0.245,40.689 0.155,40.825 0.093,40.975C0.031,41.124 0,41.284 0,41.446L0,88.731C0,89.058 0.13,89.371 0.36,89.601C0.591,89.832 0.904,89.962 1.23,89.962L88.77,89.962C89.096,89.962 89.409,89.832 89.64,89.601C89.87,89.371 90,89.058 90,88.731L90,41.446C90,41.284 89.969,41.124 89.907,40.975C89.845,40.825 89.755,40.689 89.64,40.575C89.526,40.46 89.39,40.369 89.241,40.307C89.091,40.245 88.931,40.213 88.77,40.213ZM46.23,20.423L46.23,17.704L61.623,17.704L61.623,20.423L46.23,20.423ZM61.623,12.527L61.623,15.243L46.23,15.243L46.23,12.527L61.623,12.527ZM45,2.423C45.313,2.423 45.619,2.515 45.879,2.689C46.139,2.863 46.342,3.11 46.462,3.399C46.581,3.688 46.613,4.006 46.552,4.313C46.491,4.62 46.34,4.902 46.119,5.123C45.897,5.345 45.616,5.495 45.309,5.556C45.002,5.617 44.684,5.586 44.395,5.466C44.106,5.347 43.858,5.144 43.685,4.884C43.511,4.623 43.418,4.318 43.418,4.005C43.419,3.585 43.585,3.183 43.882,2.887C44.179,2.59 44.581,2.423 45,2.423ZM87.539,42.674L87.539,80.192L67.596,80.192L67.596,42.674L87.539,42.674ZM24.865,27.359L65.135,27.359L65.135,80.192L59.203,80.192L59.203,61.65C59.201,59.832 58.478,58.09 57.193,56.804C55.908,55.519 54.165,54.796 52.348,54.794L37.656,54.794C35.838,54.796 34.096,55.519 32.811,56.804C31.525,58.09 30.802,59.832 30.8,61.65L30.8,80.192L24.865,80.192L24.865,27.359ZM33.261,80.192L33.261,61.65C33.263,60.485 33.726,59.368 34.55,58.544C35.374,57.72 36.491,57.256 37.656,57.255L43.773,57.255L43.773,80.192L33.261,80.192ZM46.23,57.255L52.344,57.255C53.509,57.256 54.626,57.72 55.45,58.544C56.274,59.368 56.737,60.485 56.739,61.65L56.739,80.192L46.23,80.192L46.23,57.255ZM2.461,42.674L22.404,42.674L22.404,80.192L2.461,80.192L2.461,42.674ZM87.539,87.501L2.461,87.501L2.461,82.653L87.539,82.653L87.539,87.501Z" fill="#FFFFFF"/>
<path d="M32.031,51.445L57.97,51.445C58.131,51.445 58.291,51.414 58.441,51.352C58.59,51.29 58.726,51.199 58.84,51.085C58.954,50.971 59.045,50.835 59.107,50.686C59.168,50.536 59.2,50.376 59.2,50.215L59.2,43.957C59.2,43.631 59.07,43.318 58.84,43.087C58.609,42.856 58.296,42.726 57.97,42.726L32.031,42.726C31.705,42.726 31.392,42.856 31.161,43.087C30.93,43.318 30.801,43.631 30.801,43.957L30.801,50.215C30.801,50.376 30.832,50.536 30.894,50.686C30.956,50.835 31.047,50.971 31.161,51.085C31.275,51.199 31.411,51.29 31.56,51.352C31.71,51.414 31.87,51.445 32.031,51.445ZM33.262,45.184L56.739,45.184L56.739,48.984L33.262,48.984L33.262,45.184Z" fill="#FFFFFF"/>
<path d="M32.031,39.402L57.97,39.402C58.296,39.402 58.609,39.272 58.84,39.041C59.07,38.811 59.2,38.498 59.2,38.171L59.2,31.91C59.2,31.584 59.07,31.271 58.84,31.04C58.609,30.809 58.296,30.68 57.97,30.68L32.031,30.68C31.705,30.68 31.392,30.809 31.161,31.04C30.93,31.271 30.801,31.584 30.801,31.91L30.801,38.171C30.801,38.498 30.93,38.811 31.161,39.041C31.392,39.272 31.705,39.402 32.031,39.402ZM33.262,33.141L56.739,33.141L56.739,36.941L33.262,36.941L33.262,33.141Z" fill="#FFFFFF"/>
<path d="M12.433,54.695C10.646,54.697 8.934,55.408 7.671,56.671C6.408,57.935 5.697,59.648 5.695,61.434L5.695,66.942C5.695,67.103 5.727,67.263 5.789,67.413C5.851,67.562 5.941,67.698 6.056,67.812C6.17,67.926 6.305,68.017 6.455,68.079C6.604,68.14 6.764,68.172 6.926,68.172L17.941,68.172C18.267,68.172 18.58,68.042 18.811,67.812C19.042,67.581 19.171,67.268 19.171,66.942L19.171,61.434C19.168,59.648 18.458,57.935 17.194,56.672C15.931,55.409 14.219,54.698 12.433,54.695ZM16.71,65.711L8.156,65.711L8.156,61.434C8.156,60.299 8.607,59.211 9.409,58.409C10.211,57.607 11.3,57.156 12.434,57.156C13.569,57.156 14.657,57.607 15.459,58.409C16.261,59.211 16.712,60.299 16.712,61.434L16.71,65.711Z" fill="#FFFFFF"/>
<path d="M72.059,68.172L83.075,68.172C83.237,68.172 83.397,68.14 83.546,68.079C83.695,68.017 83.831,67.926 83.945,67.812C84.06,67.698 84.15,67.562 84.212,67.413C84.274,67.263 84.306,67.103 84.306,66.942L84.306,61.434C84.306,59.647 83.596,57.933 82.332,56.669C81.068,55.405 79.354,54.695 77.567,54.695C75.78,54.695 74.066,55.405 72.802,56.669C71.538,57.933 70.828,59.647 70.828,61.434L70.828,66.942C70.828,67.268 70.958,67.581 71.189,67.812C71.419,68.042 71.732,68.172 72.059,68.172ZM73.289,61.434C73.289,60.299 73.74,59.211 74.542,58.409C75.344,57.607 76.432,57.156 77.567,57.156C78.701,57.156 79.79,57.607 80.592,58.409C81.394,59.211 81.845,60.299 81.845,61.434L81.845,65.711L73.289,65.711L73.289,61.434Z" fill="#FFFFFF"/>
</svg>
