<svg width="60" height="48" viewBox="0 0 60 48" fill="none" xmlns="http://www.w3.org/2000/svg" xmlns:xlink="http://www.w3.org/1999/xlink">
<path d="M59.18,41.956L54.082,41.956L54.082,15.699C54.082,15.557 54.046,15.418 53.977,15.295C53.907,15.172 53.807,15.069 53.686,14.996L30.425,0.923C30.297,0.846 30.15,0.805 30,0.805C29.85,0.805 29.703,0.846 29.575,0.923L6.314,14.997C6.193,15.07 6.093,15.173 6.023,15.296C5.954,15.42 5.918,15.559 5.918,15.7L5.918,41.957L0.82,41.957C0.713,41.957 0.606,41.979 0.506,42.02C0.407,42.061 0.316,42.122 0.24,42.198C0.164,42.274 0.103,42.365 0.062,42.465C0.021,42.564 0,42.671 0,42.779L0,46.529C0,46.746 0.086,46.955 0.24,47.109C0.394,47.263 0.603,47.349 0.82,47.349L59.18,47.349C59.397,47.349 59.606,47.263 59.76,47.109C59.914,46.955 60,46.746 60,46.529L60,42.779C60,42.671 59.979,42.564 59.938,42.464C59.897,42.364 59.837,42.274 59.761,42.197C59.684,42.121 59.594,42.06 59.494,42.019C59.394,41.977 59.288,41.956 59.18,41.956ZM7.559,33.638L22.031,33.638L22.031,37.337L7.559,37.337L7.559,33.638ZM23.672,25.028C23.673,24.003 24.081,23.02 24.806,22.295C25.531,21.57 26.514,21.162 27.539,21.161L29.18,21.161L29.18,29.535C29.179,31.758 28.684,33.953 27.731,35.962C26.779,37.971 25.392,39.743 23.672,41.151L23.672,25.028ZM52.441,37.338L37.969,37.338L37.969,33.638L52.441,33.638L52.441,37.338ZM36.328,41.151C34.607,39.743 33.221,37.971 32.268,35.962C31.316,33.953 30.821,31.758 30.82,29.535L30.82,21.161L32.461,21.161C33.486,21.162 34.469,21.57 35.194,22.295C35.919,23.02 36.327,24.003 36.328,25.028L36.328,41.151ZM25.48,41.751C27.559,39.827 29.115,37.407 30,34.716C30.92,37.501 32.552,39.998 34.734,41.958L25.266,41.958C25.339,41.888 25.406,41.818 25.48,41.751ZM37.969,38.979L52.441,38.979L52.441,41.956L37.969,41.956L37.969,38.979ZM30,2.583L52.441,16.161L52.441,31.997L37.969,31.997L37.969,25.028C37.967,23.568 37.386,22.168 36.354,21.135C35.321,20.103 33.921,19.522 32.461,19.52L27.539,19.52C26.079,19.522 24.679,20.103 23.646,21.135C22.614,22.168 22.033,23.568 22.031,25.028L22.031,31.997L7.559,31.997L7.559,16.161L30,2.583ZM7.559,38.979L22.031,38.979L22.031,41.956L7.559,41.956L7.559,38.979ZM58.359,45.706L1.641,45.706L1.641,43.597L58.359,43.597L58.359,45.706Z" fill="#FFFFFF"/>
<path d="M14.794,29.117C15.572,29.117 16.333,28.886 16.979,28.454C17.626,28.022 18.131,27.408 18.428,26.689C18.726,25.97 18.804,25.179 18.652,24.416C18.501,23.653 18.126,22.952 17.576,22.402C17.026,21.852 16.325,21.477 15.562,21.326C14.799,21.174 14.008,21.252 13.29,21.549C12.571,21.847 11.956,22.351 11.524,22.998C11.092,23.645 10.861,24.405 10.861,25.183C10.862,26.226 11.277,27.226 12.014,27.963C12.752,28.701 13.751,29.115 14.794,29.117ZM14.794,22.891C15.248,22.891 15.691,23.025 16.068,23.277C16.445,23.529 16.739,23.887 16.913,24.306C17.086,24.725 17.132,25.185 17.043,25.63C16.955,26.075 16.737,26.484 16.416,26.804C16.095,27.125 15.687,27.343 15.242,27.432C14.797,27.52 14.336,27.475 13.917,27.301C13.498,27.128 13.14,26.834 12.888,26.457C12.636,26.08 12.502,25.637 12.502,25.183C12.503,24.576 12.745,23.993 13.175,23.564C13.604,23.134 14.187,22.892 14.794,22.891Z" fill="#FFFFFF"/>
<path d="M30,16.945C30.778,16.945 31.539,16.714 32.186,16.282C32.832,15.849 33.337,15.235 33.634,14.516C33.932,13.797 34.01,13.007 33.858,12.244C33.706,11.481 33.331,10.78 32.781,10.23C32.231,9.68 31.53,9.305 30.767,9.154C30.004,9.002 29.213,9.08 28.494,9.378C27.775,9.676 27.161,10.18 26.729,10.827C26.297,11.474 26.067,12.235 26.067,13.013C26.068,14.055 26.483,15.055 27.221,15.792C27.958,16.529 28.958,16.944 30,16.945ZM30,10.719C30.454,10.719 30.897,10.853 31.274,11.105C31.651,11.357 31.945,11.715 32.118,12.134C32.292,12.553 32.337,13.013 32.249,13.458C32.161,13.903 31.942,14.311 31.622,14.632C31.301,14.953 30.893,15.171 30.448,15.26C30.004,15.348 29.543,15.303 29.124,15.13C28.705,14.957 28.347,14.663 28.095,14.286C27.842,13.909 27.708,13.466 27.708,13.013C27.708,12.405 27.95,11.822 28.38,11.392C28.81,10.962 29.392,10.72 30,10.719Z" fill="#FFFFFF"/>
<path d="M45.204,29.117C45.982,29.117 46.743,28.886 47.39,28.454C48.037,28.022 48.541,27.408 48.839,26.689C49.136,25.97 49.214,25.179 49.063,24.416C48.911,23.653 48.536,22.952 47.986,22.402C47.436,21.852 46.735,21.477 45.972,21.326C45.209,21.174 44.418,21.252 43.7,21.549C42.981,21.847 42.367,22.351 41.934,22.998C41.502,23.645 41.271,24.405 41.271,25.183C41.273,26.226 41.687,27.226 42.425,27.963C43.162,28.701 44.162,29.115 45.204,29.117ZM45.204,22.891C45.658,22.891 46.101,23.025 46.478,23.277C46.855,23.529 47.149,23.887 47.323,24.306C47.496,24.725 47.542,25.185 47.453,25.63C47.365,26.075 47.147,26.484 46.826,26.804C46.505,27.125 46.097,27.343 45.652,27.432C45.207,27.52 44.746,27.475 44.328,27.301C43.909,27.128 43.55,26.834 43.299,26.457C43.047,26.08 42.912,25.637 42.912,25.183C42.913,24.576 43.155,23.993 43.585,23.564C44.014,23.134 44.597,22.892 45.204,22.891Z" fill="#FFFFFF"/>
</svg>
