<svg width="40" height="42" viewBox="0 0 40 42" fill="none" xmlns="http://www.w3.org/2000/svg" xmlns:xlink="http://www.w3.org/1999/xlink">
<path d="M38.6,5.347C38.524,5.188 38.387,5.065 38.221,5.006L24.392,0.124C24.045,0.001 23.664,0.184 23.541,0.531L20.4,9.419L19.026,9.419L19.026,7.153C19.026,6.846 18.956,6.544 18.82,6.27C18.685,5.995 18.489,5.755 18.246,5.568C18.004,5.382 17.721,5.253 17.421,5.192C17.121,5.132 16.811,5.141 16.515,5.219L0.497,9.441L0.497,9.453C0.356,9.489 0.23,9.57 0.14,9.685C0.05,9.799 0.001,9.94 0,10.086L0,38.086C0,39.19 0.895,40.086 2,40.086L20.667,40.086C21.771,40.086 22.667,39.19 22.667,38.086L22.667,32.037L28.013,33.924C28.361,34.046 28.741,33.865 28.864,33.517L38.629,5.857C38.657,5.774 38.67,5.687 38.665,5.599C38.66,5.512 38.638,5.426 38.6,5.347L38.6,5.347ZM16.855,6.505C16.954,6.479 17.057,6.476 17.157,6.496C17.257,6.516 17.352,6.559 17.432,6.621C17.513,6.684 17.579,6.764 17.624,6.855C17.669,6.947 17.693,7.048 17.693,7.15L17.693,9.419L5.807,9.419L16.855,6.505ZM21.333,38.086C21.333,38.263 21.263,38.432 21.138,38.557C21.013,38.682 20.843,38.753 20.667,38.753L2,38.753C1.823,38.753 1.654,38.682 1.529,38.557C1.404,38.432 1.333,38.263 1.333,38.086L1.333,10.753L20.667,10.753C20.843,10.753 21.013,10.823 21.138,10.948C21.263,11.073 21.333,11.242 21.333,11.419L21.333,38.086ZM26.813,13.291L27.667,12.886L28.073,13.737L24.834,22.904C24.775,23.071 24.785,23.254 24.861,23.413L25.555,24.865L25.341,25.474L24.019,24.105C23.947,24.03 23.859,23.973 23.761,23.938C23.664,23.904 23.559,23.892 23.457,23.905L22.667,24.005L22.667,23.111L23.235,22.839C23.395,22.763 23.518,22.627 23.577,22.46L24.91,18.689L26.813,13.291ZM28.071,17.74L29.424,19.915L29.193,20.571L27.573,19.153L28.071,17.74ZM22.667,21.032L22.667,19.2L23.323,19.172L22.667,21.032ZM23.8,17.819L22.667,17.865L22.667,16.978L24.299,16.408L23.8,17.819ZM27.828,32.445L22.667,30.623L22.667,25.349L23.291,25.27L25.133,27.176C25.196,27.24 25.271,27.29 25.353,27.325C25.435,27.359 25.524,27.376 25.613,27.376C25.661,27.376 25.708,27.371 25.755,27.361C25.866,27.336 25.969,27.284 26.054,27.209C26.139,27.134 26.203,27.038 26.241,26.931L26.908,25.045C26.967,24.879 26.957,24.695 26.88,24.536L26.183,23.086L27.095,20.503L29.054,22.219C29.176,22.326 29.332,22.385 29.494,22.385C29.55,22.385 29.607,22.377 29.662,22.363C29.767,22.335 29.864,22.282 29.945,22.208C30.025,22.135 30.086,22.043 30.122,21.94L30.789,20.054C30.822,19.96 30.834,19.859 30.823,19.76C30.812,19.661 30.779,19.565 30.726,19.48L28.639,16.128L29.421,13.915C29.45,13.833 29.462,13.745 29.458,13.658C29.453,13.57 29.431,13.484 29.393,13.405L28.58,11.705C28.542,11.626 28.489,11.555 28.424,11.496C28.359,11.438 28.283,11.393 28.201,11.363C28.118,11.334 28.03,11.322 27.943,11.326C27.855,11.331 27.77,11.353 27.691,11.391L25.989,12.204C25.91,12.242 25.84,12.295 25.781,12.36C25.723,12.425 25.678,12.501 25.649,12.583L24.867,14.798L22.667,15.566L22.667,11.419C22.666,11.078 22.578,10.743 22.41,10.446C22.243,10.148 22.002,9.899 21.711,9.721L22.8,6.632L23.045,5.939L24.578,1.605L37.151,6.043L27.828,32.445Z" fill="#2437AC"/>
<path d="M33.088,10.266L33.532,9.009L34.675,9.412L34.231,10.67L33.088,10.266ZM23.944,7.038L24.388,5.781L25.531,6.185L25.087,7.442L23.944,7.038ZM30.802,9.459L31.246,8.202L32.389,8.606L31.945,9.863L30.802,9.459ZM26.23,7.845L26.674,6.588L27.817,6.992L27.373,8.249L26.23,7.845ZM28.516,8.652L28.96,7.395L30.103,7.798L29.659,9.055L28.516,8.652ZM11.026,13.422C7.344,13.422 4.359,16.406 4.359,20.088C4.359,23.77 7.344,26.755 11.026,26.755C14.708,26.755 17.693,23.77 17.693,20.088C17.689,16.408 14.706,13.426 11.026,13.422ZM15.84,17.809L14.931,17.609C14.531,17.521 14.13,17.451 13.726,17.39C13.666,16.987 13.593,16.585 13.507,16.186L13.307,15.277C14.417,15.805 15.311,16.699 15.84,17.809ZM5.693,20.088C5.694,19.816 5.716,19.544 5.759,19.274L7.408,18.908C7.661,18.852 7.915,18.805 8.171,18.761C8.106,19.645 8.106,20.532 8.171,21.416C7.915,21.372 7.661,21.325 7.408,21.269L5.759,20.902C5.716,20.633 5.694,20.361 5.693,20.088L5.693,20.088ZM9.523,18.586C10.523,18.497 11.528,18.497 12.527,18.586C12.617,19.586 12.617,20.591 12.527,21.59C11.528,21.68 10.523,21.68 9.523,21.59C9.434,20.591 9.434,19.586 9.523,18.586ZM13.879,18.761C14.134,18.805 14.389,18.852 14.641,18.908L16.29,19.274C16.382,19.813 16.382,20.364 16.29,20.902L14.641,21.269C14.389,21.325 14.134,21.372 13.879,21.416C13.943,20.533 13.943,19.645 13.879,18.761ZM11.839,14.822L12.206,16.471C12.262,16.724 12.309,16.978 12.354,17.234C11.469,17.169 10.582,17.169 9.698,17.234C9.742,16.978 9.789,16.724 9.845,16.471L10.212,14.822C10.751,14.73 11.301,14.73 11.839,14.822ZM8.746,15.272L8.546,16.182C8.458,16.582 8.388,16.982 8.327,17.386C7.924,17.446 7.522,17.519 7.123,17.604L6.214,17.804C6.743,16.696 7.637,15.803 8.746,15.274L8.746,15.272ZM6.212,22.366L7.122,22.566C7.522,22.654 7.922,22.724 8.326,22.784C8.386,23.188 8.459,23.589 8.544,23.988L8.745,24.898C7.635,24.37 6.74,23.476 6.211,22.368L6.212,22.366ZM10.212,25.351L9.846,23.702C9.789,23.45 9.743,23.194 9.698,22.94C10.14,22.972 10.583,22.994 11.027,22.994C11.47,22.994 11.912,22.972 12.354,22.94C12.31,23.194 12.263,23.45 12.207,23.702L11.84,25.351C11.301,25.442 10.751,25.442 10.212,25.351ZM13.306,24.9L13.506,23.991C13.595,23.591 13.664,23.191 13.725,22.787C14.129,22.726 14.53,22.654 14.929,22.568L15.838,22.368C15.31,23.479 14.416,24.374 13.305,24.902L13.306,24.9ZM5.693,32.088L16.359,32.088L16.359,33.422L5.693,33.422L5.693,32.088ZM7.026,34.755L15.026,34.755L15.026,36.088L7.026,36.088L7.026,34.755ZM10.359,29.422L11.693,29.422L11.693,30.755L10.359,30.755L10.359,29.422ZM7.693,29.422L9.026,29.422L9.026,30.755L7.693,30.755L7.693,29.422ZM13.026,29.422L14.359,29.422L14.359,30.755L13.026,30.755L13.026,29.422Z" fill="#2437AC"/>
</svg>
