<svg width="130" height="130" viewBox="0 0 130 130" fill="none" xmlns="http://www.w3.org/2000/svg" xmlns:xlink="http://www.w3.org/1999/xlink">
<path d="M114.748,77.782C119.025,65.18 118.911,51.502 114.427,38.972C109.943,26.443 101.351,15.799 90.05,8.772C78.748,1.745 65.402,-1.252 52.181,0.269C38.96,1.79 26.643,7.74 17.233,17.15C7.823,26.56 1.873,38.877 0.352,52.098C-1.17,65.318 1.826,78.665 8.853,89.966C15.88,101.268 26.523,109.86 39.053,114.345C51.582,118.829 65.26,118.943 77.863,114.667C79.807,118.573 82.652,121.961 86.164,124.55C89.675,127.14 93.753,128.857 98.059,129.559C102.365,130.262 106.776,129.931 110.929,128.592C115.082,127.254 118.857,124.947 121.942,121.862C125.027,118.777 127.334,115.002 128.673,110.849C130.012,106.696 130.343,102.285 129.64,97.979C128.938,93.672 127.221,89.595 124.631,86.084C122.042,82.572 118.654,79.726 114.748,77.782ZM111.465,76.401C104.705,74.057 97.298,74.448 90.822,77.49L93.427,72.943C93.581,72.674 93.662,72.369 93.662,72.059L93.662,63.655L99.185,57.974C99.508,57.642 99.688,57.197 99.688,56.734L99.688,49.504C99.688,49.116 99.56,48.739 99.326,48.43C99.091,48.121 98.761,47.897 98.388,47.793L88.638,45.075L85.032,38.021C84.904,37.771 84.719,37.555 84.492,37.391C84.266,37.226 84.003,37.118 83.726,37.074L69.903,34.9L69.903,33.543L88.562,29.413L95.535,36.38C95.868,36.714 96.32,36.901 96.792,36.901L109.772,36.901C115.183,49.408 115.786,63.473 111.465,76.397L111.465,76.401ZM108.071,33.351L97.527,33.351L90.39,26.211C90.179,26 89.918,25.845 89.632,25.762C89.345,25.678 89.042,25.667 88.75,25.732L67.742,30.38C67.347,30.468 66.994,30.687 66.741,31.003C66.487,31.318 66.349,31.71 66.349,32.115L66.349,36.419C66.349,36.842 66.5,37.252 66.775,37.573C67.05,37.895 67.431,38.108 67.85,38.174L82.279,40.443L85.826,47.386C85.938,47.604 86.094,47.798 86.284,47.953C86.474,48.108 86.695,48.223 86.931,48.289L96.133,50.853L96.133,56.012L90.61,61.694C90.287,62.026 90.107,62.47 90.107,62.933L90.107,71.585L84.239,81.832C81.864,83.938 79.869,86.437 78.34,89.219L74.379,89.219L74.379,83.594C74.379,83.347 74.328,83.104 74.229,82.878C74.13,82.653 73.985,82.45 73.803,82.284L66.117,75.236L66.117,67.064C66.117,66.7 66.005,66.344 65.795,66.045C65.586,65.746 65.29,65.519 64.947,65.395L49.071,59.622L49.071,46.419L59.444,35.217C59.612,35.036 59.741,34.821 59.821,34.588C59.902,34.354 59.932,34.106 59.911,33.859C59.891,33.613 59.818,33.373 59.7,33.156C59.581,32.939 59.418,32.75 59.222,32.599L49.734,25.321L57.51,14.352L73.377,14.352C73.848,14.352 74.3,14.165 74.633,13.831L80.583,7.883C92.411,12.944 102.124,21.942 108.071,33.351ZM23.184,16.609L27.646,25.802L24.053,27.599C23.876,27.687 23.716,27.804 23.578,27.946L15.142,36.553C14.909,36.791 14.747,37.089 14.675,37.414C14.603,37.74 14.624,38.078 14.736,38.392L15.945,41.793C14.559,42.647 13.303,43.698 12.217,44.912L5.05,46.118C7.788,34.598 14.143,24.256 23.184,16.609ZM3.568,59.373L9.39,59.373L24.081,64.899L31.597,77.623L31.597,82.715L29.395,86.059C29.154,86.424 29.056,86.866 29.121,87.299C29.186,87.733 29.408,88.127 29.745,88.406L30.304,88.867L24.973,92.054C24.709,92.211 24.491,92.434 24.34,92.701C24.188,92.968 24.108,93.27 24.108,93.577L24.108,101.868C17.76,96.739 12.627,90.269 9.076,82.922C5.524,75.575 3.643,67.533 3.568,59.373ZM58.937,114.238C47.765,114.248 36.855,110.86 27.655,104.523C27.655,104.5 27.661,104.479 27.661,104.457L27.661,94.588L34.285,90.627C34.53,90.481 34.736,90.279 34.886,90.037C35.036,89.795 35.125,89.52 35.147,89.237C35.169,88.953 35.122,88.668 35.01,88.406C34.899,88.144 34.726,87.913 34.507,87.731L33.239,86.682L34.857,84.226C35.049,83.936 35.151,83.596 35.151,83.248L35.151,77.136C35.151,76.819 35.066,76.507 34.904,76.233L26.824,62.553C26.617,62.204 26.298,61.936 25.919,61.793L10.339,55.932C10.139,55.857 9.927,55.818 9.713,55.818L3.641,55.818C3.753,53.818 3.972,51.825 4.298,49.849L13.439,48.311C13.861,48.24 14.243,48.019 14.515,47.688C15.721,46.229 17.221,45.04 18.918,44.201C19.306,44.007 19.61,43.677 19.772,43.275C19.935,42.872 19.944,42.424 19.799,42.015L18.458,38.245L25.908,30.643L30.807,28.193C31.225,27.984 31.544,27.618 31.695,27.175C31.845,26.732 31.815,26.248 31.611,25.827L26.033,14.341C33.243,8.995 41.646,5.486 50.517,4.119C59.388,2.752 68.458,3.567 76.943,6.496L72.64,10.798L56.59,10.798C56.306,10.798 56.027,10.866 55.774,10.996C55.522,11.127 55.305,11.316 55.14,11.547L45.844,24.662C45.578,25.037 45.468,25.501 45.537,25.955C45.606,26.41 45.848,26.82 46.213,27.1L55.511,34.231L45.99,44.505C45.686,44.834 45.516,45.266 45.516,45.714L45.516,60.867C45.516,61.232 45.628,61.588 45.838,61.886C46.047,62.185 46.343,62.412 46.686,62.537L62.562,68.31L62.562,76.018C62.562,76.265 62.614,76.508 62.713,76.734C62.812,76.959 62.957,77.162 63.138,77.328L70.825,84.375L70.825,90.997C70.825,91.468 71.013,91.92 71.346,92.253C71.679,92.587 72.131,92.774 72.603,92.774L76.713,92.774C74.47,98.761 74.388,105.344 76.483,111.385C70.826,113.277 64.901,114.24 58.937,114.238ZM102.485,126.365C97.745,126.365 93.112,124.96 89.172,122.327C85.231,119.694 82.16,115.952 80.346,111.573C78.532,107.195 78.058,102.377 78.982,97.729C79.907,93.08 82.189,88.811 85.54,85.46C88.891,82.108 93.161,79.826 97.809,78.902C102.457,77.977 107.275,78.452 111.654,80.266C116.032,82.079 119.774,85.151 122.407,89.091C125.04,93.032 126.445,97.665 126.445,102.404C126.438,108.757 123.911,114.847 119.419,119.339C114.927,123.831 108.837,126.357 102.485,126.365Z" fill="#FFFFFF"/>
<path d="M121.514,92.357L119.254,90.096C118.152,88.994 116.657,88.375 115.098,88.375C113.54,88.375 112.045,88.994 110.942,90.096L106.201,94.836L98.117,92.965C97.032,92.71 95.9,92.737 94.829,93.044C93.758,93.351 92.783,93.927 91.998,94.718L90.13,96.586C89.925,96.791 89.773,97.042 89.688,97.319C89.602,97.595 89.586,97.888 89.639,98.173C89.693,98.457 89.815,98.724 89.996,98.951C90.176,99.177 90.409,99.356 90.675,99.472L98.256,102.783L95.27,105.768L88.17,106.426C87.758,106.462 87.371,106.642 87.077,106.933L83.453,110.556C83.235,110.775 83.077,111.048 82.996,111.347C82.915,111.645 82.913,111.96 82.991,112.26C83.069,112.56 83.223,112.834 83.44,113.055C83.656,113.277 83.927,113.438 84.224,113.523L93.093,116.046C94.802,116.532 96.61,116.553 98.33,116.106C100.05,115.66 101.619,114.762 102.876,113.507L121.514,94.869C121.679,94.704 121.81,94.508 121.9,94.293C121.989,94.077 122.035,93.846 122.035,93.613C122.035,93.379 121.989,93.148 121.9,92.932C121.81,92.717 121.679,92.522 121.514,92.357ZM100.363,110.994C99.554,111.803 98.544,112.381 97.437,112.668C96.33,112.956 95.166,112.943 94.066,112.63L88.108,110.936L89.138,109.906L96.238,109.247C96.651,109.211 97.037,109.031 97.331,108.739L102.612,103.458C102.817,103.253 102.968,103.002 103.054,102.726C103.139,102.449 103.156,102.156 103.102,101.872C103.048,101.587 102.926,101.321 102.745,101.094C102.565,100.868 102.332,100.689 102.067,100.574L94.486,97.262L94.513,97.235C94.872,96.873 95.318,96.609 95.809,96.468C96.3,96.328 96.818,96.316 97.315,96.433L106.361,98.527C106.655,98.595 106.961,98.587 107.251,98.504C107.541,98.421 107.804,98.265 108.017,98.052L113.456,92.615C113.898,92.192 114.486,91.956 115.098,91.956C115.71,91.956 116.299,92.192 116.741,92.615L117.744,93.619L100.363,110.994Z" fill="#FFFFFF"/>
</svg>
