<svg width="40" height="42" viewBox="0 0 40 42" fill="none" xmlns="http://www.w3.org/2000/svg" xmlns:xlink="http://www.w3.org/1999/xlink">
<path d="M38.598,5.34C38.522,5.18 38.385,5.057 38.219,4.998L24.39,0.116C24.043,-0.006 23.662,0.176 23.539,0.523L20.398,9.412L19.024,9.412L19.024,7.145C19.024,6.839 18.954,6.537 18.819,6.262C18.683,5.987 18.487,5.747 18.244,5.561C18.002,5.374 17.719,5.245 17.419,5.185C17.119,5.124 16.809,5.134 16.513,5.212L0.495,9.434L0.495,9.446C0.354,9.481 0.228,9.563 0.138,9.677C0.048,9.792 -0.001,9.933 -0.002,10.078L-0.002,38.078C-0.002,39.183 0.894,40.078 1.998,40.078L20.665,40.078C21.769,40.078 22.665,39.183 22.665,38.078L22.665,32.029L28.011,33.917C28.359,34.039 28.739,33.857 28.862,33.51L38.627,5.849C38.655,5.767 38.668,5.679 38.663,5.592C38.658,5.504 38.636,5.419 38.598,5.34L38.598,5.34ZM16.853,6.497C16.952,6.471 17.055,6.468 17.155,6.489C17.256,6.509 17.35,6.552 17.431,6.614C17.511,6.676 17.577,6.756 17.622,6.848C17.667,6.939 17.691,7.04 17.691,7.142L17.691,9.412L5.805,9.412L16.853,6.497ZM21.331,38.078C21.331,38.255 21.261,38.425 21.136,38.55C21.011,38.675 20.841,38.745 20.665,38.745L1.998,38.745C1.821,38.745 1.652,38.675 1.527,38.55C1.402,38.425 1.331,38.255 1.331,38.078L1.331,10.745L20.665,10.745C20.841,10.745 21.011,10.815 21.136,10.94C21.261,11.065 21.331,11.235 21.331,11.412L21.331,38.078ZM26.811,13.283L27.665,12.878L28.071,13.729L24.832,22.896C24.773,23.063 24.783,23.246 24.859,23.406L25.553,24.858L25.339,25.466L24.017,24.097C23.945,24.022 23.857,23.965 23.759,23.931C23.662,23.896 23.557,23.884 23.455,23.897L22.665,23.997L22.665,23.104L23.233,22.832C23.393,22.755 23.516,22.619 23.575,22.452L24.908,18.682L26.811,13.283ZM28.069,17.733L29.422,19.908L29.191,20.563L27.571,19.145L28.069,17.733ZM22.665,21.024L22.665,19.192L23.321,19.165L22.665,21.024ZM23.798,17.811L22.665,17.858L22.665,16.97L24.297,16.401L23.798,17.811ZM27.826,32.437L22.665,30.615L22.665,25.341L23.289,25.263L25.131,27.168C25.194,27.232 25.269,27.283 25.351,27.317C25.433,27.351 25.522,27.369 25.611,27.368C25.659,27.369 25.706,27.363 25.753,27.353C25.864,27.329 25.967,27.277 26.052,27.202C26.137,27.126 26.201,27.031 26.239,26.924L26.906,25.038C26.965,24.871 26.955,24.688 26.878,24.528L26.181,23.078L27.093,20.495L29.052,22.212C29.174,22.318 29.33,22.377 29.492,22.377C29.548,22.377 29.605,22.37 29.66,22.355C29.765,22.327 29.862,22.275 29.943,22.201C30.023,22.127 30.084,22.035 30.12,21.933L30.787,20.046C30.82,19.952 30.832,19.852 30.821,19.752C30.81,19.653 30.777,19.557 30.724,19.472L28.637,16.12L29.419,13.908C29.448,13.825 29.46,13.738 29.456,13.65C29.451,13.562 29.429,13.477 29.391,13.398L28.578,11.697C28.54,11.618 28.487,11.547 28.422,11.489C28.357,11.43 28.281,11.385 28.199,11.356C28.116,11.327 28.028,11.314 27.941,11.319C27.853,11.323 27.768,11.345 27.689,11.383L25.987,12.196C25.908,12.234 25.838,12.287 25.779,12.352C25.721,12.417 25.676,12.493 25.647,12.576L24.865,14.791L22.665,15.558L22.665,11.412C22.664,11.07 22.576,10.735 22.408,10.438C22.241,10.141 22,9.891 21.709,9.714L22.798,6.624L23.043,5.931L24.576,1.598L37.149,6.036L27.826,32.437Z" fill="#2437AC"/>
<path d="M33.086,10.259L33.53,9.001L34.673,9.405L34.229,10.662L33.086,10.259ZM23.942,7.031L24.386,5.773L25.529,6.177L25.085,7.434L23.942,7.031ZM30.8,9.452L31.244,8.194L32.387,8.598L31.943,9.855L30.8,9.452ZM26.228,7.838L26.672,6.581L27.815,6.984L27.371,8.242L26.228,7.838ZM28.514,8.644L28.958,7.387L30.101,7.791L29.657,9.048L28.514,8.644ZM11.024,13.414C7.342,13.414 4.357,16.399 4.357,20.081C4.357,23.763 7.342,26.747 11.024,26.747C14.706,26.747 17.691,23.763 17.691,20.081C17.687,16.401 14.704,13.418 11.024,13.414ZM15.838,17.801L14.929,17.601C14.529,17.513 14.128,17.443 13.724,17.383C13.664,16.979 13.591,16.578 13.505,16.179L13.305,15.269C14.415,15.798 15.309,16.692 15.838,17.801ZM5.691,20.081C5.692,19.808 5.714,19.536 5.757,19.267L7.406,18.9C7.659,18.844 7.913,18.797 8.169,18.753C8.104,19.637 8.104,20.524 8.169,21.408C7.913,21.364 7.659,21.317 7.406,21.261L5.757,20.895C5.714,20.626 5.692,20.353 5.691,20.081L5.691,20.081ZM9.522,18.579C10.521,18.49 11.526,18.49 12.525,18.579C12.615,19.578 12.615,20.583 12.525,21.583C11.526,21.672 10.521,21.672 9.521,21.583C9.432,20.583 9.432,19.578 9.522,18.579ZM13.877,18.753C14.132,18.797 14.387,18.844 14.639,18.9L16.288,19.267C16.38,19.806 16.38,20.356 16.288,20.895L14.639,21.261C14.387,21.317 14.132,21.364 13.877,21.409C13.941,20.525 13.941,19.637 13.877,18.753ZM11.837,14.814L12.204,16.463C12.26,16.716 12.307,16.971 12.352,17.226C11.468,17.161 10.58,17.161 9.696,17.226C9.74,16.971 9.787,16.716 9.843,16.463L10.21,14.814C10.749,14.723 11.299,14.723 11.837,14.814ZM8.744,15.265L8.544,16.174C8.456,16.574 8.386,16.974 8.326,17.378C7.922,17.439 7.52,17.511 7.121,17.597L6.212,17.797C6.741,16.688 7.635,15.795 8.744,15.267L8.744,15.265ZM6.211,22.358L7.12,22.558C7.52,22.646 7.92,22.716 8.324,22.777C8.384,23.18 8.457,23.582 8.543,23.981L8.743,24.89C7.633,24.362 6.739,23.469 6.209,22.36L6.211,22.358ZM10.211,25.343L9.844,23.694C9.787,23.442 9.741,23.187 9.696,22.932C10.138,22.964 10.581,22.986 11.025,22.986C11.468,22.986 11.91,22.964 12.352,22.932C12.308,23.187 12.261,23.442 12.205,23.694L11.838,25.343C11.299,25.435 10.749,25.435 10.211,25.343ZM13.304,24.893L13.504,23.983C13.593,23.583 13.662,23.183 13.723,22.779C14.127,22.719 14.528,22.646 14.927,22.561L15.836,22.361C15.308,23.471 14.414,24.366 13.303,24.895L13.304,24.893ZM5.691,32.081L16.357,32.081L16.357,33.414L5.691,33.414L5.691,32.081ZM7.024,34.747L15.024,34.747L15.024,36.081L7.024,36.081L7.024,34.747ZM10.357,29.414L11.691,29.414L11.691,30.747L10.357,30.747L10.357,29.414ZM7.691,29.414L9.024,29.414L9.024,30.747L7.691,30.747L7.691,29.414ZM13.024,29.414L14.357,29.414L14.357,30.747L13.024,30.747L13.024,29.414Z" fill="#2437AC"/>
</svg>
