<svg width="92" height="90" viewBox="0 0 92 90" fill="none" xmlns="http://www.w3.org/2000/svg" xmlns:xlink="http://www.w3.org/1999/xlink">
<path d="M22.05,56.481C19.694,66.061 19.849,75.286 19.566,85.003C19.512,86.9 21.002,88.478 22.894,88.535C24.787,88.592 26.367,87.095 26.423,85.197C26.69,75.983 26.474,67.215 28.71,58.116C29.163,56.276 28.037,54.412 26.199,53.966C24.362,53.509 22.502,54.641 22.05,56.481Z" clip-rule="evenodd" fill-rule="evenodd" transform="rotate(180 24.188 71.201)" fill="#E3DBD8"/>
<path d="M47.313,2.631C31.33,17.24 16.27,36.033 5.744,55.009C4.826,56.667 5.424,58.759 7.079,59.674C8.734,60.588 10.824,59.994 11.742,58.336C21.921,39.989 36.485,21.813 51.94,7.695C53.337,6.415 53.435,4.243 52.158,2.848C50.881,1.453 48.71,1.351 47.313,2.631Z" clip-rule="evenodd" fill-rule="evenodd" transform="rotate(180 29.184 30.918)" fill="#E3DBD8"/>
<path d="M87.815,17.217C73.197,14.805 58.129,18.92 44.837,24.739C43.103,25.505 42.312,27.528 43.069,29.254C43.828,30.992 45.853,31.78 47.587,31.026C59.693,25.722 73.384,21.789 86.699,23.984C88.566,24.293 90.333,23.024 90.64,21.161C90.949,19.297 89.682,17.526 87.815,17.217Z" clip-rule="evenodd" fill-rule="evenodd" transform="rotate(180 66.734 23.913)" fill="#E3DBD8"/>
</svg>
