<svg width="80" height="90" viewBox="0 0 80 90" fill="none" xmlns="http://www.w3.org/2000/svg" xmlns:xlink="http://www.w3.org/1999/xlink">
<path d="M68.647,54.135C68.722,53.178 68.772,52.227 68.772,51.305L68.772,15.293C68.772,15.05 68.7,14.813 68.566,14.611C68.431,14.409 68.24,14.252 68.016,14.158L34.399,0.096C34.248,0.033 34.087,0 33.924,0C33.76,0 33.599,0.033 33.449,0.096L-0.168,14.158C-0.392,14.252 -0.584,14.409 -0.718,14.611C-0.853,14.813 -0.924,15.05 -0.924,15.293L-0.924,51.305C-0.936,58.483 1.181,65.503 5.158,71.478C9.136,77.452 14.795,82.114 21.422,84.873L33.45,89.904C33.6,89.967 33.762,90 33.925,90C34.088,90 34.25,89.967 34.4,89.904L46.429,84.873C46.615,84.795 46.795,84.71 46.979,84.63C48.941,86.501 51.282,87.929 53.845,88.816C56.407,89.702 59.13,90.027 61.829,89.769C64.528,89.51 67.14,88.674 69.487,87.316C71.834,85.959 73.862,84.113 75.433,81.902C77.003,79.692 78.08,77.17 78.59,74.507C79.099,71.844 79.03,69.102 78.386,66.468C77.743,63.834 76.54,61.37 74.86,59.242C73.18,57.114 71.061,55.372 68.648,54.135L68.647,54.135ZM33.924,87.436L22.37,82.603C16.192,80.03 10.916,75.684 7.208,70.113C3.499,64.542 1.526,57.997 1.537,51.305L1.537,16.112L33.924,2.564L66.311,16.112L66.311,51.305C66.311,51.894 66.292,52.5 66.258,53.105C64.794,52.591 63.271,52.26 61.725,52.121C61.734,51.844 61.741,51.57 61.741,51.303L61.741,19.974C61.741,19.731 61.669,19.494 61.535,19.292C61.4,19.09 61.209,18.932 60.985,18.838L34.399,7.718C34.248,7.655 34.087,7.622 33.924,7.622C33.76,7.622 33.599,7.655 33.449,7.718L6.862,18.838C6.638,18.932 6.447,19.09 6.313,19.292C6.179,19.494 6.107,19.731 6.107,19.974L6.107,51.305C6.098,57.095 7.805,62.759 11.014,67.579C14.222,72.4 18.788,76.16 24.134,78.386L33.449,82.282C33.599,82.346 33.76,82.378 33.924,82.378C34.087,82.378 34.248,82.346 34.399,82.282L42.802,78.767C43.445,80.175 44.257,81.499 45.222,82.709L33.924,87.436ZM41.104,70.951C41.103,72.82 41.381,74.679 41.927,76.466L33.924,79.814L25.084,76.116C20.186,74.077 16.003,70.631 13.063,66.215C10.123,61.799 8.559,56.61 8.568,51.305L8.568,20.793L33.924,10.186L59.28,20.793L59.28,51.308C59.28,51.554 59.274,51.807 59.266,52.064C54.387,52.262 49.773,54.337 46.389,57.857C43.005,61.377 41.111,66.068 41.104,70.951ZM50.434,84.31L50.434,82.8C50.436,81.076 51.122,79.422 52.341,78.203C53.56,76.984 55.214,76.298 56.938,76.296L63.09,76.296C64.815,76.298 66.468,76.984 67.687,78.203C68.906,79.422 69.592,81.076 69.594,82.8L69.594,84.31C66.804,86.319 63.452,87.4 60.014,87.4C56.576,87.4 53.224,86.319 50.434,84.31ZM72.023,82.175C71.864,79.914 70.854,77.797 69.198,76.25C67.541,74.703 65.36,73.841 63.094,73.836L56.941,73.836C54.675,73.84 52.494,74.703 50.837,76.25C49.181,77.797 48.171,79.914 48.012,82.175C45.82,79.833 44.361,76.903 43.814,73.743C43.266,70.583 43.654,67.332 44.93,64.39C46.207,61.447 48.315,58.942 50.996,57.183C53.677,55.423 56.814,54.486 60.021,54.486C63.228,54.486 66.365,55.423 69.046,57.183C71.727,58.942 73.836,61.447 75.112,64.39C76.388,67.332 76.776,70.583 76.229,73.743C75.681,76.903 74.222,79.833 72.03,82.175L72.023,82.175Z" fill="#00B8FF"/>
<path d="M60.013,58.011C58.632,57.934 57.26,58.273 56.074,58.985C54.888,59.696 53.942,60.747 53.36,62.002C52.778,63.256 52.586,64.657 52.808,66.022C53.031,67.387 53.658,68.654 54.608,69.659C55.558,70.664 56.789,71.36 58.139,71.658C59.49,71.957 60.899,71.843 62.184,71.331C63.469,70.82 64.571,69.934 65.347,68.79C66.124,67.645 66.539,66.294 66.539,64.911C66.585,63.131 65.924,61.406 64.701,60.113C63.478,58.82 61.792,58.064 60.013,58.011ZM60.013,69.349C59.119,69.428 58.221,69.234 57.439,68.794C56.656,68.354 56.024,67.688 55.627,66.883C55.229,66.078 55.084,65.171 55.211,64.282C55.338,63.393 55.73,62.563 56.336,61.901C56.943,61.239 57.735,60.775 58.61,60.571C59.484,60.367 60.4,60.432 61.237,60.757C62.074,61.083 62.793,61.654 63.3,62.395C63.807,63.136 64.078,64.013 64.078,64.911C64.125,66.038 63.723,67.138 62.962,67.97C62.2,68.802 61.14,69.299 60.013,69.352L60.013,69.349Z" fill="#00B8FF"/>
<path d="M33.924,19.891C30.842,19.891 27.829,20.805 25.267,22.517C22.704,24.229 20.707,26.663 19.527,29.51C18.348,32.358 18.039,35.491 18.641,38.514C19.242,41.536 20.726,44.313 22.905,46.492C25.085,48.671 27.861,50.155 30.884,50.757C33.907,51.358 37.04,51.049 39.887,49.87C42.735,48.691 45.168,46.693 46.881,44.131C48.593,41.568 49.507,38.555 49.507,35.474C49.502,31.342 47.859,27.381 44.938,24.46C42.016,21.539 38.055,19.896 33.924,19.891ZM45.778,41.062L41.826,41.062C42.113,39.625 42.285,38.167 42.34,36.703L46.981,36.703C46.838,38.215 46.431,39.69 45.778,41.062ZM22.07,29.882L26.022,29.882C25.735,31.32 25.563,32.777 25.507,34.242L20.866,34.242C21.01,32.729 21.417,31.254 22.07,29.882ZM35.154,27.421L35.154,22.689C36.437,23.359 37.679,25.027 38.573,27.423L35.154,27.421ZM39.303,29.882C39.623,31.315 39.815,32.774 39.876,34.242L35.154,34.242L35.154,29.882L39.303,29.882ZM32.694,22.688L32.694,27.421L29.275,27.421C30.169,25.031 31.411,23.359 32.694,22.689L32.694,22.688ZM32.694,29.882L32.694,34.242L27.972,34.242C28.032,32.774 28.224,31.315 28.545,29.882L32.694,29.882ZM20.865,36.703L25.505,36.703C25.562,38.167 25.734,39.625 26.02,41.062L22.069,41.062C21.416,39.69 21.008,38.215 20.865,36.703ZM27.972,36.703L32.694,36.703L32.694,41.062L28.545,41.062C28.224,39.629 28.032,38.17 27.972,36.703ZM32.694,43.523L32.694,48.256C31.411,47.588 30.169,45.918 29.274,43.523L32.694,43.523ZM35.154,48.256L35.154,43.523L38.573,43.523C37.679,45.919 36.437,47.588 35.154,48.256ZM35.154,41.062L35.154,36.703L39.876,36.703C39.815,38.17 39.623,39.629 39.303,41.062L35.154,41.062ZM42.34,34.242C42.285,32.777 42.113,31.319 41.826,29.882L45.778,29.882C46.431,31.254 46.839,32.729 46.983,34.242L42.34,34.242ZM44.263,27.421L41.189,27.421C40.769,26.072 40.178,24.781 39.432,23.58C41.324,24.46 42.979,25.776 44.263,27.421ZM28.413,23.582C27.668,24.782 27.078,26.072 26.659,27.421L23.585,27.421C24.868,25.777 26.523,24.462 28.413,23.582ZM23.585,43.523L26.659,43.523C27.078,44.872 27.668,46.163 28.413,47.364C26.522,46.484 24.867,45.167 23.585,43.523ZM39.434,47.365C40.181,46.164 40.772,44.873 41.192,43.523L44.266,43.523C42.983,45.168 41.326,46.484 39.434,47.365Z" fill="#00B8FF"/>
</svg>
