<svg width="106" height="20" viewBox="0 0 106 20" fill="none" xmlns="http://www.w3.org/2000/svg" xmlns:xlink="http://www.w3.org/1999/xlink">
<path d="M94.421,4.29C92.821,4.737 91.177,5.004 89.518,5.087L76.151,6.536C73.127,6.881 70.145,7.526 67.248,8.462C65.67,8.994 64.151,9.688 62.717,10.535C61.165,11.581 59.55,12.531 57.881,13.379C56.875,13.849 55.776,14.086 54.665,14.07C53.443,13.998 52.287,13.489 51.41,12.635C49.722,10.894 49.257,8.781 48.154,7.426C47.698,6.76 47.012,6.287 46.228,6.097C45.387,5.911 44.511,5.971 43.703,6.27C41.89,6.929 40.37,8.21 39.411,9.884C38.255,11.598 37.352,13.551 36.036,15.385C34.756,17.355 32.859,18.846 30.642,19.624C29.478,19.956 28.245,19.956 27.081,19.624C25.978,19.297 24.962,18.729 24.104,17.963C22.572,16.556 21.377,14.821 20.61,12.887C19.839,11.106 19.281,9.379 18.51,7.864C17.627,5.794 16.022,4.114 13.994,3.137C11.966,2.159 9.652,1.951 7.482,2.549C6.329,2.84 5.252,3.373 4.321,4.113C3.391,4.853 2.63,5.783 2.087,6.841C1.22,8.474 0.807,10.309 0.891,12.156C0.925,13.339 1.177,14.506 1.636,15.598C1.941,16.368 2.154,16.754 2.087,16.807C2.021,16.86 1.702,16.528 1.25,15.797C0.598,14.707 0.194,13.487 0.068,12.223C-0.187,10.201 0.145,8.148 1.024,6.31C1.6,5.059 2.438,3.947 3.481,3.048C4.524,2.149 5.748,1.485 7.07,1.101C8.685,0.63 10.384,0.526 12.045,0.797C13.705,1.069 15.283,1.708 16.663,2.669C18.166,3.792 19.37,5.265 20.171,6.961C21.035,8.622 21.646,10.376 22.404,12.037C23.072,13.691 24.108,15.173 25.433,16.368C26.038,16.95 26.783,17.363 27.597,17.568C28.41,17.773 29.263,17.763 30.07,17.538C31.814,16.884 33.3,15.687 34.309,14.123C35.465,12.515 36.369,10.562 37.631,8.675C38.273,7.697 39.036,6.804 39.903,6.017C40.816,5.224 41.877,4.619 43.026,4.237C44.21,3.832 45.484,3.763 46.706,4.038C47.946,4.344 49.037,5.078 49.789,6.11C51.197,7.997 51.676,10.097 52.818,11.146C53.337,11.667 54.026,11.983 54.758,12.037C55.566,12.043 56.364,11.87 57.097,11.532C58.701,10.737 60.259,9.849 61.761,8.874C63.316,7.983 64.965,7.265 66.677,6.735C69.707,5.829 72.825,5.245 75.978,4.994C81.692,4.516 86.276,4.37 89.465,4.21C91.115,4.054 92.777,4.08 94.421,4.29Z" fill="#FFFFFF"/>
<path d="M90.952,12.541C90.846,12.262 92.281,11.478 94.447,10.176C95.537,9.525 96.825,8.727 98.207,7.784C98.898,7.319 99.536,6.801 100.333,6.269C100.675,6.037 100.991,5.77 101.277,5.472C101.516,5.237 101.705,4.957 101.835,4.648C101.901,4.396 101.835,4.409 101.835,4.316C101.642,4.14 101.402,4.024 101.144,3.984L98.566,3.293C96.918,2.841 95.444,2.403 94.208,1.964C91.736,1.167 90.222,0.529 90.315,0.25C90.408,-0.029 92.002,0.077 94.567,0.502C95.895,0.715 97.357,1.007 99.031,1.353L101.689,1.937C102.368,2.061 102.991,2.396 103.469,2.894C103.765,3.23 103.955,3.646 104.014,4.09C104.068,4.498 104.023,4.913 103.881,5.299C103.658,5.901 103.304,6.446 102.845,6.894C102.47,7.279 102.051,7.618 101.596,7.903C100.825,8.462 100.041,8.953 99.297,9.405C97.969,10.199 96.583,10.892 95.151,11.478C92.68,12.514 91.059,12.806 90.952,12.541Z" fill="#FFFFFF"/>
</svg>
