<svg width="106" height="20" viewBox="0 0 106 20" fill="none" xmlns="http://www.w3.org/2000/svg" xmlns:xlink="http://www.w3.org/1999/xlink">
<path d="M104.016,4.29C102.416,4.736 100.771,5.004 99.113,5.087L85.746,6.535C82.721,6.881 79.739,7.526 76.843,8.462C75.265,8.993 73.746,9.688 72.312,10.535C70.76,11.581 69.144,12.53 67.475,13.378C66.47,13.849 65.37,14.085 64.26,14.069C63.037,13.998 61.882,13.489 61.005,12.634C59.317,10.894 58.852,8.781 57.749,7.426C57.293,6.76 56.607,6.287 55.822,6.097C54.982,5.91 54.105,5.97 53.298,6.27C51.485,6.929 49.964,8.209 49.006,9.884C47.85,11.598 46.946,13.551 45.631,15.385C44.351,17.355 42.454,18.845 40.236,19.623C39.073,19.956 37.839,19.956 36.675,19.623C35.573,19.296 34.556,18.729 33.699,17.962C32.166,16.556 30.972,14.82 30.204,12.887C29.434,11.106 28.876,9.379 28.105,7.864C27.221,5.793 25.617,4.114 23.589,3.136C21.56,2.159 19.247,1.95 17.077,2.549C15.924,2.84 14.846,3.373 13.916,4.113C12.986,4.853 12.224,5.783 11.682,6.841C10.815,8.474 10.402,10.309 10.486,12.156C10.519,13.339 10.772,14.506 11.23,15.597C11.536,16.368 11.748,16.753 11.682,16.806C11.615,16.86 11.297,16.527 10.845,15.797C10.193,14.707 9.789,13.486 9.662,12.222C9.408,10.2 9.74,8.148 10.619,6.309C11.195,5.059 12.032,3.946 13.075,3.048C14.118,2.149 15.343,1.485 16.665,1.101C18.279,0.629 19.979,0.526 21.639,0.797C23.299,1.068 24.877,1.708 26.258,2.669C27.76,3.791 28.965,5.265 29.766,6.96C30.63,8.621 31.241,10.375 31.998,12.036C32.667,13.691 33.703,15.172 35.028,16.368C35.632,16.949 36.378,17.363 37.191,17.568C38.004,17.773 38.857,17.762 39.665,17.537C41.408,16.884 42.894,15.686 43.904,14.122C45.06,12.515 45.963,10.561 47.226,8.675C47.868,7.696 48.631,6.803 49.498,6.017C50.411,5.223 51.472,4.618 52.62,4.237C53.805,3.831 55.079,3.762 56.301,4.037C57.54,4.344 58.632,5.078 59.383,6.11C60.792,7.997 61.27,10.096 62.413,11.146C62.932,11.666 63.62,11.982 64.353,12.036C65.16,12.042 65.959,11.87 66.691,11.531C68.296,10.736 69.853,9.849 71.355,8.874C72.911,7.982 74.559,7.265 76.272,6.735C79.302,5.828 82.42,5.245 85.573,4.994C91.286,4.516 95.87,4.369 99.059,4.21C100.709,4.053 102.372,4.08 104.016,4.29Z" transform="rotate(360 56.797 10.261)" fill="#FFFFFF"/>
<path d="M0.606,12.54C0.499,12.261 1.934,11.477 4.1,10.175C5.19,9.524 6.479,8.727 7.861,7.784C8.552,7.318 9.189,6.8 9.987,6.269C10.328,6.037 10.644,5.769 10.93,5.472C11.169,5.237 11.359,4.957 11.488,4.648C11.554,4.395 11.488,4.409 11.488,4.316C11.295,4.139 11.055,4.024 10.797,3.983L8.219,3.292C6.572,2.841 5.097,2.402 3.861,1.964C1.39,1.166 -0.125,0.529 -0.032,0.25C0.061,-0.029 1.655,0.077 4.22,0.502C5.549,0.715 7.01,1.007 8.684,1.352L11.342,1.937C12.021,2.061 12.644,2.396 13.122,2.894C13.418,3.23 13.608,3.646 13.667,4.09C13.722,4.497 13.676,4.912 13.534,5.299C13.312,5.901 12.958,6.445 12.498,6.893C12.123,7.279 11.704,7.618 11.249,7.903C10.478,8.461 9.694,8.953 8.95,9.405C7.622,10.199 6.236,10.892 4.805,11.477C2.333,12.514 0.712,12.806 0.606,12.54Z" transform="rotate(360 6.827 6.364)" fill="#FFFFFF"/>
</svg>
