<svg width="106" height="20" viewBox="0 0 106 20" fill="none" xmlns="http://www.w3.org/2000/svg" xmlns:xlink="http://www.w3.org/1999/xlink">
<path d="M95.419,4.29C93.819,4.737 92.175,5.004 90.516,5.087L77.149,6.536C74.125,6.881 71.143,7.526 68.246,8.462C66.668,8.993 65.149,9.688 63.715,10.535C62.163,11.581 60.548,12.531 58.879,13.378C57.873,13.849 56.774,14.086 55.663,14.069C54.441,13.998 53.285,13.489 52.408,12.634C50.72,10.894 50.255,8.781 49.152,7.426C48.696,6.76 48.01,6.287 47.226,6.097C46.385,5.911 45.509,5.971 44.701,6.27C42.888,6.929 41.368,8.21 40.409,9.884C39.253,11.598 38.35,13.551 37.034,15.385C35.754,17.355 33.857,18.846 31.64,19.624C30.476,19.956 29.243,19.956 28.079,19.624C26.976,19.297 25.96,18.729 25.102,17.963C23.57,16.556 22.375,14.821 21.608,12.887C20.837,11.106 20.279,9.379 19.508,7.864C18.625,5.794 17.02,4.114 14.992,3.137C12.964,2.159 10.65,1.951 8.48,2.549C7.327,2.84 6.25,3.373 5.32,4.113C4.389,4.853 3.628,5.783 3.085,6.841C2.218,8.474 1.805,10.309 1.889,12.156C1.923,13.339 2.175,14.506 2.634,15.597C2.939,16.368 3.152,16.753 3.085,16.807C3.019,16.86 2.7,16.528 2.248,15.797C1.596,14.707 1.192,13.486 1.066,12.222C0.811,10.201 1.143,8.148 2.022,6.31C2.598,5.059 3.436,3.947 4.479,3.048C5.522,2.149 6.746,1.485 8.068,1.101C9.683,0.63 11.383,0.526 13.043,0.797C14.703,1.069 16.281,1.708 17.662,2.669C19.164,3.792 20.368,5.265 21.169,6.961C22.033,8.622 22.644,10.376 23.402,12.036C24.07,13.691 25.106,15.173 26.431,16.368C27.036,16.949 27.781,17.363 28.595,17.568C29.408,17.773 30.261,17.763 31.068,17.537C32.812,16.884 34.298,15.687 35.307,14.123C36.463,12.515 37.367,10.562 38.629,8.675C39.271,7.696 40.034,6.804 40.901,6.017C41.814,5.224 42.875,4.618 44.024,4.237C45.208,3.832 46.482,3.763 47.704,4.037C48.944,4.344 50.035,5.078 50.787,6.11C52.195,7.997 52.674,10.097 53.816,11.146C54.335,11.666 55.024,11.983 55.756,12.036C56.564,12.043 57.362,11.87 58.095,11.532C59.699,10.736 61.257,9.849 62.759,8.874C64.314,7.983 65.963,7.265 67.675,6.735C70.705,5.829 73.823,5.245 76.976,4.994C82.69,4.516 87.274,4.37 90.463,4.21C92.113,4.053 93.775,4.08 95.419,4.29Z" fill="#2437AC"/>
<path d="M91.952,12.541C91.846,12.262 93.281,11.478 95.447,10.175C96.537,9.524 97.825,8.727 99.207,7.784C99.898,7.319 100.536,6.8 101.333,6.269C101.675,6.037 101.991,5.77 102.277,5.472C102.516,5.237 102.705,4.957 102.835,4.648C102.901,4.395 102.835,4.409 102.835,4.316C102.642,4.14 102.402,4.024 102.144,3.984L99.566,3.293C97.918,2.841 96.444,2.402 95.208,1.964C92.736,1.167 91.222,0.529 91.315,0.25C91.408,-0.029 93.002,0.077 95.567,0.502C96.895,0.715 98.357,1.007 100.031,1.353L102.689,1.937C103.368,2.061 103.991,2.396 104.469,2.894C104.765,3.23 104.955,3.646 105.014,4.09C105.068,4.498 105.023,4.913 104.881,5.299C104.658,5.901 104.304,6.446 103.845,6.893C103.47,7.279 103.051,7.618 102.596,7.903C101.825,8.461 101.041,8.953 100.297,9.405C98.969,10.199 97.583,10.892 96.151,11.478C93.68,12.514 92.059,12.806 91.952,12.541Z" fill="#2437AC"/>
</svg>
