<svg width="106" height="20" viewBox="0 0 106 20" fill="none" xmlns="http://www.w3.org/2000/svg" xmlns:xlink="http://www.w3.org/1999/xlink">
<path d="M94.419,4.29C92.819,4.736 91.175,5.004 89.516,5.087L76.149,6.535C73.125,6.881 70.143,7.526 67.246,8.462C65.668,8.993 64.149,9.688 62.715,10.535C61.163,11.581 59.548,12.53 57.879,13.378C56.873,13.849 55.774,14.085 54.663,14.069C53.441,13.998 52.285,13.489 51.408,12.634C49.72,10.894 49.255,8.781 48.152,7.426C47.696,6.76 47.01,6.287 46.226,6.097C45.385,5.91 44.509,5.97 43.701,6.27C41.888,6.929 40.368,8.209 39.409,9.884C38.253,11.598 37.35,13.551 36.034,15.385C34.754,17.355 32.857,18.845 30.64,19.623C29.476,19.956 28.243,19.956 27.079,19.623C25.976,19.296 24.96,18.729 24.102,17.962C22.57,16.556 21.375,14.82 20.608,12.887C19.837,11.106 19.279,9.379 18.508,7.864C17.625,5.793 16.02,4.114 13.992,3.136C11.964,2.159 9.65,1.95 7.48,2.549C6.327,2.84 5.25,3.373 4.32,4.113C3.389,4.853 2.628,5.783 2.085,6.841C1.218,8.474 0.805,10.309 0.889,12.156C0.923,13.339 1.175,14.506 1.634,15.597C1.939,16.368 2.152,16.753 2.085,16.806C2.019,16.86 1.7,16.527 1.248,15.797C0.596,14.707 0.192,13.486 0.066,12.222C-0.189,10.2 0.143,8.148 1.022,6.309C1.598,5.059 2.436,3.946 3.479,3.048C4.522,2.149 5.746,1.485 7.068,1.101C8.683,0.629 10.383,0.526 12.043,0.797C13.703,1.068 15.281,1.708 16.662,2.669C18.164,3.791 19.368,5.265 20.169,6.96C21.033,8.621 21.644,10.375 22.402,12.036C23.07,13.691 24.106,15.172 25.431,16.368C26.036,16.949 26.781,17.363 27.595,17.568C28.408,17.773 29.261,17.762 30.068,17.537C31.812,16.884 33.298,15.686 34.307,14.122C35.463,12.515 36.367,10.561 37.629,8.675C38.271,7.696 39.034,6.803 39.901,6.017C40.814,5.223 41.875,4.618 43.024,4.237C44.208,3.831 45.482,3.762 46.704,4.037C47.944,4.344 49.035,5.078 49.787,6.11C51.195,7.997 51.674,10.096 52.816,11.146C53.335,11.666 54.024,11.982 54.756,12.036C55.564,12.042 56.362,11.87 57.095,11.531C58.699,10.736 60.257,9.849 61.759,8.874C63.314,7.982 64.963,7.265 66.675,6.735C69.705,5.828 72.823,5.245 75.976,4.994C81.69,4.516 86.274,4.369 89.463,4.21C91.113,4.053 92.775,4.08 94.419,4.29Z" fill="#2437AC"/>
<path d="M90.952,12.54C90.846,12.261 92.281,11.477 94.447,10.175C95.537,9.524 96.825,8.727 98.207,7.784C98.898,7.318 99.536,6.8 100.333,6.269C100.675,6.037 100.991,5.769 101.277,5.472C101.516,5.237 101.705,4.957 101.835,4.648C101.901,4.395 101.835,4.409 101.835,4.316C101.642,4.139 101.402,4.024 101.144,3.983L98.566,3.292C96.918,2.841 95.444,2.402 94.208,1.964C91.736,1.166 90.222,0.529 90.315,0.25C90.408,-0.029 92.002,0.077 94.567,0.502C95.895,0.715 97.357,1.007 99.031,1.352L101.689,1.937C102.368,2.061 102.991,2.396 103.469,2.894C103.765,3.23 103.955,3.646 104.014,4.09C104.068,4.497 104.023,4.912 103.881,5.299C103.658,5.901 103.304,6.445 102.845,6.893C102.47,7.279 102.051,7.618 101.596,7.903C100.825,8.461 100.041,8.953 99.297,9.405C97.969,10.199 96.583,10.892 95.151,11.477C92.68,12.514 91.059,12.806 90.952,12.54Z" fill="#2437AC"/>
</svg>
