<svg width="106" height="20" viewBox="0 0 106 20" fill="none" xmlns="http://www.w3.org/2000/svg" xmlns:xlink="http://www.w3.org/1999/xlink">
<path d="M94.421,4.291C92.821,4.737 91.177,5.005 89.518,5.088L76.151,6.536C73.127,6.882 70.145,7.527 67.248,8.463C65.67,8.994 64.151,9.689 62.717,10.536C61.165,11.582 59.55,12.531 57.881,13.379C56.875,13.85 55.776,14.086 54.665,14.07C53.443,13.999 52.287,13.49 51.41,12.635C49.722,10.895 49.257,8.782 48.154,7.427C47.698,6.761 47.012,6.288 46.228,6.098C45.387,5.911 44.511,5.971 43.703,6.27C41.89,6.93 40.37,8.21 39.411,9.885C38.255,11.599 37.352,13.552 36.036,15.386C34.756,17.356 32.859,18.846 30.642,19.624C29.478,19.957 28.245,19.957 27.081,19.624C25.978,19.297 24.962,18.73 24.104,17.963C22.572,16.557 21.377,14.821 20.61,12.888C19.839,11.107 19.281,9.38 18.51,7.865C17.627,5.794 16.022,4.115 13.994,3.137C11.966,2.16 9.652,1.951 7.482,2.55C6.329,2.841 5.252,3.374 4.321,4.114C3.391,4.854 2.63,5.784 2.087,6.842C1.22,8.474 0.807,10.31 0.891,12.157C0.925,13.34 1.177,14.507 1.636,15.598C1.941,16.369 2.154,16.754 2.087,16.807C2.021,16.861 1.702,16.528 1.25,15.798C0.598,14.708 0.194,13.487 0.068,12.223C-0.187,10.201 0.145,8.149 1.024,6.31C1.6,5.06 2.438,3.947 3.481,3.049C4.524,2.15 5.748,1.486 7.07,1.102C8.685,0.63 10.384,0.527 12.045,0.798C13.705,1.069 15.283,1.709 16.663,2.67C18.166,3.792 19.37,5.266 20.171,6.961C21.035,8.622 21.646,10.376 22.404,12.037C23.072,13.692 24.108,15.173 25.433,16.369C26.038,16.95 26.783,17.364 27.597,17.569C28.41,17.774 29.263,17.763 30.07,17.538C31.814,16.885 33.3,15.687 34.309,14.123C35.465,12.516 36.369,10.562 37.631,8.676C38.273,7.697 39.036,6.804 39.903,6.018C40.816,5.224 41.877,4.619 43.026,4.238C44.21,3.832 45.484,3.763 46.706,4.038C47.946,4.345 49.037,5.079 49.789,6.111C51.197,7.998 51.676,10.097 52.818,11.147C53.337,11.667 54.026,11.983 54.758,12.037C55.566,12.043 56.364,11.871 57.097,11.532C58.701,10.737 60.259,9.85 61.761,8.875C63.316,7.983 64.965,7.266 66.677,6.736C69.707,5.829 72.825,5.246 75.978,4.995C81.692,4.517 86.276,4.37 89.465,4.211C91.115,4.054 92.777,4.081 94.421,4.291Z" fill="#2437AC"/>
<path d="M90.952,12.541C90.846,12.262 92.281,11.478 94.447,10.176C95.537,9.525 96.825,8.728 98.207,7.784C98.898,7.319 99.536,6.801 100.333,6.27C100.675,6.038 100.991,5.77 101.277,5.472C101.516,5.238 101.705,4.958 101.835,4.649C101.901,4.396 101.835,4.409 101.835,4.316C101.642,4.14 101.402,4.025 101.144,3.984L98.566,3.293C96.918,2.842 95.444,2.403 94.208,1.965C91.736,1.167 90.222,0.53 90.315,0.251C90.408,-0.028 92.002,0.078 94.567,0.503C95.895,0.716 97.357,1.008 99.031,1.353L101.689,1.938C102.368,2.062 102.991,2.396 103.469,2.895C103.765,3.231 103.955,3.647 104.014,4.091C104.068,4.498 104.023,4.913 103.881,5.3C103.658,5.902 103.304,6.446 102.845,6.894C102.47,7.28 102.051,7.619 101.596,7.904C100.825,8.462 100.041,8.954 99.297,9.406C97.969,10.2 96.583,10.893 95.151,11.478C92.68,12.515 91.059,12.807 90.952,12.541Z" fill="#2437AC"/>
</svg>
