<svg width="106" height="20" viewBox="0 0 106 20" fill="none" xmlns="http://www.w3.org/2000/svg" xmlns:xlink="http://www.w3.org/1999/xlink">
<path d="M105.016,4.29C103.416,4.737 101.771,5.004 100.113,5.087L86.746,6.536C83.721,6.881 80.739,7.526 77.843,8.462C76.265,8.993 74.746,9.688 73.312,10.535C71.76,11.581 70.144,12.531 68.475,13.378C67.47,13.849 66.37,14.086 65.26,14.069C64.037,13.998 62.882,13.489 62.005,12.634C60.317,10.894 59.852,8.781 58.749,7.426C58.293,6.76 57.607,6.287 56.822,6.097C55.982,5.911 55.105,5.971 54.298,6.27C52.485,6.929 50.964,8.21 50.006,9.884C48.85,11.598 47.946,13.551 46.631,15.385C45.351,17.355 43.454,18.846 41.236,19.624C40.073,19.956 38.839,19.956 37.675,19.624C36.573,19.297 35.556,18.729 34.699,17.963C33.166,16.556 31.972,14.821 31.204,12.887C30.434,11.106 29.876,9.379 29.105,7.864C28.221,5.794 26.617,4.114 24.589,3.137C22.56,2.159 20.247,1.951 18.077,2.549C16.924,2.84 15.846,3.373 14.916,4.113C13.986,4.853 13.224,5.783 12.682,6.841C11.815,8.474 11.402,10.309 11.486,12.156C11.519,13.339 11.772,14.506 12.23,15.597C12.536,16.368 12.748,16.753 12.682,16.807C12.615,16.86 12.297,16.528 11.845,15.797C11.193,14.707 10.789,13.486 10.662,12.222C10.408,10.201 10.74,8.148 11.619,6.31C12.195,5.059 13.032,3.947 14.075,3.048C15.118,2.149 16.343,1.485 17.665,1.101C19.279,0.63 20.979,0.526 22.639,0.797C24.299,1.069 25.877,1.708 27.258,2.669C28.76,3.792 29.965,5.265 30.766,6.961C31.63,8.622 32.241,10.376 32.998,12.036C33.667,13.691 34.703,15.173 36.028,16.368C36.632,16.949 37.378,17.363 38.191,17.568C39.004,17.773 39.857,17.763 40.665,17.537C42.408,16.884 43.894,15.687 44.904,14.123C46.06,12.515 46.963,10.562 48.226,8.675C48.868,7.696 49.631,6.804 50.498,6.017C51.411,5.224 52.472,4.618 53.62,4.237C54.805,3.832 56.079,3.763 57.301,4.037C58.54,4.344 59.632,5.078 60.383,6.11C61.792,7.997 62.27,10.097 63.413,11.146C63.932,11.666 64.62,11.983 65.353,12.036C66.16,12.043 66.959,11.87 67.691,11.532C69.296,10.736 70.853,9.849 72.355,8.874C73.911,7.983 75.559,7.265 77.272,6.735C80.302,5.829 83.42,5.245 86.573,4.994C92.286,4.516 96.87,4.37 100.059,4.21C101.709,4.053 103.372,4.08 105.016,4.29Z" transform="rotate(360 57.797 10.261)" fill="#2437AC"/>
<path d="M1.606,12.541C1.499,12.262 2.934,11.478 5.1,10.175C6.19,9.524 7.479,8.727 8.861,7.784C9.552,7.319 10.189,6.8 10.987,6.269C11.328,6.037 11.644,5.77 11.93,5.472C12.169,5.237 12.359,4.957 12.488,4.648C12.554,4.395 12.488,4.409 12.488,4.316C12.295,4.14 12.055,4.024 11.797,3.984L9.219,3.293C7.572,2.841 6.097,2.402 4.861,1.964C2.39,1.167 0.875,0.529 0.968,0.25C1.061,-0.029 2.655,0.077 5.22,0.502C6.549,0.715 8.01,1.007 9.684,1.353L12.342,1.937C13.021,2.061 13.644,2.396 14.122,2.894C14.418,3.23 14.608,3.646 14.667,4.09C14.722,4.498 14.676,4.913 14.534,5.299C14.312,5.901 13.958,6.446 13.498,6.893C13.123,7.279 12.704,7.618 12.249,7.903C11.478,8.461 10.694,8.953 9.95,9.405C8.622,10.199 7.236,10.892 5.805,11.478C3.333,12.514 1.712,12.806 1.606,12.541Z" transform="rotate(360 7.827 6.364)" fill="#2437AC"/>
</svg>
