<svg width="106" height="20" viewBox="0 0 106 20" fill="none" xmlns="http://www.w3.org/2000/svg" xmlns:xlink="http://www.w3.org/1999/xlink">
<path d="M94.419,4.368C92.819,4.814 91.175,5.082 89.516,5.165L76.149,6.613C73.125,6.959 70.143,7.604 67.246,8.54C65.668,9.071 64.149,9.766 62.715,10.613C61.163,11.659 59.548,12.609 57.879,13.456C56.873,13.927 55.774,14.163 54.663,14.147C53.441,14.076 52.285,13.567 51.408,12.712C49.72,10.972 49.255,8.859 48.152,7.504C47.696,6.838 47.01,6.365 46.226,6.175C45.385,5.989 44.509,6.049 43.701,6.348C41.888,7.007 40.368,8.288 39.409,9.962C38.253,11.676 37.35,13.629 36.034,15.463C34.754,17.433 32.857,18.924 30.64,19.701C29.476,20.034 28.243,20.034 27.079,19.701C25.976,19.374 24.96,18.807 24.102,18.041C22.57,16.634 21.375,14.899 20.608,12.965C19.837,11.184 19.279,9.457 18.508,7.942C17.625,5.872 16.02,4.192 13.992,3.214C11.964,2.237 9.65,2.028 7.48,2.627C6.327,2.918 5.25,3.451 4.32,4.191C3.389,4.931 2.628,5.861 2.085,6.919C1.218,8.552 0.805,10.387 0.889,12.234C0.923,13.417 1.175,14.584 1.634,15.675C1.939,16.446 2.152,16.831 2.085,16.885C2.019,16.938 1.7,16.605 1.248,15.875C0.596,14.785 0.192,13.564 0.066,12.3C-0.189,10.278 0.143,8.226 1.022,6.387C1.598,5.137 2.436,4.024 3.479,3.126C4.522,2.227 5.746,1.563 7.068,1.179C8.683,0.708 10.383,0.604 12.043,0.875C13.703,1.146 15.281,1.786 16.662,2.747C18.164,3.869 19.368,5.343 20.169,7.039C21.033,8.7 21.644,10.453 22.402,12.114C23.07,13.769 24.106,15.25 25.431,16.446C26.036,17.027 26.781,17.441 27.595,17.646C28.408,17.851 29.261,17.84 30.068,17.615C31.812,16.962 33.298,15.765 34.307,14.2C35.463,12.593 36.367,10.639 37.629,8.753C38.271,7.774 39.034,6.881 39.901,6.095C40.814,5.301 41.875,4.696 43.024,4.315C44.208,3.909 45.482,3.84 46.704,4.115C47.944,4.422 49.035,5.156 49.787,6.188C51.195,8.075 51.674,10.174 52.816,11.224C53.335,11.744 54.024,12.06 54.756,12.114C55.564,12.121 56.362,11.948 57.095,11.609C58.699,10.814 60.257,9.927 61.759,8.952C63.314,8.061 64.963,7.343 66.675,6.813C69.705,5.906 72.823,5.323 75.976,5.072C81.69,4.594 86.274,4.448 89.463,4.288C91.113,4.131 92.775,4.158 94.419,4.368Z" fill="#2437AC"/>
<path d="M90.952,12.618C90.846,12.339 92.281,11.556 94.447,10.253C95.537,9.602 96.825,8.805 98.207,7.862C98.898,7.397 99.536,6.878 100.333,6.347C100.675,6.115 100.991,5.848 101.277,5.55C101.516,5.315 101.705,5.035 101.835,4.726C101.901,4.473 101.835,4.487 101.835,4.394C101.642,4.217 101.402,4.102 101.144,4.061L98.566,3.371C96.918,2.919 95.444,2.48 94.208,2.042C91.736,1.245 90.222,0.607 90.315,0.328C90.408,0.049 92.002,0.155 94.567,0.58C95.895,0.793 97.357,1.085 99.031,1.431L101.689,2.015C102.368,2.139 102.991,2.474 103.469,2.972C103.765,3.308 103.955,3.724 104.014,4.168C104.068,4.576 104.023,4.991 103.881,5.377C103.658,5.979 103.304,6.523 102.845,6.971C102.47,7.357 102.051,7.696 101.596,7.981C100.825,8.539 100.041,9.031 99.297,9.483C97.969,10.277 96.583,10.97 95.151,11.556C92.68,12.592 91.059,12.884 90.952,12.618Z" fill="#2437AC"/>
</svg>
