<svg width="6" height="6" viewBox="0 0 6 6" fill="none" xmlns="http://www.w3.org/2000/svg" xmlns:xlink="http://www.w3.org/1999/xlink">
<path d="M5.875,3.231C5.875,3.778 5.713,4.312 5.409,4.767C5.105,5.222 4.673,5.576 4.168,5.785C3.663,5.995 3.107,6.049 2.571,5.943C2.035,5.836 1.542,5.573 1.155,5.186C0.769,4.799 0.505,4.307 0.399,3.771C0.292,3.234 0.347,2.678 0.556,2.173C0.765,1.668 1.12,1.237 1.574,0.933C2.029,0.629 2.563,0.467 3.11,0.467C3.843,0.467 4.547,0.758 5.065,1.277C5.583,1.795 5.875,2.498 5.875,3.231L5.875,3.231Z" fill="#00B8FF"/>
</svg>
