<svg width="6" height="6" viewBox="0 0 6 6" fill="none" xmlns="http://www.w3.org/2000/svg" xmlns:xlink="http://www.w3.org/1999/xlink">
<path d="M4.836,1.989C4.836,2.536 4.673,3.07 4.37,3.525C4.066,3.98 3.634,4.334 3.129,4.543C2.624,4.752 2.068,4.807 1.532,4.7C0.996,4.594 0.503,4.331 0.116,3.944C-0.27,3.557 -0.534,3.065 -0.64,2.528C-0.747,1.992 -0.692,1.436 -0.483,0.931C-0.274,0.426 0.081,-0.006 0.535,-0.309C0.99,-0.613 1.524,-0.775 2.071,-0.775C2.804,-0.775 3.507,-0.484 4.026,0.034C4.544,0.553 4.836,1.256 4.836,1.989L4.836,1.989Z" fill="#00B8FF"/>
</svg>
