<svg width="6" height="6" viewBox="0 0 6 6" fill="none" xmlns="http://www.w3.org/2000/svg" xmlns:xlink="http://www.w3.org/1999/xlink">
<path d="M5.875,2.997C5.875,3.544 5.713,4.078 5.409,4.533C5.105,4.987 4.673,5.342 4.168,5.551C3.663,5.76 3.107,5.815 2.571,5.708C2.035,5.602 1.542,5.338 1.155,4.952C0.769,4.565 0.505,4.072 0.399,3.536C0.292,3 0.347,2.444 0.556,1.939C0.765,1.434 1.12,1.002 1.574,0.698C2.029,0.395 2.563,0.232 3.11,0.232C3.843,0.232 4.547,0.524 5.065,1.042C5.583,1.561 5.875,2.264 5.875,2.997L5.875,2.997Z" fill="#00B8FF"/>
</svg>
