<svg width="6" height="8" viewBox="0 0 6 8" fill="none" xmlns="http://www.w3.org/2000/svg" xmlns:xlink="http://www.w3.org/1999/xlink">
<path d="M5.875,3.489C5.875,4.036 5.713,4.57 5.409,5.025C5.105,5.48 4.673,5.834 4.168,6.043C3.663,6.252 3.107,6.307 2.571,6.2C2.035,6.094 1.542,5.831 1.155,5.444C0.769,5.057 0.505,4.565 0.399,4.028C0.292,3.492 0.347,2.936 0.556,2.431C0.765,1.926 1.12,1.494 1.574,1.191C2.029,0.887 2.563,0.725 3.11,0.725C3.843,0.725 4.547,1.016 5.065,1.534C5.583,2.053 5.875,2.756 5.875,3.489L5.875,3.489Z" fill="#00B8FF"/>
</svg>
