<svg width="6" height="6" viewBox="0 0 6 6" fill="none" xmlns="http://www.w3.org/2000/svg" xmlns:xlink="http://www.w3.org/1999/xlink">
<path d="M5.875,2.005C5.875,2.551 5.713,3.086 5.409,3.541C5.105,3.995 4.673,4.35 4.168,4.559C3.663,4.768 3.107,4.823 2.571,4.716C2.035,4.609 1.542,4.346 1.155,3.96C0.769,3.573 0.505,3.08 0.399,2.544C0.292,2.008 0.347,1.452 0.556,0.947C0.765,0.442 1.12,0.01 1.574,-0.294C2.029,-0.598 2.563,-0.76 3.11,-0.76C3.843,-0.76 4.547,-0.469 5.065,0.05C5.583,0.568 5.875,1.272 5.875,2.005L5.875,2.005Z" fill="#00B8FF"/>
</svg>
