<svg width="6" height="8" viewBox="0 0 6 8" fill="none" xmlns="http://www.w3.org/2000/svg" xmlns:xlink="http://www.w3.org/1999/xlink">
<path d="M5.875,3.739C5.875,4.286 5.713,4.82 5.409,5.275C5.105,5.73 4.673,6.084 4.168,6.293C3.663,6.502 3.107,6.557 2.571,6.45C2.035,6.344 1.542,6.081 1.155,5.694C0.769,5.307 0.505,4.815 0.399,4.278C0.292,3.742 0.347,3.186 0.556,2.681C0.765,2.176 1.12,1.744 1.574,1.441C2.029,1.137 2.563,0.975 3.11,0.975C3.843,0.975 4.547,1.266 5.065,1.784C5.583,2.303 5.875,3.006 5.875,3.739L5.875,3.739Z" fill="#00B8FF"/>
</svg>
