<svg width="6" height="8" viewBox="0 0 6 8" fill="none" xmlns="http://www.w3.org/2000/svg" xmlns:xlink="http://www.w3.org/1999/xlink">
<path d="M4.836,3.505C4.836,4.051 4.673,4.586 4.37,5.041C4.066,5.495 3.634,5.85 3.129,6.059C2.624,6.268 2.068,6.323 1.532,6.216C0.996,6.109 0.503,5.846 0.116,5.46C-0.27,5.073 -0.534,4.58 -0.64,4.044C-0.747,3.508 -0.692,2.952 -0.483,2.447C-0.274,1.942 0.081,1.51 0.535,1.206C0.99,0.902 1.524,0.74 2.071,0.74C2.804,0.74 3.507,1.031 4.026,1.55C4.544,2.068 4.836,2.772 4.836,3.505L4.836,3.505Z" fill="#00B8FF"/>
</svg>
