<svg width="6" height="6" viewBox="0 0 6 6" fill="none" xmlns="http://www.w3.org/2000/svg" xmlns:xlink="http://www.w3.org/1999/xlink">
<path d="M5.875,2.497C5.875,3.044 5.713,3.578 5.409,4.033C5.105,4.487 4.673,4.842 4.168,5.051C3.663,5.26 3.107,5.315 2.571,5.208C2.035,5.102 1.542,4.838 1.155,4.452C0.769,4.065 0.505,3.572 0.399,3.036C0.292,2.5 0.347,1.944 0.556,1.439C0.765,0.934 1.12,0.502 1.574,0.198C2.029,-0.105 2.563,-0.268 3.11,-0.268C3.843,-0.268 4.547,0.024 5.065,0.542C5.583,1.061 5.875,1.764 5.875,2.497L5.875,2.497Z" fill="#00B8FF"/>
</svg>
