<svg width="6" height="6" viewBox="0 0 6 6" fill="none" xmlns="http://www.w3.org/2000/svg" xmlns:xlink="http://www.w3.org/1999/xlink">
<path d="M5.875,2.239C5.875,2.786 5.713,3.32 5.409,3.775C5.105,4.23 4.673,4.584 4.168,4.793C3.663,5.002 3.107,5.057 2.571,4.95C2.035,4.844 1.542,4.581 1.155,4.194C0.769,3.807 0.505,3.315 0.399,2.778C0.292,2.242 0.347,1.686 0.556,1.181C0.765,0.676 1.12,0.244 1.574,-0.059C2.029,-0.363 2.563,-0.525 3.11,-0.525C3.843,-0.525 4.547,-0.234 5.065,0.284C5.583,0.803 5.875,1.506 5.875,2.239L5.875,2.239Z" fill="#00B8FF"/>
</svg>
