<svg width="6" height="8" viewBox="0 0 6 8" fill="none" xmlns="http://www.w3.org/2000/svg" xmlns:xlink="http://www.w3.org/1999/xlink">
<path d="M4.836,3.739C4.836,4.286 4.673,4.82 4.37,5.275C4.066,5.73 3.634,6.084 3.129,6.293C2.624,6.502 2.068,6.557 1.532,6.45C0.996,6.344 0.503,6.081 0.116,5.694C-0.27,5.307 -0.534,4.815 -0.64,4.278C-0.747,3.742 -0.692,3.186 -0.483,2.681C-0.274,2.176 0.081,1.744 0.535,1.441C0.99,1.137 1.524,0.975 2.071,0.975C2.804,0.975 3.507,1.266 4.026,1.784C4.544,2.303 4.836,3.006 4.836,3.739L4.836,3.739Z" fill="#00B8FF"/>
</svg>
