<svg width="6" height="6" viewBox="0 0 6 6" fill="none" xmlns="http://www.w3.org/2000/svg" xmlns:xlink="http://www.w3.org/1999/xlink">
<path d="M4.836,2.239C4.836,2.786 4.673,3.32 4.37,3.775C4.066,4.23 3.634,4.584 3.129,4.793C2.624,5.002 2.068,5.057 1.532,4.95C0.996,4.844 0.503,4.581 0.116,4.194C-0.27,3.807 -0.534,3.315 -0.64,2.778C-0.747,2.242 -0.692,1.686 -0.483,1.181C-0.274,0.676 0.081,0.244 0.535,-0.059C0.99,-0.363 1.524,-0.525 2.071,-0.525C2.804,-0.525 3.507,-0.234 4.026,0.284C4.544,0.803 4.836,1.506 4.836,2.239L4.836,2.239Z" fill="#00B8FF"/>
</svg>
