<svg width="6" height="8" viewBox="0 0 6 8" fill="none" xmlns="http://www.w3.org/2000/svg" xmlns:xlink="http://www.w3.org/1999/xlink">
<path d="M5.875,3.247C5.875,3.794 5.713,4.328 5.409,4.783C5.105,5.237 4.673,5.592 4.168,5.801C3.663,6.01 3.107,6.065 2.571,5.958C2.035,5.852 1.542,5.588 1.155,5.202C0.769,4.815 0.505,4.322 0.399,3.786C0.292,3.25 0.347,2.694 0.556,2.189C0.765,1.684 1.12,1.252 1.574,0.948C2.029,0.645 2.563,0.482 3.11,0.482C3.843,0.482 4.547,0.774 5.065,1.292C5.583,1.811 5.875,2.514 5.875,3.247L5.875,3.247Z" fill="#00B8FF"/>
</svg>
