<svg width="6" height="8" viewBox="0 0 6 8" fill="none" xmlns="http://www.w3.org/2000/svg" xmlns:xlink="http://www.w3.org/1999/xlink">
<path d="M4.836,3.247C4.836,3.794 4.673,4.328 4.37,4.783C4.066,5.237 3.634,5.592 3.129,5.801C2.624,6.01 2.068,6.065 1.532,5.958C0.996,5.852 0.503,5.588 0.116,5.202C-0.27,4.815 -0.534,4.322 -0.64,3.786C-0.747,3.25 -0.692,2.694 -0.483,2.189C-0.274,1.684 0.081,1.252 0.535,0.948C0.99,0.645 1.524,0.482 2.071,0.482C2.804,0.482 3.507,0.774 4.026,1.292C4.544,1.811 4.836,2.514 4.836,3.247L4.836,3.247Z" fill="#00B8FF"/>
</svg>
