<svg width="6" height="6" viewBox="0 0 6 6" fill="none" xmlns="http://www.w3.org/2000/svg" xmlns:xlink="http://www.w3.org/1999/xlink">
<path d="M4.836,2.747C4.836,3.294 4.673,3.828 4.37,4.283C4.066,4.737 3.634,5.092 3.129,5.301C2.624,5.51 2.068,5.565 1.532,5.458C0.996,5.352 0.503,5.088 0.116,4.702C-0.27,4.315 -0.534,3.822 -0.64,3.286C-0.747,2.75 -0.692,2.194 -0.483,1.689C-0.274,1.184 0.081,0.752 0.535,0.448C0.99,0.145 1.524,-0.018 2.071,-0.018C2.804,-0.018 3.507,0.274 4.026,0.792C4.544,1.311 4.836,2.014 4.836,2.747L4.836,2.747Z" fill="#00B8FF"/>
</svg>
