<svg width="6" height="6" viewBox="0 0 6 6" fill="none" xmlns="http://www.w3.org/2000/svg" xmlns:xlink="http://www.w3.org/1999/xlink">
<path d="M4.836,2.997C4.836,3.544 4.673,4.078 4.37,4.533C4.066,4.987 3.634,5.342 3.129,5.551C2.624,5.76 2.068,5.815 1.532,5.708C0.996,5.602 0.503,5.338 0.116,4.952C-0.27,4.565 -0.534,4.072 -0.64,3.536C-0.747,3 -0.692,2.444 -0.483,1.939C-0.274,1.434 0.081,1.002 0.535,0.698C0.99,0.395 1.524,0.232 2.071,0.232C2.804,0.232 3.507,0.524 4.026,1.042C4.544,1.561 4.836,2.264 4.836,2.997L4.836,2.997Z" fill="#00B8FF"/>
</svg>
