<svg width="6" height="6" viewBox="0 0 6 6" fill="none" xmlns="http://www.w3.org/2000/svg" xmlns:xlink="http://www.w3.org/1999/xlink">
<path d="M4.836,2.497C4.836,3.044 4.673,3.578 4.37,4.033C4.066,4.487 3.634,4.842 3.129,5.051C2.624,5.26 2.068,5.315 1.532,5.208C0.996,5.102 0.503,4.838 0.116,4.452C-0.27,4.065 -0.534,3.572 -0.64,3.036C-0.747,2.5 -0.692,1.944 -0.483,1.439C-0.274,0.934 0.081,0.502 0.535,0.198C0.99,-0.105 1.524,-0.268 2.071,-0.268C2.804,-0.268 3.507,0.024 4.026,0.542C4.544,1.061 4.836,1.764 4.836,2.497L4.836,2.497Z" fill="#00B8FF"/>
</svg>
