<svg width="6" height="6" viewBox="0 0 6 6" fill="none" xmlns="http://www.w3.org/2000/svg" xmlns:xlink="http://www.w3.org/1999/xlink">
<path d="M5.875,1.989C5.875,2.536 5.713,3.07 5.409,3.525C5.105,3.98 4.673,4.334 4.168,4.543C3.663,4.752 3.107,4.807 2.571,4.7C2.035,4.594 1.542,4.331 1.155,3.944C0.769,3.557 0.505,3.065 0.399,2.528C0.292,1.992 0.347,1.436 0.556,0.931C0.765,0.426 1.12,-0.006 1.574,-0.309C2.029,-0.613 2.563,-0.775 3.11,-0.775C3.843,-0.775 4.547,-0.484 5.065,0.034C5.583,0.553 5.875,1.256 5.875,1.989L5.875,1.989Z" fill="#00B8FF"/>
</svg>
