<svg width="6" height="6" viewBox="0 0 6 6" fill="none" xmlns="http://www.w3.org/2000/svg" xmlns:xlink="http://www.w3.org/1999/xlink">
<path d="M5.875,2.763C5.875,3.309 5.713,3.844 5.409,4.298C5.105,4.753 4.673,5.107 4.168,5.317C3.663,5.526 3.107,5.581 2.571,5.474C2.035,5.367 1.542,5.104 1.155,4.717C0.769,4.331 0.505,3.838 0.399,3.302C0.292,2.766 0.347,2.21 0.556,1.705C0.765,1.199 1.12,0.768 1.574,0.464C2.029,0.16 2.563,-0.002 3.11,-0.002C3.843,-0.002 4.547,0.289 5.065,0.808C5.583,1.326 5.875,2.029 5.875,2.763L5.875,2.763Z" fill="#00B8FF"/>
</svg>
