<svg width="6" height="6" viewBox="0 0 6 6" fill="none" xmlns="http://www.w3.org/2000/svg" xmlns:xlink="http://www.w3.org/1999/xlink">
<path d="M5.875,2.747C5.875,3.294 5.713,3.828 5.409,4.283C5.105,4.737 4.673,5.092 4.168,5.301C3.663,5.51 3.107,5.565 2.571,5.458C2.035,5.352 1.542,5.088 1.155,4.702C0.769,4.315 0.505,3.822 0.399,3.286C0.292,2.75 0.347,2.194 0.556,1.689C0.765,1.184 1.12,0.752 1.574,0.448C2.029,0.145 2.563,-0.018 3.11,-0.018C3.843,-0.018 4.547,0.274 5.065,0.792C5.583,1.311 5.875,2.014 5.875,2.747L5.875,2.747Z" fill="#00B8FF"/>
</svg>
