<svg width="6" height="8" viewBox="0 0 6 8" fill="none" xmlns="http://www.w3.org/2000/svg" xmlns:xlink="http://www.w3.org/1999/xlink">
<path d="M5.875,3.755C5.875,4.301 5.713,4.836 5.409,5.291C5.105,5.745 4.673,6.1 4.168,6.309C3.663,6.518 3.107,6.573 2.571,6.466C2.035,6.359 1.542,6.096 1.155,5.71C0.769,5.323 0.505,4.83 0.399,4.294C0.292,3.758 0.347,3.202 0.556,2.697C0.765,2.192 1.12,1.76 1.574,1.456C2.029,1.152 2.563,0.99 3.11,0.99C3.843,0.99 4.547,1.281 5.065,1.8C5.583,2.318 5.875,3.022 5.875,3.755L5.875,3.755Z" fill="#00B8FF"/>
</svg>
