<svg width="6" height="8" viewBox="0 0 6 8" fill="none" xmlns="http://www.w3.org/2000/svg" xmlns:xlink="http://www.w3.org/1999/xlink">
<path d="M4.836,3.489C4.836,4.036 4.673,4.57 4.37,5.025C4.066,5.48 3.634,5.834 3.129,6.043C2.624,6.252 2.068,6.307 1.532,6.2C0.996,6.094 0.503,5.831 0.116,5.444C-0.27,5.057 -0.534,4.565 -0.64,4.028C-0.747,3.492 -0.692,2.936 -0.483,2.431C-0.274,1.926 0.081,1.494 0.535,1.191C0.99,0.887 1.524,0.725 2.071,0.725C2.804,0.725 3.507,1.016 4.026,1.534C4.544,2.053 4.836,2.756 4.836,3.489L4.836,3.489Z" fill="#00B8FF"/>
</svg>
