<svg width="6" height="6" viewBox="0 0 6 6" fill="none" xmlns="http://www.w3.org/2000/svg" xmlns:xlink="http://www.w3.org/1999/xlink">
<path d="M4.836,2.513C4.836,3.059 4.673,3.594 4.37,4.048C4.066,4.503 3.634,4.857 3.129,5.067C2.624,5.276 2.068,5.331 1.532,5.224C0.996,5.117 0.503,4.854 0.116,4.467C-0.27,4.081 -0.534,3.588 -0.64,3.052C-0.747,2.516 -0.692,1.96 -0.483,1.455C-0.274,0.949 0.081,0.518 0.535,0.214C0.99,-0.09 1.524,-0.252 2.071,-0.252C2.804,-0.252 3.507,0.039 4.026,0.558C4.544,1.076 4.836,1.779 4.836,2.513L4.836,2.513Z" fill="#00B8FF"/>
</svg>
