<svg width="6" height="6" viewBox="0 0 6 6" fill="none" xmlns="http://www.w3.org/2000/svg" xmlns:xlink="http://www.w3.org/1999/xlink">
<path d="M5.875,2.255C5.875,2.801 5.713,3.336 5.409,3.791C5.105,4.245 4.673,4.6 4.168,4.809C3.663,5.018 3.107,5.073 2.571,4.966C2.035,4.859 1.542,4.596 1.155,4.21C0.769,3.823 0.505,3.33 0.399,2.794C0.292,2.258 0.347,1.702 0.556,1.197C0.765,0.692 1.12,0.26 1.574,-0.044C2.029,-0.348 2.563,-0.51 3.11,-0.51C3.843,-0.51 4.547,-0.219 5.065,0.3C5.583,0.818 5.875,1.522 5.875,2.255L5.875,2.255Z" fill="#00B8FF"/>
</svg>
