<svg width="6" height="8" viewBox="0 0 6 8" fill="none" xmlns="http://www.w3.org/2000/svg" xmlns:xlink="http://www.w3.org/1999/xlink">
<path d="M4.836,3.755C4.836,4.301 4.673,4.836 4.37,5.291C4.066,5.745 3.634,6.1 3.129,6.309C2.624,6.518 2.068,6.573 1.532,6.466C0.996,6.359 0.503,6.096 0.116,5.71C-0.27,5.323 -0.534,4.83 -0.64,4.294C-0.747,3.758 -0.692,3.202 -0.483,2.697C-0.274,2.192 0.081,1.76 0.535,1.456C0.99,1.152 1.524,0.99 2.071,0.99C2.804,0.99 3.507,1.281 4.026,1.8C4.544,2.318 4.836,3.022 4.836,3.755L4.836,3.755Z" fill="#00B8FF"/>
</svg>
