<svg width="6" height="6" viewBox="0 0 6 6" fill="none" xmlns="http://www.w3.org/2000/svg" xmlns:xlink="http://www.w3.org/1999/xlink">
<path d="M4.836,2.005C4.836,2.551 4.673,3.086 4.37,3.541C4.066,3.995 3.634,4.35 3.129,4.559C2.624,4.768 2.068,4.823 1.532,4.716C0.996,4.609 0.503,4.346 0.116,3.96C-0.27,3.573 -0.534,3.08 -0.64,2.544C-0.747,2.008 -0.692,1.452 -0.483,0.947C-0.274,0.442 0.081,0.01 0.535,-0.294C0.99,-0.598 1.524,-0.76 2.071,-0.76C2.804,-0.76 3.507,-0.469 4.026,0.05C4.544,0.568 4.836,1.272 4.836,2.005L4.836,2.005Z" fill="#00B8FF"/>
</svg>
