<svg width="6" height="6" viewBox="0 0 6 6" fill="none" xmlns="http://www.w3.org/2000/svg" xmlns:xlink="http://www.w3.org/1999/xlink">
<path d="M4.836,2.255C4.836,2.801 4.673,3.336 4.37,3.791C4.066,4.245 3.634,4.6 3.129,4.809C2.624,5.018 2.068,5.073 1.532,4.966C0.996,4.859 0.503,4.596 0.116,4.21C-0.27,3.823 -0.534,3.33 -0.64,2.794C-0.747,2.258 -0.692,1.702 -0.483,1.197C-0.274,0.692 0.081,0.26 0.535,-0.044C0.99,-0.348 1.524,-0.51 2.071,-0.51C2.804,-0.51 3.507,-0.219 4.026,0.3C4.544,0.818 4.836,1.522 4.836,2.255L4.836,2.255Z" fill="#00B8FF"/>
</svg>
