<svg width="6" height="6" viewBox="0 0 6 6" fill="none" xmlns="http://www.w3.org/2000/svg" xmlns:xlink="http://www.w3.org/1999/xlink">
<path d="M5.875,2.513C5.875,3.059 5.713,3.594 5.409,4.048C5.105,4.503 4.673,4.857 4.168,5.067C3.663,5.276 3.107,5.331 2.571,5.224C2.035,5.117 1.542,4.854 1.155,4.467C0.769,4.081 0.505,3.588 0.399,3.052C0.292,2.516 0.347,1.96 0.556,1.455C0.765,0.949 1.12,0.518 1.574,0.214C2.029,-0.09 2.563,-0.252 3.11,-0.252C3.843,-0.252 4.547,0.039 5.065,0.558C5.583,1.076 5.875,1.779 5.875,2.513L5.875,2.513Z" fill="#00B8FF"/>
</svg>
