<svg width="6" height="6" viewBox="0 0 6 6" fill="none" xmlns="http://www.w3.org/2000/svg" xmlns:xlink="http://www.w3.org/1999/xlink">
<path d="M4.836,2.763C4.836,3.309 4.673,3.844 4.37,4.298C4.066,4.753 3.634,5.107 3.129,5.317C2.624,5.526 2.068,5.581 1.532,5.474C0.996,5.367 0.503,5.104 0.116,4.717C-0.27,4.331 -0.534,3.838 -0.64,3.302C-0.747,2.766 -0.692,2.21 -0.483,1.705C-0.274,1.199 0.081,0.768 0.535,0.464C0.99,0.16 1.524,-0.002 2.071,-0.002C2.804,-0.002 3.507,0.289 4.026,0.808C4.544,1.326 4.836,2.029 4.836,2.763L4.836,2.763Z" fill="#00B8FF"/>
</svg>
