<svg width="6" height="6" viewBox="0 0 6 6" fill="none" xmlns="http://www.w3.org/2000/svg" xmlns:xlink="http://www.w3.org/1999/xlink">
<path d="M4.836,3.231C4.836,3.778 4.673,4.312 4.37,4.767C4.066,5.222 3.634,5.576 3.129,5.785C2.624,5.995 2.068,6.049 1.532,5.943C0.996,5.836 0.503,5.573 0.116,5.186C-0.27,4.799 -0.534,4.307 -0.64,3.771C-0.747,3.234 -0.692,2.678 -0.483,2.173C-0.274,1.668 0.081,1.237 0.535,0.933C0.99,0.629 1.524,0.467 2.071,0.467C2.804,0.467 3.507,0.758 4.026,1.277C4.544,1.795 4.836,2.498 4.836,3.231L4.836,3.231Z" fill="#00B8FF"/>
</svg>
