<svg width="48" height="48" viewBox="0 0 48 48" fill="none" xmlns="http://www.w3.org/2000/svg" xmlns:xlink="http://www.w3.org/1999/xlink">
<path d="M38.777,20.021L45.606,13.594L45.646,13.554C47.053,12.148 47.843,10.24 47.843,8.25C47.843,6.261 47.053,4.353 45.646,2.947C44.239,1.54 42.332,0.75 40.342,0.75C38.353,0.75 36.445,1.54 35.038,2.947C35.038,2.961 35.012,2.972 34.998,2.986L28.572,9.816L9.119,2.738C8.783,2.616 8.42,2.592 8.072,2.669C7.724,2.747 7.405,2.922 7.152,3.174L1.527,8.799C1.331,8.995 1.181,9.232 1.088,9.493C0.995,9.755 0.96,10.033 0.988,10.309C1.015,10.585 1.103,10.852 1.246,11.089C1.389,11.327 1.583,11.53 1.813,11.684L16.787,21.666L13.314,25.128L8.465,25.128C7.968,25.128 7.492,25.325 7.141,25.676L1.516,31.301C1.296,31.52 1.135,31.79 1.045,32.086C0.955,32.383 0.941,32.697 1.002,33.001C1.064,33.305 1.2,33.588 1.397,33.827C1.595,34.065 1.849,34.251 2.137,34.367L10.766,37.819L14.212,46.432L14.226,46.47C14.345,46.758 14.534,47.013 14.777,47.209C15.019,47.406 15.307,47.539 15.613,47.597C15.92,47.654 16.236,47.634 16.534,47.539C16.831,47.443 17.099,47.275 17.315,47.049L22.909,41.452C23.084,41.279 23.224,41.072 23.319,40.845C23.414,40.618 23.464,40.374 23.465,40.128L23.465,35.279L26.924,31.819L36.906,46.793C37.06,47.024 37.263,47.218 37.501,47.361C37.739,47.503 38.005,47.592 38.281,47.619C38.557,47.646 38.836,47.612 39.097,47.519C39.358,47.425 39.595,47.275 39.791,47.079L45.416,41.454C45.669,41.202 45.844,40.883 45.921,40.535C45.998,40.186 45.974,39.823 45.852,39.488L38.777,20.021ZM38.76,42.809L28.778,27.837C28.625,27.605 28.422,27.409 28.184,27.265C27.946,27.121 27.679,27.031 27.402,27.003C27.339,27.003 27.278,27.003 27.217,27.003C26.971,27.003 26.727,27.052 26.499,27.146C26.271,27.241 26.065,27.379 25.891,27.554L20.266,33.179C19.914,33.53 19.716,34.006 19.715,34.503L19.715,39.352L16.652,42.415L13.956,35.675C13.862,35.441 13.721,35.228 13.543,35.05C13.365,34.871 13.152,34.731 12.918,34.636L6.182,31.941L9.243,28.878L14.09,28.878C14.336,28.878 14.58,28.83 14.808,28.736C15.035,28.641 15.242,28.503 15.416,28.329L21.041,22.704C21.238,22.508 21.388,22.271 21.482,22.009C21.575,21.748 21.61,21.469 21.582,21.193C21.555,20.917 21.467,20.65 21.324,20.412C21.181,20.174 20.987,19.971 20.755,19.817L5.784,9.833L8.948,6.671L28.452,13.763C28.796,13.889 29.169,13.912 29.526,13.829C29.882,13.746 30.206,13.56 30.459,13.294L37.71,5.581C38.417,4.895 39.365,4.514 40.35,4.522C41.335,4.529 42.278,4.924 42.974,5.621C43.671,6.317 44.065,7.26 44.072,8.245C44.079,9.23 43.698,10.178 43.012,10.885L35.308,18.134C35.042,18.386 34.856,18.711 34.773,19.067C34.69,19.424 34.713,19.797 34.839,20.14L41.931,39.645L38.76,42.809Z" transform="rotate(193.105 24.404 24.189)" fill="#00B8FF"/>
</svg>
