<svg width="3842" height="1552" viewBox="0 0 3842 1552" fill="none" xmlns="http://www.w3.org/2000/svg" xmlns:xlink="http://www.w3.org/1999/xlink">
<path d="M1034.978,1190.999C1033.442,1192.083 1031.86,1193.203 1030.294,1194.317C1028.626,1195.615 1027.006,1196.843 1025.348,1198.157C1028.55,1195.785 1031.738,1193.435 1034.978,1191.015M1053.202,1177.505C1050.28,1179.481 1047.354,1181.449 1044.424,1183.403C1041.122,1186.007 1037.958,1188.373 1034.672,1190.945C1037.612,1188.865 1040.554,1186.791 1043.504,1184.695C1046.782,1182.229 1049.932,1179.955 1053.202,1177.491L1053.202,1177.505ZM1062.418,1171.361L1057.488,1174.671C1055.73,1176.001 1054.04,1177.213 1052.282,1178.511C1055.606,1176.123 1058.962,1173.765 1062.38,1171.323L1062.418,1171.361ZM1067.956,1166.561L1057.588,1173.151C1054.11,1175.915 1050.676,1178.527 1047.25,1181.277C1050.6,1179.027 1053.948,1176.783 1057.32,1174.503C1060.86,1171.769 1064.308,1169.273 1067.918,1166.523L1067.956,1166.561ZM1079.676,1159.119C1076.45,1161.179 1073.256,1163.197 1070.052,1165.263C1067.204,1167.445 1064.4,1169.541 1061.604,1171.685C1064.53,1169.725 1067.45,1167.775 1070.384,1165.779C1073.456,1163.435 1076.466,1161.385 1079.638,1159.081L1079.676,1159.119ZM1089.046,1153.167C1086.802,1154.603 1084.598,1155.995 1082.386,1157.399C1081.082,1158.345 1079.744,1159.351 1078.448,1160.295C1081.918,1157.921 1085.406,1155.611 1089.022,1153.129L1089.046,1153.167ZM1079.83,1157.337C1076.428,1159.365 1072.994,1161.423 1069.6,1163.435C1066.144,1166.209 1062.596,1169.127 1059.162,1171.883C1062.746,1169.627 1066.33,1167.353 1069.914,1165.065C1073.14,1162.507 1076.52,1159.835 1079.806,1157.299L1079.83,1157.337ZM1091.134,1150.611C1087.898,1152.545 1084.676,1154.465 1081.466,1156.371C1078.332,1158.781 1075.114,1161.323 1071.996,1163.713C1075.414,1161.547 1078.808,1159.403 1082.248,1157.199C1085.182,1155.027 1088.17,1152.737 1091.112,1150.571L1091.134,1150.611ZM1101.71,1144.313C1098.814,1146.057 1095.972,1147.739 1093.108,1149.435C1090.404,1151.417 1087.64,1153.521 1084.96,1155.479C1088.032,1153.521 1091.104,1151.601 1094.244,1149.581C1096.702,1147.853 1099.214,1145.995 1101.686,1144.275L1101.71,1144.313ZM1110.296,1139.197C1108.26,1140.435 1106.28,1141.601 1104.282,1142.785C1102.294,1144.167 1100.25,1145.641 1098.276,1147.023C1102.24,1144.433 1106.238,1141.811 1110.272,1139.159L1110.296,1139.197ZM16.126,860.575C16.126,860.767 16.372,865.237 17.148,873.177C16.165,858.271 15.957,848.417 15.911,845.193C15.911,849.623 15.957,854.677 16.088,860.553L16.126,860.575ZM1092.44,1147.507C1089.076,1149.367 1085.666,1151.279 1082.31,1153.113C1078.47,1156.185 1074.63,1159.327 1070.844,1162.377C1074.316,1160.317 1077.818,1158.221 1081.304,1156.147C1084.99,1153.307 1088.73,1150.387 1092.44,1147.507ZM1103.492,1141.363L1093.768,1146.739C1090.16,1149.535 1086.526,1152.369 1082.94,1155.133C1086.272,1153.153 1089.598,1151.179 1092.924,1149.167C1096.442,1146.639 1099.982,1144.013 1103.492,1141.395L1103.492,1141.363ZM1114.066,1135.511C1111.034,1137.209 1108.038,1138.853 1105.028,1140.519C1101.656,1143.007 1098.27,1145.541 1094.92,1147.999C1097.992,1146.179 1101.064,1144.389 1104.136,1142.523C1107.454,1140.251 1110.764,1137.869 1114.066,1135.565L1114.066,1135.511ZM1123.644,1130.213C1121.04,1131.687 1118.498,1133.061 1115.964,1134.483C1112.892,1136.641 1109.82,1138.845 1106.748,1140.987C1109.174,1139.543 1111.586,1138.137 1114.074,1136.625C1117.208,1134.559 1120.448,1132.363 1123.644,1130.243L1123.644,1130.213ZM1130.556,1126.373C1129.02,1127.233 1127.576,1128.039 1126.11,1128.845C1123.536,1130.557 1120.932,1132.309 1118.368,1134.007C1122.368,1131.563 1126.486,1128.929 1130.494,1126.425L1130.556,1126.373ZM19.444,898.085C19.974,901.003 20.581,904.151 21.28,907.593C20.066,899.681 19.137,892.693 18.392,886.571C18.699,890.205 19.045,894.053 19.444,898.085ZM16.802,882.163C17.24,885.235 17.908,889.591 18.93,895.305C18.423,889.929 18.023,885.043 17.678,880.435C16.91,873.523 16.464,868.377 16.203,865.007C16.341,870.297 16.526,875.981 16.802,882.163ZM1105.512,1137.377C1102.186,1139.051 1098.814,1140.803 1095.528,1142.469C1091.45,1145.787 1087.432,1149.005 1083.378,1152.277C1086.788,1150.411 1090.236,1148.437 1093.662,1146.585C1097.594,1143.513 1101.526,1140.489 1105.512,1137.377ZM1116.34,1131.871L1106.618,1136.817C1102.7,1139.889 1098.846,1142.839 1094.952,1145.857L1104.936,1140.357C1108.706,1137.531 1112.5,1134.735 1116.34,1131.871ZM1126.854,1126.495C1123.782,1128.085 1120.71,1129.637 1117.576,1131.211C1113.836,1133.999 1110.142,1136.717 1106.426,1139.475C1109.552,1137.747 1112.654,1136.049 1115.802,1134.291C1119.49,1131.725 1123.152,1129.153 1126.854,1126.525L1126.854,1126.495ZM1136.838,1121.435C1133.974,1122.923 1131.17,1124.321 1128.336,1125.757C1124.772,1128.293 1121.248,1130.757 1117.708,1133.253C1120.464,1131.717 1123.198,1130.259 1126.002,1128.645L1136.838,1121.435ZM1146.362,1116.495C1143.76,1117.863 1141.17,1119.211 1138.59,1120.543C1135.194,1122.847 1131.822,1125.067 1128.436,1127.317C1131.17,1125.781 1133.95,1124.129 1136.692,1122.555C1139.886,1120.573 1143.098,1118.565 1146.322,1116.527L1146.362,1116.495ZM1155.416,1111.643C1153.42,1112.695 1151.408,1113.785 1149.394,1114.867C1147.244,1116.227 1145.102,1117.555 1142.958,1118.899L1155.416,1111.643ZM24.805,927.191C25.614,929.865 26.487,932.663 27.424,935.585C25.734,928.865 24.259,922.607 23,916.855C23.553,920.165 24.16,923.643 24.805,927.191ZM21.264,914.949C22.124,918.107 23.123,921.585 24.244,925.333C23.476,920.901 22.747,916.701 22.086,912.615C21.187,908.375 20.404,904.459 19.728,900.895C20.184,905.381 20.696,910.065 21.264,914.949ZM17.862,901.647C18.63,904.765 19.575,908.683 20.857,913.421C20.235,908.045 19.698,902.977 19.214,898.107C18.185,892.517 17.432,887.915 16.91,884.459C17.163,889.875 17.486,895.643 17.862,901.647ZM1118.852,1127.033C1115.572,1128.531 1112.246,1130.105 1108.982,1131.579C1104.712,1135.081 1100.604,1138.315 1096.356,1141.771C1099.714,1140.089 1103.108,1138.331 1106.472,1136.625C1110.634,1133.385 1114.666,1130.327 1118.852,1127.033ZM1129.45,1122.155L1119.788,1126.603C1115.656,1129.859 1111.678,1132.861 1107.578,1136.065C1110.864,1134.405 1114.154,1132.733 1117.446,1131.049C1121.47,1128.039 1125.394,1125.205 1129.45,1122.155ZM1139.834,1117.363C1136.708,1118.823 1133.598,1120.243 1130.472,1121.679C1126.494,1124.683 1122.638,1127.463 1118.682,1130.419C1121.846,1128.815 1124.988,1127.233 1128.168,1125.597C1132.076,1122.817 1135.87,1120.205 1139.834,1117.363ZM1149.878,1112.755C1146.892,1114.161 1143.958,1115.481 1140.994,1116.849C1137.152,1119.607 1133.428,1122.163 1129.604,1124.883C1132.544,1123.347 1135.448,1121.941 1138.428,1120.397C1142.26,1117.809 1146.024,1115.351 1149.878,1112.741L1149.878,1112.755ZM1159.97,1107.993C1157.042,1109.391 1154.128,1110.771 1151.23,1112.133C1147.506,1114.661 1143.88,1117.017 1140.178,1119.507C1143.182,1117.971 1146.216,1116.311 1149.226,1114.729C1152.82,1112.449 1156.354,1110.275 1159.97,1107.979L1159.97,1107.993ZM1170.508,1102.863C1167.666,1104.231 1164.778,1105.659 1161.922,1107.041C1158.664,1109.115 1155.492,1111.059 1152.26,1113.101C1155.17,1111.565 1158.096,1109.953 1161,1108.409C1164.178,1106.527 1167.312,1104.731 1170.508,1102.849L1170.508,1102.863ZM1179.394,1098.533L1173.296,1101.505C1171.09,1102.803 1168.948,1104.023 1166.76,1105.345C1170.96,1103.049 1175.154,1100.813 1179.394,1098.517L1179.394,1098.533ZM31.832,951.407C32.861,953.711 33.982,956.145 35.127,958.603C33.007,952.873 31.09,947.439 29.374,942.297C30.153,945.257 30.972,948.293 31.832,951.407ZM27.485,941.261C28.637,944.019 29.866,946.891 31.21,949.939C30.173,946.161 29.182,942.483 28.276,938.949C27.132,935.479 26.103,932.207 25.143,929.065C25.857,933.029 26.648,937.107 27.485,941.261ZM23.269,930.817C24.382,933.697 25.65,936.853 27.04,940.225C26.154,935.745 25.332,931.415 24.574,927.237C23.407,923.397 22.347,919.735 21.441,916.485C21.994,921.089 22.603,925.865 23.269,930.817ZM19.198,919.695C20.189,922.537 21.418,925.947 22.946,929.925C22.245,924.765 21.615,919.785 21.057,914.987C19.759,910.241 18.753,906.271 17.985,903.023C18.318,908.367 18.722,913.925 19.198,919.695ZM1132.03,1116.681C1128.79,1117.985 1125.494,1119.383 1122.262,1120.673C1118.03,1124.183 1113.882,1127.539 1109.682,1130.987C1112.968,1129.497 1116.318,1127.915 1119.62,1126.379C1123.806,1123.139 1127.876,1120.005 1132.03,1116.681ZM1142.414,1112.425C1139.204,1113.739 1135.978,1115.075 1132.776,1116.373C1128.658,1119.645 1124.642,1122.763 1120.556,1125.981L1130.318,1121.487C1134.404,1118.431 1138.358,1115.535 1142.444,1112.425L1142.414,1112.425ZM1152.674,1108.225C1149.51,1109.529 1146.37,1110.813 1143.212,1112.065C1139.212,1115.137 1135.318,1117.977 1131.346,1120.973C1134.51,1119.513 1137.66,1118.077 1140.84,1116.603C1144.84,1113.793 1148.704,1111.119 1152.704,1108.225L1152.674,1108.225ZM1162.75,1104.077C1159.678,1105.367 1156.606,1106.581 1153.534,1107.841C1149.632,1110.667 1145.854,1113.309 1142.014,1116.081C1145.04,1114.683 1148.028,1113.347 1151.092,1111.903C1155.07,1109.261 1158.834,1106.803 1162.75,1104.077ZM1172.988,1099.777L1163.726,1103.677C1159.886,1106.289 1156.214,1108.709 1152.42,1111.281C1155.492,1109.815 1158.65,1108.301 1161.768,1106.811C1165.576,1104.439 1169.216,1102.241 1173.018,1099.799L1172.988,1099.777ZM1183.632,1095.169C1180.506,1096.513 1177.342,1097.911 1174.216,1099.255C1170.676,1101.559 1167.244,1103.631 1163.718,1105.875C1166.852,1104.339 1170.008,1102.803 1173.142,1101.267C1176.698,1099.201 1180.108,1097.303 1183.664,1095.177L1183.632,1095.169ZM1193.846,1090.737L1185.152,1094.507C1182.034,1096.375 1179.01,1098.095 1175.938,1099.929C1178.794,1098.543 1181.656,1097.147 1184.524,1095.745C1187.68,1094.039 1190.72,1092.481 1193.878,1090.745L1193.846,1090.737ZM1202.54,1086.959C1200.36,1087.919 1198.202,1088.841 1196.044,1089.777C1193.938,1090.945 1191.88,1092.027 1189.776,1093.179C1194.046,1091.137 1198.27,1089.117 1202.572,1086.967L1202.54,1086.959ZM40.326,971.567C41.609,973.617 42.914,975.675 44.312,977.817C41.755,972.887 39.435,968.171 37.262,963.641C38.26,966.251 39.251,968.863 40.326,971.567ZM35.326,963.395C36.716,965.699 38.176,968.103 39.735,970.591C38.46,967.357 37.216,964.163 36.064,961.083C34.712,958.227 33.452,955.477 32.224,952.811C33.191,956.253 34.22,959.793 35.326,963.395ZM30.373,954.947C31.771,957.405 33.253,959.969 34.873,962.681C33.744,958.841 32.654,955.131 31.648,951.507C30.227,948.319 28.944,945.363 27.739,942.459C28.522,946.475 29.413,950.653 30.342,954.917L30.373,954.947ZM25.504,946.077C26.848,948.611 28.33,951.323 29.989,954.263C29.031,949.855 28.133,945.563 27.293,941.385C25.857,937.935 24.574,934.741 23.453,931.791C24.052,936.405 24.725,941.157 25.473,946.045L25.504,946.077ZM20.734,936.769C21.963,939.257 23.422,942.145 25.173,945.447C24.411,940.445 23.712,935.581 23.077,930.855C21.541,926.877 20.297,923.459 19.237,920.563C19.682,925.817 20.158,931.209 20.734,936.769ZM1144.764,1106.381C1141.614,1107.487 1138.412,1108.685 1135.28,1109.737C1131.178,1113.163 1126.946,1116.787 1122.868,1120.167C1126.116,1118.861 1129.426,1117.463 1132.684,1116.143C1136.638,1113.017 1140.77,1109.615 1144.764,1106.381ZM1154.832,1102.809C1151.698,1103.923 1148.55,1105.053 1145.416,1106.151C1141.454,1109.331 1137.368,1112.709 1133.428,1115.843L1143.12,1111.873C1146.968,1108.977 1150.962,1105.813 1154.832,1102.841L1154.832,1102.809ZM1164.816,1099.277C1161.744,1100.383 1158.652,1101.479 1155.538,1102.565C1151.698,1105.513 1147.744,1108.639 1143.934,1111.543L1153.474,1107.641C1157.19,1104.969 1161.06,1102.043 1164.808,1099.307L1164.816,1099.277ZM1174.662,1095.783C1171.59,1096.889 1168.602,1097.933 1165.568,1099.009C1161.852,1101.719 1158.034,1104.607 1154.34,1107.279C1157.412,1106.005 1160.484,1104.783 1163.65,1103.439C1167.258,1101.005 1171.014,1098.325 1174.654,1095.813L1174.662,1095.783ZM1184.538,1092.203C1181.506,1093.325 1178.494,1094.409 1175.476,1095.491C1171.89,1097.971 1168.196,1100.629 1164.624,1103.071C1167.78,1101.743 1170.968,1100.383 1174.148,1099.031C1177.558,1096.865 1181.098,1094.461 1184.53,1092.235L1184.538,1092.203ZM1194.776,1088.363C1191.704,1089.509 1188.632,1090.713 1185.56,1091.851C1182.204,1094.025 1178.756,1096.359 1175.414,1098.509C1178.64,1097.127 1181.896,1095.691 1185.114,1094.301C1188.256,1092.403 1191.566,1090.315 1194.768,1088.379L1194.776,1088.363ZM1204.814,1084.577C1201.85,1085.699 1198.878,1086.827 1195.92,1087.933C1192.848,1089.801 1189.662,1091.773 1186.59,1093.641C1189.712,1092.299 1192.844,1090.941 1195.982,1089.569C1198.846,1087.949 1201.918,1086.221 1204.806,1084.593L1204.814,1084.577ZM1214.39,1080.969C1211.656,1082.013 1208.938,1083.027 1206.22,1084.041C1203.5,1085.577 1200.704,1087.189 1197.994,1088.649C1200.92,1087.381 1203.83,1086.129 1206.78,1084.809C1209.276,1083.641 1211.902,1082.259 1214.384,1080.983L1214.39,1080.969ZM1222.516,1077.897C1220.42,1078.711 1218.354,1079.433 1216.28,1080.247C1214.214,1081.299 1212.086,1082.419 1210.028,1083.465C1214.17,1081.651 1218.33,1079.803 1222.508,1077.919L1222.516,1077.897ZM50.226,988.455C51.723,990.159 53.205,991.865 54.834,993.631C51.884,989.469 49.143,985.459 46.562,981.573C47.737,983.847 48.943,986.121 50.226,988.455ZM44.542,981.857C46.155,983.763 47.822,985.697 49.58,987.717C48.083,984.975 46.616,982.257 45.241,979.615C43.705,977.249 42.215,974.961 40.787,972.703C41.977,975.699 43.237,978.755 44.542,981.857ZM38.905,975.053C40.533,977.055 42.251,979.133 44.059,981.289C42.699,978.025 41.363,974.799 40.119,971.659C38.498,969.093 36.985,966.621 35.511,964.233C36.601,967.765 37.738,971.397 38.905,975.053ZM33.345,968.049C34.95,970.115 36.686,972.303 38.521,974.577C37.323,970.813 36.163,967.097 35.088,963.479C33.452,960.761 31.916,958.103 30.48,955.669C31.394,959.693 32.354,963.855 33.345,968.057L33.345,968.049ZM27.854,960.753C29.39,962.895 31.102,965.145 33.015,967.627C31.993,963.325 31.026,959.101 30.127,954.985C28.43,952.005 26.947,949.279 25.573,946.713C26.274,951.271 27.035,955.953 27.854,960.761L27.854,960.753ZM22.439,953.157C23.875,955.255 25.596,957.673 27.547,960.339C26.727,955.495 25.959,950.751 25.243,946.107C23.491,942.813 22.009,939.917 20.765,937.405C21.257,942.537 21.815,947.789 22.439,953.165L22.439,953.157ZM17.117,945.101C18.077,946.637 19.744,949.263 22.163,952.781C21.548,947.343 20.985,942.031 20.473,936.845C17.923,931.661 16.518,928.397 16.088,927.383C16.375,933.129 16.718,939.033 17.117,945.101ZM1157.774,1095.945C1154.702,1096.835 1151.63,1097.765 1148.558,1098.633C1144.288,1102.219 1139.98,1105.867 1135.74,1109.385C1138.888,1108.293 1142.122,1107.081 1145.286,1105.997C1149.426,1102.671 1153.618,1099.261 1157.774,1095.905L1157.774,1095.945ZM1167.536,1093.057C1164.464,1093.955 1161.39,1094.885 1158.32,1095.767C1154.188,1099.109 1150.016,1102.503 1145.916,1105.751C1149.056,1104.645 1152.228,1103.509 1155.37,1102.395C1159.424,1099.315 1163.518,1096.137 1167.536,1093.017L1167.536,1093.057ZM1177.242,1090.185L1168.15,1092.873C1164.14,1095.945 1160.094,1099.131 1156.108,1102.187C1159.22,1101.087 1162.334,1099.983 1165.446,1098.877C1169.348,1095.991 1173.31,1093.033 1177.242,1090.145L1177.242,1090.185ZM1186.842,1087.343C1183.84,1088.249 1180.876,1089.109 1177.888,1089.993C1173.994,1092.857 1170.062,1095.783 1166.198,1098.609C1169.27,1097.519 1172.282,1096.475 1175.36,1095.361C1179.162,1092.695 1183.026,1089.969 1186.842,1087.305L1186.842,1087.343ZM1196.45,1084.455C1193.462,1085.377 1190.506,1086.245 1187.542,1087.135C1183.762,1089.769 1179.938,1092.473 1176.182,1095.069C1179.254,1093.955 1182.326,1092.841 1185.398,1091.705C1189.062,1089.293 1192.772,1086.821 1196.45,1084.417L1196.45,1084.455ZM1206.342,1081.337C1203.324,1082.273 1200.26,1083.273 1197.25,1084.201C1193.64,1086.567 1189.984,1089.001 1186.39,1091.337C1189.516,1090.169 1192.68,1088.947 1195.806,1087.781C1199.292,1085.645 1202.84,1083.433 1206.342,1081.299L1206.342,1081.337ZM1216.096,1078.265C1213.146,1079.201 1210.194,1080.133 1207.24,1081.061C1203.824,1083.149 1200.328,1085.299 1196.95,1087.357L1206.112,1083.909C1209.414,1082.021 1212.778,1080.085 1216.096,1078.219L1216.096,1078.265ZM1225.612,1075.269L1217.164,1077.935C1213.954,1079.739 1210.712,1081.597 1207.518,1083.379C1210.404,1082.289 1213.284,1081.221 1216.188,1080.107C1219.298,1078.487 1222.478,1076.821 1225.612,1075.223L1225.612,1075.269ZM1234.55,1072.451C1231.978,1073.281 1229.452,1074.057 1226.87,1074.855C1223.93,1076.391 1220.958,1077.927 1218.032,1079.401C1220.512,1078.465 1222.97,1077.565 1225.48,1076.591C1228.498,1075.201 1231.548,1073.771 1234.55,1072.405L1234.55,1072.451ZM1242.362,1069.917L1236.31,1071.899C1233.844,1073.019 1231.364,1074.201 1228.906,1075.285C1233.406,1073.487 1237.9,1071.637 1242.362,1069.871L1242.362,1069.917ZM61.438,1002.325C63.097,1003.661 64.771,1005.005 66.523,1006.387C63.205,1002.973 60.066,999.645 57.107,996.403C58.474,998.355 59.902,1000.335 61.438,1002.325ZM55.133,997.141C56.961,998.677 58.804,1000.213 60.755,1001.749C59.073,999.445 57.399,997.203 55.817,994.991C54.05,993.047 52.368,991.151 50.725,989.291C52.092,991.881 53.597,994.515 55.095,997.141L55.133,997.141ZM48.882,991.841C50.725,993.431 52.637,995.051 54.642,996.733C53.106,993.985 51.57,991.251 50.072,988.585C48.244,986.511 46.516,984.499 44.857,982.533C46.078,985.583 47.461,988.701 48.843,991.841L48.882,991.841ZM42.684,986.389C44.522,988.033 46.455,989.733 48.482,991.489C47.069,988.279 45.679,985.091 44.373,981.973C42.53,979.787 40.782,977.677 39.128,975.645C40.219,979.163 41.409,982.733 42.645,986.389L42.684,986.389ZM36.54,980.783C38.345,982.465 40.288,984.231 42.346,986.081C41.094,982.387 39.888,978.739 38.752,975.169C36.885,972.865 35.134,970.667 33.514,968.579C34.42,972.573 35.442,976.651 36.494,980.783L36.54,980.783ZM30.442,974.985C32.208,976.697 34.136,978.539 36.225,980.491C35.165,976.313 34.136,972.197 33.153,968.157C31.241,965.683 29.536,963.411 27.954,961.245C28.711,965.751 29.525,970.331 30.396,974.985L30.442,974.985ZM24.359,968.909C26.026,970.621 27.931,972.535 30.112,974.669C29.236,969.969 28.409,965.361 27.631,960.845C25.688,958.195 23.945,955.753 22.493,953.657C23.072,958.659 23.694,963.743 24.359,968.909ZM18.43,962.589C19.759,964.055 21.618,966.075 24.129,968.671C23.453,963.433 22.828,958.291 22.255,953.241C19.874,949.787 18.208,947.191 17.186,945.563C17.504,951.127 17.918,956.803 18.43,962.589ZM1171.06,1085.199C1168.08,1085.883 1165.086,1086.583 1162.128,1087.235C1157.728,1090.959 1153.396,1094.569 1149.034,1098.241C1152.106,1097.365 1155.178,1096.421 1158.25,1095.529C1162.496,1092.089 1166.728,1088.717 1171.022,1085.199L1171.06,1085.199ZM1180.522,1083.003C1177.55,1083.687 1174.546,1084.401 1171.574,1085.085C1167.304,1088.555 1163.126,1091.935 1158.856,1095.361C1161.928,1094.461 1165,1093.533 1168.072,1092.627C1172.182,1089.423 1176.306,1086.253 1180.484,1083.003L1180.522,1083.003ZM1189.946,1080.815L1181.06,1082.881C1176.912,1086.113 1172.812,1089.263 1168.688,1092.449L1177.818,1089.747C1181.82,1086.775 1185.836,1083.825 1189.906,1080.815L1189.946,1080.815ZM1199.3,1078.633C1196.358,1079.333 1193.44,1080.001 1190.514,1080.683C1186.474,1083.679 1182.48,1086.605 1178.464,1089.555C1181.474,1088.663 1184.454,1087.803 1187.48,1086.889C1191.382,1084.147 1195.306,1081.421 1199.262,1078.633L1199.3,1078.633ZM1208.638,1076.437C1205.712,1077.143 1202.818,1077.811 1199.906,1078.495C1195.974,1081.259 1192.08,1083.963 1188.178,1086.681C1191.174,1085.775 1194.17,1084.885 1197.188,1083.955C1200.958,1081.459 1204.768,1078.971 1208.6,1076.429L1208.638,1076.437ZM1218.2,1074.063C1215.25,1074.785 1212.264,1075.553 1209.314,1076.267C1205.52,1078.779 1201.764,1081.237 1197.994,1083.703C1201.066,1082.757 1204.138,1081.751 1207.21,1080.807C1210.85,1078.575 1214.5,1076.327 1218.162,1074.063L1218.2,1074.063ZM1227.684,1071.705C1224.774,1072.427 1221.848,1073.165 1218.946,1073.879C1215.312,1076.115 1211.702,1078.311 1208.094,1080.515C1211.088,1079.585 1214.098,1078.625 1217.102,1077.681L1227.684,1071.705ZM1237.024,1069.403C1234.182,1070.123 1231.348,1070.815 1228.514,1071.521C1225.05,1073.487 1221.602,1075.423 1218.162,1077.367C1221.058,1076.459 1223.944,1075.553 1226.864,1074.625C1230.202,1072.883 1233.576,1071.135 1236.986,1069.379L1237.024,1069.403ZM1246.11,1067.151C1243.382,1067.843 1240.734,1068.489 1238,1069.163C1234.712,1070.863 1231.432,1072.545 1228.162,1074.209C1230.864,1073.365 1233.536,1072.543 1236.264,1071.659C1239.51,1070.155 1242.778,1068.645 1246.07,1067.129L1246.11,1067.151ZM1255.11,1064.847L1247.308,1066.875L1238.014,1071.053C1240.71,1070.169 1243.452,1069.233 1246.14,1068.349C1249.11,1067.187 1252.086,1066.005 1255.072,1064.801L1255.11,1064.847ZM1263.358,1062.605C1261.232,1063.159 1259.08,1063.735 1256.954,1064.303L1249.98,1067.083L1263.358,1062.605ZM73.726,1013.391C75.493,1014.375 77.336,1015.373 79.187,1016.379C75.593,1013.707 72.137,1011.087 68.857,1008.537C70.447,1010.135 72.098,1011.763 73.726,1013.391ZM66.814,1009.551C68.834,1010.703 70.846,1011.855 72.958,1013.039C71.123,1011.211 69.318,1009.405 67.582,1007.663C65.593,1006.127 63.742,1004.591 61.853,1003.055C63.512,1005.159 65.171,1007.309 66.853,1009.521L66.814,1009.551ZM59.987,1005.605C62.03,1006.803 64.119,1008.015 66.307,1009.267C64.556,1006.963 62.844,1004.729 61.2,1002.509C59.173,1000.881 57.253,999.291 55.371,997.733C56.892,1000.289 58.443,1002.917 60.025,1005.573L59.987,1005.605ZM53.198,1001.573C55.241,1002.801 57.36,1004.069 59.58,1005.367C57.962,1002.647 56.395,999.965 54.88,997.317C52.837,995.621 50.894,993.969 49.012,992.349C50.384,995.365 51.792,998.429 53.236,1001.541L53.198,1001.573ZM46.439,997.425C48.475,998.693 50.602,999.997 52.844,1001.357C51.385,998.193 49.972,995.083 48.613,992.003C46.565,990.231 44.609,988.517 42.745,986.857C43.943,990.309 45.187,993.821 46.478,997.395L46.439,997.425ZM39.727,993.171C41.729,994.461 43.861,995.815 46.124,997.233C44.834,993.619 43.593,990.055 42.4,986.543C40.326,984.691 38.383,982.909 36.555,981.221C37.589,985.121 38.659,989.095 39.765,993.139L39.727,993.171ZM33.045,988.785C34.996,990.091 37.147,991.503 39.435,992.979C38.314,988.883 37.251,984.865 36.248,980.929C34.151,978.977 32.201,977.089 30.434,975.407C31.294,979.777 32.17,984.223 33.084,988.755L33.045,988.785ZM26.418,984.231C28.299,985.551 30.365,986.981 32.777,988.601C31.85,984.039 30.972,979.545 30.142,975.123C27.946,972.979 26.057,971.075 24.375,969.347C25.051,974.209 25.719,979.155 26.456,984.201L26.418,984.231ZM19.828,979.469C21.433,980.667 23.53,982.195 26.149,984.077C25.381,979.009 24.743,974.031 24.106,969.117C21.633,966.567 19.744,964.509 18.384,963.033C18.86,968.379 19.337,973.855 19.867,979.439L19.828,979.469ZM1184.416,1074.379C1181.52,1074.847 1178.618,1075.315 1175.738,1075.769C1171.23,1079.609 1166.89,1083.173 1162.42,1086.951C1165.392,1086.291 1168.402,1085.583 1171.39,1084.901C1175.806,1081.313 1180.046,1077.965 1184.454,1074.347L1184.416,1074.379ZM1193.578,1072.843C1190.682,1073.311 1187.764,1073.803 1184.876,1074.263C1180.492,1077.865 1176.26,1081.175 1171.906,1084.747C1174.884,1084.063 1177.896,1083.349 1180.882,1082.657C1185.176,1079.347 1189.324,1076.215 1193.616,1072.851L1193.578,1072.843ZM1202.71,1071.345L1194.054,1072.759C1189.784,1076.115 1185.66,1079.233 1181.42,1082.535L1190.33,1080.461C1194.522,1077.389 1198.57,1074.479 1202.748,1071.353L1202.71,1071.345ZM1211.802,1069.809C1208.93,1070.293 1206.074,1070.753 1203.208,1071.223C1199.054,1074.295 1195.03,1077.227 1190.92,1080.293C1193.87,1079.609 1196.796,1078.941 1199.752,1078.241C1203.816,1075.439 1207.77,1072.743 1211.842,1069.855L1211.802,1069.809ZM1220.88,1068.273C1218.016,1068.765 1215.182,1069.217 1212.332,1069.693C1208.286,1072.567 1204.352,1075.239 1200.336,1078.065C1203.27,1077.373 1206.188,1076.699 1209.146,1075.983C1213.116,1073.457 1216.964,1070.991 1220.918,1068.349L1220.88,1068.273ZM1230.096,1066.653C1227.224,1067.145 1224.306,1067.681 1221.442,1068.189C1217.516,1070.807 1213.7,1073.249 1209.798,1075.869C1212.77,1075.147 1215.788,1074.333 1218.76,1073.641C1222.608,1071.329 1226.334,1069.103 1230.15,1066.729L1230.096,1066.653ZM1239.312,1065.033C1236.464,1065.531 1233.598,1066.045 1230.75,1066.569C1226.978,1068.925 1223.292,1071.123 1219.536,1073.435C1222.478,1072.713 1225.434,1071.967 1228.376,1071.237C1232.054,1069.203 1235.648,1067.213 1239.328,1065.109L1239.312,1065.033ZM1248.42,1063.427L1239.972,1064.917C1236.34,1066.999 1232.8,1068.949 1229.22,1070.999C1232.1,1070.285 1234.974,1069.579 1237.868,1068.849C1241.41,1067.097 1244.926,1065.355 1248.436,1063.503L1248.42,1063.427ZM1257.406,1061.845C1254.642,1062.345 1251.93,1062.805 1249.188,1063.297C1245.702,1065.109 1242.276,1066.813 1238.836,1068.603C1241.616,1067.913 1244.374,1067.251 1247.176,1066.529C1250.61,1065.033 1253.982,1063.527 1257.422,1061.921L1257.406,1061.845ZM1266.43,1060.301C1263.72,1060.801 1260.994,1061.315 1258.29,1061.837C1254.956,1063.373 1251.684,1064.847 1248.368,1066.383C1251.17,1065.655 1254.004,1064.893 1256.816,1064.171C1260.048,1062.813 1263.228,1061.569 1266.43,1060.301ZM1275.386,1058.611L1267.606,1060.079C1264.594,1061.299 1261.646,1062.451 1258.65,1063.649L1266.684,1061.529C1269.61,1060.509 1272.49,1059.571 1275.408,1058.573L1275.386,1058.611ZM1283.358,1057.075L1277.036,1058.265C1274.732,1059.033 1272.428,1059.801 1270.124,1060.569C1274.556,1059.419 1278.956,1058.267 1283.38,1057.075L1283.358,1057.075ZM87.09,1021.855C88.971,1022.515 90.93,1023.191 92.896,1023.867C89.125,1021.931 85.469,1020.027 81.982,1018.153C83.649,1019.375 85.346,1020.611 87.09,1021.855ZM79.694,1019.221C81.836,1019.989 84.048,1020.757 86.299,1021.579C84.325,1020.151 82.42,1018.753 80.539,1017.369C78.409,1016.219 76.335,1015.083 74.318,1013.967C76.069,1015.703 77.851,1017.455 79.694,1019.221ZM72.329,1016.533C74.563,1017.355 76.806,1018.185 79.171,1019.037C77.259,1017.193 75.424,1015.381 73.603,1013.583C71.392,1012.355 69.295,1011.165 67.206,1009.981C68.88,1012.147 70.57,1014.321 72.329,1016.525L72.329,1016.533ZM64.994,1013.783C67.229,1014.635 69.525,1015.497 71.906,1016.379C70.109,1014.121 68.389,1011.901 66.691,1009.697C64.464,1008.431 62.337,1007.195 60.256,1005.981C61.799,1008.561 63.358,1011.149 64.994,1013.783ZM57.683,1010.981C59.91,1011.851 62.229,1012.741 64.641,1013.653C62.982,1010.981 61.408,1008.353 59.856,1005.743C57.614,1004.429 55.471,1003.155 53.405,1001.903C54.795,1004.905 56.201,1007.915 57.683,1010.981ZM50.395,1008.077C52.617,1008.963 54.941,1009.879 57.368,1010.827C55.832,1007.755 54.45,1004.683 53.052,1001.665C50.794,1000.305 48.651,998.985 46.601,997.709C47.829,1001.165 49.074,1004.599 50.395,1008.077ZM43.129,1005.121C45.326,1006.027 47.65,1006.971 50.103,1007.955C48.774,1004.421 47.522,1000.965 46.263,997.517C43.959,996.097 41.847,994.737 39.827,993.439C40.91,997.325 41.985,1001.165 43.129,1005.151L43.129,1005.121ZM35.895,1002.049C38.045,1002.965 40.367,1003.937 42.86,1004.967C41.701,1000.989 40.618,997.095 39.558,993.209C37.254,991.727 35.111,990.313 33.153,989.001C34.028,993.377 34.927,997.701 35.895,1002.117L35.895,1002.049ZM28.691,998.915C30.757,999.829 33.061,1000.835 35.603,1001.933C34.627,997.495 33.729,993.147 32.846,988.815C30.442,987.203 28.361,985.743 26.471,984.439C27.193,989.285 27.9,994.085 28.691,998.985L28.691,998.915ZM21.502,995.721C23.353,996.581 25.642,997.633 28.414,998.869C27.646,993.945 26.878,989.123 26.226,984.323C23.599,982.479 21.51,980.959 19.882,979.715C20.404,985.037 20.919,990.313 21.502,995.721ZM1197.84,1063.373L1189.392,1064.141C1184.922,1067.981 1180.538,1071.683 1176.106,1075.469C1178.986,1075.017 1181.904,1074.539 1184.808,1074.071C1189.162,1070.493 1193.47,1067.021 1197.84,1063.373ZM1206.696,1062.605L1198.248,1063.373C1193.892,1066.975 1189.608,1070.455 1185.284,1074.003L1194,1072.567C1198.24,1069.217 1202.418,1065.985 1206.696,1062.605ZM1215.542,1061.837L1207.094,1062.605C1202.848,1065.961 1198.646,1069.203 1194.462,1072.513L1203.132,1071.091C1207.294,1067.981 1211.372,1064.947 1215.542,1061.837ZM1224.36,1061.069L1215.966,1061.837C1211.826,1064.963 1207.762,1067.981 1203.678,1071.053C1206.55,1070.585 1209.414,1070.123 1212.302,1069.641C1216.318,1066.691 1220.296,1063.919 1224.36,1061.007L1224.36,1061.069ZM1233.176,1060.301C1230.366,1060.563 1227.6,1060.801 1224.804,1061.069C1220.772,1063.957 1216.81,1066.721 1212.802,1069.571C1215.674,1069.087 1218.522,1068.627 1221.402,1068.135C1225.342,1065.409 1229.214,1062.881 1233.176,1060.217L1233.176,1060.301ZM1242.062,1059.433L1233.614,1060.255C1229.69,1062.889 1225.842,1065.417 1221.948,1068.019C1224.836,1067.521 1227.762,1066.991 1230.65,1066.483C1234.49,1064.033 1238.238,1061.753 1242.062,1059.349L1242.062,1059.433ZM1250.932,1058.565L1242.562,1059.387C1238.782,1061.761 1235.066,1063.995 1231.302,1066.377L1239.926,1064.841C1243.606,1062.659 1247.23,1060.631 1250.932,1058.481L1250.932,1058.565ZM1259.764,1057.705L1251.47,1058.519C1247.822,1060.631 1244.236,1062.651 1240.61,1064.733L1249.128,1063.197C1252.684,1061.291 1256.186,1059.533 1259.764,1057.621L1259.764,1057.705ZM1268.542,1056.853C1265.8,1057.129 1263.082,1057.383 1260.356,1057.621C1256.838,1059.479 1253.382,1061.245 1249.888,1063.073C1252.676,1062.575 1255.44,1062.107 1258.244,1061.599C1261.684,1059.941 1265.078,1058.405 1268.542,1056.769L1268.542,1056.853ZM1277.36,1055.955L1269.202,1056.791C1265.824,1058.381 1262.498,1059.863 1259.134,1061.477L1267.582,1059.941C1270.838,1058.489 1274.064,1057.229 1277.36,1055.869L1277.36,1055.955ZM1286.16,1055.033C1283.496,1055.309 1280.784,1055.601 1278.142,1055.869C1274.986,1057.167 1271.876,1058.405 1268.734,1059.709L1276.998,1058.173C1280.062,1056.999 1283.08,1056.009 1286.16,1054.925L1286.16,1055.033ZM1294.754,1054.135L1287.136,1054.903C1284.294,1055.877 1281.484,1056.823 1278.688,1057.783L1286.476,1056.323C1289.216,1055.517 1291.958,1054.809 1294.754,1054.049L1294.754,1054.135ZM1302.55,1053.313L1296.106,1053.989L1289.54,1055.769C1293.87,1054.871 1298.18,1054.081 1302.526,1053.227L1302.55,1053.313ZM101.397,1028.023L107.672,1029.189C103.617,1027.853 99.7,1026.537 95.922,1025.241C97.749,1026.079 99.547,1027.001 101.42,1027.937L101.397,1028.023ZM93.548,1026.547C95.852,1026.985 98.226,1027.431 100.599,1027.877C98.471,1026.809 96.405,1025.757 94.355,1024.705C92.128,1023.937 89.877,1023.169 87.75,1022.401C89.678,1023.707 91.582,1025.073 93.571,1026.463L93.548,1026.547ZM85.699,1025.011C88.08,1025.481 90.507,1025.949 93.019,1026.425C90.945,1024.981 88.94,1023.553 86.967,1022.131C84.601,1021.303 82.359,1020.489 80.055,1019.681C81.944,1021.379 83.795,1023.145 85.723,1024.973L85.699,1025.011ZM77.858,1023.475L85.285,1024.943C83.326,1023.107 81.445,1021.303 79.555,1019.497C77.152,1018.637 74.855,1017.793 72.59,1016.955C74.333,1019.037 76.069,1021.203 77.881,1023.437L77.858,1023.475ZM70.032,1021.893L77.505,1023.429C75.677,1021.203 73.911,1019.005 72.129,1016.825C69.717,1015.933 67.398,1015.065 65.132,1014.205C66.814,1016.655 68.35,1019.221 70.055,1021.817L70.032,1021.893ZM62.222,1020.289L69.725,1021.825C68.035,1019.205 66.415,1016.617 64.818,1014.045L57.813,1011.357C59.265,1014.221 60.724,1017.201 62.245,1020.211L62.222,1020.289ZM54.419,1018.637C56.815,1019.149 59.321,1019.679 61.938,1020.227C60.402,1017.201 58.927,1014.205 57.491,1011.241C55.049,1010.289 52.714,1009.367 50.487,1008.477C51.772,1011.795 53.09,1015.155 54.442,1018.561L54.419,1018.637ZM46.631,1016.947C49.004,1017.469 51.5,1018.015 54.15,1018.575C52.783,1015.135 51.465,1011.727 50.195,1008.353C47.722,1007.371 45.403,1006.419 43.198,1005.513C44.315,1009.235 45.467,1013.021 46.654,1016.871L46.631,1016.947ZM38.859,1015.211C41.163,1015.741 43.682,1016.303 46.37,1016.893C45.172,1013.023 44.023,1009.183 42.922,1005.373C40.418,1004.345 38.091,1003.361 35.941,1002.447C36.888,1006.611 37.868,1010.839 38.882,1015.135L38.859,1015.211ZM31.102,1013.431C33.337,1013.961 35.879,1014.537 38.606,1015.159C37.582,1010.853 36.604,1006.585 35.672,1002.355C33.099,1001.257 30.787,1000.251 28.714,999.329C29.49,1003.899 30.288,1008.615 31.125,1013.353L31.102,1013.431ZM23.361,1011.587C25.435,1012.093 27.892,1012.685 30.857,1013.377C30.012,1008.615 29.205,1003.883 28.46,999.215C25.68,997.977 23.376,996.911 21.548,996.065C22.109,1001.103 22.731,1006.287 23.384,1011.511L23.361,1011.587ZM1211.02,1052.391L1202.848,1052.459C1198.494,1056.231 1193.992,1060.233 1189.668,1063.979L1198.116,1063.211C1202.38,1059.633 1206.78,1055.863 1211.042,1052.315L1211.02,1052.391ZM1219.56,1052.315L1211.388,1052.391C1207.134,1055.923 1202.748,1059.687 1198.524,1063.181L1206.972,1062.413C1211.134,1059.073 1215.428,1055.547 1219.582,1052.237L1219.56,1052.315ZM1228.092,1052.229L1219.928,1052.307C1215.788,1055.609 1211.48,1059.119 1207.41,1062.383L1215.858,1061.615C1219.898,1058.505 1224.068,1055.233 1228.114,1052.153L1228.092,1052.229ZM1236.616,1052.153L1228.476,1052.229C1224.436,1055.301 1220.288,1058.557 1216.28,1061.583L1224.728,1060.815C1228.644,1057.943 1232.7,1054.925 1236.64,1052.075L1236.616,1052.153ZM1245.142,1052.069L1237.016,1052.145C1233.084,1054.979 1229.044,1057.989 1225.142,1060.785L1233.544,1060.017C1237.378,1057.375 1241.324,1054.603 1245.164,1051.991L1245.142,1052.069ZM1253.674,1051.977L1245.556,1052.069C1241.716,1054.657 1237.808,1057.445 1234.036,1059.979L1242.484,1059.157C1246.178,1056.761 1249.988,1054.249 1253.698,1051.899L1253.674,1051.977ZM1262.198,1051.883L1254.104,1051.969C1250.418,1054.273 1246.632,1056.799 1242.968,1059.103L1251.416,1058.289C1254.964,1056.139 1258.642,1053.903 1262.222,1051.807L1262.198,1051.883ZM1270.716,1051.785L1262.66,1051.877C1259.104,1053.957 1255.448,1056.185 1251.908,1058.235L1260.256,1057.421C1263.728,1055.525 1267.276,1053.559 1270.738,1051.707L1270.716,1051.785ZM1279.21,1051.691L1271.208,1051.785C1267.774,1053.611 1264.296,1055.563 1260.854,1057.359C1263.612,1057.091 1266.346,1056.837 1269.118,1056.591C1272.466,1054.925 1275.892,1053.205 1279.234,1051.615L1279.21,1051.691ZM1287.658,1051.593L1279.716,1051.685C1276.406,1053.221 1273.028,1054.941 1269.732,1056.491L1278.02,1055.639C1281.268,1054.257 1284.532,1052.837 1287.72,1051.515L1287.658,1051.593ZM1296.106,1051.477L1288.256,1051.577C1285.124,1052.883 1281.92,1054.273 1278.796,1055.563L1287.006,1054.695C1290.084,1053.581 1293.164,1052.453 1296.182,1051.401L1296.106,1051.477ZM1304.492,1051.369L1296.812,1051.469C1293.886,1052.491 1290.892,1053.589 1287.972,1054.595L1295.984,1053.757C1298.878,1052.913 1301.758,1052.075 1304.57,1051.293L1304.492,1051.369ZM1312.68,1051.261L1305.376,1051.353C1302.71,1052.121 1300,1052.891 1297.342,1053.611L1304.914,1052.843C1307.564,1052.245 1310.206,1051.691 1312.756,1051.185L1312.68,1051.261ZM1320.09,1051.169L1313.946,1051.247C1311.766,1051.677 1309.554,1052.137 1307.372,1052.567L1320.09,1051.169ZM116.827,1031.831L123.324,1032.153C119.054,1031.391 114.907,1030.647 110.882,1029.919L116.827,1031.831ZM108.501,1031.409L115.943,1031.785C113.693,1031.055 111.412,1030.333 109.231,1029.619L102.15,1028.307C104.216,1029.335 106.374,1030.349 108.501,1031.409ZM100.184,1030.987L107.925,1031.379C105.714,1030.303 103.486,1029.221 101.351,1028.161L94.025,1026.785C95.998,1028.169 98.118,1029.581 100.184,1030.987ZM91.867,1030.557L99.746,1030.963C97.642,1029.527 95.522,1028.091 93.487,1026.679L86.03,1025.235C87.919,1026.993 89.9,1028.813 91.867,1030.557ZM83.549,1030.119L91.513,1030.533C89.524,1028.737 87.52,1026.931 85.615,1025.157L78.104,1023.675C79.87,1025.803 81.714,1027.961 83.549,1030.119ZM75.262,1029.673L83.265,1030.103C81.406,1027.923 79.548,1025.749 77.781,1023.607C75.186,1023.091 72.682,1022.585 70.247,1022.071C71.845,1024.589 73.542,1027.131 75.262,1029.673ZM66.96,1029.221L74.978,1029.659C73.273,1027.101 71.561,1024.543 69.94,1022.025L62.398,1020.489C63.835,1023.361 65.386,1026.287 66.937,1029.221L66.96,1029.221ZM58.651,1028.759L66.691,1029.205C65.155,1026.255 63.619,1023.315 62.083,1020.411L54.526,1018.829C55.847,1022.101 57.237,1025.427 58.627,1028.759L58.651,1028.759ZM50.348,1028.291L58.389,1028.745C56.999,1025.395 55.609,1022.055 54.296,1018.761C51.639,1018.191 49.135,1017.647 46.754,1017.125C47.875,1020.811 49.097,1024.551 50.325,1028.291L50.348,1028.291ZM42.046,1027.815L50.095,1028.283C48.866,1024.521 47.637,1020.765 46.493,1017.063C43.805,1016.471 41.301,1015.919 38.959,1015.389C39.934,1019.489 40.963,1023.645 42.023,1027.815L42.046,1027.815ZM33.744,1027.331L41.801,1027.799C40.741,1023.621 39.689,1019.443 38.729,1015.327C35.995,1014.713 33.452,1014.129 31.202,1013.599C31.963,1018.131 32.838,1022.723 33.721,1027.331L33.744,1027.331ZM25.45,1026.831L33.506,1027.315C32.615,1022.707 31.747,1018.099 30.941,1013.545C27.977,1012.855 25.519,1012.263 23.43,1011.749C24.029,1016.725 24.72,1021.771 25.427,1026.831L25.45,1026.831ZM1224.444,1041.101L1216.526,1040.503C1212.064,1044.389 1207.564,1048.351 1203.132,1052.183L1211.318,1052.115C1215.658,1048.467 1220.074,1044.733 1224.444,1041.101ZM1232.662,1041.747L1224.774,1041.125C1220.412,1044.779 1216.012,1048.505 1211.718,1052.107L1219.906,1052.029C1224.098,1048.627 1228.4,1045.141 1232.638,1041.715L1232.662,1041.747ZM1240.88,1042.391L1232.992,1041.769C1228.744,1045.187 1224.46,1048.681 1220.242,1052.029L1228.414,1051.953C1232.538,1048.781 1236.724,1045.541 1240.88,1042.361L1240.88,1042.391ZM1249.104,1043.037L1241.224,1042.415C1237.086,1045.587 1232.908,1048.819 1228.798,1051.945L1236.962,1051.877C1240.978,1048.943 1245.056,1045.947 1249.104,1043.005L1249.104,1043.037ZM1257.338,1043.681C1254.696,1043.467 1252.084,1043.275 1249.458,1043.067C1245.426,1045.993 1241.362,1048.981 1237.354,1051.869L1245.502,1051.791C1249.42,1049.103 1253.374,1046.347 1257.338,1043.651L1257.338,1043.681ZM1265.524,1044.365C1262.92,1044.151 1260.294,1043.919 1257.698,1043.713C1253.774,1046.401 1249.81,1049.143 1245.918,1051.791L1254.066,1051.699C1257.86,1049.265 1261.708,1046.769 1265.524,1044.335L1265.524,1044.365ZM1273.704,1045.049L1265.9,1044.395C1262.06,1046.823 1258.266,1049.303 1254.496,1051.691L1262.622,1051.599C1266.292,1049.427 1270.016,1047.199 1273.704,1045.017L1273.704,1045.049ZM1281.89,1045.733L1274.102,1045.079C1270.432,1047.245 1266.73,1049.457 1263.082,1051.599L1271.17,1051.507C1274.724,1049.549 1278.326,1047.621 1281.89,1045.709L1281.89,1045.733ZM1290.084,1046.415L1282.312,1045.763C1278.764,1047.675 1275.194,1049.603 1271.668,1051.499L1279.724,1051.407C1283.158,1049.741 1286.636,1048.013 1290.084,1046.385L1290.084,1046.415ZM1298.24,1047.115L1290.562,1046.455C1287.136,1048.097 1283.65,1049.779 1280.286,1051.407L1288.304,1051.307C1291.582,1049.903 1294.93,1048.481 1298.24,1047.083L1298.24,1047.115ZM1306.358,1047.837L1298.732,1047.161C1295.454,1048.535 1292.15,1049.941 1288.894,1051.301L1296.858,1051.193C1300.008,1050.063 1303.194,1048.919 1306.366,1047.805L1306.358,1047.837ZM1314.446,1048.551L1306.904,1047.883C1303.832,1048.981 1300.668,1050.103 1297.566,1051.185L1305.422,1051.085C1308.416,1050.225 1311.442,1049.365 1314.446,1048.521L1314.446,1048.551ZM1322.494,1049.265L1315.09,1048.613C1312.164,1049.427 1309.224,1050.263 1306.312,1051.069L1313.992,1050.971C1316.804,1050.387 1319.652,1049.803 1322.494,1049.235L1322.494,1049.265ZM1330.428,1049.963L1323.3,1049.335L1315.222,1050.955L1322.494,1050.863L1330.428,1049.963ZM1337.562,1050.633C1335.558,1050.455 1333.554,1050.255 1331.55,1050.071L1324.86,1050.839L1337.562,1050.633ZM133.031,1033.651L139.759,1033.213L126.964,1032.591L133.031,1033.651ZM124.292,1034.235L132.056,1033.713L125.144,1032.499L117.679,1032.131C119.845,1032.799 122.041,1033.497 124.292,1034.189L124.292,1034.235ZM115.536,1034.835L123.662,1034.273C121.312,1033.505 119.054,1032.815 116.75,1032.085L108.993,1031.693C111.166,1032.707 113.317,1033.751 115.536,1034.803L115.536,1034.835ZM106.766,1035.441L115.068,1034.865C112.81,1033.789 110.621,1032.731 108.448,1031.671L100.553,1031.263C102.588,1032.653 104.646,1034.005 106.75,1035.411L106.766,1035.441ZM98.003,1036.071L106.397,1035.465C104.247,1034.043 102.181,1032.645 100.115,1031.241L92.135,1030.825C94.055,1032.539 95.998,1034.281 98.003,1036.041L98.003,1036.071ZM89.232,1036.715L97.68,1036.093C95.653,1034.319 93.71,1032.561 91.767,1030.809L83.749,1030.387C85.554,1032.453 87.351,1034.557 89.232,1036.685L89.232,1036.715ZM80.446,1037.377L88.94,1036.739C87.059,1034.597 85.246,1032.485 83.442,1030.373L75.401,1029.943C77.052,1032.377 78.718,1034.841 80.446,1037.345L80.446,1037.377ZM71.66,1038.053L80.185,1037.391C78.442,1034.881 76.768,1032.399 75.116,1029.927L67.06,1029.489C68.558,1032.299 70.078,1035.141 71.66,1038.029L71.66,1038.053ZM62.867,1038.743L71.422,1038.029C69.833,1035.141 68.35,1032.285 66.814,1029.435L58.75,1028.989C60.071,1032.215 61.438,1035.449 62.867,1038.713L62.867,1038.743ZM54.058,1039.457L62.621,1038.767C61.185,1035.487 59.818,1032.247 58.474,1029.013L50.402,1028.559C51.585,1032.147 52.791,1035.763 54.058,1039.427L54.058,1039.457ZM45.249,1040.225L53.82,1039.503C52.545,1035.825 51.339,1032.193 50.149,1028.567L42.077,1028.107C43.106,1032.069 44.143,1036.093 45.249,1040.171L45.249,1040.225ZM36.425,1040.993L45.011,1040.225C43.905,1036.139 42.86,1032.101 41.839,1028.075L33.79,1027.561C34.62,1031.993 35.495,1036.439 36.425,1040.933L36.425,1040.993ZM27.6,1041.761L36.194,1040.993C35.257,1036.485 34.382,1032.031 33.529,1027.585L25.458,1027.101C26.11,1031.923 26.878,1036.793 27.6,1041.715L27.6,1041.761ZM18.761,1042.591C20.665,1042.407 23.507,1042.137 27.362,1041.785C26.594,1036.847 25.895,1031.961 25.219,1027.093L17.155,1026.585C17.662,1031.885 18.177,1037.169 18.761,1042.545L18.761,1042.591ZM1238.014,1029.689C1235.458,1029.259 1232.9,1028.843 1230.334,1028.429C1225.78,1032.423 1221.28,1036.325 1216.756,1040.265L1224.69,1040.863C1229.128,1037.139 1233.544,1033.459 1238.014,1029.689ZM1245.91,1031.063C1243.376,1030.633 1240.84,1030.165 1238.306,1029.743C1233.852,1033.497 1229.452,1037.177 1225.028,1040.887L1232.93,1041.509C1237.246,1038.029 1241.548,1034.589 1245.902,1031.063L1245.91,1031.063ZM1253.804,1032.445L1246.202,1031.117C1241.87,1034.635 1237.576,1038.029 1233.26,1041.531L1241.156,1042.153C1245.364,1038.921 1249.534,1035.725 1253.796,1032.445L1253.804,1032.445ZM1261.714,1033.829L1254.112,1032.499C1249.888,1035.771 1245.664,1038.959 1241.502,1042.177L1249.396,1042.799C1253.49,1039.819 1257.576,1036.855 1261.708,1033.829L1261.714,1033.829ZM1269.648,1035.219C1267.106,1034.757 1264.572,1034.335 1262.03,1033.883C1257.914,1036.901 1253.842,1039.849 1249.742,1042.829C1252.376,1043.037 1254.994,1043.229 1257.636,1043.443C1261.638,1040.709 1265.616,1038.029 1269.64,1035.219L1269.648,1035.219ZM1277.49,1036.677C1274.986,1036.217 1272.474,1035.725 1269.97,1035.273C1265.962,1038.045 1261.992,1040.747 1258.006,1043.475L1265.846,1044.127C1269.718,1041.647 1273.58,1039.189 1277.482,1036.677L1277.49,1036.677ZM1285.324,1038.145L1277.82,1036.739C1273.934,1039.243 1270.086,1041.693 1266.224,1044.157L1274.056,1044.811C1277.804,1042.637 1281.544,1040.395 1285.316,1038.145L1285.324,1038.145ZM1293.172,1039.619C1290.676,1039.151 1288.172,1038.675 1285.668,1038.213C1281.914,1040.449 1278.188,1042.637 1274.448,1044.849L1282.266,1045.501C1285.9,1043.543 1289.516,1041.609 1293.164,1039.619L1293.172,1039.619ZM1301.052,1041.101C1298.54,1040.617 1296.044,1040.165 1293.534,1039.689C1289.9,1041.661 1286.298,1043.589 1282.688,1045.533L1290.5,1046.185C1294.01,1044.495 1297.512,1042.821 1301.044,1041.101L1301.052,1041.101ZM1308.862,1042.637L1301.428,1041.185C1297.918,1042.891 1294.44,1044.557 1290.946,1046.239L1298.702,1046.907C1302.08,1045.479 1305.46,1044.065 1308.854,1042.637L1308.862,1042.637ZM1316.612,1044.173C1314.162,1043.681 1311.712,1043.175 1309.262,1042.691C1305.89,1044.127 1302.55,1045.525 1299.194,1046.931L1306.874,1047.613C1310.114,1046.477 1313.348,1045.341 1316.604,1044.173L1316.612,1044.173ZM1324.36,1045.709L1317.05,1044.235C1313.832,1045.387 1310.636,1046.539 1307.434,1047.637L1315.076,1048.313C1318.162,1047.475 1321.25,1046.623 1324.354,1045.709L1324.36,1045.709ZM1332.118,1047.245C1329.698,1046.747 1327.272,1046.263 1324.852,1045.779C1321.78,1046.647 1318.762,1047.491 1315.72,1048.343L1323.3,1049.011L1332.118,1047.245ZM1339.882,1048.781C1337.494,1048.283 1335.098,1047.813 1332.702,1047.329C1329.828,1047.913 1326.972,1048.481 1324.108,1049.049L1331.556,1049.719L1339.882,1048.781ZM1347.262,1050.371C1345.036,1049.903 1342.808,1049.403 1340.588,1048.935L1332.67,1049.825L1339.69,1050.479L1347.262,1050.371ZM1354.028,1051.823L1348.254,1050.585L1341.802,1050.679L1354.028,1051.823ZM150.142,1033.421L156.916,1032.299L143.86,1033.121L150.142,1033.421ZM140.926,1034.957L149.036,1033.605L141.771,1033.267L133.968,1033.767L140.926,1034.957ZM131.779,1036.493C134.575,1036.017 137.355,1035.533 140.228,1035.049L132.97,1033.813L124.844,1034.351C127.154,1035.093 129.476,1035.819 131.81,1036.531L131.779,1036.493ZM122.563,1038.083L131.25,1036.547C128.869,1035.819 126.521,1035.093 124.207,1034.365L115.897,1034.935C118.124,1036.019 120.367,1037.081 122.625,1038.121L122.563,1038.083ZM113.348,1039.703L122.164,1038.167C119.86,1037.115 117.633,1036.055 115.429,1035.011L107.019,1035.595C109.162,1036.985 111.274,1038.367 113.417,1039.741L113.348,1039.703ZM104.132,1041.377C107.05,1040.841 109.953,1040.311 113.01,1039.765C110.844,1038.377 108.716,1036.989 106.628,1035.603L98.179,1036.217C100.176,1037.937 102.188,1039.671 104.216,1041.417L104.132,1041.377ZM94.915,1043.075L103.855,1041.423C101.807,1039.689 99.808,1037.961 97.857,1036.239L89.355,1036.861C91.224,1038.945 93.1,1041.029 94.985,1043.113L94.915,1043.075ZM85.699,1044.811C88.603,1044.257 91.613,1043.689 94.677,1043.121C92.783,1041.033 90.922,1038.953 89.094,1036.885L80.554,1037.523C82.259,1039.965 83.989,1042.407 85.746,1044.849L85.699,1044.811ZM76.437,1046.585C79.333,1046.025 82.366,1045.441 85.454,1044.857C83.687,1042.407 81.975,1039.965 80.293,1037.545L71.737,1038.199C73.312,1041.017 74.871,1043.813 76.483,1046.623L76.437,1046.585ZM67.16,1048.397L76.199,1046.631C74.587,1043.809 73.015,1040.993 71.484,1038.183L62.921,1038.859C64.341,1042.091 65.747,1045.257 67.206,1048.435L67.16,1048.397ZM57.913,1050.317L66.976,1048.497C65.516,1045.309 64.103,1042.131 62.713,1038.973C59.718,1039.209 56.861,1039.443 54.142,1039.673C55.366,1043.185 56.623,1046.733 57.913,1050.317ZM48.605,1052.229L57.683,1050.317C56.377,1046.739 55.125,1043.183 53.897,1039.643L45.31,1040.363C46.378,1044.311 47.461,1048.251 48.605,1052.215L48.605,1052.229ZM39.274,1054.157C42.085,1053.559 45.072,1052.921 48.375,1052.237C47.23,1048.259 46.14,1044.311 45.072,1040.379L36.478,1041.147C37.377,1045.479 38.299,1049.819 39.274,1054.157ZM29.95,1056.215L39.067,1054.233C38.083,1049.857 37.162,1045.509 36.263,1041.179L27.662,1041.945C28.368,1046.685 29.113,1051.431 29.95,1056.215ZM20.581,1058.327C22.823,1057.805 25.842,1057.121 29.712,1056.269C28.944,1051.469 28.176,1046.707 27.408,1041.969C23.568,1042.323 20.704,1042.591 18.791,1042.737C19.344,1047.937 19.913,1053.105 20.558,1058.327L20.581,1058.327ZM1251.73,1018.191C1249.258,1017.523 1246.792,1016.893 1244.32,1016.257C1239.712,1020.357 1235.196,1024.189 1230.588,1028.229C1233.148,1028.645 1235.708,1029.067 1238.268,1029.497C1242.752,1025.679 1247.154,1022.063 1251.708,1018.191L1251.73,1018.191ZM1259.288,1020.311C1256.862,1019.643 1254.434,1018.921 1252,1018.261C1247.454,1022.101 1243.068,1025.741 1238.552,1029.551C1241.086,1029.973 1243.628,1030.441 1246.156,1030.871C1250.54,1027.277 1254.834,1023.929 1259.266,1020.311L1259.288,1020.311ZM1266.868,1022.439C1264.434,1021.755 1262,1021.057 1259.564,1020.389C1255.14,1023.997 1250.856,1027.369 1246.454,1030.933C1248.99,1031.363 1251.532,1031.817 1254.066,1032.253C1258.336,1028.943 1262.522,1025.803 1266.846,1022.439L1266.868,1022.439ZM1274.464,1024.567L1267.144,1022.515C1262.828,1025.871 1258.658,1029.005 1254.372,1032.307L1261.992,1033.643C1266.146,1030.579 1270.27,1027.677 1274.44,1024.567L1274.464,1024.567ZM1282.082,1026.701C1279.632,1025.995 1277.19,1025.335 1274.748,1024.643C1270.546,1027.715 1266.476,1030.641 1262.306,1033.697C1264.848,1034.143 1267.382,1034.573 1269.932,1035.033C1273.98,1032.223 1277.95,1029.581 1282.06,1026.701L1282.082,1026.701ZM1289.578,1028.943C1287.174,1028.237 1284.77,1027.485 1282.366,1026.785C1278.28,1029.635 1274.318,1032.285 1270.256,1035.087C1272.766,1035.541 1275.278,1036.033 1277.79,1036.493C1281.714,1033.943 1285.576,1031.531 1289.554,1028.943L1289.578,1028.943ZM1297.058,1031.247C1294.662,1030.525 1292.266,1029.781 1289.87,1029.067C1285.906,1031.639 1282.052,1034.043 1278.12,1036.585L1285.638,1037.999C1289.47,1035.725 1293.188,1033.529 1297.036,1031.217L1297.058,1031.247ZM1304.562,1033.551C1302.16,1032.815 1299.76,1032.085 1297.358,1031.363C1293.518,1033.667 1289.792,1035.817 1285.984,1038.091L1293.518,1039.503C1297.188,1037.437 1300.814,1035.533 1304.538,1033.497L1304.562,1033.551ZM1312.096,1035.855C1309.684,1035.087 1307.28,1034.397 1304.868,1033.659C1301.168,1035.695 1297.558,1037.583 1293.872,1039.589C1296.382,1040.057 1298.902,1040.517 1301.412,1041.001C1304.968,1039.197 1308.478,1037.545 1312.072,1035.787L1312.096,1035.855ZM1319.552,1038.199L1312.418,1035.947C1308.84,1037.707 1305.352,1039.343 1301.79,1041.071L1309.254,1042.529C1312.68,1041.001 1316.066,1039.619 1319.53,1038.129L1319.552,1038.199ZM1326.91,1040.609C1324.606,1039.841 1322.226,1039.073 1319.89,1038.305C1316.442,1039.781 1313.078,1041.147 1309.654,1042.607C1312.118,1043.091 1314.584,1043.605 1317.05,1044.097C1320.322,1042.853 1323.578,1041.739 1326.888,1040.541L1326.91,1040.609ZM1334.29,1043.029C1331.986,1042.261 1329.614,1041.493 1327.272,1040.725C1323.976,1041.915 1320.758,1043.029 1317.488,1044.189L1324.86,1045.671C1327.994,1044.711 1331.104,1043.867 1334.268,1042.959L1334.29,1043.029ZM1341.71,1045.455C1339.406,1044.687 1337.026,1043.919 1334.682,1043.151C1331.55,1044.051 1328.478,1044.887 1325.352,1045.771L1332.716,1047.253C1335.704,1046.577 1338.668,1046.001 1341.694,1045.387L1341.71,1045.455ZM1349.144,1047.905C1346.84,1047.137 1344.482,1046.369 1342.156,1045.601C1339.182,1046.217 1336.256,1046.777 1333.3,1047.383C1335.742,1047.875 1338.178,1048.359 1340.62,1048.873C1343.446,1048.475 1346.302,1048.167 1349.12,1047.837L1349.144,1047.905ZM1356.224,1050.401C1354.028,1049.633 1351.84,1048.865 1349.644,1048.097C1346.856,1048.421 1344.098,1048.713 1341.318,1049.027C1343.622,1049.519 1345.972,1050.041 1348.292,1050.563L1356.224,1050.401ZM1363.136,1052.843C1361.032,1052.075 1358.928,1051.307 1356.824,1050.617L1349.26,1050.731L1355.94,1052.169L1363.136,1052.843ZM1369.526,1055.095C1367.692,1054.441 1365.864,1053.797 1364.028,1053.159L1357.838,1052.575C1361.74,1053.335 1365.632,1054.157 1369.534,1055.025L1369.526,1055.095ZM167.983,1031.425L175.049,1029.665C170.441,1030.379 166.017,1031.095 161.616,1031.801L167.983,1031.425ZM158.483,1033.835C161.24,1033.129 163.951,1032.431 166.777,1031.723L159.282,1032.177L151.233,1033.497L158.483,1033.835ZM148.891,1036.301C151.771,1035.533 154.773,1034.765 157.723,1033.997L150.158,1033.637C147.308,1034.105 144.413,1034.581 141.641,1035.049L148.891,1036.301ZM139.344,1038.797C142.332,1038.029 145.281,1037.215 148.353,1036.417L140.957,1035.179C137.993,1035.679 135.159,1036.171 132.294,1036.663L139.344,1038.797ZM129.744,1041.355C132.755,1040.545 135.814,1039.729 138.922,1038.905L131.795,1036.747L122.986,1038.283C125.182,1039.319 127.486,1040.333 129.744,1041.377L129.744,1041.355ZM120.114,1043.973C123.132,1043.145 126.258,1042.299 129.399,1041.455C127.095,1040.409 124.791,1039.373 122.594,1038.383C119.599,1038.905 116.581,1039.427 113.701,1039.919C115.797,1041.277 117.955,1042.637 120.114,1043.997L120.114,1043.973ZM110.491,1046.647C113.563,1045.785 116.635,1044.933 119.822,1044.051C117.641,1042.683 115.483,1041.317 113.371,1039.965C110.299,1040.509 107.38,1041.047 104.439,1041.585C106.412,1043.283 108.448,1044.979 110.491,1046.669L110.491,1046.647ZM100.829,1049.373L110.222,1046.723C108.171,1045.017 106.136,1043.321 104.155,1041.639L95.169,1043.289C97.004,1045.333 98.909,1047.361 100.829,1049.395L100.829,1049.373ZM91.137,1052.153L100.576,1049.441C98.663,1047.399 96.736,1045.363 94.908,1043.297L85.891,1044.987C87.589,1047.415 89.363,1049.795 91.137,1052.175L91.137,1052.153ZM81.422,1054.995C84.494,1054.095 87.666,1053.167 90.899,1052.221C89.125,1049.833 87.351,1047.445 85.646,1045.079L76.599,1046.807C78.158,1049.549 79.794,1052.283 81.406,1055.017L81.422,1054.995ZM71.683,1057.913C74.755,1056.983 77.889,1056.039 81.191,1055.063C79.555,1052.321 77.927,1049.579 76.361,1046.853C73.235,1047.461 70.217,1048.051 67.306,1048.627C68.719,1051.731 70.201,1054.833 71.683,1057.935L71.683,1057.913ZM61.922,1060.893C64.994,1059.947 68.135,1058.981 71.461,1057.981C69.971,1054.909 68.481,1051.761 67.068,1048.673L57.99,1050.493C59.257,1053.965 60.586,1057.437 61.922,1060.915L61.922,1060.893ZM52.13,1063.965C55.141,1063.013 58.331,1062.019 61.699,1060.985C60.363,1057.497 59.027,1054.019 57.76,1050.571L48.667,1052.437C49.772,1056.253 50.955,1060.109 52.13,1063.965ZM42.315,1067.097C45.287,1066.137 48.459,1065.125 51.907,1064.025C50.725,1060.185 49.542,1056.345 48.436,1052.507C45.126,1053.197 42.139,1053.835 39.32,1054.433C40.272,1058.619 41.294,1062.859 42.315,1067.097ZM32.462,1070.323C35.334,1069.371 38.506,1068.327 42.085,1067.167C41.063,1062.919 40.042,1058.673 39.09,1054.465C35.703,1055.187 32.623,1055.855 29.958,1056.445C30.718,1061.069 31.609,1065.677 32.462,1070.323ZM22.585,1073.657C25.12,1072.789 28.315,1071.705 32.239,1070.401C31.379,1065.753 30.511,1061.099 29.728,1056.491C25.842,1057.353 22.816,1058.027 20.581,1058.557C21.195,1063.557 21.894,1068.611 22.585,1073.657ZM34.912,1084.409C30.903,1086.139 27.518,1087.613 24.759,1088.833C25.481,1093.595 26.249,1098.365 27.063,1103.147C30.035,1101.611 33.598,1099.715 37.699,1097.603C36.724,1093.211 35.787,1088.801 34.912,1084.417L34.912,1084.409ZM45.249,1080.015C41.478,1081.597 38.199,1082.995 35.134,1084.317C36.01,1088.695 36.947,1093.087 37.899,1097.495C41.104,1095.841 44.635,1094.049 48.49,1092.119C47.384,1088.079 46.286,1084.041 45.249,1080.023L45.249,1080.015ZM55.555,1075.753C51.984,1077.221 48.59,1078.625 45.472,1079.923C46.508,1083.941 47.599,1087.965 48.705,1091.997C51.992,1090.347 55.509,1088.597 59.257,1086.743C57.998,1083.087 56.746,1079.409 55.555,1075.761L55.555,1075.753ZM65.831,1071.591C62.304,1073.003 58.953,1074.361 55.778,1075.661C56.961,1079.309 58.22,1082.973 59.472,1086.643C62.805,1085.001 66.308,1083.289 69.979,1081.513C68.573,1078.211 67.16,1074.893 65.831,1071.599L65.831,1071.591ZM76.069,1067.521C72.582,1068.895 69.257,1070.215 66.085,1071.499C67.406,1074.793 68.827,1078.103 70.224,1081.405C73.573,1079.785 77.044,1078.119 80.684,1076.391C79.102,1073.441 77.566,1070.469 76.069,1067.529L76.069,1067.521ZM86.275,1063.535C82.812,1064.879 79.517,1066.161 76.291,1067.435C77.758,1070.377 79.363,1073.335 80.899,1076.291C84.271,1074.685 87.712,1073.065 91.321,1071.375C89.601,1068.749 87.888,1066.145 86.275,1063.543L86.275,1063.535ZM96.444,1059.641L86.46,1063.481C88.073,1066.077 89.785,1068.695 91.467,1071.307C94.831,1069.771 98.264,1068.143 101.835,1066.499C100.053,1064.203 98.195,1061.913 96.444,1059.649L96.444,1059.641ZM106.597,1055.801C103.218,1057.061 99.877,1058.313 96.667,1059.525C98.418,1061.783 100.268,1064.065 102.043,1066.337C105.376,1064.801 108.87,1063.227 112.38,1061.637C110.468,1059.733 108.478,1057.775 106.597,1055.839L106.597,1055.801ZM116.719,1052.053C113.34,1053.291 110.043,1054.511 106.827,1055.709C108.701,1057.643 110.667,1059.595 112.641,1061.537C115.989,1060.001 119.415,1058.465 122.917,1056.929C120.843,1055.339 118.724,1053.711 116.734,1052.091L116.719,1052.053ZM126.795,1048.381C123.416,1049.595 120.198,1050.779 116.965,1051.969C118.969,1053.581 121.081,1055.209 123.155,1056.829C126.511,1055.293 129.867,1053.843 133.362,1052.307C131.165,1051.039 128.923,1049.725 126.795,1048.421L126.795,1048.381ZM136.856,1044.787L127.064,1048.283C129.191,1049.579 131.426,1050.893 133.615,1052.199C136.925,1050.747 140.343,1049.273 143.776,1047.791C141.456,1046.831 139.106,1045.825 136.856,1044.825L136.856,1044.787ZM146.886,1041.263C143.589,1042.415 140.348,1043.553 137.163,1044.681C139.413,1045.671 141.771,1046.669 144.075,1047.667C147.378,1046.249 150.736,1044.813 154.151,1043.359C151.709,1042.699 149.251,1041.999 146.886,1041.301L146.886,1041.263ZM156.87,1037.807C153.583,1038.927 150.45,1040.027 147.27,1041.139C149.62,1041.831 152.07,1042.523 154.482,1043.221C157.776,1041.823 161.025,1040.433 164.412,1039.013L156.87,1037.807ZM166.854,1034.419C163.659,1035.495 160.411,1036.585 157.308,1037.645C159.75,1038.045 162.292,1038.413 164.796,1038.843C168.006,1037.499 171.362,1036.133 174.665,1034.773L166.854,1034.419ZM176.761,1031.087C173.597,1032.139 170.533,1033.175 167.445,1034.213L175.172,1034.565C178.351,1033.253 181.508,1031.947 184.764,1030.625L176.761,1031.087ZM186.691,1027.823L177.614,1030.809L185.432,1030.357C188.504,1029.113 191.653,1027.853 194.794,1026.601L186.691,1027.823ZM196.591,1024.619C193.703,1025.541 190.849,1026.463 188.028,1027.385L195.708,1026.233C198.596,1025.081 201.484,1023.929 204.432,1022.761C201.776,1023.411 199.166,1024.043 196.606,1024.659L196.591,1024.619ZM213.15,1019.367C208.542,1020.803 204.064,1022.231 199.602,1023.659C201.668,1023.169 203.826,1022.669 205.922,1022.185L213.15,1019.367ZM1265.416,1006.541C1263.036,1005.643 1260.648,1004.797 1258.258,1003.937C1253.65,1008.055 1249.096,1012.025 1244.504,1016.079C1246.976,1016.709 1249.45,1017.347 1251.922,1018.015C1256.446,1014.221 1260.878,1010.427 1265.416,1006.541ZM1272.628,1009.413C1270.324,1008.507 1268.02,1007.531 1265.654,1006.641C1261.132,1010.481 1256.676,1014.267 1252.192,1018.085C1254.618,1018.745 1257.054,1019.467 1259.488,1020.135C1263.872,1016.563 1268.22,1013.039 1272.628,1009.413ZM1279.87,1012.293C1277.566,1011.371 1275.208,1010.419 1272.874,1009.513C1268.474,1013.123 1264.126,1016.649 1259.756,1020.211C1262.198,1020.879 1264.634,1021.579 1267.068,1022.263C1271.33,1018.945 1275.578,1015.657 1279.87,1012.293ZM1287.128,1015.181C1284.824,1014.237 1282.45,1013.315 1280.116,1012.385C1275.838,1015.741 1271.598,1019.029 1267.344,1022.369L1274.672,1024.427C1278.818,1021.333 1282.958,1018.283 1287.166,1015.181L1287.128,1015.181ZM1294.416,1018.077C1292.112,1017.109 1289.724,1016.219 1287.382,1015.273C1283.218,1018.345 1279.088,1021.417 1274.956,1024.489C1277.406,1025.181 1279.856,1025.841 1282.306,1026.547C1286.33,1023.737 1290.366,1020.907 1294.416,1018.061L1294.416,1018.077ZM1301.566,1021.103C1299.262,1020.135 1296.958,1019.129 1294.654,1018.177C1290.614,1021.007 1286.588,1023.823 1282.574,1026.625C1284.978,1027.331 1287.39,1028.083 1289.792,1028.791C1293.71,1026.245 1297.634,1023.693 1301.566,1021.133L1301.566,1021.103ZM1308.686,1024.175C1306.382,1023.191 1304.078,1022.169 1301.82,1021.203C1297.898,1023.763 1293.992,1026.323 1290.1,1028.883C1292.496,1029.597 1294.9,1030.341 1297.304,1031.071L1308.686,1024.175ZM1315.828,1027.247C1313.534,1026.223 1311.23,1025.229 1308.916,1024.267C1305.132,1026.571 1301.352,1028.857 1297.572,1031.125L1304.8,1033.321C1308.478,1031.339 1312.15,1029.305 1315.828,1027.277L1315.828,1027.247ZM1323.002,1030.319C1320.698,1029.297 1318.394,1028.329 1316.09,1027.331C1312.434,1029.359 1308.77,1031.385 1305.13,1033.383C1307.542,1034.151 1309.96,1034.827 1312.38,1035.579C1315.904,1033.905 1319.46,1032.139 1323.002,1030.349L1323.002,1030.319ZM1330.106,1033.505C1327.832,1032.481 1325.556,1031.457 1323.278,1030.433C1319.744,1032.185 1316.212,1033.943 1312.702,1035.671C1315.084,1036.419 1317.466,1037.187 1319.852,1037.975C1323.262,1036.539 1326.68,1035.041 1330.106,1033.559L1330.106,1033.505ZM1337.072,1036.777C1334.836,1035.741 1332.616,1034.657 1330.374,1033.637C1326.98,1035.111 1323.57,1036.601 1320.182,1038.053C1322.54,1038.821 1324.89,1039.589 1327.248,1040.357L1337.072,1036.777ZM1344.076,1040.057C1341.84,1039.005 1339.606,1037.945 1337.362,1036.907C1334.106,1038.099 1330.842,1039.305 1327.602,1040.479C1329.962,1041.237 1332.318,1042.005 1334.668,1042.783C1337.792,1041.945 1340.926,1041.025 1344.076,1040.111L1344.076,1040.057ZM1351.126,1043.367C1348.882,1042.291 1346.632,1041.263 1344.39,1040.203C1341.318,1041.109 1338.154,1042.031 1335.058,1042.921C1337.416,1043.689 1339.782,1044.457 1342.14,1045.225C1345.128,1044.681 1348.13,1044.043 1351.126,1043.405L1351.126,1043.367ZM1358.214,1046.715C1355.972,1045.625 1353.714,1044.595 1351.472,1043.529C1348.514,1044.143 1345.534,1044.779 1342.586,1045.387C1344.936,1046.155 1347.294,1046.923 1349.644,1047.691L1358.214,1046.715ZM1364.95,1050.133C1362.822,1049.081 1360.71,1047.951 1358.576,1046.907L1350.128,1047.899C1352.37,1048.665 1354.604,1049.487 1356.848,1050.263L1364.95,1050.133ZM1371.662,1053.543C1369.572,1052.483 1367.476,1051.407 1365.388,1050.355L1357.484,1050.487C1359.688,1051.255 1361.886,1052.023 1364.082,1052.791L1371.662,1053.543ZM1378.336,1056.921C1376.3,1055.877 1374.266,1054.857 1372.192,1053.851L1364.934,1053.143C1367.046,1053.911 1369.158,1054.617 1371.27,1055.371C1373.644,1055.915 1375.986,1056.461 1378.336,1056.975L1378.336,1056.921ZM1384.74,1060.179C1382.89,1059.211 1381.032,1058.297 1379.172,1057.353C1377.13,1056.891 1375.072,1056.407 1373.028,1055.955C1376.93,1057.399 1380.862,1058.765 1384.74,1060.233L1384.74,1060.179ZM1388.442,1061.821C1391.93,1063.657 1395.392,1065.615 1398.864,1067.529C1397.198,1066.323 1395.546,1065.071 1393.872,1063.873C1392.068,1063.243 1390.256,1062.543 1388.442,1061.875L1388.442,1061.821ZM1380.094,1057.567C1382.306,1058.689 1384.518,1059.771 1386.714,1060.923C1388.842,1061.691 1390.954,1062.521 1393.082,1063.327C1391.062,1061.891 1389.01,1060.547 1386.938,1059.141C1384.702,1058.673 1382.398,1058.135 1380.094,1057.621L1380.094,1057.567ZM1372.86,1053.889C1374.988,1054.971 1377.122,1056.039 1379.25,1057.137C1381.654,1057.675 1384.058,1058.243 1386.462,1058.789C1384.448,1057.391 1382.422,1056.015 1380.402,1054.641L1372.86,1053.889ZM1365.872,1050.347C1368.014,1051.415 1370.148,1052.521 1372.292,1053.605L1380.01,1054.373C1377.99,1052.997 1375.97,1051.585 1373.942,1050.225L1365.872,1050.347ZM1358.958,1046.853C1361.11,1047.921 1363.252,1049.057 1365.41,1050.125L1373.59,1049.987C1371.554,1048.627 1369.55,1047.177 1367.514,1045.825C1364.734,1046.223 1361.824,1046.577 1358.99,1046.907L1358.958,1046.853ZM1351.808,1043.451C1354.066,1044.527 1356.332,1045.563 1358.59,1046.669L1367.23,1045.633C1365.088,1044.227 1362.93,1042.913 1360.786,1041.539C1357.822,1042.223 1354.812,1042.883 1351.84,1043.505L1351.808,1043.451ZM1344.69,1040.111C1346.948,1041.171 1349.214,1042.207 1351.464,1043.289C1354.458,1042.667 1357.5,1041.999 1360.51,1041.363C1358.376,1039.987 1356.224,1038.667 1354.082,1037.323C1350.994,1038.297 1347.838,1039.257 1344.72,1040.165L1344.69,1040.111ZM1337.632,1036.801C1339.88,1037.825 1342.128,1038.879 1344.374,1039.965C1347.5,1039.051 1350.68,1038.083 1353.828,1037.161C1351.702,1035.817 1349.582,1034.465 1347.446,1033.145C1344.214,1034.405 1340.926,1035.663 1337.662,1036.855L1337.632,1036.801ZM1330.62,1033.513C1332.87,1034.535 1335.098,1035.625 1337.34,1036.663C1340.604,1035.471 1343.93,1034.197 1347.202,1032.991C1345.082,1031.671 1342.978,1030.287 1340.85,1028.989C1337.486,1030.533 1334.014,1032.101 1330.65,1033.567L1330.62,1033.513ZM1323.508,1030.303C1325.792,1031.327 1328.072,1032.351 1330.352,1033.375C1333.738,1031.901 1337.21,1030.303 1340.62,1028.837C1338.454,1027.523 1336.28,1026.233 1334.114,1024.943C1330.62,1026.771 1327.042,1028.621 1323.538,1030.349L1323.508,1030.303ZM1316.35,1027.277C1318.654,1028.283 1320.958,1029.251 1323.262,1030.281C1326.772,1028.537 1330.366,1026.671 1333.9,1024.905C1331.702,1023.599 1329.498,1022.369 1327.302,1021.065C1323.67,1023.091 1319.96,1025.235 1316.35,1027.277ZM1309.186,1024.205C1311.478,1025.193 1313.782,1026.189 1316.098,1027.193C1319.73,1025.181 1323.446,1023.031 1327.102,1020.987C1324.922,1019.713 1322.734,1018.451 1320.544,1017.201C1316.758,1019.443 1312.918,1021.901 1309.178,1024.143L1309.186,1024.205ZM1302.05,1021.133C1304.354,1022.101 1306.658,1023.123 1308.962,1024.105C1312.71,1021.801 1316.566,1019.389 1320.344,1017.079C1318.162,1015.833 1315.99,1014.537 1313.808,1013.307C1309.876,1015.811 1305.906,1018.529 1302.042,1021.065L1302.05,1021.133ZM1294.9,1018.061C1297.204,1019.021 1299.508,1020.027 1301.812,1020.995C1305.652,1018.461 1309.662,1015.735 1313.554,1013.153C1311.358,1011.925 1309.17,1010.665 1306.966,1009.459C1302.956,1012.239 1298.856,1015.235 1294.892,1018.015L1294.9,1018.061ZM1287.596,1015.159C1289.946,1016.103 1292.304,1016.993 1294.646,1017.961C1298.624,1015.173 1302.726,1012.179 1306.734,1009.337C1304.492,1008.115 1302.242,1006.979 1299.992,1005.781C1295.884,1008.845 1291.666,1012.079 1287.588,1015.113L1287.596,1015.159ZM1280.332,1012.271C1282.636,1013.199 1285.008,1014.121 1287.35,1015.065C1291.436,1011.993 1295.652,1008.753 1299.77,1005.665C1297.532,1004.473 1295.294,1003.293 1293.058,1002.125C1288.84,1005.413 1284.502,1008.945 1280.324,1012.225L1280.332,1012.271ZM1273.082,1009.391C1275.386,1010.305 1277.75,1011.249 1280.086,1012.171C1284.272,1008.883 1288.618,1005.351 1292.842,1002.009C1290.608,1000.843 1288.388,999.637 1286.152,998.485C1281.79,1002.017 1277.366,1005.819 1273.074,1009.345L1273.082,1009.391ZM1265.854,1006.519C1268.158,1007.409 1270.508,1008.385 1272.836,1009.291C1277.136,1005.757 1281.598,1001.957 1285.938,998.369C1283.702,997.225 1281.49,995.997 1279.256,994.867C1274.816,998.647 1270.27,1002.701 1265.846,1006.473L1265.854,1006.519ZM1258.466,1003.815C1260.848,1004.675 1263.236,1005.519 1265.616,1006.419C1270.016,1002.647 1274.586,998.593 1279.026,994.761C1276.722,993.623 1274.418,992.549 1272.16,991.457C1267.62,995.467 1262.944,999.775 1258.458,1003.769L1258.466,1003.815ZM186.622,1027.639L193.534,1025.395C188.972,1026.487 184.441,1027.577 180.033,1028.659L186.622,1027.639ZM176.7,1030.903C179.518,1029.965 182.406,1029.021 185.294,1028.075L177.537,1029.273C174.734,1029.965 171.946,1030.657 169.212,1031.347L176.7,1030.903ZM166.823,1034.189C169.819,1033.183 172.791,1032.169 175.87,1031.117L168.021,1031.585C165.049,1032.353 162.162,1033.075 159.266,1033.813L166.823,1034.189ZM156.839,1037.577C159.911,1036.523 163.091,1035.457 166.232,1034.397L158.514,1034.035L149.459,1036.339C151.886,1036.793 154.32,1037.199 156.832,1037.607L156.839,1037.577ZM146.855,1041.033C150.004,1039.933 153.115,1038.843 156.355,1037.729C153.821,1037.323 151.348,1036.907 148.883,1036.501C145.757,1037.315 142.739,1038.113 139.744,1038.913C142.117,1039.649 144.459,1040.333 146.878,1041.101L146.855,1041.033ZM136.871,1044.549C140.028,1043.435 143.253,1042.299 146.517,1041.163C144.083,1040.449 141.717,1039.735 139.352,1039.027C136.213,1039.857 133.124,1040.681 130.082,1041.501C132.317,1042.545 134.544,1043.559 136.864,1044.581L136.871,1044.549ZM126.826,1048.137C129.99,1046.991 133.277,1045.833 136.564,1044.665C134.26,1043.635 131.995,1042.615 129.737,1041.593L120.39,1044.127C122.51,1045.495 124.614,1046.823 126.818,1048.167L126.826,1048.137ZM116.734,1051.853C119.96,1050.671 123.163,1049.487 126.519,1048.283C124.315,1046.931 122.195,1045.593 120.067,1044.249L110.683,1046.861C112.702,1048.505 114.676,1050.163 116.734,1051.853ZM106.635,1055.585C109.845,1054.387 113.13,1053.171 116.489,1051.937C114.407,1050.263 112.418,1048.605 110.414,1046.937C107.188,1047.837 104.055,1048.727 100.983,1049.603C102.91,1051.577 104.708,1053.565 106.658,1055.571L106.635,1055.585ZM96.498,1059.425C99.692,1058.213 103.033,1056.961 106.397,1055.701C104.454,1053.689 102.603,1051.699 100.729,1049.703C97.504,1050.625 94.316,1051.531 91.26,1052.421C93.011,1054.703 94.716,1057.029 96.521,1059.379L96.498,1059.425ZM86.345,1063.311C89.547,1062.067 92.873,1060.801 96.275,1059.511C94.462,1057.153 92.765,1054.825 91.022,1052.491C87.781,1053.427 84.571,1054.365 81.522,1055.271C83.134,1057.897 84.701,1060.569 86.368,1063.265L86.345,1063.311ZM76.184,1067.213C79.402,1065.945 82.689,1064.663 86.168,1063.327C84.494,1060.623 82.935,1057.951 81.337,1055.271C78.027,1056.247 74.886,1057.191 71.806,1058.121C73.235,1061.169 74.656,1064.187 76.184,1067.213ZM65.962,1071.275C69.164,1069.993 72.482,1068.673 75.946,1067.297C74.41,1064.225 72.997,1061.223 71.545,1058.189C68.212,1059.195 65.04,1060.163 61.991,1061.099C63.305,1064.509 64.587,1067.889 65.962,1071.299L65.962,1071.275ZM55.709,1075.431C58.878,1074.131 62.224,1072.777 65.747,1071.369C64.364,1067.951 63.082,1064.563 61.776,1061.177C58.412,1062.213 55.21,1063.211 52.199,1064.157C53.344,1067.935 54.48,1071.675 55.709,1075.453L55.709,1075.431ZM45.418,1079.685C48.49,1078.387 51.915,1076.983 55.486,1075.523C54.265,1071.737 53.121,1067.989 51.969,1064.225C48.521,1065.317 45.349,1066.337 42.369,1067.297C43.36,1071.445 44.343,1075.561 45.418,1079.709L45.418,1079.685ZM35.088,1084.109C38.16,1082.795 41.424,1081.399 45.187,1079.817C44.12,1075.661 43.129,1071.537 42.115,1067.413C38.529,1068.565 35.357,1069.617 32.485,1070.569C33.337,1075.055 34.174,1079.555 35.088,1084.109ZM24.72,1088.625C27.485,1087.397 30.864,1085.925 34.858,1084.209C33.952,1079.663 33.115,1075.155 32.277,1070.647C28.345,1071.951 25.15,1073.035 22.624,1073.911C23.284,1078.787 23.968,1083.679 24.72,1088.609L24.72,1088.625ZM1003.774,1214.331C1001.77,1215.937 999.734,1217.587 997.738,1219.177C1000.702,1216.927 1003.76,1214.523 1006.786,1212.181C1005.778,1212.919 1004.796,1213.595 1003.774,1214.331ZM1017.89,1202.995C1014.272,1205.921 1010.694,1208.779 1007.1,1211.667C1010.002,1209.561 1013.022,1207.257 1015.97,1205.085C1019.242,1202.543 1022.452,1200.093 1025.732,1197.535C1023.098,1199.401 1020.494,1201.207 1017.898,1202.995L1017.89,1202.995ZM1032.144,1191.553C1028.058,1194.877 1024.126,1197.965 1020.072,1201.245C1023.358,1198.941 1026.754,1196.537 1030.11,1194.155C1033.95,1191.183 1037.628,1188.381 1041.46,1185.377C1038.352,1187.467 1035.262,1189.525 1032.19,1191.553L1032.144,1191.553ZM1045.63,1180.547C1041.676,1183.803 1037.766,1186.983 1033.842,1190.193C1037.252,1187.951 1040.754,1185.585 1044.248,1183.227C1048.088,1180.155 1051.928,1177.313 1055.768,1174.211C1052.384,1176.361 1049.008,1178.473 1045.638,1180.547L1045.63,1180.547ZM1058.31,1169.925C1054.47,1173.081 1050.562,1176.469 1046.79,1179.579C1050.292,1177.421 1053.848,1175.179 1057.404,1172.929C1060.936,1170.117 1064.608,1167.083 1068.156,1164.235C1064.846,1166.185 1061.598,1168.037 1058.302,1169.925L1058.31,1169.925ZM1071.458,1158.905C1067.404,1162.299 1063.302,1165.771 1059.286,1169.111C1062.65,1167.169 1066.014,1165.225 1069.424,1163.213C1073.264,1160.141 1077.234,1156.907 1081.128,1153.767C1077.872,1155.533 1074.7,1157.185 1071.466,1158.905L1071.458,1158.905ZM1084.952,1147.599C1080.704,1151.187 1076.504,1154.681 1072.288,1158.213C1075.582,1156.455 1078.838,1154.743 1082.164,1152.929C1086.266,1149.611 1090.358,1146.341 1094.49,1142.945C1091.28,1144.573 1088.154,1146.041 1084.96,1147.599L1084.952,1147.599ZM1098.7,1136.079C1094.29,1139.827 1090.044,1143.299 1085.644,1146.993C1088.876,1145.411 1092.064,1143.921 1095.328,1142.269C1099.614,1138.791 1103.776,1135.503 1108.092,1131.971C1104.942,1133.399 1101.864,1134.689 1098.706,1136.087L1098.7,1136.079ZM1112.224,1124.559C1107.9,1128.269 1103.614,1131.901 1099.322,1135.557C1102.508,1134.145 1105.634,1132.823 1108.844,1131.379C1113.1,1127.885 1117.292,1124.467 1121.586,1120.957C1118.436,1122.217 1115.38,1123.331 1112.232,1124.567L1112.224,1124.559ZM1125.488,1113.039C1121.27,1116.681 1116.916,1120.567 1112.73,1124.153C1115.894,1122.909 1118.982,1121.771 1122.162,1120.505C1126.27,1117.103 1130.54,1113.439 1134.672,1109.983C1131.592,1110.989 1128.574,1111.973 1125.494,1113.017L1125.488,1113.039ZM1139.02,1101.251C1134.656,1105.045 1130.256,1108.931 1125.964,1112.649C1129.036,1111.603 1132.108,1110.651 1135.18,1109.577C1139.442,1106.021 1143.774,1102.349 1148.058,1098.747C1145.01,1099.599 1142.014,1100.383 1139.026,1101.227L1139.02,1101.251ZM1152.766,1089.255C1148.282,1093.179 1143.858,1097.011 1139.404,1100.883C1142.476,1100.029 1145.408,1099.247 1148.442,1098.387C1152.82,1094.715 1157.174,1091.075 1161.584,1087.343C1158.642,1087.995 1155.73,1088.601 1152.766,1089.255ZM1166.698,1077.113C1162.09,1081.167 1157.682,1084.947 1153.12,1088.939C1156.076,1088.287 1158.994,1087.689 1161.96,1087.027C1166.444,1083.233 1170.806,1079.655 1175.322,1075.799L1166.698,1077.113ZM1180.576,1064.825C1176.03,1068.879 1171.536,1072.819 1167.02,1076.805C1169.908,1076.361 1172.766,1075.945 1175.652,1075.493C1180.108,1071.699 1184.508,1067.989 1189,1064.133L1180.576,1064.825ZM1194.322,1052.421C1189.868,1056.407 1185.276,1060.647 1180.86,1064.571L1189.308,1063.881C1193.646,1060.155 1198.156,1056.139 1202.526,1052.361L1194.322,1052.421ZM1208.254,1039.841C1203.7,1043.951 1199.1,1048.143 1194.576,1052.191L1202.764,1052.129C1207.202,1048.289 1211.718,1044.319 1216.188,1040.425L1208.254,1039.841ZM1222.354,1027.115C1217.7,1031.333 1213.1,1035.471 1208.492,1039.635L1216.426,1040.217C1220.958,1036.271 1225.466,1032.353 1230.028,1028.361L1222.354,1027.115ZM1236.602,1014.251C1231.862,1018.583 1227.278,1022.647 1222.578,1026.917L1230.258,1028.161C1234.866,1024.113 1239.366,1020.265 1244.012,1016.165C1241.554,1015.557 1239.09,1014.913 1236.616,1014.275L1236.602,1014.251ZM1250.878,1001.195C1246.14,1005.551 1241.508,1009.737 1236.808,1014.029C1239.276,1014.675 1241.746,1015.311 1244.22,1015.941C1248.828,1011.879 1253.366,1007.909 1258.044,1003.791L1250.878,1001.195ZM1265.064,987.955C1260.456,992.241 1255.648,996.795 1251.062,1001.011C1253.436,1001.879 1255.816,1002.755 1258.198,1003.607C1262.69,999.613 1267.414,995.297 1271.906,991.235C1269.64,990.221 1267.36,989.115 1265.078,988.017L1265.064,987.955ZM1250.818,1000.935C1255.426,996.703 1260.21,992.141 1264.84,987.879C895.248,810.471 465.89,922.177 219.078,1017.293C457.142,943.689 867.838,861.227 1250.832,1000.997L1250.818,1000.935ZM1236.54,1013.991C1241.248,1009.683 1245.886,1005.543 1250.632,1001.135C866.142,860.859 453.68,944.595 216.136,1018.437L207.458,1021.825C434.932,968.755 834.384,909.635 1236.556,1014.021L1236.54,1013.991ZM1222.278,1026.863C1226.994,1022.585 1231.586,1018.515 1236.332,1014.175C833.37,909.643 433.15,969.263 205.992,1022.439C202.858,1023.675 199.763,1024.897 196.691,1026.125C413.644,993.655 801.276,958.281 1222.294,1026.893L1222.278,1026.863ZM1208.17,1039.603C1212.778,1035.433 1217.386,1031.287 1222.062,1027.055C800.524,958.387 412.484,993.961 195.754,1026.463C192.521,1027.753 189.295,1029.043 186.131,1030.303C392.654,1018.553 768.336,1007.009 1208.186,1039.635L1208.17,1039.603ZM1194.238,1052.215C1198.77,1048.159 1203.378,1043.959 1207.94,1039.841C767.714,1007.209 391.794,1018.807 185.478,1030.625C182.16,1031.969 178.935,1033.299 175.701,1034.627C371.788,1043.513 735.512,1055.793 1194.238,1052.215ZM1180.492,1064.633C1184.914,1060.693 1189.522,1056.439 1193.978,1052.445C734.974,1056.023 371.134,1043.713 175.21,1034.835C171.869,1036.209 168.482,1037.591 165.226,1038.951C350.882,1068.541 702.718,1104.631 1180.498,1064.633L1180.492,1064.633ZM1166.606,1076.921C1171.136,1072.911 1175.638,1068.971 1180.208,1064.909C702.242,1104.891 350.36,1068.749 164.819,1039.143C161.401,1040.571 158.13,1041.969 154.835,1043.383C330.038,1093.663 669.856,1153.483 1166.59,1076.897L1166.606,1076.921ZM1152.658,1089.063C1157.266,1085.053 1161.676,1081.267 1166.284,1077.197C669.434,1153.743 329.608,1093.839 154.474,1043.521C151.049,1044.971 147.662,1046.423 144.344,1047.851C309.11,1118.861 636.916,1202.381 1152.666,1089.039L1152.658,1089.063ZM1138.942,1101.005C1143.404,1097.119 1147.852,1093.271 1152.344,1089.331C636.548,1202.581 308.734,1118.999 144.068,1047.951C140.611,1049.441 137.156,1050.923 133.861,1052.383C288.176,1144.151 604.03,1251.241 1138.942,1101.005ZM1125.41,1112.793C1129.75,1109.047 1134.174,1105.113 1138.544,1101.351C603.692,1251.457 287.868,1144.275 133.63,1052.491C130.121,1054.027 126.718,1055.563 123.385,1057.021C267.262,1169.549 571.23,1300.179 1125.372,1112.817L1125.41,1112.793ZM1112.146,1124.315C1116.348,1120.713 1120.734,1116.803 1124.964,1113.155C570.946,1300.325 267.008,1169.619 123.163,1057.091C119.655,1058.627 116.217,1060.163 112.848,1061.699C246.272,1195.055 538.466,1349.177 1112.108,1124.367L1112.146,1124.315ZM1098.614,1135.835C1102.954,1132.147 1107.262,1128.507 1111.67,1124.751C538.228,1349.299 246.096,1195.115 112.664,1061.775C109.147,1063.365 105.637,1064.947 102.296,1066.483C225.238,1220.637 505.58,1398.129 1098.576,1135.887L1098.614,1135.835ZM1084.868,1147.353C1089.276,1143.637 1093.554,1140.135 1097.992,1136.357C505.296,1398.245 225.038,1220.691 102.05,1066.607C98.471,1068.249 95.031,1069.847 91.659,1071.429C204.164,1246.295 472.64,1447.013 1084.83,1147.407L1084.868,1147.353ZM1071.358,1158.713C1075.614,1155.157 1079.806,1151.625 1084.138,1148.007C472.318,1447.135 203.934,1246.395 91.39,1071.575C87.781,1073.265 84.332,1074.893 80.953,1076.507C183.074,1272.077 439.77,1495.941 1071.358,1158.713ZM1058.202,1169.733C1062.272,1166.361 1066.428,1162.821 1070.53,1159.411C439.44,1496.027 182.859,1272.161 80.784,1076.605C77.136,1078.333 73.665,1080.001 70.301,1081.629C161.947,1297.989 406.97,1544.909 1058.18,1169.733L1058.202,1169.733ZM1045.53,1180.355C1049.37,1177.199 1053.372,1173.751 1057.228,1170.547C406.624,1544.987 161.739,1298.035 70.086,1081.729C66.4,1083.517 62.905,1085.223 59.572,1086.867C140.796,1324.079 374.26,1594.061 1045.508,1180.355L1045.53,1180.355ZM1032.03,1191.361C1036.154,1187.997 1040.216,1184.741 1044.37,1181.323C373.868,1594.061 140.542,1324.133 59.334,1086.973C55.586,1088.817 52.053,1090.575 48.766,1092.227C119.576,1350.175 341.374,1642.929 1032.006,1191.361L1032.03,1191.361ZM1017.782,1202.811C1021.992,1199.409 1026.092,1196.175 1030.34,1192.719C340.914,1642.767 119.346,1350.159 48.574,1092.343C44.734,1094.285 41.179,1096.083 37.968,1097.719C98.302,1376.279 308.382,1691.489 1017.76,1202.811L1017.782,1202.811ZM1003.682,1214.123C1007.646,1210.959 1011.616,1207.773 1015.594,1204.563C307.82,1691.129 98.041,1376.203 37.723,1097.849C33.621,1099.961 30.043,1101.827 27.078,1103.393C77.006,1402.537 275.48,1739.981 1003.66,1214.123L1003.682,1214.123ZM989.95,1225.161C993.49,1222.349 997.138,1219.369 1000.702,1216.521C274.834,1739.367 76.798,1402.377 26.878,1103.517C20.151,1107.073 16.556,1109.077 16.188,1109.285C55.717,1429.017 242.74,1788.541 989.95,1225.161ZM16.126,761.135C15.474,765.597 -201.218,2165.763 985.466,1228.739C-155.982,2086.243 15.358,781.855 15.896,777.677L16.126,777.677C15.95,779.129 -4.932,938.381 16.126,1109.007C16.672,1108.709 20.227,1106.703 26.802,1103.247C26.013,1098.455 25.245,1093.679 24.498,1088.917C19.122,1091.305 16.165,1092.673 16.05,1092.757L15.957,1092.549C16.096,1092.489 19.029,1091.113 24.482,1088.709C23.714,1083.771 23.054,1078.871 22.378,1073.971C18.338,1075.361 16.157,1076.153 16.042,1076.191L15.965,1075.977C16.08,1075.937 18.269,1075.139 22.347,1073.741C21.656,1068.681 20.957,1063.627 20.343,1058.611C17.632,1059.233 16.119,1059.603 16.027,1059.617L15.98,1059.395C16.073,1059.395 17.586,1059.011 20.312,1058.381C19.675,1053.151 19.106,1047.967 18.546,1042.799L16.011,1043.045L16.011,1042.821L18.53,1042.569C17.947,1037.193 17.424,1031.817 16.925,1026.533L16.011,1026.471L16.011,1026.241L16.887,1026.295C4.952,899.259 15.781,795.395 15.888,794.259L16.119,794.259C16.011,795.395 5.182,899.251 17.125,1026.287L25.181,1026.793C24.467,1021.717 23.783,1016.663 23.161,1011.671C18.515,1010.535 16.08,1009.889 15.973,1009.867L16.034,1009.643C16.134,1009.643 18.538,1010.305 23.131,1011.425C22.478,1006.187 21.856,1000.973 21.287,995.843C17.847,994.237 16.034,993.323 15.95,993.277L16.05,993.071C16.134,993.117 17.908,994.007 21.257,995.575C20.658,990.145 20.143,984.823 19.636,979.539C17.24,977.749 16.003,976.743 15.934,976.689L16.073,976.513C16.134,976.559 17.317,977.519 19.605,979.231C19.075,973.609 18.599,968.103 18.162,962.657C16.733,961.067 15.965,960.155 15.919,960.101L16.088,959.947C16.134,960.001 16.856,960.845 18.131,962.251C17.67,956.449 17.258,950.733 16.894,945.101C16.288,944.119 15.95,943.565 15.919,943.497L16.119,943.381C16.119,943.381 16.418,943.887 16.887,944.609C11.818,866.819 15.881,811.607 15.927,810.809L16.157,810.809C16.111,811.577 12.655,858.547 16.088,926.823L16.149,926.823C16.203,926.953 17.593,930.317 20.443,936.153C19.9,930.521 19.411,925.041 18.976,919.711C16.917,913.797 15.973,910.495 15.904,910.327L16.119,910.257C16.165,910.395 17.04,913.445 18.876,918.797C18.4,912.853 17.988,907.139 17.639,901.655C16.472,896.717 15.927,893.875 15.896,893.737L16.126,893.691C16.126,893.815 16.587,896.119 17.547,900.273C17.148,893.907 16.779,887.823 16.572,882.155C16.126,879.083 15.911,877.263 15.896,877.149L16.126,877.149C16.126,877.233 16.249,878.201 16.48,879.937C15.128,847.765 15.881,827.889 15.896,827.435L16.126,827.435C16.126,827.681 15.904,833.627 15.904,844.017L16.126,844.017C16.126,844.377 16.195,857.925 17.9,880.421C18.845,888.869 20.258,899.805 22.316,912.599C23.96,920.371 25.987,929.181 28.46,938.927C30.695,945.731 33.245,953.089 36.21,961.015C38.959,966.827 41.993,973.003 45.426,979.507C48.651,984.415 52.138,989.545 55.963,994.867C59.634,998.903 63.581,1003.085 67.805,1007.417C71.822,1010.557 76.146,1013.821 80.661,1017.155C85.024,1019.505 89.639,1021.925 94.485,1024.389C99.232,1026.025 104.132,1027.685 109.308,1029.381C114.392,1030.313 119.684,1031.261 125.182,1032.223L141.833,1033.037C147.465,1032.669 153.278,1032.303 159.274,1031.939C165.195,1030.979 171.301,1030.011 177.545,1029.035C183.735,1027.499 190.073,1025.963 196.56,1024.427C202.934,1022.379 209.45,1020.331 216.106,1018.283C462.48,922.905 893.888,809.541 1265.056,987.771C1332.31,925.563 1402.834,857.665 1477.324,782.907C2547.1,-290.757 3195.34,-53.229 3535.48,285.957C3728.36,478.273 3822.22,703.281 3837.74,740.483C3839.16,743.939 3839.82,745.813 3839.86,745.775L3840.02,745.943C3839.82,746.113 3839.04,744.223 3837.52,740.567C3822.02,703.373 3728.18,478.395 3535.32,286.111C3195.2,-53.022 2547.1,-290.473 1477.462,783.053C1402.966,857.779 1332.494,925.625 1265.264,987.855L1272.106,991.151C1337.194,932.913 1405.392,869.399 1477.3,799.465C2573.8,-266.979 3244.96,44.491 3579.26,388.431C3739.8,553.629 3822.64,726.313 3837.56,757.417C3839.1,760.619 3839.8,762.355 3839.86,762.317L3840.02,762.493C3839.84,762.647 3839,760.897 3837.38,757.517C3822.46,726.421 3739.64,553.759 3579.1,388.585C3244.88,44.714 2573.82,-266.681 1477.462,799.619C1405.576,869.507 1337.416,933.005 1272.336,991.251C1274.64,992.341 1276.944,993.409 1279.248,994.553C1342.224,940.279 1408.018,881.149 1477.338,816.031C2612.5,-250.375 3314.4,157.088 3634.58,498.195C3757.2,628.823 3823.86,749.715 3837.44,774.359C3839.08,777.323 3839.84,778.967 3839.88,778.899L3840.04,779.067C3839.86,779.221 3838.98,777.601 3837.24,774.459C3823.66,749.815 3757.02,628.939 3634.4,498.341C3314.22,157.318 2612.48,-250.069 1477.454,816.201C1408.164,881.295 1342.354,940.409 1279.432,994.661C1281.676,995.781 1283.888,997.017 1286.114,998.163C1346.97,947.819 1410.53,892.985 1477.3,832.605C2668.66,-244.285 3412.38,294.467 3701.86,614.945C3780.9,702.437 3826.08,773.653 3837.26,791.293C3839,794.027 3839.8,795.511 3839.84,795.471L3840,795.649C3839.84,795.787 3838.9,794.297 3837.06,791.417C3825.88,773.753 3780.7,702.567 3701.7,615.099C3412.22,294.675 2668.66,-243.985 1477.454,832.773C1410.684,893.139 1347.162,947.973 1286.338,998.277C1288.572,999.429 1290.8,1000.635 1293.026,1001.811C1351.77,955.393 1413.018,904.843 1477.3,849.185C2752.74,-255.137 3555.62,477.151 3777.32,733.387C3809.96,771.103 3830,798.513 3837.1,808.221C3838.94,810.725 3839.82,812.061 3839.84,812.061L3840,812.229C3839.84,812.361 3838.86,811.001 3836.92,808.389C3829.84,798.689 3809.8,771.287 3777.16,733.571C3555.48,477.343 2752.72,-254.823 1477.454,849.355C1413.196,904.989 1351.97,955.531 1293.25,1001.925C1295.492,1003.093 1297.73,1004.273 1299.962,1005.465C1356.594,962.973 1415.546,916.701 1477.308,865.759C2887.06,-297.077 3778.42,755.997 3836.92,825.125C3838.86,827.429 3839.8,828.657 3839.82,828.627L3839.98,828.803C3839.84,828.925 3838.8,827.681 3836.76,825.277C3778.24,756.157 2887.02,-296.771 1477.454,865.935C1415.722,916.855 1356.794,963.111 1300.192,1005.581C1302.434,1006.779 1304.692,1007.885 1306.934,1009.145C1361.462,970.569 1418.088,928.567 1477.308,882.333C2833.52,-176.378 3774.98,779.291 3836.78,842.021C3838.82,844.101 3839.84,845.231 3839.84,845.207L3840,845.377C3839.86,845.491 3838.76,844.363 3836.62,842.181C3774.82,779.459 2833.5,-176.071 1477.446,882.517C1418.256,928.719 1361.64,970.707 1307.158,1009.237C1309.37,1010.451 1311.558,1011.717 1313.754,1012.947C1366.178,978.249 1420.568,940.463 1477.338,898.883C2779.92,-55.633 3771.36,802.437 3836.64,858.885C3838.8,860.767 3839.88,861.789 3839.9,861.757L3840.06,861.935C3839.92,862.041 3838.76,861.029 3836.48,859.063C3771.28,802.621 2779.94,-55.341 1477.5,899.075C1420.79,940.631 1366.432,978.393 1314.032,1013.069C1316.22,1014.299 1318.386,1015.603 1320.566,1016.847C1370.932,986.005 1423.088,952.421 1477.37,915.471C2726.2,65.212 3767.54,825.501 3836.42,875.767C3838.74,877.455 3839.88,878.369 3839.9,878.347L3840.06,878.515C3839.94,878.615 3838.7,877.747 3836.28,875.951C3767.44,825.685 2726.2,65.496 1477.5,915.657C1423.248,952.589 1371.132,986.159 1320.828,1016.985C1323.014,1018.241 1325.202,1019.505 1327.394,1020.779C1375.694,993.785 1425.59,964.385 1477.408,932.045C2672.24,186.133 3763.32,848.449 3836.16,892.639C3838.64,894.175 3839.86,894.943 3839.88,894.943L3840.04,895.119C3839.94,895.211 3838.6,894.405 3836.04,892.815C3763.24,848.617 2672.28,186.387 1477.516,932.229C1425.744,964.547 1375.878,993.923 1327.618,1020.903C1329.822,1022.177 1332.032,1023.415 1334.23,1024.743C1380.432,1001.587 1428.072,976.359 1477.4,948.633C2618.22,307.109 3758.62,871.273 3835.92,909.465C3838.6,910.787 3839.94,911.501 3839.96,911.485L3840.12,911.655C3840.02,911.739 3838.58,911.033 3835.82,909.665C3758.58,871.451 2618.26,307.339 1477.554,948.833C1428.264,976.551 1380.67,1001.741 1334.506,1024.865C1336.676,1026.167 1338.848,1027.469 1341.018,1028.775C1385.164,1009.437 1430.568,988.379 1477.446,965.199C2563.86,428.129 3753.04,894.007 3835.52,926.323C3838.48,927.475 3839.94,928.097 3839.96,928.083L3840.12,928.259C3840.02,928.335 3838.46,927.721 3835.44,926.539C3752.94,894.221 2563.86,428.383 1477.546,965.407C1430.698,988.555 1385.386,1009.597 1341.256,1028.929C1343.384,1030.227 1345.488,1031.617 1347.624,1032.929C1389.756,1017.377 1432.972,1000.427 1477.416,981.773C2508.94,549.213 3745.82,916.685 3834.92,943.159C3838.24,944.141 3839.92,944.695 3839.92,944.695L3840.08,944.863C3838.32,944.477 3836.58,943.993 3834.86,943.411C3745.78,916.939 2508.96,549.489 1477.5,982.019C1433.072,1000.651 1389.948,1017.577 1347.822,1033.121C1349.966,1034.443 1352.094,1035.801 1354.228,1037.145C1394.334,1025.369 1435.398,1012.447 1477.424,998.377C2453.24,670.357 3735.78,939.411 3834.02,960.015C3837.92,960.837 3839.92,961.283 3839.92,961.267L3840.08,961.445C3840,961.505 3837.94,961.075 3833.96,960.247C3735.74,939.633 2453.26,670.595 1477.492,998.601C1435.508,1012.715 1394.504,1025.619 1354.482,1037.307C1356.632,1038.667 1358.79,1039.987 1360.932,1041.369C1398.994,1033.353 1437.828,1024.549 1477.43,1014.959C2395.78,791.471 3719.42,962.289 3832.28,976.851C3837.32,977.503 3839.92,977.857 3839.92,977.849L3840.08,978.017C3840,978.079 3837.36,977.741 3832.24,977.081C3719.36,962.489 2395.78,791.693 1477.484,1015.173C1437.918,1024.805 1399.162,1033.595 1361.218,1041.547C1363.368,1042.929 1365.534,1044.257 1367.676,1045.663C1403.67,1041.393 1440.256,1036.683 1477.438,1031.531C2332.8,912.445 3683.14,985.897 3827.42,993.739L3839.92,994.423L3840.08,994.599C3840,994.653 3835.7,994.423 3827.4,993.969C3683.14,986.127 2332.8,912.677 1477.47,1031.755C1440.36,1036.925 1403.858,1041.629 1367.968,1045.863C1370.018,1047.223 1372.046,1048.689 1374.112,1050.057C1408.16,1049.503 1442.614,1048.853 1477.476,1048.105C2155.22,1033.513 3256.16,1018.845 3672.98,1013.291C3778.26,1011.887 3839.88,1011.065 3839.94,1010.987L3840.1,1011.157C3839.96,1011.279 3778.32,1012.101 3672.98,1013.507C3256.2,1019.059 2155.24,1033.737 1477.476,1048.321C1442.712,1049.063 1408.368,1049.713 1374.442,1050.271C1376.492,1051.653 1378.536,1053.075 1380.586,1054.479C1412.652,1057.619 1444.954,1061.015 1477.492,1064.671C1742.498,1094.507 2093.9,1100.321 2444.46,1094.815C3143.76,1083.817 3839.68,1027.799 3839.92,1027.561L3840.08,1027.737C3839.8,1027.977 3143.78,1084.047 2444.44,1095.037C2093.88,1100.553 1742.49,1094.739 1477.438,1064.893C1445.044,1061.249 1412.882,1057.867 1380.954,1054.749C1383.02,1056.153 1385.086,1057.551 1387.144,1058.987C1417.2,1065.823 1447.312,1073.247 1477.484,1081.259C1723.744,1146.963 2068.52,1164.733 2418.72,1159.235C3118.44,1148.237 3839.72,1044.327 3839.92,1044.151L3840.08,1044.319C3839.88,1044.503 3118.48,1148.467 2418.72,1159.457C2068.52,1164.965 1723.682,1147.169 1477.43,1081.475C1447.454,1073.483 1417.53,1066.107 1387.66,1059.349C1389.794,1060.823 1391.944,1062.229 1394.064,1063.735C1421.988,1074.195 1449.8,1085.563 1477.5,1097.841C1705.22,1199.409 2043.7,1229.169 2393.78,1223.631C3093.64,1212.635 3839.8,1060.815 3839.92,1060.723L3840.08,1060.901C3839.94,1061.015 3093.68,1212.865 2393.78,1223.863C2043.68,1229.369 1705.158,1199.631 1477.408,1098.049C1450.02,1085.837 1422.48,1074.647 1394.856,1064.257C1396.706,1065.601 1398.542,1067.029 1400.4,1068.373C1426.382,1082.489 1452.132,1097.725 1477.522,1114.407C1686.75,1251.825 2019,1293.513 2369.02,1287.975C3068.92,1277.015 3839.78,1077.351 3839.84,1077.289L3840,1077.459C3839.92,1077.519 3068.92,1277.245 2368.96,1288.243C2018.9,1293.751 1686.588,1252.055 1477.308,1114.607C1452.394,1098.241 1427.134,1083.265 1401.636,1069.363C1428.01,1088.515 1453.316,1109.093 1477.446,1131.003C2049.76,1650.863 3834.74,1095.421 3839.88,1093.839L3839.96,1094.063C3834.8,1095.645 2049.74,1651.123 1477.292,1131.165C1452.766,1108.891 1427.024,1087.993 1400.186,1068.565C1395.662,1066.091 1391.162,1063.565 1386.622,1061.185C1381.502,1059.295 1376.382,1057.441 1371.262,1055.625C1366.148,1054.495 1361.04,1053.413 1355.902,1052.321L1339.66,1050.785L1322.494,1051.085C1316.658,1051.731 1310.828,1052.371 1305.008,1053.005C1298.786,1054.211 1292.634,1055.363 1286.476,1056.523C1279.862,1058.305 1273.304,1060.025 1266.76,1061.737C1259.848,1064.041 1253.006,1066.345 1246.178,1068.649C1239.312,1071.369 1232.4,1074.163 1225.588,1076.813C1219.306,1079.639 1213.06,1082.419 1206.848,1085.153C1199.346,1088.917 1192.012,1092.441 1184.638,1096.005C1176.728,1100.321 1168.918,1104.453 1161.114,1108.631C1152.974,1113.401 1144.84,1118.163 1136.77,1122.831C1129.212,1127.539 1121.6,1132.331 1114.128,1136.909C1107.472,1141.303 1100.868,1145.601 1094.314,1149.805C1086.212,1155.411 1078.34,1160.655 1070.444,1165.931C1061.398,1172.453 1052.55,1178.649 1043.68,1184.879C1034.464,1191.791 1025.248,1198.579 1016.132,1205.299C1007.354,1212.135 998.552,1218.985 990.02,1225.437C-201.986,2169.683 15.243,765.573 15.896,761.103L16.126,761.135Z" fill="#FFFFFF"/>
</svg>
