<svg width="54" height="50" viewBox="0 0 54 50" fill="none" xmlns="http://www.w3.org/2000/svg" xmlns:xlink="http://www.w3.org/1999/xlink">
<path d="M42.179,26.337C35.705,26.337 30.456,31.586 30.456,38.06C30.456,44.535 35.705,49.783 42.179,49.783C48.653,49.783 53.902,44.535 53.902,38.06C53.902,31.586 48.653,26.337 42.179,26.337ZM11.723,26.338C5.248,26.338 0,31.586 0,38.06C0,44.535 5.248,49.783 11.723,49.783C18.197,49.783 23.446,44.535 23.446,38.06C23.446,31.586 18.197,26.338 11.723,26.338ZM38.673,11.683C38.673,18.158 33.425,23.407 26.951,23.407C20.476,23.407 15.228,18.158 15.228,11.683C15.228,5.21 20.476,-0.039 26.951,-0.039C33.425,-0.039 38.673,5.21 38.673,11.683Z" clip-rule="evenodd" fill-rule="evenodd" fill="#F06A6A"/>
</svg>
