<svg width="48" height="48" viewBox="0 0 48 48" fill="none" xmlns="http://www.w3.org/2000/svg" xmlns:xlink="http://www.w3.org/1999/xlink">
<path d="M37.437,18.771L44.266,12.345L44.306,12.305C45.713,10.898 46.503,8.99 46.503,7.001C46.503,5.012 45.713,3.104 44.306,1.697C42.9,0.29 40.992,-0.5 39.002,-0.5C37.013,-0.5 35.105,0.29 33.698,1.697C33.698,1.711 33.673,1.723 33.659,1.737L27.232,8.566L7.779,1.488C7.444,1.366 7.081,1.343 6.732,1.42C6.384,1.497 6.065,1.672 5.813,1.924L0.188,7.549C-0.008,7.745 -0.159,7.983 -0.252,8.244C-0.345,8.505 -0.379,8.784 -0.352,9.06C-0.325,9.335 -0.236,9.602 -0.094,9.84C0.049,10.077 0.243,10.281 0.473,10.434L15.448,20.416L11.974,23.878L7.125,23.878C6.628,23.878 6.152,24.076 5.801,24.427L0.176,30.052C-0.044,30.27 -0.205,30.54 -0.295,30.837C-0.384,31.134 -0.399,31.448 -0.338,31.751C-0.276,32.055 -0.14,32.339 0.058,32.577C0.256,32.815 0.51,33.001 0.797,33.117L9.427,36.57L12.872,45.183L12.886,45.22C13.005,45.509 13.194,45.763 13.437,45.96C13.679,46.157 13.967,46.29 14.274,46.347C14.58,46.405 14.897,46.385 15.194,46.289C15.491,46.193 15.759,46.025 15.975,45.799L21.57,40.202C21.745,40.029 21.884,39.823 21.979,39.596C22.074,39.368 22.124,39.125 22.125,38.878L22.125,34.029L25.584,30.57L35.566,45.544C35.72,45.775 35.923,45.968 36.161,46.111C36.399,46.254 36.665,46.342 36.941,46.369C37.217,46.397 37.496,46.362 37.757,46.269C38.018,46.176 38.255,46.026 38.452,45.83L44.077,40.205C44.329,39.952 44.504,39.633 44.581,39.285C44.658,38.937 44.634,38.574 44.513,38.238L37.437,18.771ZM37.42,41.559L27.438,26.588C27.285,26.355 27.082,26.16 26.844,26.015C26.606,25.871 26.339,25.781 26.063,25.753C25.999,25.753 25.938,25.753 25.877,25.753C25.631,25.753 25.387,25.802 25.159,25.897C24.932,25.991 24.725,26.129 24.551,26.304L18.926,31.929C18.574,32.28 18.376,32.756 18.375,33.253L18.375,38.102L15.312,41.166L12.616,34.425C12.522,34.191 12.382,33.978 12.203,33.8C12.025,33.622 11.812,33.481 11.578,33.387L4.842,30.691L7.903,27.628L12.75,27.628C12.996,27.628 13.24,27.58 13.468,27.486C13.695,27.392 13.902,27.254 14.077,27.08L19.702,21.455C19.898,21.259 20.048,21.021 20.142,20.76C20.236,20.498 20.27,20.22 20.243,19.943C20.215,19.667 20.127,19.4 19.984,19.162C19.841,18.924 19.647,18.721 19.416,18.567L4.444,8.583L7.608,5.421L27.113,12.513C27.456,12.64 27.829,12.663 28.186,12.579C28.542,12.496 28.867,12.31 29.119,12.045L36.37,4.331C37.077,3.645 38.026,3.265 39.011,3.272C39.996,3.28 40.938,3.674 41.635,4.371C42.331,5.068 42.725,6.01 42.732,6.995C42.739,7.98 42.358,8.929 41.672,9.635L33.968,16.884C33.703,17.137 33.517,17.461 33.433,17.817C33.35,18.174 33.373,18.547 33.499,18.891L40.591,38.395L37.42,41.559Z" fill="#00B8FF"/>
</svg>
