<svg width="4596" height="2542" viewBox="0 0 4596 2542" fill="none" xmlns="http://www.w3.org/2000/svg" xmlns:xlink="http://www.w3.org/1999/xlink">
<path d="M398.725,1931.88C394.461,1930.042 390.197,1928.204 385.933,1926.366C390.693,1929.188 395.425,1932.138 400.195,1934.912C405.277,1937.496 410.305,1940.16 415.423,1942.688C409.853,1939.094 404.275,1935.528 398.725,1931.88ZM1724.337,1043.654C1726.241,1034.464 1728.013,1024.888 1729.851,1015.596C1730.615,1005.01 1731.185,993.918 1731.819,982.99C1730.321,993.89 1728.905,1005.046 1727.315,1015.68C1726.313,1024.962 1725.385,1034.474 1724.337,1043.654ZM1717.703,1074.808C1718.383,1071.756 1719.119,1068.87 1719.779,1065.792C1720.211,1062.254 1720.551,1058.44 1720.957,1054.828C1719.881,1061.474 1718.805,1068.2 1717.703,1074.808ZM336.123,1898.678C331.031,1896.692 326.013,1894.588 320.931,1892.556C326.915,1895.92 332.953,1899.156 338.963,1902.464C342.895,1904.302 346.857,1906.14 350.799,1907.978C345.883,1904.918 341.021,1901.746 336.123,1898.678ZM366.073,1910C359.639,1907.592 353.207,1905.184 346.829,1902.73C354.687,1907.592 362.589,1912.342 370.485,1917.104C376.071,1919.63 381.687,1922.038 387.311,1924.454C380.197,1919.712 373.159,1914.796 366.073,1909.99L366.073,1910ZM1716.021,1110.998C1719.007,1100.888 1721.783,1090.22 1724.677,1079.854C1726.065,1063.752 1727.629,1048.12 1728.897,1031.698C1726.589,1043.194 1724.357,1054.912 1721.939,1066.096C1720.093,1081.406 1718.007,1096.036 1716.021,1110.988L1716.021,1110.998ZM1705.269,1145.166C1707.539,1137.888 1709.863,1130.83 1712.107,1123.45C1713.769,1111.282 1715.489,1099.272 1717.123,1087.002C1715.571,1093.932 1713.953,1100.668 1712.391,1107.534C1710.131,1120.39 1707.639,1132.604 1705.269,1145.156L1705.269,1145.166ZM1697.633,1169.408C1698.221,1167.57 1698.789,1165.734 1699.369,1163.896L1700.103,1160.22C1699.305,1163.326 1698.431,1166.238 1697.633,1169.4L1697.633,1169.408ZM241.991,1856.192L239.399,1855.218C241.301,1856.082 243.175,1856.964 245.079,1857.818C244.057,1857.268 243.011,1856.744 241.991,1856.192ZM271.931,1866.87C267.179,1865.216 262.411,1863.59 257.695,1861.898C263.209,1864.802 268.723,1867.762 274.293,1870.63C279.715,1872.964 285.081,1875.38 290.531,1877.678C284.329,1874.066 278.097,1870.538 271.931,1866.87ZM302.257,1877.236C295.917,1875.16 289.631,1873.018 283.335,1870.868C290.825,1875.262 298.333,1879.644 305.869,1883.954C312.419,1886.656 318.987,1889.344 325.573,1892.014C317.817,1887.088 309.995,1882.254 302.277,1877.236L302.257,1877.236ZM332.419,1886.924C325.233,1884.65 318.067,1882.35 310.925,1880.022C319.663,1885.646 328.467,1891.178 337.263,1896.682C344.155,1899.384 351.093,1901.948 358.031,1904.532C349.503,1898.678 340.947,1892.878 332.437,1886.924L332.419,1886.924ZM1708.063,1168.72C1711.885,1159.29 1715.607,1149.54 1719.347,1139.854C1720.929,1124.232 1722.243,1107.91 1723.603,1091.708C1720.525,1102.524 1717.417,1113.286 1714.239,1123.826C1712.253,1138.936 1710.249,1154.108 1708.081,1168.72L1708.063,1168.72ZM1694.195,1201.528C1697.723,1193.174 1701.307,1184.986 1704.801,1176.448C1706.785,1163.464 1708.531,1149.798 1710.315,1136.252C1707.411,1145.708 1704.451,1154.98 1701.491,1164.272C1699.111,1176.788 1696.749,1189.406 1694.213,1201.528L1694.195,1201.528ZM1680.143,1234.758C1683.507,1227.178 1686.723,1219.136 1690.041,1211.352C1691.999,1202.208 1693.781,1192.54 1695.555,1182.992C1692.799,1191.262 1690.097,1199.534 1687.331,1207.704C1684.969,1216.692 1682.679,1225.974 1680.161,1234.758L1680.143,1234.758ZM1669.951,1256.686C1671.487,1253.36 1673.059,1250.18 1674.547,1246.826C1675.825,1242.396 1677.047,1237.792 1678.223,1233.224C1675.549,1241.062 1672.791,1248.948 1669.971,1256.686L1669.951,1256.686ZM179.645,1829.274C178.469,1828.906 177.283,1828.558 176.107,1828.182C178.478,1829.146 180.877,1830.092 183.248,1831.058L179.645,1829.274ZM210.045,1838.732C204.395,1837.022 198.815,1835.23 193.191,1833.492C199.762,1836.664 206.389,1839.77 213.005,1842.894C217.729,1844.732 222.517,1846.478 227.267,1848.27C221.479,1845.136 215.789,1841.91 210.045,1838.732ZM239.573,1847.214C232.957,1845.376 226.339,1843.482 219.779,1841.552C227.565,1845.842 235.379,1850.084 243.221,1854.28C249.617,1856.634 256.051,1858.942 262.521,1861.21C254.811,1856.606 247.211,1851.9 239.573,1847.214ZM269.211,1855.318C262.037,1853.444 254.883,1851.524 247.753,1849.556C256.207,1854.712 264.643,1859.886 273.153,1864.94C280.569,1867.524 287.949,1870.17 295.403,1872.678C286.635,1866.962 277.923,1861.146 269.211,1855.318ZM298.849,1863.002C291.193,1861.1 283.629,1859.06 276.021,1857.092C285.137,1863.148 294.225,1869.306 303.407,1875.252C311.053,1877.78 318.745,1880.224 326.437,1882.604C317.209,1876.164 308.013,1869.63 298.849,1863.002ZM1698.891,1225.22C1703.485,1216.948 1707.999,1208.558 1712.511,1200.048C1714.569,1182.642 1716.765,1165.596 1718.659,1147.748C1714.799,1157.618 1710.883,1167.322 1706.951,1176.944C1704.395,1193.44 1701.583,1209.184 1698.891,1225.248L1698.891,1225.22ZM1682.349,1254.49C1686.807,1246.678 1691.263,1238.866 1695.675,1230.89C1698.303,1215.58 1701.051,1200.562 1703.551,1184.94C1699.791,1194.02 1695.987,1202.944 1692.173,1211.848C1689.011,1226.46 1685.611,1240.3 1682.349,1254.518L1682.349,1254.49ZM1665.569,1283.576C1669.915,1276.278 1674.197,1268.762 1678.499,1261.29C1681.457,1248.654 1684.445,1236.1 1687.349,1223.298C1683.811,1231.422 1680.263,1239.52 1676.669,1247.478C1673.067,1259.81 1669.253,1271.528 1665.569,1283.604L1665.569,1283.576ZM1649.945,1308.894C1653.621,1302.93 1657.297,1297.066 1660.973,1291.002C1663.979,1281.288 1666.975,1271.51 1669.971,1261.75C1667.305,1267.53 1664.613,1273.21 1661.929,1278.908C1658.041,1289.2 1653.943,1298.868 1649.963,1308.922L1649.945,1308.894ZM1636.831,1330.16C1638.991,1326.768 1641.087,1323.202 1643.265,1319.784C1644.431,1316.898 1645.581,1313.948 1646.747,1311.082C1643.493,1317.662 1640.121,1323.746 1636.849,1330.188L1636.831,1330.16ZM117.126,1805.492L111.952,1804.15C115.509,1805.408 119.028,1806.714 122.612,1807.954C120.765,1807.146 118.964,1806.308 117.126,1805.492ZM147.159,1813.036C141.645,1811.722 136.131,1810.408 130.736,1809.038C137.077,1811.796 143.474,1814.552 149.87,1817.236C155.448,1819.074 160.98,1821.004 166.596,1822.832C160.089,1819.592 153.61,1816.326 147.159,1813.036ZM177.044,1820.122C170.023,1818.522 163.085,1816.84 156.119,1815.178C164.225,1819.286 172.459,1823.274 180.647,1827.298C187.282,1829.394 193.954,1831.444 200.627,1833.502C192.735,1829.078 184.874,1824.618 177.044,1820.122ZM206.379,1826.554C198.947,1824.968 191.534,1823.354 184.139,1821.712C193.09,1826.82 202.133,1831.82 211.167,1836.82C218.235,1838.924 225.385,1840.936 232.533,1842.958C223.779,1837.512 215.061,1832.032 206.379,1826.518L206.379,1826.554ZM235.521,1832.446C227.893,1830.974 220.265,1829.514 212.729,1827.942C222.005,1833.786 231.337,1839.574 240.723,1845.302C248.313,1847.424 255.913,1849.556 263.559,1851.606C254.167,1845.26 244.821,1838.86 235.521,1832.408L235.521,1832.446ZM264.607,1837.96C256.721,1836.532 248.877,1835.058 241.071,1833.538C250.795,1840.21 260.563,1846.828 270.377,1853.39C278.199,1855.448 286.001,1857.524 293.885,1859.51C284.071,1852.368 274.349,1845.136 264.607,1837.914L264.607,1837.96ZM1689.803,1278.292C1695.105,1271.206 1700.425,1264.204 1705.691,1256.952C1707.915,1240.586 1709.791,1223.272 1711.775,1206.234C1707.181,1214.862 1702.465,1223.17 1697.807,1231.598C1695.187,1247.276 1692.633,1263.146 1689.803,1278.254L1689.803,1278.292ZM1671.101,1302.848C1676.387,1296.004 1681.659,1289.084 1686.917,1282.086C1689.673,1267.65 1692.071,1252.32 1694.599,1237.276C1689.949,1245.622 1685.283,1253.892 1680.603,1262.09C1677.479,1275.736 1674.409,1289.622 1671.101,1302.81L1671.101,1302.848ZM1652.289,1326.824C1657.471,1320.342 1662.639,1313.796 1667.793,1307.184C1670.927,1294.834 1673.803,1281.738 1676.753,1268.854C1672.213,1276.656 1667.617,1284.264 1663.031,1291.902C1659.493,1303.618 1656.029,1315.502 1652.289,1326.786L1652.289,1326.824ZM1633.807,1349.33C1638.679,1343.438 1643.559,1337.566 1648.401,1331.566C1651.857,1321.136 1655.137,1310.18 1658.455,1299.318C1654.069,1306.53 1649.667,1313.672 1645.249,1320.75C1641.463,1330.334 1637.713,1340.048 1633.807,1349.292L1633.807,1349.33ZM1615.557,1371.386C1619.977,1366.23 1624.333,1360.836 1628.725,1355.57C1632.043,1347.796 1635.297,1339.764 1638.531,1331.676C1634.607,1337.842 1630.647,1343.844 1626.685,1349.882C1622.991,1357.012 1619.333,1364.346 1615.593,1371.302L1615.557,1371.386ZM1601.707,1387.008C1604.059,1384.326 1606.421,1381.742 1608.765,1379.04C1611.183,1374.638 1613.617,1370.282 1615.997,1365.77C1611.237,1372.8 1606.513,1380.006 1601.707,1386.944L1601.707,1387.008ZM56.454,1785.898C53.918,1785.42 51.445,1784.906 48.918,1784.418C53.991,1785.908 59.092,1787.384 64.22,1788.848C61.637,1787.864 59.018,1786.89 56.454,1785.898ZM85.522,1791.154C79.796,1790.134 74.053,1789.124 68.383,1788.066C74.816,1790.53 81.248,1793.03 87.773,1795.418C93.637,1797.03 99.53,1798.61 105.455,1800.162C98.792,1797.22 92.111,1794.224 85.522,1791.154ZM114.626,1796.09C107.844,1795.006 101.062,1793.912 94.408,1792.754C102.257,1796.338 110.105,1799.94 118.036,1803.46C125.075,1805.298 132.106,1807.136 139.219,1808.864C130.984,1804.654 122.741,1800.428 114.626,1796.118L114.626,1796.09ZM143.676,1800.684C136.269,1799.582 128.972,1798.414 121.62,1797.248C130.393,1801.874 139.219,1806.468 148.096,1811.032C155.623,1812.87 163.14,1814.708 170.731,1816.454C161.743,1811.216 152.608,1806.024 143.676,1800.704L143.676,1800.684ZM172.679,1804.94C164.932,1803.864 157.249,1802.734 149.585,1801.604C158.995,1807.182 168.507,1812.632 178.028,1818.146C185.665,1819.874 193.384,1821.528 201.105,1823.172C191.601,1817.088 182.081,1811.06 172.679,1804.94ZM201.325,1808.616C193.467,1807.696 185.61,1806.704 177.853,1805.656C187.641,1812.034 197.556,1818.302 207.445,1824.57C215.275,1826.224 223.151,1827.804 231.063,1829.366C221.119,1822.4 211.177,1815.564 201.325,1808.616ZM229.897,1811.952C221.891,1811.032 213.905,1810.168 206.003,1809.194C216.111,1816.354 226.385,1823.394 236.623,1830.442C244.637,1832.004 252.651,1833.584 260.737,1835.036C250.421,1827.372 240.141,1819.662 229.897,1811.906L229.897,1811.952ZM1679.151,1330.564C1685.143,1324.802 1691.181,1319.25 1697.155,1313.36C1699.829,1296.092 1702.669,1279.266 1705.159,1261.474C1699.819,1268.826 1694.397,1275.756 1689.021,1282.924C1685.879,1299.198 1682.441,1314.656 1679.141,1330.518L1679.151,1330.564ZM1658.271,1350.424C1664.301,1344.79 1670.311,1339.028 1676.311,1333.266C1679.555,1317.836 1682.909,1302.728 1686.007,1286.874C1680.639,1293.998 1675.273,1301.1 1669.859,1308.012C1666.139,1322.514 1662.123,1336.252 1658.263,1350.378L1658.271,1350.424ZM1637.373,1369.548C1643.311,1364.18 1649.247,1358.878 1655.157,1353.382C1658.833,1339.9 1662.655,1326.576 1666.275,1312.782C1661.011,1319.5 1655.699,1325.988 1650.395,1332.568C1646.141,1345.12 1641.711,1357.178 1637.365,1369.502L1637.373,1369.548ZM1616.513,1388.148C1622.345,1383.014 1628.165,1377.806 1633.973,1372.526C1638.099,1360.9 1642.245,1349.348 1646.307,1337.484C1641.111,1343.886 1635.903,1350.23 1630.683,1356.516C1625.987,1367.26 1621.199,1377.608 1616.513,1388.148ZM1595.743,1406.224C1601.331,1401.452 1606.909,1396.628 1612.477,1391.75C1616.797,1382.24 1621.107,1372.708 1625.343,1363.042C1620.463,1368.84 1615.547,1374.482 1610.639,1380.162C1605.669,1388.956 1600.669,1397.54 1595.697,1406.224L1595.743,1406.224ZM1576.059,1422.674C1581.003,1418.558 1585.955,1414.468 1590.881,1410.286C1595.109,1402.99 1599.315,1395.638 1603.499,1388.23C1599.297,1393.04 1595.085,1397.8 1590.863,1402.512C1585.909,1409.34 1580.939,1415.948 1576.013,1422.638L1576.059,1422.674ZM1559.241,1436.726C1562.521,1434.07 1565.765,1431.212 1569.037,1428.538C1571.215,1425.606 1573.383,1422.602 1575.561,1419.66C1570.113,1425.524 1564.625,1431 1559.195,1436.726L1559.241,1436.726ZM25.144,1773.492C19.005,1772.876 12.986,1772.214 6.92,1771.57C13.782,1773.74 20.696,1775.884 27.662,1778.004C33.369,1779.162 39.168,1780.284 44.921,1781.404C38.276,1778.812 31.724,1776.148 25.144,1773.492ZM53.633,1776.13C46.63,1775.504 39.636,1774.862 32.716,1774.2C40.822,1777.434 48.946,1780.632 57.171,1783.848C63.935,1785.136 70.818,1786.366 77.701,1787.59C69.642,1783.802 61.665,1779.97 53.669,1776.13L53.633,1776.13ZM82.122,1778.482C74.705,1777.912 67.28,1777.352 59.992,1776.718C68.723,1780.88 77.453,1785.052 86.321,1789.142C93.747,1790.454 101.218,1791.734 108.736,1792.984C99.803,1788.204 90.981,1783.344 82.14,1778.482L82.122,1778.482ZM110.528,1780.568C102.808,1780.042 95.15,1779.49 87.553,1778.914C96.835,1783.996 106.107,1789.088 115.509,1794.078C123.302,1795.354 131.132,1796.642 138.98,1797.846C129.422,1792.138 119.975,1786.358 110.546,1780.568L110.528,1780.568ZM138.869,1782.406C130.957,1781.938 123.145,1781.414 115.325,1780.898C125.039,1786.854 134.734,1792.846 144.576,1798.682C152.489,1799.866 160.475,1801.016 168.47,1802.136C158.564,1795.6 148.703,1789.016 138.888,1782.388L138.869,1782.406ZM166.991,1783.858C159.032,1783.472 151.101,1783.068 143.253,1782.626C153.362,1789.408 163.425,1796.2 173.635,1802.844C181.566,1803.938 189.607,1804.922 197.648,1805.914C187.386,1798.61 177.173,1791.24 167.009,1783.802L166.991,1783.858ZM194.974,1785.016C186.988,1784.73 179.011,1784.428 171.135,1784.096C181.474,1791.624 191.85,1799.15 202.309,1806.566C210.377,1807.558 218.479,1808.514 226.615,1809.434C216.035,1801.316 205.493,1793.17 194.992,1784.998L194.974,1785.016ZM1668.775,1380.06C1675.447,1375.65 1682.119,1371.394 1688.783,1366.9C1691.595,1350.836 1694.011,1333.68 1696.575,1316.936C1690.519,1322.862 1684.417,1328.45 1678.343,1334.268C1675.209,1349.606 1672.175,1365.312 1668.793,1380.042L1668.775,1380.06ZM1645.985,1395.05C1652.665,1390.74 1659.337,1386.292 1666.009,1381.88C1669.355,1367.424 1672.369,1352.04 1675.503,1336.97C1669.391,1342.824 1663.279,1348.724 1657.123,1354.43C1653.475,1368.05 1649.881,1381.954 1646.003,1395.068L1645.985,1395.05ZM1623.221,1409.45C1629.811,1405.296 1636.409,1401.252 1642.997,1397.016C1646.821,1384.234 1650.349,1370.706 1654.025,1357.398C1647.987,1362.976 1641.913,1368.288 1635.857,1373.756C1631.695,1385.732 1627.541,1397.918 1623.239,1409.432L1623.221,1409.45ZM1600.383,1423.686C1606.927,1419.67 1613.461,1415.562 1620.005,1411.454C1624.269,1400.242 1628.331,1388.478 1632.439,1376.798C1626.391,1382.238 1620.345,1387.698 1614.269,1393.01C1609.693,1403.34 1605.125,1413.76 1600.403,1423.668L1600.383,1423.686ZM1577.685,1437.47C1584.045,1433.666 1590.403,1429.87 1596.753,1425.974C1601.349,1416.454 1605.779,1406.528 1610.235,1396.64C1604.363,1401.75 1598.463,1406.684 1592.573,1411.692C1587.655,1420.322 1582.739,1429.07 1577.703,1437.424L1577.685,1437.47ZM1555.399,1450.64C1561.441,1447.098 1567.477,1443.532 1573.513,1439.942C1578.301,1432.066 1583.015,1423.916 1587.721,1415.746C1582.031,1420.542 1576.333,1425.33 1570.627,1430.026C1565.591,1436.938 1560.545,1443.922 1555.417,1450.594L1555.399,1450.64ZM1533.977,1463.074C1539.345,1460.004 1544.711,1456.842 1550.079,1453.718C1554.619,1447.856 1559.133,1441.89 1563.625,1435.826C1558.543,1439.97 1553.441,1443.986 1548.341,1448.058C1543.563,1453.13 1538.793,1458.25 1533.977,1463.074ZM1517.049,1472.53C1520.221,1470.756 1523.391,1469.01 1526.561,1467.218C1529.833,1463.956 1533.131,1460.786 1536.395,1457.404C1529.953,1462.486 1523.511,1467.668 1517.049,1472.558L1517.049,1472.53ZM49.176,1760.02C41.465,1760.13 33.764,1760.222 26.201,1760.276C35.519,1764.902 44.915,1769.498 54.386,1774.062C62.023,1774.742 69.752,1775.376 77.517,1775.992C68.006,1770.688 58.568,1765.358 49.176,1760.02ZM76.957,1759.56C69.09,1759.716 61.27,1759.862 53.541,1759.974C63.264,1765.488 73.066,1770.958 82.949,1776.386C90.788,1777.002 98.654,1777.59 106.604,1778.152C96.605,1772.002 86.772,1765.782 76.957,1759.56ZM104.692,1758.934C96.706,1759.146 88.83,1759.32 80.964,1759.478C91.036,1765.848 101.169,1772.178 111.364,1778.464C119.341,1779.006 127.299,1779.558 135.368,1780.034C125.057,1773.06 114.875,1766.002 104.692,1758.934ZM132.363,1758.144C124.322,1758.402 116.391,1758.614 108.469,1758.834C118.848,1766.014 129.284,1773.16 139.779,1780.274C147.71,1780.734 155.751,1781.128 163.802,1781.514C153.224,1773.786 142.794,1765.966 132.335,1758.144L132.363,1758.144ZM159.933,1757.124C151.892,1757.456 143.878,1757.758 135.975,1758.044C146.58,1765.972 157.243,1773.874 167.965,1781.754C175.942,1782.122 184.001,1782.442 192.088,1782.746C181.253,1774.264 170.584,1765.69 159.905,1757.152L159.933,1757.124ZM1656.673,1428.574C1664.025,1425.532 1671.331,1422.536 1678.663,1419.45C1681.899,1403.018 1685.225,1386.844 1688.259,1369.824C1681.531,1374.344 1674.795,1378.664 1668.041,1383.112C1664.391,1398.744 1660.459,1413.448 1656.645,1428.574L1656.673,1428.574ZM1632.081,1438.784C1639.431,1435.808 1646.739,1432.7 1654.071,1429.66C1657.839,1414.854 1661.671,1400.252 1665.275,1384.968C1658.511,1389.434 1651.755,1393.956 1644.983,1398.312C1640.773,1412.152 1636.371,1425.394 1632.053,1438.784L1632.081,1438.784ZM1607.543,1448.6C1614.813,1445.686 1622.073,1442.856 1629.359,1439.896C1633.605,1426.782 1637.889,1413.798 1641.997,1400.278C1635.297,1404.57 1628.597,1408.624 1621.897,1412.832C1617.173,1425.036 1612.313,1436.726 1607.515,1448.6L1607.543,1448.6ZM1582.933,1458.406C1590.165,1455.556 1597.425,1452.634 1604.667,1449.74C1609.371,1438.188 1614.095,1426.764 1618.681,1414.818C1611.973,1419.018 1605.273,1423.254 1598.555,1427.37C1593.391,1437.94 1588.125,1448.104 1582.905,1458.406L1582.933,1458.406ZM1558.451,1467.89C1565.573,1465.132 1572.685,1462.44 1579.817,1459.618C1584.881,1449.694 1589.925,1439.814 1594.925,1429.622C1588.355,1433.63 1581.775,1437.488 1575.195,1441.414C1569.643,1450.42 1564.011,1459.104 1558.423,1467.89L1558.451,1467.89ZM1534.087,1477.208C1541.053,1474.568 1548.025,1471.902 1555.005,1469.212C1560.353,1460.84 1565.719,1452.478 1571.013,1443.912C1564.579,1447.764 1558.083,1451.604 1551.613,1455.372C1545.749,1462.742 1539.905,1469.948 1534.061,1477.208L1534.087,1477.208ZM1510.111,1486.214C1516.747,1483.764 1523.385,1481.278 1530.025,1478.76C1535.461,1472.07 1540.873,1465.332 1546.265,1458.542C1540.153,1462.082 1534.041,1465.518 1527.939,1468.992C1521.975,1474.754 1516.029,1480.48 1510.083,1486.214L1510.111,1486.214ZM1487.357,1494.568C1493.257,1492.408 1499.147,1490.258 1505.057,1488.07C1510.221,1483.126 1515.373,1478.142 1520.515,1473.118C1515.123,1476.182 1509.729,1479.196 1504.331,1482.162C1498.651,1486.342 1492.991,1490.432 1487.329,1494.568L1487.357,1494.568ZM1468.895,1501.34C1472.571,1500.008 1476.293,1498.584 1479.977,1497.27C1482.919,1495.146 1485.841,1492.968 1488.773,1490.836C1482.119,1494.438 1475.493,1497.812 1468.867,1501.34L1468.895,1501.34ZM42.963,1737.696C35.069,1738.616 27.193,1739.48 19.455,1740.334C29.478,1746.216 39.587,1752.054 49.782,1757.85C57.655,1757.74 65.598,1757.612 73.612,1757.464C63.325,1750.916 53.109,1744.326 42.963,1737.696ZM70.101,1734.6L46.391,1737.356C56.721,1744.096 67.136,1750.786 77.637,1757.428C85.605,1757.272 93.581,1757.116 101.678,1756.904C91.079,1749.484 80.553,1742.05 70.101,1734.6ZM97.23,1731.466L73.336,1734.224C83.941,1741.778 94.635,1749.288 105.418,1756.756C113.413,1756.546 121.436,1756.316 129.542,1756.068C118.704,1747.9 107.933,1739.7 97.23,1731.466ZM124.322,1728.278L100.428,1731.098C111.284,1739.424 122.217,1747.696 133.227,1755.912C141.185,1755.654 149.263,1755.342 157.36,1754.992C146.252,1746.158 135.239,1737.252 124.322,1728.278ZM1644.725,1475.02L1668.499,1470.002C1671.891,1454.508 1674.987,1438.16 1678.149,1422.012C1670.797,1425.11 1663.381,1428.134 1655.993,1431.202C1652.289,1445.944 1648.677,1460.868 1644.725,1475.02ZM1618.461,1480.534C1626.327,1478.89 1634.259,1477.208 1642.171,1475.544C1646.067,1461.566 1649.697,1446.836 1653.391,1432.27C1645.993,1435.338 1638.577,1438.472 1631.197,1441.458C1626.989,1454.628 1622.835,1467.926 1618.461,1480.534ZM1592.223,1485.976C1600.089,1484.34 1607.929,1482.73 1615.813,1481.076C1620.169,1468.624 1624.305,1455.528 1628.487,1442.562C1621.135,1445.558 1613.783,1448.424 1606.431,1451.366C1601.707,1463.018 1597.057,1474.8 1592.223,1485.984L1592.223,1485.976ZM1566.013,1491.416C1573.807,1489.808 1581.637,1488.162 1589.475,1486.544C1594.263,1475.516 1598.885,1463.974 1603.527,1452.542C1596.175,1455.482 1588.823,1458.47 1581.471,1461.346C1576.325,1471.454 1571.243,1481.684 1566.013,1491.424L1566.013,1491.416ZM1539.905,1496.746C1547.643,1495.166 1555.335,1493.612 1563.101,1492.012C1568.255,1482.464 1573.283,1472.484 1578.319,1462.604C1571.031,1465.454 1563.763,1468.184 1556.483,1470.986C1550.979,1479.616 1545.501,1488.402 1539.905,1496.754L1539.905,1496.746ZM1513.907,1502.048L1536.735,1497.398C1542.249,1489.228 1547.625,1480.736 1553.037,1472.264C1545.805,1475.02 1538.581,1477.778 1531.377,1480.534C1525.531,1487.794 1519.779,1495.092 1513.907,1502.058L1513.907,1502.048ZM1488.175,1507.24L1510.341,1502.774C1516.039,1496.048 1521.671,1489.072 1527.315,1482.096C1520.275,1484.752 1513.263,1487.326 1506.243,1489.926C1500.231,1495.772 1494.231,1501.672 1488.175,1507.25L1488.175,1507.24ZM1462.995,1512.286L1483.947,1508.086C1489.719,1502.766 1495.453,1497.288 1501.187,1491.784C1494.449,1494.264 1487.709,1496.734 1480.969,1499.19C1474.987,1503.61 1469.005,1508.05 1463.041,1512.296L1462.995,1512.286ZM1439.045,1517.064C1445.193,1515.852 1451.379,1514.602 1457.535,1513.388C1462.903,1509.62 1468.263,1505.792 1473.617,1501.902C1467.589,1504.08 1461.579,1506.212 1455.569,1508.334C1450.063,1511.284 1444.551,1514.244 1439.045,1517.074L1439.045,1517.064ZM1420.197,1520.74L1431.105,1518.59C1434.635,1516.752 1438.163,1515.024 1441.691,1513.186C1434.551,1515.76 1427.347,1518.314 1420.197,1520.786L1420.197,1520.74ZM35.143,1709.364C27.221,1711.018 19.345,1712.672 11.589,1714.318C22.12,1721.394 32.827,1728.424 43.561,1735.454L67.454,1732.698C56.629,1724.988 45.812,1717.184 35.143,1709.364ZM61.711,1703.85C53.746,1705.486 45.855,1707.118 38.037,1708.748C48.826,1716.652 59.781,1724.5 70.763,1732.34C78.73,1731.42 86.68,1730.502 94.776,1729.582C83.684,1721.026 72.601,1712.47 61.711,1703.85ZM88.306,1698.428C80.284,1700.046 72.417,1701.664 64.541,1703.28C75.569,1711.946 86.735,1720.586 97.937,1729.196L122.006,1726.366C110.711,1717.084 99.426,1707.784 88.306,1698.438L88.306,1698.428ZM1631.363,1519.968L1656.893,1519.05C1660.643,1503.674 1664.401,1488.31 1667.921,1472.346L1644.027,1477.392C1639.937,1491.958 1635.627,1505.908 1631.363,1519.978L1631.363,1519.968ZM1603.499,1521.044C1611.935,1520.694 1620.445,1520.382 1628.927,1520.052C1633.165,1506.174 1637.411,1492.306 1641.463,1477.906C1633.495,1479.588 1625.501,1481.278 1617.569,1482.934C1612.993,1495.982 1608.241,1508.454 1603.499,1521.054L1603.499,1521.044ZM1575.673,1522.23C1584.117,1521.87 1592.535,1521.494 1601.019,1521.144C1605.705,1508.738 1610.391,1496.332 1614.931,1483.466C1606.963,1485.13 1599.051,1486.756 1591.111,1488.402C1586.047,1499.98 1580.847,1511.064 1575.673,1522.238L1575.673,1522.23ZM1547.955,1523.414C1556.291,1523.038 1564.745,1522.708 1573.127,1522.34C1578.237,1511.312 1583.365,1500.366 1588.355,1488.99C1580.441,1490.634 1572.483,1492.298 1564.599,1493.916C1559.121,1503.996 1553.525,1513.664 1547.955,1523.424L1547.955,1523.414ZM1520.293,1524.756C1528.639,1524.352 1536.919,1523.93 1545.309,1523.544C1550.823,1513.958 1556.281,1504.41 1561.675,1494.522C1553.781,1496.148 1545.961,1497.73 1538.095,1499.328C1532.213,1508.004 1526.239,1516.376 1520.293,1524.766L1520.293,1524.756ZM1492.797,1526.098C1500.985,1525.684 1509.247,1525.298 1517.473,1524.894C1523.307,1516.624 1529.153,1508.454 1534.933,1499.98C1527.133,1501.574 1519.337,1503.16 1511.545,1504.74C1505.313,1512.01 1499.055,1519.022 1492.797,1526.108L1492.797,1526.098ZM1465.475,1527.532C1473.553,1527.1 1481.613,1526.614 1489.737,1526.246C1495.829,1519.372 1501.923,1512.524 1507.969,1505.476L1484.995,1510.072C1478.497,1516.008 1471.983,1521.752 1465.475,1527.542L1465.475,1527.532ZM1438.493,1529.002C1446.299,1528.562 1454.129,1528.136 1461.983,1527.724C1468.251,1522.21 1474.519,1516.614 1480.759,1510.934C1473.297,1512.442 1465.843,1513.938 1458.399,1515.42C1451.773,1520.052 1445.129,1524.49 1438.493,1529.012L1438.493,1529.002ZM1412.165,1530.482C1419.517,1530.05 1426.869,1529.636 1434.303,1529.222C1440.515,1525.014 1446.737,1520.796 1452.941,1516.514L1431.803,1520.704C1425.251,1523.994 1418.707,1527.228 1412.165,1530.492L1412.165,1530.482ZM1387.251,1531.98C1393.683,1531.594 1400.117,1531.19 1406.633,1530.812C1412.349,1527.982 1418.059,1525.14 1423.763,1522.284L1405.235,1525.96C1399.235,1527.982 1393.243,1529.968 1387.251,1531.998L1387.251,1531.98ZM1368.439,1533.11C1371.931,1532.89 1375.469,1532.696 1378.979,1532.476L1388.859,1529.15C1382.021,1530.5 1375.249,1531.796 1368.439,1533.12L1368.439,1533.11ZM25.897,1675.306C18.013,1677.658 10.183,1680.02 2.472,1682.392C13.427,1690.626 24.507,1698.842 35.712,1707.04C43.579,1705.394 51.491,1703.75 59.505,1702.104C48.22,1693.19 36.971,1684.258 25.897,1675.306ZM52.015,1667.632C44.087,1669.918 36.245,1672.218 28.489,1674.534C39.652,1683.552 50.934,1692.55 62.336,1701.526C70.248,1699.908 78.151,1698.282 86.229,1696.664C74.73,1687.008 63.325,1677.332 52.015,1667.632ZM1617.845,1563.244C1626.815,1564.228 1635.885,1565.294 1644.919,1566.314C1648.879,1551.664 1652.639,1536.464 1656.369,1521.182C1647.791,1521.482 1639.239,1521.788 1630.711,1522.1C1626.493,1536.078 1622.255,1549.956 1617.845,1563.244ZM1588.437,1560.092C1597.379,1561.01 1606.395,1562.004 1615.401,1562.978C1619.803,1549.762 1624.029,1536.014 1628.267,1522.22C1619.719,1522.542 1611.155,1522.864 1602.663,1523.212C1598.003,1535.674 1593.327,1548.172 1588.483,1560.128L1588.437,1560.092ZM1559.149,1557.16C1568.081,1558.03 1577.035,1558.924 1586.011,1559.844C1590.827,1548.008 1595.495,1535.666 1600.155,1523.324C1591.607,1523.672 1583.125,1524.048 1574.615,1524.416C1569.551,1535.508 1564.443,1546.582 1559.195,1557.198L1559.149,1557.16ZM1530.053,1554.274C1538.857,1555.084 1547.817,1556.04 1556.705,1556.912C1561.915,1546.398 1567.007,1535.462 1572.079,1524.526C1563.625,1524.894 1555.077,1525.226 1546.669,1525.612C1541.201,1535.316 1535.705,1545.02 1530.127,1554.312L1530.053,1554.274ZM1500.967,1551.73C1509.817,1552.51 1518.603,1553.228 1527.507,1554.044C1533.077,1544.854 1538.535,1535.298 1544.049,1525.74C1535.559,1526.136 1527.167,1526.568 1518.723,1526.972C1512.841,1535.352 1506.977,1543.752 1501.013,1551.766L1500.967,1551.73ZM1472.147,1549.212C1480.805,1549.918 1489.609,1550.736 1498.311,1551.5C1504.221,1543.578 1510.037,1535.344 1515.855,1527.11C1507.491,1527.514 1499.083,1527.908 1490.767,1528.332C1484.627,1535.398 1478.451,1542.484 1472.231,1549.248L1472.147,1549.212ZM1443.419,1546.988C1452.049,1547.64 1460.633,1548.256 1469.317,1548.962C1475.483,1542.31 1481.595,1535.39 1487.697,1528.478C1479.361,1528.91 1471.155,1529.398 1462.837,1529.812C1456.433,1535.674 1449.973,1541.464 1443.465,1547.024L1443.419,1546.988ZM1415.013,1544.874C1423.395,1545.462 1431.831,1546.104 1440.259,1546.712C1446.691,1541.272 1453.005,1535.61 1459.355,1529.958C1451.221,1530.4 1443.079,1530.878 1434.993,1531.29C1428.385,1535.914 1421.731,1540.526 1415.059,1544.91L1415.013,1544.874ZM1387.021,1542.944C1395.121,1543.464 1403.245,1544.016 1411.393,1544.598C1417.871,1540.352 1424.341,1535.95 1430.801,1531.548L1407.165,1532.918C1400.493,1536.326 1393.775,1539.736 1387.067,1543.026L1387.021,1542.944ZM1359.561,1541.252C1367.199,1541.712 1374.835,1542.172 1382.537,1542.658C1388.905,1539.598 1395.283,1536.418 1401.661,1533.248L1379.375,1534.59C1372.805,1536.868 1366.187,1539.12 1359.607,1541.29L1359.561,1541.252ZM1334.207,1539.69C1340.639,1540.048 1347.219,1540.508 1353.679,1540.894C1359.469,1538.996 1365.271,1537.058 1371.085,1535.086L1351.787,1536.29L1334.207,1539.69ZM1314.669,1538.772C1318.143,1538.946 1321.571,1539.084 1325.053,1539.268L1334.445,1537.43C1327.893,1537.908 1321.285,1538.33 1314.715,1538.78L1314.669,1538.772ZM1603.233,1604.938C1612.699,1607.172 1622.329,1609.598 1631.869,1611.924C1636.115,1597.728 1640.257,1583.226 1644.293,1568.418C1635.223,1567.388 1626.107,1566.322 1617.091,1565.34C1612.597,1578.868 1607.947,1592 1603.251,1604.976L1603.233,1604.938ZM1572.401,1597.798C1581.873,1599.968 1591.369,1602.172 1600.889,1604.416C1605.567,1591.55 1610.163,1578.5 1614.675,1565.11C1605.613,1564.126 1596.551,1563.144 1587.555,1562.214C1582.629,1574.354 1577.537,1586.118 1572.401,1597.798ZM1541.707,1590.87C1551.129,1592.952 1560.589,1595.096 1570.085,1597.302C1575.167,1585.742 1580.193,1574.024 1585.137,1561.994C1576.095,1561.062 1567.083,1560.16 1558.101,1559.284C1552.743,1570.044 1547.239,1580.466 1541.733,1590.87L1541.707,1590.87ZM1511.233,1584.114C1520.541,1586.108 1529.999,1588.26 1539.391,1590.346C1544.849,1580.062 1550.289,1569.686 1555.639,1559.008C1546.687,1558.088 1537.653,1557.17 1528.767,1556.37C1523.013,1565.836 1517.133,1574.97 1511.259,1584.114L1511.233,1584.114ZM1480.805,1577.8C1490.141,1579.73 1499.441,1581.606 1508.853,1583.618C1514.679,1574.576 1520.495,1565.504 1526.221,1556.14C1517.233,1555.314 1508.347,1554.578 1499.413,1553.806C1493.285,1561.986 1487.053,1569.87 1480.831,1577.8L1480.805,1577.8ZM1450.717,1571.562C1459.843,1573.4 1469.161,1575.394 1478.351,1577.286C1484.507,1569.466 1490.665,1561.664 1496.731,1553.568C1487.899,1552.804 1478.993,1551.968 1470.227,1551.252C1463.793,1558.172 1457.269,1564.834 1450.743,1571.562L1450.717,1571.562ZM1420.647,1565.798C1429.837,1567.554 1438.907,1569.19 1448.161,1571.028C1454.595,1564.412 1461.027,1557.822 1467.461,1551.004C1458.601,1550.286 1449.871,1549.68 1441.067,1549.008C1434.275,1554.726 1427.465,1560.23 1420.675,1565.798L1420.647,1565.798ZM1390.981,1560.194C1399.869,1561.82 1408.875,1563.566 1417.843,1565.266C1424.525,1559.808 1431.207,1554.376 1437.869,1548.78C1429.231,1548.126 1420.555,1547.456 1411.981,1546.85C1405.015,1551.37 1398.003,1555.754 1391.009,1560.194L1390.981,1560.194ZM1361.573,1554.918C1370.285,1556.444 1379.037,1558.002 1387.829,1559.596C1394.657,1555.286 1401.505,1550.984 1408.323,1546.582C1399.823,1545.986 1391.377,1545.434 1382.931,1544.892C1375.865,1548.282 1368.743,1551.572 1361.629,1554.918L1361.573,1554.918ZM1332.607,1549.982C1340.989,1551.38 1349.397,1552.81 1357.833,1554.274C1364.699,1551.068 1371.563,1547.842 1378.429,1544.616C1370.249,1544.09 1362.095,1543.586 1353.965,1543.108C1346.889,1545.424 1339.785,1547.686 1332.663,1549.982L1332.607,1549.982ZM1304.909,1545.314C1312.527,1546.528 1320.311,1547.916 1327.985,1549.192C1334.665,1547.042 1341.337,1544.91 1348.027,1542.76C1340.419,1542.328 1332.791,1541.84 1325.237,1541.474L1304.909,1545.314ZM1278.341,1541.28C1285.049,1542.31 1291.693,1543.266 1298.439,1544.332L1315.965,1541.004C1309.255,1540.656 1302.575,1540.342 1295.903,1540.03C1290.067,1540.434 1284.259,1540.866 1278.395,1541.28L1278.341,1541.28ZM1259.225,1538.386C1262.341,1538.844 1265.493,1539.304 1268.617,1539.81L1277.807,1539.148C1271.639,1538.884 1265.463,1538.646 1259.281,1538.432L1259.225,1538.386ZM1588.069,1645.118C1597.939,1648.564 1608.021,1652.286 1618.001,1655.87C1622.513,1642.214 1626.943,1628.3 1631.235,1614.046C1621.659,1611.712 1611.981,1609.276 1602.479,1607.034C1597.811,1620.004 1593.025,1632.698 1588.125,1645.118L1588.069,1645.118ZM1555.905,1634.144C1565.867,1637.536 1575.755,1640.808 1585.791,1644.254C1590.691,1631.92 1595.485,1619.308 1600.173,1606.418C1590.569,1604.158 1581.029,1601.962 1571.491,1599.784C1566.437,1611.492 1561.253,1622.978 1555.969,1634.144L1555.905,1634.144ZM1523.997,1623.392C1533.811,1626.646 1543.727,1630.018 1553.643,1633.382C1558.901,1622.28 1564.075,1610.894 1569.185,1599.306C1559.645,1597.124 1550.131,1594.98 1540.641,1592.872C1535.209,1603.212 1529.685,1613.458 1524.061,1623.392L1523.997,1623.392ZM1492.283,1612.97C1502.033,1616.114 1511.885,1619.404 1521.691,1622.63C1527.287,1612.768 1532.801,1602.614 1538.233,1592.302C1528.767,1590.208 1519.245,1588.048 1509.863,1586.044C1504.165,1595.18 1498.301,1604.232 1492.347,1612.97L1492.283,1612.97ZM1460.669,1603.028C1470.419,1606.078 1480.143,1609.084 1489.975,1612.218C1495.903,1603.542 1501.749,1594.582 1507.575,1585.566C1498.091,1583.544 1488.707,1581.642 1479.289,1579.694C1473.149,1587.588 1466.991,1595.464 1460.733,1603.028L1460.669,1603.028ZM1429.423,1593.222C1438.925,1596.098 1448.723,1599.296 1458.279,1602.292C1464.501,1594.784 1470.649,1587.01 1476.797,1579.198C1467.507,1577.286 1458.077,1575.228 1448.861,1573.4C1442.509,1580.09 1436.059,1586.798 1429.533,1593.222L1429.423,1593.222ZM1398.177,1584.032C1407.809,1586.862 1417.293,1589.546 1427.015,1592.45C1433.449,1586.082 1439.881,1579.464 1446.315,1572.838C1436.923,1571 1427.723,1569.338 1418.405,1567.564C1411.761,1573.142 1405.025,1578.738 1398.251,1584.06L1398.177,1584.032ZM1367.373,1575.054C1376.691,1577.7 1386.147,1580.522 1395.549,1583.27C1402.267,1578.004 1408.939,1572.508 1415.621,1567.04C1406.495,1565.302 1397.313,1563.51 1388.253,1561.856C1381.379,1566.322 1374.421,1570.816 1367.465,1575.08L1367.373,1575.054ZM1336.751,1566.524C1345.941,1569.052 1355.197,1571.58 1364.515,1574.216C1371.399,1570.018 1378.299,1565.624 1385.137,1561.268C1376.075,1559.624 1367.097,1558.07 1358.119,1556.498C1351.061,1559.89 1343.939,1563.308 1336.825,1566.552L1336.751,1566.524ZM1306.425,1558.374C1315.395,1560.754 1324.391,1563.152 1333.443,1565.634C1340.419,1562.462 1347.413,1559.146 1354.397,1555.864C1345.617,1554.338 1336.869,1552.848 1328.151,1551.39C1320.955,1553.76 1313.703,1556.132 1306.481,1558.402L1306.425,1558.374ZM1277.017,1550.59C1285.453,1552.74 1294.055,1555.092 1302.565,1557.334C1309.541,1555.138 1316.543,1552.86 1323.545,1550.598C1315.183,1549.22 1306.801,1547.842 1298.513,1546.5L1277.017,1550.59ZM1247.857,1543.44C1255.889,1545.406 1263.849,1547.29 1271.945,1549.34L1292.043,1545.526C1284.177,1544.286 1276.365,1543.128 1268.553,1541.96C1261.679,1542.474 1254.759,1542.962 1247.895,1543.468L1247.857,1543.44ZM1221.693,1537.006C1228.071,1538.514 1234.559,1540.178 1240.993,1541.74C1246.893,1541.298 1252.857,1540.884 1258.811,1540.462C1252.701,1539.544 1246.461,1538.532 1240.433,1537.706C1234.211,1537.512 1227.933,1537.246 1221.731,1537.052L1221.693,1537.006ZM1203.947,1532.826C1206.447,1533.404 1208.873,1533.892 1211.383,1534.48C1213.635,1534.544 1215.923,1534.646 1218.183,1534.718C1213.447,1534.13 1208.715,1533.53 1203.985,1532.918L1203.947,1532.826ZM1572.271,1683.67C1582.583,1688.264 1593.143,1693.282 1603.591,1698.106C1608.315,1685.13 1612.781,1671.456 1617.321,1657.872C1607.305,1654.27 1597.177,1650.522 1587.261,1647.074C1582.381,1659.554 1577.419,1671.85 1572.309,1683.716L1572.271,1683.67ZM1538.783,1669.058C1549.233,1673.652 1559.525,1677.98 1570.029,1682.694C1575.121,1670.904 1580.047,1658.626 1584.955,1646.266C1574.845,1642.756 1564.939,1639.466 1554.931,1636.056C1549.683,1647.332 1544.297,1658.36 1538.821,1669.104L1538.783,1669.058ZM1505.627,1654.602C1515.863,1658.984 1526.249,1663.57 1536.597,1668.102C1542.055,1657.442 1547.403,1646.44 1552.707,1635.294C1542.745,1631.92 1532.773,1628.52 1522.895,1625.248C1517.233,1635.278 1511.489,1645.078 1505.663,1654.648L1505.627,1654.602ZM1472.643,1640.67C1482.881,1644.942 1493.129,1649.244 1503.467,1653.664C1509.245,1644.144 1514.967,1634.418 1520.633,1624.486C1510.727,1621.214 1500.811,1617.942 1490.997,1614.782C1484.967,1623.65 1478.837,1632.224 1472.681,1640.716L1472.643,1640.67ZM1439.863,1627.216C1450.037,1631.36 1460.191,1635.486 1470.465,1639.768C1476.577,1631.35 1482.661,1622.814 1488.689,1614.036C1478.783,1610.858 1468.987,1607.824 1459.163,1604.756C1452.803,1612.474 1446.351,1619.872 1439.899,1627.262L1439.863,1627.216ZM1407.505,1614C1417.439,1617.942 1427.623,1622.272 1437.649,1626.306C1444.081,1618.954 1450.469,1611.602 1456.809,1604.03C1447.133,1601.014 1437.291,1597.78 1427.695,1594.84C1421.033,1601.446 1414.333,1607.732 1407.543,1614.046L1407.505,1614ZM1375.083,1601.548C1385.193,1605.426 1395.043,1609.102 1405.207,1613.118C1411.889,1606.86 1418.589,1600.62 1425.223,1594.16C1415.399,1591.19 1405.795,1588.498 1396.063,1585.65C1389.125,1591.108 1382.113,1596.328 1375.119,1601.594L1375.083,1601.548ZM1343.231,1589.316C1352.953,1592.992 1362.851,1596.842 1372.639,1600.62C1379.567,1595.418 1386.497,1590.244 1393.399,1584.886C1383.869,1582.13 1374.265,1579.216 1364.819,1576.542C1357.695,1580.934 1350.481,1585.116 1343.267,1589.362L1343.231,1589.316ZM1311.497,1577.664C1321.193,1581.192 1330.797,1584.656 1340.639,1588.324C1347.761,1584.132 1354.883,1579.998 1361.997,1575.706C1352.467,1573.022 1343.065,1570.486 1333.627,1567.904C1326.285,1571.258 1318.915,1574.456 1311.535,1577.71L1311.497,1577.664ZM1280.161,1566.47C1289.571,1569.79 1299.031,1573.16 1308.539,1576.578C1315.789,1573.38 1323.041,1570.228 1330.291,1566.976C1321.027,1564.452 1311.801,1561.972 1302.611,1559.54C1295.139,1561.948 1287.687,1564.21 1280.161,1566.516L1280.161,1566.47ZM1249.577,1555.708C1258.545,1558.768 1267.689,1562.058 1276.751,1565.248C1284.103,1563.006 1291.353,1560.782 1298.677,1558.512C1289.727,1556.158 1280.757,1553.788 1271.889,1551.546L1249.577,1555.708ZM1218.973,1545.6C1227.749,1548.494 1236.435,1551.278 1245.303,1554.294L1266.779,1550.286C1258.059,1548.09 1249.447,1546.022 1240.817,1543.918C1233.531,1544.516 1226.297,1545.084 1219.011,1545.646L1218.973,1545.6ZM1190.227,1536.106C1197.947,1538.57 1205.851,1541.28 1213.653,1543.844L1234.063,1542.264C1226.427,1540.426 1218.633,1538.394 1211.089,1536.63C1204.105,1536.464 1197.211,1536.326 1190.265,1536.152L1190.227,1536.106ZM1162.869,1527.596C1169.679,1529.7 1176.341,1531.612 1183.207,1533.79L1199.931,1534.158C1192.865,1532.54 1185.917,1531.06 1178.897,1529.498C1173.557,1528.864 1168.255,1528.322 1162.905,1527.642L1162.869,1527.596ZM1142.569,1521.458L1151.345,1524.114L1157.943,1524.858C1152.879,1523.81 1147.659,1522.56 1142.605,1521.504L1142.569,1521.458ZM1555.445,1720.732C1566.151,1726.476 1577.033,1732.496 1587.895,1738.468C1592.949,1725.87 1598.003,1713.372 1602.893,1700.174C1592.397,1695.322 1581.755,1690.314 1571.453,1685.682C1566.271,1697.766 1560.877,1709.272 1555.481,1720.778L1555.445,1720.732ZM1520.937,1702.646C1531.753,1708.334 1542.405,1713.794 1553.323,1719.638C1558.699,1708.188 1564.093,1696.738 1569.303,1684.716C1558.707,1679.984 1548.379,1675.618 1537.883,1671.014C1532.305,1681.878 1526.625,1692.298 1520.937,1702.646ZM1486.777,1684.726C1497.337,1690.158 1508.107,1695.9 1518.787,1701.516C1524.475,1691.224 1530.155,1680.866 1535.697,1670.104C1525.303,1665.51 1514.863,1660.914 1504.569,1656.532C1498.687,1666.172 1492.743,1675.508 1486.759,1684.726L1486.777,1684.726ZM1452.775,1667.504C1463.407,1672.852 1473.911,1678.09 1484.711,1683.614C1490.675,1674.424 1496.601,1665.16 1502.455,1655.594C1492.053,1651.146 1481.751,1646.826 1471.459,1642.536C1465.233,1651.026 1458.985,1659.35 1452.711,1667.504L1452.775,1667.504ZM1418.929,1650.732C1429.433,1655.906 1439.955,1661.108 1450.561,1666.438C1456.815,1658.35 1463.025,1650.08 1469.189,1641.626C1458.859,1637.324 1448.621,1633.152 1438.383,1628.99C1431.951,1636.368 1425.481,1643.666 1418.929,1650.732ZM1385.579,1634.338C1395.871,1639.282 1406.385,1644.556 1416.823,1649.666C1423.331,1642.646 1429.781,1635.412 1436.215,1628.088C1426.105,1623.972 1415.831,1619.68 1405.815,1615.71C1399.079,1622.004 1392.361,1628.3 1385.597,1634.338L1385.579,1634.338ZM1352.181,1618.714C1362.585,1623.586 1372.841,1628.254 1383.355,1633.3C1390.099,1627.298 1396.789,1621.076 1403.481,1614.818C1393.225,1610.774 1383.207,1607.044 1373.061,1603.138C1366.133,1608.386 1359.193,1613.67 1352.201,1618.714L1352.181,1618.714ZM1319.393,1603.376C1329.445,1607.972 1339.711,1612.878 1349.875,1617.64C1356.823,1612.64 1363.733,1607.42 1370.653,1602.21C1360.719,1598.396 1350.693,1594.444 1340.859,1590.768C1333.729,1595.004 1326.579,1599.306 1319.411,1603.376L1319.393,1603.376ZM1286.593,1588.672C1296.703,1593.166 1306.719,1597.532 1316.921,1602.192C1324.033,1598.166 1331.137,1593.92 1338.249,1589.738C1328.269,1586.008 1318.473,1582.534 1308.593,1578.95C1301.297,1582.248 1293.945,1585.566 1286.593,1588.71L1286.593,1588.672ZM1254.181,1574.464C1264.025,1578.724 1273.921,1583.058 1283.863,1587.468C1291.123,1584.372 1298.393,1581.11 1305.663,1577.892C1295.971,1574.382 1286.321,1570.934 1276.713,1567.546C1269.215,1569.898 1261.689,1572.242 1254.199,1574.502L1254.181,1574.464ZM1222.447,1560.782C1231.923,1564.76 1241.563,1568.998 1251.147,1573.132C1258.499,1570.918 1265.915,1568.602 1273.305,1566.322C1263.885,1563.024 1254.475,1559.716 1245.155,1556.544L1222.447,1560.782ZM1190.631,1547.796C1200.005,1551.618 1209.269,1555.294 1218.735,1559.264C1226.087,1557.904 1233.493,1556.508 1240.883,1555.13C1231.637,1551.996 1222.503,1549.046 1213.377,1546.04C1205.795,1546.702 1198.195,1547.236 1190.651,1547.832L1190.631,1547.796ZM1160.369,1535.444C1168.861,1538.808 1177.583,1542.484 1186.165,1545.966C1193.417,1545.398 1200.741,1544.836 1208.047,1544.286C1199.665,1541.528 1191.119,1538.578 1182.811,1535.94C1175.331,1535.802 1167.831,1535.62 1160.387,1535.482L1160.369,1535.444ZM1130.447,1523.92C1138.589,1527.044 1146.547,1529.922 1154.763,1533.11C1161.537,1533.23 1168.383,1533.404 1175.211,1533.57C1166.995,1530.988 1158.981,1528.672 1150.839,1526.218C1144.057,1525.5 1137.239,1524.702 1130.465,1523.958L1130.447,1523.92ZM1103.447,1513.738C1109.669,1516.054 1115.927,1518.424 1122.195,1520.804C1127.865,1521.42 1133.609,1522.1 1139.333,1522.754C1133.213,1520.916 1127.009,1518.966 1120.953,1517.184C1115.145,1516.09 1109.283,1514.906 1103.465,1513.774L1103.447,1513.738ZM1087.319,1507.644C1088.595,1508.122 1089.911,1508.646 1091.187,1509.116C1092.897,1509.438 1094.633,1509.796 1096.343,1510.126C1093.329,1509.308 1090.361,1508.536 1087.337,1507.682L1087.319,1507.644ZM1538.397,1756.574C1549.573,1763.448 1560.819,1770.438 1572.135,1777.544C1577.327,1765.782 1582.169,1752.98 1587.133,1740.536C1576.233,1734.544 1565.315,1728.506 1554.563,1722.744C1549.205,1734.178 1543.911,1745.738 1538.397,1756.574ZM1502.685,1734.976C1513.889,1741.758 1524.971,1748.348 1536.275,1755.286C1541.789,1744.516 1547.055,1732.954 1552.385,1721.596C1541.431,1715.732 1530.725,1710.246 1519.871,1704.54C1514.173,1714.878 1508.513,1725.18 1502.667,1734.976L1502.685,1734.976ZM1467.433,1713.656C1478.351,1720.088 1489.545,1727.028 1500.609,1733.718C1506.427,1723.976 1512.059,1713.656 1517.721,1703.39C1506.987,1697.748 1496.169,1691.976 1485.555,1686.518C1479.583,1695.744 1473.535,1704.88 1467.415,1713.656L1467.433,1713.656ZM1432.245,1693.246C1443.273,1699.678 1454.199,1705.798 1465.393,1712.424C1471.495,1703.694 1477.477,1694.578 1483.451,1685.424C1472.643,1679.91 1462.039,1674.618 1451.351,1669.24C1445.009,1677.402 1438.641,1685.47 1432.227,1693.246L1432.245,1693.246ZM1397.451,1673.248C1408.307,1679.424 1419.223,1685.698 1430.195,1692.068C1436.629,1684.304 1442.915,1676.298 1449.219,1668.174C1438.545,1662.808 1427.937,1657.54 1417.393,1652.368C1410.767,1659.49 1404.115,1666.42 1397.433,1673.248L1397.451,1673.248ZM1363.035,1653.766C1373.733,1659.72 1384.595,1665.932 1395.411,1672.072C1402.065,1665.29 1408.681,1658.37 1415.261,1651.312C1404.767,1646.156 1394.179,1640.872 1383.805,1635.89C1376.893,1641.992 1369.955,1647.884 1363.017,1653.766L1363.035,1653.766ZM1328.683,1635.082C1339.435,1640.936 1350.059,1646.588 1360.939,1652.626C1367.841,1646.79 1374.725,1640.908 1381.589,1634.852C1370.993,1629.77 1360.637,1625.056 1350.151,1620.148C1342.991,1625.24 1335.823,1630.146 1328.665,1635.082L1328.683,1635.082ZM1294.983,1616.758C1305.369,1622.272 1316.011,1628.198 1326.523,1633.906C1333.637,1629.008 1340.759,1624.128 1347.853,1619.074C1337.589,1614.266 1327.213,1609.294 1317.067,1604.664C1309.687,1608.79 1302.327,1612.742 1294.965,1616.758L1294.983,1616.758ZM1261.257,1599.232C1271.751,1604.672 1282.091,1609.884 1292.713,1615.516C1300.019,1611.538 1307.325,1607.614 1314.623,1603.524C1304.247,1598.8 1294.119,1594.426 1283.855,1589.868C1276.301,1593.056 1268.773,1596.108 1261.239,1599.232L1261.257,1599.232ZM1228.053,1582.222C1238.217,1587.356 1248.443,1592.594 1258.729,1597.936C1266.191,1594.848 1273.645,1591.816 1281.117,1588.664C1271.007,1584.206 1260.999,1579.776 1251.037,1575.476C1243.337,1577.774 1235.699,1579.96 1228.035,1582.222L1228.053,1582.222ZM1195.439,1565.79C1205.281,1570.642 1215.297,1575.76 1225.251,1580.788C1232.823,1578.564 1240.367,1576.386 1247.959,1574.126C1238.107,1569.888 1228.255,1565.634 1218.551,1561.554L1195.439,1565.79ZM1162.695,1550.094C1172.501,1554.79 1182.195,1559.284 1192.103,1564.2C1199.675,1562.812 1207.201,1561.442 1214.801,1560.036C1205.041,1555.966 1195.503,1552.124 1185.807,1548.21C1178.059,1548.826 1170.387,1549.46 1162.677,1550.094L1162.695,1550.094ZM1131.247,1535.004C1140.327,1539.24 1149.627,1543.854 1158.817,1548.236C1166.333,1547.622 1173.787,1546.988 1181.331,1546.398C1172.353,1542.724 1163.173,1538.864 1154.285,1535.372C1146.557,1535.196 1138.893,1535.104 1131.227,1535.004L1131.247,1535.004ZM1099.669,1520.658C1108.685,1524.748 1117.535,1528.562 1126.651,1532.798C1133.903,1532.89 1141.089,1532.936 1148.377,1533.046C1139.333,1529.508 1130.557,1526.346 1121.615,1522.938C1114.245,1522.14 1106.923,1521.38 1099.651,1520.658L1099.669,1520.658ZM1069.489,1507.186C1077.455,1510.684 1085.447,1514.25 1093.467,1517.882C1100.111,1518.544 1106.673,1519.124 1113.353,1519.822C1105.735,1516.946 1098.033,1513.968 1090.489,1511.192C1083.495,1509.832 1076.437,1508.482 1069.489,1507.186ZM1043.299,1495.588C1049.273,1498.142 1055.429,1500.974 1061.439,1503.602C1067.063,1504.612 1072.597,1505.522 1078.247,1506.578C1071.695,1504.208 1065.381,1502.158 1058.875,1499.862C1053.693,1498.464 1048.427,1496.948 1043.299,1495.606L1043.299,1495.588ZM1026.453,1488.658C1027.373,1489.044 1028.291,1489.394 1029.211,1489.78L1031.049,1490.22C1029.487,1489.724 1027.961,1489.182 1026.453,1488.676L1026.453,1488.658ZM1519.853,1790.382C1531.385,1798.304 1542.827,1806.08 1554.535,1814.276C1560.113,1802.798 1565.783,1791.578 1571.169,1779.538C1559.847,1772.42 1548.605,1765.426 1537.441,1758.558C1531.717,1769.596 1525.743,1779.86 1519.853,1790.402L1519.853,1790.382ZM1483.313,1765.644C1494.783,1773.4 1506.177,1781.028 1517.749,1788.958C1523.621,1778.454 1529.593,1768.244 1535.309,1757.234C1523.969,1750.268 1512.841,1743.662 1501.601,1736.852C1495.619,1746.822 1489.443,1756.16 1483.313,1765.662L1483.313,1765.644ZM1447.279,1741.234C1458.437,1748.588 1469.941,1756.6 1481.283,1764.21C1487.393,1754.754 1493.561,1745.462 1499.543,1735.556C1488.431,1728.838 1477.193,1721.908 1466.219,1715.412C1459.979,1724.334 1453.621,1732.772 1447.279,1741.254L1447.279,1741.234ZM1411.191,1717.91C1422.587,1725.328 1433.705,1732.274 1445.249,1739.912C1451.581,1731.456 1457.939,1723.048 1464.161,1714.18C1452.913,1707.518 1441.977,1701.37 1430.847,1694.88C1424.351,1702.83 1417.779,1710.412 1411.191,1717.93L1411.191,1717.91ZM1375.617,1694.936C1386.717,1702.022 1397.947,1709.318 1409.177,1716.616C1415.757,1709.126 1422.319,1701.598 1428.807,1693.768C1417.779,1687.386 1406.807,1681.078 1395.889,1674.846C1389.193,1681.708 1382.435,1688.412 1375.617,1694.954L1375.617,1694.936ZM1340.355,1672.604C1351.383,1679.496 1362.475,1686.546 1373.621,1693.65C1380.391,1687.124 1387.131,1680.468 1393.839,1673.68C1382.931,1667.486 1372.013,1661.264 1361.243,1655.3C1354.305,1661.172 1347.349,1666.998 1340.355,1672.604ZM1305.203,1651.044C1316.231,1657.8 1327.149,1664.388 1338.287,1671.354C1345.261,1665.748 1352.209,1659.986 1359.129,1654.132C1348.185,1648.048 1337.469,1642.342 1326.643,1636.46C1319.521,1641.404 1312.371,1646.34 1305.203,1651.064L1305.203,1651.044ZM1270.731,1629.908C1281.383,1636.34 1292.337,1643.178 1303.117,1649.776C1310.267,1645.08 1317.379,1640.192 1324.501,1635.294C1313.905,1629.54 1303.163,1623.548 1292.695,1617.988C1285.371,1622.004 1278.055,1626.076 1270.731,1629.918L1270.731,1629.908ZM1236.113,1609.626C1246.947,1615.986 1257.581,1622.004 1268.553,1628.576C1275.851,1624.752 1283.137,1620.736 1290.417,1616.758C1279.665,1611.05 1269.215,1605.822 1258.583,1600.316C1251.093,1603.45 1243.593,1606.63 1236.113,1609.634L1236.113,1609.626ZM1202.045,1589.894C1212.549,1595.914 1223.183,1602.08 1233.769,1608.274C1241.205,1605.298 1248.657,1602.146 1256.101,1599.084C1245.697,1593.708 1235.313,1588.36 1225.029,1583.168C1217.319,1585.374 1209.645,1587.662 1202.045,1589.894ZM1168.521,1570.78C1178.731,1576.496 1189.125,1582.488 1199.463,1588.396C1207.027,1586.228 1214.635,1583.958 1222.227,1581.726C1212.045,1576.588 1201.861,1571.46 1191.789,1566.516L1168.521,1570.78ZM1134.895,1552.4C1145.095,1557.914 1155.167,1563.326 1165.489,1569.088C1173.115,1567.702 1180.799,1566.332 1188.463,1564.88C1178.353,1559.918 1168.401,1555.24 1158.403,1550.452L1134.895,1552.4ZM1102.473,1534.756C1111.985,1539.81 1121.771,1545.286 1131.393,1550.526C1139.049,1549.872 1146.777,1549.248 1154.497,1548.614C1145.049,1544.11 1135.401,1539.314 1126.009,1534.976C1118.153,1534.872 1110.309,1534.798 1102.473,1534.756ZM1069.941,1517.874C1079.471,1522.8 1088.817,1527.45 1098.429,1532.578C1106.019,1532.578 1113.665,1532.706 1121.321,1532.788C1111.653,1528.322 1102.317,1524.352 1092.759,1520.042C1085.143,1519.282 1077.537,1518.554 1069.941,1517.854L1069.941,1517.874ZM1038.575,1501.882C1047.239,1506.252 1055.953,1510.692 1064.721,1515.208C1071.981,1515.86 1079.295,1516.568 1086.611,1517.276C1077.953,1513.398 1069.233,1509.438 1060.667,1505.706C1053.291,1504.4 1045.927,1503.12 1038.575,1501.864L1038.575,1501.882ZM1009.645,1487.27C1016.997,1490.882 1024.615,1494.834 1032.059,1498.556C1038.887,1499.714 1045.761,1500.918 1052.627,1502.112C1044.439,1498.574 1036.405,1495.266 1028.301,1491.848L1009.645,1487.27ZM981.257,1473.844C987.451,1476.794 993.525,1479.57 999.765,1482.594C1004.755,1483.806 1009.773,1485.066 1014.773,1486.27C1008.183,1483.512 1001.603,1480.81 995.079,1478.164C990.429,1476.648 985.889,1475.306 981.257,1473.826L981.257,1473.844ZM963.071,1465.242L966.829,1467.026L971.681,1468.542C968.787,1467.374 965.965,1466.354 963.107,1465.224L963.071,1465.242ZM540.269,2012.256C546.785,2016.796 553.299,2021.436 559.825,2025.876C940.739,2232.356 1330.301,2273.296 1553.589,1816.244C1541.863,1808.056 1530.365,1800.244 1518.795,1792.304C1283.717,2211.476 906.231,2188.316 540.269,2012.256ZM503.509,1986.202C511.385,1991.9 519.261,1997.57 527.155,2003.136C896.379,2184.676 1279.141,2213.356 1516.655,1790.852C1505.047,1782.902 1493.615,1775.228 1482.109,1767.454C1232.125,2153.396 859.261,2139.776 503.537,1986.202L503.509,1986.202ZM467.925,1960.112C476.765,1966.71 485.643,1973.152 494.503,1979.604C852.193,2136.636 1228.347,2153.736 1480.051,1766.084C1468.691,1758.412 1457.131,1750.398 1445.937,1742.982C1181.221,2095.076 813.311,2091.036 467.953,1960.112L467.925,1960.112ZM432.663,1933.232C441.981,1940.4 451.283,1947.688 460.629,1954.718C807.355,2088.216 1177.757,2094.896 1443.897,1741.658C1432.319,1734.002 1421.143,1727.008 1409.683,1719.602C1130.363,2036.876 767.509,2041.716 432.691,1933.232L432.663,1933.232ZM397.099,1905.542C407.171,1913.506 417.279,1921.382 427.425,1929.17C763.015,2039.336 1127.387,2036.116 1407.717,1718.27C1396.441,1710.918 1385.147,1703.566 1373.999,1696.49C1079.875,1979.08 721.751,1992.158 397.125,1905.542L397.099,1905.542ZM361.643,1877.126C371.985,1885.532 382.367,1893.852 392.789,1902.086C717.901,1989.924 1077.109,1978.042 1371.967,1695.202C1360.737,1688.052 1349.575,1681.008 1338.479,1674.066C1029.743,1921.57 676.215,1942.312 361.671,1877.126L361.643,1877.126ZM326.271,1847.912C336.775,1856.66 347.271,1865.474 357.839,1874.084C672.687,1940.252 1027.041,1920.392 1336.439,1672.826C1325.219,1665.822 1314.219,1659.178 1303.135,1652.386C979.879,1864.418 630.863,1892.162 326.299,1847.912L326.271,1847.912ZM290.431,1817.742C301.257,1826.968 312.131,1836.13 323.055,1845.228C627.739,1890.148 977.277,1863.076 1301.039,1651.09C1290.187,1644.456 1279.141,1637.498 1268.425,1631.076C930.491,1807.76 585.455,1841.754 290.459,1817.742L290.431,1817.742ZM254.341,1786.634C265.369,1796.252 276.465,1805.816 287.627,1815.324C582.625,1839.798 927.937,1806.282 1266.247,1629.742C1255.155,1623.108 1244.439,1617.078 1233.485,1610.656C881.041,1751.638 539.901,1791.036 254.369,1786.634L254.341,1786.634ZM218.059,1754.468C229.263,1764.468 240.455,1774.512 251.769,1784.41C537.163,1789.124 878.413,1750.02 1231.085,1609.258C1220.371,1603 1209.665,1596.75 1199.087,1590.694C832.113,1695.92 494.503,1739.976 218.087,1754.478L218.059,1754.468ZM181.382,1721.384C192.778,1731.8 204.241,1742.148 215.771,1752.428C491.939,1738.082 829.475,1694.21 1196.485,1589.178C1185.945,1583.158 1175.413,1577.158 1165.001,1571.35C783.481,1640.77 449.013,1688.678 181.41,1721.404L181.382,1721.384ZM144.347,1687.382C155.889,1698.116 167.588,1708.804 179.268,1719.474C446.513,1686.84 780.659,1639.024 1161.959,1569.678C1151.465,1563.832 1141.181,1558.328 1130.815,1552.684C734.929,1586.274 403.365,1637.168 144.374,1687.382L144.347,1687.382ZM107.173,1652.386C118.814,1663.458 130.568,1674.526 142.435,1685.59C401.003,1635.404 732.053,1584.5 1127.405,1550.874C1117.571,1545.536 1107.527,1539.846 1097.805,1534.728C687.253,1532.348 357.995,1585.364 107.173,1652.386ZM69.623,1616.352C81.451,1627.786 93.306,1639.236 105.335,1650.658C355.651,1583.646 684.201,1530.518 1093.769,1532.494C1083.661,1527.156 1073.947,1522.386 1063.957,1517.294C639.345,1479.146 312.395,1533.404 69.623,1616.316L69.623,1616.352ZM31.779,1579.4C43.708,1591.15 55.749,1602.914 67.905,1614.69C310.033,1531.832 635.843,1477.392 1058.737,1514.666C1049.547,1509.952 1040.303,1505.172 1031.167,1500.624C592.211,1426.552 267.015,1481.26 31.779,1579.364L31.779,1579.4ZM76.359,1658.544C64.532,1647.8 52.879,1637.048 41.263,1626.306C33.332,1629.164 25.567,1632.068 17.838,1634.99C29.353,1645.098 40.895,1655.208 52.64,1665.316C60.433,1663 68.34,1660.732 76.359,1658.508L76.359,1658.544ZM112.963,1691.37C101.322,1681.01 89.749,1670.632 78.243,1660.234C70.257,1662.45 62.4,1664.692 54.598,1666.934C65.956,1676.688 77.419,1686.424 88.986,1696.14C96.881,1694.514 104.922,1692.924 112.963,1691.334L112.963,1691.37ZM149.199,1723.15C137.73,1713.178 126.279,1703.198 114.976,1693.162C106.953,1694.744 98.958,1696.332 91.082,1697.914C102.303,1707.334 113.689,1716.68 125.085,1726.034L149.199,1723.15ZM184.985,1753.944C173.718,1744.362 162.524,1734.738 151.405,1725.07C143.363,1725.988 135.322,1727.008 127.4,1727.946C138.428,1736.996 149.551,1746.002 160.769,1754.964C168.801,1754.616 176.852,1754.276 184.985,1753.918L184.985,1753.944ZM220.237,1783.73C209.209,1774.54 198.31,1765.258 187.402,1755.994C179.345,1756.362 171.328,1756.708 163.351,1757.032C174.177,1765.69 185.012,1774.338 195.967,1782.902C204.017,1783.178 212.077,1783.472 220.237,1783.702L220.237,1783.73ZM255.399,1812.494C244.555,1803.68 233.683,1794.858 222.939,1785.944C214.871,1785.724 206.885,1785.448 198.898,1785.172C209.523,1793.45 220.203,1801.684 230.943,1809.874C239.059,1810.756 247.211,1811.658 255.399,1812.466L255.399,1812.494ZM289.843,1840.064C279.329,1831.732 268.853,1823.354 258.413,1814.93C250.279,1814.138 242.257,1813.248 234.215,1812.366C244.647,1820.296 255.197,1828.09 265.727,1835.9C273.723,1837.316 281.761,1838.704 289.843,1840.064ZM323.431,1866.512C313.377,1858.746 303.415,1850.798 293.435,1842.912C285.449,1841.608 277.519,1840.22 269.607,1838.804C279.715,1846.274 289.855,1853.684 300.025,1861.036C307.781,1862.91 315.621,1864.674 323.431,1866.512ZM356.985,1891.95C347.225,1884.598 337.455,1877.246 327.751,1869.784C320.077,1868.038 312.395,1866.274 304.775,1864.418C314.389,1871.318 324.011,1878.202 333.687,1885.002C341.417,1887.364 349.219,1889.634 356.985,1891.922L356.985,1891.95ZM389.655,1916.138C380.409,1909.364 371.173,1902.574 361.975,1895.682C354.531,1893.522 347.059,1891.444 339.661,1889.184C348.851,1895.616 358.105,1901.756 367.341,1908.024C374.785,1910.786 382.223,1913.492 389.655,1916.138ZM421.185,1939.02C412.777,1933.03 404.405,1926.854 396.023,1920.752C389.131,1918.334 382.239,1915.972 375.355,1913.474C383.577,1919.024 391.821,1924.51 400.085,1929.932C407.115,1932.992 414.155,1936.126 421.213,1939.058L421.185,1939.02ZM451.227,1959.938C443.875,1954.874 436.523,1949.902 429.253,1944.746C423.421,1942.362 417.601,1939.95 411.793,1937.504C418.685,1941.98 425.577,1946.474 432.471,1950.876C438.683,1953.918 444.931,1956.978 451.227,1959.938ZM475.525,1976.736C471.445,1973.98 467.383,1971.076 463.311,1968.292C458.993,1966.296 454.691,1964.202 450.391,1962.134C455.619,1965.406 460.877,1968.52 466.105,1971.746C469.231,1973.438 472.363,1975.074 475.507,1976.736L475.525,1976.736ZM1592.867,1844.024C1390.909,2319.436 1014.011,2286.316 634.355,2074.856C1035.837,2327.496 1434.937,2390.156 1628.155,1868.994C1616.255,1860.484 1604.611,1852.36 1592.849,1844.024L1592.867,1844.024ZM1609.409,1803.764C1604.327,1816.97 1598.987,1829.412 1593.685,1841.966C1605.411,1850.236 1617.027,1858.388 1628.863,1866.862C1633.845,1853.334 1638.797,1839.678 1643.567,1825.388C1632.035,1817.972 1620.823,1811.032 1609.417,1803.764L1609.409,1803.764ZM1624.379,1761.122C1619.719,1774.824 1615.189,1788.774 1610.245,1801.724C1621.621,1808.974 1632.797,1815.894 1644.247,1823.282C1648.843,1809.268 1653.097,1794.39 1657.389,1779.558C1646.325,1773.29 1635.389,1767.26 1624.389,1761.122L1624.379,1761.122ZM1639.083,1716.91C1634.589,1731.456 1629.801,1745.16 1625.069,1759.036C1636.097,1765.156 1646.949,1771.158 1658.015,1777.416C1662.361,1762.4 1666.845,1747.75 1670.881,1731.99C1660.311,1726.908 1649.669,1721.854 1639.111,1716.91L1639.083,1716.91ZM1652.207,1670.444C1648.117,1685.452 1644.037,1700.524 1639.681,1714.796C1650.211,1719.728 1660.795,1724.732 1671.431,1729.812C1675.355,1714.418 1678.931,1698.034 1682.561,1681.832C1672.469,1678.036 1662.279,1674.14 1652.233,1670.444L1652.207,1670.444ZM1664.805,1622.234C1660.945,1637.996 1656.911,1653.296 1652.803,1668.35C1662.811,1672.026 1673.021,1675.922 1683.057,1679.7C1686.733,1663.35 1690.409,1646.928 1693.763,1629.806C1684.159,1627.308 1674.409,1624.652 1664.833,1622.234L1664.805,1622.234ZM1676.349,1572.158C1672.789,1588.498 1669.113,1604.486 1665.321,1620.12C1674.851,1622.528 1684.619,1625.176 1694.185,1627.666C1697.513,1610.714 1700.689,1593.356 1703.715,1575.596C1694.627,1574.464 1685.437,1573.242 1676.375,1572.158L1676.349,1572.158ZM1686.833,1520.152C1683.599,1537.044 1680.337,1553.87 1676.835,1570.036C1685.859,1571.12 1695.013,1572.342 1704.083,1573.472C1707.079,1555.874 1709.883,1537.742 1712.585,1519.344C1704.029,1519.62 1695.409,1519.868 1686.861,1520.152L1686.833,1520.152ZM1696.815,1466.17C1693.799,1483.916 1690.501,1500.908 1687.239,1517.974C1695.749,1517.69 1704.341,1517.442 1712.887,1517.174C1715.589,1498.676 1718.347,1480.286 1720.773,1461.034L1696.815,1466.17ZM1705.251,1410.424C1702.641,1428.39 1700.131,1446.652 1697.245,1463.864L1721.085,1458.746C1723.409,1440.044 1725.367,1420.378 1727.379,1400.848C1720.027,1404.056 1712.649,1407.272 1705.277,1410.424L1705.251,1410.424ZM1713.623,1352.372C1711.169,1371.478 1708.311,1389.472 1705.609,1407.906C1712.961,1404.764 1720.313,1401.566 1727.665,1398.394C1729.733,1378.444 1732.021,1359.08 1733.813,1338.402C1727.091,1343.096 1720.371,1347.752 1713.651,1352.372L1713.623,1352.372ZM1720.055,1293.18C1718.061,1312.082 1716.223,1331.4 1713.945,1349.522C1720.635,1344.922 1727.321,1340.286 1734.005,1335.618C1735.661,1316.034 1736.855,1295.238 1738.187,1274.818C1732.153,1281.006 1726.111,1287.126 1720.065,1293.18L1720.055,1293.18ZM1726.489,1231.294C1724.651,1251.264 1722.537,1270.398 1720.469,1289.724C1726.471,1283.676 1732.471,1277.666 1738.453,1271.51C1739.833,1250.658 1741.385,1230.256 1742.489,1208.678C1737.167,1216.398 1731.801,1223.786 1726.461,1231.294L1726.489,1231.294ZM1731.259,1168.628C1729.851,1188.312 1728.501,1208.144 1726.811,1227.086C1731.597,1220.358 1736.423,1213.75 1741.155,1206.794L1741.211,1206.72L1741.293,1206.638L1742.617,1205.324C1743.619,1185.106 1744.289,1164.052 1745.007,1143.108L1742.993,1145.974C1739.115,1153.73 1735.155,1161.11 1731.231,1168.628L1731.259,1168.628ZM1735.715,1103.104C1734.521,1123.506 1733.105,1143.318 1731.681,1163.104C1734.823,1157.086 1737.995,1151.158 1741.083,1144.946L1741.083,1144.882L1741.147,1144.798C1742.483,1142.912 1743.809,1141.024 1745.125,1139.138C1745.861,1118.056 1746.707,1097.278 1747.193,1075.588L1743.021,1083.86C1740.631,1090.468 1738.141,1096.744 1735.687,1103.104L1735.715,1103.104ZM1738.813,1037.174C1737.967,1057.052 1737.131,1076.94 1736.055,1096.174C1737.737,1091.846 1739.427,1087.564 1741.055,1083.07L1741.055,1083.006L1741.055,1082.95C1743.131,1078.852 1745.197,1074.756 1747.249,1070.664C1747.671,1050.316 1747.799,1029.234 1747.947,1008.172L1743.057,1021.764C1741.679,1027.048 1740.227,1032.066 1738.785,1037.174L1738.813,1037.174ZM1741.377,968.48C1740.797,988.45 1740.071,1008.062 1739.263,1027.442C1739.851,1025.376 1740.447,1023.326 1741.009,1021.176L1741.009,1021.13C1743.361,1014.604 1745.699,1008.098 1748.021,1001.61C1748.159,980.63 1748.443,960.006 1748.389,938.53C1746.623,945.588 1744.853,952.668 1743.077,959.768C1742.525,962.728 1741.937,965.594 1741.349,968.48L1741.377,968.48ZM1742.773,900.31C1742.443,919.268 1742.129,938.272 1741.625,956.736C1743.861,947.79 1746.087,938.876 1748.305,929.992C1748.195,910.776 1747.845,890.916 1747.497,871.076L1743.131,897.598C1742.993,898.526 1742.855,899.39 1742.745,900.31L1742.773,900.31ZM1743.573,831.016C1743.573,849.176 1743.361,866.958 1743.095,884.502L1747.331,858.77C1746.983,839.416 1746.899,820.734 1746.413,801.122L1743.573,831.016ZM1743.343,768.36C1743.343,781.934 1743.527,795.838 1743.489,809.264L1745.851,784.654C1745.475,771.116 1744.933,757.084 1744.353,743.114L1743.343,768.36ZM1743.141,711.492C1743.141,713.982 1743.141,716.272 1743.141,718.744L1743.307,714.654C1743.233,712.724 1743.169,710.83 1743.095,708.892L1743.141,711.492ZM1741.413,830.906C1741.413,828.894 1741.413,826.744 1741.413,824.704C1741.303,828.058 1741.183,831.338 1741.073,834.674L1741.413,830.906ZM1740.605,900.162C1740.861,885.458 1741.339,871.278 1741.523,856.298C1740.879,865.406 1740.081,874.072 1739.409,883.096C1738.901,896.384 1738.325,909.496 1737.681,922.43C1738.629,915.058 1739.657,907.798 1740.577,900.162L1740.605,900.162ZM1739.217,968.296C1739.685,952.498 1739.925,936.068 1740.199,919.746C1738.821,930.958 1737.305,941.802 1735.835,952.83C1734.915,968.452 1733.997,984.324 1733.023,999.762C1735.063,989.342 1737.203,979.03 1739.189,968.296L1739.217,968.296ZM1736.635,1036.908C1737.453,1018.298 1738.325,999.854 1738.949,980.776C1736.727,992.658 1734.355,1004.21 1732.049,1015.818C1730.799,1033.646 1729.291,1050.904 1727.921,1068.282C1730.817,1057.89 1733.767,1047.56 1736.607,1036.908L1736.635,1036.908ZM1733.547,1102.708C1734.603,1084.504 1735.385,1065.508 1736.175,1046.65C1733.123,1057.962 1729.999,1069.064 1726.865,1080.156C1725.395,1097.764 1723.915,1115.336 1722.271,1132.382C1726.001,1122.54 1729.797,1112.734 1733.519,1102.708L1733.547,1102.708ZM1729.089,1168.104C1730.513,1148.75 1732.011,1129.57 1733.225,1109.646C1729.365,1119.958 1725.471,1130.172 1721.545,1140.286C1719.651,1158.768 1717.491,1176.512 1715.415,1194.506C1719.973,1185.77 1724.521,1176.96 1729.061,1168.076L1729.089,1168.104ZM1724.329,1230.596C1725.993,1212.216 1727.279,1192.78 1728.667,1173.618C1724.017,1182.67 1719.367,1191.704 1714.689,1200.618C1712.657,1218.308 1710.655,1236.092 1708.385,1253.12C1713.697,1245.694 1718.999,1238.14 1724.301,1230.568L1724.329,1230.596ZM1717.895,1292.278C1719.955,1273.21 1722.133,1254.48 1723.961,1234.796C1718.575,1242.424 1713.209,1250.124 1707.795,1257.65C1705.315,1275.792 1702.485,1293.004 1699.801,1310.612C1705.867,1304.574 1711.885,1298.38 1717.915,1292.278L1717.895,1292.278ZM1711.509,1351.214C1713.761,1333.394 1715.553,1314.326 1717.519,1295.744C1711.427,1301.9 1705.351,1308.186 1699.241,1314.26C1696.657,1331.354 1694.195,1348.77 1691.365,1365.164C1698.101,1360.596 1704.809,1355.846 1711.527,1351.214L1711.509,1351.214ZM1703.173,1408.964C1705.847,1390.786 1708.687,1372.948 1711.095,1354.126C1704.349,1358.776 1697.605,1363.538 1690.877,1368.114C1687.835,1385.41 1684.445,1401.676 1681.163,1418.41C1688.489,1415.286 1695.839,1412.116 1703.191,1408.964L1703.173,1408.964ZM1694.793,1464.388C1697.669,1447.322 1700.197,1429.292 1702.805,1411.49C1695.453,1414.652 1688.019,1417.84 1680.639,1420.956C1677.479,1437.296 1674.381,1453.802 1670.971,1469.47L1694.793,1464.388ZM1684.867,1518.048C1688.121,1501.156 1691.365,1484.266 1694.369,1466.704L1670.421,1471.804C1666.865,1487.96 1663.069,1503.372 1659.273,1518.94C1667.795,1518.64 1676.333,1518.342 1684.885,1518.048L1684.867,1518.048ZM1674.473,1569.732C1677.965,1553.668 1681.237,1537.006 1684.463,1520.226C1675.885,1520.508 1667.309,1520.814 1658.731,1521.144C1654.999,1536.556 1651.223,1551.866 1647.261,1566.636C1656.341,1567.636 1665.367,1568.638 1674.491,1569.732L1674.473,1569.732ZM1662.985,1619.55C1666.785,1604.02 1670.461,1588.122 1674.013,1571.856C1664.823,1570.752 1655.781,1569.75 1646.701,1568.73C1642.657,1583.674 1638.431,1598.194 1634.203,1612.52C1643.779,1614.846 1653.273,1617.106 1663.005,1619.55L1662.985,1619.55ZM1650.497,1667.522C1654.605,1652.534 1658.639,1637.352 1662.499,1621.664C1652.767,1619.21 1643.199,1616.94 1633.577,1614.606C1629.277,1628.98 1624.839,1642.948 1620.327,1656.688C1630.389,1660.29 1640.407,1663.8 1650.515,1667.522L1650.497,1667.522ZM1637.429,1713.748C1641.775,1699.558 1645.819,1684.534 1649.909,1669.636C1639.727,1665.896 1629.691,1662.366 1619.627,1658.756C1615.115,1672.476 1610.567,1686.122 1605.843,1699.192C1616.383,1704.034 1626.841,1708.786 1637.447,1713.748L1637.429,1713.748ZM1622.825,1757.796C1627.549,1744.01 1632.347,1730.354 1636.831,1715.862C1626.189,1710.88 1615.695,1706.12 1605.125,1701.24C1600.273,1714.51 1595.173,1727.064 1590.119,1739.738C1601.019,1745.72 1611.917,1751.694 1622.845,1757.796L1622.825,1757.796ZM1608.011,1800.344C1612.909,1787.478 1617.477,1773.574 1622.137,1759.908C1611.109,1753.788 1600.237,1747.796 1589.319,1741.796C1584.347,1754.312 1579.477,1767.124 1574.275,1778.96C1585.469,1785.98 1596.715,1793.11 1608.011,1800.344ZM1591.469,1840.458C1596.763,1827.96 1602.085,1815.536 1607.147,1802.384C1595.857,1795.186 1584.589,1788.042 1573.347,1780.954C1567.943,1793.058 1562.245,1804.278 1556.649,1815.82C1568.191,1823.844 1579.891,1832.206 1591.489,1840.412L1591.469,1840.458ZM594.103,2048.816C986.219,2279.776 1381.875,2332.776 1590.643,1842.472C1579.009,1834.2 1567.281,1825.846 1555.721,1817.75C1335.935,2268.976 954.699,2236.676 579.141,2038.996C584.123,2042.316 589.077,2045.516 594.103,2048.816ZM515.171,1999.932C519.113,2002.496 523.047,2005.156 526.989,2007.676C531.583,2010.296 536.179,2013.056 540.847,2015.636C535.821,2012.136 530.793,2008.656 525.775,2005.136C522.237,2003.436 518.709,2001.696 515.171,1999.932ZM475.019,1973.51C482.565,1978.602 490.137,1983.518 497.701,1988.482C502.857,1991.138 508.021,1993.72 513.195,1996.274C506.523,1991.486 499.861,1986.468 493.189,1981.57C487.133,1978.914 481.067,1976.258 475.019,1973.51ZM439.059,1948.642C447.515,1954.556 455.985,1960.412 464.469,1966.214C471.023,1969.238 477.603,1972.096 484.173,1974.99C475.901,1968.916 467.631,1962.906 459.361,1956.694C452.585,1954.028 445.817,1951.344 439.059,1948.642ZM403.679,1923.426C412.639,1929.858 421.571,1936.43 430.559,1942.724C437.911,1945.72 445.263,1948.596 452.615,1951.482C443.773,1944.802 434.951,1937.964 426.147,1931.154C418.631,1928.692 411.169,1926.008 403.679,1923.426ZM368.233,1897.538C377.891,1904.734 387.615,1911.764 397.319,1918.812C405.019,1921.504 412.731,1924.198 420.449,1926.816C410.801,1919.318 401.179,1911.746 391.585,1904.1C383.781,1901.986 376.007,1899.762 368.233,1897.538ZM333.311,1871.062C343.255,1878.676 353.225,1886.236 363.225,1893.742C371.237,1896.068 379.223,1898.428 387.275,1900.644C377.045,1892.502 366.789,1884.378 356.625,1876.088C348.833,1874.464 341.061,1872.804 333.311,1871.108L333.311,1871.062ZM298.177,1843.712C308.425,1851.772 318.671,1859.85 328.991,1867.78C336.957,1869.618 344.921,1871.38 352.885,1873.064C342.491,1864.574 332.199,1855.87 321.879,1847.25C313.965,1846.102 306.025,1844.972 298.177,1843.712ZM262.437,1815.288C273.099,1823.89 283.851,1832.4 294.603,1840.882C302.579,1842.186 310.629,1843.382 318.681,1844.558C307.941,1835.57 297.235,1826.512 286.561,1817.382C278.455,1816.73 270.423,1816.042 262.437,1815.288ZM226.643,1786C237.523,1795.006 248.467,1803.956 259.469,1812.852C267.501,1813.624 275.625,1814.304 283.749,1814.984C272.721,1805.546 261.693,1796.098 250.757,1786.542C242.671,1786.404 234.647,1786.202 226.643,1786ZM190.719,1755.81C201.747,1765.166 212.775,1774.53 223.941,1783.784C231.991,1784.006 240.085,1784.188 248.221,1784.336C237.027,1774.52 225.953,1764.568 214.861,1754.662C206.775,1755.076 198.742,1755.442 190.719,1755.81ZM154.391,1724.684C165.621,1734.412 176.922,1744.106 188.293,1753.76C196.362,1753.394 204.403,1753.034 212.573,1752.622C201.135,1742.384 189.763,1732.098 178.46,1721.762C170.379,1722.754 162.356,1723.728 154.391,1724.684ZM117.696,1692.592C129.082,1702.702 140.671,1712.736 152.195,1722.764L176.355,1719.84C164.739,1709.218 153.123,1698.584 141.654,1687.906C133.613,1689.468 125.608,1691.03 117.705,1692.592L117.696,1692.592ZM80.78,1659.508C92.322,1669.954 103.963,1680.392 115.702,1690.818C123.636,1689.256 131.646,1687.688 139.733,1686.114C127.952,1675.134 116.253,1664.106 104.637,1653.03C96.623,1655.144 88.619,1657.304 80.789,1659.472L80.78,1659.508ZM43.634,1625.506C55.296,1636.286 67.004,1647.084 78.896,1657.854C86.744,1655.676 94.758,1653.536 102.79,1651.422C90.843,1640.044 79.025,1628.64 67.261,1617.254C59.303,1619.906 51.43,1622.632 43.643,1625.432L43.634,1625.506ZM6.167,1590.446C17.948,1601.56 29.849,1612.676 41.87,1623.796C49.669,1620.99 57.563,1618.218 65.552,1615.48C53.434,1603.734 41.428,1591.996 29.537,1580.264C21.615,1583.6 13.905,1587.028 6.167,1590.446ZM0,1349.532C212.151,1257.632 512.643,1259.526 938.497,1453.608C957.397,1460.758 976.539,1468.256 995.925,1476.106C1016.895,1482.924 1038.199,1490.248 1059.795,1497.876C1080.151,1503.326 1100.681,1509.024 1121.541,1515.134C1140.601,1518.976 1159.877,1523.072 1179.365,1527.422C1199.583,1529.94 1220.015,1532.654 1240.661,1535.564C1258.925,1536.214 1277.339,1536.98 1295.903,1537.862C1314.283,1536.594 1332.813,1535.368 1351.493,1534.186C1369.149,1530.772 1386.887,1527.324 1404.703,1523.838C1421.323,1518.152 1437.991,1512.332 1454.705,1506.376C1470.837,1497.94 1486.967,1489.272 1503.099,1480.37C1517.723,1469.414 1532.301,1458.132 1546.835,1446.522C1560.993,1431.88 1575.063,1416.794 1589.043,1401.262C1601.095,1384.298 1613.005,1366.8 1624.775,1348.77C1636.703,1326.04 1648.405,1302.54 1659.879,1278.274C1668.591,1255.298 1677.037,1231.404 1685.309,1207.088C1694.001,1174.922 1702.273,1141.536 1710.231,1107.23C1715.535,1077.528 1720.487,1046.842 1725.165,1015.414C1729.759,972.8 1733.665,928.348 1737.203,882.912C1738.813,847.384 1740.117,811.066 1740.945,773.496L1741.155,768.332C1741.155,749.52 1741.239,731.058 1740.945,711.566L1740.439,638.772C1736.313,550.3 1732.241,463.97 1728.299,380.324C1722.013,246.812 1716.097,120.085 1710.553,0.144L1712.721,0.144C1718.235,120.226 1724.151,246.92 1730.467,380.222C1733.587,446.39 1736.781,514.352 1740.053,584.11L1739.355,487.294C1738.087,313.298 1737.057,150.914 1736.267,0.144L1738.427,0.144C1739.075,151.117 1740.105,313.498 1741.515,487.286C1741.875,536.788 1742.237,587.254 1742.599,638.68L1743.113,649.534C1743.691,662.124 1743.949,673.868 1744.437,686.202C1746.519,633.482 1748.563,581.81 1750.567,531.186C1758.139,339.53 1765.123,162.861 1772.337,0.144L1774.497,0.144C1767.283,162.871 1760.299,339.566 1752.725,531.324C1750.373,591.016 1747.953,652.16 1745.465,714.754C1746.155,732.748 1746.909,750.88 1747.405,768.36C1755.785,680.86 1763.833,596.278 1771.547,514.616C1789.191,328.492 1805.431,157.283 1821.375,0.19L1823.543,0.19C1807.599,157.338 1791.379,328.602 1773.697,514.828C1765.481,601.574 1756.905,691.574 1747.965,784.828C1748.545,805.79 1748.885,826.266 1749.279,846.658C1772.291,706.438 1793.735,573.75 1813.609,448.596C1839.497,287.202 1863.455,137.892 1886.641,0.199L1888.839,0.199C1865.625,137.966 1841.657,287.394 1815.741,448.936C1795.057,577.896 1772.943,714.58 1749.399,858.992C1749.767,880.128 1750.153,901.348 1750.263,921.842C1801.349,716.932 1846.261,527.538 1887.615,353.388C1917.427,227.706 1945.357,110.028 1972.347,0.089L1974.589,0.089C1947.553,110.157 1919.587,228 1889.729,353.902C1847.897,530.248 1802.361,722.218 1750.483,930.24C1750.575,952.296 1750.483,973.846 1750.309,995.278C1847.649,723.402 1927.583,476.468 1999.099,255.56C2028.053,166.115 2055.633,80.951 2082.433,0.08L2084.713,0.08C2057.833,81.117 2030.193,166.519 2001.173,256.204C1929.135,478.712 1848.549,727.648 1750.281,1001.876C1750.135,1023.546 1750.005,1045.28 1749.573,1066.206C1913.669,739.55 2037.293,441.152 2145.673,179.596C2171.333,117.656 2196.253,57.82 2220.413,0.089L2222.773,0.089C2198.373,58.041 2173.353,118.155 2147.693,180.433C2038.873,443.072 1914.681,742.858 1749.463,1071.15C1748.977,1093.142 1748.241,1114.5 1747.497,1135.82C1998.023,780.068 2168.693,437.834 2317.153,140.162C2341.033,92.277 2364.433,45.585 2387.293,0.089L2389.733,0.089C2366.593,45.837 2343.053,92.849 2319.093,141.127C2170.213,439.598 1999.053,782.88 1747.341,1139.79C1746.605,1161.064 1745.943,1182.524 1744.915,1203.016C2096.573,853.026 2312.033,472.066 2500.333,139.17C2527.153,91.737 2553.533,45.377 2579.453,0.089L2581.953,0.089C2555.713,45.671 2529.133,92.387 2502.213,140.236C2313.593,473.776 2097.673,855.554 1744.831,1206.206C1743.719,1227.682 1742.277,1248.296 1740.899,1269.064L1741.311,1268.652L1741.395,1268.56L1741.495,1268.496C2203.933,960.458 2458.993,540.964 2684.493,170.048C2719.793,111.977 2754.333,55.174 2788.913,0.089L2791.473,0.089C2756.693,55.514 2721.873,112.712 2686.333,171.178C2460.733,542.242 2205.593,961.946 1742.717,1270.242C1742.019,1270.968 1741.311,1271.666 1740.605,1272.374C1739.253,1293.06 1738.049,1314.142 1736.377,1333.946C1738.049,1332.798 1739.731,1331.658 1741.395,1330.462L1741.505,1330.39L1741.615,1330.344C2317.753,1096.302 2605.733,636.034 2863.713,223.726C2911.753,146.917 2958.773,71.771 3006.433,0.052L3009.033,0.052C2961.133,72.102 2913.873,147.643 2865.553,224.866C2607.413,637.44 2319.273,1097.994 1742.535,1332.31C1740.421,1333.818 1738.297,1335.26 1736.175,1336.712C1734.337,1357.554 1732.131,1377.23 1730.055,1397.366C1733.895,1395.712 1737.727,1394.076 1741.587,1392.376L1741.689,1392.376L1741.817,1392.376C2434.173,1257.752 2749.873,750.852 3035.433,292.274C3098.513,191.01 3160.113,92.09 3223.993,0.034L3226.633,0.034C3162.513,92.439 3100.693,191.755 3037.273,293.46C2751.473,752.36 2435.513,1259.636 1742.323,1394.416C1738.123,1396.254 1733.951,1398.092 1729.769,1399.838C1727.747,1419.476 1725.845,1439.428 1723.501,1458.23C1729.585,1456.926 1735.651,1455.63 1741.763,1454.306L1741.973,1454.306C2552.033,1439.51 2891.213,879.144 3199.493,369.846C3278.093,240.002 3354.673,113.447 3436.553,0.117L3439.233,0.117C3357.053,113.723 3280.233,240.674 3201.353,370.968C2892.813,880.716 2553.353,1441.596 1742.185,1456.466L1723.235,1460.538C1720.781,1479.938 1718.025,1498.492 1715.295,1517.128C1724.181,1516.844 1733.051,1516.55 1742.001,1516.292L1742.175,1516.292C2671.093,1637.406 3030.213,1016.212 3356.273,452.18C3449.733,290.528 3540.493,133.573 3641.173,0.08L3643.933,0.08C3542.933,133.757 3451.933,291.144 3358.213,453.274C3031.813,1017.858 2672.313,1639.696 1742.037,1518.388C1732.977,1518.646 1724.017,1518.94 1715.029,1519.224C1712.271,1537.706 1709.515,1556.058 1706.547,1573.72C1718.411,1575.2 1730.229,1576.634 1742.221,1578.214L1742.285,1578.214L1742.351,1578.214C2791.233,1848.398 3167.353,1158.786 3506.733,536.57C3613.773,340.302 3717.173,150.731 3836.893,0.016L3839.633,0.016C3719.593,150.804 3615.933,340.834 3508.613,537.628C3168.873,1160.532 2792.313,1850.87 1741.873,1580.346C1729.861,1578.756 1718.025,1577.324 1706.141,1575.844C1703.081,1593.682 1699.901,1611.178 1696.547,1628.226C1711.767,1632.168 1726.875,1636.056 1742.341,1640.228L1742.397,1640.228C2912.473,2070.456 3302.993,1304.666 3651.493,621.274C3770.673,387.592 3884.913,163.56 4023.773,0.098L4026.613,0.098C3887.393,163.477 3772.873,388.024 3653.433,622.258C3304.513,1306.458 2913.533,2073.156 1741.707,1642.342C1726.359,1638.178 1711.269,1634.32 1696.115,1630.396C1692.715,1647.572 1689.103,1664.168 1685.419,1680.572C1704.303,1687.648 1723.207,1694.752 1742.397,1702.278L1742.451,1702.278C3035.173,2301.876 3437.673,1451.844 3791.473,704.692C3921.353,430.454 4044.653,170.048 4203.013,0.089L4205.973,0.089C4047.193,169.8 3923.593,430.74 3793.453,705.61C3439.213,1453.672 3036.193,2304.716 1741.615,1704.318C1722.509,1696.83 1703.707,1689.762 1684.923,1682.714C1681.247,1698.998 1677.689,1715.466 1673.747,1730.924C1696.447,1741.732 1719.301,1752.768 1742.507,1764.33L1742.553,1764.33C2845.213,2369.196 3339.353,1932.616 3671.833,1326.08C3766.653,1153.106 3848.333,966.33 3927.233,785.912C4066.693,466.958 4197.493,167.916 4376.793,0.089L4379.933,0.089C4200.073,167.346 4069.013,467.04 3929.173,786.748C3850.273,967.212 3768.553,1154.052 3673.693,1327.118C3340.673,1934.656 2845.773,2372.016 1741.515,1766.268C1718.465,1754.79 1695.767,1743.826 1673.215,1733.084C1669.115,1748.9 1664.649,1763.676 1660.293,1778.73C1687.349,1794.046 1714.769,1809.92 1742.553,1826.352C2822.993,2500.296 3352.493,2190.756 3694.413,1642.278C3840.893,1407.272 3952.993,1128.386 4059.193,864.156C4205.953,499.03 4341.453,161.869 4541.073,6.733C4544.013,4.445 4546.993,2.267 4549.953,0.062L4553.613,0.062C4549.873,2.819 4546.153,5.576 4542.453,8.443C4343.293,163.211 4207.893,500.106 4061.233,864.946C3955.013,1129.268 3842.873,1408.246 3696.293,1643.408C3353.773,2192.876 2823.393,2503.036 1741.495,1828.182C1713.877,1811.824 1686.613,1796.046 1659.705,1780.852C1655.413,1795.714 1651.159,1810.692 1646.573,1824.734C1678.049,1845.054 1710.149,1866.384 1742.635,1888.348C2831.873,2640.996 3391.413,2412.996 3745.733,1899.918C3935.153,1625.616 4066.013,1269.8 4187.773,938.76C4314.673,593.704 4431.713,275.53 4594.973,104.331L4594.973,107.446C4432.833,278.692 4316.233,595.754 4189.793,939.54C4068.013,1270.7 3937.113,1626.636 3747.533,1901.186C3392.533,2415.236 2832.073,2643.836 1741.423,1890.158C1709.091,1868.296 1677.157,1847.084 1645.847,1826.848C1641.113,1841.184 1636.151,1854.868 1631.143,1868.452C1667.633,1894.606 1704.813,1921.916 1742.681,1950.38C2855.313,2786.556 3443.593,2620.496 3811.273,2130.896C4039.133,1827.482 4182.413,1399.782 4313.233,1009.256C4404.953,735.396 4490.593,479.914 4594.973,298.11L4594.973,302.476C4491.533,483.82 4406.433,737.85 4315.293,1009.946C4184.413,1400.628 4041.093,1828.502 3813.013,2132.196C3444.593,2622.756 2855.413,2789.276 1741.377,1952.08C1703.709,1923.774 1666.711,1896.594 1630.379,1870.538C1430.141,2411.356 1009.139,2325.956 592.955,2050.996C570.555,2037.776 548.193,2024.036 525.867,2009.776C505.485,1998.194 485.147,1986.184 464.855,1973.74C442.799,1961.898 420.855,1949.608 399.019,1936.87C378.489,1926.456 358.075,1915.626 337.777,1904.384C316.077,1894.116 294.545,1883.502 273.181,1872.542C252.577,1863.614 232.173,1854.376 211.967,1844.824C190.67,1836.614 169.64,1828.08 148.877,1819.22C127.943,1812.218 107.238,1804.994 86.946,1797.496C66.6,1791.914 46.624,1786.116 27.019,1780.1C17.914,1778.262 8.902,1776.368 -0.018,1774.42L-0.018,1772.206L5.257,1773.318L0,1771.636L0,1768.686C5.919,1769.328 11.883,1769.944 17.856,1770.524C11.855,1768.07 5.909,1765.598 0,1763.116L0,1760.828C8.51,1764.382 17.087,1767.908 25.732,1771.406C33.084,1772.132 40.537,1772.802 48.008,1773.464C39.03,1769.126 30.162,1764.734 21.358,1760.332C14.171,1760.332 7.076,1760.386 0,1760.396L0,1758.246C5.643,1758.246 11.341,1758.246 17.048,1758.182C11.331,1755.326 5.649,1752.456 0,1749.57L0,1747.126C7.26,1750.802 14.566,1754.478 21.918,1758.154C29.665,1758.154 37.541,1758.016 45.454,1757.914C35.492,1752.23 25.616,1746.506 15.825,1740.748L0,1742.448L0,1740.28L12.728,1738.864C8.476,1736.352 4.234,1733.852 0,1731.364L0,1728.838C5.435,1732.06 10.884,1735.282 16.349,1738.506C24.188,1737.586 32.137,1736.742 40.133,1735.832C29.546,1728.892 18.996,1721.946 8.611,1714.952L0,1716.79L0,1714.584L6.139,1713.27L0,1709.126L0,1706.488L9.117,1712.636C16.928,1710.982 24.828,1709.318 32.817,1707.646C21.79,1699.55 10.762,1691.444 0,1683.31L0,1680.554L0.34,1680.812C8.078,1678.404 15.929,1676.026 23.894,1673.68C15.862,1667.18 7.897,1660.672 0,1654.16L0,1651.284C8.749,1658.498 17.535,1665.712 26.449,1672.908C34.242,1670.582 42.072,1668.312 50.049,1665.97C38.387,1655.934 26.927,1645.87 15.476,1635.836C10.281,1637.802 5.122,1639.778 0,1641.762L0,1639.52C4.522,1637.762 9.074,1636.016 13.656,1634.282C9.08,1630.232 4.528,1626.198 0,1622.18L0,1619.21C5.312,1623.922 10.651,1628.636 16.018,1633.354C23.765,1630.432 31.54,1627.5 39.489,1624.632C27.518,1613.55 15.678,1602.476 3.97,1591.412L0,1593.184L0,1590.814L2.27,1589.794L0,1587.67L0,1584.63L4.476,1588.848C12.214,1585.42 19.942,1581.974 27.882,1578.628C18.515,1569.396 9.221,1560.172 0,1550.958L0,1547.832C9.944,1557.776 19.985,1567.742 30.125,1577.728C264.515,1479.744 588.157,1424.788 1024.679,1497.27C1015.977,1492.942 1007.365,1488.75 998.755,1484.578C549.605,1375.686 227.681,1428.07 0,1538.432L0,1535.978C226.229,1426.498 545.149,1374.234 988.921,1479.918C981.175,1476.242 973.501,1472.566 965.837,1469.002C529.313,1333.11 219.153,1370.668 -0.027,1479.018L-0.027,1476.426C216.947,1369.438 522.697,1331.658 951.435,1462.154C946.897,1460.05 942.181,1457.698 937.651,1455.64C513.231,1295.174 212.619,1315.006 0,1416.408L0,1413.65C206.297,1315.484 495.045,1293.85 899.035,1438.776C493.823,1262.172 205.349,1263.248 0,1352.454L0,1349.532Z" fill="#2437AC"/>
</svg>
