<svg width="216" height="64" viewBox="0 0 216 64" fill="none" xmlns="http://www.w3.org/2000/svg" xmlns:xlink="http://www.w3.org/1999/xlink">
<path d="M22.987,38.716C22.987,40.141 22.685,41.466 22.082,42.691C21.479,43.898 20.625,44.938 19.552,45.777C18.463,46.632 17.174,47.286 15.682,47.756C14.191,48.225 12.55,48.46 10.774,48.46C8.646,48.46 6.736,48.175 5.062,47.588C3.386,47.018 1.694,46.045 0.002,44.703L2.8,40.157C4.14,41.281 5.346,42.102 6.436,42.623C7.508,43.143 8.614,43.394 9.753,43.394C11.143,43.394 12.249,43.042 13.104,42.321C13.959,41.6 14.361,40.644 14.361,39.419C14.361,38.9 14.277,38.413 14.126,37.96C13.975,37.507 13.69,37.038 13.289,36.552C12.886,36.082 12.317,35.545 11.597,34.992C10.893,34.438 9.972,33.734 8.832,32.912C7.978,32.308 7.124,31.671 6.302,31.033C5.482,30.379 4.745,29.691 4.057,28.953C3.387,28.215 2.851,27.393 2.432,26.471C2.03,25.565 1.812,24.508 1.812,23.351C1.812,22.009 2.097,20.768 2.65,19.66C3.203,18.553 3.973,17.614 4.945,16.827C5.917,16.038 7.073,15.435 8.446,14.999C9.802,14.563 11.276,14.345 12.885,14.345C14.577,14.345 16.202,14.563 17.775,15.016C19.35,15.469 20.808,16.123 22.165,16.995L19.635,21.087C17.91,19.879 16.083,19.26 14.174,19.26C13.018,19.26 12.046,19.561 11.292,20.165C10.538,20.769 10.153,21.524 10.153,22.446C10.153,23.318 10.488,24.106 11.158,24.794C11.828,25.499 12.983,26.455 14.626,27.73C16.285,28.937 17.659,30.01 18.731,30.915C19.82,31.821 20.674,32.693 21.311,33.498C21.947,34.304 22.366,35.109 22.617,35.946C22.868,36.802 22.986,37.707 22.986,38.714L22.987,38.716ZM51.715,31.052C51.715,32.309 51.581,33.669 51.313,35.126C51.062,36.586 50.61,37.928 49.973,39.169C49.337,40.41 48.516,41.434 47.493,42.221C46.472,43.026 45.164,43.429 43.607,43.429C40.994,43.429 38.933,42.389 37.426,40.293C35.918,38.213 35.164,35.345 35.164,31.706C35.164,27.966 35.918,25.015 37.46,22.817C38.984,20.62 41.061,19.53 43.675,19.53C46.155,19.53 48.114,20.57 49.554,22.616C50.995,24.679 51.716,27.496 51.716,31.052L51.715,31.052ZM60.795,30.733C60.795,28.301 60.443,26.088 59.756,24.109C59.052,22.112 58.081,20.402 56.791,18.96C55.501,17.518 53.992,16.411 52.234,15.606C50.476,14.8 48.533,14.398 46.405,14.398C44.06,14.398 42,14.851 40.224,15.723C38.448,16.612 36.789,18.004 35.281,19.915L35.231,15.169L26.872,15.169L26.872,63.951L35.215,63.951L35.215,43.346C36.036,44.302 36.823,45.107 37.594,45.761C38.348,46.415 39.118,46.951 39.905,47.354C40.692,47.756 41.513,48.058 42.383,48.226C43.254,48.394 44.193,48.478 45.181,48.478C47.393,48.478 49.469,48.025 51.379,47.153C53.288,46.264 54.947,45.023 56.337,43.412C57.727,41.802 58.817,39.924 59.604,37.794C60.409,35.647 60.794,33.282 60.794,30.733L60.795,30.733ZM64.514,47.689L73.09,47.689L73.09,-0.044L64.514,-0.044L64.514,47.689ZM109.669,47.706L109.669,15.137L101.093,15.137L101.093,32.662C101.093,34.222 101.026,35.43 100.892,36.286C100.758,37.141 100.54,37.896 100.239,38.6C99.033,41.283 96.804,42.643 93.572,42.643C91.042,42.643 89.284,41.737 88.278,39.909C87.876,39.221 87.608,38.433 87.457,37.56C87.306,36.688 87.223,35.43 87.223,33.77L87.223,15.139L78.647,15.139L78.647,33.646C78.647,34.903 78.663,35.976 78.68,36.831C78.697,37.687 78.764,38.475 78.848,39.146C78.931,39.817 79.032,40.421 79.149,40.942C79.25,41.461 79.417,41.965 79.635,42.434C80.422,44.431 81.68,45.94 83.438,46.962C85.197,47.985 87.358,48.488 89.904,48.488C92.199,48.488 94.225,48.086 95.967,47.281C97.71,46.476 99.402,45.167 101.043,43.339L101.06,47.7L109.67,47.717L109.669,47.706ZM146.629,47.689L146.629,29.218C146.629,27.96 146.612,26.888 146.596,25.999C146.579,25.11 146.529,24.338 146.428,23.684C146.344,23.03 146.227,22.46 146.11,21.973C145.976,21.47 145.825,20.984 145.658,20.514C144.87,18.569 143.613,17.06 141.855,16.002C140.097,14.944 137.935,14.409 135.371,14.409C133.076,14.409 131.05,14.811 129.307,15.616C127.565,16.421 125.873,17.746 124.232,19.558L124.215,15.197L115.588,15.197L115.588,47.694L124.231,47.694L124.231,30.151C124.231,28.642 124.281,27.451 124.399,26.612C124.499,25.773 124.717,24.985 125.019,24.23C125.571,22.921 126.442,21.949 127.598,21.278C128.754,20.608 130.128,20.272 131.735,20.272C134.265,20.272 136.023,21.178 137.029,23.006C137.415,23.694 137.683,24.482 137.833,25.337C137.984,26.193 138.068,27.467 138.068,29.111L138.068,47.654L146.628,47.67L146.629,47.689ZM182.114,45.542L169.049,29.289L180.087,17.449L173.587,14.649L162.096,27.983L161.191,27.983L161.191,-0.035L152.548,-0.035L152.548,47.698L161.191,47.698L161.191,30.408L174.123,48.345L182.112,45.544L182.114,45.542ZM215.518,33.869L215.518,28.552L189.527,15.503L189.527,21.355L209.67,31.167L189.527,41.112L189.527,46.831L215.518,33.867L215.518,33.869ZM192.051,7.06C190.46,7.06 189.17,8.368 189.17,9.979C189.17,11.623 190.46,12.914 192.051,12.914C193.66,12.914 194.933,11.623 194.933,9.979C194.933,8.352 193.66,7.06 192.051,7.06L192.051,7.06ZM192.069,7.513C193.358,7.513 194.396,8.62 194.396,9.995C194.396,11.37 193.358,12.476 192.069,12.46C190.763,12.46 189.723,11.37 189.723,9.979C189.723,8.62 190.763,7.513 192.069,7.513ZM191.516,10.281L191.867,10.281C192.286,10.281 192.487,10.432 192.571,10.851C192.638,11.287 192.722,11.572 192.789,11.673L193.342,11.673C193.291,11.572 193.207,11.371 193.141,10.868C193.074,10.382 192.889,10.13 192.588,10.08L192.588,10.046C192.94,9.946 193.225,9.677 193.225,9.258C193.225,8.956 193.123,8.721 192.923,8.587C192.722,8.436 192.403,8.335 191.918,8.335C191.532,8.335 191.264,8.369 190.997,8.419L190.997,11.673L191.516,11.673L191.516,10.281L191.516,10.281ZM191.516,8.771C191.6,8.755 191.717,8.738 191.884,8.738C192.471,8.738 192.672,9.023 192.672,9.308C192.672,9.711 192.302,9.862 191.884,9.862L191.516,9.862L191.516,8.771L191.516,8.771Z" fill="#0C1724"/>
</svg>
