<svg width="56" height="58" viewBox="0 0 56 58" fill="none" xmlns="http://www.w3.org/2000/svg" xmlns:xlink="http://www.w3.org/1999/xlink">
<path d="M23.434,0.127L25.03,4.331C25.078,4.458 25.19,4.539 25.325,4.546L29.816,4.764C30.122,4.779 30.247,5.164 30.008,5.356L26.503,8.173C26.398,8.258 26.355,8.389 26.391,8.519L27.571,12.859C27.651,13.154 27.324,13.392 27.068,13.224L23.305,10.761C23.192,10.687 23.054,10.687 22.941,10.761L19.179,13.224C18.923,13.392 18.595,13.154 18.676,12.859L19.855,8.519C19.891,8.389 19.848,8.257 19.743,8.173L16.238,5.356C15.999,5.164 16.124,4.779 16.43,4.764L20.921,4.545C21.056,4.539 21.168,4.458 21.216,4.331L22.812,0.127C22.92,-0.157 23.326,-0.157 23.434,0.127L23.434,0.127ZM45.15,35.733C50.792,35.733 55.366,40.306 55.366,45.948C55.366,51.59 50.792,56.164 45.15,56.164C39.509,56.164 34.935,51.59 34.935,45.948C34.935,40.306 39.509,35.733 45.15,35.733ZM43.809,46.849L41.526,44.567C40.934,43.975 39.975,43.975 39.383,44.567C38.792,45.158 38.792,46.118 39.383,46.71L42.74,50.067C43.332,50.658 44.292,50.658 44.883,50.067C46.907,48.043 48.908,45.997 50.922,43.964C51.509,43.371 51.507,42.415 50.915,41.826C50.323,41.237 49.364,41.239 48.776,41.833L43.809,46.849ZM6.311,50.681L34.021,50.681C33.403,49.227 33.06,47.628 33.06,45.948C33.06,43.394 33.853,41.025 35.205,39.073C31.994,36.211 27.762,34.472 23.123,34.472C14.193,34.472 6.769,40.916 5.246,49.408C5.127,50.075 5.633,50.681 6.311,50.681ZM23.123,14.933C28.195,14.933 32.307,19.044 32.307,24.116C32.307,29.188 28.195,33.3 23.123,33.3C18.051,33.3 13.94,29.188 13.94,24.116C13.94,19.044 18.051,14.933 23.123,14.933ZM38.906,6.078C38.798,5.794 38.392,5.794 38.284,6.078L36.688,10.282C36.64,10.409 36.528,10.49 36.393,10.496L31.902,10.715C31.596,10.73 31.471,11.115 31.709,11.307L35.215,14.124C35.32,14.208 35.363,14.34 35.327,14.47L34.147,18.81C34.067,19.105 34.394,19.343 34.65,19.175L38.413,16.712C38.526,16.638 38.664,16.638 38.777,16.712L42.539,19.175C42.795,19.343 43.123,19.105 43.042,18.81L41.863,14.47C41.827,14.34 41.87,14.209 41.975,14.124L45.48,11.307C45.719,11.115 45.593,10.73 45.288,10.715L40.796,10.496C40.661,10.49 40.55,10.409 40.502,10.282L38.906,6.078ZM7.962,6.078C7.854,5.794 7.448,5.794 7.34,6.078L5.744,10.282C5.696,10.409 5.584,10.49 5.449,10.496L0.957,10.715C0.652,10.73 0.527,11.115 0.765,11.307L4.27,14.124C4.376,14.208 4.418,14.34 4.383,14.47L3.203,18.81C3.123,19.105 3.45,19.343 3.706,19.175L7.469,16.712C7.582,16.638 7.72,16.638 7.833,16.712L11.595,19.175C11.851,19.343 12.179,19.105 12.098,18.81L10.919,14.47C10.883,14.34 10.926,14.209 11.031,14.124L14.536,11.307C14.774,11.115 14.649,10.73 14.344,10.715L9.852,10.496C9.717,10.49 9.606,10.409 9.558,10.282L7.962,6.078Z" clip-rule="evenodd" fill-rule="evenodd" fill="#2437AC"/>
</svg>
