<svg width="668" height="524" viewBox="0 0 668 524" fill="none" xmlns="http://www.w3.org/2000/svg" xmlns:xlink="http://www.w3.org/1999/xlink">
<g opacity="0.3">
<path d="M260.948,261.686L260.948,522.634L0,522.634L0,248.108C0,115.597 104.271,6.982 234.88,-0.078L234.88,60.203C187.44,63.718 143.082,85.038 110.7,119.886C78.319,154.735 60.309,200.538 60.282,248.108C60.282,255.712 66.255,261.686 73.858,261.686L260.948,261.686ZM667.984,261.686L667.984,522.634L407.036,522.634L407.036,248.108C407.036,115.597 511.306,6.982 642.188,-0.078L642.188,60.203C544.434,67.263 467.318,148.725 467.318,248.108C467.318,255.712 473.292,261.686 480.894,261.686L667.984,261.686Z" stroke="#00B8FF" stroke-width="10.232" stroke-miterlimit="3.999327"/>
</g>
</svg>
