<svg width="56" height="58" viewBox="0 0 56 58" fill="none" xmlns="http://www.w3.org/2000/svg" xmlns:xlink="http://www.w3.org/1999/xlink">
<path d="M23.434,0.088L25.03,4.292C25.078,4.419 25.19,4.5 25.325,4.506L29.816,4.725C30.122,4.74 30.247,5.125 30.008,5.317L26.503,8.134C26.398,8.218 26.355,8.35 26.391,8.48L27.571,12.82C27.651,13.115 27.324,13.353 27.068,13.185L23.305,10.722C23.192,10.648 23.054,10.648 22.941,10.722L19.179,13.185C18.923,13.353 18.595,13.115 18.676,12.82L19.855,8.48C19.891,8.35 19.848,8.218 19.743,8.134L16.238,5.317C15.999,5.125 16.124,4.74 16.43,4.725L20.921,4.506C21.056,4.5 21.168,4.419 21.216,4.292L22.812,0.088C22.92,-0.196 23.326,-0.196 23.434,0.088L23.434,0.088ZM45.15,35.694C50.792,35.694 55.366,40.267 55.366,45.909C55.366,51.551 50.792,56.125 45.15,56.125C39.509,56.125 34.935,51.551 34.935,45.909C34.935,40.267 39.509,35.694 45.15,35.694ZM43.809,46.81L41.526,44.528C40.934,43.936 39.975,43.936 39.383,44.528C38.792,45.119 38.792,46.079 39.383,46.671L42.74,50.028C43.332,50.619 44.292,50.619 44.883,50.028C46.907,48.004 48.908,45.958 50.922,43.925C51.509,43.332 51.507,42.376 50.915,41.787C50.323,41.198 49.364,41.2 48.776,41.794L43.809,46.81ZM6.311,50.642L34.021,50.642C33.403,49.188 33.06,47.589 33.06,45.909C33.06,43.355 33.853,40.986 35.205,39.034C31.994,36.172 27.762,34.433 23.123,34.433C14.193,34.433 6.769,40.877 5.246,49.369C5.127,50.036 5.633,50.642 6.311,50.642ZM23.123,14.894C28.195,14.894 32.307,19.005 32.307,24.077C32.307,29.149 28.195,33.261 23.123,33.261C18.051,33.261 13.94,29.149 13.94,24.077C13.94,19.005 18.051,14.894 23.123,14.894ZM38.906,6.039C38.798,5.755 38.392,5.755 38.284,6.039L36.688,10.243C36.64,10.37 36.528,10.451 36.393,10.457L31.902,10.676C31.596,10.691 31.471,11.076 31.709,11.267L35.215,14.085C35.32,14.169 35.363,14.301 35.327,14.431L34.147,18.771C34.067,19.066 34.394,19.303 34.65,19.136L38.413,16.673C38.526,16.599 38.664,16.599 38.777,16.673L42.539,19.136C42.795,19.303 43.123,19.066 43.042,18.771L41.863,14.431C41.827,14.301 41.87,14.169 41.975,14.085L45.48,11.268C45.719,11.076 45.593,10.691 45.288,10.676L40.796,10.457C40.661,10.451 40.55,10.37 40.502,10.243L38.906,6.039ZM7.962,6.039C7.854,5.755 7.448,5.755 7.34,6.039L5.744,10.243C5.696,10.37 5.584,10.451 5.449,10.457L0.957,10.676C0.652,10.691 0.527,11.076 0.765,11.267L4.27,14.085C4.376,14.169 4.418,14.301 4.383,14.431L3.203,18.771C3.123,19.066 3.45,19.303 3.706,19.136L7.469,16.673C7.582,16.599 7.72,16.599 7.833,16.673L11.595,19.136C11.851,19.303 12.179,19.066 12.098,18.771L10.919,14.431C10.883,14.301 10.926,14.169 11.031,14.085L14.536,11.268C14.774,11.076 14.649,10.691 14.344,10.676L9.852,10.457C9.717,10.451 9.606,10.37 9.558,10.243L7.962,6.039Z" clip-rule="evenodd" fill-rule="evenodd" fill="#FFFFFF"/>
</svg>
