<svg width="2582" height="1356" viewBox="0 0 2582 1356" fill="none" xmlns="http://www.w3.org/2000/svg" xmlns:xlink="http://www.w3.org/1999/xlink">
<path d="M2444.62,1355.903L2443.72,1355.903C2407.8,1310.413 2372.58,1263.849 2337.48,1217.439C2221.64,1064.265 2107.08,912.773 1972.896,807.317C1663.518,564.169 1249.696,565.875 475.262,1355.903L474.288,1355.903C1249.396,565.029 1663.61,563.363 1973.344,806.785C2107.58,912.297 2222.2,1063.821 2338.06,1217.031C2373.26,1263.579 2408.58,1310.289 2444.62,1355.903ZM2475.12,1355.903L2474.2,1355.903C2428.36,1302.703 2383.46,1247.475 2338.6,1192.331C2214.1,1039.207 2090.02,886.575 1947.772,779.417C1614.182,528.125 1180.572,526.991 407.414,1355.923L406.458,1355.923C1180.258,526.143 1614.27,527.299 1948.21,778.875C2090.52,886.091 2214.64,1038.749 2339.16,1191.903C2384.14,1247.213 2429.16,1302.579 2475.12,1355.903ZM2511.06,1355.903L2510.08,1355.903C2453.66,1295.675 2398.28,1232.007 2342.76,1168.197C2208.88,1014.301 2074.26,859.573 1922.626,750.407C1563.77,492.073 1109.282,489.049 342.696,1355.903L341.752,1355.903C1108.946,488.177 1563.832,491.273 1923.056,749.855C2074.76,859.067 2209.4,1013.825 2343.3,1167.753C2398.96,1231.733 2454.48,1295.551 2511.06,1355.903ZM2552.44,1355.903L2551.46,1355.903C2483.92,1289.473 2417.34,1217.615 2350.3,1145.281C2206.02,989.605 2059.56,831.553 1896.816,720.005C1511.814,456.097 1035.514,452.547 281.22,1355.903L280.308,1355.903C1035.168,451.701 1511.876,455.287 1897.244,719.443C2060.04,831.043 2206.54,989.115 2350.84,1144.823C2418.04,1217.341 2484.76,1289.343 2552.44,1355.903ZM2580,1338.193L2580,1339.149C2507.34,1271.935 2434.96,1198.327 2361.68,1123.781C2205.7,965.135 2045.56,802.255 1869.566,687.843C1457.798,420.157 958.986,417.975 223.082,1355.903L222.186,1355.903C958.604,417.123 1457.814,419.363 1869.958,687.269C2046.02,801.729 2206.18,964.635 2362.18,1123.289C2435.3,1197.677 2507.5,1271.113 2580.02,1338.193L2580,1338.193ZM2580,1293.627L2580,1294.565C2513.2,1234.709 2445.86,1169.875 2377.4,1103.977C2208.1,940.987 2031.92,771.389 1839.944,653.581C1401.06,384.255 879.508,385.823 168.46,1355.903L167.588,1355.903C879.104,384.977 1401.07,383.429 1840.324,653.003C2032.36,770.847 2208.56,940.471 2377.92,1103.471C2446.2,1169.219 2513.36,1233.873 2580.02,1293.653L2580,1293.627ZM2580,1248.941L2580,1249.869C2520.46,1198.079 2459.92,1142.701 2398.18,1086.235C2213.54,917.349 2018.24,738.699 1806.92,616.933C1340.972,348.455 796.998,356.663 117.499,1355.903L116.643,1355.903C796.56,355.843 1340.94,347.639 1807.28,616.345C2018.66,738.121 2214,916.823 2398.66,1085.735C2460.24,1142.047 2520.6,1197.275 2580.02,1248.941L2580,1248.941ZM2580,1204.153L2580,1205.065C2529.38,1162.285 2477.66,1117.145 2424.84,1071.045C2222.62,894.573 2004.24,703.973 1769.37,577.703C1276.766,312.865 711.508,331.055 70.368,1355.903L69.537,1355.903C711.074,330.223 1276.724,312.061 1769.716,577.099C2004.66,703.405 2223.06,894.021 2425.3,1070.535C2477.96,1116.489 2529.54,1161.495 2580.02,1204.153L2580,1204.153ZM2580,1159.261L2580,1160.163C2540.36,1127.577 2499.82,1093.681 2458.46,1059.079C2236.22,873.195 1989.706,667.023 1726.134,535.799C1207.792,277.731 623.354,309.641 27.375,1355.903L26.56,1355.903C622.87,308.831 1207.73,276.927 1726.46,535.185C1990.104,666.449 2236.64,872.649 2458.92,1058.557C2500.12,1093.021 2540.5,1126.793 2580.02,1159.261L2580,1159.261ZM2580,1114.275L2580,1115.169C2553.96,1094.335 2527.46,1073.039 2500.5,1051.277C2255.86,854.217 1974.702,627.745 1676.04,491.287C1137.146,245.057 541.248,292.097 0.027,1333.855L0.027,1332.307C541.31,291.241 1137.326,244.377 1676.346,490.663C1975.078,627.161 2256.28,853.665 2500.96,1050.751C2527.76,1072.333 2554.12,1093.509 2580.02,1114.275L2580,1114.275ZM2580,1069.207L2580,1070.091L2553.06,1049.083C2284.16,839.267 1959.666,586.103 1617.97,444.399C1070.494,217.359 478.694,276.627 0.001,1258.647L0.001,1257.017C478.808,275.791 1070.7,216.679 1618.254,443.755C1960.058,585.505 2284.56,838.701 2553.52,1048.553L2580,1069.207ZM2580,1024.063L2580,1024.941C2292.32,806.157 1928.664,535.737 1550.91,395.539C999.968,191.064 419.018,263.789 0.027,1177.945L0.027,1176.263C419.174,262.969 1000.158,190.399 1551.168,394.895C1928.834,535.061 2292.36,805.325 2580.02,1024.063L2580,1024.063ZM2580,978.841L2580,979.713C2276.6,754.479 1879.21,477.485 1474.026,345.321C925.968,166.549 363.594,252.957 0.001,1090.781L0.001,1089.007C363.806,252.097 926.18,165.894 1474.238,344.667C1879.35,476.825 2276.62,753.637 2580.02,978.841L2580,978.841ZM2580,933.561L2580,934.419C2228.76,679.731 1739.854,362.855 1265.47,264.971C769.93,162.72 290.276,299.573 0.027,995.921L0.027,994.089C290.504,298.707 770.116,162.065 1265.614,264.295C1739.948,362.169 2228.74,678.885 2580.02,933.561L2580,933.561ZM2580,888.215L2580,889.067C2222.04,635.329 1709.586,323.991 1221.332,229.769C727.974,134.567 259.374,261.137 0.027,892.979L0.027,891.137C259.678,260.281 728.216,133.907 1221.502,229.109C1709.658,323.299 2222.02,634.489 2580.02,888.215L2580,888.215ZM2580,842.807L2580,843.659C2216.28,591.443 1681.882,286.559 1180.794,195.223C985.432,159.619 795.142,156.466 622.024,201.565C448.906,246.663 292.986,339.997 166.308,497.357C103.082,575.897 47.148,670.381 0.027,782.777L0.027,780.949C47.06,669.185 102.799,575.149 165.766,496.933C292.546,339.451 448.616,246.033 621.864,200.899C795.11,155.764 985.488,158.917 1180.95,194.547C1681.944,285.869 2216.24,590.613 2580.02,842.807L2580,842.807ZM2580,797.343L2580,798.185C2192.12,534.901 1598.13,218.995 1063.476,148.938C880.086,124.913 703.676,129.805 544.968,175.677C386.262,221.549 245.292,308.381 132.685,448.233C82.494,510.581 37.953,583.471 -0.004,667.961L-0.004,666.223C37.834,582.295 82.19,509.849 132.123,447.805C244.806,307.835 385.922,220.925 544.746,175.017C703.572,129.108 880.06,124.216 1063.548,148.257C1598.172,218.309 2192.04,534.069 2580.02,797.343L2580,797.343ZM2580,751.821L2580,752.663C2298.12,565.261 1901.46,353.717 1498,223.933C1196.538,126.977 891.308,75.65 627.394,114.185C363.482,152.72 140.967,281.075 4.769,543.445C3.169,546.541 1.58,549.651 0.001,552.775L0.001,551.227C1.377,548.529 2.753,545.841 4.129,543.161C140.446,280.559 363.198,152.091 627.282,113.525C891.364,74.959 1196.656,126.301 1498.216,223.303C1901.554,353.025 2298.1,564.467 2580.02,751.821L2580,751.821ZM2580,706.263L2580,707.095C2278.68,510.793 1839.804,290.817 1401.998,166.848C1103.916,82.446 806.358,42.549 553.132,84.949C319.6,124.046 123.774,233.149 -0.02,441.881L-0.02,440.499C123.924,232.241 319.668,123.365 553.018,84.273C806.374,41.853 1104.024,81.755 1402.2,166.188C1839.886,290.121 2278.68,509.993 2580.02,706.263L2580,706.263ZM2580,660.655L2580,661.485C2258.7,456.215 1773.978,228.257 1301.43,111.92C1008.254,39.737 719.784,10.526 477.982,56.367C279.44,94.005 112.381,182.272 0.001,338.887L0.001,337.679C112.489,181.41 279.466,93.298 477.848,55.686C719.758,9.824 1008.336,39.045 1301.61,111.249C1774.034,227.561 2258.64,455.421 2580.02,660.655L2580,660.655ZM2580,615.009L2580,615.829C2238.46,401.783 1704.864,166.611 1198.08,59.629C911.076,-0.96 632.688,-20.439 402.708,28.323C239.254,62.993 100.265,132.137 0.027,245.471L0.027,244.407C100.353,131.306 239.27,62.26 402.584,27.652C632.674,-21.136 911.158,-1.657 1198.256,58.953C1704.89,165.914 2238.38,400.973 2580.02,615.009L2580,615.009ZM545.078,1355.903C1316.708,604.539 1712.27,599.539 1998.938,833.959C2126.16,937.989 2231.94,1089.131 2339.66,1243.059C2366.02,1280.727 2392.5,1318.549 2419.44,1355.903L2418.56,1355.903C2391.74,1318.679 2365.34,1280.979 2339.08,1243.445C2231.38,1089.553 2125.62,938.449 1998.478,834.485C1712.124,600.345 1316.988,605.381 546.078,1355.903L545.078,1355.903Z" fill="#FFFFFF"/>
</svg>
