<svg width="288" height="46" viewBox="0 0 288 46" fill="none" xmlns="http://www.w3.org/2000/svg" xmlns:xlink="http://www.w3.org/1999/xlink">
<path d="M287.466,23.248L287.466,14.06C285.668,14.132 280.276,14.865 277.89,17.727L277.89,14.693L267.824,14.693L267.824,45.306L277.89,45.306L277.89,30.84C279.328,24.025 285.842,23.306 287.494,23.248L287.466,23.248ZM197.309,23.608C196.229,22.642 194.995,21.864 193.657,21.307C192.555,20.77 191.345,20.495 190.12,20.502C189.212,20.493 188.313,20.684 187.488,21.063C187.112,21.215 186.794,21.482 186.577,21.825C186.36,22.168 186.257,22.57 186.28,22.975C186.271,23.386 186.394,23.789 186.633,24.123C186.871,24.457 187.212,24.706 187.603,24.83C189.008,25.35 190.45,25.763 191.917,26.066C193.112,26.325 194.285,26.676 195.426,27.116C196.573,27.554 197.649,28.159 198.618,28.914C199.563,29.657 200.346,30.587 200.918,31.646C201.52,32.829 201.818,34.143 201.782,35.47C201.844,37.091 201.478,38.699 200.722,40.133C199.964,41.567 198.841,42.776 197.467,43.638C196.15,44.492 194.688,45.101 193.154,45.435C191.609,45.806 190.026,45.994 188.437,45.996C185.92,45.996 183.419,45.588 181.032,44.788C178.766,44.083 176.694,42.863 174.979,41.222L179.954,34.996C181.166,36.104 182.544,37.016 184.037,37.699C185.344,38.357 186.788,38.696 188.25,38.691C189.104,38.683 189.945,38.481 190.709,38.102C191.098,37.921 191.422,37.626 191.638,37.256C191.854,36.886 191.951,36.458 191.917,36.031C191.922,35.576 191.787,35.13 191.53,34.754C191.272,34.379 190.906,34.091 190.479,33.932C188.98,33.308 187.425,32.826 185.835,32.494C184.735,32.236 183.654,31.904 182.599,31.502C181.56,31.098 180.59,30.535 179.724,29.834C178.896,29.128 178.212,28.268 177.711,27.303C177.149,26.149 176.873,24.877 176.905,23.593C176.858,21.934 177.266,20.293 178.084,18.848C178.855,17.548 179.912,16.441 181.176,15.613C182.431,14.772 183.823,14.154 185.288,13.787C186.762,13.401 188.279,13.203 189.803,13.197C192.108,13.195 194.399,13.559 196.59,14.276C198.682,14.929 200.602,16.039 202.212,17.525L197.309,23.608ZM256.22,26.023C256.208,24.614 255.698,23.255 254.782,22.184C254.19,21.579 253.472,21.112 252.68,20.816C251.888,20.52 251.038,20.403 250.196,20.473C249.278,20.465 248.368,20.621 247.506,20.933C246.724,21.219 245.998,21.643 245.364,22.184C244.774,22.713 244.286,23.347 243.926,24.053C243.606,24.667 243.406,25.335 243.336,26.023L256.22,26.023ZM265.494,30.179L265.494,31.401C265.518,31.789 265.518,32.178 265.494,32.566L243.294,32.566C243.358,33.387 243.62,34.182 244.056,34.881C244.488,35.583 245.05,36.197 245.71,36.693C246.398,37.208 247.166,37.611 247.982,37.886C248.818,38.174 249.698,38.319 250.584,38.317C251.988,38.358 253.38,38.052 254.638,37.426C255.698,36.872 256.616,36.085 257.328,35.125L264.33,39.54C262.87,41.621 260.886,43.278 258.578,44.342C256.032,45.489 253.262,46.054 250.468,45.996C248.252,46.009 246.05,45.644 243.954,44.917C241.978,44.244 240.154,43.183 238.592,41.797C237.038,40.395 235.808,38.673 234.982,36.75C234.064,34.588 233.612,32.255 233.66,29.906C233.63,27.585 234.064,25.283 234.94,23.133C235.746,21.204 236.934,19.457 238.434,18C239.942,16.575 241.714,15.461 243.652,14.721C245.742,13.926 247.96,13.531 250.196,13.557C252.314,13.537 254.418,13.922 256.392,14.693C258.228,15.417 259.884,16.536 261.238,17.971C262.632,19.471 263.708,21.236 264.402,23.162C265.188,25.406 265.572,27.772 265.538,30.15L265.494,30.179ZM144.236,22.989L144.236,13.744L135.609,13.744L135.609,6.885C135.393,2.931 133.524,-0.017 125.888,-0.017L125.888,35.6C125.881,37.027 126.065,38.449 126.435,39.827C126.761,41.038 127.35,42.163 128.16,43.12C129.028,44.074 130.12,44.795 131.338,45.219C133.039,45.761 134.816,46.023 136.601,45.996C139.201,46.028 141.786,45.599 144.236,44.731L144.236,36.534C142.6,36.954 140.921,37.176 139.232,37.196C138.706,37.261 138.173,37.203 137.674,37.025C137.174,36.848 136.723,36.557 136.356,36.175C135.781,35.241 135.524,34.147 135.623,33.055L135.623,22.989L144.236,22.989Z" fill="#008FB4"/>
<path d="M224.974,28.971L236.334,14.592L224.314,14.592L214.248,27.303L214.248,7.173C214.062,3.031 212.264,-0.017 204.514,-0.017L204.514,45.306L214.248,45.306L214.248,30.668L225.752,45.306L237.902,45.306L224.974,28.971ZM173.268,45.277L173.268,25.003C173.268,16.275 166.337,13.14 160.197,13.14C155.363,12.899 150.607,14.433 146.825,17.454L151.9,23.752C153.944,21.957 156.498,20.845 159.205,20.574C162.9,20.574 163.662,22.688 163.662,25.391L163.662,25.909L160.341,25.909C151.8,25.909 146.666,29.604 146.666,36.19C146.666,43.379 152.993,45.248 160.7,45.248L173.268,45.277ZM163.662,38.907L160.47,38.907C157.983,38.907 156.459,37.872 156.459,35.729C156.459,33.587 157.983,32.35 161.031,32.35L163.662,32.35L163.662,38.907ZM90.43,5.548C90.43,7.035 91.021,8.461 92.072,9.513C93.124,10.565 94.55,11.156 96.038,11.156C97.525,11.156 98.951,10.565 100.003,9.513C101.055,8.461 101.646,7.035 101.646,5.548C101.646,4.06 101.055,2.634 100.003,1.582C98.951,0.531 97.525,-0.06 96.038,-0.06C94.55,-0.06 93.124,0.531 92.072,1.582C91.021,2.634 90.43,4.06 90.43,5.548ZM91.379,13.816L90.962,13.816L90.962,45.306L101.099,45.306L101.099,20.445C100.812,16.62 98.856,13.816 91.379,13.816ZM123.66,23.248L123.66,14.06C121.877,14.132 116.47,14.865 114.083,17.727L114.083,14.693L104.018,14.693L104.018,45.306L114.083,45.306L114.083,31.085C114.077,31.004 114.077,30.922 114.083,30.841C115.521,24.025 122.021,23.306 123.689,23.248L123.66,23.248ZM284.548,40.69L283.986,40.69L283.986,41.754L284.548,41.754C284.62,41.758 284.692,41.747 284.76,41.722C284.828,41.697 284.89,41.659 284.942,41.609C284.994,41.559 285.036,41.499 285.064,41.433C285.094,41.366 285.108,41.295 285.108,41.222C285.108,41.15 285.094,41.078 285.064,41.012C285.036,40.945 284.994,40.885 284.942,40.836C284.89,40.786 284.828,40.747 284.76,40.722C284.692,40.697 284.62,40.686 284.548,40.69ZM285.108,43.638L284.418,42.2L283.986,42.2L283.986,43.638L283.354,43.638L283.354,40.144L284.706,40.144C284.848,40.14 284.992,40.165 285.124,40.218C285.258,40.27 285.38,40.349 285.482,40.45C285.584,40.551 285.664,40.671 285.718,40.804C285.774,40.937 285.8,41.079 285.798,41.222C285.8,41.432 285.736,41.636 285.614,41.806C285.492,41.977 285.32,42.105 285.122,42.171L285.884,43.609L285.108,43.638ZM284.446,39.324C283.922,39.298 283.4,39.43 282.952,39.703C282.502,39.976 282.144,40.378 281.926,40.856C281.706,41.334 281.636,41.866 281.722,42.385C281.808,42.904 282.048,43.385 282.41,43.766C282.772,44.147 283.24,44.41 283.754,44.523C284.268,44.635 284.804,44.591 285.292,44.397C285.78,44.202 286.2,43.865 286.494,43.43C286.79,42.995 286.948,42.481 286.948,41.956C286.958,41.618 286.9,41.282 286.78,40.967C286.66,40.652 286.478,40.364 286.244,40.119C286.012,39.875 285.734,39.679 285.426,39.542C285.116,39.406 284.784,39.332 284.446,39.324ZM284.446,45.191C283.806,45.211 283.172,45.039 282.628,44.699C282.086,44.358 281.654,43.864 281.392,43.278C281.132,42.692 281.05,42.042 281.158,41.409C281.266,40.777 281.56,40.191 282.004,39.726C282.446,39.262 283.016,38.939 283.642,38.799C284.268,38.66 284.922,38.71 285.52,38.942C286.118,39.175 286.634,39.58 287,40.107C287.368,40.633 287.57,41.257 287.582,41.898C287.592,42.742 287.27,43.557 286.682,44.163C286.094,44.769 285.29,45.118 284.446,45.133L284.446,45.191ZM62.664,27.548L67.165,14.607L71.665,27.548L62.664,27.548ZM71.895,-0.017L62.851,-0.017L48.889,36.88L43.396,36.88C39.651,37.038 35.941,36.11 32.712,34.205C31.426,33.38 30.381,32.227 29.687,30.865C28.992,29.503 28.671,27.981 28.758,26.455L28.758,22.141L24.301,22.141C20.154,22.028 16.184,20.442 13.099,17.669C10.689,15.142 9.174,11.894 8.786,8.424L40.031,8.424C45.711,8.424 47.81,11.199 49.119,13.686C49.762,14.934 50.245,16.258 50.557,17.626L54.511,7.173C54.511,7.173 51.204,-0.017 40.031,-0.017L0,-0.017L0,4.297C0,12.435 2.416,18.963 7.19,23.651C10.937,27.197 15.678,29.515 20.778,30.294C22.575,39.526 31.059,45.277 43.396,45.277L56.222,45.277L59.098,36.966L75.159,36.966L78.035,45.263L89.006,45.263L71.895,-0.017Z" fill="#008FB4"/>
</svg>
