<svg width="54" height="28" viewBox="0 0 54 28" fill="none" xmlns="http://www.w3.org/2000/svg" xmlns:xlink="http://www.w3.org/1999/xlink">
<path d="M52.332,3.459L52.332,-0.328L34.874,-0.328C34.874,4.572 30.902,8.544 26.002,8.544C21.102,8.544 17.129,4.572 17.129,-0.328L-0.328,-0.328L-0.328,3.459L7.252,4.262C7.725,6.2 8.491,8.023 9.5,9.683L4.706,15.612L10.061,20.968L15.991,16.174C17.65,17.183 19.474,17.948 21.412,18.421L22.215,26.002L29.789,26.002L30.591,18.421C32.53,17.948 34.353,17.183 36.013,16.174L41.942,20.968L47.298,15.612L42.504,9.683C43.513,8.023 44.278,6.2 44.751,4.262L52.332,3.459Z" fill="#2437AC"/>
</svg>
