<svg width="30" height="16" viewBox="0 0 30 16" fill="none" xmlns="http://www.w3.org/2000/svg" xmlns:xlink="http://www.w3.org/1999/xlink">
<path d="M27.827,2.325L15.327,14.825C15.153,15 14.946,15.139 14.718,15.233C14.49,15.328 14.246,15.377 13.999,15.377C13.753,15.377 13.508,15.328 13.28,15.233C13.052,15.139 12.845,15 12.671,14.825L0.171,2.325C-0.181,1.973 -0.379,1.495 -0.379,0.997C-0.379,0.499 -0.181,0.021 0.171,-0.331C0.523,-0.683 1.001,-0.881 1.499,-0.881C1.997,-0.881 2.475,-0.683 2.827,-0.331L14.001,10.842L25.174,-0.333C25.526,-0.685 26.004,-0.883 26.502,-0.883C27.001,-0.883 27.478,-0.685 27.83,-0.333C28.183,0.02 28.381,0.497 28.381,0.995C28.381,1.494 28.183,1.971 27.83,2.324L27.827,2.325Z" fill="#E3DBD8"/>
</svg>
