<svg width="46" height="50" viewBox="0 0 46 50" fill="none" xmlns="http://www.w3.org/2000/svg" xmlns:xlink="http://www.w3.org/1999/xlink">
<path d="M40.75,3.5L35.125,3.5L35.125,1.625C35.125,1.128 34.927,0.651 34.576,0.299C34.224,-0.052 33.747,-0.25 33.25,-0.25C32.753,-0.25 32.276,-0.052 31.924,0.299C31.573,0.651 31.375,1.128 31.375,1.625L31.375,3.5L12.625,3.5L12.625,1.625C12.625,1.128 12.427,0.651 12.076,0.299C11.724,-0.052 11.247,-0.25 10.75,-0.25C10.253,-0.25 9.776,-0.052 9.424,0.299C9.073,0.651 8.875,1.128 8.875,1.625L8.875,3.5L3.25,3.5C2.255,3.5 1.302,3.895 0.598,4.598C-0.105,5.302 -0.5,6.255 -0.5,7.25L-0.5,44.75C-0.5,45.745 -0.105,46.698 0.598,47.402C1.302,48.105 2.255,48.5 3.25,48.5L40.75,48.5C41.745,48.5 42.698,48.105 43.402,47.402C44.105,46.698 44.5,45.745 44.5,44.75L44.5,7.25C44.5,6.255 44.105,5.302 43.402,4.598C42.698,3.895 41.745,3.5 40.75,3.5ZM8.875,7.25L8.875,9.125C8.875,9.622 9.073,10.099 9.424,10.451C9.776,10.802 10.253,11 10.75,11C11.247,11 11.724,10.802 12.076,10.451C12.427,10.099 12.625,9.622 12.625,9.125L12.625,7.25L31.375,7.25L31.375,9.125C31.375,9.622 31.573,10.099 31.924,10.451C32.276,10.802 32.753,11 33.25,11C33.747,11 34.224,10.802 34.576,10.451C34.927,10.099 35.125,9.622 35.125,9.125L35.125,7.25L40.75,7.25L40.75,14.75L3.25,14.75L3.25,7.25L8.875,7.25ZM40.75,44.75L3.25,44.75L3.25,18.5L40.75,18.5L40.75,44.75ZM29.5,31.625C29.5,32.122 29.302,32.599 28.951,32.951C28.599,33.302 28.122,33.5 27.625,33.5L23.875,33.5L23.875,37.25C23.875,37.747 23.677,38.224 23.326,38.576C22.974,38.927 22.497,39.125 22,39.125C21.503,39.125 21.026,38.927 20.674,38.576C20.323,38.224 20.125,37.747 20.125,37.25L20.125,33.5L16.375,33.5C15.878,33.5 15.401,33.302 15.049,32.951C14.698,32.599 14.5,32.122 14.5,31.625C14.5,31.128 14.698,30.651 15.049,30.299C15.401,29.948 15.878,29.75 16.375,29.75L20.125,29.75L20.125,26C20.125,25.503 20.323,25.026 20.674,24.674C21.026,24.323 21.503,24.125 22,24.125C22.497,24.125 22.974,24.323 23.326,24.674C23.677,25.026 23.875,25.503 23.875,26L23.875,29.75L27.625,29.75C28.122,29.75 28.599,29.948 28.951,30.299C29.302,30.651 29.5,31.128 29.5,31.625Z" fill="#00B8FF"/>
</svg>
