<svg width="188" height="36" viewBox="0 0 188 36" fill="none" xmlns="http://www.w3.org/2000/svg" xmlns:xlink="http://www.w3.org/1999/xlink">
<path d="M179.913,29.961C180.066,31.7 181.457,33.913 183.868,33.913L185.277,33.913C185.825,33.913 186.272,33.465 186.272,32.918L186.272,1.907L186.266,1.907C186.238,1.384 185.807,0.966 185.277,0.966L180.909,0.966C180.379,0.966 179.947,1.384 179.92,1.907L179.913,1.907L179.913,4.427C177.236,1.127 173.016,-0.243 168.784,-0.243C159.163,-0.243 151.364,7.562 151.364,17.191C151.364,26.82 159.163,34.625 168.784,34.625C173.016,34.625 177.629,32.982 179.913,29.957L179.913,29.961ZM168.8,28.523C162.682,28.523 157.722,23.45 157.722,17.191C157.722,10.933 162.682,5.859 168.8,5.859C174.92,5.859 179.879,10.933 179.879,17.191C179.879,23.45 174.92,28.523 168.8,28.523Z" clip-rule="evenodd" fill-rule="evenodd" fill="#0D0E10"/>
<path d="M145.839,14.98C145.839,5.934 140.137,-0.168 131.044,-0.168C126.703,-0.168 123.145,2.344 121.888,4.502C121.617,2.815 120.722,1.041 117.946,1.041L116.531,1.041C115.984,1.041 115.537,1.489 115.537,2.036L115.537,30.038C115.537,30.039 115.537,30.041 115.537,30.042L115.537,33.05L115.543,33.05C115.571,33.572 116.003,33.991 116.532,33.991L120.901,33.991C120.968,33.991 121.033,33.983 121.097,33.971C121.126,33.965 121.153,33.954 121.181,33.946C121.213,33.936 121.247,33.928 121.278,33.915C121.317,33.899 121.352,33.877 121.388,33.857C121.406,33.846 121.425,33.839 121.442,33.827C121.485,33.799 121.525,33.765 121.564,33.731C121.57,33.725 121.578,33.72 121.584,33.714C121.628,33.672 121.667,33.626 121.702,33.578C121.812,33.427 121.878,33.246 121.889,33.05L121.895,33.05L121.895,14.731C121.895,9.873 125.831,5.934 130.686,5.934C135.54,5.934 139.476,9.873 139.476,14.731L139.48,30.044L139.481,30.038C139.481,30.052 139.483,30.066 139.483,30.08L139.483,33.05L139.489,33.05C139.518,33.572 139.949,33.991 140.478,33.991L144.847,33.991C144.914,33.991 144.98,33.983 145.043,33.971C145.069,33.966 145.093,33.955 145.118,33.948C145.154,33.938 145.191,33.929 145.225,33.915C145.261,33.9 145.293,33.88 145.327,33.861C145.348,33.849 145.369,33.841 145.389,33.827C145.429,33.801 145.466,33.769 145.503,33.737C145.512,33.729 145.522,33.722 145.531,33.714C145.572,33.674 145.609,33.63 145.643,33.585C145.645,33.582 145.648,33.579 145.651,33.576C145.758,33.427 145.824,33.247 145.836,33.053C145.836,33.052 145.836,33.05 145.836,33.05L145.842,33.05L145.839,14.98Z" clip-rule="evenodd" fill-rule="evenodd" fill="#0D0E10"/>
<path d="M100.336,29.96C100.488,31.7 101.88,33.913 104.29,33.913L105.7,33.913C106.246,33.913 106.694,33.465 106.694,32.918L106.694,1.907L106.688,1.907C106.66,1.384 106.227,0.966 105.7,0.966L101.33,0.966C100.802,0.966 100.37,1.384 100.341,1.907L100.336,1.907L100.336,4.427C97.658,1.127 93.438,-0.243 89.205,-0.243C79.585,-0.243 71.786,7.562 71.786,17.191C71.786,26.82 79.585,34.625 89.205,34.625C93.438,34.625 98.05,32.982 100.335,29.957L100.336,29.96ZM89.222,28.523C83.104,28.523 78.144,23.45 78.144,17.191C78.144,10.933 83.104,5.859 89.222,5.859C95.341,5.859 100.301,10.933 100.301,17.191C100.301,23.45 95.341,28.523 89.222,28.523Z" clip-rule="evenodd" fill-rule="evenodd" fill="#0D0E10"/>
<path d="M45.948,25.519C48.865,27.541 52.048,28.524 55.108,28.524C58.023,28.524 61.036,27.011 61.036,24.379C61.036,20.865 54.47,20.318 50.345,18.915C46.218,17.512 42.664,14.611 42.664,9.914C42.664,2.726 49.064,-0.243 55.037,-0.243C58.822,-0.243 62.727,1.006 65.258,2.795C66.13,3.456 65.599,4.215 65.599,4.215L63.183,7.669C62.911,8.058 62.436,8.394 61.754,7.973C61.073,7.552 58.681,5.859 55.037,5.859C51.393,5.859 49.198,7.543 49.198,9.631C49.198,12.134 52.051,12.921 55.393,13.775C61.216,15.346 67.569,17.234 67.569,24.379C67.569,30.712 61.65,34.626 55.108,34.626C50.15,34.626 45.93,33.212 42.39,30.612C41.652,29.873 42.167,29.187 42.167,29.187L44.572,25.751C45.061,25.108 45.678,25.332 45.948,25.519Z" clip-rule="evenodd" fill-rule="evenodd" fill="#0D0E10"/>
<path d="M29.15,29.96C29.303,31.7 30.694,33.913 33.104,33.913L34.514,33.913C35.061,33.913 35.509,33.465 35.509,32.918L35.509,1.907L35.503,1.907C35.474,1.384 35.042,0.966 34.514,0.966L30.145,0.966C29.617,0.966 29.185,1.384 29.156,1.907L29.15,1.907L29.15,4.427C26.473,1.127 22.253,-0.243 18.02,-0.243C8.4,-0.243 0.601,7.562 0.601,17.191C0.601,26.82 8.4,34.625 18.02,34.625C22.253,34.625 26.865,32.982 29.15,29.957L29.15,29.96ZM18.037,28.523C11.919,28.523 6.958,23.45 6.958,17.191C6.958,10.933 11.919,5.859 18.037,5.859C24.156,5.859 29.115,10.933 29.115,17.191C29.115,23.45 24.156,28.523 18.037,28.523Z" clip-rule="evenodd" fill-rule="evenodd" fill="#0D0E10"/>
</svg>
