<svg width="288" height="46" viewBox="0 0 288 46" fill="none" xmlns="http://www.w3.org/2000/svg" xmlns:xlink="http://www.w3.org/1999/xlink">
<path d="M287.466,23.209L287.466,14.02C285.668,14.092 280.276,14.826 277.89,17.687L277.89,14.653L267.824,14.653L267.824,45.266L277.89,45.266L277.89,30.801C279.328,23.985 285.842,23.266 287.494,23.209L287.466,23.209ZM197.309,23.568C196.229,22.602 194.995,21.824 193.657,21.267C192.555,20.731 191.345,20.455 190.12,20.462C189.212,20.453 188.313,20.645 187.488,21.023C187.112,21.176 186.794,21.442 186.577,21.785C186.36,22.128 186.257,22.53 186.28,22.935C186.271,23.346 186.394,23.749 186.633,24.083C186.871,24.418 187.212,24.666 187.603,24.79C189.008,25.31 190.45,25.724 191.917,26.027C193.112,26.286 194.285,26.637 195.426,27.077C196.573,27.514 197.649,28.12 198.618,28.874C199.563,29.618 200.346,30.548 200.918,31.606C201.52,32.789 201.818,34.104 201.782,35.431C201.844,37.051 201.478,38.66 200.722,40.094C199.964,41.528 198.841,42.737 197.467,43.598C196.15,44.452 194.688,45.061 193.154,45.395C191.609,45.766 190.026,45.954 188.437,45.956C185.92,45.956 183.419,45.549 181.032,44.748C178.766,44.044 176.694,42.823 174.979,41.182L179.954,34.956C181.166,36.064 182.544,36.976 184.037,37.66C185.344,38.317 186.788,38.657 188.25,38.652C189.104,38.643 189.945,38.441 190.709,38.062C191.098,37.882 191.422,37.586 191.638,37.216C191.854,36.846 191.951,36.419 191.917,35.992C191.922,35.536 191.787,35.09 191.53,34.715C191.272,34.339 190.906,34.052 190.479,33.892C188.98,33.268 187.425,32.787 185.835,32.454C184.735,32.196 183.654,31.865 182.599,31.462C181.56,31.059 180.59,30.496 179.724,29.794C178.896,29.088 178.212,28.229 177.711,27.263C177.149,26.109 176.873,24.837 176.905,23.554C176.858,21.894 177.266,20.253 178.084,18.809C178.855,17.509 179.912,16.402 181.176,15.573C182.431,14.732 183.823,14.114 185.288,13.747C186.762,13.361 188.279,13.163 189.803,13.158C192.108,13.155 194.399,13.519 196.59,14.236C198.682,14.89 200.602,16 202.212,17.486L197.309,23.568ZM256.22,25.984C256.208,24.575 255.698,23.215 254.782,22.145C254.19,21.539 253.472,21.072 252.68,20.777C251.888,20.481 251.038,20.364 250.196,20.433C249.278,20.426 248.368,20.582 247.506,20.894C246.724,21.18 245.998,21.603 245.364,22.145C244.774,22.673 244.286,23.307 243.926,24.014C243.606,24.627 243.406,25.296 243.336,25.984L256.22,25.984ZM265.494,30.139L265.494,31.362C265.518,31.749 265.518,32.138 265.494,32.526L243.294,32.526C243.358,33.348 243.62,34.142 244.056,34.841C244.488,35.543 245.05,36.158 245.71,36.653C246.398,37.168 247.166,37.571 247.982,37.846C248.818,38.134 249.698,38.28 250.584,38.278C251.988,38.319 253.38,38.013 254.638,37.386C255.698,36.832 256.616,36.046 257.328,35.086L264.33,39.5C262.87,41.581 260.886,43.238 258.578,44.303C256.032,45.449 253.262,46.014 250.468,45.956C248.252,45.969 246.05,45.604 243.954,44.878C241.978,44.205 240.154,43.144 238.592,41.758C237.038,40.355 235.808,38.633 234.982,36.711C234.064,34.548 233.612,32.215 233.66,29.866C233.63,27.546 234.064,25.243 234.94,23.094C235.746,21.164 236.934,19.418 238.434,17.96C239.942,16.536 241.714,15.422 243.652,14.682C245.742,13.887 247.96,13.492 250.196,13.517C252.314,13.497 254.418,13.883 256.392,14.653C258.228,15.377 259.884,16.497 261.238,17.931C262.632,19.431 263.708,21.197 264.402,23.122C265.188,25.367 265.572,27.732 265.538,30.111L265.494,30.139ZM144.236,22.95L144.236,13.704L135.609,13.704L135.609,6.845C135.393,2.891 133.524,-0.057 125.888,-0.057L125.888,35.56C125.881,36.987 126.065,38.409 126.435,39.788C126.761,40.999 127.35,42.123 128.16,43.08C129.028,44.034 130.12,44.756 131.338,45.18C133.039,45.721 134.816,45.983 136.601,45.956C139.201,45.988 141.786,45.56 144.236,44.691L144.236,36.495C142.6,36.914 140.921,37.136 139.232,37.156C138.706,37.221 138.173,37.163 137.674,36.986C137.174,36.809 136.723,36.517 136.356,36.135C135.781,35.202 135.524,34.107 135.623,33.015L135.623,22.95L144.236,22.95Z" fill="#008FB4"/>
<path d="M224.974,28.932L236.334,14.553L224.314,14.553L214.248,27.264L214.248,7.133C214.062,2.992 212.264,-0.056 204.514,-0.056L204.514,45.266L214.248,45.266L214.248,30.628L225.752,45.266L237.902,45.266L224.974,28.932ZM173.268,45.238L173.268,24.963C173.268,16.235 166.337,13.1 160.197,13.1C155.363,12.859 150.607,14.393 146.825,17.414L151.9,23.712C153.944,21.917 156.498,20.806 159.205,20.534C162.9,20.534 163.662,22.648 163.662,25.351L163.662,25.869L160.341,25.869C151.8,25.869 146.666,29.564 146.666,36.15C146.666,43.34 152.993,45.209 160.7,45.209L173.268,45.238ZM163.662,38.868L160.47,38.868C157.983,38.868 156.459,37.832 156.459,35.69C156.459,33.547 157.983,32.311 161.031,32.311L163.662,32.311L163.662,38.868ZM90.43,5.508C90.43,6.996 91.021,8.422 92.072,9.474C93.124,10.525 94.55,11.116 96.038,11.116C97.525,11.116 98.951,10.525 100.003,9.474C101.055,8.422 101.646,6.996 101.646,5.508C101.646,4.021 101.055,2.595 100.003,1.543C98.951,0.491 97.525,-0.1 96.038,-0.1C94.55,-0.1 93.124,0.491 92.072,1.543C91.021,2.595 90.43,4.021 90.43,5.508ZM91.379,13.776L90.962,13.776L90.962,45.266L101.099,45.266L101.099,20.405C100.812,16.58 98.856,13.776 91.379,13.776ZM123.66,23.209L123.66,14.021C121.877,14.093 116.47,14.826 114.083,17.687L114.083,14.653L104.018,14.653L104.018,45.266L114.083,45.266L114.083,31.045C114.077,30.964 114.077,30.882 114.083,30.801C115.521,23.985 122.021,23.266 123.689,23.209L123.66,23.209ZM284.548,40.651L283.986,40.651L283.986,41.715L284.548,41.715C284.62,41.719 284.692,41.708 284.76,41.683C284.828,41.658 284.89,41.619 284.942,41.569C284.994,41.52 285.036,41.46 285.064,41.393C285.094,41.327 285.108,41.255 285.108,41.183C285.108,41.11 285.094,41.039 285.064,40.972C285.036,40.906 284.994,40.846 284.942,40.796C284.89,40.746 284.828,40.708 284.76,40.683C284.692,40.658 284.62,40.647 284.548,40.651ZM285.108,43.598L284.418,42.16L283.986,42.16L283.986,43.598L283.354,43.598L283.354,40.104L284.706,40.104C284.848,40.1 284.992,40.125 285.124,40.178C285.258,40.231 285.38,40.31 285.482,40.411C285.584,40.511 285.664,40.632 285.718,40.764C285.774,40.897 285.8,41.039 285.798,41.183C285.8,41.392 285.736,41.596 285.614,41.767C285.492,41.937 285.32,42.065 285.122,42.132L285.884,43.57L285.108,43.598ZM284.446,39.285C283.922,39.259 283.4,39.391 282.952,39.664C282.502,39.937 282.144,40.338 281.926,40.816C281.706,41.294 281.636,41.827 281.722,42.345C281.808,42.864 282.048,43.345 282.41,43.726C282.772,44.107 283.24,44.371 283.754,44.483C284.268,44.596 284.804,44.552 285.292,44.357C285.78,44.162 286.2,43.826 286.494,43.39C286.79,42.955 286.948,42.442 286.948,41.916C286.958,41.579 286.9,41.243 286.78,40.928C286.66,40.613 286.478,40.324 286.244,40.08C286.012,39.835 285.734,39.639 285.426,39.503C285.116,39.366 284.784,39.292 284.446,39.285ZM284.446,45.151C283.806,45.171 283.172,45 282.628,44.659C282.086,44.319 281.654,43.824 281.392,43.238C281.132,42.652 281.05,42.002 281.158,41.37C281.266,40.737 281.56,40.152 282.004,39.687C282.446,39.222 283.016,38.899 283.642,38.76C284.268,38.62 284.922,38.67 285.52,38.903C286.118,39.135 286.634,39.541 287,40.067C287.368,40.593 287.57,41.217 287.582,41.859C287.592,42.703 287.27,43.517 286.682,44.123C286.094,44.73 285.29,45.079 284.446,45.094L284.446,45.151ZM62.664,27.508L67.165,14.567L71.665,27.508L62.664,27.508ZM71.895,-0.056L62.851,-0.056L48.889,36.84L43.396,36.84C39.651,36.999 35.941,36.07 32.712,34.166C31.426,33.34 30.381,32.187 29.687,30.826C28.992,29.464 28.671,27.942 28.758,26.415L28.758,22.102L24.301,22.102C20.154,21.988 16.184,20.403 13.099,17.63C10.689,15.102 9.174,11.855 8.786,8.384L40.031,8.384C45.711,8.384 47.81,11.159 49.119,13.647C49.762,14.894 50.245,16.218 50.557,17.587L54.511,7.133C54.511,7.133 51.204,-0.056 40.031,-0.056L0,-0.056L0,4.257C0,12.396 2.416,18.924 7.19,23.611C10.937,27.158 15.678,29.475 20.778,30.255C22.575,39.486 31.059,45.238 43.396,45.238L56.222,45.238L59.098,36.926L75.159,36.926L78.035,45.223L89.006,45.223L71.895,-0.056Z" fill="#008FB4"/>
</svg>
