<svg width="54" height="50" viewBox="0 0 54 50" fill="none" xmlns="http://www.w3.org/2000/svg" xmlns:xlink="http://www.w3.org/1999/xlink">
<path d="M42.179,26.376C35.705,26.376 30.456,31.625 30.456,38.099C30.456,44.574 35.705,49.822 42.179,49.822C48.653,49.822 53.902,44.574 53.902,38.099C53.902,31.625 48.653,26.376 42.179,26.376ZM11.723,26.377C5.248,26.377 0,31.625 0,38.099C0,44.574 5.248,49.822 11.723,49.822C18.197,49.822 23.446,44.574 23.446,38.099C23.446,31.625 18.197,26.377 11.723,26.377ZM38.673,11.722C38.673,18.197 33.425,23.446 26.951,23.446C20.476,23.446 15.228,18.197 15.228,11.722C15.228,5.249 20.476,0 26.951,0C33.425,0 38.673,5.249 38.673,11.722Z" clip-rule="evenodd" fill-rule="evenodd" fill="#F06A6A"/>
</svg>
