<svg width="48" height="48" viewBox="0 0 48 48" fill="none" xmlns="http://www.w3.org/2000/svg" xmlns:xlink="http://www.w3.org/1999/xlink">
<path d="M47.438,24C47.438,24.746 47.141,25.461 46.614,25.989C46.086,26.516 45.371,26.813 44.625,26.813L26.813,26.813L26.813,44.625C26.813,45.371 26.516,46.086 25.989,46.614C25.461,47.141 24.746,47.438 24,47.438C23.254,47.438 22.539,47.141 22.011,46.614C21.484,46.086 21.188,45.371 21.188,44.625L21.188,26.813L3.375,26.813C2.629,26.813 1.914,26.516 1.386,25.989C0.859,25.461 0.563,24.746 0.563,24C0.563,23.254 0.859,22.539 1.386,22.011C1.914,21.484 2.629,21.188 3.375,21.188L21.188,21.188L21.188,3.375C21.188,2.629 21.484,1.914 22.011,1.386C22.539,0.859 23.254,0.563 24,0.563C24.746,0.563 25.461,0.859 25.989,1.386C26.516,1.914 26.813,2.629 26.813,3.375L26.813,21.188L44.625,21.188C45.371,21.188 46.086,21.484 46.614,22.011C47.141,22.539 47.438,23.254 47.438,24Z" fill="#00B8FF"/>
</svg>
