<svg width="132" height="130" viewBox="0 0 132 130" fill="none" xmlns="http://www.w3.org/2000/svg" xmlns:xlink="http://www.w3.org/1999/xlink">
<path d="M128.391,30.514L127.298,28.956C127.03,28.571 126.62,28.309 126.158,28.226C125.697,28.143 125.221,28.246 124.835,28.512C122.465,30.137 119.747,31.185 116.9,31.573C114.052,31.961 111.153,31.678 108.434,30.746L96.644,26.692C90.282,24.49 83.39,24.344 76.941,26.274L72.878,27.482L72.878,20.88C74.702,19.28 75.995,17.162 76.584,14.808C77.173,12.454 77.03,9.976 76.175,7.705C75.32,5.434 73.793,3.478 71.798,2.098C69.802,0.717 67.434,-0.023 65.007,-0.023C62.581,-0.023 60.212,0.717 58.216,2.098C56.221,3.478 54.694,5.434 53.839,7.705C52.984,9.976 52.841,12.454 53.43,14.808C54.019,17.162 55.312,19.28 57.136,20.88L57.136,27.482L53.073,26.274C46.624,24.345 39.732,24.491 33.37,26.691L21.566,30.745C18.847,31.677 15.948,31.96 13.1,31.572C10.253,31.184 7.535,30.136 5.164,28.511C4.779,28.244 4.303,28.141 3.841,28.224C3.38,28.308 2.97,28.57 2.702,28.955L1.608,30.514C0.795,31.656 0.27,32.978 0.077,34.367C-0.116,35.756 0.03,37.171 0.501,38.492C0.981,39.843 1.775,41.06 2.818,42.043C3.861,43.026 5.123,43.747 6.5,44.146C9.459,45.01 12.526,45.448 15.608,45.448C19.173,45.452 22.714,44.862 26.085,43.702L26.468,43.571L15.539,64.937L13.914,64.937C12.394,64.935 10.93,65.511 9.82,66.55C8.71,67.588 8.037,69.01 7.938,70.527C7.838,72.044 8.321,73.541 9.286,74.715C10.251,75.889 11.628,76.652 13.135,76.847L13.135,81.885C13.138,84.51 14.182,87.027 16.039,88.884C17.895,90.74 20.412,91.784 23.037,91.787L37.07,91.787C39.696,91.784 42.213,90.74 44.069,88.884C45.925,87.027 46.97,84.51 46.973,81.885L46.973,76.847C48.48,76.652 49.856,75.889 50.822,74.715C51.787,73.541 52.269,72.044 52.17,70.527C52.071,69.01 51.398,67.588 50.288,66.55C49.177,65.511 47.714,64.935 46.194,64.937L44.569,64.937L32.571,41.472L37.875,39.644C41.501,38.39 45.429,38.306 49.105,39.406L57.129,41.79L57.129,101.396L28.91,101.396C27.092,101.398 25.35,102.121 24.065,103.406C22.779,104.692 22.056,106.434 22.054,108.252L22.054,114.258L16.28,114.258C14.732,114.26 13.248,114.875 12.153,115.97C11.058,117.065 10.442,118.549 10.441,120.098L10.441,128.223C10.44,128.456 10.486,128.687 10.576,128.903C10.665,129.119 10.796,129.315 10.961,129.48C11.126,129.645 11.322,129.776 11.538,129.865C11.753,129.954 11.985,130 12.218,130L117.782,130C118.253,130 118.705,129.813 119.039,129.48C119.372,129.146 119.559,128.694 119.559,128.223L119.559,120.098C119.558,118.549 118.942,117.065 117.847,115.97C116.752,114.875 115.268,114.26 113.719,114.258L107.946,114.258L107.946,108.252C107.943,106.434 107.221,104.692 105.935,103.406C104.65,102.121 102.908,101.398 101.09,101.396L72.871,101.396L72.871,41.794L80.894,39.41C84.57,38.309 88.499,38.392 92.125,39.648L97.43,41.476L85.432,64.937L83.807,64.937C82.287,64.935 80.823,65.511 79.713,66.55C78.603,67.588 77.93,69.01 77.831,70.527C77.732,72.044 78.214,73.541 79.179,74.715C80.145,75.889 81.521,76.652 83.028,76.847L83.028,81.885C83.031,84.51 84.075,87.027 85.932,88.884C87.788,90.74 90.305,91.784 92.931,91.787L106.958,91.787C109.584,91.784 112.101,90.74 113.957,88.884C115.814,87.027 116.858,84.51 116.861,81.885L116.861,76.847C118.368,76.652 119.744,75.889 120.71,74.716C121.675,73.542 122.157,72.044 122.058,70.527C121.959,69.011 121.286,67.589 120.176,66.55C119.066,65.512 117.603,64.935 116.083,64.937L114.458,64.937L103.532,43.57L103.915,43.701C107.285,44.86 110.825,45.45 114.39,45.447C117.472,45.447 120.538,45.009 123.497,44.145C124.874,43.746 126.137,43.025 127.181,42.041C128.225,41.058 129.019,39.84 129.499,38.488C129.97,37.168 130.115,35.754 129.922,34.365C129.729,32.977 129.204,31.656 128.391,30.514ZM65,3.555C66.657,3.555 68.277,4.046 69.655,4.967C71.033,5.888 72.107,7.196 72.741,8.727C73.375,10.258 73.541,11.943 73.218,13.568C72.895,15.194 72.097,16.687 70.925,17.859C69.753,19.03 68.26,19.828 66.635,20.152C65.009,20.475 63.324,20.309 61.793,19.675C60.262,19.041 58.954,17.967 58.033,16.589C57.112,15.211 56.621,13.591 56.621,11.934C56.623,9.712 57.507,7.582 59.078,6.012C60.649,4.441 62.778,3.557 65,3.555ZM43.418,81.885C43.416,83.568 42.747,85.181 41.557,86.371C40.367,87.561 38.753,88.231 37.07,88.233L23.041,88.233C21.358,88.231 19.745,87.561 18.555,86.371C17.365,85.181 16.696,83.568 16.694,81.885L16.694,76.908L43.418,76.908L43.418,81.885ZM48.623,70.916C48.621,71.56 48.364,72.176 47.909,72.632C47.454,73.087 46.837,73.343 46.194,73.346L13.914,73.346C13.591,73.352 13.27,73.294 12.969,73.175C12.669,73.056 12.395,72.878 12.164,72.652C11.933,72.426 11.75,72.156 11.625,71.858C11.5,71.56 11.435,71.24 11.435,70.917C11.435,70.593 11.5,70.273 11.625,69.975C11.75,69.678 11.933,69.408 12.164,69.181C12.395,68.955 12.669,68.777 12.969,68.658C13.27,68.539 13.591,68.481 13.914,68.488L46.194,68.488C46.838,68.488 47.456,68.745 47.912,69.201C48.367,69.657 48.623,70.276 48.623,70.92L48.623,70.916ZM19.536,64.933L30.056,44.362L40.576,64.937L19.536,64.933ZM50.118,35.998C45.732,34.685 41.045,34.785 36.719,36.282L24.928,40.341C19.297,42.26 13.211,42.397 7.498,40.734C6.661,40.498 5.893,40.064 5.26,39.469C4.626,38.873 4.146,38.133 3.859,37.312C3.579,36.524 3.493,35.681 3.608,34.852C3.724,34.024 4.037,33.236 4.523,32.555L4.644,32.38C7.362,33.936 10.38,34.894 13.497,35.192C16.615,35.49 19.76,35.12 22.723,34.107L34.513,30.052C40.175,28.092 46.311,27.963 52.051,29.683L57.129,31.191L57.129,38.086L50.118,35.998ZM116.005,120.092L116.005,126.439L13.995,126.439L13.995,120.092C13.998,119.487 14.239,118.908 14.668,118.481C15.096,118.054 15.676,117.813 16.28,117.813L113.719,117.813C114.325,117.813 114.906,118.054 115.334,118.483C115.763,118.911 116.004,119.492 116.005,120.098L116.005,120.092ZM104.391,108.245L104.391,114.258L25.609,114.258L25.609,108.252C25.61,107.376 25.958,106.537 26.577,105.919C27.196,105.3 28.035,104.952 28.91,104.951L101.09,104.951C101.965,104.952 102.804,105.3 103.423,105.919C104.042,106.537 104.39,107.376 104.391,108.252L104.391,108.245ZM60.684,101.396L60.684,23.047C63.457,24.141 66.543,24.141 69.316,23.047L69.316,101.396L60.684,101.396ZM113.305,81.885C113.303,83.568 112.634,85.181 111.444,86.371C110.254,87.561 108.64,88.231 106.957,88.233L92.93,88.233C91.247,88.231 89.633,87.561 88.443,86.371C87.253,85.181 86.584,83.568 86.582,81.885L86.582,76.908L113.305,76.908L113.305,81.885ZM118.51,70.916C118.51,71.56 118.254,72.178 117.798,72.633C117.343,73.088 116.726,73.345 116.082,73.346L83.806,73.346C83.483,73.352 83.162,73.294 82.861,73.175C82.561,73.056 82.287,72.878 82.056,72.652C81.826,72.426 81.642,72.156 81.517,71.858C81.392,71.56 81.327,71.24 81.327,70.917C81.327,70.593 81.392,70.273 81.517,69.975C81.642,69.678 81.826,69.408 82.056,69.181C82.287,68.955 82.561,68.777 82.861,68.658C83.162,68.539 83.483,68.481 83.806,68.488L116.086,68.488C116.73,68.49 117.346,68.747 117.801,69.203C118.255,69.659 118.51,70.276 118.51,70.92L118.51,70.916ZM89.424,64.937L99.944,44.362L110.464,64.937L89.424,64.937ZM126.145,37.312C125.857,38.134 125.376,38.874 124.742,39.469C124.107,40.065 123.338,40.499 122.501,40.734C116.788,42.397 110.703,42.26 105.071,40.341L93.281,36.286C88.955,34.789 84.268,34.69 79.882,36.002L72.871,38.086L72.871,31.191L77.949,29.683C83.689,27.962 89.825,28.092 95.487,30.053L107.277,34.108C110.24,35.121 113.385,35.491 116.503,35.193C119.62,34.895 122.638,33.937 125.355,32.381L125.477,32.556C125.962,33.237 126.276,34.025 126.391,34.853C126.507,35.681 126.421,36.524 126.141,37.312L126.145,37.312Z" fill="#FFFFFF"/>
</svg>
