<svg width="188" height="36" viewBox="0 0 188 36" fill="none" xmlns="http://www.w3.org/2000/svg" xmlns:xlink="http://www.w3.org/1999/xlink">
<path d="M179.913,29.922C180.066,31.661 181.457,33.874 183.868,33.874L185.277,33.874C185.825,33.874 186.272,33.426 186.272,32.879L186.272,1.868L186.266,1.868C186.238,1.345 185.807,0.927 185.277,0.927L180.909,0.927C180.379,0.927 179.947,1.345 179.92,1.868L179.913,1.868L179.913,4.388C177.236,1.088 173.016,-0.282 168.784,-0.282C159.163,-0.282 151.364,7.523 151.364,17.152C151.364,26.781 159.163,34.586 168.784,34.586C173.016,34.586 177.629,32.943 179.913,29.918L179.913,29.922ZM168.8,28.484C162.682,28.484 157.722,23.411 157.722,17.152C157.722,10.893 162.682,5.82 168.8,5.82C174.92,5.82 179.879,10.893 179.879,17.152C179.879,23.411 174.92,28.484 168.8,28.484Z" clip-rule="evenodd" fill-rule="evenodd" fill="#0D0E10"/>
<path d="M145.839,14.941C145.839,5.895 140.137,-0.207 131.044,-0.207C126.703,-0.207 123.145,2.305 121.888,4.463C121.617,2.775 120.722,1.002 117.946,1.002L116.531,1.002C115.984,1.002 115.537,1.45 115.537,1.997L115.537,29.999C115.537,30 115.537,30.002 115.537,30.003L115.537,33.011L115.543,33.011C115.571,33.533 116.003,33.952 116.532,33.952L120.901,33.952C120.968,33.952 121.033,33.944 121.097,33.932C121.126,33.926 121.153,33.915 121.181,33.907C121.213,33.897 121.247,33.889 121.278,33.876C121.317,33.86 121.352,33.838 121.388,33.818C121.406,33.807 121.425,33.8 121.442,33.788C121.485,33.76 121.525,33.726 121.564,33.692C121.57,33.686 121.578,33.681 121.584,33.675C121.628,33.633 121.667,33.587 121.702,33.539C121.812,33.388 121.878,33.207 121.889,33.011L121.895,33.011L121.895,14.692C121.895,9.834 125.831,5.895 130.686,5.895C135.54,5.895 139.476,9.834 139.476,14.692L139.48,30.005L139.481,29.999C139.481,30.013 139.483,30.027 139.483,30.041L139.483,33.011L139.489,33.011C139.518,33.533 139.949,33.952 140.478,33.952L144.847,33.952C144.914,33.952 144.98,33.944 145.043,33.932C145.069,33.927 145.093,33.916 145.118,33.909C145.154,33.899 145.191,33.89 145.225,33.876C145.261,33.861 145.293,33.841 145.327,33.822C145.348,33.81 145.369,33.802 145.389,33.788C145.429,33.762 145.466,33.73 145.503,33.698C145.512,33.69 145.522,33.683 145.531,33.675C145.572,33.635 145.609,33.591 145.643,33.546C145.645,33.543 145.648,33.54 145.651,33.537C145.758,33.388 145.824,33.208 145.836,33.014C145.836,33.013 145.836,33.011 145.836,33.011L145.842,33.011L145.839,14.941Z" clip-rule="evenodd" fill-rule="evenodd" fill="#0D0E10"/>
<path d="M100.336,29.921C100.488,31.661 101.88,33.874 104.29,33.874L105.7,33.874C106.246,33.874 106.694,33.426 106.694,32.879L106.694,1.868L106.688,1.868C106.66,1.345 106.227,0.927 105.7,0.927L101.33,0.927C100.802,0.927 100.37,1.345 100.341,1.868L100.336,1.868L100.336,4.388C97.658,1.088 93.438,-0.282 89.205,-0.282C79.585,-0.282 71.786,7.523 71.786,17.152C71.786,26.781 79.585,34.586 89.205,34.586C93.438,34.586 98.05,32.943 100.335,29.918L100.336,29.921ZM89.222,28.484C83.104,28.484 78.144,23.411 78.144,17.152C78.144,10.893 83.104,5.82 89.222,5.82C95.341,5.82 100.301,10.893 100.301,17.152C100.301,23.411 95.341,28.484 89.222,28.484Z" clip-rule="evenodd" fill-rule="evenodd" fill="#0D0E10"/>
<path d="M45.948,25.48C48.865,27.502 52.048,28.485 55.108,28.485C58.023,28.485 61.036,26.972 61.036,24.34C61.036,20.826 54.47,20.279 50.345,18.876C46.218,17.473 42.664,14.572 42.664,9.874C42.664,2.686 49.064,-0.282 55.037,-0.282C58.822,-0.282 62.727,0.967 65.258,2.756C66.13,3.417 65.599,4.176 65.599,4.176L63.183,7.63C62.911,8.019 62.436,8.355 61.754,7.934C61.073,7.513 58.681,5.82 55.037,5.82C51.393,5.82 49.198,7.504 49.198,9.592C49.198,12.095 52.051,12.882 55.393,13.736C61.216,15.307 67.569,17.195 67.569,24.34C67.569,30.673 61.65,34.587 55.108,34.587C50.15,34.587 45.93,33.173 42.39,30.573C41.652,29.834 42.167,29.148 42.167,29.148L44.572,25.712C45.061,25.069 45.678,25.293 45.948,25.48Z" clip-rule="evenodd" fill-rule="evenodd" fill="#0D0E10"/>
<path d="M29.15,29.921C29.303,31.661 30.694,33.874 33.104,33.874L34.514,33.874C35.061,33.874 35.509,33.426 35.509,32.879L35.509,1.868L35.503,1.868C35.474,1.345 35.042,0.927 34.514,0.927L30.145,0.927C29.617,0.927 29.185,1.345 29.156,1.868L29.15,1.868L29.15,4.388C26.473,1.088 22.253,-0.282 18.02,-0.282C8.4,-0.282 0.601,7.523 0.601,17.152C0.601,26.781 8.4,34.586 18.02,34.586C22.253,34.586 26.865,32.943 29.15,29.918L29.15,29.921ZM18.037,28.484C11.919,28.484 6.958,23.411 6.958,17.152C6.958,10.893 11.919,5.82 18.037,5.82C24.156,5.82 29.115,10.893 29.115,17.152C29.115,23.411 24.156,28.484 18.037,28.484Z" clip-rule="evenodd" fill-rule="evenodd" fill="#0D0E10"/>
</svg>
