<svg width="92" height="90" viewBox="0 0 92 90" fill="none" xmlns="http://www.w3.org/2000/svg" xmlns:xlink="http://www.w3.org/1999/xlink">
<path d="M88.886,21.125L88.13,20.046C87.944,19.78 87.66,19.599 87.34,19.541C87.021,19.484 86.692,19.555 86.425,19.739C84.783,20.864 82.902,21.59 80.931,21.859C78.959,22.127 76.952,21.931 75.07,21.286L66.907,18.479C62.503,16.955 57.731,16.854 53.267,18.19L50.454,19.026L50.454,14.456C51.717,13.348 52.612,11.881 53.019,10.252C53.427,8.622 53.329,6.907 52.737,5.335C52.145,3.763 51.088,2.408 49.706,1.452C48.325,0.496 46.685,-0.016 45.005,-0.016C43.325,-0.016 41.685,0.496 40.304,1.452C38.922,2.408 37.865,3.763 37.273,5.335C36.681,6.907 36.582,8.622 36.99,10.252C37.398,11.881 38.293,13.348 39.556,14.456L39.556,19.026L36.743,18.19C32.278,16.854 27.507,16.955 23.103,18.478L14.93,21.285C13.048,21.93 11.041,22.126 9.069,21.858C7.098,21.589 5.217,20.864 3.575,19.738C3.308,19.554 2.979,19.483 2.66,19.54C2.34,19.598 2.056,19.78 1.87,20.046L1.113,21.125C0.55,21.916 0.187,22.831 0.053,23.793C-0.08,24.755 0.021,25.734 0.347,26.649C0.679,27.584 1.229,28.426 1.951,29.107C2.673,29.788 3.547,30.287 4.5,30.563C6.549,31.161 8.672,31.465 10.806,31.465C13.274,31.467 15.725,31.058 18.059,30.256L18.324,30.165L10.758,44.957L9.633,44.957C8.581,44.955 7.567,45.354 6.799,46.073C6.03,46.792 5.564,47.777 5.495,48.827C5.427,49.877 5.76,50.914 6.429,51.726C7.097,52.539 8.05,53.067 9.094,53.202L9.094,56.69C9.096,58.507 9.819,60.25 11.104,61.535C12.389,62.82 14.131,63.543 15.949,63.545L25.664,63.545C27.482,63.543 29.224,62.82 30.509,61.535C31.795,60.25 32.517,58.507 32.519,56.69L32.519,53.202C33.563,53.067 34.516,52.539 35.184,51.726C35.853,50.914 36.186,49.877 36.118,48.827C36.049,47.777 35.583,46.792 34.815,46.073C34.046,45.354 33.033,44.955 31.98,44.957L30.855,44.957L22.549,28.712L26.221,27.446C28.731,26.578 31.451,26.52 33.996,27.282L39.551,28.932L39.551,70.198L20.014,70.198C18.756,70.199 17.55,70.7 16.66,71.589C15.77,72.479 15.27,73.685 15.268,74.944L15.268,79.102L11.271,79.102C10.199,79.103 9.172,79.529 8.414,80.287C7.656,81.045 7.229,82.073 7.228,83.145L7.228,88.77C7.228,88.932 7.26,89.092 7.322,89.241C7.383,89.39 7.474,89.526 7.588,89.64C7.703,89.754 7.838,89.845 7.988,89.907C8.137,89.969 8.297,90 8.459,90L81.541,90C81.868,90 82.181,89.871 82.411,89.64C82.642,89.409 82.772,89.096 82.772,88.77L82.772,83.145C82.771,82.073 82.344,81.045 81.586,80.287C80.828,79.529 79.801,79.103 78.729,79.102L74.732,79.102L74.732,74.944C74.73,73.685 74.23,72.479 73.34,71.589C72.45,70.7 71.244,70.199 69.986,70.198L50.449,70.198L50.449,28.935L56.004,27.284C58.549,26.522 61.269,26.58 63.779,27.449L67.451,28.715L59.145,44.957L58.02,44.957C56.968,44.955 55.955,45.354 55.186,46.073C54.418,46.792 53.952,47.777 53.883,48.827C53.814,49.877 54.148,50.914 54.816,51.726C55.485,52.539 56.438,53.067 57.481,53.202L57.481,56.69C57.483,58.507 58.206,60.25 59.491,61.535C60.777,62.82 62.519,63.543 64.337,63.545L74.048,63.545C75.866,63.543 77.608,62.82 78.893,61.535C80.179,60.25 80.902,58.507 80.904,56.69L80.904,53.202C81.947,53.067 82.9,52.539 83.568,51.726C84.237,50.914 84.57,49.877 84.502,48.827C84.433,47.777 83.967,46.792 83.199,46.074C82.431,45.355 81.417,44.955 80.365,44.957L79.24,44.957L71.676,30.164L71.941,30.255C74.274,31.058 76.725,31.466 79.193,31.464C81.327,31.464 83.45,31.16 85.498,30.562C86.452,30.286 87.326,29.787 88.048,29.106C88.771,28.425 89.321,27.582 89.653,26.646C89.979,25.732 90.079,24.753 89.946,23.792C89.812,22.83 89.449,21.916 88.886,21.125ZM45,2.461C46.147,2.461 47.269,2.802 48.223,3.439C49.177,4.076 49.92,4.982 50.359,6.042C50.798,7.102 50.913,8.269 50.689,9.394C50.465,10.519 49.913,11.553 49.102,12.364C48.29,13.175 47.257,13.728 46.132,13.951C45.006,14.175 43.84,14.06 42.78,13.621C41.72,13.182 40.814,12.439 40.177,11.485C39.539,10.531 39.199,9.409 39.199,8.262C39.201,6.724 39.813,5.25 40.9,4.162C41.988,3.075 43.462,2.463 45,2.461ZM30.059,56.69C30.057,57.855 29.594,58.972 28.77,59.796C27.946,60.62 26.829,61.083 25.664,61.084L15.952,61.084C14.787,61.083 13.67,60.62 12.846,59.796C12.022,58.972 11.559,57.855 11.557,56.69L11.557,53.245L30.059,53.245L30.059,56.69ZM33.662,49.096C33.661,49.542 33.483,49.969 33.168,50.284C32.853,50.599 32.426,50.776 31.98,50.778L9.633,50.778C9.409,50.783 9.187,50.742 8.979,50.66C8.771,50.578 8.581,50.454 8.421,50.298C8.262,50.141 8.135,49.954 8.048,49.748C7.961,49.542 7.917,49.32 7.917,49.096C7.917,48.873 7.961,48.651 8.048,48.445C8.135,48.239 8.262,48.052 8.421,47.895C8.581,47.738 8.771,47.615 8.979,47.533C9.187,47.45 9.409,47.41 9.633,47.415L31.98,47.415C32.427,47.415 32.854,47.593 33.17,47.909C33.485,48.224 33.662,48.653 33.662,49.099L33.662,49.096ZM13.525,44.954L20.808,30.712L28.091,44.957L13.525,44.954ZM34.697,24.922C31.661,24.013 28.416,24.082 25.421,25.119L17.258,27.929C13.359,29.257 9.146,29.352 5.191,28.201C4.612,28.038 4.08,27.737 3.642,27.325C3.203,26.912 2.87,26.4 2.672,25.832C2.478,25.286 2.418,24.702 2.498,24.129C2.578,23.555 2.795,23.01 3.131,22.538L3.215,22.417C5.097,23.494 7.186,24.158 9.344,24.364C11.503,24.57 13.68,24.314 15.731,23.613L23.894,20.806C27.814,19.449 32.061,19.359 36.035,20.55L39.551,21.594L39.551,26.368L34.697,24.922ZM80.311,83.141L80.311,87.535L9.689,87.535L9.689,83.141C9.691,82.722 9.858,82.321 10.155,82.025C10.451,81.73 10.852,81.563 11.271,81.563L78.729,81.563C79.148,81.563 79.55,81.73 79.847,82.027C80.143,82.323 80.31,82.726 80.311,83.145L80.311,83.141ZM72.271,74.939L72.271,79.102L17.729,79.102L17.729,74.944C17.73,74.338 17.971,73.757 18.399,73.329C18.828,72.9 19.409,72.659 20.014,72.659L69.986,72.659C70.591,72.659 71.172,72.9 71.601,73.329C72.029,73.757 72.27,74.338 72.271,74.944L72.271,74.939ZM42.012,70.198L42.012,15.956C43.932,16.713 46.068,16.713 47.988,15.956L47.988,70.198L42.012,70.198ZM78.442,56.69C78.441,57.855 77.977,58.972 77.153,59.796C76.33,60.62 75.213,61.083 74.047,61.084L64.336,61.084C63.171,61.083 62.054,60.62 61.23,59.796C60.406,58.972 59.943,57.855 59.941,56.69L59.941,53.245L78.442,53.245L78.442,56.69ZM82.046,49.096C82.045,49.542 81.868,49.969 81.553,50.285C81.238,50.6 80.81,50.777 80.364,50.778L58.02,50.778C57.796,50.783 57.574,50.742 57.366,50.66C57.158,50.578 56.968,50.454 56.808,50.298C56.648,50.141 56.521,49.954 56.435,49.748C56.348,49.542 56.303,49.32 56.303,49.096C56.303,48.873 56.348,48.651 56.435,48.445C56.521,48.239 56.648,48.052 56.808,47.895C56.968,47.738 57.158,47.615 57.366,47.533C57.574,47.45 57.796,47.41 58.02,47.415L80.367,47.415C80.813,47.416 81.24,47.594 81.554,47.91C81.869,48.226 82.046,48.653 82.046,49.099L82.046,49.096ZM61.909,44.957L69.192,30.712L76.475,44.957L61.909,44.957ZM87.331,25.832C87.132,26.401 86.799,26.913 86.36,27.325C85.92,27.738 85.388,28.038 84.808,28.201C80.854,29.352 76.64,29.257 72.742,27.929L64.579,25.122C61.584,24.085 58.339,24.016 55.303,24.925L50.449,26.368L50.449,21.594L53.965,20.55C57.939,19.359 62.186,19.448 66.106,20.807L74.269,23.613C76.32,24.315 78.498,24.571 80.656,24.365C82.814,24.159 84.903,23.495 86.785,22.418L86.869,22.539C87.205,23.01 87.422,23.556 87.502,24.129C87.582,24.702 87.522,25.287 87.328,25.832L87.331,25.832Z" fill="#00B8FF"/>
</svg>
