<svg width="216" height="64" viewBox="0 0 216 64" fill="none" xmlns="http://www.w3.org/2000/svg" xmlns:xlink="http://www.w3.org/1999/xlink">
<path d="M22.987,38.755C22.987,40.18 22.685,41.505 22.082,42.73C21.479,43.938 20.625,44.977 19.552,45.816C18.463,46.671 17.174,47.326 15.682,47.795C14.191,48.264 12.55,48.499 10.774,48.499C8.646,48.499 6.736,48.214 5.062,47.627C3.386,47.057 1.694,46.084 0.002,44.742L2.8,40.196C4.14,41.32 5.346,42.141 6.436,42.662C7.508,43.182 8.614,43.433 9.753,43.433C11.143,43.433 12.249,43.081 13.104,42.36C13.959,41.639 14.361,40.683 14.361,39.459C14.361,38.939 14.277,38.452 14.126,38C13.975,37.547 13.69,37.077 13.289,36.591C12.886,36.121 12.317,35.585 11.597,35.031C10.893,34.478 9.972,33.773 8.832,32.951C7.978,32.347 7.124,31.71 6.302,31.072C5.482,30.418 4.745,29.73 4.057,28.992C3.387,28.254 2.851,27.432 2.432,26.51C2.03,25.605 1.812,24.548 1.812,23.39C1.812,22.049 2.097,20.807 2.65,19.699C3.203,18.592 3.973,17.653 4.945,16.866C5.917,16.077 7.073,15.474 8.446,15.038C9.802,14.602 11.276,14.384 12.885,14.384C14.577,14.384 16.202,14.602 17.775,15.055C19.35,15.508 20.808,16.162 22.165,17.034L19.635,21.126C17.91,19.918 16.083,19.299 14.174,19.299C13.018,19.299 12.046,19.6 11.292,20.204C10.538,20.808 10.153,21.563 10.153,22.485C10.153,23.357 10.488,24.146 11.158,24.834C11.828,25.538 12.983,26.494 14.626,27.769C16.285,28.976 17.659,30.05 18.731,30.954C19.82,31.86 20.674,32.732 21.311,33.538C21.947,34.343 22.366,35.148 22.617,35.986C22.868,36.841 22.986,37.746 22.986,38.754L22.987,38.755ZM51.715,31.091C51.715,32.349 51.581,33.708 51.313,35.166C51.062,36.625 50.61,37.967 49.973,39.208C49.337,40.449 48.516,41.473 47.493,42.261C46.472,43.066 45.164,43.468 43.607,43.468C40.994,43.468 38.933,42.428 37.426,40.332C35.918,38.252 35.164,35.385 35.164,31.745C35.164,28.005 35.918,25.054 37.46,22.857C38.984,20.659 41.061,19.569 43.675,19.569C46.155,19.569 48.114,20.609 49.554,22.656C50.995,24.718 51.716,27.536 51.716,31.091L51.715,31.091ZM60.795,30.772C60.795,28.34 60.443,26.127 59.756,24.148C59.052,22.152 58.081,20.441 56.791,19C55.501,17.557 53.992,16.45 52.234,15.645C50.476,14.84 48.533,14.437 46.405,14.437C44.06,14.437 42,14.89 40.224,15.762C38.448,16.651 36.789,18.043 35.281,19.954L35.231,15.208L26.872,15.208L26.872,63.99L35.215,63.99L35.215,43.386C36.036,44.342 36.823,45.146 37.594,45.8C38.348,46.454 39.118,46.991 39.905,47.393C40.692,47.796 41.513,48.097 42.383,48.265C43.254,48.433 44.193,48.517 45.181,48.517C47.393,48.517 49.469,48.064 51.379,47.192C53.288,46.303 54.947,45.062 56.337,43.451C57.727,41.841 58.817,39.963 59.604,37.834C60.409,35.686 60.794,33.322 60.794,30.772L60.795,30.772ZM64.514,47.729L73.09,47.729L73.09,-0.005L64.514,-0.005L64.514,47.729ZM109.669,47.745L109.669,15.176L101.093,15.176L101.093,32.702C101.093,34.262 101.026,35.47 100.892,36.325C100.758,37.18 100.54,37.935 100.239,38.639C99.033,41.322 96.804,42.682 93.572,42.682C91.042,42.682 89.284,41.777 88.278,39.948C87.876,39.26 87.608,38.472 87.457,37.599C87.306,36.727 87.223,35.47 87.223,33.809L87.223,15.178L78.647,15.178L78.647,33.685C78.647,34.943 78.663,36.015 78.68,36.871C78.697,37.726 78.764,38.514 78.848,39.185C78.931,39.856 79.032,40.46 79.149,40.981C79.25,41.501 79.417,42.004 79.635,42.473C80.422,44.47 81.68,45.979 83.438,47.001C85.197,48.024 87.358,48.528 89.904,48.528C92.199,48.528 94.225,48.125 95.967,47.32C97.71,46.515 99.402,45.206 101.043,43.379L101.06,47.74L109.67,47.756L109.669,47.745ZM146.629,47.729L146.629,29.257C146.629,27.999 146.612,26.927 146.596,26.038C146.579,25.149 146.529,24.378 146.428,23.723C146.344,23.069 146.227,22.499 146.11,22.012C145.976,21.509 145.825,21.023 145.658,20.553C144.87,18.608 143.613,17.099 141.855,16.041C140.097,14.983 137.935,14.448 135.371,14.448C133.076,14.448 131.05,14.85 129.307,15.655C127.565,16.46 125.873,17.785 124.232,19.597L124.215,15.236L115.588,15.236L115.588,47.734L124.231,47.734L124.231,30.191C124.231,28.681 124.281,27.49 124.399,26.651C124.499,25.812 124.717,25.024 125.019,24.269C125.571,22.961 126.442,21.988 127.598,21.318C128.754,20.647 130.128,20.311 131.735,20.311C134.265,20.311 136.023,21.217 137.029,23.046C137.415,23.733 137.683,24.522 137.833,25.376C137.984,26.232 138.068,27.506 138.068,29.151L138.068,47.693L146.628,47.71L146.629,47.729ZM182.114,45.581L169.049,29.329L180.087,17.488L173.587,14.688L162.096,28.022L161.191,28.022L161.191,0.004L152.548,0.004L152.548,47.737L161.191,47.737L161.191,30.447L174.123,48.385L182.112,45.583L182.114,45.581ZM215.518,33.908L215.518,28.591L189.527,15.542L189.527,21.394L209.67,31.206L189.527,41.151L189.527,46.87L215.518,33.906L215.518,33.908ZM192.051,7.099C190.46,7.099 189.17,8.407 189.17,10.018C189.17,11.662 190.46,12.953 192.051,12.953C193.66,12.953 194.933,11.662 194.933,10.018C194.933,8.391 193.66,7.099 192.051,7.099L192.051,7.099ZM192.069,7.552C193.358,7.552 194.396,8.659 194.396,10.034C194.396,11.409 193.358,12.515 192.069,12.499C190.763,12.499 189.723,11.409 189.723,10.018C189.723,8.659 190.763,7.552 192.069,7.552ZM191.516,10.32L191.867,10.32C192.286,10.32 192.487,10.471 192.571,10.89C192.638,11.326 192.722,11.611 192.789,11.712L193.342,11.712C193.291,11.611 193.207,11.41 193.141,10.907C193.074,10.421 192.889,10.169 192.588,10.119L192.588,10.085C192.94,9.985 193.225,9.716 193.225,9.297C193.225,8.995 193.123,8.76 192.923,8.626C192.722,8.475 192.403,8.375 191.918,8.375C191.532,8.375 191.264,8.408 190.997,8.458L190.997,11.712L191.516,11.712L191.516,10.32L191.516,10.32ZM191.516,8.81C191.6,8.794 191.717,8.777 191.884,8.777C192.471,8.777 192.672,9.062 192.672,9.347C192.672,9.75 192.302,9.901 191.884,9.901L191.516,9.901L191.516,8.81L191.516,8.81Z" fill="#0C1724"/>
</svg>
