<svg width="130" height="102" viewBox="0 0 130 102" fill="none" xmlns="http://www.w3.org/2000/svg" xmlns:xlink="http://www.w3.org/1999/xlink">
<path d="M50.103,50.268L50.103,101.275L-0.904,101.275L-0.904,47.614C-0.904,21.712 19.477,0.482 45.007,-0.898L45.007,10.885C35.734,11.572 27.064,15.739 20.734,22.551C14.405,29.363 10.884,38.315 10.879,47.614C10.879,49.1 12.046,50.268 13.533,50.268L50.103,50.268ZM129.665,50.268L129.665,101.275L78.658,101.275L78.658,47.614C78.658,21.712 99.04,0.482 124.623,-0.898L124.623,10.885C105.515,12.265 90.441,28.188 90.441,47.614C90.441,49.1 91.609,50.268 93.095,50.268L129.665,50.268Z" stroke="#50FEA8" stroke-width="2" stroke-miterlimit="3.999327"/>
</svg>
